<svg xmlns="http://www.w3.org/2000/svg" xmlns:xlink="http://www.w3.org/1999/xlink" style="fill-opacity:1;color-rendering:auto;color-interpolation:auto;text-rendering:auto;stroke:#000;stroke-linecap:square;stroke-miterlimit:10;shape-rendering:auto;stroke-opacity:1;fill:#000;stroke-dasharray:none;font-weight:400;stroke-width:1;font-family:'Dialog';font-style:normal;stroke-linejoin:miter;font-size:12;stroke-dashoffset:0;image-rendering:auto" width="109" height="71"><g><g style="fill:#fff;stroke:#fff"><rect width="109" height="71" x="0" y="0" style="stroke:none"/></g><g style="font-size:1;text-rendering:geometricPrecision;color-rendering:optimizeQuality;image-rendering:optimizeQuality;font-family:'jlm_cmmi10';color-interpolation:linearRGB"><path style="stroke:none" d="M0.0938 -0.0625 L0.0938 -0.0625 L0.1406 -0.2969 Q0.1562 -0.3594 0.1562 -0.375 Q0.1562 -0.4219 0.125 -0.4219 Q0.0938 -0.4219 0.0625 -0.3281 Q0.0625 -0.3125 0.0625 -0.2969 Q0.0469 -0.2812 0.0469 -0.2812 Q0.0312 -0.2812 0.0312 -0.2812 Q0.0312 -0.2969 0.0469 -0.3594 L0.0469 -0.3594 Q0.0469 -0.3594 0.0469 -0.3594 L0.0469 -0.3594 L0.0469 -0.3594 L0.0625 -0.3906 Q0.0781 -0.4219 0.1094 -0.4375 Q0.125 -0.4375 0.1406 -0.4375 Q0.1875 -0.4375 0.2188 -0.3906 Q0.2188 -0.375 0.2188 -0.3594 Q0.2969 -0.4375 0.375 -0.4375 Q0.4688 -0.4375 0.4844 -0.375 Q0.5 -0.3594 0.5 -0.3281 Q0.5 -0.2812 0.4375 -0.1094 Q0.4219 -0.0781 0.4219 -0.0469 Q0.4219 -0.0156 0.4375 -0.0156 Q0.5156 -0.0156 0.5469 -0.1406 Q0.5469 -0.1562 0.5469 -0.1562 L0.5469 -0.1562 L0.5625 -0.1562 Q0.5781 -0.1562 0.5781 -0.1406 Q0.5781 -0.125 0.5469 -0.0781 Q0.5 0.0156 0.4375 0.0156 Q0.3906 0.0156 0.3594 -0.0312 Q0.3594 -0.0469 0.3594 -0.0781 Q0.3594 -0.0938 0.375 -0.1094 Q0.4375 -0.2969 0.4375 -0.3438 Q0.4375 -0.4219 0.375 -0.4219 Q0.2812 -0.4219 0.2344 -0.3125 Q0.2188 -0.3125 0.2188 -0.2969 L0.2031 -0.25 Q0.2031 -0.2188 0.1875 -0.1875 L0.1562 -0.0938 Q0.1406 -0.0156 0.1406 -0.0156 Q0.1406 0.0156 0.1094 0.0156 Q0.0781 0 0.0781 -0.0156 Q0.0781 -0.0156 0.0938 -0.0625 Z" transform="scale(20,20) translate(0.2649,0.7511) scale(0.7,0.7)"/></g><g style="font-size:1;text-rendering:geometricPrecision;color-rendering:optimizeQuality;image-rendering:optimizeQuality;font-family:'jlm_cmsy10';color-interpolation:linearRGB"><path style="stroke:none" d="M0.6562 -0.2344 L0.1094 -0.2344 Q0.0781 -0.2344 0.0781 -0.25 Q0.0781 -0.2656 0.1094 -0.2656 L0.6562 -0.2656 Q0.6875 -0.2656 0.6875 -0.25 Q0.6875 -0.2344 0.6562 -0.2344 Z" transform="matrix(20,0,0,20,0,0) translate(0.6851,0.7511) scale(0.7,0.7)"/></g><g style="font-size:1;text-rendering:geometricPrecision;color-rendering:optimizeQuality;image-rendering:optimizeQuality;font-family:'jlm_cmr10';color-interpolation:linearRGB"><path style="stroke:none" d="M0.2969 -0.6406 L0.2969 -0.0781 Q0.2969 -0.0469 0.3125 -0.0469 Q0.3281 -0.0312 0.3906 -0.0312 L0.4219 -0.0312 L0.4219 0 Q0.3906 0 0.25 0 Q0.125 0 0.0938 0 L0.0938 -0.0312 L0.125 -0.0312 Q0.2031 -0.0312 0.2188 -0.0469 L0.2188 -0.0469 Q0.2188 -0.0625 0.2188 -0.0781 L0.2188 -0.5938 Q0.1719 -0.5781 0.0938 -0.5781 L0.0938 -0.6094 Q0.2031 -0.6094 0.2656 -0.6719 Q0.2969 -0.6719 0.2969 -0.6562 L0.2969 -0.6562 L0.2969 -0.6562 Q0.2969 -0.6562 0.2969 -0.6406 Z" transform="matrix(20,0,0,20,0,0) translate(1.2295,0.7511) scale(0.7,0.7)"/></g><g style="font-size:1;text-rendering:geometricPrecision;color-rendering:optimizeQuality;image-rendering:optimizeQuality;font-family:'jlm_cmex10';color-interpolation:linearRGB"><path style="stroke:none" d="M0.0625 1.4062 Q0.0625 1.4062 0.0625 1.3906 Q0.0625 1.3906 0.0625 1.375 L0.5938 0.7656 L0.0625 0.0469 Q0.0625 0.0469 0.0625 0.0469 L0.0625 0.0156 Q0.0625 0 0.0625 0 Q0.0625 0 0.0625 0 L1.2656 0 L1.3906 0.2812 L1.3594 0.2812 Q1.3125 0.1719 1.2031 0.125 Q1.0938 0.0781 0.9766 0.0625 Q0.8594 0.0469 0.7031 0.0469 L0.2344 0.0469 L0.7031 0.6875 Q0.7188 0.7031 0.7188 0.7031 Q0.7188 0.7031 0.7031 0.7031 L0.1875 1.3125 L0.7031 1.3125 Q0.8594 1.3125 0.9844 1.2969 Q1.1094 1.2812 1.2109 1.2344 Q1.3125 1.1875 1.3594 1.0781 L1.3906 1.0781 L1.2656 1.4062 L0.0625 1.4062 Z" transform="matrix(20,0,0,20,0,0) translate(0.2,1.0511)"/></g><g style="font-size:1;text-rendering:geometricPrecision;color-rendering:optimizeQuality;image-rendering:optimizeQuality;font-family:'jlm_cmmi10';color-interpolation:linearRGB"><path style="stroke:none" d="M0.2812 -0.625 Q0.2812 -0.5938 0.25 -0.5781 Q0.2344 -0.5781 0.2344 -0.5781 Q0.2031 -0.5781 0.1875 -0.5938 Q0.1875 -0.6094 0.1875 -0.6094 Q0.1875 -0.6406 0.2188 -0.6562 Q0.2344 -0.6562 0.25 -0.6562 Q0.2812 -0.6562 0.2812 -0.6406 L0.2812 -0.6406 Q0.2812 -0.625 0.2812 -0.625 ZM0.2031 -0.25 L0.1719 -0.1406 Q0.1406 -0.0625 0.1406 -0.0469 Q0.1406 -0.0156 0.1562 -0.0156 Q0.2344 -0.0156 0.2656 -0.125 L0.2656 -0.1406 Q0.2656 -0.1562 0.2812 -0.1562 L0.2812 -0.1562 L0.2812 -0.1562 Q0.2969 -0.1562 0.2969 -0.1406 Q0.2969 -0.125 0.2656 -0.0781 Q0.2344 0.0156 0.1562 0.0156 Q0.1094 0.0156 0.0938 -0.0312 Q0.0781 -0.0469 0.0781 -0.0781 Q0.0781 -0.0938 0.1094 -0.1562 Q0.1719 -0.3438 0.1719 -0.3438 Q0.1875 -0.3594 0.1875 -0.3906 Q0.1875 -0.4219 0.1562 -0.4219 Q0.1094 -0.4219 0.0625 -0.3281 L0.0625 -0.3281 Q0.0625 -0.3125 0.0625 -0.2969 Q0.0469 -0.2812 0.0469 -0.2812 Q0.0312 -0.2812 0.0312 -0.2812 Q0.0312 -0.3125 0.0469 -0.3438 Q0.0938 -0.4375 0.1562 -0.4375 Q0.2188 -0.4375 0.2344 -0.3906 Q0.25 -0.375 0.25 -0.3594 Q0.25 -0.3438 0.2344 -0.3125 Q0.2188 -0.2656 0.2031 -0.25 Z" transform="matrix(20,0,0,20,0,0) translate(0.3544,3.1795) scale(0.7,0.7)"/></g><g style="font-size:1;text-rendering:geometricPrecision;color-rendering:optimizeQuality;image-rendering:optimizeQuality;font-family:'jlm_cmr10';color-interpolation:linearRGB"><path style="stroke:none" d="M0.6875 -0.3281 L0.0938 -0.3281 Q0.0625 -0.3281 0.0625 -0.3438 Q0.0625 -0.3594 0.0938 -0.3594 L0.6875 -0.3594 Q0.7188 -0.3594 0.7188 -0.3438 Q0.7188 -0.3281 0.6875 -0.3281 ZM0.6875 -0.1406 L0.0938 -0.1406 Q0.0625 -0.1406 0.0625 -0.1562 Q0.0625 -0.1719 0.0938 -0.1719 L0.6875 -0.1719 Q0.7188 -0.1719 0.7188 -0.1562 Q0.7188 -0.1406 0.6875 -0.1406 Z" transform="matrix(20,0,0,20,0,0) translate(0.5956,3.1795) scale(0.7,0.7)"/></g><g style="font-size:1;text-rendering:geometricPrecision;color-rendering:optimizeQuality;image-rendering:optimizeQuality;font-family:'jlm_cmr10';color-interpolation:linearRGB"><path style="stroke:none" d="M0.4531 -0.3125 Q0.4531 -0.1719 0.4219 -0.0938 Q0.3594 0.0156 0.25 0.0156 Q0.1562 0.0156 0.1094 -0.0469 Q0.0938 -0.0625 0.0781 -0.0781 Q0.0312 -0.1562 0.0312 -0.3125 Q0.0312 -0.4688 0.0781 -0.5469 Q0.125 -0.6562 0.2344 -0.6719 L0.25 -0.6719 Q0.3438 -0.6719 0.3906 -0.5938 L0.3906 -0.5938 Q0.4062 -0.5781 0.4219 -0.5469 Q0.4531 -0.4688 0.4531 -0.3125 ZM0.25 0 L0.25 0 Q0.3125 0 0.3438 -0.0625 Q0.3594 -0.0938 0.3594 -0.125 Q0.375 -0.1875 0.375 -0.3281 Q0.375 -0.4688 0.3594 -0.5312 Q0.3438 -0.625 0.2812 -0.6406 Q0.2656 -0.6406 0.25 -0.6406 Q0.1719 -0.6406 0.1406 -0.5781 Q0.1406 -0.5469 0.125 -0.5156 Q0.125 -0.4688 0.125 -0.3281 Q0.125 -0.1875 0.1406 -0.125 Q0.1562 -0.0312 0.2188 0 Q0.2344 0 0.25 0 Z" transform="matrix(20,0,0,20,0,0) translate(1.14,3.1795) scale(0.7,0.7)"/></g><g style="font-size:1;text-rendering:geometricPrecision;color-rendering:optimizeQuality;image-rendering:optimizeQuality;font-family:'jlm_cmr10';color-interpolation:linearRGB"><path style="stroke:none" d="M0.3281 0.2344 L0.3281 0.2344 Q0.3281 0.25 0.3281 0.25 Q0.3125 0.25 0.2656 0.2031 Q0.2031 0.1406 0.1719 0.0625 Q0.0938 -0.0781 0.0938 -0.25 Q0.0938 -0.4219 0.1562 -0.5625 Q0.2188 -0.6719 0.2969 -0.7344 Q0.3125 -0.75 0.3281 -0.75 Q0.3281 -0.75 0.3281 -0.7344 Q0.3281 -0.7344 0.3125 -0.7188 Q0.1562 -0.5625 0.1562 -0.25 Q0.1562 0.0625 0.3125 0.2188 Q0.3281 0.2344 0.3281 0.2344 Z" transform="matrix(20,0,0,20,0,0) translate(1.6444,2.1011)"/></g><g style="font-size:1;text-rendering:geometricPrecision;color-rendering:optimizeQuality;image-rendering:optimizeQuality;font-family:'jlm_cmmi10';color-interpolation:linearRGB"><path style="stroke:none" d="M0.375 -0.375 Q0.375 -0.4062 0.4062 -0.4219 Q0.4062 -0.4219 0.4219 -0.4219 Q0.4375 -0.4219 0.4375 -0.3906 Q0.4375 -0.3906 0.4375 -0.3594 L0.4062 -0.2188 Q0.3906 -0.1562 0.375 -0.125 Q0.3594 -0.0781 0.3594 -0.0625 Q0.3594 -0.0156 0.3906 -0.0156 Q0.4375 -0.0156 0.4531 -0.0938 Q0.4688 -0.1094 0.4688 -0.1406 Q0.4844 -0.1562 0.4844 -0.1562 Q0.5 -0.1562 0.5 -0.1406 Q0.5 -0.125 0.4844 -0.0781 Q0.4688 -0.0625 0.4688 -0.0469 Q0.4375 0.0156 0.3906 0.0156 Q0.3438 0.0156 0.3125 -0.0312 Q0.3125 -0.0469 0.2969 -0.0625 Q0.2344 0.0156 0.1719 0.0156 Q0.0938 0.0156 0.0625 -0.0625 Q0.0469 -0.0938 0.0469 -0.1562 Q0.0469 -0.25 0.1094 -0.3438 Q0.1875 -0.4375 0.2656 -0.4375 Q0.2812 -0.4375 0.2812 -0.4375 Q0.3438 -0.4375 0.375 -0.375 ZM0.3125 -0.125 L0.3125 -0.125 L0.3594 -0.3125 Q0.3594 -0.3281 0.3594 -0.3281 Q0.3594 -0.3594 0.3438 -0.3906 Q0.3281 -0.4219 0.2812 -0.4219 Q0.2344 -0.4219 0.1875 -0.3594 Q0.1719 -0.3438 0.1719 -0.3281 Q0.1406 -0.2656 0.1094 -0.1562 Q0.1094 -0.125 0.1094 -0.1094 Q0.1094 -0.0312 0.1562 -0.0156 Q0.1562 -0.0156 0.1719 -0.0156 Q0.2344 -0.0156 0.2812 -0.0781 Q0.2969 -0.0938 0.3125 -0.1094 L0.3125 -0.1094 Q0.3125 -0.125 0.3125 -0.125 Z" transform="matrix(20,0,0,20,0,0) translate(2.0333,2.1011)"/></g><g style="font-size:1;text-rendering:geometricPrecision;color-rendering:optimizeQuality;image-rendering:optimizeQuality;font-family:'jlm_cmmi10';color-interpolation:linearRGB"><path style="stroke:none" d="M0.2812 -0.625 Q0.2812 -0.5938 0.25 -0.5781 Q0.2344 -0.5781 0.2344 -0.5781 Q0.2031 -0.5781 0.1875 -0.5938 Q0.1875 -0.6094 0.1875 -0.6094 Q0.1875 -0.6406 0.2188 -0.6562 Q0.2344 -0.6562 0.25 -0.6562 Q0.2812 -0.6562 0.2812 -0.6406 L0.2812 -0.6406 Q0.2812 -0.625 0.2812 -0.625 ZM0.2031 -0.25 L0.1719 -0.1406 Q0.1406 -0.0625 0.1406 -0.0469 Q0.1406 -0.0156 0.1562 -0.0156 Q0.2344 -0.0156 0.2656 -0.125 L0.2656 -0.1406 Q0.2656 -0.1562 0.2812 -0.1562 L0.2812 -0.1562 L0.2812 -0.1562 Q0.2969 -0.1562 0.2969 -0.1406 Q0.2969 -0.125 0.2656 -0.0781 Q0.2344 0.0156 0.1562 0.0156 Q0.1094 0.0156 0.0938 -0.0312 Q0.0781 -0.0469 0.0781 -0.0781 Q0.0781 -0.0938 0.1094 -0.1562 Q0.1719 -0.3438 0.1719 -0.3438 Q0.1875 -0.3594 0.1875 -0.3906 Q0.1875 -0.4219 0.1562 -0.4219 Q0.1094 -0.4219 0.0625 -0.3281 L0.0625 -0.3281 Q0.0625 -0.3125 0.0625 -0.2969 Q0.0469 -0.2812 0.0469 -0.2812 Q0.0312 -0.2812 0.0312 -0.2812 Q0.0312 -0.3125 0.0469 -0.3438 Q0.0938 -0.4375 0.1562 -0.4375 Q0.2188 -0.4375 0.2344 -0.3906 Q0.25 -0.375 0.25 -0.3594 Q0.25 -0.3438 0.2344 -0.3125 Q0.2188 -0.2656 0.2031 -0.25 Z" transform="matrix(20,0,0,20,0,0) translate(2.5619,2.2511) scale(0.7,0.7)"/></g><g style="font-size:1;text-rendering:geometricPrecision;color-rendering:optimizeQuality;image-rendering:optimizeQuality;font-family:'jlm_cmr10';color-interpolation:linearRGB"><path style="stroke:none" d="M0.4062 -0.2344 L0.4062 0.0469 Q0.4062 0.0781 0.3906 0.0781 Q0.375 0.0781 0.375 0.0469 L0.375 -0.2344 L0.0938 -0.2344 Q0.0625 -0.2344 0.0625 -0.25 Q0.0625 -0.2656 0.0938 -0.2656 L0.375 -0.2656 L0.375 -0.5469 Q0.375 -0.5781 0.3906 -0.5781 Q0.4062 -0.5781 0.4062 -0.5469 L0.4062 -0.2656 L0.6875 -0.2656 Q0.7188 -0.2656 0.7188 -0.25 Q0.7188 -0.2344 0.6875 -0.2344 L0.4062 -0.2344 Z" transform="matrix(20,0,0,20,0,0) translate(3.0253,2.1011)"/></g><g style="font-size:1;text-rendering:geometricPrecision;color-rendering:optimizeQuality;image-rendering:optimizeQuality;font-family:'jlm_cmmi10';color-interpolation:linearRGB"><path style="stroke:none" d="M0.2344 -0.6875 L0.1719 -0.375 Q0.2188 -0.4375 0.2812 -0.4375 Q0.3594 -0.4375 0.3906 -0.375 Q0.4219 -0.3281 0.4219 -0.2812 Q0.4219 -0.1719 0.3438 -0.0781 Q0.2656 0 0.1875 0.0156 Q0.1875 0.0156 0.1719 0.0156 Q0.1094 0.0156 0.0625 -0.0625 Q0.0469 -0.0938 0.0469 -0.1406 Q0.0469 -0.1875 0.0625 -0.25 L0.1406 -0.5781 Q0.1562 -0.625 0.1562 -0.6406 Q0.1562 -0.6406 0.1406 -0.6562 L0.1406 -0.6562 Q0.1406 -0.6562 0.1094 -0.6562 Q0.0938 -0.6562 0.0781 -0.6562 Q0.0781 -0.6875 0.1094 -0.6875 L0.2188 -0.6875 Q0.2344 -0.6875 0.2344 -0.6875 ZM0.1406 -0.3125 L0.125 -0.2188 Q0.1094 -0.1562 0.1094 -0.1094 Q0.1094 -0.0312 0.1562 -0.0156 Q0.1719 -0.0156 0.1719 -0.0156 Q0.2344 -0.0156 0.2656 -0.0781 Q0.2812 -0.0938 0.2969 -0.1094 Q0.3125 -0.1719 0.3438 -0.2656 Q0.3438 -0.2969 0.3438 -0.3281 Q0.3438 -0.4062 0.2969 -0.4219 L0.2969 -0.4219 Q0.2812 -0.4219 0.2812 -0.4219 Q0.2188 -0.4219 0.1562 -0.3438 Q0.1562 -0.3281 0.1406 -0.3125 Z" transform="matrix(20,0,0,20,0,0) translate(4.0253,2.1011)"/></g><g style="font-size:1;text-rendering:geometricPrecision;color-rendering:optimizeQuality;image-rendering:optimizeQuality;font-family:'jlm_cmr10';color-interpolation:linearRGB"><path style="stroke:none" d="M0.4531 -0.1719 L0.4531 -0.1719 L0.4219 0 L0.0469 0 Q0.0469 -0.0312 0.0625 -0.0312 L0.0625 -0.0312 L0.25 -0.25 Q0.3594 -0.375 0.3594 -0.4688 Q0.3594 -0.5625 0.2969 -0.6094 L0.2969 -0.6094 L0.2969 -0.6094 Q0.2656 -0.6406 0.2188 -0.6406 Q0.1562 -0.6406 0.1094 -0.5781 Q0.0938 -0.5625 0.0938 -0.5312 Q0.0938 -0.5312 0.1094 -0.5312 Q0.1406 -0.5312 0.1562 -0.5 L0.1562 -0.5 Q0.1562 -0.4844 0.1562 -0.4844 Q0.1562 -0.4375 0.1094 -0.4375 Q0.1094 -0.4219 0.1094 -0.4219 Q0.0625 -0.4219 0.0469 -0.4531 Q0.0469 -0.4688 0.0469 -0.4844 Q0.0469 -0.5625 0.1094 -0.6094 Q0.1562 -0.6719 0.2344 -0.6719 Q0.3438 -0.6719 0.4062 -0.5938 Q0.4375 -0.5469 0.4531 -0.4844 Q0.4531 -0.4844 0.4531 -0.4688 Q0.4531 -0.4062 0.3906 -0.3281 Q0.3594 -0.2969 0.2969 -0.25 L0.25 -0.1875 L0.2344 -0.1875 L0.125 -0.0781 L0.3125 -0.0781 Q0.3906 -0.0781 0.4062 -0.0781 Q0.4062 -0.0938 0.4219 -0.1719 L0.4531 -0.1719 Z" transform="matrix(20,0,0,20,0,0) translate(4.4545,1.6882) scale(0.7,0.7)"/></g><g style="font-size:1;text-rendering:geometricPrecision;color-rendering:optimizeQuality;image-rendering:optimizeQuality;font-family:'jlm_cmmi10';color-interpolation:linearRGB"><path style="stroke:none" d="M0.2812 -0.625 Q0.2812 -0.5938 0.25 -0.5781 Q0.2344 -0.5781 0.2344 -0.5781 Q0.2031 -0.5781 0.1875 -0.5938 Q0.1875 -0.6094 0.1875 -0.6094 Q0.1875 -0.6406 0.2188 -0.6562 Q0.2344 -0.6562 0.25 -0.6562 Q0.2812 -0.6562 0.2812 -0.6406 L0.2812 -0.6406 Q0.2812 -0.625 0.2812 -0.625 ZM0.2031 -0.25 L0.1719 -0.1406 Q0.1406 -0.0625 0.1406 -0.0469 Q0.1406 -0.0156 0.1562 -0.0156 Q0.2344 -0.0156 0.2656 -0.125 L0.2656 -0.1406 Q0.2656 -0.1562 0.2812 -0.1562 L0.2812 -0.1562 L0.2812 -0.1562 Q0.2969 -0.1562 0.2969 -0.1406 Q0.2969 -0.125 0.2656 -0.0781 Q0.2344 0.0156 0.1562 0.0156 Q0.1094 0.0156 0.0938 -0.0312 Q0.0781 -0.0469 0.0781 -0.0781 Q0.0781 -0.0938 0.1094 -0.1562 Q0.1719 -0.3438 0.1719 -0.3438 Q0.1875 -0.3594 0.1875 -0.3906 Q0.1875 -0.4219 0.1562 -0.4219 Q0.1094 -0.4219 0.0625 -0.3281 L0.0625 -0.3281 Q0.0625 -0.3125 0.0625 -0.2969 Q0.0469 -0.2812 0.0469 -0.2812 Q0.0312 -0.2812 0.0312 -0.2812 Q0.0312 -0.3125 0.0469 -0.3438 Q0.0938 -0.4375 0.1562 -0.4375 Q0.2188 -0.4375 0.2344 -0.3906 Q0.25 -0.375 0.25 -0.3594 Q0.25 -0.3438 0.2344 -0.3125 Q0.2188 -0.2656 0.2031 -0.25 Z" transform="matrix(20,0,0,20,0,0) translate(4.4545,2.3483) scale(0.7,0.7)"/></g><g style="font-size:1;text-rendering:geometricPrecision;color-rendering:optimizeQuality;image-rendering:optimizeQuality;font-family:'jlm_cmr10';color-interpolation:linearRGB"><path style="stroke:none" d="M0.2812 -0.25 L0.2812 -0.25 Q0.2812 -0.0781 0.2188 0.0625 Q0.1719 0.1719 0.0938 0.2344 Q0.0781 0.25 0.0625 0.25 Q0.0625 0.25 0.0625 0.2344 Q0.0625 0.2344 0.0625 0.2188 Q0.2344 0.0625 0.2344 -0.25 Q0.2344 -0.5625 0.0781 -0.7188 L0.0781 -0.7188 Q0.0625 -0.7344 0.0625 -0.7344 Q0.0625 -0.75 0.0625 -0.75 Q0.0781 -0.75 0.125 -0.7031 Q0.1875 -0.6406 0.2188 -0.5625 Q0.2812 -0.4219 0.2812 -0.25 Z" transform="matrix(20,0,0,20,0,0) translate(4.8295,2.1011)"/></g></g></svg>