<?xml version="1.0" encoding="UTF-8" standalone="no"?><svg xmlns="http://www.w3.org/2000/svg" xmlns:xlink="http://www.w3.org/1999/xlink" contentStyleType="text/css" height="277px" preserveAspectRatio="none" style="width:366px;height:277px;background:#FFFFFF;" version="1.1" viewBox="0 0 366 277" width="366px" zoomAndPan="magnify"><defs/><g><!--MD5=[8fc3522a43f8c7199df5e09e5bb0188e]
entity user--><g id="elem_user"><ellipse cx="176.5" cy="107.5" fill="#F1F1F1" rx="8" ry="8" style="stroke:#181818;stroke-width:0.5;"/><path d="M176.5,115.5 L176.5,142.5 M163.5,123.5 L189.5,123.5 M176.5,142.5 L163.5,157.5 M176.5,142.5 L189.5,157.5 " fill="none" style="stroke:#181818;stroke-width:0.5;"/><text fill="#000000" font-family="sans-serif" font-size="14" lengthAdjust="spacing" textLength="28" x="162.5" y="175.0439">user</text></g><g id="elem_dummyLeft"><ellipse cx="66.6895" cy="138.6176" fill="#F1F1F1" rx="60.6895" ry="16.6176" style="stroke:#181818;stroke-width:0.5;"/><text fill="#000000" font-family="sans-serif" font-size="14" lengthAdjust="spacing" textLength="69" x="29.1895" y="143.8896">dummyLeft</text></g><g id="elem_dummyRight"><ellipse cx="293.3166" cy="138.6638" fill="#F1F1F1" rx="67.3166" ry="16.6638" style="stroke:#181818;stroke-width:0.5;"/><text fill="#000000" font-family="sans-serif" font-size="14" lengthAdjust="spacing" textLength="78" x="251.3166" y="143.9358">dummyRight</text></g><g id="elem_dummyUp"><ellipse cx="176.5358" cy="22.5742" fill="#F1F1F1" rx="55.5358" ry="16.5742" style="stroke:#181818;stroke-width:0.5;"/><text fill="#000000" font-family="sans-serif" font-size="14" lengthAdjust="spacing" textLength="62" x="142.5358" y="27.8462">dummyUp</text></g><g id="elem_dummyDown"><ellipse cx="176.2894" cy="254.6728" fill="#F1F1F1" rx="68.7894" ry="16.6728" style="stroke:#181818;stroke-width:0.5;"/><text fill="#000000" font-family="sans-serif" font-size="14" lengthAdjust="spacing" textLength="80" x="133.2894" y="259.9448">dummyDown</text></g><!--MD5=[053fa5d87d2014a32a9931014b50d461]
reverse link dummyLeft to user--><g id="link_dummyLeft_user"><path d="M132.301,138.5 C142.272,138.5 152.244,138.5 162.216,138.5 " fill="none" id="dummyLeft-backto-user" style="stroke:#181818;stroke-width:1.0;"/><polygon fill="#181818" points="127.086,138.5,136.086,142.5,132.086,138.5,136.086,134.5,127.086,138.5" style="stroke:#181818;stroke-width:1.0;"/></g><!--MD5=[aa0f533aa51e839732af46b4e3af2a31]
link user to dummyRight--><g id="link_user_dummyRight"><path d="M190.668,138.5 C200.588,138.5 210.508,138.5 220.427,138.5 " fill="none" id="user-to-dummyRight" style="stroke:#181818;stroke-width:1.0;"/><polygon fill="#181818" points="225.615,138.5,216.615,134.5,220.615,138.5,216.615,142.5,225.615,138.5" style="stroke:#181818;stroke-width:1.0;"/></g><!--MD5=[c1ea129134dbf104b14b9347f30f8e1d]
reverse link dummyUp to user--><g id="link_dummyUp_user"><path d="M176.5,44.658 C176.5,59.802 176.5,80.627 176.5,98.716 " fill="none" id="dummyUp-backto-user" style="stroke:#181818;stroke-width:1.0;"/><polygon fill="#181818" points="176.5,39.351,172.5,48.351,176.5,44.351,180.5,48.351,176.5,39.351" style="stroke:#181818;stroke-width:1.0;"/></g><!--MD5=[fad1c854a57b6e1359e79d329bd63d5f]
link user to dummyDown--><g id="link_user_dummyDown"><path d="M176.5,178.0952 C176.5,196.2745 176.5,217.2517 176.5,232.4581 " fill="none" id="user-to-dummyDown" style="stroke:#181818;stroke-width:1.0;"/><polygon fill="#181818" points="176.5,237.7834,180.5,228.7834,176.5,232.7834,172.5,228.7834,176.5,237.7834" style="stroke:#181818;stroke-width:1.0;"/></g><!--MD5=[610b7951dceead15a6c938f5395b31df]
@startuml
:user: -left-> (dummyLeft) 
:user: -right-> (dummyRight) 
:user: -up-> (dummyUp)
:user: -down-> (dummyDown)
@enduml

PlantUML version 1.2022.4(Sat Apr 09 21:29:17 CST 2022)
(GPL source distribution)
Java Runtime: Java(TM) SE Runtime Environment
JVM: Java HotSpot(TM) 64-Bit Server VM
Default Encoding: GBK
Language: zh
Country: CN
--></g></svg>