<?xml version="1.0" encoding="UTF-8" standalone="no"?><svg xmlns="http://www.w3.org/2000/svg" xmlns:xlink="http://www.w3.org/1999/xlink" contentStyleType="text/css" height="275px" preserveAspectRatio="none" style="width:331px;height:275px;background:#FFFFFF;" version="1.1" viewBox="0 0 331 275" width="331px" zoomAndPan="magnify"><defs/><g><!--MD5=[111002b242a260edbcaabc3e471064d0]
cluster checkout--><g id="cluster_checkout"><rect height="262" rx="2.5" ry="2.5" style="stroke:#181818;stroke-width:1.0;fill:none;" width="136" x="111" y="7"/><text fill="#000000" font-family="sans-serif" font-size="14" font-weight="bold" lengthAdjust="spacing" textLength="65" x="146.5" y="25.0439">checkout</text></g><g id="elem_checkout"><ellipse cx="178.8725" cy="149.0427" fill="#F1F1F1" rx="51.8725" ry="16.5427" style="stroke:#181818;stroke-width:0.5;"/><text fill="#000000" font-family="sans-serif" font-size="14" lengthAdjust="spacing" textLength="57" x="148.3693" y="154.0817">checkout</text></g><g id="elem_payment"><ellipse cx="179.2027" cy="62.0297" fill="#F1F1F1" rx="49.7027" ry="16.5297" style="stroke:#181818;stroke-width:0.5;"/><text fill="#000000" font-family="sans-serif" font-size="14" lengthAdjust="spacing" textLength="54" x="150.9489" y="66.8768">payment</text></g><g id="elem_help"><ellipse cx="179.0772" cy="236.02" fill="#F1F1F1" rx="30.5772" ry="16.52" style="stroke:#181818;stroke-width:0.5;"/><text fill="#000000" font-family="sans-serif" font-size="14" lengthAdjust="spacing" textLength="27" x="165.5772" y="240.5039">help</text></g><!--MD5=[92848cbaf65985a669855153c5362c37]
entity customer--><g id="elem_customer"><ellipse cx="35" cy="118" fill="#F1F1F1" rx="8" ry="8" style="stroke:#181818;stroke-width:0.5;"/><path d="M35,126 L35,153 M22,134 L48,134 M35,153 L22,168 M35,153 L48,168 " fill="none" style="stroke:#181818;stroke-width:0.5;"/><text fill="#000000" font-family="sans-serif" font-size="14" lengthAdjust="spacing" textLength="58" x="6" y="185.5439">customer</text></g><!--MD5=[ebeabf449828f4e0b33bbb47961e644b]
entity clerk--><g id="elem_clerk"><ellipse cx="309" cy="118" fill="#F1F1F1" rx="8" ry="8" style="stroke:#181818;stroke-width:0.5;"/><path d="M309,126 L309,153 M296,134 L322,134 M309,153 L296,168 M309,153 L322,168 " fill="none" style="stroke:#181818;stroke-width:0.5;"/><text fill="#000000" font-family="sans-serif" font-size="14" lengthAdjust="spacing" textLength="30" x="294" y="185.5439">clerk</text></g><!--MD5=[852381a7bb976b86080137fb6d718ea9]
link customer to checkout--><g id="link_customer_checkout"><path d="M64.0546,149 C81.9173,149 105.589,149 126.727,149 " fill="none" id="customer-checkout" style="stroke:#181818;stroke-width:1.0;"/></g><!--MD5=[3ad5c6d5c608bfd6b87dc9c07c40a15f]
link checkout to payment--><g id="link_checkout_payment"><path d="M179,132.226 C179,118.505 179,98.992 179,84.016 " fill="none" id="checkout-to-payment" style="stroke:#181818;stroke-width:1.0;stroke-dasharray:7.0,7.0;"/><polygon fill="#181818" points="179,78.723,175,87.723,179,83.723,183,87.723,179,78.723" style="stroke:#181818;stroke-width:1.0;"/><text fill="#000000" font-family="sans-serif" font-size="13" lengthAdjust="spacing" textLength="41" x="146" y="111.8979">include</text></g><!--MD5=[739e7928149c8fe27c2b5850560351c7]
link help to checkout--><g id="link_help_checkout"><path d="M179,219.2255 C179,205.5048 179,185.9923 179,171.016 " fill="none" id="help-to-checkout" style="stroke:#181818;stroke-width:1.0;stroke-dasharray:7.0,7.0;"/><polygon fill="#181818" points="179,165.723,175,174.723,179,170.723,183,174.723,179,165.723" style="stroke:#181818;stroke-width:1.0;"/><text fill="#000000" font-family="sans-serif" font-size="13" lengthAdjust="spacing" textLength="46" x="143.5" y="198.8979">extends</text></g><!--MD5=[b4c4ee8f2d94c159d2b9e04bd372cbe0]
link checkout to clerk--><g id="link_checkout_clerk"><path d="M231.325,149 C253.999,149 278.884,149 293.972,149 " fill="none" id="checkout-clerk" style="stroke:#181818;stroke-width:1.0;"/></g><!--MD5=[e78e7a27852052c08656ef4e3a1b1218]
@startuml
left to right direction
skinparam packageStyle rectangle
actor customer
actor clerk
rectangle checkout {
  customer - - (checkout)
  (checkout) .> (payment) : include
  (help) .> (checkout) : extends
  (checkout) - - clerk
}
@enduml

PlantUML version 1.2022.4(Sat Apr 09 21:29:17 CST 2022)
(GPL source distribution)
Java Runtime: Java(TM) SE Runtime Environment
JVM: Java HotSpot(TM) 64-Bit Server VM
Default Encoding: GBK
Language: zh
Country: CN
--></g></svg>