<?xml version="1.0" encoding="UTF-8" standalone="no"?><svg xmlns="http://www.w3.org/2000/svg" xmlns:xlink="http://www.w3.org/1999/xlink" contentStyleType="text/css" height="204px" preserveAspectRatio="none" style="width:224px;height:204px;background:#FFFFFF;" version="1.1" viewBox="0 0 224 204" width="224px" zoomAndPan="magnify"><defs/><g><!--MD5=[0fe5ec6a8e87a3f9f38d025ed254bc32]
entity user1--><g id="elem_user1"><ellipse cx="24" cy="128" fill="#F1F1F1" rx="8" ry="8" style="stroke:#181818;stroke-width:0.5;"/><path d="M24,136 L24,163 M11,144 L37,144 M24,163 L11,178 M24,163 L37,178 " fill="none" style="stroke:#181818;stroke-width:0.5;"/><text fill="#000000" font-family="sans-serif" font-size="14" lengthAdjust="spacing" textLength="36" x="6" y="195.5439">user1</text></g><g id="elem_Usecase 1"><ellipse cx="160.4807" cy="159.1" fill="#F1F1F1" rx="58.4807" ry="16.6" style="stroke:#181818;stroke-width:0.5;"/><text fill="#000000" font-family="sans-serif" font-size="14" lengthAdjust="spacing" textLength="66" x="124.4807" y="164.3719">Usecase 1</text></g><!--MD5=[7d9a324aa2179074e5d7a1e217b89663]
entity user2--><g id="elem_user2"><ellipse cx="24" cy="14" fill="#F1F1F1" rx="8" ry="8" style="stroke:#181818;stroke-width:0.5;"/><path d="M24,22 L24,49 M11,30 L37,30 M24,49 L11,64 M24,49 L37,64 " fill="none" style="stroke:#181818;stroke-width:0.5;"/><text fill="#000000" font-family="sans-serif" font-size="14" lengthAdjust="spacing" textLength="36" x="6" y="81.5439">user2</text></g><g id="elem_Usecase 2"><ellipse cx="160.4807" cy="45.1" fill="#F1F1F1" rx="58.4807" ry="16.6" style="stroke:#181818;stroke-width:0.5;"/><text fill="#000000" font-family="sans-serif" font-size="14" lengthAdjust="spacing" textLength="66" x="124.4807" y="50.3719">Usecase 2</text></g><!--MD5=[66c5fe85e5792841f448378aaa9b6daa]
link user1 to Usecase 1--><g id="link_user1_Usecase 1"><path d="M42.0345,159 C55.9799,159 76.6183,159 96.7216,159 " fill="none" id="user1-to-Usecase 1" style="stroke:#181818;stroke-width:1.0;"/><polygon fill="#181818" points="101.8166,159,92.8166,155,96.8166,159,92.8166,163,101.8166,159" style="stroke:#181818;stroke-width:1.0;"/></g><!--MD5=[db75e642ebdbf1fe9dc1eb873d1631c3]
link user2 to Usecase 2--><g id="link_user2_Usecase 2"><path d="M42.0345,45 C55.9799,45 76.6183,45 96.7216,45 " fill="none" id="user2-to-Usecase 2" style="stroke:#181818;stroke-width:1.0;"/><polygon fill="#181818" points="101.8166,45,92.8166,41,96.8166,45,92.8166,49,101.8166,45" style="stroke:#181818;stroke-width:1.0;"/></g><!--MD5=[cd1afec99a8f8b74d499ccfa473e1331]
@startuml

left to right direction
user1 - -> (Usecase 1)
user2 - -> (Usecase 2)

@enduml

PlantUML version 1.2022.4(Sat Apr 09 21:29:17 CST 2022)
(GPL source distribution)
Java Runtime: Java(TM) SE Runtime Environment
JVM: Java HotSpot(TM) 64-Bit Server VM
Default Encoding: GBK
Language: zh
Country: CN
--></g></svg>