<?xml version="1.0" encoding="UTF-8" standalone="no"?><svg xmlns="http://www.w3.org/2000/svg" xmlns:xlink="http://www.w3.org/1999/xlink" contentStyleType="text/css" height="183px" preserveAspectRatio="none" style="width:280px;height:183px;background:#FFFFFF;" version="1.1" viewBox="0 0 280 183" width="280px" zoomAndPan="magnify"><defs/><g><!--MD5=[0fe5ec6a8e87a3f9f38d025ed254bc32]
entity user1--><g id="elem_user1"><ellipse cx="64.5" cy="14" fill="#F1F1F1" rx="8" ry="8" style="stroke:#181818;stroke-width:0.5;"/><path d="M64.5,22 L64.5,49 M51.5,30 L77.5,30 M64.5,49 L51.5,64 M64.5,49 L77.5,64 " fill="none" style="stroke:#181818;stroke-width:0.5;"/><text fill="#000000" font-family="sans-serif" font-size="14" lengthAdjust="spacing" textLength="36" x="46.5" y="81.5439">user1</text></g><g id="elem_Usecase 1"><ellipse cx="64.4807" cy="161.1" fill="#F1F1F1" rx="58.4807" ry="16.6" style="stroke:#181818;stroke-width:0.5;"/><text fill="#000000" font-family="sans-serif" font-size="14" lengthAdjust="spacing" textLength="66" x="28.4807" y="166.3719">Usecase 1</text></g><!--MD5=[7d9a324aa2179074e5d7a1e217b89663]
entity user2--><g id="elem_user2"><ellipse cx="216.5" cy="14" fill="#F1F1F1" rx="8" ry="8" style="stroke:#181818;stroke-width:0.5;"/><path d="M216.5,22 L216.5,49 M203.5,30 L229.5,30 M216.5,49 L203.5,64 M216.5,49 L229.5,64 " fill="none" style="stroke:#181818;stroke-width:0.5;"/><text fill="#000000" font-family="sans-serif" font-size="14" lengthAdjust="spacing" textLength="36" x="198.5" y="81.5439">user2</text></g><g id="elem_Usecase 2"><ellipse cx="216.4807" cy="161.1" fill="#F1F1F1" rx="58.4807" ry="16.6" style="stroke:#181818;stroke-width:0.5;"/><text fill="#000000" font-family="sans-serif" font-size="14" lengthAdjust="spacing" textLength="66" x="180.4807" y="166.3719">Usecase 2</text></g><!--MD5=[66c5fe85e5792841f448378aaa9b6daa]
link user1 to Usecase 1--><g id="link_user1_Usecase 1"><path d="M64.5,84.5952 C64.5,102.7745 64.5,123.7517 64.5,138.9581 " fill="none" id="user1-to-Usecase 1" style="stroke:#181818;stroke-width:1.0;"/><polygon fill="#181818" points="64.5,144.2834,68.5,135.2834,64.5,139.2834,60.5,135.2834,64.5,144.2834" style="stroke:#181818;stroke-width:1.0;"/></g><!--MD5=[db75e642ebdbf1fe9dc1eb873d1631c3]
link user2 to Usecase 2--><g id="link_user2_Usecase 2"><path d="M216.5,84.5952 C216.5,102.7745 216.5,123.7517 216.5,138.9581 " fill="none" id="user2-to-Usecase 2" style="stroke:#181818;stroke-width:1.0;"/><polygon fill="#181818" points="216.5,144.2834,220.5,135.2834,216.5,139.2834,212.5,135.2834,216.5,144.2834" style="stroke:#181818;stroke-width:1.0;"/></g><!--MD5=[2f5a9645c32bbd0521f78e479c0d4074]
@startuml
'default
top to bottom direction
user1 - -> (Usecase 1)
user2 - -> (Usecase 2)

@enduml

@startuml
top to bottom direction
user1 - -> (Usecase 1)
user2 - -> (Usecase 2)

@enduml

PlantUML version 1.2022.4(Sat Apr 09 21:29:17 CST 2022)
(GPL source distribution)
Java Runtime: Java(TM) SE Runtime Environment
JVM: Java HotSpot(TM) 64-Bit Server VM
Default Encoding: GBK
Language: zh
Country: CN
--></g></svg>