<?xml version="1.0" encoding="UTF-8" standalone="no"?><svg xmlns="http://www.w3.org/2000/svg" xmlns:xlink="http://www.w3.org/1999/xlink" contentStyleType="text/css" height="226px" preserveAspectRatio="none" style="width:346px;height:226px;background:#FFFFFF;" version="1.1" viewBox="0 0 346 226" width="346px" zoomAndPan="magnify"><defs/><g><!--MD5=[fee662a292a0353a69bd162820bae93b]
entity User--><g id="elem_User"><polygon fill="#F1F1F1" points="44.5442,37.1422,43.3715,38.7445,41.9845,41.0913,40.0008,42.6729,37.9163,43.5378,36.2542,43.6129,34.118,42.5312,32.1023,41.8246,30.5724,40.3899,29.7699,38.7474,29.2939,37.4396,28.8277,35.7313,28.0709,34.2614,28.6525,32.8261,29.162,31.2539,31.074,30.0105,32.4192,28.3971,34.0843,27.8613,36.0637,27.4,38.6021,27.6741,39.9924,28.3298,41.6089,28.627,43.5743,30.6406,44.2595,32.7664,44.5571,34.2169,44.22,36.6071" style="stroke:#181818;stroke-width:0.5;"/><path d="M36.5,43.1963 L36.6868,43.1963 L36.1317,48.5963 L36.6718,53.9963 L36.8553,59.3963 L35.8659,64.7963 L36.5,70.1963 M23.5,51.1963 L23.5,51.1272 L28.7,50.8172 L33.9,50.8554 L39.1,51.1357 L44.3,50.5817 L49.5,51.1963 M36.5,70.1963 L36.8719,70.5186 L33.4766,72.8294 L31.1672,76.0812 L28.9901,79.4478 L26.0424,82.1464 L23.5,85.1963 M36.5,70.1963 L36.5458,70.236 L39.0785,73.1777 L41.8199,76.3002 L44.4606,79.3355 L47.2934,82.5373 L49.5,85.1963 " fill="none" style="stroke:#181818;stroke-width:0.5;"/><text fill="#000000" font-family="sans-serif" font-size="14" lengthAdjust="spacing" textLength="29" x="22" y="102.7402">User</text><text fill="#000000" font-family="sans-serif" font-size="14" font-style="italic" lengthAdjust="spacing" textLength="61" x="6" y="23.6201">«Human»</text></g><!--MD5=[2519f4b563146138a779359188ab3db5]
entity MySql--><g id="elem_MySql"><polygon fill="#F1F1F1" points="299.5442,37.1422,298.3715,38.7445,296.9845,41.0913,295.0008,42.6729,292.9163,43.5378,291.2542,43.6129,289.118,42.5312,287.1023,41.8246,285.5724,40.3899,284.7699,38.7474,284.2939,37.4396,283.8277,35.7313,283.0709,34.2614,283.6525,32.8261,284.162,31.2539,286.074,30.0105,287.4192,28.3971,289.0843,27.8613,291.0637,27.4,293.6021,27.6741,294.9924,28.3298,296.6089,28.627,298.5743,30.6406,299.2595,32.7664,299.5571,34.2169,299.22,36.6071" style="stroke:#181818;stroke-width:0.5;"/><path d="M291.5,43.1963 L291.6868,43.1963 L291.1317,48.5963 L291.6718,53.9963 L291.8553,59.3963 L290.8659,64.7963 L291.5,70.1963 M278.5,51.1963 L278.5,51.1272 L283.7,50.8172 L288.9,50.8554 L294.1,51.1357 L299.3,50.5817 L304.5,51.1963 M291.5,70.1963 L291.8719,70.5186 L288.4766,72.8294 L286.1672,76.0812 L283.9901,79.4478 L281.0424,82.1464 L278.5,85.1963 M291.5,70.1963 L291.5458,70.236 L294.0785,73.1777 L296.8199,76.3002 L299.4606,79.3355 L302.2934,82.5373 L304.5,85.1963 " fill="none" style="stroke:#181818;stroke-width:0.5;"/><text fill="#000000" font-family="sans-serif" font-size="14" lengthAdjust="spacing" textLength="95" x="244" y="102.7402">Main Database</text><text fill="#000000" font-family="sans-serif" font-size="14" font-style="italic" lengthAdjust="spacing" textLength="85" x="249" y="23.6201">«Application»</text></g><g id="elem_Start"><polygon fill="#8FBC8F" points="208.0003,60.7588,206.9319,65.565,202.8539,69.2219,198.1749,72.8653,194.3121,77.0969,187.0244,79.5096,180.3665,82.1022,172.5521,83.775,163.9424,84.5765,156.4652,85.3981,146.3237,84.1056,139.8521,83.9619,131.4822,81.929,123.4289,79.1237,117.786,76.6216,112.1163,73.1163,107.8744,69.3925,104.3629,65.116,102.3174,60.7369,101.1647,56.0318,101.7014,51.5245,103.6488,47.1851,107.4658,43.3896,111.5525,39.4317,116.6622,35.8623,125.0734,34.0461,130.2325,30.6577,139.3761,29.6907,146.352,28.0216,156.1852,28.4511,163.9429,28.4777,170.9476,28.9045,179.8278,31.2084,186.7634,33.4202,192.8118,36.1377,198.1513,39.4675,203.1352,43.5854,205.9314,47.482,209.1164,52.4662,208.5529,56.26" style="stroke:#2F4F4F;stroke-width:0.5;"/><text fill="#000000" font-family="sans-serif" font-size="14" font-style="italic" lengthAdjust="spacing" textLength="76" x="117.4792" y="55.376">«One Shot»</text><text fill="#000000" font-family="sans-serif" font-size="14" lengthAdjust="spacing" textLength="30" x="140.4792" y="74.4962">Start</text></g><g id="elem_Use"><polygon fill="#9ACD32" points="249.2549,197.0865,247.5136,201.7203,240.8675,205.2461,233.2418,208.7588,226.9465,212.8385,215.0692,215.1648,204.2185,217.6643,191.4829,219.2772,177.4512,220.0499,165.2651,220.842,148.7369,219.5959,138.1898,219.4573,124.5489,217.4973,111.424,214.7926,102.2274,212.3803,92.9871,209.0008,86.0739,205.4105,80.3509,201.2874,77.0173,197.0654,75.1387,192.5291,76.0134,188.1835,79.1871,183.9997,85.4079,180.3403,92.0683,176.5243,100.3959,173.083,114.1041,171.332,122.5122,168.0651,137.414,167.1328,148.783,165.5235,164.8088,165.9376,177.452,165.9633,188.868,166.3748,203.3405,168.5961,214.6438,170.7285,224.5014,173.3485,233.2033,176.5589,241.3259,180.5291,245.8831,184.2859,251.0738,189.0914,250.1555,192.7491" style="stroke:#9ACD32;stroke-width:0.5;"/><text fill="#000000" font-family="sans-serif" font-size="14" font-style="italic" lengthAdjust="spacing" textLength="47" x="134.7539" y="185.6794">«Main»</text><text fill="#000000" font-family="sans-serif" font-size="14" lengthAdjust="spacing" textLength="120" x="98.2539" y="204.7995">Use the application</text></g><!--MD5=[f4b2be5085d6f52f3a0e36c62efcf3ad]
link User to Start--><g id="link_User_Start"><path d="M67.1797,56.5762 L67.1797,56.6696 L73.0555,56.392 L78.9313,56.6621 L84.8071,56.7538 L90.6829,56.2591 L96.5587,56.5762 " fill="none" style="stroke:#808000;stroke-width:1.0;"/><polygon fill="#808000" points="101.6798,56.5762,101.7083,56.6402,99.8237,55.65,98.106,55.035,96.3339,54.2979,94.3832,53.1589,92.6798,52.5762,92.6615,52.5579,93.3793,53.2756,94.1894,54.0858,95.0637,54.9601,95.7168,55.6132,96.6798,56.5762,96.8103,56.7067,95.7312,57.2276,95.0332,58.1296,94.3816,59.078,93.4596,59.756,92.6798,60.5762,92.689,60.597,94.4755,59.7664,96.304,59.0306,98.1122,58.249,99.9591,57.5546,101.6798,56.5762" style="stroke:#808000;stroke-width:1.0;"/></g><!--MD5=[9b1e83a301d632e8d5a1d64f176fc1f5]
link User to Use--><g id="link_User_Use"><path d="M67.2432,90.1352 L67.447,90.3276 L73.7127,97.0329 L81.1729,104.8661 L88.2442,112.332 L94.0363,118.5901 L101.5238,126.4489 L108.0568,133.4066 L114.9697,140.723 L122.1466,148.2886 L128.4136,154.9951 L135.955,162.905 " fill="none" style="stroke:#808000;stroke-width:1.0;"/><polygon fill="#808000" points="139.393,166.5454,139.4591,166.5686,138.6087,164.6415,138.1457,162.8507,137.5566,161.0156,136.5525,159.0343,136.1228,157.2553,136.0969,157.2545,135.9482,158.3821,135.9301,159.5134,136.0027,160.6473,135.7625,161.7723,135.9604,162.9098,135.9657,163.0943,134.8235,162.6673,133.6967,162.7789,132.5718,162.9563,131.436,162.7513,130.3059,162.7474,130.3147,162.7684,132.1192,163.4972,133.9637,164.3215,135.7889,165.0997,137.6509,165.9659,139.393,166.5454" style="stroke:#808000;stroke-width:1.0;"/></g><!--MD5=[4496f2e9342dd27c0c7444e31e731c8d]
link MySql to Use--><g id="link_MySql_Use"><path d="M245.651,105.7542 L245.854,105.9474 L238.468,112.5005 L232.2719,120.1862 L225.6884,127.5032 L217.8305,133.6072 L211.6616,141.3187 L204.5418,148.1253 L197.8005,155.2921 L191.388,162.7718 " fill="none" style="stroke:#808000;stroke-width:1.0;"/><polygon fill="#808000" points="187.868,166.4711,187.8948,166.5358,189.6357,165.5912,191.5335,165.026,193.3803,164.3373,195.059,163.2422,196.9703,162.7097,196.9697,162.6838,195.8358,162.5955,194.7051,162.6377,193.5767,162.7707,192.4405,162.591,191.3152,162.8493,191.4997,162.8539,191.0772,161.7131,191.1934,160.5856,191.3753,159.4598,191.1748,158.3245,191.1755,157.1942,191.1969,157.2018,190.504,159.046,189.9085,160.9249,189.2661,162.7871,188.7134,164.6813,187.868,166.4711" style="stroke:#808000;stroke-width:1.0;"/></g><!--MD5=[9b143b3b549819008bd67b00d88fb219]
@startuml
skinparam handwritten true

skinparam usecase {
	BackgroundColor DarkSeaGreen
	BorderColor DarkSlateGray

	BackgroundColor<< Main >> YellowGreen
	BorderColor<< Main >> YellowGreen
	
	ArrowColor Olive
	ActorBorderColor black
	ActorFontName Courier

	ActorBackgroundColor<< Human >> Gold
}

User << Human >>
:Main Database: as MySql << Application >>
(Start) << One Shot >>
(Use the application) as (Use) << Main >>

User -> (Start)
User - -> (Use)

MySql - -> (Use)

@enduml

PlantUML version 1.2022.4(Sat Apr 09 21:29:17 CST 2022)
(GPL source distribution)
Java Runtime: Java(TM) SE Runtime Environment
JVM: Java HotSpot(TM) 64-Bit Server VM
Default Encoding: GBK
Language: zh
Country: CN
--></g></svg>