<?xml version="1.0" encoding="UTF-8" standalone="no"?><svg xmlns="http://www.w3.org/2000/svg" xmlns:xlink="http://www.w3.org/1999/xlink" contentStyleType="text/css" height="226px" preserveAspectRatio="none" style="width:346px;height:226px;background:#FFFFFF;" version="1.1" viewBox="0 0 346 226" width="346px" zoomAndPan="magnify"><defs/><g><!--MD5=[fee662a292a0353a69bd162820bae93b]
entity User--><g id="elem_User"><ellipse cx="36.5" cy="35.1963" fill="#F1F1F1" rx="8" ry="8" style="stroke:#181818;stroke-width:0.5;"/><path d="M36.5,43.1963 L36.5,70.1963 M23.5,51.1963 L49.5,51.1963 M36.5,70.1963 L23.5,85.1963 M36.5,70.1963 L49.5,85.1963 " fill="none" style="stroke:#181818;stroke-width:0.5;"/><text fill="#000000" font-family="sans-serif" font-size="14" lengthAdjust="spacing" textLength="29" x="22" y="102.7402">User</text><text fill="#000000" font-family="sans-serif" font-size="14" font-style="italic" lengthAdjust="spacing" textLength="61" x="6" y="23.6201">«Human»</text></g><!--MD5=[2519f4b563146138a779359188ab3db5]
entity MySql--><g id="elem_MySql"><ellipse cx="291.5" cy="35.1963" fill="#F1F1F1" rx="8" ry="8" style="stroke:#181818;stroke-width:0.5;"/><path d="M291.5,43.1963 L291.5,70.1963 M278.5,51.1963 L304.5,51.1963 M291.5,70.1963 L278.5,85.1963 M291.5,70.1963 L304.5,85.1963 " fill="none" style="stroke:#181818;stroke-width:0.5;"/><text fill="#000000" font-family="sans-serif" font-size="14" lengthAdjust="spacing" textLength="95" x="244" y="102.7402">Main Database</text><text fill="#000000" font-family="sans-serif" font-size="14" font-style="italic" lengthAdjust="spacing" textLength="85" x="249" y="23.6201">«Application»</text></g><g id="elem_Start"><ellipse cx="155.4792" cy="56.4754" fill="#F1F1F1" rx="53.4792" ry="28.3992" style="stroke:#181818;stroke-width:0.5;"/><text fill="#000000" font-family="sans-serif" font-size="14" font-style="italic" lengthAdjust="spacing" textLength="76" x="117.4792" y="55.376">«One Shot»</text><text fill="#000000" font-family="sans-serif" font-size="14" lengthAdjust="spacing" textLength="30" x="140.4792" y="74.4962">Start</text></g><g id="elem_Use"><ellipse cx="163.6582" cy="192.9567" fill="#F1F1F1" rx="87.1582" ry="27.3805" style="stroke:#181818;stroke-width:0.5;"/><text fill="#000000" font-family="sans-serif" font-size="14" font-style="italic" lengthAdjust="spacing" textLength="47" x="134.7539" y="185.6794">«Main»</text><text fill="#000000" font-family="sans-serif" font-size="14" lengthAdjust="spacing" textLength="120" x="98.2539" y="204.7995">Use the application</text></g><!--MD5=[f4b2be5085d6f52f3a0e36c62efcf3ad]
link User to Start--><g id="link_User_Start"><path d="M67.1797,56.5762 C76.9727,56.5762 86.7657,56.5762 96.5587,56.5762 " fill="none" id="User-to-Start" style="stroke:#181818;stroke-width:1.0;"/><polygon fill="#181818" points="101.6798,56.5762,92.6798,52.5762,96.6798,56.5762,92.6798,60.5762,101.6798,56.5762" style="stroke:#181818;stroke-width:1.0;"/></g><!--MD5=[9b1e83a301d632e8d5a1d64f176fc1f5]
link User to Use--><g id="link_User_Use"><path d="M67.2432,90.1352 C88.2006,112.3302 115.713,141.4676 135.955,162.905 " fill="none" id="User-to-Use" style="stroke:#181818;stroke-width:1.0;"/><polygon fill="#181818" points="139.393,166.5454,136.1228,157.2553,135.9604,162.9098,130.3059,162.7474,139.393,166.5454" style="stroke:#181818;stroke-width:1.0;"/></g><!--MD5=[4496f2e9342dd27c0c7444e31e731c8d]
link MySql to Use--><g id="link_MySql_Use"><path d="M245.651,105.7542 C227.511,124.815 207.25,146.1046 191.388,162.7718 " fill="none" id="MySql-to-Use" style="stroke:#181818;stroke-width:1.0;"/><polygon fill="#181818" points="187.868,166.4711,196.9703,162.7097,191.3152,162.8493,191.1755,157.1942,187.868,166.4711" style="stroke:#181818;stroke-width:1.0;"/></g><!--MD5=[db76d4a4ec61a4fc3b3b63055256388f]
@startuml
User << Human >>
:Main Database: as MySql << Application >>
(Start) << One Shot >>
(Use the application) as (Use) << Main >>

User -> (Start)
User - -> (Use)

MySql - -> (Use)

@enduml

PlantUML version 1.2022.4(Sat Apr 09 21:29:17 CST 2022)
(GPL source distribution)
Java Runtime: Java(TM) SE Runtime Environment
JVM: Java HotSpot(TM) 64-Bit Server VM
Default Encoding: GBK
Language: zh
Country: CN
--></g></svg>