<?xml version="1.0" encoding="UTF-8" standalone="no"?><svg xmlns="http://www.w3.org/2000/svg" xmlns:xlink="http://www.w3.org/1999/xlink" contentStyleType="text/css" height="303px" preserveAspectRatio="none" style="width:479px;height:303px;background:#FFFFFF;" version="1.1" viewBox="0 0 479 303" width="479px" zoomAndPan="magnify"><defs/><g><!--MD5=[97ab183161fd5d1db7fba7485cf76add]
entity Admin--><g id="elem_Admin"><ellipse cx="266.5" cy="14" fill="#F1F1F1" rx="8" ry="8" style="stroke:#181818;stroke-width:0.5;"/><path d="M266.5,22 L266.5,49 M253.5,30 L279.5,30 M266.5,49 L253.5,64 M266.5,49 L279.5,64 " fill="none" style="stroke:#181818;stroke-width:0.5;"/><text fill="#000000" font-family="sans-serif" font-size="14" lengthAdjust="spacing" textLength="73" x="230" y="81.5439">Main Admin</text></g><g id="elem_Use"><ellipse cx="137.5469" cy="273.3094" fill="#F1F1F1" rx="84.5469" ry="19.3094" style="stroke:#181818;stroke-width:0.5;"/><text fill="#000000" font-family="sans-serif" font-size="14" lengthAdjust="spacing" textLength="120" x="75.784" y="278.2801">Use the application</text></g><!--MD5=[fee662a292a0353a69bd162820bae93b]
entity User--><g id="elem_User"><ellipse cx="20.5" cy="14" fill="#F1F1F1" rx="8" ry="8" style="stroke:#181818;stroke-width:0.5;"/><path d="M20.5,22 L20.5,49 M7.5,30 L33.5,30 M20.5,49 L7.5,64 M20.5,49 L33.5,64 " fill="none" style="stroke:#181818;stroke-width:0.5;"/><text fill="#000000" font-family="sans-serif" font-size="14" lengthAdjust="spacing" textLength="29" x="6" y="81.5439">User</text></g><g id="elem_Start"><ellipse cx="125.6985" cy="45.02" fill="#F1F1F1" rx="32.6985" ry="16.52" style="stroke:#181818;stroke-width:0.5;"/><text fill="#000000" font-family="sans-serif" font-size="14" lengthAdjust="spacing" textLength="30" x="110.6985" y="49.5039">Start</text></g><g id="elem_GMN9"><path d="M338.5,31 L338.5,41 L303.15,45 L338.5,49 L338.5,58.7544 A0,0 0 0 0 338.5,58.7544 L472.5,58.7544 A0,0 0 0 0 472.5,58.7544 L472.5,41 L462.5,31 L338.5,31 A0,0 0 0 0 338.5,31 " fill="#FEFFDD" style="stroke:#181818;stroke-width:0.5;"/><path d="M462.5,31 L462.5,41 L472.5,41 L462.5,31 " fill="#FEFFDD" style="stroke:#181818;stroke-width:0.5;"/><text fill="#000000" font-family="sans-serif" font-size="13" lengthAdjust="spacing" textLength="113" x="344.5" y="50.8979">This is an example.</text></g><g id="elem_GMN12"><path d="M257.5,250.5 L257.5,269.5 L222.313,273.5 L257.5,277.5 L257.5,296.0088 A0,0 0 0 0 257.5,296.0088 L385.5,296.0088 A0,0 0 0 0 385.5,296.0088 L385.5,260.5 L375.5,250.5 L257.5,250.5 A0,0 0 0 0 257.5,250.5 " fill="#FEFFDD" style="stroke:#181818;stroke-width:0.5;"/><path d="M375.5,250.5 L375.5,260.5 L385.5,260.5 L375.5,250.5 " fill="#FEFFDD" style="stroke:#181818;stroke-width:0.5;"/><text fill="#000000" font-family="sans-serif" font-size="13" lengthAdjust="spacing" textLength="91" x="263.5" y="270.3979">A note can also</text><text fill="#000000" font-family="sans-serif" font-size="13" lengthAdjust="spacing" textLength="107" x="263.5" y="288.1523">be on several lines</text></g><g id="elem_N2"><path d="M61.5,144.5 L61.5,190.0088 L213.5,190.0088 L213.5,154.5 L203.5,144.5 L61.5,144.5 " fill="#FEFFDD" style="stroke:#181818;stroke-width:0.5;"/><path d="M203.5,144.5 L203.5,154.5 L213.5,154.5 L203.5,144.5 " fill="#FEFFDD" style="stroke:#181818;stroke-width:1.0;"/><text fill="#000000" font-family="sans-serif" font-size="13" lengthAdjust="spacing" textLength="131" x="67.5" y="164.3979">This note is connected</text><text fill="#000000" font-family="sans-serif" font-size="13" lengthAdjust="spacing" textLength="105" x="67.5" y="182.1523">to several objects.</text></g><!--MD5=[f4b2be5085d6f52f3a0e36c62efcf3ad]
link User to Start--><g id="link_User_Start"><path d="M35.2656,45 C52.6215,45 69.9774,45 87.3332,45 " fill="none" id="User-to-Start" style="stroke:#181818;stroke-width:1.0;"/><polygon fill="#181818" points="92.7195,45,83.7195,41,87.7195,45,83.7195,49,92.7195,45" style="stroke:#181818;stroke-width:1.0;"/></g><!--MD5=[9b1e83a301d632e8d5a1d64f176fc1f5]
link User to Use--><g id="link_User_Use"><path d="M19.6209,84.514 C20.5134,115.035 25.4122,157.831 43.5,190.5 C57.7003,216.1475 83.1671,237.5995 104.0143,252.1216 " fill="none" id="User-to-Use" style="stroke:#181818;stroke-width:1.0;"/><polygon fill="#181818" points="108.387,255.1143,103.2191,246.7302,104.2609,252.2903,98.7007,253.332,108.387,255.1143" style="stroke:#181818;stroke-width:1.0;"/></g><!--MD5=[eedd4bf29063d6184eb2b121c1f53f26]
link Admin to Use--><g id="link_Admin_Use"><path d="M263.576,84.64 C259.807,115.233 251.189,158.064 231.5,190.5 C216.183,215.7335 190.529,237.3427 169.887,252.0336 " fill="none" id="Admin-to-Use" style="stroke:#181818;stroke-width:1.0;"/><polygon fill="#181818" points="165.564,255.0623,175.2303,253.1749,169.6592,252.1937,170.6405,246.6226,165.564,255.0623" style="stroke:#181818;stroke-width:1.0;"/></g><!--MD5=[18a852dfe38659cca840945dc1aef57a]
link Start to N2--><g id="link_Start_N2"><path d="M127.069,61.753 C129.165,82.806 132.893,120.234 135.278,144.183 " fill="none" id="Start-N2" style="stroke:#181818;stroke-width:1.0;stroke-dasharray:7.0,7.0;"/></g><!--MD5=[582b4f0da0cf139d0f490575cc867c3a]
link N2 to Use--><g id="link_N2_Use"><path d="M137.5,190.556 C137.5,209.3974 137.5,236.1956 137.5,253.9519 " fill="none" id="N2-Use" style="stroke:#181818;stroke-width:1.0;stroke-dasharray:7.0,7.0;"/></g><!--MD5=[7add8f9d797e9d1ec314d402ee76d2fb]
@startuml
:Main Admin: as Admin
(Use the application) as (Use)

User -> (Start)
User - -> (Use)

Admin - - -> (Use)

note right of Admin : This is an example.

note right of (Use)
  A note can also
  be on several lines
end note

note "This note is connected\nto several objects." as N2
(Start) .. N2
N2 .. (Use)
@enduml

PlantUML version 1.2022.4(Sat Apr 09 21:29:17 CST 2022)
(GPL source distribution)
Java Runtime: Java(TM) SE Runtime Environment
JVM: Java HotSpot(TM) 64-Bit Server VM
Default Encoding: GBK
Language: zh
Country: CN
--></g></svg>