<?xml version="1.0" encoding="UTF-8" standalone="no"?><svg xmlns="http://www.w3.org/2000/svg" xmlns:xlink="http://www.w3.org/1999/xlink" contentStyleType="text/css" height="173px" preserveAspectRatio="none" style="width:206px;height:173px;background:#FFFFFF;" version="1.1" viewBox="0 0 206 173" width="206px" zoomAndPan="magnify"><defs/><g><ellipse cx="16" cy="142" fill="#222222" rx="10" ry="10" style="stroke:none;stroke-width:1.0;"/><g id="First"><rect fill="#F1F1F1" height="50" rx="12.5" ry="12.5" style="stroke:#181818;stroke-width:0.5;" width="50" x="22" y="7"/><line style="stroke:#181818;stroke-width:0.5;" x1="22" x2="72" y1="36.1201" y2="36.1201"/><text fill="#000000" font-family="sans-serif" font-size="14" lengthAdjust="spacing" textLength="28" x="33" y="28.0439">First</text></g><g id="Second"><rect fill="#F1F1F1" height="50" rx="12.5" ry="12.5" style="stroke:#181818;stroke-width:0.5;" width="68" x="123" y="7"/><line style="stroke:#181818;stroke-width:0.5;" x1="123" x2="191" y1="36.1201" y2="36.1201"/><text fill="#000000" font-family="sans-serif" font-size="14" lengthAdjust="spacing" textLength="48" x="133" y="28.0439">Second</text></g><g id="Third"><rect fill="#F1F1F1" height="50" rx="12.5" ry="12.5" style="stroke:#181818;stroke-width:0.5;" width="53" x="146.5" y="117"/><line style="stroke:#181818;stroke-width:0.5;" x1="146.5" x2="199.5" y1="146.1201" y2="146.1201"/><text fill="#000000" font-family="sans-serif" font-size="14" lengthAdjust="spacing" textLength="33" x="156.5" y="138.0439">Third</text></g><g id="Last"><rect fill="#F1F1F1" height="50" rx="12.5" ry="12.5" style="stroke:#181818;stroke-width:0.5;" width="50" x="61" y="117"/><line style="stroke:#181818;stroke-width:0.5;" x1="61" x2="111" y1="146.1201" y2="146.1201"/><text fill="#000000" font-family="sans-serif" font-size="14" lengthAdjust="spacing" textLength="27" x="72.5" y="138.0439">Last</text></g><!--MD5=[6963020cd457a4083cb84ea69fd80aef]
reverse link First to *start--><g id="link_First_*start"><path d="M38.6446,62.109 C31.9158,85.5515 22.8875,117.0048 18.5441,132.1368 " fill="none" id="First-backto-*start" style="stroke:#181818;stroke-width:1.0;"/><polygon fill="#181818" points="40.043,57.237,33.7144,64.7834,38.663,62.0428,41.4037,66.9914,40.043,57.237" style="stroke:#181818;stroke-width:1.0;"/></g><!--MD5=[f5f9a0880b91badaece50caee00e6db8]
link First to Second--><g id="link_First_Second"><path d="M72.3516,32 C87.5024,32 102.6533,32 117.804,32 " fill="none" id="First-to-Second" style="stroke:#181818;stroke-width:1.0;"/><polygon fill="#181818" points="122.942,32,113.942,28,117.942,32,113.942,36,122.942,32" style="stroke:#181818;stroke-width:1.0;"/></g><!--MD5=[d59ba1fb24e7aadf37c9de884bc6b07b]
link Second to Third--><g id="link_Second_Third"><path d="M160.591,57.237 C162.979,73.3565 166.129,94.6212 168.658,111.6911 " fill="none" id="Second-to-Third" style="stroke:#181818;stroke-width:1.0;"/><polygon fill="#181818" points="169.421,116.8436,172.059,107.3546,168.6883,111.8976,164.1453,108.5269,169.421,116.8436" style="stroke:#181818;stroke-width:1.0;"/></g><!--MD5=[f31af7c8feaba4b54d9c1b5edbcb8ea3]
reverse link Last to Third--><g id="link_Last_Third"><path d="M116.385,142 C126.397,142 136.41,142 146.423,142 " fill="none" id="Last-backto-Third" style="stroke:#181818;stroke-width:1.0;"/><polygon fill="#181818" points="111.148,142,120.148,146,116.148,142,120.148,138,111.148,142" style="stroke:#181818;stroke-width:1.0;"/></g><!--MD5=[043281b79f5655ecfb2c769a3637fc29]
@startuml

[*] -up-> First
First -right-> Second
Second - -> Third
Third -left-> Last

@enduml

PlantUML version 1.2022.4(Sat Apr 09 21:29:17 CST 2022)
(GPL source distribution)
Java Runtime: Java(TM) SE Runtime Environment
JVM: Java HotSpot(TM) 64-Bit Server VM
Default Encoding: GBK
Language: zh
Country: CN
--></g></svg>