<?xml version="1.0" encoding="UTF-8" standalone="no"?><svg xmlns="http://www.w3.org/2000/svg" xmlns:xlink="http://www.w3.org/1999/xlink" contentStyleType="text/css" height="619.7446px" preserveAspectRatio="none" style="width:350px;height:619px;background:#FFFFFF;" version="1.1" viewBox="0 0 350 619" width="350.3304px" zoomAndPan="magnify"><defs/><g><!--MD5=[800b1223214602edd7709253107ef117]
cluster NotShooting--><g id="cluster_NotShooting"><rect height="184.82" rx="11.4938" ry="11.4938" style="stroke:#181818;stroke-width:0.4597511753079046;fill:none;" width="97.4672" x="123.2133" y="74.4797"/><rect height="156.205" rx="11.4938" ry="11.4938" style="stroke:#00000000;stroke-width:0.9195023506158092;fill:none;" width="95.6282" x="124.1328" y="102.1752"/><line style="stroke:#181818;stroke-width:0.4597511753079046;fill:none;" x1="123.2133" x2="220.6806" y1="101.2557" y2="101.2557"/><text fill="#000000" font-family="sans-serif" font-size="12.873" lengthAdjust="spacing" textLength="70.8017" x="136.5461" y="92.9101">NotShooting</text></g><ellipse cx="175.6249" cy="125.9718" fill="#222222" rx="9.195" ry="9.195" style="stroke:none;stroke-width:0.9195023506158092;"/><g id="NotShooting.Idle"><rect fill="#F1F1F1" height="45.9751" rx="11.4938" ry="11.4938" style="stroke:#181818;stroke-width:0.4597511753079046;" width="45.9751" x="152.6374" y="191.2565"/><line style="stroke:#181818;stroke-width:0.4597511753079046;" x1="152.6374" x2="198.6125" y1="218.0325" y2="218.0325"/><text fill="#000000" font-family="sans-serif" font-size="12.873" lengthAdjust="spacing" textLength="20.2291" x="165.5104" y="210.6064">Idle</text></g><ellipse cx="130.5693" cy="14.712" fill="#222222" rx="9.195" ry="9.195" style="stroke:none;stroke-width:0.9195023506158092;"/><rect fill="#F1F1F1" height="288.0251" rx="11.4938" ry="11.4938" style="stroke:#181818;stroke-width:0.4597511753079046;" width="338.0465" x="6.4365" y="326.4233"/><rect fill="#FFFFFF" height="259.4101" rx="11.4938" ry="11.4938" style="stroke:#FFFFFF;stroke-width:0.9195023506158092;" width="336.2075" x="7.356" y="354.1189"/><line style="stroke:#181818;stroke-width:0.4597511753079046;" x1="6.4365" x2="344.483" y1="353.1994" y2="353.1994"/><text fill="#000000" font-family="sans-serif" font-size="12.873" lengthAdjust="spacing" textLength="67.1237" x="141.8979" y="345.7733">Configuring</text><ellipse cx="114.6074" cy="372.5089" fill="#222222" rx="9.195" ry="9.195" style="stroke:none;stroke-width:0.9195023506158092;"/><g id="Configuring.NewValueSelection"><rect fill="#F1F1F1" height="45.9751" rx="11.4938" ry="11.4938" style="stroke:#181818;stroke-width:0.4597511753079046;" width="128.7303" x="50.2424" y="415.7255"/><line style="stroke:#181818;stroke-width:0.4597511753079046;" x1="50.2424" x2="178.9727" y1="442.5015" y2="442.5015"/><text fill="#000000" font-family="sans-serif" font-size="12.873" lengthAdjust="spacing" textLength="110.3403" x="59.4374" y="435.0755">NewValueSelection</text></g><rect fill="#F1F1F1" height="92.9802" rx="11.4938" ry="11.4938" style="stroke:#181818;stroke-width:0.4597511753079046;" width="148.0399" x="40.5876" y="512.2733"/><rect fill="#FFFFFF" height="64.3652" rx="11.4938" ry="11.4938" style="stroke:#FFFFFF;stroke-width:0.9195023506158092;" width="146.2009" x="41.5071" y="539.9688"/><line style="stroke:#181818;stroke-width:0.4597511753079046;" x1="40.5876" x2="188.6275" y1="539.0493" y2="539.0493"/><text fill="#000000" font-family="sans-serif" font-size="12.873" lengthAdjust="spacing" textLength="102.0648" x="63.5752" y="531.6232">NewValuePreview</text><g id="Configuring.NewValuePreview.State1"><rect fill="#F1F1F1" height="45.9751" rx="11.4938" ry="11.4938" style="stroke:#181818;stroke-width:0.4597511753079046;" width="56.0896" x="51.6217" y="550.0833"/><line style="stroke:#181818;stroke-width:0.4597511753079046;" x1="51.6217" x2="107.7113" y1="576.8593" y2="576.8593"/><text fill="#000000" font-family="sans-serif" font-size="12.873" lengthAdjust="spacing" textLength="37.6996" x="60.8167" y="569.4333">State1</text></g><g id="Configuring.NewValuePreview.State2"><rect fill="#F1F1F1" height="45.9751" rx="11.4938" ry="11.4938" style="stroke:#181818;stroke-width:0.4597511753079046;" width="56.0896" x="124.2624" y="550.0833"/><line style="stroke:#181818;stroke-width:0.4597511753079046;" x1="124.2624" x2="180.352" y1="576.8593" y2="576.8593"/><text fill="#000000" font-family="sans-serif" font-size="12.873" lengthAdjust="spacing" textLength="37.6996" x="133.4574" y="569.4333">State2</text></g><!--MD5=[dc702cd49c4e27e6abb2620dc4bb28d8]
link State1 to State2--><g id="link_State1_State2"><path d="M107.758,573.0709 C111.6771,573.0709 115.5961,573.0709 119.5152,573.0709 " fill="none" id="State1-to-State2" style="stroke:#181818;stroke-width:0.9195023506158092;"/><polygon fill="#181818" points="124.1159,573.0709,115.8404,569.3929,119.5184,573.0709,115.8404,576.7489,124.1159,573.0709" style="stroke:#181818;stroke-width:0.9195023506158092;"/></g><!--MD5=[ad6f9944ea8ff01150f6afbfa40da1a7]
link *start*Configuring to NewValueSelection--><g id="link_*start*Configuring_NewValueSelection"><path d="M114.6074,381.8428 C114.6074,389.231 114.6074,400.3937 114.6074,410.8099 " fill="none" id="*start*Configuring-to-NewValueSelection" style="stroke:#181818;stroke-width:0.9195023506158092;"/><polygon fill="#181818" points="114.6074,415.5269,118.2854,407.2514,114.6074,410.9294,110.9294,407.2514,114.6074,415.5269" style="stroke:#181818;stroke-width:0.9195023506158092;"/></g><!--MD5=[29f84f4f9bf922d2399f1931e6bcbfc8]
link NewValueSelection to NewValuePreview--><g id="link_NewValueSelection_NewValuePreview"><path d="M50.0161,457.0985 C40.6419,462.3985 32.1951,469.292 26.3353,478.2517 C16.551,493.212 23.5052,507.1581 36.9871,519.0616 " fill="none" id="NewValueSelection-to-NewValuePreview" style="stroke:#181818;stroke-width:0.9195023506158092;"/><polygon fill="#181818" points="40.549,522.0433,36.5642,513.9111,37.0237,519.0923,31.8425,519.5517,40.549,522.0433" style="stroke:#181818;stroke-width:0.9195023506158092;"/><text fill="#000000" font-family="sans-serif" font-size="11.9535" lengthAdjust="spacing" textLength="66.2042" x="27.2548" y="492.8699">EvNewValue</text></g><!--MD5=[3ba829c7540e6d1caa286f5598db8935]
link NewValuePreview to NewValueSelection--><g id="link_NewValuePreview_NewValueSelection"><path d="M114.6074,512.1749 C114.6074,496.7999 114.6074,480.1403 114.6074,466.6678 " fill="none" id="NewValuePreview-to-NewValueSelection" style="stroke:#181818;stroke-width:0.9195023506158092;"/><polygon fill="#181818" points="114.6074,461.8569,110.9294,470.1325,114.6074,466.4545,118.2854,470.1325,114.6074,461.8569" style="stroke:#181818;stroke-width:0.9195023506158092;"/><text fill="#000000" font-family="sans-serif" font-size="11.9535" lengthAdjust="spacing" textLength="113.0988" x="115.5269" y="492.8699">EvNewValueRejected</text></g><!--MD5=[3ba829c7540e6d1caa286f5598db8935]
link NewValuePreview to NewValueSelection--><g id="link_NewValuePreview_NewValueSelection"><path d="M188.9703,535.8952 C221.3092,522.3789 248.2258,502.8934 230.4647,478.2517 C219.3792,462.8712 201.9022,453.5235 183.8505,447.8704 " fill="none" id="NewValuePreview-to-NewValueSelection-1" style="stroke:#181818;stroke-width:0.9195023506158092;"/><polygon fill="#181818" points="179.253,446.5114,186.147,452.3838,183.662,447.8142,188.2316,445.3293,179.253,446.5114" style="stroke:#181818;stroke-width:0.9195023506158092;"/><text fill="#000000" font-family="sans-serif" font-size="11.9535" lengthAdjust="spacing" textLength="98.3868" x="236.9012" y="492.8699">EvNewValueSaved</text></g><!--MD5=[df0301a461d11e7e240ad86dcaf92dda]
link *start to NotShooting--><g id="link_*start_NotShooting"><path d="M130.5693,24.2179 C130.5693,30.5659 130.5693,39.8962 130.5693,50.3566 C130.5693,55.5868 130.5693,61.0995 130.5693,66.6632 C130.5693,68.0541 130.5693,69.4482 130.5693,70.8419 C130.5693,71.5387 130.5693,72.2354 130.5693,72.9316 C130.5693,73.2797 130.5693,73.6276 130.5693,73.9754 " fill="none" id="*start-to-NotShooting" style="stroke:#181818;stroke-width:0.9195023506158092;"/><polygon fill="#181818" points="130.5693,73.9754,134.2473,65.6998,130.5693,69.3779,126.8913,65.6998,130.5693,73.9754" style="stroke:#181818;stroke-width:0.9195023506158092;"/></g><!--MD5=[757eb7be151885704a76edfa2189e6cb]
link *start*NotShooting to Idle--><g id="link_*start*NotShooting_Idle"><path d="M175.6249,135.1788 C175.6249,146.8427 175.6249,168.645 175.6249,186.2636 " fill="none" id="*start*NotShooting-to-Idle" style="stroke:#181818;stroke-width:0.9195023506158092;"/><polygon fill="#181818" points="175.6249,191.1094,179.303,182.8338,175.6249,186.5119,171.9469,182.8338,175.6249,191.1094" style="stroke:#181818;stroke-width:0.9195023506158092;"/></g><!--MD5=[182fd93969a20881a1cc689412d1880c]
link Idle to Configuring--><g id="link_Idle_Configuring"><path d="M178.3393,237.4946 C179.7618,250.3115 181.3507,266.7191 182.0615,281.3677 C182.6978,294.4853 182.9755,308.1206 182.9911,321.7872 " fill="none" id="Idle-to-Configuring" style="stroke:#181818;stroke-width:0.9195023506158092;"/><polygon fill="#181818" points="182.9865,326.4224,186.6739,318.1511,182.9917,321.8249,179.3179,318.1427,182.9865,326.4224" style="stroke:#181818;stroke-width:0.9195023506158092;"/><text fill="#000000" font-family="sans-serif" font-size="11.9535" lengthAdjust="spacing" textLength="45.9751" x="182.981" y="295.9859">EvConfig</text></g><!--MD5=[3a2b2fa238b94d13fdc20ec915ba936c]
link Configuring to Idle--><g id="link_Configuring_Idle"><path d="M121.241,326.3939 C120.5753,311.1145 122.1301,295.8664 126.8913,281.3677 C131.7316,266.6272 141.2494,252.4668 150.5989,241.0531 " fill="none" id="Configuring-to-Idle" style="stroke:#181818;stroke-width:0.9195023506158092;"/><polygon fill="#181818" points="153.7564,237.2905,145.6192,241.265,150.8009,240.8121,151.2538,245.9938,153.7564,237.2905" style="stroke:#181818;stroke-width:0.9195023506158092;"/><text fill="#000000" font-family="sans-serif" font-size="11.9535" lengthAdjust="spacing" textLength="45.9751" x="127.8108" y="295.9859">EvConfig</text></g><!--MD5=[a7856899c7d4afd02dce456033384108]
@startuml
scale 350 width
[*] - -> NotShooting

state NotShooting {
  [*] - -> Idle
  Idle - -> Configuring : EvConfig
  Configuring - -> Idle : EvConfig
}

state Configuring {
  [*] - -> NewValueSelection
  NewValueSelection - -> NewValuePreview : EvNewValue
  NewValuePreview - -> NewValueSelection : EvNewValueRejected
  NewValuePreview - -> NewValueSelection : EvNewValueSaved
  
  state NewValuePreview {
     State1 -> State2
  }
  
}
@enduml

PlantUML version 1.2022.4(Sat Apr 09 21:29:17 CST 2022)
(GPL source distribution)
Java Runtime: Java(TM) SE Runtime Environment
JVM: Java HotSpot(TM) 64-Bit Server VM
Default Encoding: GBK
Language: zh
Country: CN
--></g></svg>