<?xml version="1.0" encoding="UTF-8" standalone="no"?><svg xmlns="http://www.w3.org/2000/svg" xmlns:xlink="http://www.w3.org/1999/xlink" contentStyleType="text/css" height="632px" preserveAspectRatio="none" style="width:299px;height:632px;background:#FFFFFF;" version="1.1" viewBox="0 0 299 632" width="299px" zoomAndPan="magnify"><defs/><g><ellipse cx="149.5" cy="16" fill="#222222" rx="10" ry="10" style="stroke:none;stroke-width:1.0;"/><rect fill="#F1F1F1" height="540.1201" rx="12.5" ry="12.5" style="stroke:#181818;stroke-width:0.5;" width="285" x="7" y="86"/><rect fill="#FFFFFF" height="509" rx="12.5" ry="12.5" style="stroke:#FFFFFF;stroke-width:1.0;" width="283" x="8" y="116.1201"/><line style="stroke:#181818;stroke-width:0.5;" x1="7" x2="292" y1="115.1201" y2="115.1201"/><text fill="#000000" font-family="sans-serif" font-size="14" lengthAdjust="spacing" textLength="38" x="130.5" y="107.0439">Active</text><ellipse cx="28" cy="152.1201" fill="#222222" rx="10" ry="10" style="stroke:none;stroke-width:1.0;"/><g id="Active.NumLockOff"><rect fill="#F1F1F1" height="50" rx="12.5" ry="12.5" style="stroke:#181818;stroke-width:0.5;" width="97" x="56.5" y="127.1201"/><line style="stroke:#181818;stroke-width:0.5;" x1="56.5" x2="153.5" y1="156.2402" y2="156.2402"/><text fill="#000000" font-family="sans-serif" font-size="14" lengthAdjust="spacing" textLength="77" x="66.5" y="148.1641">NumLockOff</text></g><g id="Active.NumLockOn"><rect fill="#F1F1F1" height="50" rx="12.5" ry="12.5" style="stroke:#181818;stroke-width:0.5;" width="97" x="56.5" y="232.1201"/><line style="stroke:#181818;stroke-width:0.5;" x1="56.5" x2="153.5" y1="261.2402" y2="261.2402"/><text fill="#000000" font-family="sans-serif" font-size="14" lengthAdjust="spacing" textLength="77" x="66.5" y="253.1641">NumLockOn</text></g><!--MD5=[f1e44e9cdf7ed6fd162579f896fb76ea]
link *start*Active to NumLockOff--><g id="link_*start*Active_NumLockOff"><path d="M38.2266,152.1201 C42.601,152.1201 46.9754,152.1201 51.3498,152.1201 " fill="none" id="*start*Active-to-NumLockOff" style="stroke:#181818;stroke-width:1.0;"/><polygon fill="#181818" points="56.4849,152.1201,47.4849,148.1201,51.4849,152.1201,47.4849,156.1201,56.4849,152.1201" style="stroke:#181818;stroke-width:1.0;"/></g><!--MD5=[b6ef3c088f5474ecc81df30475e7d61b]
link NumLockOff to NumLockOn--><g id="link_NumLockOff_NumLockOn"><path d="M56.2885,173.2601 C47.7643,179.0331 40.0276,186.2404 35,195.1201 C26.6514,209.8652 36.9612,222.7861 52.0142,232.8947 " fill="none" id="NumLockOff-to-NumLockOn" style="stroke:#181818;stroke-width:1.0;"/><polygon fill="#181818" points="56.3741,235.6705,50.9304,227.4628,52.1564,232.9852,46.634,234.2112,56.3741,235.6705" style="stroke:#181818;stroke-width:1.0;"/><text fill="#000000" font-family="sans-serif" font-size="13" lengthAdjust="spacing" textLength="117" x="36" y="211.0181">EvNumLockPressed</text></g><!--MD5=[3bfddee0d82dc74c927fbeb3d3f2e6a3]
link NumLockOn to NumLockOff--><g id="link_NumLockOn_NumLockOff"><path d="M141.342,231.8941 C152.367,221.3878 160.13,208.4485 154,195.1201 C151.706,190.1323 148.495,185.5151 144.802,181.3091 " fill="none" id="NumLockOn-to-NumLockOff" style="stroke:#181818;stroke-width:1.0;"/><polygon fill="#181818" points="141.287,177.5641,144.5284,186.8643,144.7083,181.2103,150.3623,181.3902,141.287,177.5641" style="stroke:#181818;stroke-width:1.0;"/><text fill="#000000" font-family="sans-serif" font-size="13" lengthAdjust="spacing" textLength="117" x="157" y="211.0181">EvNumLockPressed</text></g><line style="stroke:#181818;stroke-width:1.5;stroke-dasharray:8.0,10.0;" x1="12" x2="285" y1="287.1201" y2="287.1201"/><ellipse cx="28" cy="319.1201" fill="#222222" rx="10" ry="10" style="stroke:none;stroke-width:1.0;"/><g id="Active.CONC13.CapsLockOff"><rect fill="#F1F1F1" height="50" rx="12.5" ry="12.5" style="stroke:#181818;stroke-width:0.5;" width="102" x="56" y="294.1201"/><line style="stroke:#181818;stroke-width:0.5;" x1="56" x2="158" y1="323.2402" y2="323.2402"/><text fill="#000000" font-family="sans-serif" font-size="14" lengthAdjust="spacing" textLength="82" x="66" y="315.1641">CapsLockOff</text></g><g id="Active.CONC13.CapsLockOn"><rect fill="#F1F1F1" height="50" rx="12.5" ry="12.5" style="stroke:#181818;stroke-width:0.5;" width="102" x="55" y="399.1201"/><line style="stroke:#181818;stroke-width:0.5;" x1="55" x2="157" y1="428.2402" y2="428.2402"/><text fill="#000000" font-family="sans-serif" font-size="14" lengthAdjust="spacing" textLength="82" x="65" y="420.1641">CapsLockOn</text></g><!--MD5=[51e546a80ae6e98604e866a8b05eb61c]
link *start*CONC13 to CapsLockOff--><g id="link_*start*CONC13_CapsLockOff"><path d="M38.1836,319.1201 C42.3418,319.1201 46.5,319.1201 50.6582,319.1201 " fill="none" id="*start*CONC13-to-CapsLockOff" style="stroke:#181818;stroke-width:1.0;"/><polygon fill="#181818" points="55.9253,319.1201,46.9253,315.1201,50.9253,319.1201,46.9253,323.1201,55.9253,319.1201" style="stroke:#181818;stroke-width:1.0;"/></g><!--MD5=[dc4675bd3056f3ef68701d9e8e02a3f3]
link CapsLockOff to CapsLockOn--><g id="link_CapsLockOff_CapsLockOn"><path d="M55.8331,340.7511 C47.4962,346.4191 39.9732,353.4615 35,362.1201 C26.858,376.2957 36.0774,388.7495 50.2714,398.646 " fill="none" id="CapsLockOff-to-CapsLockOn" style="stroke:#181818;stroke-width:1.0;"/><polygon fill="#181818" points="54.8224,401.6343,49.4948,393.3508,50.6429,398.8899,45.1038,400.038,54.8224,401.6343" style="stroke:#181818;stroke-width:1.0;"/><text fill="#000000" font-family="sans-serif" font-size="13" lengthAdjust="spacing" textLength="120" x="36" y="378.0181">EvCapsLockPressed</text></g><!--MD5=[79e17b083e07746bd1a647600952cab6]
link CapsLockOn to CapsLockOff--><g id="link_CapsLockOn_CapsLockOff"><path d="M143.744,398.8855 C149.113,393.7033 153.867,387.7589 157,381.1201 C162.621,369.2087 156.96,357.6366 147.7,347.8301 " fill="none" id="CapsLockOn-to-CapsLockOff" style="stroke:#181818;stroke-width:1.0;"/><polygon fill="#181818" points="144.14,344.3001,147.7126,353.4781,147.6898,347.8213,153.3466,347.7985,144.14,344.3001" style="stroke:#181818;stroke-width:1.0;"/><text fill="#000000" font-family="sans-serif" font-size="13" lengthAdjust="spacing" textLength="120" x="161" y="378.0181">EvCapsLockPressed</text></g><line style="stroke:#181818;stroke-width:1.5;stroke-dasharray:8.0,10.0;" x1="12" x2="285" y1="454.1201" y2="454.1201"/><ellipse cx="28" cy="486.1201" fill="#222222" rx="10" ry="10" style="stroke:none;stroke-width:1.0;"/><g id="Active.CONC21.ScrollLockOff"><rect fill="#F1F1F1" height="50" rx="12.5" ry="12.5" style="stroke:#181818;stroke-width:0.5;" width="104" x="56" y="461.1201"/><line style="stroke:#181818;stroke-width:0.5;" x1="56" x2="160" y1="490.2402" y2="490.2402"/><text fill="#000000" font-family="sans-serif" font-size="14" lengthAdjust="spacing" textLength="84" x="66" y="482.1641">ScrollLockOff</text></g><g id="Active.CONC21.ScrollLockOn"><rect fill="#F1F1F1" height="50" rx="12.5" ry="12.5" style="stroke:#181818;stroke-width:0.5;" width="104" x="55" y="566.1201"/><line style="stroke:#181818;stroke-width:0.5;" x1="55" x2="159" y1="595.2402" y2="595.2402"/><text fill="#000000" font-family="sans-serif" font-size="14" lengthAdjust="spacing" textLength="84" x="65" y="587.1641">ScrollLockOn</text></g><!--MD5=[bdd02d731d6cd7a1604516ed0f976c9f]
link *start*CONC21 to ScrollLockOff--><g id="link_*start*CONC21_ScrollLockOff"><path d="M38,486.1201 C42.1656,486.1201 46.3313,486.1201 50.4969,486.1201 " fill="none" id="*start*CONC21-to-ScrollLockOff" style="stroke:#181818;stroke-width:1.0;"/><polygon fill="#181818" points="55.7734,486.1201,46.7734,482.1201,50.7734,486.1201,46.7734,490.1201,55.7734,486.1201" style="stroke:#181818;stroke-width:1.0;"/></g><!--MD5=[da4e1e55b4a6de250eca2c82023085fa]
link ScrollLockOff to ScrollLockOn--><g id="link_ScrollLockOff_ScrollLockOn"><path d="M55.7504,508.4981 C47.8468,514.0351 40.757,520.838 36,529.1201 C28.0047,543.0403 36.7509,555.3002 50.5091,565.1086 " fill="none" id="ScrollLockOff-to-ScrollLockOn" style="stroke:#181818;stroke-width:1.0;"/><polygon fill="#181818" points="54.9268,568.073,49.6821,559.7368,50.7749,565.2871,45.2246,566.3798,54.9268,568.073" style="stroke:#181818;stroke-width:1.0;"/><text fill="#000000" font-family="sans-serif" font-size="13" lengthAdjust="spacing" textLength="120" x="37" y="545.0181">EvCapsLockPressed</text></g><!--MD5=[6ad2c621f2407b82317910f4deb17639]
link ScrollLockOn to ScrollLockOff--><g id="link_ScrollLockOn_ScrollLockOff"><path d="M144.744,565.8855 C150.113,560.7033 154.867,554.7589 158,548.1201 C163.621,536.2087 157.96,524.6366 148.7,514.8301 " fill="none" id="ScrollLockOn-to-ScrollLockOff" style="stroke:#181818;stroke-width:1.0;"/><polygon fill="#181818" points="145.14,511.3001,148.7126,520.4781,148.6898,514.8213,154.3466,514.7985,145.14,511.3001" style="stroke:#181818;stroke-width:1.0;"/><text fill="#000000" font-family="sans-serif" font-size="13" lengthAdjust="spacing" textLength="120" x="162" y="545.0181">EvCapsLockPressed</text></g><!--MD5=[edb54b3b19a9924369663c95443e5f29]
link *start to Active--><g id="link_*start_Active"><path d="M149.5,26.041 C149.5,36.724 149.5,56.155 149.5,80.436 " fill="none" id="*start-to-Active" style="stroke:#181818;stroke-width:1.0;"/><polygon fill="#181818" points="149.5,85.689,153.5,76.689,149.5,80.689,145.5,76.689,149.5,85.689" style="stroke:#181818;stroke-width:1.0;"/></g><!--MD5=[5b1dd90a80154e494a41e3a38a6d8b97]
@startuml
[*] - -> Active

state Active {
  [*] -> NumLockOff
  NumLockOff - -> NumLockOn : EvNumLockPressed
  NumLockOn - -> NumLockOff : EvNumLockPressed
  - -
  [*] -> CapsLockOff
  CapsLockOff - -> CapsLockOn : EvCapsLockPressed
  CapsLockOn - -> CapsLockOff : EvCapsLockPressed
  - -
  [*] -> ScrollLockOff
  ScrollLockOff - -> ScrollLockOn : EvCapsLockPressed
  ScrollLockOn - -> ScrollLockOff : EvCapsLockPressed
}

@enduml

PlantUML version 1.2022.4(Sat Apr 09 21:29:17 CST 2022)
(GPL source distribution)
Java Runtime: Java(TM) SE Runtime Environment
JVM: Java HotSpot(TM) 64-Bit Server VM
Default Encoding: GBK
Language: zh
Country: CN
--></g></svg>