<?xml version="1.0" encoding="UTF-8" standalone="no"?><svg xmlns="http://www.w3.org/2000/svg" xmlns:xlink="http://www.w3.org/1999/xlink" contentStyleType="text/css" height="638.3734px" preserveAspectRatio="none" style="width:600px;height:638px;background:#FFFFFF;" version="1.1" viewBox="0 0 600 638" width="600.5941px" zoomAndPan="magnify"><defs/><g><ellipse cx="369.2624" cy="30.9984" fill="#222222" rx="9.687" ry="9.687" style="stroke:none;stroke-width:0.9687001674398239;"/><g id="State1"><rect fill="#F1F1F1" height="48.435" rx="12.1088" ry="12.1088" style="stroke:#181818;stroke-width:0.48435008371991195;" width="59.0907" x="413.3383" y="6.7809"/><line style="stroke:#181818;stroke-width:0.48435008371991195;" x1="413.3383" x2="472.429" y1="34.9896" y2="34.9896"/><text fill="#000000" font-family="sans-serif" font-size="13.5618" lengthAdjust="spacing" textLength="39.7167" x="423.0253" y="27.1662">State1</text></g><g id="State2"><rect fill="#F1F1F1" height="48.435" rx="12.1088" ry="12.1088" style="stroke:#181818;stroke-width:0.48435008371991195;" width="59.0907" x="244.7844" y="131.7432"/><line style="stroke:#181818;stroke-width:0.48435008371991195;" x1="244.7844" x2="303.8751" y1="159.9519" y2="159.9519"/><text fill="#000000" font-family="sans-serif" font-size="13.5618" lengthAdjust="spacing" textLength="39.7167" x="254.4714" y="152.1285">State2</text></g><ellipse cx="284.0168" cy="622.8742" fill="none" rx="9.687" ry="9.687" style="stroke:#222222;stroke-width:0.9687001674398239;"/><ellipse cx="284.5011" cy="623.3586" fill="#222222" rx="5.8122" ry="5.8122" style="stroke:none;stroke-width:0.9687001674398239;"/><rect fill="#F1F1F1" height="280.0707" rx="12.1088" ry="12.1088" style="stroke:#181818;stroke-width:0.48435008371991195;" width="278.0169" x="135.3213" y="256.7055"/><rect fill="#FFFFFF" height="249.9246" rx="12.1088" ry="12.1088" style="stroke:#FFFFFF;stroke-width:0.9687001674398239;" width="276.0795" x="136.29" y="285.8829"/><line style="stroke:#181818;stroke-width:0.48435008371991195;" x1="135.3213" x2="413.3383" y1="284.9142" y2="284.9142"/><text fill="#000000" font-family="sans-serif" font-size="13.5618" lengthAdjust="spacing" textLength="39.7167" x="254.4714" y="277.0908">State3</text><g id="State3.long1"><rect fill="#F1F1F1" height="74.939" rx="12.1088" ry="12.1088" style="stroke:#181818;stroke-width:0.48435008371991195;" width="174.366" x="146.9457" y="350.7858"/><line style="stroke:#181818;stroke-width:0.48435008371991195;" x1="146.9457" x2="321.3117" y1="397.5161" y2="397.5161"/><text fill="#000000" font-family="sans-serif" font-size="13.5618" lengthAdjust="spacing" textLength="154.992" x="156.6327" y="371.1711">Accumulate Enough Data</text><text fill="#000000" font-family="sans-serif" font-size="13.5618" lengthAdjust="spacing" textLength="105.5883" x="181.3346" y="389.6928">Long State Name</text><text fill="#000000" font-family="sans-serif" font-size="13.5618" lengthAdjust="spacing" textLength="61.9968" x="151.7892" y="417.9014">Just a test</text></g><ellipse cx="234.1287" cy="305.2569" fill="#222222" rx="9.687" ry="9.687" style="stroke:none;stroke-width:0.9687001674398239;"/><g id="State3.ProcessData"><rect fill="#F1F1F1" height="48.435" rx="12.1088" ry="12.1088" style="stroke:#181818;stroke-width:0.48435008371991195;" width="97.8387" x="185.2094" y="478.6542"/><line style="stroke:#181818;stroke-width:0.48435008371991195;" x1="185.2094" x2="283.0481" y1="506.8629" y2="506.8629"/><text fill="#000000" font-family="sans-serif" font-size="13.5618" lengthAdjust="spacing" textLength="78.4647" x="194.8964" y="499.0395">ProcessData</text></g><!--MD5=[cbbb8dc237c8185397a1ccf2b0af3080]
link *start*State3 to long1--><g id="link_*start*State3_long1"><path d="M234.1287,315.1909 C234.1287,322.7487 234.1287,334.1455 234.1287,345.6517 " fill="none" id="*start*State3-to-long1" style="stroke:#181818;stroke-width:0.9687001674398239;"/><polygon fill="#181818" points="234.1287,350.5785,238.0035,341.8602,234.1287,345.735,230.2539,341.8602,234.1287,350.5785" style="stroke:#181818;stroke-width:0.9687001674398239;"/></g><!--MD5=[cd06514976a2197e7c66cb27013135c0]
link long1 to long1--><g id="link_long1_long1"><path d="M321.5074,379.3402 C331.9374,380.9289 338.7483,383.8427 338.7483,388.0808 C338.7483,391.5904 334.0773,394.1913 326.5485,395.8846 " fill="none" id="long1-to-long1" style="stroke:#181818;stroke-width:0.9687001674398239;"/><polygon fill="#181818" points="321.5074,396.8214,330.7873,399.0366,326.2693,395.9357,329.3702,391.4177,321.5074,396.8214" style="stroke:#181818;stroke-width:0.9687001674398239;"/><text fill="#000000" font-family="sans-serif" font-size="12.5931" lengthAdjust="spacing" textLength="54.2472" x="344.5605" y="394.2785">New Data</text></g><!--MD5=[02e543224095a440a3409c6f97e15d1f]
link long1 to ProcessData--><g id="link_long1_ProcessData"><path d="M234.1287,425.3786 C234.1287,440.8728 234.1287,458.6931 234.1287,473.2367 " fill="none" id="long1-to-ProcessData" style="stroke:#181818;stroke-width:0.9687001674398239;"/><polygon fill="#181818" points="234.1287,478.4362,238.0035,469.7179,234.1287,473.5927,230.2539,469.7179,234.1287,478.4362" style="stroke:#181818;stroke-width:0.9687001674398239;"/><text fill="#000000" font-family="sans-serif" font-size="12.5931" lengthAdjust="spacing" textLength="72.6525" x="235.0974" y="458.2127">Enough Data</text></g><!--MD5=[60533a5dc91355c93bf187ba4549d745]
link *start to State1--><g id="link_*start_State1"><path d="M379.0395,30.9984 C388.7381,30.9984 398.4358,30.9984 408.1344,30.9984 " fill="none" id="*start-to-State1" style="stroke:#181818;stroke-width:0.9687001674398239;"/><polygon fill="#181818" points="413.2055,30.9984,404.4872,27.1236,408.362,30.9984,404.4872,34.8732,413.2055,30.9984" style="stroke:#181818;stroke-width:0.9687001674398239;"/></g><!--MD5=[dc702cd49c4e27e6abb2620dc4bb28d8]
link State1 to State2--><g id="link_State1_State2"><path d="M413.1368,53.6786 C383.7416,75.1334 338.8346,107.9103 308.1113,130.3357 " fill="none" id="State1-to-State2" style="stroke:#181818;stroke-width:0.9687001674398239;"/><polygon fill="#181818" points="304.0611,133.2912,313.3877,131.2819,307.9736,130.4361,308.8195,125.0219,304.0611,133.2912" style="stroke:#181818;stroke-width:0.9687001674398239;"/><text fill="#000000" font-family="sans-serif" font-size="12.5931" lengthAdjust="spacing" textLength="62.9655" x="369.2624" y="99.6773">Succeeded</text></g><!--MD5=[ca1046a354e184ac9d197a073cc82934]
link State1 to *end--><g id="link_State1_*end"><path d="M454.6562,55.4135 C491.1743,131.7703 594.1878,377.5315 493.256,536.6599 C449.6229,605.4506 339.0825,618.7308 298.9047,621.2933 " fill="none" id="State1-to-*end" style="stroke:#181818;stroke-width:0.9687001674398239;"/><polygon fill="#181818" points="293.9305,621.5777,302.8559,624.948,298.7661,621.3009,302.4131,617.211,293.9305,621.5777" style="stroke:#181818;stroke-width:0.9687001674398239;"/><text fill="#000000" font-family="sans-serif" font-size="12.5931" lengthAdjust="spacing" textLength="43.5915" x="517.4735" y="224.6396">Aborted</text></g><!--MD5=[428d136baf6462f9e03ffacdcb621855]
link State2 to State3--><g id="link_State2_State3"><path d="M274.3298,180.2596 C274.3298,197.9539 274.3298,223.9112 274.3298,251.7313 " fill="none" id="State2-to-State3" style="stroke:#181818;stroke-width:0.9687001674398239;"/><polygon fill="#181818" points="274.3298,256.5767,278.2046,247.8584,274.3298,251.7332,270.455,247.8584,274.3298,256.5767" style="stroke:#181818;stroke-width:0.9687001674398239;"/><text fill="#000000" font-family="sans-serif" font-size="12.5931" lengthAdjust="spacing" textLength="62.9655" x="275.2985" y="224.6396">Succeeded</text></g><!--MD5=[37ebb224bae70bf8df0e6bab9d19d55b]
link State2 to *end--><g id="link_State2_*end"><path d="M244.4686,161.6857 C198.2355,170.8351 110.7176,195.6813 72.8398,256.7055 C7.2222,362.4208 5.8122,431.833 72.8398,536.6599 C117.0719,605.8362 228.5141,618.8764 269.0107,621.3345 " fill="none" id="State2-to-*end" style="stroke:#181818;stroke-width:0.9687001674398239;"/><polygon fill="#181818" points="274.0246,621.6057,265.5295,617.2633,269.1883,621.3428,265.1089,625.0015,274.0246,621.6057" style="stroke:#181818;stroke-width:0.9687001674398239;"/><text fill="#000000" font-family="sans-serif" font-size="12.5931" lengthAdjust="spacing" textLength="43.5915" x="73.8085" y="402.8804">Aborted</text></g><!--MD5=[8ec7ebc35d95dc19dc51ed7d52bc84fe]
link State3 to State3--><g id="link_State3_State3"><path d="M413.4012,366.5261 C433.6209,371.3134 447.2428,381.3647 447.2428,396.6827 C447.2428,410.6843 435.8615,420.2861 418.4637,425.488 " fill="none" id="State3-to-State3" style="stroke:#181818;stroke-width:0.9687001674398239;"/><polygon fill="#181818" points="413.4012,426.8393,422.824,428.334,418.0808,425.5899,420.8249,420.8467,413.4012,426.8393" style="stroke:#181818;stroke-width:0.9687001674398239;"/><text fill="#000000" font-family="sans-serif" font-size="12.5931" lengthAdjust="spacing" textLength="33.9045" x="453.055" y="402.8804">Failed</text></g><!--MD5=[0ea1e5ee684c4e9667d1229adf70964c]
link State3 to *end--><g id="link_State3_*end"><path d="M179.1492,536.7283 C177.2331,553.1648 180.0569,569.3344 190.0529,584.1262 C207.9302,610.5832 247.7312,618.5154 269.3536,620.8914 " fill="none" id="State3-to-*end" style="stroke:#181818;stroke-width:0.9687001674398239;"/><polygon fill="#181818" points="274.4344,621.3836,266.131,616.685,269.6135,620.9158,265.3827,624.3983,274.4344,621.3836" style="stroke:#181818;stroke-width:0.9687001674398239;"/><text fill="#000000" font-family="sans-serif" font-size="12.5931" lengthAdjust="spacing" textLength="141.4302" x="191.0216" y="581.1212">Succeeded / Save Result</text></g><!--MD5=[0ea1e5ee684c4e9667d1229adf70964c]
link State3 to *end--><g id="link_State3_*end"><path d="M330.7585,536.8979 C333.3449,546.5491 335.5729,556.2163 337.2953,565.7209 C338.7532,573.77 341.0509,576.8591 337.2953,584.1262 C329.0226,600.1336 310.4914,610.8249 297.6251,616.6323 " fill="none" id="State3-to-*end-1" style="stroke:#181818;stroke-width:0.9687001674398239;"/><polygon fill="#181818" points="292.8378,618.6878,302.3776,618.8082,297.2883,616.7767,299.3198,611.6873,292.8378,618.6878" style="stroke:#181818;stroke-width:0.9687001674398239;"/><text fill="#000000" font-family="sans-serif" font-size="12.5931" lengthAdjust="spacing" textLength="43.5915" x="340.2014" y="581.1212">Aborted</text></g><!--MD5=[d110332dfdb85d25c03c3fc328b392af]
@startuml
scale 600 width

[*] -> State1
State1 - -> State2 : Succeeded
State1 - -> [*] : Aborted
State2 - -> State3 : Succeeded
State2 - -> [*] : Aborted
state State3 {
  state "Accumulate Enough Data\nLong State Name" as long1
  long1 : Just a test
  [*] - -> long1
  long1 - -> long1 : New Data
  long1 - -> ProcessData : Enough Data
}
State3 - -> State3 : Failed
State3 - -> [*] : Succeeded / Save Result
State3 - -> [*] : Aborted
 
@enduml

PlantUML version 1.2022.4(Sat Apr 09 21:29:17 CST 2022)
(GPL source distribution)
Java Runtime: Java(TM) SE Runtime Environment
JVM: Java HotSpot(TM) 64-Bit Server VM
Default Encoding: GBK
Language: zh
Country: CN
--></g></svg>