<?xml version="1.0" encoding="UTF-8" standalone="no"?><svg xmlns="http://www.w3.org/2000/svg" xmlns:xlink="http://www.w3.org/1999/xlink" contentStyleType="text/css" height="266px" preserveAspectRatio="none" style="width:358px;height:266px;background:#FFFFFF;" version="1.1" viewBox="0 0 358 266" width="358px" zoomAndPan="magnify"><defs/><g><ellipse cx="170" cy="16" fill="#222222" rx="10" ry="10" style="stroke:none;stroke-width:1.0;"/><g id="Active"><rect fill="#F1F1F1" height="50" rx="12.5" ry="12.5" style="stroke:#181818;stroke-width:0.5;" width="58" x="141" y="86"/><line style="stroke:#181818;stroke-width:0.5;" x1="141" x2="199" y1="115.1201" y2="115.1201"/><text fill="#000000" font-family="sans-serif" font-size="14" lengthAdjust="spacing" textLength="38" x="151" y="107.0439">Active</text></g><g id="Inactive"><rect fill="#F1F1F1" height="50" rx="12.5" ry="12.5" style="stroke:#181818;stroke-width:0.5;" width="68" x="136" y="202.5"/><line style="stroke:#181818;stroke-width:0.5;" x1="136" x2="204" y1="231.6201" y2="231.6201"/><text fill="#000000" font-family="sans-serif" font-size="14" lengthAdjust="spacing" textLength="48" x="146" y="223.5439">Inactive</text></g><g id="elem_GMN7"><path d="M6,88 L6,133.5088 A0,0 0 0 0 6,133.5088 L106,133.5088 A0,0 0 0 0 106,133.5088 L106,115 L140.648,111 L106,107 L106,98 L96,88 L6,88 A0,0 0 0 0 6,88 " fill="#FEFFDD" style="stroke:#181818;stroke-width:0.5;"/><path d="M96,88 L96,98 L106,98 L96,88 " fill="#FEFFDD" style="stroke:#181818;stroke-width:0.5;"/><text fill="#000000" font-family="sans-serif" font-size="13" lengthAdjust="spacing" textLength="79" x="12" y="107.8979">this is a short</text><text fill="#000000" font-family="sans-serif" font-size="13" lengthAdjust="spacing" textLength="25" x="12" y="125.6523">note</text></g><g id="elem_GMN10"><path d="M239,196 L239,223.5 L204.18,227.5 L239,231.5 L239,259.2632 A0,0 0 0 0 239,259.2632 L351,259.2632 A0,0 0 0 0 351,259.2632 L351,206 L341,196 L239,196 A0,0 0 0 0 239,196 " fill="#FEFFDD" style="stroke:#181818;stroke-width:0.5;"/><path d="M341,196 L341,206 L351,206 L341,196 " fill="#FEFFDD" style="stroke:#181818;stroke-width:0.5;"/><text fill="#000000" font-family="sans-serif" font-size="13" lengthAdjust="spacing" textLength="91" x="245" y="215.8979">A note can also</text><text fill="#000000" font-family="sans-serif" font-size="13" lengthAdjust="spacing" textLength="77" x="245" y="233.6523">be defined on</text><text fill="#000000" font-family="sans-serif" font-size="13" lengthAdjust="spacing" textLength="71" x="245" y="251.4067">several lines</text></g><!--MD5=[edb54b3b19a9924369663c95443e5f29]
link *start to Active--><g id="link_*start_Active"><path d="M170,26.257 C170,38.856 170,61.981 170,80.743 " fill="none" id="*start-to-Active" style="stroke:#181818;stroke-width:1.0;"/><polygon fill="#181818" points="170,85.907,174,76.907,170,80.907,166,76.907,170,85.907" style="stroke:#181818;stroke-width:1.0;"/></g><!--MD5=[5d4211fd6e1fe5891bc2a7c8d0161153]
link Active to Inactive--><g id="link_Active_Inactive"><path d="M170,136.003 C170,153.745 170,178.0076 170,196.9443 " fill="none" id="Active-to-Inactive" style="stroke:#181818;stroke-width:1.0;"/><polygon fill="#181818" points="170,202.1343,174,193.1343,170,197.1343,166,193.1343,170,202.1343" style="stroke:#181818;stroke-width:1.0;"/></g><!--MD5=[88497b2eb2c2afba4302e28d39c555e5]
@startuml

[*] - -> Active
Active - -> Inactive

note left of Active : this is a short\nnote

note right of Inactive
  A note can also
  be defined on
  several lines
end note

@enduml

PlantUML version 1.2022.4(Sat Apr 09 21:29:17 CST 2022)
(GPL source distribution)
Java Runtime: Java(TM) SE Runtime Environment
JVM: Java HotSpot(TM) 64-Bit Server VM
Default Encoding: GBK
Language: zh
Country: CN
--></g></svg>