<?xml version="1.0" encoding="UTF-8" standalone="no"?><svg xmlns="http://www.w3.org/2000/svg" xmlns:xlink="http://www.w3.org/1999/xlink" contentStyleType="text/css" height="249px" preserveAspectRatio="none" style="width:258px;height:249px;background:#FFFFFF;" version="1.1" viewBox="0 0 258 249" width="258px" zoomAndPan="magnify"><defs/><g><ellipse cx="81" cy="16" fill="#222222" rx="10" ry="10" style="stroke:none;stroke-width:1.0;"/><g id="State1"><rect fill="#F1F1F1" height="77.3604" rx="12.5" ry="12.5" style="stroke:#181818;stroke-width:0.5;" width="148" x="7" y="86"/><line style="stroke:#181818;stroke-width:0.5;" x1="7" x2="155" y1="115.1201" y2="115.1201"/><text fill="#000000" font-family="sans-serif" font-size="14" lengthAdjust="spacing" textLength="41" x="60.5" y="107.0439">State1</text><text fill="#000000" font-family="sans-serif" font-size="14" lengthAdjust="spacing" textLength="87" x="12" y="136.1641">this is a string</text><text fill="#000000" font-family="sans-serif" font-size="14" lengthAdjust="spacing" textLength="128" x="12" y="155.2842">this is another string</text></g><ellipse cx="151" cy="233" fill="none" rx="10" ry="10" style="stroke:#222222;stroke-width:1.0;"/><ellipse cx="151.5" cy="233.5" fill="#222222" rx="6" ry="6" style="stroke:none;stroke-width:1.0;"/><g id="State2"><rect fill="#F1F1F1" height="50" rx="12.5" ry="12.5" style="stroke:#181818;stroke-width:0.5;" width="61" x="190.5" y="99.5"/><line style="stroke:#181818;stroke-width:0.5;" x1="190.5" x2="251.5" y1="128.6201" y2="128.6201"/><text fill="#000000" font-family="sans-serif" font-size="14" lengthAdjust="spacing" textLength="41" x="200.5" y="120.5439">State2</text></g><!--MD5=[60533a5dc91355c93bf187ba4549d745]
link *start to State1--><g id="link_*start_State1"><path d="M81,26.08 C81,38.23 81,60.596 81,80.836 " fill="none" id="*start-to-State1" style="stroke:#181818;stroke-width:1.0;"/><polygon fill="#181818" points="81,85.929,85,76.929,81,80.929,77,76.929,81,85.929" style="stroke:#181818;stroke-width:1.0;"/></g><!--MD5=[ca1046a354e184ac9d197a073cc82934]
link State1 to *end--><g id="link_State1_*end"><path d="M105.6794,163.0479 C118.835,183.0632 134.127,206.3288 143.16,220.0727 " fill="none" id="State1-to-*end" style="stroke:#181818;stroke-width:1.0;"/><polygon fill="#181818" points="145.972,224.3501,144.3714,214.6322,143.2258,220.1718,137.6861,219.0262,145.972,224.3501" style="stroke:#181818;stroke-width:1.0;"/></g><!--MD5=[dc702cd49c4e27e6abb2620dc4bb28d8]
link State1 to State2--><g id="link_State1_State2"><path d="M155.102,124.5 C165.112,124.5 175.122,124.5 185.133,124.5 " fill="none" id="State1-to-State2" style="stroke:#181818;stroke-width:1.0;"/><polygon fill="#181818" points="190.368,124.5,181.368,120.5,185.368,124.5,181.368,128.5,190.368,124.5" style="stroke:#181818;stroke-width:1.0;"/></g><!--MD5=[37ebb224bae70bf8df0e6bab9d19d55b]
link State2 to *end--><g id="link_State2_*end"><path d="M205.116,149.6665 C190.81,171.4321 170.357,202.5492 159.138,219.6189 " fill="none" id="State2-to-*end" style="stroke:#181818;stroke-width:1.0;"/><polygon fill="#181818" points="156.231,224.0415,164.5167,218.7174,158.9771,219.8631,157.8314,214.3235,156.231,224.0415" style="stroke:#181818;stroke-width:1.0;"/></g><!--MD5=[3999d47ae2b2490b14bcf6d74a06f07f]
@startuml

[*] - -> State1
State1 - -> [*]
State1 : this is a string
State1 : this is another string

State1 -> State2
State2 - -> [*]

@enduml

PlantUML version 1.2022.4(Sat Apr 09 21:29:17 CST 2022)
(GPL source distribution)
Java Runtime: Java(TM) SE Runtime Environment
JVM: Java HotSpot(TM) 64-Bit Server VM
Default Encoding: GBK
Language: zh
Country: CN
--></g></svg>