<?xml version="1.0" encoding="UTF-8" standalone="no"?><svg xmlns="http://www.w3.org/2000/svg" xmlns:xlink="http://www.w3.org/1999/xlink" contentStyleType="text/css" height="520px" preserveAspectRatio="none" style="width:540px;height:520px;background:#FFFFFF;" version="1.1" viewBox="0 0 540 520" width="540px" zoomAndPan="magnify"><defs/><g><!--MD5=[e209b37fc91f378abaa2ddf468318055]
entity actor--><g id="elem_actor"><ellipse cx="55" cy="14" fill="#F1F1F1" rx="8" ry="8" style="stroke:#181818;stroke-width:0.5;"/><path d="M55,22 L55,49 M42,30 L68,30 M55,49 L42,64 M55,49 L68,64 " fill="none" style="stroke:#181818;stroke-width:0.5;"/><text fill="#000000" font-family="sans-serif" font-size="14" lengthAdjust="spacing" textLength="32" x="39" y="81.5439">actor</text></g><!--MD5=[3908db504f15eb564d5f0e12bd7273c1]
entity agent--><g id="elem_agent"><rect fill="#F1F1F1" height="39.1201" rx="2.5" ry="2.5" style="stroke:#181818;stroke-width:0.5;" width="56" x="106" y="25.5"/><text fill="#000000" font-family="sans-serif" font-size="14" lengthAdjust="spacing" textLength="36" x="116" y="51.5439">agent</text></g><!--MD5=[ed13bbfe61d4f4be62c09eebe4db66d3]
entity artifact--><g id="elem_artifact"><rect fill="#F1F1F1" height="42.1201" rx="2.5" ry="2.5" style="stroke:#181818;stroke-width:0.5;" width="73" x="197.5" y="24"/><polygon fill="#F1F1F1" points="253.5,29,253.5,43,265.5,43,265.5,35,259.5,29,253.5,29" style="stroke:#181818;stroke-width:0.5;"/><line style="stroke:#181818;stroke-width:0.5;" x1="259.5" x2="259.5" y1="29" y2="35"/><line style="stroke:#181818;stroke-width:0.5;" x1="265.5" x2="259.5" y1="35" y2="35"/><text fill="#000000" font-family="sans-serif" font-size="14" lengthAdjust="spacing" textLength="43" x="207.5" y="53.0439">artifact</text></g><!--MD5=[6cbf048fd2d5a055b0f2cbfd23391788]
entity boundary--><g id="elem_boundary"><path d="M315.5,23.5 L315.5,47.5 M315.5,35.5 L332.5,35.5 " fill="none" style="stroke:#181818;stroke-width:0.5;"/><ellipse cx="344.5" cy="35.5" fill="#F1F1F1" rx="12" ry="12" style="stroke:#181818;stroke-width:0.5;"/><text fill="#000000" font-family="sans-serif" font-size="14" lengthAdjust="spacing" textLength="60" x="306" y="67.5439">boundary</text></g><!--MD5=[0568ea600d1c2ace8679ac75c80dfc89]
entity card--><g id="elem_card"><rect fill="#F1F1F1" height="25.1201" rx="2.5" ry="2.5" style="stroke:#181818;stroke-width:0.5;" width="48" x="401" y="32.5"/><text fill="#000000" font-family="sans-serif" font-size="14" lengthAdjust="spacing" textLength="28" x="411" y="51.5439">card</text></g><!--MD5=[3a4d72efb1b53e1acbdd1189cccbc328]
entity cloud--><g id="elem_cloud"><path d="M31.6212,155.1153 C33.6255,148.6538 39.637,148.1308 43.7493,152.8231 C47.5978,146.2329 51.9011,146.0872 56.3064,152.276 C60.6932,146.815 64.5211,147.0321 68.022,153.1707 C72.2483,147.4448 78.0114,147.4912 80.8475,154.5638 C88.8522,158.4332 89.5728,164.9451 83.0382,170.7788 C89.5614,176.9037 88.6808,184.7259 80.0199,188.2235 C78.3118,194.4326 73.0831,196.933 67.7511,192.3392 C66.773,198.563 61.4934,199.6736 57.1579,195.8949 C50.6337,201.3468 45.2452,199.4691 43.7131,191.0546 C37.9388,196.9181 33.1617,195.5304 31.0537,187.6721 C20.4195,185.7888 18.9353,179.6623 24.9449,171.4942 C19.0155,163.1601 22.8099,157.4408 31.6212,155.1153 " fill="#F1F1F1" style="stroke:#181818;stroke-width:0.5;"/><text fill="#000000" font-family="sans-serif" font-size="14" lengthAdjust="spacing" textLength="34" x="38" y="176.5439">cloud</text></g><!--MD5=[5f175ec018c225c86e8e77149e6345d4]
entity component--><g id="elem_component"><rect fill="#F1F1F1" height="49.1201" rx="2.5" ry="2.5" style="stroke:#181818;stroke-width:0.5;" width="110" x="122" y="145.5"/><rect fill="#F1F1F1" height="10" style="stroke:#181818;stroke-width:0.5;" width="15" x="212" y="150.5"/><rect fill="#F1F1F1" height="2" style="stroke:#181818;stroke-width:0.5;" width="4" x="210" y="152.5"/><rect fill="#F1F1F1" height="2" style="stroke:#181818;stroke-width:0.5;" width="4" x="210" y="156.5"/><text fill="#000000" font-family="sans-serif" font-size="14" lengthAdjust="spacing" textLength="70" x="137" y="181.5439">component</text></g><!--MD5=[0b4603c22bc0d9214baf3db11effa15f]
entity control--><g id="elem_control"><ellipse cx="289" cy="160.5" fill="#F1F1F1" rx="12" ry="12" style="stroke:#181818;stroke-width:0.5;"/><polygon fill="#181818" points="285,148.5,291,143.5,289,148.5,291,153.5,285,148.5" style="stroke:#181818;stroke-width:1.0;"/><text fill="#000000" font-family="sans-serif" font-size="14" lengthAdjust="spacing" textLength="43" x="267.5" y="192.5439">control</text></g><!--MD5=[f50ff5e4cd64f259303fc83dba1819fc]
entity database--><g id="elem_database"><path d="M345.5,156 C345.5,146 385,146 385,146 C385,146 424.5,146 424.5,156 L424.5,184.1201 C424.5,194.1201 385,194.1201 385,194.1201 C385,194.1201 345.5,194.1201 345.5,184.1201 L345.5,156 " fill="#F1F1F1" style="stroke:#181818;stroke-width:0.5;"/><path d="M345.5,156 C345.5,166 385,166 385,166 C385,166 424.5,166 424.5,156 " fill="none" style="stroke:#181818;stroke-width:0.5;"/><text fill="#000000" font-family="sans-serif" font-size="14" lengthAdjust="spacing" textLength="59" x="355.5" y="186.0439">database</text></g><!--MD5=[fbcd1a1664252f7f7ddf883fed3c1e0a]
entity entity--><g id="elem_entity"><ellipse cx="477" cy="160.5" fill="#F1F1F1" rx="12" ry="12" style="stroke:#181818;stroke-width:0.5;"/><line style="stroke:#181818;stroke-width:0.5;" x1="465" x2="489" y1="174.5" y2="174.5"/><text fill="#000000" font-family="sans-serif" font-size="14" lengthAdjust="spacing" textLength="34" x="460" y="192.5439">entity</text></g><!--MD5=[7edcefaa406c65155265f04249a95b70]
entity file--><g id="elem_file"><path d="M36,270.5 L36,304.6201 A2.5,2.5 0 0 0 38.5,307.1201 L71.5,307.1201 A2.5,2.5 0 0 0 74,304.6201 L74,278 L64,268 L38.5,268 A2.5,2.5 0 0 0 36,270.5 " fill="#F1F1F1" style="stroke:#181818;stroke-width:0.5;"/><path d="M64,268 L64,275.5 A2.5,2.5 0 0 0 66.5,278 L74,278 " fill="#F1F1F1" style="stroke:#181818;stroke-width:0.5;"/><text fill="#000000" font-family="sans-serif" font-size="14" lengthAdjust="spacing" textLength="18" x="46" y="294.0439">file</text></g><!--MD5=[18b72bf5d1838316b3d85261d2b42cce]
entity folder--><g id="elem_folder"><path d="M111.5,259 L152.5,259 A3.75,3.75 0 0 1 155,261.5 L162,280 L176.5,280 A2.5,2.5 0 0 1 179,282.5 L179,313.6201 A2.5,2.5 0 0 1 176.5,316.1201 L111.5,316.1201 A2.5,2.5 0 0 1 109,313.6201 L109,261.5 A2.5,2.5 0 0 1 111.5,259 " fill="#F1F1F1" style="stroke:#181818;stroke-width:0.5;"/><line style="stroke:#181818;stroke-width:0.5;" x1="109" x2="162" y1="280" y2="280"/><text fill="#000000" font-family="sans-serif" font-size="14" lengthAdjust="spacing" textLength="36" x="119" y="303.0439">folder</text></g><!--MD5=[7a641773cfca2682e51daa01eb969ffa]
entity frame--><g id="elem_frame"><rect fill="#F1F1F1" height="49.1201" rx="2.5" ry="2.5" style="stroke:#181818;stroke-width:0.5;" width="76" x="214" y="263"/><path d="M239.3333,263 L239.3333,268 L232.3333,275 L214,275 " fill="none" style="stroke:#181818;stroke-width:0.5;"/><text fill="#000000" font-family="sans-serif" font-size="14" lengthAdjust="spacing" textLength="36" x="229" y="299.0439">frame</text></g><!--MD5=[ea4128e1b5db6200a10193b8015cde63]
entity interface--><g id="elem_interface"><ellipse cx="360" cy="287.5" fill="#F1F1F1" rx="8" ry="8" style="stroke:#181818;stroke-width:0.5;"/><text fill="#000000" font-family="sans-serif" font-size="14" lengthAdjust="spacing" textLength="55" x="332.5" y="320.5439">interface</text></g><!--MD5=[0b70d51bdd028022f5101c089cfdd98e]
entity node--><g id="elem_node"><polygon fill="#F1F1F1" points="430,273,440,263,502,263,502,302.1201,492,312.1201,430,312.1201,430,273" style="stroke:#181818;stroke-width:0.5;"/><line style="stroke:#181818;stroke-width:0.5;" x1="492" x2="502" y1="273" y2="263"/><line style="stroke:#181818;stroke-width:0.5;" x1="430" x2="492" y1="273" y2="273"/><line style="stroke:#181818;stroke-width:0.5;" x1="492" x2="492" y1="273" y2="312.1201"/><text fill="#000000" font-family="sans-serif" font-size="14" lengthAdjust="spacing" textLength="32" x="445" y="299.0439">node</text></g><!--MD5=[18b4c220f17afa2fa1b7909f1259f27e]
entity package--><g id="elem_package"><path d="M9.5,379.5 L76.5,379.5 A3.75,3.75 0 0 1 79,382 L86,404.6201 L100.5,404.6201 A2.5,2.5 0 0 1 103,407.1201 L103,419.1201 A2.5,2.5 0 0 1 100.5,421.6201 L9.5,421.6201 A2.5,2.5 0 0 1 7,419.1201 L7,382 A2.5,2.5 0 0 1 9.5,379.5 " fill="#F1F1F1" style="stroke:#181818;stroke-width:0.5;"/><line style="stroke:#181818;stroke-width:0.5;" x1="7" x2="86" y1="404.6201" y2="404.6201"/><text fill="#000000" font-family="sans-serif" font-size="14" lengthAdjust="spacing" textLength="54" x="17" y="398.5439">package</text></g><!--MD5=[799e9543975076390d2a6ceafec8df6c]
entity queue--><g id="elem_queue"><path d="M143,386 L193,386 C198,386 198,400.5601 198,400.5601 C198,400.5601 198,415.1201 193,415.1201 L143,415.1201 C138,415.1201 138,400.5601 138,400.5601 C138,400.5601 138,386 143,386 " fill="#F1F1F1" style="stroke:#181818;stroke-width:0.5;"/><path d="M193,386 C188,386 188,400.5601 188,400.5601 C188,415.1201 193,415.1201 193,415.1201 " fill="none" style="stroke:#181818;stroke-width:0.5;"/><text fill="#000000" font-family="sans-serif" font-size="14" lengthAdjust="spacing" textLength="40" x="143" y="407.0439">queue</text></g><!--MD5=[f71e1929eceb486be132a5333dc4c68d]
entity stack--><g id="elem_stack"><rect fill="#F1F1F1" height="39.1201" rx="2.5" ry="2.5" style="stroke:none;stroke-width:0.5;" width="53" x="248.5" y="381"/><path d="M233.5,381 L246,381 A2.5,2.5 0 0 1 248.5,383.5 L248.5,417.6201 A2.5,2.5 0 0 0 251,420.1201 L299,420.1201 A2.5,2.5 0 0 0 301.5,417.6201 L301.5,383.5 A2.5,2.5 0 0 1 304,381 L316.5,381 " fill="none" style="stroke:#181818;stroke-width:0.5;"/><text fill="#000000" font-family="sans-serif" font-size="14" lengthAdjust="spacing" textLength="33" x="258.5" y="407.0439">stack</text></g><!--MD5=[7267aa9592867b0c03d3cbda6e92e719]
entity rectangle--><g id="elem_rectangle"><rect fill="#F1F1F1" height="39.1201" rx="2.5" ry="2.5" style="stroke:#181818;stroke-width:0.5;" width="79" x="351.5" y="381"/><text fill="#000000" font-family="sans-serif" font-size="14" lengthAdjust="spacing" textLength="59" x="361.5" y="407.0439">rectangle</text></g><!--MD5=[a5a6ae0ba01c8a4589ab26bd33e87aad]
entity storage--><g id="elem_storage"><rect fill="#F1F1F1" height="39.1201" rx="35" ry="35" style="stroke:#181818;stroke-width:0.5;" width="68" x="466" y="381"/><text fill="#000000" font-family="sans-serif" font-size="14" lengthAdjust="spacing" textLength="48" x="476" y="407.0439">storage</text></g><g id="elem_usecase"><ellipse cx="54.9842" cy="498.0265" fill="#F1F1F1" rx="48.9842" ry="16.5265" style="stroke:#181818;stroke-width:0.5;"/><text fill="#000000" font-family="sans-serif" font-size="14" lengthAdjust="spacing" textLength="53" x="27.4718" y="502.8082">usecase</text></g><!--MD5=[859641e05dc1e5769f4e6cdcdaf63e72]
@startuml
actor actor
agent agent
artifact artifact
boundary boundary
card card
cloud cloud
component component
control control
database database
entity entity
file file
folder folder
frame frame
interface  interface
node node
package package
queue queue
stack stack
rectangle rectangle
storage storage
usecase usecase
@enduml

PlantUML version 1.2022.4(Sat Apr 09 21:29:17 CST 2022)
(GPL source distribution)
Java Runtime: Java(TM) SE Runtime Environment
JVM: Java HotSpot(TM) 64-Bit Server VM
Default Encoding: GBK
Language: zh
Country: CN
--></g></svg>