<?xml version="1.0" encoding="UTF-8" standalone="no"?><svg xmlns="http://www.w3.org/2000/svg" xmlns:xlink="http://www.w3.org/1999/xlink" contentStyleType="text/css" height="350px" preserveAspectRatio="none" style="width:416px;height:350px;background:#FFFFFF;" version="1.1" viewBox="0 0 416 350" width="416px" zoomAndPan="magnify"><defs/><g><!--MD5=[18b72bf5d1838316b3d85261d2b42cce]
entity folder--><g id="elem_folder"><path d="M8.5,6 L49.5,6 A3.75,3.75 0 0 1 52,8.5 L59,27 L177.5,27 A2.5,2.5 0 0 1 180,29.5 L180,141.9805 A2.5,2.5 0 0 1 177.5,144.4805 L8.5,144.4805 A2.5,2.5 0 0 1 6,141.9805 L6,8.5 A2.5,2.5 0 0 1 8.5,6 " fill="#F1F1F1" style="stroke:#181818;stroke-width:0.5;"/><line style="stroke:#181818;stroke-width:0.5;" x1="6" x2="59" y1="27" y2="27"/><text fill="#000000" font-family="sans-serif" font-size="14" lengthAdjust="spacing" textLength="61" x="16" y="50.0439">This is an</text><text fill="#000000" font-family="sans-serif" font-size="14" font-weight="bold" lengthAdjust="spacing" textLength="42" x="81" y="50.0439">folder</text><line style="stroke:#181818;stroke-width:1.0;" x1="7" x2="179" y1="53.1201" y2="53.1201"/><text fill="#000000" font-family="sans-serif" font-size="14" lengthAdjust="spacing" textLength="144" x="16" y="73.1641">You can use separator</text><line style="stroke:#181818;stroke-width:1.0;" x1="7" x2="179" y1="80.2402" y2="80.2402"/><line style="stroke:#181818;stroke-width:1.0;" x1="7" x2="179" y1="82.2402" y2="82.2402"/><text fill="#000000" font-family="sans-serif" font-size="14" lengthAdjust="spacing" textLength="98" x="16" y="100.2842">of different kind</text><line style="stroke:#181818;stroke-width:1.0;stroke-dasharray:1.0,2.0;" x1="7" x2="179" y1="107.3604" y2="107.3604"/><text fill="#000000" font-family="sans-serif" font-size="14" lengthAdjust="spacing" textLength="57" x="16" y="127.4043">and style</text></g><!--MD5=[0b70d51bdd028022f5101c089cfdd98e]
entity node--><g id="elem_node"><polygon fill="#F1F1F1" points="215,20,225,10,399,10,399,130.4805,389,140.4805,215,140.4805,215,20" style="stroke:#181818;stroke-width:0.5;"/><line style="stroke:#181818;stroke-width:0.5;" x1="389" x2="399" y1="20" y2="10"/><line style="stroke:#181818;stroke-width:0.5;" x1="215" x2="389" y1="20" y2="20"/><line style="stroke:#181818;stroke-width:0.5;" x1="389" x2="389" y1="20" y2="140.4805"/><text fill="#000000" font-family="sans-serif" font-size="14" lengthAdjust="spacing" textLength="53" x="230" y="46.0439">This is a</text><text fill="#000000" font-family="sans-serif" font-size="14" font-weight="bold" lengthAdjust="spacing" textLength="36" x="287" y="46.0439">node</text><line style="stroke:#181818;stroke-width:1.0;" x1="215" x2="389" y1="49.1201" y2="49.1201"/><line style="stroke:#181818;stroke-width:1.0;" x1="389" x2="399" y1="49.1201" y2="39.1201"/><text fill="#000000" font-family="sans-serif" font-size="14" lengthAdjust="spacing" textLength="144" x="230" y="69.1641">You can use separator</text><line style="stroke:#181818;stroke-width:1.0;" x1="215" x2="389" y1="76.2402" y2="76.2402"/><line style="stroke:#181818;stroke-width:1.0;" x1="389" x2="399" y1="76.2402" y2="66.2402"/><line style="stroke:#181818;stroke-width:1.0;" x1="215" x2="389" y1="78.2402" y2="78.2402"/><line style="stroke:#181818;stroke-width:1.0;" x1="389" x2="399" y1="78.2402" y2="68.2402"/><text fill="#000000" font-family="sans-serif" font-size="14" lengthAdjust="spacing" textLength="98" x="230" y="96.2842">of different kind</text><line style="stroke:#181818;stroke-width:1.0;stroke-dasharray:1.0,2.0;" x1="215" x2="389" y1="103.3604" y2="103.3604"/><line style="stroke:#181818;stroke-width:1.0;stroke-dasharray:1.0,2.0;" x1="389" x2="399" y1="103.3604" y2="93.3604"/><text fill="#000000" font-family="sans-serif" font-size="14" lengthAdjust="spacing" textLength="57" x="230" y="123.4043">and style</text></g><!--MD5=[f50ff5e4cd64f259303fc83dba1819fc]
entity database--><g id="elem_database"><path d="M11,214 C11,204 93,204 93,204 C93,204 175,204 175,214 L175,323.4805 C175,333.4805 93,333.4805 93,333.4805 C93,333.4805 11,333.4805 11,323.4805 L11,214 " fill="#F1F1F1" style="stroke:#181818;stroke-width:0.5;"/><path d="M11,214 C11,224 93,224 93,224 C93,224 175,224 175,214 " fill="none" style="stroke:#181818;stroke-width:0.5;"/><text fill="#000000" font-family="sans-serif" font-size="14" lengthAdjust="spacing" textLength="53" x="21" y="244.0439">This is a</text><text fill="#000000" font-family="sans-serif" font-size="14" font-weight="bold" lengthAdjust="spacing" textLength="64" x="78" y="244.0439">database</text><path d="M11,242.1201 C11,252.1201 93,252.1201 93,252.1201 C93,252.1201 175,252.1201 175,242.1201 " fill="none" style="stroke:#181818;stroke-width:1.0;"/><text fill="#000000" font-family="sans-serif" font-size="14" lengthAdjust="spacing" textLength="144" x="21" y="267.1641">You can use separator</text><path d="M11,269.2402 C11,279.2402 93,279.2402 93,279.2402 C93,279.2402 175,279.2402 175,269.2402 " fill="none" style="stroke:#181818;stroke-width:1.0;"/><path d="M11,271.2402 C11,281.2402 93,281.2402 93,281.2402 C93,281.2402 175,281.2402 175,271.2402 " fill="none" style="stroke:#181818;stroke-width:1.0;"/><text fill="#000000" font-family="sans-serif" font-size="14" lengthAdjust="spacing" textLength="98" x="21" y="294.2842">of different kind</text><path d="M11,296.3604 C11,306.3604 93,306.3604 93,306.3604 C93,306.3604 175,306.3604 175,296.3604 " fill="none" style="stroke:#181818;stroke-width:1.0;stroke-dasharray:1.0,2.0;"/><text fill="#000000" font-family="sans-serif" font-size="14" lengthAdjust="spacing" textLength="57" x="21" y="321.4043">and style</text></g><g id="elem_usecase"><ellipse cx="307.0534" cy="268.2583" fill="#F1F1F1" rx="96.5534" ry="63.2583" style="stroke:#181818;stroke-width:0.5;"/><text fill="#000000" font-family="sans-serif" font-size="14" lengthAdjust="spacing" textLength="53" x="250.6312" y="237.4191">This is a</text><text fill="#000000" font-family="sans-serif" font-size="14" font-weight="bold" lengthAdjust="spacing" textLength="59" x="307.6312" y="237.4191">usecase</text><line style="stroke:#181818;stroke-width:1.0;" x1="221.2959" x2="392.8109" y1="240.4952" y2="240.4952"/><text fill="#000000" font-family="sans-serif" font-size="14" lengthAdjust="spacing" textLength="144" x="236.6312" y="260.5392">You can use separator</text><line style="stroke:#181818;stroke-width:1.0;" x1="211.505" x2="402.6019" y1="267.6154" y2="267.6154"/><line style="stroke:#181818;stroke-width:1.0;" x1="211.5222" x2="402.5846" y1="269.6154" y2="269.6154"/><text fill="#000000" font-family="sans-serif" font-size="14" lengthAdjust="spacing" textLength="98" x="259.6312" y="287.6593">of different kind</text><line style="stroke:#181818;stroke-width:1.0;stroke-dasharray:1.0,2.0;" x1="220.3645" x2="393.7423" y1="294.7355" y2="294.7355"/><text fill="#000000" font-family="sans-serif" font-size="14" lengthAdjust="spacing" textLength="57" x="280.1312" y="314.7794">and style</text></g><!--MD5=[c90050a94b082ed70ad79b0afd8b9f73]
@startuml
folder folder [
This is an <b>folder
- - - -
You can use separator
====
of different kind
....
and style
]

node node [
This is a <b>node
- - - -
You can use separator
====
of different kind
....
and style
]

database database [
This is a <b>database
- - - -
You can use separator
====
of different kind
....
and style
]

usecase usecase [
This is a <b>usecase
- - - -
You can use separator
====
of different kind
....
and style
]

@enduml

PlantUML version 1.2022.4(Sat Apr 09 21:29:17 CST 2022)
(GPL source distribution)
Java Runtime: Java(TM) SE Runtime Environment
JVM: Java HotSpot(TM) 64-Bit Server VM
Default Encoding: GBK
Language: zh
Country: CN
--></g></svg>