<?xml version="1.0" encoding="UTF-8" standalone="no"?><svg xmlns="http://www.w3.org/2000/svg" xmlns:xlink="http://www.w3.org/1999/xlink" contentStyleType="text/css" height="157px" preserveAspectRatio="none" style="width:1036px;height:157px;background:#FFFFFF;" version="1.1" viewBox="0 0 1036 157" width="1036px" zoomAndPan="magnify"><defs/><g><!--MD5=[c2a5a2d99661c1a411d201b3b79714b0]
entity artifact1--><g id="elem_artifact1"><rect fill="#F1F1F1" height="42.1201" rx="2.5" ry="2.5" style="stroke:#181818;stroke-width:0.5;" width="81" x="471" y="7"/><polygon fill="#F1F1F1" points="535,12,535,26,547,26,547,18,541,12,535,12" style="stroke:#181818;stroke-width:0.5;"/><line style="stroke:#181818;stroke-width:0.5;" x1="541" x2="541" y1="12" y2="18"/><line style="stroke:#181818;stroke-width:0.5;" x1="547" x2="541" y1="18" y2="18"/><text fill="#000000" font-family="sans-serif" font-size="14" lengthAdjust="spacing" textLength="51" x="481" y="36.0439">artifact1</text></g><!--MD5=[554994b01a04ab2161ccdf8db91e9ba7]
entity artifact2--><g id="elem_artifact2"><rect fill="#F1F1F1" height="42.1201" rx="2.5" ry="2.5" style="stroke:#181818;stroke-width:0.5;" width="81" x="7" y="109"/><polygon fill="#F1F1F1" points="71,114,71,128,83,128,83,120,77,114,71,114" style="stroke:#181818;stroke-width:0.5;"/><line style="stroke:#181818;stroke-width:0.5;" x1="77" x2="77" y1="114" y2="120"/><line style="stroke:#181818;stroke-width:0.5;" x1="83" x2="77" y1="120" y2="120"/><text fill="#000000" font-family="sans-serif" font-size="14" lengthAdjust="spacing" textLength="51" x="17" y="138.0439">artifact2</text></g><!--MD5=[63cd83a5aada29db658c4d51335fff28]
entity artifact3--><g id="elem_artifact3"><rect fill="#F1F1F1" height="42.1201" rx="2.5" ry="2.5" style="stroke:#181818;stroke-width:0.5;" width="81" x="123" y="109"/><polygon fill="#F1F1F1" points="187,114,187,128,199,128,199,120,193,114,187,114" style="stroke:#181818;stroke-width:0.5;"/><line style="stroke:#181818;stroke-width:0.5;" x1="193" x2="193" y1="114" y2="120"/><line style="stroke:#181818;stroke-width:0.5;" x1="199" x2="193" y1="120" y2="120"/><text fill="#000000" font-family="sans-serif" font-size="14" lengthAdjust="spacing" textLength="51" x="133" y="138.0439">artifact3</text></g><!--MD5=[be272773957e3079c4cf97623e0f7087]
entity artifact4--><g id="elem_artifact4"><rect fill="#F1F1F1" height="42.1201" rx="2.5" ry="2.5" style="stroke:#181818;stroke-width:0.5;" width="81" x="239" y="109"/><polygon fill="#F1F1F1" points="303,114,303,128,315,128,315,120,309,114,303,114" style="stroke:#181818;stroke-width:0.5;"/><line style="stroke:#181818;stroke-width:0.5;" x1="309" x2="309" y1="114" y2="120"/><line style="stroke:#181818;stroke-width:0.5;" x1="315" x2="309" y1="120" y2="120"/><text fill="#000000" font-family="sans-serif" font-size="14" lengthAdjust="spacing" textLength="51" x="249" y="138.0439">artifact4</text></g><!--MD5=[954b1be51aa38e9d0938bf80026a7a3e]
entity artifact5--><g id="elem_artifact5"><rect fill="#F1F1F1" height="42.1201" rx="2.5" ry="2.5" style="stroke:#181818;stroke-width:0.5;" width="81" x="355" y="109"/><polygon fill="#F1F1F1" points="419,114,419,128,431,128,431,120,425,114,419,114" style="stroke:#181818;stroke-width:0.5;"/><line style="stroke:#181818;stroke-width:0.5;" x1="425" x2="425" y1="114" y2="120"/><line style="stroke:#181818;stroke-width:0.5;" x1="431" x2="425" y1="120" y2="120"/><text fill="#000000" font-family="sans-serif" font-size="14" lengthAdjust="spacing" textLength="51" x="365" y="138.0439">artifact5</text></g><!--MD5=[c1e18505add3130b88159b6aa829ac95]
entity artifact6--><g id="elem_artifact6"><rect fill="#F1F1F1" height="42.1201" rx="2.5" ry="2.5" style="stroke:#181818;stroke-width:0.5;" width="81" x="471" y="109"/><polygon fill="#F1F1F1" points="535,114,535,128,547,128,547,120,541,114,535,114" style="stroke:#181818;stroke-width:0.5;"/><line style="stroke:#181818;stroke-width:0.5;" x1="541" x2="541" y1="114" y2="120"/><line style="stroke:#181818;stroke-width:0.5;" x1="547" x2="541" y1="120" y2="120"/><text fill="#000000" font-family="sans-serif" font-size="14" lengthAdjust="spacing" textLength="51" x="481" y="138.0439">artifact6</text></g><!--MD5=[261d57a69a4aaff05e3e49bc458ebb7e]
entity artifact7--><g id="elem_artifact7"><rect fill="#F1F1F1" height="42.1201" rx="2.5" ry="2.5" style="stroke:#181818;stroke-width:0.5;" width="81" x="587" y="109"/><polygon fill="#F1F1F1" points="651,114,651,128,663,128,663,120,657,114,651,114" style="stroke:#181818;stroke-width:0.5;"/><line style="stroke:#181818;stroke-width:0.5;" x1="657" x2="657" y1="114" y2="120"/><line style="stroke:#181818;stroke-width:0.5;" x1="663" x2="657" y1="120" y2="120"/><text fill="#000000" font-family="sans-serif" font-size="14" lengthAdjust="spacing" textLength="51" x="597" y="138.0439">artifact7</text></g><!--MD5=[3efca6bbe887712280366c84da8d319c]
entity artifact8--><g id="elem_artifact8"><rect fill="#F1F1F1" height="42.1201" rx="2.5" ry="2.5" style="stroke:#181818;stroke-width:0.5;" width="81" x="703" y="109"/><polygon fill="#F1F1F1" points="767,114,767,128,779,128,779,120,773,114,767,114" style="stroke:#181818;stroke-width:0.5;"/><line style="stroke:#181818;stroke-width:0.5;" x1="773" x2="773" y1="114" y2="120"/><line style="stroke:#181818;stroke-width:0.5;" x1="779" x2="773" y1="120" y2="120"/><text fill="#000000" font-family="sans-serif" font-size="14" lengthAdjust="spacing" textLength="51" x="713" y="138.0439">artifact8</text></g><!--MD5=[b9bee2375658b9884ec20046a9f3f03d]
entity artifact9--><g id="elem_artifact9"><rect fill="#F1F1F1" height="42.1201" rx="2.5" ry="2.5" style="stroke:#181818;stroke-width:0.5;" width="81" x="819" y="109"/><polygon fill="#F1F1F1" points="883,114,883,128,895,128,895,120,889,114,883,114" style="stroke:#181818;stroke-width:0.5;"/><line style="stroke:#181818;stroke-width:0.5;" x1="889" x2="889" y1="114" y2="120"/><line style="stroke:#181818;stroke-width:0.5;" x1="895" x2="889" y1="120" y2="120"/><text fill="#000000" font-family="sans-serif" font-size="14" lengthAdjust="spacing" textLength="51" x="829" y="138.0439">artifact9</text></g><!--MD5=[1280e1a2cc92013c53b60774a20ef06e]
entity artifact10--><g id="elem_artifact10"><rect fill="#F1F1F1" height="42.1201" rx="2.5" ry="2.5" style="stroke:#181818;stroke-width:0.5;" width="89" x="935" y="109"/><polygon fill="#F1F1F1" points="1007,114,1007,128,1019,128,1019,120,1013,114,1007,114" style="stroke:#181818;stroke-width:0.5;"/><line style="stroke:#181818;stroke-width:0.5;" x1="1013" x2="1013" y1="114" y2="120"/><line style="stroke:#181818;stroke-width:0.5;" x1="1019" x2="1013" y1="120" y2="120"/><text fill="#000000" font-family="sans-serif" font-size="14" lengthAdjust="spacing" textLength="59" x="945" y="138.0439">artifact10</text></g><!--MD5=[c8585ea62ac0770cc0fae57670adcb8a]
link artifact1 to artifact2--><g id="link_artifact1_artifact2"><path d="M470.737,35.126 C397.098,46.614 237.294,73.473 105.5,109 C101.4345,110.0959 97.2416,111.3303 93.0575,112.6342 " fill="none" id="artifact1-to-artifact2" style="stroke:#181818;stroke-width:1.0;"/><polygon fill="#181818" points="88.158,114.1927,97.9471,115.2762,92.9227,112.677,95.5219,107.6526,88.158,114.1927" style="stroke:#181818;stroke-width:1.0;"/></g><!--MD5=[0e5a0a32d36a55bb6dc1ea4724ace327]
link artifact1 to artifact3--><g id="link_artifact1_artifact3"><path d="M470.92,39.333 C414.629,53.8623 309.798,81.627 221.5,109 C219.926,109.4879 218.331,109.9898 216.722,110.5023 " fill="none" id="artifact1-to-artifact3" style="stroke:#181818;stroke-width:1.0;"/><polygon fill="#181818" points="204.27,114.5809,211.2171,116.5142,215.6737,110.8451,208.7266,108.9118,204.27,114.5809" style="stroke:#181818;stroke-width:1.0;"/></g><!--MD5=[d47d378d43b3125db7825cca14ec6b01]
link artifact1 to artifact4--><g id="link_artifact1_artifact4"><path d="M470.823,46.533 C432.264,63.1533 374.143,88.2056 332.082,106.3353 " fill="none" id="artifact1-to-artifact4" style="stroke:#181818;stroke-width:1.0;"/><polygon fill="none" points="320.13,111.487,327.2233,112.7854,331.1499,106.7371,324.0567,105.4388,320.13,111.487" style="stroke:#181818;stroke-width:1.0;"/></g><!--MD5=[80f322e397427abd0754426f5c73b8c3]
link artifact1 to artifact5--><g id="link_artifact1_artifact5"><path d="M488.026,49.236 C471.516,63.4685 449.14,82.759 430.527,98.8041 " fill="none" id="artifact1-to-artifact5" style="stroke:#181818;stroke-width:1.0;"/><ellipse cx="424.9982" cy="103.57" fill="#FFFFFF" rx="8" ry="8" style="stroke:#181818;stroke-width:1.0;"/><line style="stroke:#181818;stroke-width:1.0;" x1="431.0575" x2="418.939" y1="98.3464" y2="108.7936"/><line style="stroke:#181818;stroke-width:1.0;" x1="430.2218" x2="419.7747" y1="109.6293" y2="97.5108"/></g><!--MD5=[e8c32c1ff0aa0934f6dffe25fa402872]
link artifact1 to artifact6--><g id="link_artifact1_artifact6"><path d="M511.5,49.236 C511.5,64.9595 511.5,86.8563 511.5,103.7304 " fill="none" id="artifact1-to-artifact6" style="stroke:#181818;stroke-width:1.0;"/><rect fill="#FFFFFF" height="10" style="stroke:#181818;stroke-width:1.5;" width="10" x="506.5" y="103.7936"/></g><!--MD5=[14efcc2bedf66f4a57eb371af200bda1]
link artifact1 to artifact7--><g id="link_artifact1_artifact7"><path d="M534.974,49.236 C553.134,64.8918 578.394,86.6677 597.934,103.512 " fill="none" id="artifact1-to-artifact7" style="stroke:#181818;stroke-width:1.0;"/><polygon fill="#181818" points="604.061,108.7936,599.9611,101.2976,596.0431,105.8417,604.061,108.7936" style="stroke:#181818;stroke-width:1.0;"/></g><!--MD5=[8bbcd75b4bac5ba930251458b5abef45]
link artifact1 to artifact8--><g id="link_artifact1_artifact8"><path d="M552.177,46.533 C592.97,64.1163 655.658,91.137 698.06,109.4139 " fill="none" id="artifact1-to-artifact8" style="stroke:#181818;stroke-width:1.0;"/><ellipse cx="697.3598" cy="109.1126" fill="#FFFFFF" rx="6" ry="6" style="stroke:#181818;stroke-width:1.5;"/></g><!--MD5=[65ab73e80efe59aab73e7e5436fd61f7]
link artifact1 to artifact9--><g id="link_artifact1_artifact9"><path d="M552.08,39.333 C604.963,52.9826 700.686,78.3134 799.58,108.654 " fill="none" id="artifact1-to-artifact9" style="stroke:#181818;stroke-width:1.0;"/><polygon fill="none" points="801.693,101.9805,818.73,114.5809,797.554,115.3545,801.693,101.9805" style="stroke:#181818;stroke-width:1.0;"/></g><!--MD5=[bdff303639408370883831b5afe7529d]
link artifact1 to artifact10--><g id="link_artifact1_artifact10"><path d="M552.193,35.39 C625.722,47.295 785.357,74.7938 917.5,109 C921.592,110.0593 925.811,111.2356 930.032,112.4721 " fill="none" id="artifact1-to-artifact10" style="stroke:#181818;stroke-width:1.0;"/><ellipse cx="934.982" cy="113.948" fill="#FFFFFF" rx="6" ry="6" style="stroke:#181818;stroke-width:1.5;"/><path d="M930.2261,105.1513 A10,10 0 0 0 926.1853 118.7039" fill="#FFFFFF" style="stroke:#181818;stroke-width:1.5;"/></g><!--MD5=[82982bae10567b6383673f49b9f03243]
@startuml

artifact artifact1
artifact artifact2
artifact artifact3
artifact artifact4
artifact artifact5
artifact artifact6
artifact artifact7
artifact artifact8
artifact artifact9
artifact artifact10
artifact1 - -> artifact2
artifact1 - -* artifact3
artifact1 - -o artifact4
artifact1 - -+ artifact5
artifact1 - -# artifact6
artifact1 - ->> artifact7
artifact1 - -0 artifact8
artifact1 - -^ artifact9
artifact1 - -(0 artifact10

@enduml

PlantUML version 1.2022.4(Sat Apr 09 21:29:17 CST 2022)
(GPL source distribution)
Java Runtime: Java(TM) SE Runtime Environment
JVM: Java HotSpot(TM) 64-Bit Server VM
Default Encoding: GBK
Language: zh
Country: CN
--></g></svg>