<?xml version="1.0" encoding="UTF-8" standalone="no"?><svg xmlns="http://www.w3.org/2000/svg" xmlns:xlink="http://www.w3.org/1999/xlink" contentStyleType="text/css" height="177px" preserveAspectRatio="none" style="width:420px;height:177px;background:#FFFFFF;" version="1.1" viewBox="0 0 420 177" width="420px" zoomAndPan="magnify"><defs/><g><!--MD5=[7f73c9e3a1d77c3ce61f4b3d5cbbbde7]
entity cloud1--><g id="elem_cloud1"><path d="M181.0293,14.458 C184.3112,8.3604 191.0304,7.323 195.3563,13.2101 C199.513,6.5664 205.3344,7.8082 209.0773,13.6643 C213.147,6.7745 218.1317,6.3618 222.6984,13.1701 C226.7367,6 234.0603,6.8403 237.7324,13.5663 C248.1645,15.326 251.9291,22.1572 246.3516,31.578 C252.4977,41.0934 247.6905,46.1667 238.0786,47.4882 C236.1864,55.8706 229.9309,56.741 224.3501,51.0989 C222.3442,59.5637 216.0929,61.8581 209.8533,55.1417 C203.8059,60.7101 196.912,59.2592 195.0069,50.7677 C189.1185,55.1443 185.09,53.8902 182.1592,47.3022 C172.5519,47.1378 167.9286,40.9306 173.1344,32.019 C166,22.8867 169.7939,15.3318 181.0293,14.458 " fill="#F1F1F1" style="stroke:#181818;stroke-width:0.5;"/><text fill="#000000" font-family="sans-serif" font-size="14" lengthAdjust="spacing" textLength="42" x="187.426" y="36.326">cloud1</text></g><!--MD5=[7b63f6ce666fbbd6f228c0f039ab65ce]
entity cloud2--><g id="elem_cloud2"><path d="M21.0293,123.458 C24.3112,117.3604 31.0304,116.323 35.3563,122.2101 C39.513,115.5664 45.3344,116.8082 49.0773,122.6643 C53.147,115.7745 58.1317,115.3618 62.6984,122.1701 C66.7367,115 74.0603,115.8403 77.7324,122.5663 C88.1645,124.326 91.9291,131.1572 86.3516,140.578 C92.4977,150.0934 87.6905,155.1667 78.0786,156.4882 C76.1864,164.8706 69.9309,165.741 64.3501,160.0989 C62.3442,168.5637 56.0929,170.8581 49.8533,164.1417 C43.8059,169.7101 36.912,168.2592 35.0069,159.7677 C29.1185,164.1443 25.09,162.8902 22.1592,156.3022 C12.5519,156.1378 7.9286,149.9306 13.1344,141.019 C6,131.8867 9.7939,124.3318 21.0293,123.458 " fill="#F1F1F1" style="stroke:#181818;stroke-width:0.5;"/><text fill="#000000" font-family="sans-serif" font-size="14" lengthAdjust="spacing" textLength="42" x="27.426" y="145.326">cloud2</text></g><!--MD5=[abd31998ab0383efe65414af7c3249f4]
entity cloud3--><g id="elem_cloud3"><path d="M128.0293,123.458 C131.3112,117.3604 138.0304,116.323 142.3563,122.2101 C146.513,115.5664 152.3344,116.8082 156.0773,122.6643 C160.147,115.7745 165.1317,115.3618 169.6984,122.1701 C173.7367,115 181.0603,115.8403 184.7324,122.5663 C195.1645,124.326 198.9291,131.1572 193.3516,140.578 C199.4977,150.0934 194.6905,155.1667 185.0786,156.4882 C183.1864,164.8706 176.9309,165.741 171.3501,160.0989 C169.3442,168.5637 163.0929,170.8581 156.8533,164.1417 C150.8059,169.7101 143.912,168.2592 142.0069,159.7677 C136.1185,164.1443 132.09,162.8902 129.1592,156.3022 C119.5519,156.1378 114.9286,149.9306 120.1344,141.019 C113,131.8867 116.7939,124.3318 128.0293,123.458 " fill="#F1F1F1" style="stroke:#181818;stroke-width:0.5;"/><text fill="#000000" font-family="sans-serif" font-size="14" lengthAdjust="spacing" textLength="42" x="134.426" y="145.326">cloud3</text></g><!--MD5=[74165b374a07fbf05019bf3a0106f3e0]
entity cloud4--><g id="elem_cloud4"><path d="M235.0293,123.458 C238.3112,117.3604 245.0304,116.323 249.3563,122.2101 C253.513,115.5664 259.3344,116.8082 263.0773,122.6643 C267.147,115.7745 272.1317,115.3618 276.6984,122.1701 C280.7367,115 288.0603,115.8403 291.7324,122.5663 C302.1645,124.326 305.9291,131.1572 300.3516,140.578 C306.4977,150.0934 301.6905,155.1667 292.0786,156.4882 C290.1864,164.8706 283.9309,165.741 278.3501,160.0989 C276.3442,168.5637 270.0929,170.8581 263.8533,164.1417 C257.8059,169.7101 250.912,168.2592 249.0069,159.7677 C243.1185,164.1443 239.09,162.8902 236.1592,156.3022 C226.5519,156.1378 221.9286,149.9306 227.1344,141.019 C220,131.8867 223.7939,124.3318 235.0293,123.458 " fill="#F1F1F1" style="stroke:#181818;stroke-width:0.5;"/><text fill="#000000" font-family="sans-serif" font-size="14" lengthAdjust="spacing" textLength="42" x="241.426" y="145.326">cloud4</text></g><!--MD5=[db29d9e1877238b93d675467e489af9f]
entity cloud5--><g id="elem_cloud5"><path d="M342.0293,123.458 C345.3112,117.3604 352.0304,116.323 356.3563,122.2101 C360.513,115.5664 366.3344,116.8082 370.0773,122.6643 C374.147,115.7745 379.1317,115.3618 383.6984,122.1701 C387.7367,115 395.0603,115.8403 398.7324,122.5663 C409.1645,124.326 412.9291,131.1572 407.3516,140.578 C413.4977,150.0934 408.6905,155.1667 399.0786,156.4882 C397.1864,164.8706 390.9309,165.741 385.3501,160.0989 C383.3442,168.5637 377.0929,170.8581 370.8533,164.1417 C364.8059,169.7101 357.912,168.2592 356.0069,159.7677 C350.1185,164.1443 346.09,162.8902 343.1592,156.3022 C333.5519,156.1378 328.9286,149.9306 334.1344,141.019 C327,131.8867 330.7939,124.3318 342.0293,123.458 " fill="#F1F1F1" style="stroke:#181818;stroke-width:0.5;"/><text fill="#000000" font-family="sans-serif" font-size="14" lengthAdjust="spacing" textLength="42" x="348.426" y="145.326">cloud5</text></g><!--MD5=[e592e6516d992e484faf57d2b8b83e71]
link cloud1 to cloud2--><g id="link_cloud1_cloud2"><path d="M172.917,54.529 C146.402,72.2605 110.3268,96.3859 83.8359,114.1016 " fill="none" id="cloud1-cloud2" style="stroke:#181818;stroke-width:1.0;"/><ellipse cx="128.3674" cy="84.3212" fill="#FFFFFF" rx="6" ry="6" style="stroke:#181818;stroke-width:1.5;"/></g><!--MD5=[962a6ccec3045169b1f9dca5fcf52e0c]
link cloud1 to cloud3--><g id="link_cloud1_cloud3"><path d="M196.664,54.529 C187.881,72.2605 175.931,96.3859 167.156,114.1016 " fill="none" id="cloud1-cloud3" style="stroke:#181818;stroke-width:1.0;"/><path d="M172.4321,87.519 A10,10 0 0 0 185.1048 93.7962" fill="none" style="stroke:#181818;stroke-width:1.5;"/><ellipse cx="181.907" cy="84.3212" fill="#FFFFFF" rx="6" ry="6" style="stroke:#181818;stroke-width:1.5;"/></g><!--MD5=[f9dba88cb8a5042066a27ecfa0ce67fa]
link cloud1 to cloud4--><g id="link_cloud1_cloud4"><path d="M220.41,54.529 C229.359,72.2605 241.534,96.3859 250.475,114.1016 " fill="none" id="cloud1-cloud4" style="stroke:#181818;stroke-width:1.0;"/><path d="M238.5724,74.8227 A10,10 0 0 0 225.9469 81.1944" fill="none" style="stroke:#181818;stroke-width:1.5;"/><ellipse cx="235.4455" cy="84.3212" fill="#FFFFFF" rx="6" ry="6" style="stroke:#181818;stroke-width:1.5;"/></g><!--MD5=[2393121ea504fde0c350c2f1d1bc9c25]
link cloud1 to cloud5--><g id="link_cloud1_cloud5"><path d="M244.157,54.529 C270.838,72.2605 307.138,96.3859 333.795,114.1016 " fill="none" id="cloud1-cloud5" style="stroke:#181818;stroke-width:1.0;"/><ellipse cx="288.985" cy="84.3212" fill="#FFFFFF" rx="10" ry="10" style="stroke:#FFFFFF;stroke-width:1.0;"/><path d="M290.9602,94.1242 A10,10 0 0 0 298.788 82.346" fill="none" style="stroke:#181818;stroke-width:1.5;"/><path d="M287.0098,74.5183 A10,10 0 0 0 279.182 86.2965" fill="none" style="stroke:#181818;stroke-width:1.5;"/><ellipse cx="288.985" cy="84.3212" fill="#FFFFFF" rx="6" ry="6" style="stroke:#181818;stroke-width:1.5;"/></g><!--MD5=[098937bea2b64b6cd2fa9337fcfe8f6a]
@startuml

cloud cloud1
cloud cloud2
cloud cloud3
cloud cloud4
cloud cloud5
cloud1 -0- cloud2
cloud1 -0)- cloud3
cloud1 -(0- cloud4
cloud1 -(0)- cloud5

@enduml

PlantUML version 1.2022.4(Sat Apr 09 21:29:17 CST 2022)
(GPL source distribution)
Java Runtime: Java(TM) SE Runtime Environment
JVM: Java HotSpot(TM) 64-Bit Server VM
Default Encoding: GBK
Language: zh
Country: CN
--></g></svg>