<?xml version="1.0" encoding="UTF-8" standalone="no"?><svg xmlns="http://www.w3.org/2000/svg" xmlns:xlink="http://www.w3.org/1999/xlink" contentStyleType="text/css" height="139px" preserveAspectRatio="none" style="width:261px;height:139px;background:#FFFFFF;" version="1.1" viewBox="0 0 261 139" width="261px" zoomAndPan="magnify"><defs/><g><text fill="#000000" font-family="sans-serif" font-size="12" font-weight="bold" lengthAdjust="spacing" textLength="44" x="8" y="19.752">General</text><line style="stroke:#000000;stroke-width:1.0;" x1="6" x2="6" y1="6" y2="22.3887"/><line style="stroke:#000000;stroke-width:1.0;" x1="6" x2="55" y1="6" y2="6"/><line style="stroke:#000000;stroke-width:1.0;" x1="55" x2="55" y1="6" y2="22.3887"/><line style="stroke:#000000;stroke-width:1.0;" x1="55" x2="65" y1="22.3887" y2="22.3887"/><text fill="#000000" font-family="sans-serif" font-size="12" lengthAdjust="spacing" textLength="58" x="67" y="19.752">Fullscreen</text><line style="stroke:#000000;stroke-width:1.0;" x1="65" x2="65" y1="6" y2="22.3887"/><line style="stroke:#000000;stroke-width:1.0;" x1="65" x2="128" y1="6" y2="6"/><line style="stroke:#000000;stroke-width:1.0;" x1="128" x2="128" y1="6" y2="22.3887"/><line style="stroke:#000000;stroke-width:1.0;" x1="128" x2="138" y1="22.3887" y2="22.3887"/><text fill="#000000" font-family="sans-serif" font-size="12" lengthAdjust="spacing" textLength="48" x="140" y="19.752">Behavior</text><line style="stroke:#000000;stroke-width:1.0;" x1="138" x2="138" y1="6" y2="22.3887"/><line style="stroke:#000000;stroke-width:1.0;" x1="138" x2="191" y1="6" y2="6"/><line style="stroke:#000000;stroke-width:1.0;" x1="191" x2="191" y1="6" y2="22.3887"/><line style="stroke:#000000;stroke-width:1.0;" x1="191" x2="201" y1="22.3887" y2="22.3887"/><text fill="#000000" font-family="sans-serif" font-size="12" lengthAdjust="spacing" textLength="37" x="203" y="19.752">Saving</text><line style="stroke:#000000;stroke-width:1.0;" x1="201" x2="201" y1="6" y2="22.3887"/><line style="stroke:#000000;stroke-width:1.0;" x1="201" x2="243" y1="6" y2="6"/><line style="stroke:#000000;stroke-width:1.0;" x1="243" x2="243" y1="6" y2="22.3887"/><line style="stroke:#000000;stroke-width:1.0;" x1="243" x2="253" y1="22.3887" y2="22.3887"/><text fill="#000000" font-family="sans-serif" font-size="12" lengthAdjust="spacing" textLength="84" x="8" y="40.1406">Open image in:</text><rect fill="#EEEEEE" height="19.3887" style="stroke:#000000;stroke-width:1.0;" width="95" x="94" y="26.3887"/><text fill="#000000" font-family="sans-serif" font-size="12" lengthAdjust="spacing" textLength="66" x="96" y="42.1406">Smart Mode</text><line style="stroke:#000000;stroke-width:1.0;" x1="178" x2="178" y1="26.3887" y2="45.7773"/><polygon fill="#000000" points="181,32.3887,187,32.3887,184,40.7773" style="stroke:#000000;stroke-width:1.0;"/><text fill="#000000" font-family="sans-serif" font-size="12" lengthAdjust="spacing" textLength="168" x="27" y="63.5293">Smooth images when zoomed</text><rect fill="none" height="10" style="stroke:#000000;stroke-width:1.5;" width="10" x="9" y="52.9717"/><polygon fill="#000000" points="10,55.7773,13,58.7773,20,49.7773,13,56.7773" style="stroke:#000000;stroke-width:1.5;"/><text fill="#000000" font-family="sans-serif" font-size="12" lengthAdjust="spacing" textLength="129" x="27" y="81.918">Confirm image deletion</text><rect fill="none" height="10" style="stroke:#000000;stroke-width:1.5;" width="10" x="9" y="71.3604"/><polygon fill="#000000" points="10,74.166,13,77.166,20,68.166,13,75.166" style="stroke:#000000;stroke-width:1.5;"/><text fill="#000000" font-family="sans-serif" font-size="12" lengthAdjust="spacing" textLength="117" x="27" y="100.3066">Show hidden images</text><rect fill="none" height="10" style="stroke:#000000;stroke-width:1.5;" width="10" x="9" y="89.749"/><rect fill="#EEEEEE" height="20.3887" rx="5" ry="5" style="stroke:#000000;stroke-width:2.5;" width="44" x="8.5" y="108.4434"/><text fill="#000000" font-family="sans-serif" font-size="12" lengthAdjust="spacing" textLength="33" x="14" y="124.1953">Close</text><line style="stroke:#000000;stroke-width:1.0;" x1="5" x2="254" y1="5" y2="5"/><line style="stroke:#000000;stroke-width:1.0;" x1="5" x2="254" y1="132.332" y2="132.332"/><line style="stroke:#000000;stroke-width:1.0;" x1="5" x2="5" y1="5" y2="23.3887"/><line style="stroke:#000000;stroke-width:1.0;" x1="254" x2="254" y1="23.3887" y2="104.9434"/><line style="stroke:#000000;stroke-width:1.0;" x1="254" x2="254" y1="5" y2="23.3887"/><line style="stroke:#000000;stroke-width:1.0;" x1="5" x2="5" y1="104.9434" y2="132.332"/><line style="stroke:#000000;stroke-width:1.0;" x1="5" x2="5" y1="23.3887" y2="104.9434"/><line style="stroke:#000000;stroke-width:1.0;" x1="254" x2="254" y1="104.9434" y2="132.332"/><!--MD5=[bed7e0e17d6cb49012d8137994494414]
@startsalt
{+
{/ <b>General | Fullscreen | Behavior | Saving }
{
	{ Open image in: | ^Smart Mode^ }
	[X] Smooth images when zoomed
	[X] Confirm image deletion
	[ ] Show hidden images
}
[Close]
}
@endsalt

PlantUML version 1.2022.4(Sat Apr 09 21:29:17 CST 2022)
(GPL source distribution)
Java Runtime: Java(TM) SE Runtime Environment
JVM: Java HotSpot(TM) 64-Bit Server VM
Default Encoding: GBK
Language: zh
Country: CN
--></g></svg>