<?xml version="1.0" encoding="UTF-8" standalone="no"?><svg xmlns="http://www.w3.org/2000/svg" xmlns:xlink="http://www.w3.org/1999/xlink" contentStyleType="text/css" height="67px" preserveAspectRatio="none" style="width:203px;height:67px;background:#FFFFFF;" version="1.1" viewBox="0 0 203 67" width="203px" zoomAndPan="magnify"><defs/><g><text fill="#000000" font-family="sans-serif" font-size="12" lengthAdjust="spacing" textLength="54" x="85" y="19.752">Column 2</text><text fill="#000000" font-family="sans-serif" font-size="12" lengthAdjust="spacing" textLength="54" x="141" y="19.752">Column 3</text><text fill="#000000" font-family="sans-serif" font-size="12" lengthAdjust="spacing" textLength="77" x="6" y="38.1406">Row header 1</text><text fill="#000000" font-family="sans-serif" font-size="12" lengthAdjust="spacing" textLength="39" x="85" y="38.1406">value 1</text><text fill="#000000" font-family="sans-serif" font-size="12" lengthAdjust="spacing" textLength="39" x="141" y="38.1406">value 2</text><text fill="#000000" font-family="sans-serif" font-size="12" lengthAdjust="spacing" textLength="77" x="6" y="56.5293">Row header 2</text><text fill="#000000" font-family="sans-serif" font-size="12" lengthAdjust="spacing" textLength="56" x="85" y="56.5293">A long cell</text><line style="stroke:#000000;stroke-width:1.0;" x1="5" x2="84" y1="5" y2="5"/><line style="stroke:#000000;stroke-width:1.0;" x1="84" x2="140" y1="23.3887" y2="23.3887"/><line style="stroke:#000000;stroke-width:1.0;" x1="140" x2="196" y1="41.7773" y2="41.7773"/><line style="stroke:#000000;stroke-width:1.0;" x1="84" x2="140" y1="5" y2="5"/><line style="stroke:#000000;stroke-width:1.0;" x1="140" x2="196" y1="23.3887" y2="23.3887"/><line style="stroke:#000000;stroke-width:1.0;" x1="140" x2="196" y1="5" y2="5"/><line style="stroke:#000000;stroke-width:1.0;" x1="5" x2="84" y1="60.166" y2="60.166"/><line style="stroke:#000000;stroke-width:1.0;" x1="84" x2="140" y1="60.166" y2="60.166"/><line style="stroke:#000000;stroke-width:1.0;" x1="5" x2="84" y1="41.7773" y2="41.7773"/><line style="stroke:#000000;stroke-width:1.0;" x1="140" x2="196" y1="60.166" y2="60.166"/><line style="stroke:#000000;stroke-width:1.0;" x1="5" x2="84" y1="23.3887" y2="23.3887"/><line style="stroke:#000000;stroke-width:1.0;" x1="84" x2="140" y1="41.7773" y2="41.7773"/><line style="stroke:#000000;stroke-width:1.0;" x1="5" x2="5" y1="5" y2="23.3887"/><line style="stroke:#000000;stroke-width:1.0;" x1="84" x2="84" y1="23.3887" y2="41.7773"/><line style="stroke:#000000;stroke-width:1.0;" x1="196" x2="196" y1="41.7773" y2="60.166"/><line style="stroke:#000000;stroke-width:1.0;" x1="84" x2="84" y1="5" y2="23.3887"/><line style="stroke:#000000;stroke-width:1.0;" x1="140" x2="140" y1="23.3887" y2="41.7773"/><line style="stroke:#000000;stroke-width:1.0;" x1="196" x2="196" y1="23.3887" y2="41.7773"/><line style="stroke:#000000;stroke-width:1.0;" x1="140" x2="140" y1="5" y2="23.3887"/><line style="stroke:#000000;stroke-width:1.0;" x1="196" x2="196" y1="5" y2="23.3887"/><line style="stroke:#000000;stroke-width:1.0;" x1="5" x2="5" y1="41.7773" y2="60.166"/><line style="stroke:#000000;stroke-width:1.0;" x1="5" x2="5" y1="23.3887" y2="41.7773"/><line style="stroke:#000000;stroke-width:1.0;" x1="84" x2="84" y1="41.7773" y2="60.166"/><!--MD5=[86f1bc3e2e1cfc46e52d97d2cc2877cf]
@startsalt
{#
. | Column 2 | Column 3
Row header 1 | value 1 | value 2
Row header 2 | A long cell | *
}
@endsalt

PlantUML version 1.2022.4(Sat Apr 09 21:29:17 CST 2022)
(GPL source distribution)
Java Runtime: Java(TM) SE Runtime Environment
JVM: Java HotSpot(TM) 64-Bit Server VM
Default Encoding: GBK
Language: zh
Country: CN
--></g></svg>