<svg xmlns="http://www.w3.org/2000/svg" xmlns:xlink="http://www.w3.org/1999/xlink" style="width:172px;height:75px;background:#fff" width="172" height="75" contentStyleType="text/css" preserveAspectRatio="none" version="1.1" viewBox="0 0 172 75" zoomAndPan="magnify"><g><text x="6" y="19.752" fill="#000" font-family="sans-serif" font-size="12" lengthAdjust="spacing" textLength="31">Login</text><path fill="#000" d="M42,11.3887 C40.9,11.3887 40,12.5087 40,13.8887 C40,15.2687 40.9,16.3887 42,16.3887 C43.1,16.3887 44,15.2687 44,13.8887 C44,12.5087 43.1,11.3887 42,11.3887 M39.91,16.3887 C38.85,16.4387 38,17.3087 38,18.3887 L38,19.3887 L46,19.3887 L46,18.3887 C46,17.3087 45.16,16.4387 44.09,16.3887 C43.55,16.9987 42.81,17.3887 42,17.3887 C41.19,17.3887 40.45,16.9987 39.91,16.3887" style="stroke-width:0"/><text x="92" y="19.752" fill="#000" font-family="sans-serif" font-size="12" lengthAdjust="spacing" textLength="48">MyName</text><line style="stroke:#000;stroke-width:1" x1="90" x2="165" y1="22.389" y2="22.389"/><line style="stroke:#000;stroke-width:1" x1="90" x2="90" y1="19.389" y2="21.389"/><line style="stroke:#000;stroke-width:1" x1="165" x2="165" y1="19.389" y2="21.389"/><text x="6" y="40.141" fill="#000" font-family="sans-serif" font-size="12" lengthAdjust="spacing" textLength="56">Password</text><path fill="#000" d="M68.5,31.7773 C67.12,31.7773 66,32.8973 66,34.2773 C66,34.4373 66,34.5973 66.03,34.7473 L63,37.7773 L63,39.7773 L66,39.7773 L66,37.7773 L68,37.7773 L68,36.7773 L68.03,36.7473 C68.18,36.7773 68.34,36.7773 68.5,36.7773 C69.88,36.7773 71,35.6573 71,34.2773 C71,32.8973 69.88,31.7773 68.5,31.7773 M69,32.7773 C69.55,32.7773 70,33.2273 70,33.7773 C70,34.3273 69.55,34.7773 69,34.7773 C68.45,34.7773 68,34.3273 68,33.7773 C68,33.2273 68.45,32.7773 69,32.7773" style="stroke-width:0"/><text x="92" y="40.141" fill="#000" font-family="sans-serif" font-size="12" lengthAdjust="spacing" textLength="20">****</text><line style="stroke:#000;stroke-width:1" x1="90" x2="165" y1="42.777" y2="42.777"/><line style="stroke:#000;stroke-width:1" x1="90" x2="90" y1="39.777" y2="41.777"/><line style="stroke:#000;stroke-width:1" x1="165" x2="165" y1="39.777" y2="41.777"/><rect style="stroke:#000;stroke-width:2.5" width="76" height="20.389" x="8.5" y="49.277" fill="#EEE" rx="5" ry="5"/><text x="20.5" y="65.029" fill="#000" font-family="sans-serif" font-size="12" lengthAdjust="spacing" textLength="39">Cancel</text><path fill="#000" d="M67.5,56.666 C65.29,56.666 63.5,58.456 63.5,60.666 C63.5,62.876 65.29,64.666 67.5,64.666 C69.71,64.666 71.5,62.876 71.5,60.666 C71.5,58.456 69.71,56.666 67.5,56.666 M66,58.446 L67.5,59.946 L69,58.446 L69.72,59.166 L68.22,60.666 L69.72,62.166 L69,62.886 L67.5,61.386 L66,62.886 L65.28,62.166 L66.78,60.666 L65.28,59.166 L66,58.446" style="stroke-width:0"/><rect style="stroke:#000;stroke-width:2.5" width="44" height="20.389" x="91.5" y="49.277" fill="#EEE" rx="5" ry="5"/><text x="98.5" y="65.029" fill="#000" font-family="sans-serif" font-size="12" lengthAdjust="spacing" textLength="17">OK</text><path fill="#000" d="M122.5,56.666 L122.5,57.666 L126.5,57.666 L126.5,62.666 L122.5,62.666 L122.5,63.666 L127.5,63.666 L127.5,56.666 L122.5,56.666 M123.5,58.666 L123.5,59.666 L119.5,59.666 L119.5,60.666 L123.5,60.666 L123.5,61.666 L125.5,60.166 L123.5,58.666" style="stroke-width:0"/></g></svg>