<?xml version="1.0" encoding="UTF-8" standalone="no"?><svg xmlns="http://www.w3.org/2000/svg" xmlns:xlink="http://www.w3.org/1999/xlink" contentStyleType="text/css" height="208px" preserveAspectRatio="none" style="width:105px;height:208px;background:#FFFFFF;" version="1.1" viewBox="0 0 105 208" width="105px" zoomAndPan="magnify"><defs/><g><text fill="#000000" font-family="sans-serif" font-size="12" lengthAdjust="spacing" textLength="32" x="16" y="19.752">World</text><text fill="#000000" font-family="sans-serif" font-size="12" lengthAdjust="spacing" textLength="45" x="26" y="36.1406">America</text><text fill="#000000" font-family="sans-serif" font-size="12" lengthAdjust="spacing" textLength="44" x="36" y="52.5293">Canada</text><text fill="#000000" font-family="sans-serif" font-size="12" lengthAdjust="spacing" textLength="24" x="36" y="68.918">USA</text><text fill="#000000" font-family="sans-serif" font-size="12" lengthAdjust="spacing" textLength="52" x="46" y="85.3066">New York</text><text fill="#000000" font-family="sans-serif" font-size="12" lengthAdjust="spacing" textLength="39" x="46" y="101.6953">Boston</text><text fill="#000000" font-family="sans-serif" font-size="12" lengthAdjust="spacing" textLength="37" x="36" y="118.084">Mexico</text><text fill="#000000" font-family="sans-serif" font-size="12" lengthAdjust="spacing" textLength="40" x="26" y="134.4727">Europe</text><text fill="#000000" font-family="sans-serif" font-size="12" lengthAdjust="spacing" textLength="21" x="36" y="150.8613">Italy</text><text fill="#000000" font-family="sans-serif" font-size="12" lengthAdjust="spacing" textLength="50" x="36" y="167.25">Germany</text><text fill="#000000" font-family="sans-serif" font-size="12" lengthAdjust="spacing" textLength="32" x="46" y="183.6387">Berlin</text><text fill="#000000" font-family="sans-serif" font-size="12" lengthAdjust="spacing" textLength="30" x="26" y="200.0273">Africa</text><rect fill="none" height="2" style="stroke:#888888;stroke-width:1.0;" width="2" x="9" y="13.1943"/><rect fill="none" height="2" style="stroke:#888888;stroke-width:1.0;" width="2" x="19" y="29.583"/><line style="stroke:#888888;stroke-width:1.0;" x1="10" x2="10" y1="16.1943" y2="30.583"/><line style="stroke:#888888;stroke-width:1.0;" x1="10" x2="18" y1="30.583" y2="30.583"/><line style="stroke:#888888;stroke-width:1.0;" x1="20" x2="20" y1="32.583" y2="46.9717"/><line style="stroke:#888888;stroke-width:1.0;" x1="20" x2="28" y1="46.9717" y2="46.9717"/><rect fill="none" height="2" style="stroke:#888888;stroke-width:1.0;" width="2" x="29" y="62.3604"/><line style="stroke:#888888;stroke-width:1.0;" x1="20" x2="20" y1="32.583" y2="63.3604"/><line style="stroke:#888888;stroke-width:1.0;" x1="20" x2="28" y1="63.3604" y2="63.3604"/><line style="stroke:#888888;stroke-width:1.0;" x1="30" x2="30" y1="65.3604" y2="79.749"/><line style="stroke:#888888;stroke-width:1.0;" x1="30" x2="38" y1="79.749" y2="79.749"/><line style="stroke:#888888;stroke-width:1.0;" x1="30" x2="30" y1="65.3604" y2="96.1377"/><line style="stroke:#888888;stroke-width:1.0;" x1="30" x2="38" y1="96.1377" y2="96.1377"/><line style="stroke:#888888;stroke-width:1.0;" x1="20" x2="20" y1="32.583" y2="112.5264"/><line style="stroke:#888888;stroke-width:1.0;" x1="20" x2="28" y1="112.5264" y2="112.5264"/><rect fill="none" height="2" style="stroke:#888888;stroke-width:1.0;" width="2" x="19" y="127.915"/><line style="stroke:#888888;stroke-width:1.0;" x1="10" x2="10" y1="16.1943" y2="128.915"/><line style="stroke:#888888;stroke-width:1.0;" x1="10" x2="18" y1="128.915" y2="128.915"/><line style="stroke:#888888;stroke-width:1.0;" x1="20" x2="20" y1="130.915" y2="145.3037"/><line style="stroke:#888888;stroke-width:1.0;" x1="20" x2="28" y1="145.3037" y2="145.3037"/><rect fill="none" height="2" style="stroke:#888888;stroke-width:1.0;" width="2" x="29" y="160.6924"/><line style="stroke:#888888;stroke-width:1.0;" x1="20" x2="20" y1="130.915" y2="161.6924"/><line style="stroke:#888888;stroke-width:1.0;" x1="20" x2="28" y1="161.6924" y2="161.6924"/><line style="stroke:#888888;stroke-width:1.0;" x1="30" x2="30" y1="163.6924" y2="178.0811"/><line style="stroke:#888888;stroke-width:1.0;" x1="30" x2="38" y1="178.0811" y2="178.0811"/><line style="stroke:#888888;stroke-width:1.0;" x1="10" x2="10" y1="16.1943" y2="194.4697"/><line style="stroke:#888888;stroke-width:1.0;" x1="10" x2="18" y1="194.4697" y2="194.4697"/><!--MD5=[d08a147f3f6865d71ccf0272500f50cb]
@startsalt
{
{T
 + World
 ++ America
 +++ Canada
 +++ USA
 ++++ New York
 ++++ Boston
 +++ Mexico
 ++ Europe
 +++ Italy
 +++ Germany
 ++++ Berlin
 ++ Africa
}
}
@endsalt

PlantUML version 1.2022.4(Sat Apr 09 21:29:17 CST 2022)
(GPL source distribution)
Java Runtime: Java(TM) SE Runtime Environment
JVM: Java HotSpot(TM) 64-Bit Server VM
Default Encoding: GBK
Language: zh
Country: CN
--></g></svg>