<?xml version="1.0" encoding="UTF-8" standalone="no"?><svg xmlns="http://www.w3.org/2000/svg" xmlns:xlink="http://www.w3.org/1999/xlink" contentStyleType="text/css" height="157px" preserveAspectRatio="none" style="width:261px;height:157px;background:#FFFFFF;" version="1.1" viewBox="0 0 261 157" width="261px" zoomAndPan="magnify"><defs/><g><rect fill="#DDDDDD" height="17.3887" style="stroke:#000000;stroke-width:1.0;" width="248" x="6" y="6"/><text fill="#000000" font-family="sans-serif" font-size="12" lengthAdjust="spacing" textLength="20" x="6" y="19.752">File</text><text fill="#000000" font-family="sans-serif" font-size="12" lengthAdjust="spacing" textLength="21" x="36" y="19.752">Edit</text><text fill="#000000" font-family="sans-serif" font-size="12" lengthAdjust="spacing" textLength="39" x="67" y="19.752">Source</text><text fill="#000000" font-family="sans-serif" font-size="12" lengthAdjust="spacing" textLength="46" x="116" y="19.752">Refactor</text><text fill="#000000" font-family="sans-serif" font-size="12" lengthAdjust="spacing" textLength="44" x="8" y="38.1406">General</text><line style="stroke:#000000;stroke-width:1.0;" x1="6" x2="6" y1="24.3887" y2="40.7773"/><line style="stroke:#000000;stroke-width:1.0;" x1="6" x2="55" y1="24.3887" y2="24.3887"/><line style="stroke:#000000;stroke-width:1.0;" x1="55" x2="55" y1="24.3887" y2="40.7773"/><line style="stroke:#000000;stroke-width:1.0;" x1="55" x2="65" y1="40.7773" y2="40.7773"/><text fill="#000000" font-family="sans-serif" font-size="12" lengthAdjust="spacing" textLength="58" x="67" y="38.1406">Fullscreen</text><line style="stroke:#000000;stroke-width:1.0;" x1="65" x2="65" y1="24.3887" y2="40.7773"/><line style="stroke:#000000;stroke-width:1.0;" x1="65" x2="128" y1="24.3887" y2="24.3887"/><line style="stroke:#000000;stroke-width:1.0;" x1="128" x2="128" y1="24.3887" y2="40.7773"/><line style="stroke:#000000;stroke-width:1.0;" x1="128" x2="138" y1="40.7773" y2="40.7773"/><text fill="#000000" font-family="sans-serif" font-size="12" lengthAdjust="spacing" textLength="48" x="140" y="38.1406">Behavior</text><line style="stroke:#000000;stroke-width:1.0;" x1="138" x2="138" y1="24.3887" y2="40.7773"/><line style="stroke:#000000;stroke-width:1.0;" x1="138" x2="191" y1="24.3887" y2="24.3887"/><line style="stroke:#000000;stroke-width:1.0;" x1="191" x2="191" y1="24.3887" y2="40.7773"/><line style="stroke:#000000;stroke-width:1.0;" x1="191" x2="201" y1="40.7773" y2="40.7773"/><text fill="#000000" font-family="sans-serif" font-size="12" lengthAdjust="spacing" textLength="37" x="203" y="38.1406">Saving</text><line style="stroke:#000000;stroke-width:1.0;" x1="201" x2="201" y1="24.3887" y2="40.7773"/><line style="stroke:#000000;stroke-width:1.0;" x1="201" x2="243" y1="24.3887" y2="24.3887"/><line style="stroke:#000000;stroke-width:1.0;" x1="243" x2="243" y1="24.3887" y2="40.7773"/><line style="stroke:#000000;stroke-width:1.0;" x1="243" x2="253" y1="40.7773" y2="40.7773"/><text fill="#000000" font-family="sans-serif" font-size="12" lengthAdjust="spacing" textLength="84" x="8" y="58.5293">Open image in:</text><rect fill="#EEEEEE" height="19.3887" style="stroke:#000000;stroke-width:1.0;" width="95" x="94" y="44.7773"/><text fill="#000000" font-family="sans-serif" font-size="12" lengthAdjust="spacing" textLength="66" x="96" y="60.5293">Smart Mode</text><line style="stroke:#000000;stroke-width:1.0;" x1="178" x2="178" y1="44.7773" y2="64.166"/><polygon fill="#000000" points="181,50.7773,187,50.7773,184,59.166" style="stroke:#000000;stroke-width:1.0;"/><text fill="#000000" font-family="sans-serif" font-size="12" lengthAdjust="spacing" textLength="168" x="27" y="81.918">Smooth images when zoomed</text><rect fill="none" height="10" style="stroke:#000000;stroke-width:1.5;" width="10" x="9" y="71.3604"/><polygon fill="#000000" points="10,74.166,13,77.166,20,68.166,13,75.166" style="stroke:#000000;stroke-width:1.5;"/><text fill="#000000" font-family="sans-serif" font-size="12" lengthAdjust="spacing" textLength="129" x="27" y="100.3066">Confirm image deletion</text><rect fill="none" height="10" style="stroke:#000000;stroke-width:1.5;" width="10" x="9" y="89.749"/><polygon fill="#000000" points="10,92.5547,13,95.5547,20,86.5547,13,93.5547" style="stroke:#000000;stroke-width:1.5;"/><text fill="#000000" font-family="sans-serif" font-size="12" lengthAdjust="spacing" textLength="117" x="27" y="118.6953">Show hidden images</text><rect fill="none" height="10" style="stroke:#000000;stroke-width:1.5;" width="10" x="9" y="108.1377"/><rect fill="#EEEEEE" height="20.3887" rx="5" ry="5" style="stroke:#000000;stroke-width:2.5;" width="44" x="8.5" y="126.832"/><text fill="#000000" font-family="sans-serif" font-size="12" lengthAdjust="spacing" textLength="33" x="14" y="142.584">Close</text><line style="stroke:#000000;stroke-width:1.0;" x1="5" x2="254" y1="5" y2="5"/><line style="stroke:#000000;stroke-width:1.0;" x1="5" x2="254" y1="150.7207" y2="150.7207"/><line style="stroke:#000000;stroke-width:1.0;" x1="5" x2="5" y1="5" y2="23.3887"/><line style="stroke:#000000;stroke-width:1.0;" x1="254" x2="254" y1="23.3887" y2="41.7773"/><line style="stroke:#000000;stroke-width:1.0;" x1="254" x2="254" y1="5" y2="23.3887"/><line style="stroke:#000000;stroke-width:1.0;" x1="5" x2="5" y1="123.332" y2="150.7207"/><line style="stroke:#000000;stroke-width:1.0;" x1="5" x2="5" y1="41.7773" y2="123.332"/><line style="stroke:#000000;stroke-width:1.0;" x1="254" x2="254" y1="123.332" y2="150.7207"/><line style="stroke:#000000;stroke-width:1.0;" x1="5" x2="5" y1="23.3887" y2="41.7773"/><line style="stroke:#000000;stroke-width:1.0;" x1="254" x2="254" y1="41.7773" y2="123.332"/><!--MD5=[8167fc0f2fab0345922a5086e281b771]
@startsalt
{+
{* File | Edit | Source | Refactor }
{/ General | Fullscreen | Behavior | Saving }
{
	{ Open image in: | ^Smart Mode^ }
	[X] Smooth images when zoomed
	[X] Confirm image deletion
	[ ] Show hidden images 
}
[Close]
}
@endsalt

PlantUML version 1.2022.4(Sat Apr 09 21:29:17 CST 2022)
(GPL source distribution)
Java Runtime: Java(TM) SE Runtime Environment
JVM: Java HotSpot(TM) 64-Bit Server VM
Default Encoding: GBK
Language: zh
Country: CN
--></g></svg>