<?xml version="1.0" encoding="UTF-8" standalone="no"?><svg xmlns="http://www.w3.org/2000/svg" xmlns:xlink="http://www.w3.org/1999/xlink" contentStyleType="text/css" height="80px" preserveAspectRatio="none" style="width:151px;height:80px;background:#FFFFFF;" version="1.1" viewBox="0 0 151 80" width="151px" zoomAndPan="magnify"><defs/><g><text fill="#000000" font-family="sans-serif" font-size="12" lengthAdjust="spacing" textLength="31" x="6" y="19.752">Login</text><text fill="#000000" font-family="sans-serif" font-size="12" lengthAdjust="spacing" textLength="48" x="68" y="19.752">MyName</text><line style="stroke:#000000;stroke-width:1.0;" x1="66" x2="141" y1="22.3887" y2="22.3887"/><line style="stroke:#000000;stroke-width:1.0;" x1="66" x2="66" y1="19.3887" y2="21.3887"/><line style="stroke:#000000;stroke-width:1.0;" x1="141" x2="141" y1="19.3887" y2="21.3887"/><text fill="#000000" font-family="sans-serif" font-size="12" lengthAdjust="spacing" textLength="56" x="6" y="40.1406">Password</text><text fill="#000000" font-family="sans-serif" font-size="12" lengthAdjust="spacing" textLength="20" x="68" y="40.1406">****</text><line style="stroke:#000000;stroke-width:1.0;" x1="66" x2="141" y1="42.7773" y2="42.7773"/><line style="stroke:#000000;stroke-width:1.0;" x1="66" x2="66" y1="39.7773" y2="41.7773"/><line style="stroke:#000000;stroke-width:1.0;" x1="141" x2="141" y1="39.7773" y2="41.7773"/><rect fill="#EEEEEE" height="20.3887" rx="5" ry="5" style="stroke:#000000;stroke-width:2.5;" width="52" x="8.5" y="49.2773"/><text fill="#000000" font-family="sans-serif" font-size="12" lengthAdjust="spacing" textLength="39" x="15" y="65.0293">Cancel</text><rect fill="#EEEEEE" height="20.3887" rx="5" ry="5" style="stroke:#000000;stroke-width:2.5;" width="60" x="67.5" y="49.2773"/><text fill="#000000" font-family="sans-serif" font-size="12" lengthAdjust="spacing" textLength="17" x="89" y="65.0293">OK</text><line style="stroke:#000000;stroke-width:1.0;" x1="5" x2="64" y1="5" y2="5"/><line style="stroke:#000000;stroke-width:1.0;" x1="64" x2="144" y1="5" y2="5"/><line style="stroke:#000000;stroke-width:1.0;" x1="5" x2="64" y1="73.166" y2="73.166"/><line style="stroke:#000000;stroke-width:1.0;" x1="64" x2="144" y1="73.166" y2="73.166"/><line style="stroke:#000000;stroke-width:1.0;" x1="5" x2="5" y1="5" y2="25.3887"/><line style="stroke:#000000;stroke-width:1.0;" x1="144" x2="144" y1="45.7773" y2="73.166"/><line style="stroke:#000000;stroke-width:1.0;" x1="144" x2="144" y1="25.3887" y2="45.7773"/><line style="stroke:#000000;stroke-width:1.0;" x1="144" x2="144" y1="5" y2="25.3887"/><line style="stroke:#000000;stroke-width:1.0;" x1="5" x2="5" y1="45.7773" y2="73.166"/><line style="stroke:#000000;stroke-width:1.0;" x1="5" x2="5" y1="25.3887" y2="45.7773"/><!--MD5=[2c6b4c67b1b92716b1c00fbd26311b33]
@startsalt
{+
  Login    | "MyName   "
  Password | "****     "
  [Cancel] | [  OK   ]
}
@endsalt

PlantUML version 1.2022.4(Sat Apr 09 21:29:17 CST 2022)
(GPL source distribution)
Java Runtime: Java(TM) SE Runtime Environment
JVM: Java HotSpot(TM) 64-Bit Server VM
Default Encoding: GBK
Language: zh
Country: CN
--></g></svg>