<?xml version="1.0" encoding="UTF-8" standalone="no"?><svg xmlns="http://www.w3.org/2000/svg" xmlns:xlink="http://www.w3.org/1999/xlink" contentStyleType="text/css" height="416px" preserveAspectRatio="none" style="width:105px;height:416px;background:#AAFFFF;" version="1.1" viewBox="0 0 105 416" width="105px" zoomAndPan="magnify"><defs/><g><ellipse cx="53" cy="16" fill="#222222" rx="10" ry="10" style="stroke:none;stroke-width:1.0;"/><rect fill="#CD853F" height="36.3887" rx="12.5" ry="12.5" style="stroke:#CD853F;stroke-width:0.5;" width="56" x="25" y="66"/><text fill="#000000" font-family="sans-serif" font-size="12" lengthAdjust="spacing" textLength="36" x="35" y="89.752">膩平台</text><rect fill="#8B4513" height="8" style="stroke:none;stroke-width:1.0;" width="80" x="13" y="142"/><rect fill="#CD853F" height="36.3887" rx="12.5" ry="12.5" style="stroke:#CD853F;stroke-width:0.5;" width="80" x="13" y="190"/><text fill="#000000" font-family="sans-serif" font-size="12" lengthAdjust="spacing" textLength="60" x="23" y="213.752">鞠躬向公眾</text><rect fill="#8B4513" height="8" style="stroke:none;stroke-width:1.0;" width="80" x="13" y="266"/><rect fill="#CD853F" height="36.3887" rx="12.5" ry="12.5" style="stroke:#CD853F;stroke-width:0.5;" width="92" x="7" y="314"/><text fill="#000000" font-family="sans-serif" font-size="12" lengthAdjust="spacing" textLength="72" x="17" y="337.752">這傢伙波武器</text><ellipse cx="53" cy="400" fill="none" rx="10" ry="10" style="stroke:#C0C0C0;stroke-width:1.0;"/><ellipse cx="53.5" cy="400.5" fill="#C0C0C0" rx="6" ry="6" style="stroke:none;stroke-width:1.0;"/><!--MD5=[da686282d629b41b78568abbbb8dde9b]
link start to 膩平台--><g id="link_start_膩平台"><path d="M53,26.177 C53,35.023 53,48.76 53,60.511 " fill="none" id="start-to-膩平台" style="stroke:#181818;stroke-width:1.0;"/><polygon fill="#181818" points="53,65.745,57,56.745,53,60.745,49,56.745,53,65.745" style="stroke:#181818;stroke-width:1.0;"/></g><!--MD5=[ad2cec293e393f31b11bf2a890d06571]
link 膩平台 to S1--><g id="link_膩平台_S1"><path d="M53,102.033 C53,113.293 53,127.571 53,136.498 " fill="none" id="膩平台-to-S1" style="stroke:#181818;stroke-width:1.0;"/><polygon fill="#181818" points="53,141.721,57,132.721,53,136.721,49,132.721,53,141.721" style="stroke:#181818;stroke-width:1.0;"/></g><!--MD5=[0ca3392004d22777ce428c296bc53445]
link S1 to 鞠躬向公眾--><g id="link_S1_鞠躬向公眾"><path d="M53,150.226 C53,156.715 53,171.841 53,184.849 " fill="none" id="S1-to-鞠躬向公眾" style="stroke:#181818;stroke-width:1.0;"/><polygon fill="#181818" points="53,189.892,57,180.892,53,184.892,49,180.892,53,189.892" style="stroke:#181818;stroke-width:1.0;"/></g><!--MD5=[558e74db25e5f77513cad675bef53d7e]
link 鞠躬向公眾 to S2--><g id="link_鞠躬向公眾_S2"><path d="M53,226.033 C53,237.293 53,251.571 53,260.498 " fill="none" id="鞠躬向公眾-to-S2" style="stroke:#181818;stroke-width:1.0;"/><polygon fill="#181818" points="53,265.721,57,256.721,53,260.721,49,256.721,53,265.721" style="stroke:#181818;stroke-width:1.0;"/></g><!--MD5=[9caf13dfdc0f88c6f072ca57b010e599]
link S2 to 這傢伙波武器--><g id="link_S2_這傢伙波武器"><path d="M53,274.226 C53,280.715 53,295.841 53,308.849 " fill="none" id="S2-to-這傢伙波武器" style="stroke:#181818;stroke-width:1.0;"/><polygon fill="#181818" points="53,313.8917,57,304.8917,53,308.8917,49,304.8917,53,313.8917" style="stroke:#181818;stroke-width:1.0;"/></g><!--MD5=[254db70053f54ae792e4c945094052b3]
link 這傢伙波武器 to end--><g id="link_這傢伙波武器_end"><path d="M53,350.3407 C53,361.0395 53,374.5969 53,384.6823 " fill="none" id="這傢伙波武器-to-end" style="stroke:#181818;stroke-width:1.0;"/><polygon fill="#181818" points="53,389.888,57,380.888,53,384.888,49,380.888,53,389.888" style="stroke:#181818;stroke-width:1.0;"/></g><!--MD5=[150f53624ae429a18115f39b0c9e3dd3]
@startuml
(*) - -> "膩平台"
- -> === S1 ===
- -> 鞠躬向公眾
- -> === S2 ===
- -> 這傢伙波武器
- -> (*)

skinparam backgroundColor #AAFFFF
skinparam activityStartColor red
skinparam activityBarColor SaddleBrown 
skinparam activityEndColor Silver
skinparam activityBackgroundColor Peru
skinparam activityBorderColor Peru
@enduml

PlantUML version 1.2022.4(Sat Apr 09 21:29:17 CST 2022)
(GPL source distribution)
Java Runtime: Java(TM) SE Runtime Environment
JVM: Java HotSpot(TM) 64-Bit Server VM
Default Encoding: GBK
Language: zh
Country: CN
--></g></svg>