<?xml version="1.0" encoding="UTF-8" standalone="no"?><svg xmlns="http://www.w3.org/2000/svg" xmlns:xlink="http://www.w3.org/1999/xlink" contentStyleType="text/css" height="378px" preserveAspectRatio="none" style="width:377px;height:378px;background:#EEEBDC;" version="1.1" viewBox="0 0 377 378" width="377px" zoomAndPan="magnify"><defs/><g><polygon fill="#FFFFFF" points="126,117.8745,126,117.9446,128,117.7364,130,117.9389,132,118.0077,134,117.6367,136,117.8745,135.9223,117.8745,135.5735,127.7978,135.6165,137.721,135.9318,147.6443,135.3086,157.5675,136.5536,167.4908,135.3697,177.414,135.8022,187.3372,136.4319,197.2605,135.9142,207.1837,136.0682,217.107,135.9681,227.0302,136.1785,236.9535,136.2391,246.8767,136.5857,256.8,136.6711,266.7232,136,276.6465,136,276.8729,134,276.7314,132,276.801,130,276.8806,128,276.4061,126,276.6465,126.6785,276.6465,125.7035,266.7232,126.5338,256.8,125.505,246.8767,125.9315,236.9535,126.7416,227.0302,125.9513,217.107,126.1053,207.1837,126.3386,197.2605,126.4162,187.3372,125.9961,177.414,126.2872,167.4908,125.4276,157.5675,126.2844,147.6443,126.5482,137.721,126.4445,127.7978,126,117.8745" style="stroke:#181818;stroke-width:1.0;"/><polygon fill="#FFFFFF" points="212,149.6289,212,149.699,214,149.4908,216,149.6933,218,149.7621,220,149.3911,222,149.6289,221.9223,149.6289,221.5735,159.1552,221.6165,168.6815,221.9318,178.2079,221.3086,187.7342,222.5536,197.2605,221.3697,206.7868,221.8022,216.3131,222.4319,225.8395,221.9142,235.3658,222,244.8921,222,244.9148,220,244.8814,218,244.9516,216,244.9718,214,245.0873,212,244.8921,212.6711,244.8921,212.6793,235.3658,212.2546,225.8395,212.4636,216.3131,212.7022,206.7868,211.2788,197.2605,212.6785,187.7342,211.7035,178.2079,212.5338,168.6815,211.505,159.1552,212,149.6289" style="stroke:#181818;stroke-width:1.0;"/><polygon fill="#FFFFFF" points="324,181.3833,324,181.4534,326,181.2452,328,181.4477,330,181.5165,332,181.1455,334,181.3833,333.9741,181.3833,333.8578,187.7342,333.8722,194.0851,333.9773,200.4359,333.7695,206.7868,334,213.1377,334,213.3222,332,212.9276,330,213.0718,328,213.2817,326,213.1091,324,213.1377,324.0227,213.1377,323.9894,206.7868,324.0595,200.4359,324.0797,194.0851,324.1952,187.7342,324,181.3833" style="stroke:#181818;stroke-width:1.0;"/><path d="M29,84.1201 L29.2802,84.1201 L28.4476,94.1452 L29.2577,104.1702 L29.5329,114.1953 L28.0488,124.2204 L28.8964,134.2454 L28.4313,144.2705 L28.4887,154.2956 L28.9091,164.3206 L28.0782,174.3457 L29.7382,184.3708 L28.1596,194.3958 L28.7363,204.4209 L29.5759,214.446 L28.8856,224.471 L29.091,234.4961 L28.9574,244.5212 L29.238,254.5462 L29.3188,264.5713 L29.7809,274.5964 L29.8947,284.6214 L29,294.6465 " fill="none" style="stroke:#181818;stroke-width:0.5;stroke-dasharray:5.0,5.0;"/><path d="M131,84.1201 L131.2802,84.1201 L130.4476,94.1452 L131.2577,104.1702 L131.5329,114.1953 L130.0488,124.2204 L130.8964,134.2454 L130.4313,144.2705 L130.4887,154.2956 L130.9091,164.3206 L130.0782,174.3457 L131.7382,184.3708 L130.1596,194.3958 L130.7363,204.4209 L131.5759,214.446 L130.8856,224.471 L131.091,234.4961 L130.9574,244.5212 L131.238,254.5462 L131.3188,264.5713 L131.7809,274.5964 L131.8947,284.6214 L131,294.6465 " fill="none" style="stroke:#181818;stroke-width:0.5;stroke-dasharray:5.0,5.0;"/><path d="M217,84.1201 L217.2802,84.1201 L216.4476,94.1452 L217.2577,104.1702 L217.5329,114.1953 L216.0488,124.2204 L216.8964,134.2454 L216.4313,144.2705 L216.4887,154.2956 L216.9091,164.3206 L216.0782,174.3457 L217.7382,184.3708 L216.1596,194.3958 L216.7363,204.4209 L217.5759,214.446 L216.8856,224.471 L217.091,234.4961 L216.9574,244.5212 L217.238,254.5462 L217.3188,264.5713 L217.7809,274.5964 L217.8947,284.6214 L217,294.6465 " fill="none" style="stroke:#181818;stroke-width:0.5;stroke-dasharray:5.0,5.0;"/><path d="M329,84.1201 L329.2802,84.1201 L328.4476,94.1452 L329.2577,104.1702 L329.5329,114.1953 L328.0488,124.2204 L328.8964,134.2454 L328.4313,144.2705 L328.4887,154.2956 L328.9091,164.3206 L328.0782,174.3457 L329.7382,184.3708 L328.1596,194.3958 L328.7363,204.4209 L329.5759,214.446 L328.8856,224.471 L329.091,234.4961 L328.9574,244.5212 L329.238,254.5462 L329.3188,264.5713 L329.7809,274.5964 L329.8947,284.6214 L329,294.6465 " fill="none" style="stroke:#181818;stroke-width:0.5;stroke-dasharray:5.0,5.0;"/><text fill="#000000" font-family="sans-serif" font-size="14" lengthAdjust="spacing" textLength="42" x="5" y="81.0439">使用者</text><polygon fill="#E2E2F0" points="37.0442,15.4459,35.8715,17.0482,34.4845,19.3951,32.5008,20.9767,30.4163,21.8415,28.7542,21.9166,26.618,20.8349,24.6023,20.1283,23.0724,18.6936,22.2699,17.0511,21.7939,15.7433,21.3277,14.0351,20.5709,12.5651,21.1525,11.1298,21.662,9.5576,23.574,8.3142,24.9192,6.7008,26.5843,6.165,28.5637,5.7037,31.1021,5.9778,32.4924,6.6335,34.1089,6.9307,36.0743,8.9443,36.7595,11.0701,37.0571,12.5206,36.72,14.9108" style="stroke:#181818;stroke-width:0.5;"/><path d="M29,21.5 L29.1868,21.5 L28.6317,26.9 L29.1718,32.3 L29.3553,37.7 L28.3659,43.1 L29,48.5 M16,29.5 L16,29.4309 L21.2,29.1209 L26.4,29.1591 L31.6,29.4394 L36.8,28.8854 L42,29.5 M29,48.5 L29.3719,48.8223 L25.9766,51.1331 L23.6672,54.3849 L21.4901,57.7515 L18.5424,60.4501 L16,63.5 M29,48.5 L29.0458,48.5397 L31.5785,51.4814 L34.3199,54.6039 L36.9606,57.6392 L39.7934,60.841 L42,63.5 " fill="none" style="stroke:#181818;stroke-width:0.5;"/><text fill="#000000" font-family="sans-serif" font-size="14" lengthAdjust="spacing" textLength="42" x="5" y="309.6904">使用者</text><polygon fill="#E2E2F0" points="37.0442,323.2125,35.8715,324.8148,34.4845,327.1617,32.5008,328.7433,30.4163,329.6081,28.7542,329.6832,26.618,328.6015,24.6023,327.8949,23.0724,326.4602,22.2699,324.8177,21.7939,323.5099,21.3277,321.8017,20.5709,320.3317,21.1525,318.8964,21.662,317.3242,23.574,316.0808,24.9192,314.4674,26.5843,313.9316,28.5637,313.4703,31.1021,313.7444,32.4924,314.4001,34.1089,314.6973,36.0743,316.711,36.7595,318.8367,37.0571,320.2872,36.72,322.6774" style="stroke:#181818;stroke-width:0.5;"/><path d="M29,329.2666 L29.1868,329.2666 L28.6317,334.6666 L29.1718,340.0666 L29.3553,345.4666 L28.3659,350.8666 L29,356.2666 M16,337.2666 L16,337.1975 L21.2,336.8875 L26.4,336.9257 L31.6,337.206 L36.8,336.6521 L42,337.2666 M29,356.2666 L29.3719,356.5889 L25.9766,358.8997 L23.6672,362.1515 L21.4901,365.5181 L18.5424,368.2167 L16,371.2666 M29,356.2666 L29.0458,356.3063 L31.5785,359.248 L34.3199,362.3705 L36.9606,365.4058 L39.7934,368.6076 L42,371.2666 " fill="none" style="stroke:#181818;stroke-width:0.5;"/><polygon fill="#E2E2F0" points="105.5,50,105.5,50.2102,115.7,49.5857,125.9,50.1933,136.1,50.3997,146.3,49.2866,156.5,50,156.4901,49.9761,156.7991,50.0151,157.1582,50.1748,157.552,50.4184,157.826,50.3729,158.2678,50.7322,158.4383,50.8029,158.2201,51.0054,158.4998,51.4141,158.8401,51.848,158.8271,52.1355,159,52.5,159.0227,52.5,158.9894,58.124,159.0595,63.748,159.0797,69.3721,159.1952,74.9961,159,80.6201,159.2067,80.7057,159.0627,81.0603,158.7855,81.3597,158.7034,81.7399,158.6305,82.1239,158.2678,82.3879,158.1758,82.1658,158.0008,82.7433,157.5228,82.5895,157.2752,82.9916,156.7904,82.8212,156.5,83.1201,156.5,83.0516,146.3,83.8617,136.1,83.0714,125.9,83.2254,115.7,83.4587,105.5,83.1201,105.5531,83.2483,105.1459,82.9725,104.8295,82.9157,104.3663,82.5045,104.1221,82.6219,103.7322,82.3879,103.9011,82.4578,103.7227,82.091,103.6281,81.759,103.1441,81.2656,102.9456,80.8905,103,80.6201,102.7929,80.6201,102.9804,74.9961,102.9345,69.3721,103.2271,63.748,102.9418,58.124,103,52.5,102.8944,52.4562,103.2167,52.1756,103.0875,51.7078,103.2795,51.3731,103.7856,51.1686,103.7322,50.7322,103.7878,50.8664,104.1795,50.812,104.3983,50.3402,104.8336,50.3912,105.2218,50.3283,105.5,50" style="stroke:#181818;stroke-width:0.5;"/><text fill="#000000" font-family="sans-serif" font-size="14" lengthAdjust="spacing" textLength="42" x="110" y="73.0439">頭等艙</text><polygon fill="#E2E2F0" points="105.5,293.6465,105.5,293.8567,115.7,293.2322,125.9,293.8398,136.1,294.0462,146.3,292.9331,156.5,293.6465,156.4901,293.6226,156.7991,293.6616,157.1582,293.8213,157.552,294.0648,157.826,294.0194,158.2678,294.3787,158.4383,294.4493,158.2201,294.6519,158.4998,295.0606,158.8401,295.4945,158.8271,295.782,159,296.1465,159.0227,296.1465,158.9894,301.7705,159.0595,307.3945,159.0797,313.0186,159.1952,318.6426,159,324.2666,159.2067,324.3522,159.0627,324.7068,158.7855,325.0062,158.7034,325.3864,158.6305,325.7704,158.2678,326.0344,158.1758,325.8123,158.0008,326.3898,157.5228,326.236,157.2752,326.6381,156.7904,326.4677,156.5,326.7666,156.5,326.6981,146.3,327.5082,136.1,326.7179,125.9,326.8719,115.7,327.1052,105.5,326.7666,105.5531,326.8948,105.1459,326.619,104.8295,326.5622,104.3663,326.151,104.1221,326.2684,103.7322,326.0344,103.9011,326.1043,103.7227,325.7375,103.6281,325.4055,103.1441,324.9121,102.9456,324.537,103,324.2666,102.7929,324.2666,102.9804,318.6426,102.9345,313.0186,103.2271,307.3945,102.9418,301.7705,103,296.1465,102.8944,296.1027,103.2167,295.822,103.0875,295.3543,103.2795,295.0196,103.7856,294.8151,103.7322,294.3787,103.7878,294.5129,104.1795,294.4585,104.3983,293.9867,104.8336,294.0377,105.2218,293.9748,105.5,293.6465" style="stroke:#181818;stroke-width:0.5;"/><text fill="#000000" font-family="sans-serif" font-size="14" lengthAdjust="spacing" textLength="42" x="110" y="316.6904">頭等艙</text><polygon fill="#E2E2F0" points="191.5,50,191.5,50.2102,201.7,49.5857,211.9,50.1933,222.1,50.3997,232.3,49.2866,242.5,50,242.4901,49.9761,242.7991,50.0151,243.1582,50.1748,243.552,50.4184,243.826,50.3729,244.2678,50.7322,244.4383,50.8029,244.2201,51.0054,244.4998,51.4141,244.8401,51.848,244.8271,52.1355,245,52.5,245.0227,52.5,244.9894,58.124,245.0595,63.748,245.0797,69.3721,245.1952,74.9961,245,80.6201,245.2067,80.7057,245.0627,81.0603,244.7855,81.3597,244.7034,81.7399,244.6305,82.1239,244.2678,82.3879,244.1758,82.1658,244.0008,82.7433,243.5228,82.5895,243.2752,82.9916,242.7904,82.8212,242.5,83.1201,242.5,83.0516,232.3,83.8617,222.1,83.0714,211.9,83.2254,201.7,83.4587,191.5,83.1201,191.5531,83.2483,191.1459,82.9725,190.8295,82.9157,190.3663,82.5045,190.1221,82.6219,189.7322,82.3879,189.9011,82.4578,189.7227,82.091,189.6281,81.759,189.1441,81.2656,188.9456,80.8905,189,80.6201,188.7929,80.6201,188.9804,74.9961,188.9345,69.3721,189.2271,63.748,188.9418,58.124,189,52.5,188.8944,52.4562,189.2167,52.1756,189.0875,51.7078,189.2795,51.3731,189.7856,51.1686,189.7322,50.7322,189.7878,50.8664,190.1795,50.812,190.3983,50.3402,190.8336,50.3912,191.2218,50.3283,191.5,50" style="stroke:#181818;stroke-width:0.5;"/><text fill="#000000" font-family="sans-serif" font-size="14" lengthAdjust="spacing" textLength="42" x="196" y="73.0439">第二類</text><polygon fill="#E2E2F0" points="191.5,293.6465,191.5,293.8567,201.7,293.2322,211.9,293.8398,222.1,294.0462,232.3,292.9331,242.5,293.6465,242.4901,293.6226,242.7991,293.6616,243.1582,293.8213,243.552,294.0648,243.826,294.0194,244.2678,294.3787,244.4383,294.4493,244.2201,294.6519,244.4998,295.0606,244.8401,295.4945,244.8271,295.782,245,296.1465,245.0227,296.1465,244.9894,301.7705,245.0595,307.3945,245.0797,313.0186,245.1952,318.6426,245,324.2666,245.2067,324.3522,245.0627,324.7068,244.7855,325.0062,244.7034,325.3864,244.6305,325.7704,244.2678,326.0344,244.1758,325.8123,244.0008,326.3898,243.5228,326.236,243.2752,326.6381,242.7904,326.4677,242.5,326.7666,242.5,326.6981,232.3,327.5082,222.1,326.7179,211.9,326.8719,201.7,327.1052,191.5,326.7666,191.5531,326.8948,191.1459,326.619,190.8295,326.5622,190.3663,326.151,190.1221,326.2684,189.7322,326.0344,189.9011,326.1043,189.7227,325.7375,189.6281,325.4055,189.1441,324.9121,188.9456,324.537,189,324.2666,188.7929,324.2666,188.9804,318.6426,188.9345,313.0186,189.2271,307.3945,188.9418,301.7705,189,296.1465,188.8944,296.1027,189.2167,295.822,189.0875,295.3543,189.2795,295.0196,189.7856,294.8151,189.7322,294.3787,189.7878,294.5129,190.1795,294.4585,190.3983,293.9867,190.8336,294.0377,191.2218,293.9748,191.5,293.6465" style="stroke:#181818;stroke-width:0.5;"/><text fill="#000000" font-family="sans-serif" font-size="14" lengthAdjust="spacing" textLength="42" x="196" y="316.6904">第二類</text><polygon fill="#E2E2F0" points="289.5,50,289.5,50.2102,299.375,49.5857,309.25,50.1933,319.125,50.3997,329,49.2866,338.875,49.9223,348.75,49.5735,358.625,49.6165,368.5,50,368.4913,49.979,368.7654,49.9335,369.2777,50.4634,369.4803,50.2452,369.889,50.5249,370.2678,50.7322,370.4008,50.7873,370.3878,51.0748,370.5817,51.448,370.6973,51.7888,370.9085,52.1692,371,52.5,371.0797,52.5,371.1952,58.124,371.2237,63.748,371.2264,69.3721,371.0849,74.9961,371,80.6201,371.1428,80.6793,371.0698,81.0632,370.485,81.2352,370.7696,81.7673,370.3229,81.9965,370.2678,82.3879,370.3359,82.5523,369.8511,82.3819,369.5519,82.6597,369.3017,83.0556,368.8473,82.9587,368.5,83.1201,368.5,83.2254,358.625,83.4587,348.75,83.5363,338.875,83.1162,329,83.4073,319.125,82.5477,309.25,83.4045,299.375,83.6683,289.5,83.1201,289.5567,83.257,289.2246,83.1625,288.7313,82.6785,288.3561,82.4799,288.0065,82.343,287.7322,82.3879,287.7141,82.3804,287.5253,82.0093,287.6492,81.7677,287.2391,81.3049,287.0408,80.9299,287,80.6201,287.0761,80.6201,286.7777,74.9961,286.827,69.3721,287.2163,63.748,287.1452,58.124,287,52.5,287.2262,52.5937,287.0473,52.1054,287.3912,51.8336,287.6212,51.5147,287.4403,51.0255,287.7322,50.7322,287.72,50.7027,288.1019,50.6246,288.5225,50.6401,288.7924,50.2916,289.2055,50.2889,289.5,50" style="stroke:#181818;stroke-width:0.5;"/><text fill="#000000" font-family="sans-serif" font-size="14" lengthAdjust="spacing" textLength="70" x="294" y="73.0439">最後一堂課</text><polygon fill="#E2E2F0" points="289.5,293.6465,289.5,293.8567,299.375,293.2322,309.25,293.8398,319.125,294.0462,329,292.9331,338.875,293.5688,348.75,293.22,358.625,293.263,368.5,293.6465,368.4913,293.6255,368.7654,293.58,369.2777,294.1099,369.4803,293.8917,369.889,294.1714,370.2678,294.3787,370.4008,294.4338,370.3878,294.7213,370.5817,295.0945,370.6973,295.4353,370.9085,295.8157,371,296.1465,371.0797,296.1465,371.1952,301.7705,371.2237,307.3945,371.2264,313.0186,371.0849,318.6426,371,324.2666,371.1428,324.3257,371.0698,324.7097,370.485,324.8817,370.7696,325.4138,370.3229,325.643,370.2678,326.0344,370.3359,326.1988,369.8511,326.0284,369.5519,326.3062,369.3017,326.7021,368.8473,326.6051,368.5,326.7666,368.5,326.8719,358.625,327.1052,348.75,327.1828,338.875,326.7627,329,327.0538,319.125,326.1942,309.25,327.051,299.375,327.3148,289.5,326.7666,289.5567,326.9035,289.2246,326.8089,288.7313,326.3249,288.3561,326.1264,288.0065,325.9894,287.7322,326.0344,287.7141,326.0269,287.5253,325.6557,287.6492,325.4142,287.2391,324.9514,287.0408,324.5764,287,324.2666,287.0761,324.2666,286.7777,318.6426,286.827,313.0186,287.2163,307.3945,287.1452,301.7705,287,296.1465,287.2262,296.2402,287.0473,295.7519,287.3912,295.4801,287.6212,295.1611,287.4403,294.672,287.7322,294.3787,287.72,294.3492,288.1019,294.2711,288.5225,294.2865,288.7924,293.9381,289.2055,293.9354,289.5,293.6465" style="stroke:#181818;stroke-width:0.5;"/><text fill="#000000" font-family="sans-serif" font-size="14" lengthAdjust="spacing" textLength="70" x="294" y="316.6904">最後一堂課</text><polygon fill="#FFFFFF" points="126,117.8745,126,117.9446,128,117.7364,130,117.9389,132,118.0077,134,117.6367,136,117.8745,135.9223,117.8745,135.5735,127.7978,135.6165,137.721,135.9318,147.6443,135.3086,157.5675,136.5536,167.4908,135.3697,177.414,135.8022,187.3372,136.4319,197.2605,135.9142,207.1837,136.0682,217.107,135.9681,227.0302,136.1785,236.9535,136.2391,246.8767,136.5857,256.8,136.6711,266.7232,136,276.6465,136,276.8729,134,276.7314,132,276.801,130,276.8806,128,276.4061,126,276.6465,126.6785,276.6465,125.7035,266.7232,126.5338,256.8,125.505,246.8767,125.9315,236.9535,126.7416,227.0302,125.9513,217.107,126.1053,207.1837,126.3386,197.2605,126.4162,187.3372,125.9961,177.414,126.2872,167.4908,125.4276,157.5675,126.2844,147.6443,126.5482,137.721,126.4445,127.7978,126,117.8745" style="stroke:#181818;stroke-width:1.0;"/><polygon fill="#FFFFFF" points="212,149.6289,212,149.699,214,149.4908,216,149.6933,218,149.7621,220,149.3911,222,149.6289,221.9223,149.6289,221.5735,159.1552,221.6165,168.6815,221.9318,178.2079,221.3086,187.7342,222.5536,197.2605,221.3697,206.7868,221.8022,216.3131,222.4319,225.8395,221.9142,235.3658,222,244.8921,222,244.9148,220,244.8814,218,244.9516,216,244.9718,214,245.0873,212,244.8921,212.6711,244.8921,212.6793,235.3658,212.2546,225.8395,212.4636,216.3131,212.7022,206.7868,211.2788,197.2605,212.6785,187.7342,211.7035,178.2079,212.5338,168.6815,211.505,159.1552,212,149.6289" style="stroke:#181818;stroke-width:1.0;"/><polygon fill="#FFFFFF" points="324,181.3833,324,181.4534,326,181.2452,328,181.4477,330,181.5165,332,181.1455,334,181.3833,333.9741,181.3833,333.8578,187.7342,333.8722,194.0851,333.9773,200.4359,333.7695,206.7868,334,213.1377,334,213.3222,332,212.9276,330,213.0718,328,213.2817,326,213.1091,324,213.1377,324.0227,213.1377,323.9894,206.7868,324.0595,200.4359,324.0797,194.0851,324.1952,187.7342,324,181.3833" style="stroke:#181818;stroke-width:1.0;"/><polygon fill="#181818" points="114,113.8745,114.026,113.9396,115.9487,114.5463,118.0239,115.5343,120.0495,116.3982,121.9117,116.8537,124,117.8745,123.9904,117.8505,121.9472,118.5425,119.9525,119.3558,117.9916,120.2534,115.9144,120.8605,114,121.8745,114.1305,122.005,114.6514,120.926,115.5534,120.2279,116.5018,119.5763,117.1798,118.6543,118,117.8745,118.0161,117.8906,117.1925,117.067,116.4421,116.3166,115.6564,115.5309,114.938,114.8126,114,113.8745" style="stroke:#181818;stroke-width:1.0;"/><path d="M29,117.8745 L29,118.1548 L39.1111,117.3221 L49.2222,118.1322 L59.3333,118.4074 L69.4444,116.9233 L79.5556,117.7709 L89.6667,117.3059 L99.7778,117.3632 L109.8889,117.7836 L120,117.8745 " fill="none" style="stroke:#181818;stroke-width:1.0;"/><text fill="#000000" font-family="sans-serif" font-size="13" lengthAdjust="spacing" textLength="78" x="36" y="113.0181">完成這項工作</text><polygon fill="#181818" points="200,145.6289,200.026,145.694,201.9487,146.3007,204.0239,147.2887,206.0495,148.1526,207.9117,148.6081,210,149.6289,209.9904,149.6049,207.9472,150.2969,205.9525,151.1102,203.9916,152.0078,201.9144,152.6149,200,153.6289,200.1305,153.7594,200.6514,152.6803,201.5534,151.9823,202.5018,151.3307,203.1798,150.4087,204,149.6289,204.0161,149.645,203.1925,148.8214,202.4421,148.071,201.6564,147.2853,200.938,146.567,200,145.6289" style="stroke:#181818;stroke-width:1.0;"/><path d="M136,149.6289 L136,149.9091 L146,149.0765 L156,149.8866 L166,150.1618 L176,148.6777 L186,149.5253 L196,149.0602 L206,149.6289 " fill="none" style="stroke:#181818;stroke-width:1.0;"/><text fill="#000000" font-family="sans-serif" font-size="13" lengthAdjust="spacing" textLength="52" x="143" y="144.7725">創建請求</text><polygon fill="#181818" points="312,177.3833,312.026,177.4484,313.9487,178.0551,316.0239,179.0431,318.0495,179.907,319.9117,180.3625,322,181.3833,321.9904,181.3592,319.9472,182.0513,317.9525,182.8646,315.9916,183.7622,313.9144,184.3693,312,185.3833,312.1305,185.5138,312.6514,184.4347,313.5534,183.7367,314.5018,183.0851,315.1798,182.1631,316,181.3833,316.0161,181.3994,315.1925,180.5758,314.4421,179.8254,313.6564,179.0397,312.938,178.3213,312,177.3833" style="stroke:#181818;stroke-width:1.0;"/><path d="M222,181.3833 L222,181.6635 L231.6,180.8309 L241.2,181.641 L250.8,181.9162 L260.4,180.4321 L270,181.2797 L279.6,180.8146 L289.2,180.872 L298.8,181.2924 L308.4,180.4615 L318,181.3833 " fill="none" style="stroke:#181818;stroke-width:1.0;"/><text fill="#000000" font-family="sans-serif" font-size="13" lengthAdjust="spacing" textLength="52" x="229" y="176.5269">創建請求</text><polygon fill="#181818" points="233,209.1377,233.026,209.2027,230.9487,209.8095,229.0239,210.7975,227.0495,211.6614,224.9117,212.1169,223,213.1377,222.9904,213.1136,224.9472,213.8057,226.9525,214.619,228.9916,215.5166,230.9144,216.1237,233,217.1377,233.1305,217.2682,232.0514,216.1891,231.3534,215.4911,230.7018,214.8395,229.7798,213.9175,229,213.1377,229.0161,213.1538,229.7925,212.3302,230.6421,211.5798,231.4564,210.7941,232.338,210.0757,233,209.1377" style="stroke:#181818;stroke-width:1.0;"/><path d="M227,213.1377 L227,213.4179 L237.1,212.5853 L247.2,213.3954 L257.3,213.6706 L267.4,212.1865 L277.5,213.0341 L287.6,212.569 L297.7,212.6264 L307.8,213.0468 L317.9,212.2159 L328,213.1377 " fill="none" style="stroke:#181818;stroke-width:1.0;stroke-dasharray:2.0,2.0;"/><text fill="#000000" font-family="sans-serif" font-size="13" lengthAdjust="spacing" textLength="78" x="239" y="208.2813">這項工作完成</text><path d="M320,204.1377 L320.0661,204.2037 L323.4698,207.6075 L327.2607,211.3984 L330.9256,215.0633 L334.1758,218.3135 L338,222.1377 " fill="none" style="stroke:#A80036;stroke-width:2.0;"/><path d="M320,222.1377 L320.0661,222.2037 L323.4698,218.4075 L327.2607,214.9984 L330.9256,211.4633 L334.1758,207.5135 L338,204.1377 " fill="none" style="stroke:#A80036;stroke-width:2.0;"/><polygon fill="#181818" points="147,240.8921,147.026,240.9571,144.9487,241.5639,143.0239,242.5519,141.0495,243.4158,138.9117,243.8713,137,244.8921,136.9904,244.868,138.9472,245.5601,140.9525,246.3734,142.9916,247.271,144.9144,247.8781,147,248.8921,147.1305,249.0226,146.0514,247.9435,145.3534,247.2455,144.7018,246.5939,143.7798,245.6719,143,244.8921,143.0161,244.9082,143.7925,244.0846,144.6421,243.3342,145.4564,242.5485,146.338,241.8301,147,240.8921" style="stroke:#181818;stroke-width:1.0;"/><path d="M141,244.8921 L141,245.1723 L150.375,244.3397 L159.75,245.1498 L169.125,245.425 L178.5,243.9409 L187.875,244.7885 L197.25,244.3234 L206.625,244.3808 L216,244.8921 " fill="none" style="stroke:#181818;stroke-width:1.0;stroke-dasharray:2.0,2.0;"/><text fill="#000000" font-family="sans-serif" font-size="13" lengthAdjust="spacing" textLength="52" x="153" y="240.0356">請求創建</text><polygon fill="#181818" points="40,272.6465,40.026,272.7115,37.9487,273.3183,36.0239,274.3063,34.0495,275.1702,31.9117,275.6257,30,276.6465,29.9904,276.6224,31.9472,277.3145,33.9525,278.1278,35.9916,279.0254,37.9144,279.6325,40,280.6465,40.1305,280.777,39.0514,279.6979,38.3534,278.9999,37.7018,278.3483,36.7798,277.4263,36,276.6465,36.0161,276.6626,36.7925,275.839,37.6421,275.0886,38.4564,274.3028,39.338,273.5845,40,272.6465" style="stroke:#181818;stroke-width:1.0;"/><path d="M34,276.6465 L34,276.9267 L43.6,276.0941 L53.2,276.9042 L62.8,277.1794 L72.4,275.6953 L82,276.5429 L91.6,276.0778 L101.2,276.1352 L110.8,276.5556 L120.4,275.7247 L130,276.6465 " fill="none" style="stroke:#181818;stroke-width:1.0;stroke-dasharray:2.0,2.0;"/><text fill="#000000" font-family="sans-serif" font-size="13" lengthAdjust="spacing" textLength="26" x="46" y="271.79">做完</text><!--MD5=[8120bebd0855598e58ac61975fa50605]
@startuml
skinparam handwritten true
skinparam backgroundColor #EEEBDC

actor 使用者
participant "頭等艙" as A
participant "第二類" as B
participant "最後一堂課" as 別的東西

使用者 -> A: 完成這項工作
activate A

A -> B: 創建請求
activate B

B -> 別的東西: 創建請求
activate 別的東西
別的東西 - -> B: 這項工作完成
destroy 別的東西

B - -> A: 請求創建
deactivate B

A - -> 使用者: 做完
deactivate A
@enduml

PlantUML version 1.2022.4(Sat Apr 09 21:29:17 CST 2022)
(GPL source distribution)
Java Runtime: Java(TM) SE Runtime Environment
JVM: Java HotSpot(TM) 64-Bit Server VM
Default Encoding: GBK
Language: zh
Country: CN
--></g></svg>