<svg xmlns="http://www.w3.org/2000/svg" xmlns:xlink="http://www.w3.org/1999/xlink" style="width:109px;height:107px;background:#fff" width="109" height="107" contentStyleType="text/css" preserveAspectRatio="none" version="1.1" viewBox="0 0 109 107" zoomAndPan="magnify"><g><g id="elem_ArrayList"><rect id="ArrayList" width="88" height="86.24" x="7" y="7" fill="#F1F1F1" codeLine="2" rx="2.5" ry="2.5" style="stroke:#181818;stroke-width:.5"/><ellipse cx="22" cy="23" fill="#ADD1B2" rx="11" ry="11" style="stroke:#181818;stroke-width:1"/><path fill="#000" d="M20.5781,28.3594 Q18.7188,28.3594 17.625,26.9688 Q16.5313,25.5781 16.5313,22.5938 Q16.5313,20.0625 17.6953,18.4063 Q18.8594,16.75 20.8438,16.75 Q22.3125,16.75 22.7813,16.875 Q23.25,17.0781 23.25,17.0781 Q23.25,17.0781 23.25,17.0078 Q23.25,16.9375 23.8594,16.0156 L24.9063,19.6719 L23.5781,20.0781 Q23.1094,18.5313 22.4453,17.8672 Q21.7813,17.2031 20.7188,17.2031 Q20.3281,17.2031 19.5625,18.7344 Q18.7969,20.2656 18.7969,22.5156 Q18.7969,24.9844 19.4609,26.375 Q20.125,27.7656 20.6563,27.7656 Q21.7188,27.7656 22.4766,27 Q23.2344,26.2344 23.5781,24.5781 L24.9063,25.1719 Q24.5781,26.5781 23.6797,27.4688 Q22.7813,28.3594 20.5781,28.3594 Z"/><text x="36" y="29.484" fill="#000" font-family="sans-serif" font-size="14" lengthAdjust="spacing" textLength="56">ArrayList</text><line style="stroke:#181818;stroke-width:.5" x1="8" x2="94" y1="39" y2="39"/><line style="stroke:#181818;stroke-width:.5" x1="8" x2="94" y1="47" y2="47"/><text x="13" y="67.044" fill="#000" font-family="sans-serif" font-size="14" lengthAdjust="spacing" textLength="53">int size()</text><text x="13" y="86.164" fill="#000" font-family="sans-serif" font-size="14" lengthAdjust="spacing" textLength="71">void clear()</text></g></g></svg>