<?xml version="1.0" encoding="UTF-8" standalone="no"?><svg xmlns="http://www.w3.org/2000/svg" xmlns:xlink="http://www.w3.org/1999/xlink" contentStyleType="text/css" height="88px" preserveAspectRatio="none" style="width:118px;height:88px;background:#FFFFFF;" version="1.1" viewBox="0 0 118 88" width="118px" zoomAndPan="magnify"><defs/><g><!--MD5=[a7341930b10dc4f5414e3bba4c3f8ca3]
class foo--><g id="elem_foo"><rect codeLine="3" fill="#F1F1F1" height="67.1201" id="foo" rx="2.5" ry="2.5" style="stroke:#181818;stroke-width:0.5;" width="97" x="7" y="7"/><ellipse cx="42.25" cy="23" fill="#ADD1B2" rx="11" ry="11" style="stroke:#181818;stroke-width:1.0;"/><path d="M40.8281,28.3594 Q38.9688,28.3594 37.875,26.9688 Q36.7813,25.5781 36.7813,22.5938 Q36.7813,20.0625 37.9453,18.4063 Q39.1094,16.75 41.0938,16.75 Q42.5625,16.75 43.0313,16.875 Q43.5,17.0781 43.5,17.0781 Q43.5,17.0781 43.5,17.0078 Q43.5,16.9375 44.1094,16.0156 L45.1563,19.6719 L43.8281,20.0781 Q43.3594,18.5313 42.6953,17.8672 Q42.0313,17.2031 40.9688,17.2031 Q40.5781,17.2031 39.8125,18.7344 Q39.0469,20.2656 39.0469,22.5156 Q39.0469,24.9844 39.7109,26.375 Q40.375,27.7656 40.9063,27.7656 Q41.9688,27.7656 42.7266,27 Q43.4844,26.2344 43.8281,24.5781 L45.1563,25.1719 Q44.8281,26.5781 43.9297,27.4688 Q43.0313,28.3594 40.8281,28.3594 Z " fill="#000000"/><text fill="#000000" font-family="sans-serif" font-size="14" lengthAdjust="spacing" textLength="20" x="60.75" y="29.4839">foo</text><line style="stroke:#181818;stroke-width:0.5;" x1="8" x2="103" y1="39" y2="39"/><text fill="#000000" font-family="sans-serif" font-size="14" lengthAdjust="spacing" textLength="85" x="13" y="59.0439">This is shown</text><line style="stroke:#181818;stroke-width:0.5;" x1="8" x2="103" y1="66.1201" y2="66.1201"/></g><!--MD5=[d27f74f31ab19032031a8d58d6d2cccf]
@startuml
!define SHOW_FIELDS
!undef SHOW_METHODS
class foo {
!ifdef SHOW_FIELDS || SHOW_METHODS
This is shown
!endif
!ifdef SHOW_FIELDS && SHOW_METHODS
This is NOT shown
!endif
}
@enduml

@startuml
class foo {
This is shown
}
@enduml

PlantUML version 1.2022.4(Sat Apr 09 21:29:17 CST 2022)
(GPL source distribution)
Java Runtime: Java(TM) SE Runtime Environment
JVM: Java HotSpot(TM) 64-Bit Server VM
Default Encoding: GBK
Language: zh
Country: CN
--></g></svg>