<?xml version="1.0" encoding="UTF-8" standalone="no"?><svg xmlns="http://www.w3.org/2000/svg" xmlns:xlink="http://www.w3.org/1999/xlink" contentStyleType="text/css" height="126px" preserveAspectRatio="none" style="width:283px;height:126px;background:#FFFFFF;" version="1.1" viewBox="0 0 283 126" width="283px" zoomAndPan="magnify"><defs/><g><!--MD5=[a7341930b10dc4f5414e3bba4c3f8ca3]
class foo--><g id="elem_foo"><rect codeLine="2" fill="#F1F1F1" height="105.3604" id="foo" rx="2.5" ry="2.5" style="stroke:#181818;stroke-width:0.5;" width="262" x="7" y="7"/><ellipse cx="123.75" cy="23" fill="#ADD1B2" rx="11" ry="11" style="stroke:#181818;stroke-width:1.0;"/><path d="M122.3281,28.3594 Q120.4688,28.3594 119.375,26.9688 Q118.2813,25.5781 118.2813,22.5938 Q118.2813,20.0625 119.4453,18.4063 Q120.6094,16.75 122.5938,16.75 Q124.0625,16.75 124.5313,16.875 Q125,17.0781 125,17.0781 Q125,17.0781 125,17.0078 Q125,16.9375 125.6094,16.0156 L126.6563,19.6719 L125.3281,20.0781 Q124.8594,18.5313 124.1953,17.8672 Q123.5313,17.2031 122.4688,17.2031 Q122.0781,17.2031 121.3125,18.7344 Q120.5469,20.2656 120.5469,22.5156 Q120.5469,24.9844 121.2109,26.375 Q121.875,27.7656 122.4063,27.7656 Q123.4688,27.7656 124.2266,27 Q124.9844,26.2344 125.3281,24.5781 L126.6563,25.1719 Q126.3281,26.5781 125.4297,27.4688 Q124.5313,28.3594 122.3281,28.3594 Z " fill="#000000"/><text fill="#000000" font-family="sans-serif" font-size="14" lengthAdjust="spacing" textLength="20" x="144.25" y="29.4839">foo</text><line style="stroke:#181818;stroke-width:0.5;" x1="8" x2="268" y1="39" y2="39"/><text fill="#000000" font-family="sans-serif" font-size="14" lengthAdjust="spacing" textLength="112" x="13" y="59.0439">Z1 and Z2 and Z3</text><text fill="#000000" font-family="sans-serif" font-size="14" lengthAdjust="spacing" textLength="192" x="13" y="78.1641">Z1 and Z2 and another default</text><text fill="#000000" font-family="sans-serif" font-size="14" lengthAdjust="spacing" textLength="250" x="13" y="97.2842">A and some default and another default</text><line style="stroke:#181818;stroke-width:0.5;" x1="8" x2="268" y1="104.3604" y2="104.3604"/></g><!--MD5=[600df1cb23f02a652e11e0a67373c036]
@startuml
!define some_macro(x, y = "some default" , z = 'another default' ) x and y and z
class foo {
  some_macro(Z1, Z2, Z3)
  some_macro(Z1, Z2)
  some_macro(A)
}
@enduml

@startuml
class foo {
  Z1 and Z2 and Z3
  Z1 and Z2 and another default
  A and some default and another default
}
@enduml

PlantUML version 1.2022.4(Sat Apr 09 21:29:17 CST 2022)
(GPL source distribution)
Java Runtime: Java(TM) SE Runtime Environment
JVM: Java HotSpot(TM) 64-Bit Server VM
Default Encoding: GBK
Language: zh
Country: CN
--></g></svg>