<?xml version="1.0" encoding="UTF-8" standalone="no"?><svg xmlns="http://www.w3.org/2000/svg" xmlns:xlink="http://www.w3.org/1999/xlink" contentStyleType="text/css" height="208px" preserveAspectRatio="none" style="width:102px;height:208px;background:#FFFFFF;" version="1.1" viewBox="0 0 102 208" width="102px" zoomAndPan="magnify"><defs/><g><!--MD5=[3d4177ac58b4411586d067f34e84928f]
class List--><g id="elem_List"><rect codeLine="0" fill="#F1F1F1" height="86.2402" id="List" rx="2.5" ry="2.5" style="stroke:#181818;stroke-width:0.5;" width="83" x="9.5" y="7"/><ellipse cx="37.55" cy="23" fill="#B4A7E5" rx="11" ry="11" style="stroke:#181818;stroke-width:1.0;"/><path d="M34.1438,17.2813 L34.1438,16.875 L40.4563,16.875 L40.4563,17.2813 L37.925,17.2813 Q37.925,17.2813 38.0734,17.4141 Q38.2219,17.5469 38.2219,17.8125 L38.2219,27.2969 Q38.2219,27.5625 38.4406,27.6953 Q38.6594,27.8281 38.6594,27.8281 L40.4563,27.8281 L40.4563,28.2344 L34.1438,28.2344 L34.1438,27.8281 L35.675,27.8281 Q36.0031,27.8281 36.1359,27.6953 Q36.2688,27.5625 36.2688,27.2969 L36.2688,17.8125 Q36.2688,17.5469 36.1359,17.4141 Q36.0031,17.2813 35.675,17.2813 L34.1438,17.2813 Z " fill="#000000"/><text fill="#000000" font-family="sans-serif" font-size="14" font-style="italic" lengthAdjust="spacing" textLength="22" x="54.45" y="29.4839">List</text><line style="stroke:#181818;stroke-width:0.5;" x1="10.5" x2="91.5" y1="39" y2="39"/><line style="stroke:#181818;stroke-width:0.5;" x1="10.5" x2="91.5" y1="47" y2="47"/><text fill="#000000" font-family="sans-serif" font-size="14" lengthAdjust="spacing" textLength="53" x="15.5" y="67.0439">int size()</text><text fill="#000000" font-family="sans-serif" font-size="14" lengthAdjust="spacing" textLength="71" x="15.5" y="86.1641">void clear()</text></g><!--MD5=[ab8871ed637f40707b866ba6597734bc]
class ArrayList--><g id="elem_ArrayList"><rect fill="#F1F1F1" height="48" id="ArrayList" rx="2.5" ry="2.5" style="stroke:#181818;stroke-width:0.5;" width="88" x="7" y="153"/><ellipse cx="22" cy="169" fill="#ADD1B2" rx="11" ry="11" style="stroke:#181818;stroke-width:1.0;"/><path d="M20.5781,174.3594 Q18.7188,174.3594 17.625,172.9688 Q16.5313,171.5781 16.5313,168.5938 Q16.5313,166.0625 17.6953,164.4063 Q18.8594,162.75 20.8438,162.75 Q22.3125,162.75 22.7813,162.875 Q23.25,163.0781 23.25,163.0781 Q23.25,163.0781 23.25,163.0078 Q23.25,162.9375 23.8594,162.0156 L24.9063,165.6719 L23.5781,166.0781 Q23.1094,164.5313 22.4453,163.8672 Q21.7813,163.2031 20.7188,163.2031 Q20.3281,163.2031 19.5625,164.7344 Q18.7969,166.2656 18.7969,168.5156 Q18.7969,170.9844 19.4609,172.375 Q20.125,173.7656 20.6563,173.7656 Q21.7188,173.7656 22.4766,173 Q23.2344,172.2344 23.5781,170.5781 L24.9063,171.1719 Q24.5781,172.5781 23.6797,173.4688 Q22.7813,174.3594 20.5781,174.3594 Z " fill="#000000"/><text fill="#000000" font-family="sans-serif" font-size="14" lengthAdjust="spacing" textLength="56" x="36" y="175.4839">ArrayList</text><line style="stroke:#181818;stroke-width:0.5;" x1="8" x2="94" y1="185" y2="185"/><line style="stroke:#181818;stroke-width:0.5;" x1="8" x2="94" y1="193" y2="193"/></g><!--MD5=[de70471c1aeb5b441f3202b5f0dab243]
reverse link List to ArrayList--><g id="link_List_ArrayList"><path codeLine="2" d="M51,113.495 C51,127.489 51,141.4833 51,152.6717 " fill="none" id="List-backto-ArrayList" style="stroke:#181818;stroke-width:1.0;stroke-dasharray:7.0,7.0;"/><polygon fill="none" points="44.0001,113.3193,51,93.319,58.0001,113.3193,44.0001,113.3193" style="stroke:#181818;stroke-width:1.0;"/></g><!--MD5=[0f88ee63f4ed91c5f76bac996a5c7568]
@startuml
!include List.iuml
List <|.. ArrayList
@enduml

@startuml
interface List
List : int size()
List : void clear()
List <|.. ArrayList
@enduml

PlantUML version 1.2022.4(Sat Apr 09 21:29:17 CST 2022)
(GPL source distribution)
Java Runtime: Java(TM) SE Runtime Environment
JVM: Java HotSpot(TM) 64-Bit Server VM
Default Encoding: GBK
Language: zh
Country: CN
--></g></svg>