<?xml version="1.0" encoding="UTF-8" standalone="no"?><svg xmlns="http://www.w3.org/2000/svg" xmlns:xlink="http://www.w3.org/1999/xlink" contentStyleType="text/css" height="389px" preserveAspectRatio="none" style="width:331px;height:389px;background:#FFFFFF;" version="1.1" viewBox="0 0 331 389" width="331px" zoomAndPan="magnify"><defs/><g><rect fill="#FFFFFF" height="260.6465" style="stroke:#181818;stroke-width:1.0;" width="10" x="99.5" y="72.8745"/><rect fill="#FFFFFF" height="150.3833" style="stroke:#181818;stroke-width:1.0;" width="10" x="104.5" y="112.6289"/><rect fill="#005500" height="75.8745" style="stroke:#181818;stroke-width:1.0;" width="10" x="109.5" y="149.3833"/><line style="stroke:#181818;stroke-width:0.5;stroke-dasharray:5.0,5.0;" x1="26" x2="26" y1="39.1201" y2="351.521"/><line style="stroke:#181818;stroke-width:0.5;stroke-dasharray:5.0,5.0;" x1="104.5" x2="104.5" y1="39.1201" y2="351.521"/><line style="stroke:#181818;stroke-width:0.5;stroke-dasharray:5.0,5.0;" x1="245" x2="245" y1="39.1201" y2="351.521"/><line style="stroke:#181818;stroke-width:0.5;stroke-dasharray:5.0,5.0;" x1="298" x2="298" y1="189.4434" y2="351.521"/><rect fill="#E2E2F0" height="33.1201" rx="2.5" ry="2.5" style="stroke:#181818;stroke-width:0.5;" width="43" x="5" y="5"/><text fill="#000000" font-family="sans-serif" font-size="14" lengthAdjust="spacing" textLength="29" x="12" y="28.0439">alice</text><rect fill="#E2E2F0" height="33.1201" rx="2.5" ry="2.5" style="stroke:#181818;stroke-width:0.5;" width="43" x="5" y="350.521"/><text fill="#000000" font-family="sans-serif" font-size="14" lengthAdjust="spacing" textLength="29" x="12" y="373.5649">alice</text><rect fill="#E2E2F0" height="33.1201" rx="2.5" ry="2.5" style="stroke:#181818;stroke-width:0.5;" width="38" x="85.5" y="5"/><text fill="#000000" font-family="sans-serif" font-size="14" lengthAdjust="spacing" textLength="24" x="92.5" y="28.0439">bob</text><rect fill="#E2E2F0" height="33.1201" rx="2.5" ry="2.5" style="stroke:#181818;stroke-width:0.5;" width="38" x="85.5" y="350.521"/><text fill="#000000" font-family="sans-serif" font-size="14" lengthAdjust="spacing" textLength="24" x="92.5" y="373.5649">bob</text><rect fill="#E2E2F0" height="33.1201" rx="2.5" ry="2.5" style="stroke:#181818;stroke-width:0.5;" width="31" x="230" y="5"/><text fill="#000000" font-family="sans-serif" font-size="14" lengthAdjust="spacing" textLength="17" x="237" y="28.0439">bill</text><rect fill="#E2E2F0" height="33.1201" rx="2.5" ry="2.5" style="stroke:#181818;stroke-width:0.5;" width="31" x="230" y="350.521"/><text fill="#000000" font-family="sans-serif" font-size="14" lengthAdjust="spacing" textLength="17" x="237" y="373.5649">bill</text><rect fill="#E2E2F0" height="33.1201" rx="2.5" ry="2.5" style="stroke:#181818;stroke-width:0.5;" width="54" x="271" y="350.521"/><text fill="#000000" font-family="sans-serif" font-size="14" lengthAdjust="spacing" textLength="40" x="278" y="373.5649">geoge</text><rect fill="#FFFFFF" height="260.6465" style="stroke:#181818;stroke-width:1.0;" width="10" x="99.5" y="72.8745"/><rect fill="#FFFFFF" height="150.3833" style="stroke:#181818;stroke-width:1.0;" width="10" x="104.5" y="112.6289"/><rect fill="#005500" height="75.8745" style="stroke:#181818;stroke-width:1.0;" width="10" x="109.5" y="149.3833"/><polygon fill="#181818" points="87.5,68.8745,97.5,72.8745,87.5,76.8745,91.5,72.8745" style="stroke:#181818;stroke-width:1.0;"/><line style="stroke:#181818;stroke-width:1.0;" x1="26.5" x2="93.5" y1="72.8745" y2="72.8745"/><text fill="#000000" font-family="sans-serif" font-size="13" lengthAdjust="spacing" textLength="27" x="33.5" y="68.0181">hello</text><line style="stroke:#181818;stroke-width:1.0;" x1="109.5" x2="156.5" y1="99.6289" y2="99.6289"/><line style="stroke:#181818;stroke-width:1.0;" x1="156.5" x2="156.5" y1="99.6289" y2="112.6289"/><line style="stroke:#181818;stroke-width:1.0;" x1="115.5" x2="156.5" y1="112.6289" y2="112.6289"/><polygon fill="#181818" points="125.5,108.6289,115.5,112.6289,125.5,116.6289,121.5,112.6289" style="stroke:#181818;stroke-width:1.0;"/><text fill="#000000" font-family="sans-serif" font-size="13" lengthAdjust="spacing" textLength="44" x="121.5" y="94.7725">self call</text><polygon fill="#181818" points="130.5,145.3833,120.5,149.3833,130.5,153.3833,126.5,149.3833" style="stroke:#181818;stroke-width:1.0;"/><line style="stroke:#181818;stroke-width:1.0;" x1="124.5" x2="244.5" y1="149.3833" y2="149.3833"/><text fill="#000000" font-family="sans-serif" font-size="13" lengthAdjust="spacing" textLength="107" x="136.5" y="144.5269">hello from thread 2</text><polygon fill="#181818" points="259,177.1377,269,181.1377,259,185.1377,263,181.1377" style="stroke:#181818;stroke-width:1.0;"/><line style="stroke:#181818;stroke-width:1.0;" x1="119.5" x2="265" y1="181.1377" y2="181.1377"/><text fill="#000000" font-family="sans-serif" font-size="13" lengthAdjust="spacing" textLength="36" x="126.5" y="176.2813">create</text><rect fill="#E2E2F0" height="33.1201" rx="2.5" ry="2.5" style="stroke:#181818;stroke-width:0.5;" width="54" x="271" y="157.3833"/><text fill="#000000" font-family="sans-serif" font-size="14" lengthAdjust="spacing" textLength="40" x="278" y="180.4272">geoge</text><polygon fill="#181818" points="233.5,221.2578,243.5,225.2578,233.5,229.2578,237.5,225.2578" style="stroke:#181818;stroke-width:1.0;"/><line style="stroke:#181818;stroke-width:1.0;stroke-dasharray:2.0,2.0;" x1="114.5" x2="239.5" y1="225.2578" y2="225.2578"/><text fill="#000000" font-family="sans-serif" font-size="13" lengthAdjust="spacing" textLength="93" x="121.5" y="220.4014">done in thread 2</text><line style="stroke:#181818;stroke-width:1.0;stroke-dasharray:2.0,2.0;" x1="114.5" x2="156.5" y1="262.0122" y2="262.0122"/><line style="stroke:#181818;stroke-width:1.0;stroke-dasharray:2.0,2.0;" x1="156.5" x2="156.5" y1="262.0122" y2="275.0122"/><line style="stroke:#181818;stroke-width:1.0;stroke-dasharray:2.0,2.0;" x1="109.5" x2="156.5" y1="275.0122" y2="275.0122"/><polygon fill="#181818" points="119.5,271.0122,109.5,275.0122,119.5,279.0122,115.5,275.0122" style="stroke:#181818;stroke-width:1.0;"/><text fill="#000000" font-family="sans-serif" font-size="13" lengthAdjust="spacing" textLength="11" x="121.5" y="257.1558">rc</text><polygon fill="#181818" points="286,297.7666,296,301.7666,286,305.7666,290,301.7666" style="stroke:#181818;stroke-width:1.0;"/><line style="stroke:#181818;stroke-width:1.0;" x1="109.5" x2="292" y1="301.7666" y2="301.7666"/><text fill="#000000" font-family="sans-serif" font-size="13" lengthAdjust="spacing" textLength="35" x="116.5" y="296.9102">delete</text><line style="stroke:#A80036;stroke-width:2.0;" x1="289" x2="307" y1="292.7666" y2="310.7666"/><line style="stroke:#A80036;stroke-width:2.0;" x1="289" x2="307" y1="310.7666" y2="292.7666"/><polygon fill="#181818" points="37.5,329.521,27.5,333.521,37.5,337.521,33.5,333.521" style="stroke:#181818;stroke-width:1.0;"/><line style="stroke:#181818;stroke-width:1.0;stroke-dasharray:2.0,2.0;" x1="31.5" x2="103.5" y1="333.521" y2="333.521"/><text fill="#000000" font-family="sans-serif" font-size="13" lengthAdjust="spacing" textLength="49" x="43.5" y="328.6646">success</text><!--MD5=[6209493d70e675bdc8af7324658524af]
@startuml
autoactivate on
alice -> bob : hello
bob -> bob : self call
bill -> bob #005500 : hello from thread 2
bob -> geoge ** : create
return done in thread 2
return rc
bob -> geoge !! : delete
return success
@enduml

PlantUML version 1.2022.4(Sat Apr 09 21:29:17 CST 2022)
(GPL source distribution)
Java Runtime: Java(TM) SE Runtime Environment
JVM: Java HotSpot(TM) 64-Bit Server VM
Default Encoding: GBK
Language: zh
Country: CN
--></g></svg>