<?xml version="1.0" encoding="UTF-8" standalone="no"?><svg xmlns="http://www.w3.org/2000/svg" xmlns:xlink="http://www.w3.org/1999/xlink" contentStyleType="text/css" height="283px" preserveAspectRatio="none" style="width:489px;height:283px;background:#FFFFFF;" version="1.1" viewBox="0 0 489 283" width="489px" zoomAndPan="magnify"><defs/><g><g id="S1"><rect fill="#F1F1F1" height="50" rx="12.5" ry="12.5" style="stroke:#181818;stroke-width:0.5;" width="50" x="92" y="117"/><line style="stroke:#181818;stroke-width:0.5;" x1="92" x2="142" y1="146.1201" y2="146.1201"/><text fill="#000000" font-family="sans-serif" font-size="14" lengthAdjust="spacing" textLength="17" x="108.5" y="138.0439">S1</text></g><g id="S2"><rect fill="#F1F1F1" height="50" rx="12.5" ry="12.5" style="stroke:#181818;stroke-width:0.5;" width="50" x="92" y="227"/><line style="stroke:#181818;stroke-width:0.5;" x1="92" x2="142" y1="256.1201" y2="256.1201"/><text fill="#000000" font-family="sans-serif" font-size="14" lengthAdjust="spacing" textLength="17" x="108.5" y="248.0439">S2</text></g><g id="S3"><rect fill="#F1F1F1" height="50" rx="12.5" ry="12.5" style="stroke:#181818;stroke-width:0.5;" width="50" x="7" y="117"/><line style="stroke:#181818;stroke-width:0.5;" x1="7" x2="57" y1="146.1201" y2="146.1201"/><text fill="#000000" font-family="sans-serif" font-size="14" lengthAdjust="spacing" textLength="17" x="23.5" y="138.0439">S3</text></g><g id="S4"><rect fill="#F1F1F1" height="50" rx="12.5" ry="12.5" style="stroke:#181818;stroke-width:0.5;" width="50" x="92" y="7"/><line style="stroke:#181818;stroke-width:0.5;" x1="92" x2="142" y1="36.1201" y2="36.1201"/><text fill="#000000" font-family="sans-serif" font-size="14" lengthAdjust="spacing" textLength="17" x="108.5" y="28.0439">S4</text></g><g id="S5"><rect fill="#F1F1F1" height="50" rx="12.5" ry="12.5" style="stroke:#181818;stroke-width:0.5;" width="50" x="177" y="117"/><line style="stroke:#181818;stroke-width:0.5;" x1="177" x2="227" y1="146.1201" y2="146.1201"/><text fill="#000000" font-family="sans-serif" font-size="14" lengthAdjust="spacing" textLength="17" x="193.5" y="138.0439">S5</text></g><g id="X1"><rect fill="#F1F1F1" height="50" rx="12.5" ry="12.5" style="stroke:#181818;stroke-width:0.5;" width="50" x="262" y="7"/><line style="stroke:#181818;stroke-width:0.5;" x1="262" x2="312" y1="36.1201" y2="36.1201"/><text fill="#000000" font-family="sans-serif" font-size="14" lengthAdjust="spacing" textLength="16" x="279" y="28.0439">X1</text></g><g id="X2"><rect fill="#F1F1F1" height="50" rx="12.5" ry="12.5" style="stroke:#181818;stroke-width:0.5;" width="50" x="262" y="117"/><line style="stroke:#181818;stroke-width:0.5;" x1="262" x2="312" y1="146.1201" y2="146.1201"/><text fill="#000000" font-family="sans-serif" font-size="14" lengthAdjust="spacing" textLength="16" x="279" y="138.0439">X2</text></g><g id="Z1"><rect fill="#F1F1F1" height="50" rx="12.5" ry="12.5" style="stroke:#181818;stroke-width:0.5;" width="50" x="347" y="7"/><line style="stroke:#181818;stroke-width:0.5;" x1="347" x2="397" y1="36.1201" y2="36.1201"/><text fill="#000000" font-family="sans-serif" font-size="14" lengthAdjust="spacing" textLength="16" x="364" y="28.0439">Z1</text></g><g id="Z2"><rect fill="#F1F1F1" height="50" rx="12.5" ry="12.5" style="stroke:#181818;stroke-width:0.5;" width="50" x="347" y="117"/><line style="stroke:#181818;stroke-width:0.5;" x1="347" x2="397" y1="146.1201" y2="146.1201"/><text fill="#000000" font-family="sans-serif" font-size="14" lengthAdjust="spacing" textLength="16" x="364" y="138.0439">Z2</text></g><g id="Y1"><rect fill="#F1F1F1" height="50" rx="12.5" ry="12.5" style="stroke:#181818;stroke-width:0.5;" width="50" x="432" y="7"/><line style="stroke:#181818;stroke-width:0.5;" x1="432" x2="482" y1="36.1201" y2="36.1201"/><text fill="#000000" font-family="sans-serif" font-size="14" lengthAdjust="spacing" textLength="17" x="448.5" y="28.0439">Y1</text></g><g id="Y2"><rect fill="#F1F1F1" height="50" rx="12.5" ry="12.5" style="stroke:#181818;stroke-width:0.5;" width="50" x="432" y="117"/><line style="stroke:#181818;stroke-width:0.5;" x1="432" x2="482" y1="146.1201" y2="146.1201"/><text fill="#000000" font-family="sans-serif" font-size="14" lengthAdjust="spacing" textLength="17" x="448.5" y="138.0439">Y2</text></g><!--MD5=[15cb110786dd224ca6a510a3d2a24e20]
link S1 to S2--><g id="link_S1_S2"><path d="M117,167.237 C117,183.3565 117,204.6212 117,221.6911 " fill="none" id="S1-to-S2" style="stroke:#DD00AA;stroke-width:1.0;"/><polygon fill="#DD00AA" points="117,226.8436,121,217.8436,117,221.8436,113,217.8436,117,226.8436" style="stroke:#DD00AA;stroke-width:1.0;"/></g><!--MD5=[c7afad01ac44a1bb252125a03f035aa9]
reverse link S3 to S1--><g id="link_S3_S1"><path d="M62.3632,142 C72.1709,142 81.9786,142 91.7864,142 " fill="none" id="S3-backto-S1" style="stroke:#FFFF00;stroke-width:1.0;"/><polygon fill="#FFFF00" points="57.2344,142,66.2344,146,62.2344,142,66.2344,138,57.2344,142" style="stroke:#FFFF00;stroke-width:1.0;"/></g><!--MD5=[4b48b37674f256231f09ca80ca669373]
reverse link S4 to S1--><g id="link_S4_S1"><path d="M117,62.395 C117,79.479 117,100.742 117,116.844 " fill="none" id="S4-backto-S1" style="stroke:#FF0000;stroke-width:1.0;stroke-dasharray:7.0,7.0;"/><polygon fill="#FF0000" points="117,57.237,113,66.237,117,62.237,121,66.237,117,57.237" style="stroke:#FF0000;stroke-width:1.0;"/></g><!--MD5=[a18a3ecbd9ce987dba920617d960e813]
link S1 to S5--><g id="link_S1_S5"><path d="M142.234,142 C152.042,142 161.85,142 171.658,142 " fill="none" id="S1-to-S5" style="stroke:#0000FF;stroke-width:1.0;stroke-dasharray:1.0,3.0;"/><polygon fill="#0000FF" points="176.786,142,167.786,138,171.786,142,167.786,146,176.786,142" style="stroke:#0000FF;stroke-width:1.0;"/></g><!--MD5=[f9da3dba68cb290f0cbb48d63de0fca5]
link X1 to X2--><g id="link_X1_X2"><path d="M287,57.237 C287,73.357 287,94.621 287,111.691 " fill="none" id="X1-to-X2" style="stroke:#181818;stroke-width:1.0;stroke-dasharray:7.0,7.0;"/><polygon fill="#181818" points="287,116.844,291,107.844,287,111.844,283,107.844,287,116.844" style="stroke:#181818;stroke-width:1.0;"/></g><!--MD5=[521f399956d9b10071110ec1da25fb4f]
link Z1 to Z2--><g id="link_Z1_Z2"><path d="M372,57.237 C372,73.357 372,94.621 372,111.691 " fill="none" id="Z1-to-Z2" style="stroke:#181818;stroke-width:1.0;stroke-dasharray:1.0,3.0;"/><polygon fill="#181818" points="372,116.844,376,107.844,372,111.844,368,107.844,372,116.844" style="stroke:#181818;stroke-width:1.0;"/></g><!--MD5=[7d497165a2aef427888b11d2c2860d05]
link Y1 to Y2--><g id="link_Y1_Y2"><path d="M457,57.237 C457,73.357 457,94.621 457,111.691 " fill="none" id="Y1-to-Y2" style="stroke:#0000FF;stroke-width:2.0;"/><polygon fill="#0000FF" points="457,116.844,461,107.844,457,111.844,453,107.844,457,116.844" style="stroke:#0000FF;stroke-width:2.0;"/></g><!--MD5=[a830f9392b13f97cfa38eb631c88c969]
@startuml
State S1
State S2
S1 -[#DD00AA]-> S2
S1 -left[#yellow]-> S3
S1 -up[#red,dashed]-> S4
S1 -right[dotted,#blue]-> S5

X1 -[dashed]-> X2
Z1 -[dotted]-> Z2
Y1 -[#blue,bold]-> Y2
@enduml

PlantUML version 1.2022.4(Sat Apr 09 21:29:17 CST 2022)
(GPL source distribution)
Java Runtime: Java(TM) SE Runtime Environment
JVM: Java HotSpot(TM) 64-Bit Server VM
Default Encoding: GBK
Language: zh
Country: CN
--></g></svg>