<?xml version="1.0" encoding="UTF-8" standalone="no"?><svg xmlns="http://www.w3.org/2000/svg" xmlns:xlink="http://www.w3.org/1999/xlink" contentStyleType="text/css" height="205px" preserveAspectRatio="none" style="width:166px;height:205px;background:#FFFFFF;" version="1.1" viewBox="0 0 166 205" width="166px" zoomAndPan="magnify"><defs/><g><rect fill="#FFFFFF" height="76.5088" style="stroke:#181818;stroke-width:1.0;" width="10" x="71" y="72.8745"/><line style="stroke:#181818;stroke-width:0.5;stroke-dasharray:5.0,5.0;" x1="24" x2="24" y1="39.1201" y2="167.3833"/><line style="stroke:#181818;stroke-width:0.5;stroke-dasharray:5.0,5.0;" x1="76" x2="76" y1="39.1201" y2="167.3833"/><rect fill="#E2E2F0" height="33.1201" rx="2.5" ry="2.5" style="stroke:#181818;stroke-width:0.5;" width="39" x="5" y="5"/><text fill="#000000" font-family="sans-serif" font-size="14" lengthAdjust="spacing" textLength="25" x="12" y="28.0439">Bob</text><rect fill="#E2E2F0" height="33.1201" rx="2.5" ry="2.5" style="stroke:#181818;stroke-width:0.5;" width="39" x="5" y="166.3833"/><text fill="#000000" font-family="sans-serif" font-size="14" lengthAdjust="spacing" textLength="25" x="12" y="189.4272">Bob</text><rect fill="#E2E2F0" height="33.1201" rx="2.5" ry="2.5" style="stroke:#181818;stroke-width:0.5;" width="44" x="54" y="5"/><text fill="#000000" font-family="sans-serif" font-size="14" lengthAdjust="spacing" textLength="30" x="61" y="28.0439">Alice</text><rect fill="#E2E2F0" height="33.1201" rx="2.5" ry="2.5" style="stroke:#181818;stroke-width:0.5;" width="44" x="54" y="166.3833"/><text fill="#000000" font-family="sans-serif" font-size="14" lengthAdjust="spacing" textLength="30" x="61" y="189.4272">Alice</text><rect fill="#FFFFFF" height="76.5088" style="stroke:#181818;stroke-width:1.0;" width="10" x="71" y="72.8745"/><polygon fill="#181818" points="59,68.8745,69,72.8745,59,76.8745,63,72.8745" style="stroke:#181818;stroke-width:1.0;"/><line style="stroke:#181818;stroke-width:1.0;" x1="24.5" x2="65" y1="72.8745" y2="72.8745"/><text fill="#000000" font-family="sans-serif" font-size="13" lengthAdjust="spacing" textLength="27" x="31.5" y="68.0181">hello</text><line style="stroke:#181818;stroke-width:1.0;" x1="81" x2="123" y1="104.6289" y2="104.6289"/><line style="stroke:#181818;stroke-width:1.0;" x1="123" x2="123" y1="104.6289" y2="117.6289"/><line style="stroke:#181818;stroke-width:1.0;" x1="82" x2="123" y1="117.6289" y2="117.6289"/><polygon fill="#181818" points="92,113.6289,82,117.6289,92,121.6289,88,117.6289" style="stroke:#181818;stroke-width:1.0;"/><text fill="#000000" font-family="sans-serif" font-size="13" lengthAdjust="spacing" textLength="71" x="88" y="99.7725">some action</text><polygon fill="#181818" points="35.5,145.3833,25.5,149.3833,35.5,153.3833,31.5,149.3833" style="stroke:#181818;stroke-width:1.0;"/><line style="stroke:#181818;stroke-width:1.0;stroke-dasharray:2.0,2.0;" x1="29.5" x2="75" y1="149.3833" y2="149.3833"/><text fill="#000000" font-family="sans-serif" font-size="13" lengthAdjust="spacing" textLength="21" x="41.5" y="144.5269">bye</text><!--MD5=[1a99e5357b08c12e36bc2be0c06c8339]
@startuml
Bob -> Alice : hello
activate Alice
Alice -> Alice : some action
return bye
@enduml

PlantUML version 1.2022.4(Sat Apr 09 21:29:17 CST 2022)
(GPL source distribution)
Java Runtime: Java(TM) SE Runtime Environment
JVM: Java HotSpot(TM) 64-Bit Server VM
Default Encoding: GBK
Language: zh
Country: CN
--></g></svg>