<?xml version="1.0" encoding="UTF-8" standalone="no"?><svg xmlns="http://www.w3.org/2000/svg" xmlns:xlink="http://www.w3.org/1999/xlink" contentStyleType="text/css" height="278px" preserveAspectRatio="none" style="width:123px;height:278px;background:#FFFFFF;" version="1.1" viewBox="0 0 123 278" width="123px" zoomAndPan="magnify"><defs/><g><!--MD5=[454ed48f055567edc734f170f61b4daf]
class Dog--><a href="http://www.yahoo.com" target="_top" title="This is Dog" xlink:actuate="onRequest" xlink:href="http://www.yahoo.com" xlink:show="new" xlink:title="This is Dog" xlink:type="simple"><g id="elem_Dog"><rect fill="#F1F1F1" height="48" id="Dog" rx="2.5" ry="2.5" style="stroke:#181818;stroke-width:0.5;" width="58" x="20" y="7"/><ellipse cx="35" cy="23" fill="#ADD1B2" rx="11" ry="11" style="stroke:#181818;stroke-width:1.0;"/><path d="M33.5781,28.3594 Q31.7188,28.3594 30.625,26.9688 Q29.5313,25.5781 29.5313,22.5938 Q29.5313,20.0625 30.6953,18.4063 Q31.8594,16.75 33.8438,16.75 Q35.3125,16.75 35.7813,16.875 Q36.25,17.0781 36.25,17.0781 Q36.25,17.0781 36.25,17.0078 Q36.25,16.9375 36.8594,16.0156 L37.9063,19.6719 L36.5781,20.0781 Q36.1094,18.5313 35.4453,17.8672 Q34.7813,17.2031 33.7188,17.2031 Q33.3281,17.2031 32.5625,18.7344 Q31.7969,20.2656 31.7969,22.5156 Q31.7969,24.9844 32.4609,26.375 Q33.125,27.7656 33.6563,27.7656 Q34.7188,27.7656 35.4766,27 Q36.2344,26.2344 36.5781,24.5781 L37.9063,25.1719 Q37.5781,26.5781 36.6797,27.4688 Q35.7813,28.3594 33.5781,28.3594 Z " fill="#000000"/><text fill="#000000" font-family="sans-serif" font-size="14" lengthAdjust="spacing" textLength="26" x="49" y="29.4839">Dog</text><line style="stroke:#181818;stroke-width:0.5;" x1="21" x2="77" y1="39" y2="39"/><line style="stroke:#181818;stroke-width:0.5;" x1="21" x2="77" y1="47" y2="47"/></g></a><!--MD5=[16f95880467efae42338d1b6e4e870d2]
class Mammal--><a href="http://www.google.com/search" target="_top" title="http://www.google.com/search" xlink:actuate="onRequest" xlink:href="http://www.google.com/search" xlink:show="new" xlink:title="http://www.google.com/search" xlink:type="simple"><g id="elem_Mammal"><rect fill="#F1F1F1" height="48" id="Mammal" rx="2.5" ry="2.5" style="stroke:#181818;stroke-width:0.5;" width="84" x="7" y="223"/><ellipse cx="22" cy="239" fill="#ADD1B2" rx="11" ry="11" style="stroke:#181818;stroke-width:1.0;"/><path d="M20.5781,244.3594 Q18.7188,244.3594 17.625,242.9688 Q16.5313,241.5781 16.5313,238.5938 Q16.5313,236.0625 17.6953,234.4063 Q18.8594,232.75 20.8438,232.75 Q22.3125,232.75 22.7813,232.875 Q23.25,233.0781 23.25,233.0781 Q23.25,233.0781 23.25,233.0078 Q23.25,232.9375 23.8594,232.0156 L24.9063,235.6719 L23.5781,236.0781 Q23.1094,234.5313 22.4453,233.8672 Q21.7813,233.2031 20.7188,233.2031 Q20.3281,233.2031 19.5625,234.7344 Q18.7969,236.2656 18.7969,238.5156 Q18.7969,240.9844 19.4609,242.375 Q20.125,243.7656 20.6563,243.7656 Q21.7188,243.7656 22.4766,243 Q23.2344,242.2344 23.5781,240.5781 L24.9063,241.1719 Q24.5781,242.5781 23.6797,243.4688 Q22.7813,244.3594 20.5781,244.3594 Z " fill="#000000"/><text fill="#000000" font-family="sans-serif" font-size="14" lengthAdjust="spacing" textLength="52" x="36" y="245.4839">Mammal</text><line style="stroke:#181818;stroke-width:0.5;" x1="8" x2="90" y1="255" y2="255"/><line style="stroke:#181818;stroke-width:0.5;" x1="8" x2="90" y1="263" y2="263"/></g></a><!--MD5=[8d10b9619f233caeee54837354dd5717]
class Cat--><g id="elem_Cat"><rect fill="#F1F1F1" height="48" id="Cat" rx="2.5" ry="2.5" style="stroke:#181818;stroke-width:0.5;" width="54" x="62" y="115"/><ellipse cx="77" cy="131" fill="#ADD1B2" rx="11" ry="11" style="stroke:#181818;stroke-width:1.0;"/><path d="M75.5781,136.3594 Q73.7188,136.3594 72.625,134.9688 Q71.5313,133.5781 71.5313,130.5938 Q71.5313,128.0625 72.6953,126.4063 Q73.8594,124.75 75.8438,124.75 Q77.3125,124.75 77.7813,124.875 Q78.25,125.0781 78.25,125.0781 Q78.25,125.0781 78.25,125.0078 Q78.25,124.9375 78.8594,124.0156 L79.9063,127.6719 L78.5781,128.0781 Q78.1094,126.5313 77.4453,125.8672 Q76.7813,125.2031 75.7188,125.2031 Q75.3281,125.2031 74.5625,126.7344 Q73.7969,128.2656 73.7969,130.5156 Q73.7969,132.9844 74.4609,134.375 Q75.125,135.7656 75.6563,135.7656 Q76.7188,135.7656 77.4766,135 Q78.2344,134.2344 78.5781,132.5781 L79.9063,133.1719 Q79.5781,134.5781 78.6797,135.4688 Q77.7813,136.3594 75.5781,136.3594 Z " fill="#000000"/><text fill="#000000" font-family="sans-serif" font-size="14" lengthAdjust="spacing" textLength="22" x="91" y="137.4839">Cat</text><line style="stroke:#181818;stroke-width:0.5;" x1="63" x2="115" y1="147" y2="147"/><line style="stroke:#181818;stroke-width:0.5;" x1="63" x2="115" y1="155" y2="155"/></g><!--MD5=[e357146191d1ba46505f7c137f4d2496]
link Dog to Mammal--><g id="link_Dog_Mammal"><path codeLine="2" d="M47.225,55.238 C46.0463,71.87 44.6079,94.799 44,115 C43.3583,136.324 43.3583,141.676 44,163 C44.3847,175.7835 45.1019,189.6594 45.8755,202.3407 " fill="none" id="Dog-to-Mammal" style="stroke:#181818;stroke-width:1.0;"/><polygon fill="none" points="52.8909,202.3439,47.225,222.762,38.9214,203.2671,52.8909,202.3439" style="stroke:#181818;stroke-width:1.0;"/></g><!--MD5=[1a8dcbb79098e4847307b17bbe2a7893]
reverse link Dog to Cat--><g id="link_Dog_Cat"><path codeLine="5" d="M62.3591,67.402 C68.2335,82.969 74.9701,100.821 80.1994,114.678 " fill="none" id="Dog-backto-Cat" style="stroke:#181818;stroke-width:1.0;"/><polygon fill="none" points="57.6794,55,56.0555,62.0259,61.9163,66.2271,63.5402,59.2013,57.6794,55" style="stroke:#181818;stroke-width:1.0;"/></g><!--MD5=[ad589537fa8d3443887f45cf84e071c8]
link Cat to Mammal--><g id="link_Cat_Mammal"><path codeLine="6" d="M80.3206,163 C75.8436,174.8644 70.2382,189.7187 65.0116,203.5692 " fill="none" id="Cat-to-Mammal" style="stroke:#181818;stroke-width:1.0;"/><polygon fill="none" points="71.411,206.4378,57.8006,222.6784,58.3126,201.495,71.411,206.4378" style="stroke:#181818;stroke-width:1.0;"/></g><!--MD5=[0b33b96de3ea3800e8825e81dfe18004]
@startuml
skinparam topurl http://www.google.com
Dog - -|> Mammal
url of Mammal is [[/search]]
url of Dog is [[http://www.yahoo.com{This is Dog}]]
Dog o- - Cat
Cat - -|> Mammal
@enduml

PlantUML version 1.2022.4(Sat Apr 09 21:29:17 CST 2022)
(GPL source distribution)
Java Runtime: Java(TM) SE Runtime Environment
JVM: Java HotSpot(TM) 64-Bit Server VM
Default Encoding: GBK
Language: zh
Country: CN
--></g></svg>