<?xml version="1.0" encoding="UTF-8" standalone="no"?><svg xmlns="http://www.w3.org/2000/svg" xmlns:xlink="http://www.w3.org/1999/xlink" contentStyleType="text/css" height="265px" preserveAspectRatio="none" style="width:512px;height:265px;background:#FFFFFF;" version="1.1" viewBox="0 0 512 265" width="512px" zoomAndPan="magnify"><defs/><g><!--MD5=[aa7f586532e18719e6cefa70fc650583]
class Object--><g id="elem_Object"><rect codeLine="13" fill="#F1F1F1" height="67.1201" id="Object" rx="2.5" ry="2.5" style="stroke:#181818;stroke-width:0.5;" width="148" x="62.5" y="16.5"/><ellipse cx="111.75" cy="32.5" fill="#ADD1B2" rx="11" ry="11" style="stroke:#181818;stroke-width:1.0;"/><path d="M110.3281,37.8594 Q108.4688,37.8594 107.375,36.4688 Q106.2813,35.0781 106.2813,32.0938 Q106.2813,29.5625 107.4453,27.9063 Q108.6094,26.25 110.5938,26.25 Q112.0625,26.25 112.5313,26.375 Q113,26.5781 113,26.5781 Q113,26.5781 113,26.5078 Q113,26.4375 113.6094,25.5156 L114.6563,29.1719 L113.3281,29.5781 Q112.8594,28.0313 112.1953,27.3672 Q111.5313,26.7031 110.4688,26.7031 Q110.0781,26.7031 109.3125,28.2344 Q108.5469,29.7656 108.5469,32.0156 Q108.5469,34.4844 109.2109,35.875 Q109.875,37.2656 110.4063,37.2656 Q111.4688,37.2656 112.2266,36.5 Q112.9844,35.7344 113.3281,34.0781 L114.6563,34.6719 Q114.3281,36.0781 113.4297,36.9688 Q112.5313,37.8594 110.3281,37.8594 Z " fill="#000000"/><text fill="#000000" font-family="sans-serif" font-size="14" lengthAdjust="spacing" textLength="41" x="132.25" y="38.9839">Object</text><line style="stroke:#181818;stroke-width:0.5;" x1="63.5" x2="209.5" y1="48.5" y2="48.5"/><a href="http://www.yahoo.com" target="_top" title="http://www.yahoo.com" xlink:actuate="onRequest" xlink:href="http://www.yahoo.com" xlink:show="new" xlink:title="http://www.yahoo.com" xlink:type="simple"><text fill="#0000FF" font-family="sans-serif" font-size="14" lengthAdjust="spacing" text-decoration="underline" textLength="136" x="68.5" y="68.5439">http://www.yahoo.com</text></a><line style="stroke:#181818;stroke-width:0.5;" x1="63.5" x2="209.5" y1="75.6201" y2="75.6201"/></g><!--MD5=[d10371c429a20e8e62c953c705282488]
class Foo--><g id="elem_Foo"><rect codeLine="2" fill="#F1F1F1" height="105.3604" id="Foo" rx="2.5" ry="2.5" style="stroke:#181818;stroke-width:0.5;" width="259" x="7" y="153"/><ellipse cx="119.75" cy="169" fill="#ADD1B2" rx="11" ry="11" style="stroke:#181818;stroke-width:1.0;"/><path d="M118.3281,174.3594 Q116.4688,174.3594 115.375,172.9688 Q114.2813,171.5781 114.2813,168.5938 Q114.2813,166.0625 115.4453,164.4063 Q116.6094,162.75 118.5938,162.75 Q120.0625,162.75 120.5313,162.875 Q121,163.0781 121,163.0781 Q121,163.0781 121,163.0078 Q121,162.9375 121.6094,162.0156 L122.6563,165.6719 L121.3281,166.0781 Q120.8594,164.5313 120.1953,163.8672 Q119.5313,163.2031 118.4688,163.2031 Q118.0781,163.2031 117.3125,164.7344 Q116.5469,166.2656 116.5469,168.5156 Q116.5469,170.9844 117.2109,172.375 Q117.875,173.7656 118.4063,173.7656 Q119.4688,173.7656 120.2266,173 Q120.9844,172.2344 121.3281,170.5781 L122.6563,171.1719 Q122.3281,172.5781 121.4297,173.4688 Q120.5313,174.3594 118.3281,174.3594 Z " fill="#000000"/><text fill="#000000" font-family="sans-serif" font-size="14" lengthAdjust="spacing" textLength="25" x="140.25" y="175.4839">Foo</text><line style="stroke:#181818;stroke-width:0.5;" x1="8" x2="265" y1="185" y2="185"/><a href="http://www.google.com" target="_top" title="http://www.google.com" xlink:actuate="onRequest" xlink:href="http://www.google.com" xlink:show="new" xlink:title="http://www.google.com" xlink:type="simple"><text fill="#0000FF" font-family="sans-serif" font-size="14" lengthAdjust="spacing" text-decoration="underline" textLength="140" x="13" y="205.0439">http://www.google.com</text></a><line style="stroke:#181818;stroke-width:0.5;" x1="8" x2="265" y1="212.1201" y2="212.1201"/><ellipse cx="18" cy="223.1201" fill="#84BE84" rx="3" ry="3" style="stroke:#038048;stroke-width:1.0;"/><text fill="#000000" font-family="sans-serif" font-size="14" lengthAdjust="spacing" textLength="72" x="27" y="232.1641">methods1()</text><a href="http://www.yahoo.com/A1" target="_top" title="Some explainations about this method" xlink:actuate="onRequest" xlink:href="http://www.yahoo.com/A1" xlink:show="new" xlink:title="Some explainations about this method" xlink:type="simple"><text fill="#0000FF" font-family="sans-serif" font-size="14" lengthAdjust="spacing" text-decoration="underline" textLength="157" x="103" y="232.1641">http://www.yahoo.com/A1</text></a><ellipse cx="18" cy="242.2402" fill="#84BE84" rx="3" ry="3" style="stroke:#038048;stroke-width:1.0;"/><text fill="#000000" font-family="sans-serif" font-size="14" lengthAdjust="spacing" textLength="72" x="27" y="251.2842">methods2()</text><a href="http://www.yahoo.com/A2" target="_top" title="http://www.yahoo.com/A2" xlink:actuate="onRequest" xlink:href="http://www.yahoo.com/A2" xlink:show="new" xlink:title="http://www.yahoo.com/A2" xlink:type="simple"><text fill="#0000FF" font-family="sans-serif" font-size="14" lengthAdjust="spacing" text-decoration="underline" textLength="157" x="103" y="251.2842">http://www.yahoo.com/A2</text></a></g><!--MD5=[6c8c18b8d4fa3298c600fc3f82908513]
class Foo2--><g id="elem_Foo2"><rect codeLine="8" fill="#F1F1F1" height="86.2402" id="Foo2" rx="2.5" ry="2.5" style="stroke:#181818;stroke-width:0.5;" width="259" x="246" y="7"/><ellipse cx="354.75" cy="23" fill="#ADD1B2" rx="11" ry="11" style="stroke:#181818;stroke-width:1.0;"/><path d="M353.3281,28.3594 Q351.4688,28.3594 350.375,26.9688 Q349.2813,25.5781 349.2813,22.5938 Q349.2813,20.0625 350.4453,18.4063 Q351.6094,16.75 353.5938,16.75 Q355.0625,16.75 355.5313,16.875 Q356,17.0781 356,17.0781 Q356,17.0781 356,17.0078 Q356,16.9375 356.6094,16.0156 L357.6563,19.6719 L356.3281,20.0781 Q355.8594,18.5313 355.1953,17.8672 Q354.5313,17.2031 353.4688,17.2031 Q353.0781,17.2031 352.3125,18.7344 Q351.5469,20.2656 351.5469,22.5156 Q351.5469,24.9844 352.2109,26.375 Q352.875,27.7656 353.4063,27.7656 Q354.4688,27.7656 355.2266,27 Q355.9844,26.2344 356.3281,24.5781 L357.6563,25.1719 Q357.3281,26.5781 356.4297,27.4688 Q355.5313,28.3594 353.3281,28.3594 Z " fill="#000000"/><text fill="#000000" font-family="sans-serif" font-size="14" lengthAdjust="spacing" textLength="33" x="375.25" y="29.4839">Foo2</text><line style="stroke:#181818;stroke-width:0.5;" x1="247" x2="504" y1="39" y2="39"/><line style="stroke:#181818;stroke-width:0.5;" x1="247" x2="504" y1="47" y2="47"/><ellipse cx="257" cy="58" fill="#84BE84" rx="3" ry="3" style="stroke:#038048;stroke-width:1.0;"/><text fill="#000000" font-family="sans-serif" font-size="14" lengthAdjust="spacing" textLength="72" x="266" y="67.0439">methods1()</text><a href="http://www.yahoo.com/B1" target="_top" title="http://www.yahoo.com/B1" xlink:actuate="onRequest" xlink:href="http://www.yahoo.com/B1" xlink:show="new" xlink:title="http://www.yahoo.com/B1" xlink:type="simple"><text fill="#0000FF" font-family="sans-serif" font-size="14" lengthAdjust="spacing" text-decoration="underline" textLength="157" x="342" y="67.0439">http://www.yahoo.com/B1</text></a><ellipse cx="257" cy="77.1201" fill="#84BE84" rx="3" ry="3" style="stroke:#038048;stroke-width:1.0;"/><text fill="#000000" font-family="sans-serif" font-size="14" lengthAdjust="spacing" textLength="72" x="266" y="86.1641">methods2()</text><a href="http://www.yahoo.com/B2" target="_top" title="http://www.yahoo.com/B2" xlink:actuate="onRequest" xlink:href="http://www.yahoo.com/B2" xlink:show="new" xlink:title="http://www.yahoo.com/B2" xlink:type="simple"><text fill="#0000FF" font-family="sans-serif" font-size="14" lengthAdjust="spacing" text-decoration="underline" textLength="157" x="342" y="86.1641">http://www.yahoo.com/B2</text></a></g><!--MD5=[b291b4997e11b1f5814a6ca3fb425d77]
reverse link Object to Foo--><g id="link_Object_Foo"><path codeLine="1" d="M136.5,103.692 C136.5,119.629 136.5,137.106 136.5,152.966 " fill="none" id="Object-backto-Foo" style="stroke:#181818;stroke-width:1.0;"/><polygon fill="none" points="129.5,103.553,136.5,83.553,143.5,103.553,129.5,103.553" style="stroke:#181818;stroke-width:1.0;"/></g><!--MD5=[e472bd3af2d8a07ae91c620633aa6391]
@startuml
Object <|- - Foo
class Foo {
  [[http://www.google.com]]
  + methods1() [[http://www.yahoo.com/A1{Some explainations about this method}]]
  + methods2() [[http://www.yahoo.com/A2]]
}

class Foo2 {
  + methods1() [[http://www.yahoo.com/B1]]
  + methods2() [[http://www.yahoo.com/B2]]
}

class Object {
  [[http://www.yahoo.com]]
}
@enduml

PlantUML version 1.2022.4(Sat Apr 09 21:29:17 CST 2022)
(GPL source distribution)
Java Runtime: Java(TM) SE Runtime Environment
JVM: Java HotSpot(TM) 64-Bit Server VM
Default Encoding: GBK
Language: zh
Country: CN
--></g></svg>