<?xml version="1.0" encoding="UTF-8" standalone="no"?><svg xmlns="http://www.w3.org/2000/svg" xmlns:xlink="http://www.w3.org/1999/xlink" contentStyleType="text/css" height="312px" preserveAspectRatio="none" style="width:300px;height:312px;background:#FFFFFF;" version="1.1" viewBox="0 0 300 312" width="300px" zoomAndPan="magnify"><defs/><g><rect height="13.6572" style="stroke:#00000000;stroke-width:1.0;fill:none;" width="61" x="221" y="10"/><text fill="#888888" font-family="sans-serif" font-size="10" lengthAdjust="spacing" textLength="61" x="221" y="21.46">some header</text><rect height="29.1201" style="stroke:#00000000;stroke-width:1.0;fill:none;" width="106" x="93" y="29.6572"/><text fill="#000000" font-family="sans-serif" font-size="14" font-weight="bold" lengthAdjust="spacing" textLength="96" x="98" y="50.7012">this is my title</text><line style="stroke:#333333;stroke-width:0.5;" x1="10" x2="10" y1="64.7773" y2="201.0176"/><line style="stroke:#333333;stroke-width:0.5;" x1="283" x2="283" y1="64.7773" y2="201.0176"/><line style="stroke:#333333;stroke-width:0.5;stroke-dasharray:3.0,5.0;" x1="78" x2="78" y1="64.7773" y2="201.0176"/><line style="stroke:#333333;stroke-width:0.5;stroke-dasharray:3.0,5.0;" x1="128" x2="128" y1="64.7773" y2="201.0176"/><line style="stroke:#333333;stroke-width:0.5;stroke-dasharray:3.0,5.0;" x1="178" x2="178" y1="64.7773" y2="201.0176"/><line style="stroke:#333333;stroke-width:0.5;stroke-dasharray:3.0,5.0;" x1="228" x2="228" y1="64.7773" y2="201.0176"/><line style="stroke:#333333;stroke-width:0.5;stroke-dasharray:3.0,5.0;" x1="278" x2="278" y1="64.7773" y2="201.0176"/><line style="stroke:#333333;stroke-width:0.5;" x1="10" x2="283" y1="64.7773" y2="64.7773"/><text fill="#333333" font-family="sans-serif" font-size="14" font-weight="bold" lengthAdjust="spacing" textLength="94" x="15" y="80.8213">Web Browser</text><line style="stroke:#333333;stroke-width:0.5;" x1="10" x2="110" y1="84.8975" y2="84.8975"/><line style="stroke:#333333;stroke-width:0.5;" x1="110" x2="120" y1="84.8975" y2="64.7773"/><text fill="#333333" font-family="sans-serif" font-size="12" lengthAdjust="spacing" textLength="20" x="15" y="136.4551">Idle</text><text fill="#333333" font-family="sans-serif" font-size="12" lengthAdjust="spacing" textLength="63" x="15" y="116.4551">Processing</text><text fill="#333333" font-family="sans-serif" font-size="12" lengthAdjust="spacing" textLength="41" x="15" y="96.4551">Waiting</text><line style="stroke:#006400;stroke-width:2.0;" x1="78" x2="128" y1="129.8975" y2="129.8975"/><line style="stroke:#006400;stroke-width:2.0;" x1="128" x2="228" y1="109.8975" y2="109.8975"/><line style="stroke:#006400;stroke-width:2.0;" x1="228" x2="278" y1="89.8975" y2="89.8975"/><line style="stroke:#006400;stroke-width:2.0;" x1="128" x2="128" y1="109.8975" y2="129.8975"/><line style="stroke:#006400;stroke-width:2.0;" x1="228" x2="228" y1="89.8975" y2="109.8975"/><line style="stroke:#333333;stroke-width:0.5;" x1="10" x2="283" y1="141.8975" y2="141.8975"/><text fill="#333333" font-family="sans-serif" font-size="14" font-weight="bold" lengthAdjust="spacing" textLength="68" x="15" y="157.9414">Web User</text><line style="stroke:#333333;stroke-width:0.5;" x1="10" x2="84" y1="162.0176" y2="162.0176"/><line style="stroke:#333333;stroke-width:0.5;" x1="84" x2="94" y1="162.0176" y2="141.8975"/><polygon fill="#E2E2F0" points="90,167.0176,116,167.0176,128,179.0176,116,191.0176,90,191.0176,78,179.0176" style="stroke:#006400;stroke-width:1.5;"/><polygon fill="#E2E2F0" points="140,167.0176,278,167.0176,278,191.0176,140,191.0176,128,179.0176" style="stroke:#E2E2F0;stroke-width:1.5;"/><path d="M278,167.0176 L140,167.0176 L128,179.0176 L140,191.0176 L278,191.0176 " fill="#E2E2F0" style="stroke:#006400;stroke-width:1.5;"/><text fill="#333333" font-family="sans-serif" font-size="12" font-weight="bold" lengthAdjust="spacing" textLength="20" x="93" y="184.5752">Idle</text><text fill="#333333" font-family="sans-serif" font-size="12" font-weight="bold" lengthAdjust="spacing" textLength="43" x="140" y="184.5752">Waiting</text><line style="stroke:#333333;stroke-width:2.0;" x1="78" x2="78" y1="201.0176" y2="206.0176"/><line style="stroke:#333333;stroke-width:2.0;" x1="128" x2="128" y1="201.0176" y2="206.0176"/><line style="stroke:#333333;stroke-width:2.0;" x1="178" x2="178" y1="201.0176" y2="206.0176"/><line style="stroke:#333333;stroke-width:2.0;" x1="228" x2="228" y1="201.0176" y2="206.0176"/><line style="stroke:#333333;stroke-width:2.0;" x1="278" x2="278" y1="201.0176" y2="206.0176"/><line style="stroke:#333333;stroke-width:2.0;" x1="78" x2="278" y1="201.0176" y2="201.0176"/><text fill="#333333" font-family="sans-serif" font-size="11" lengthAdjust="spacing" textLength="6" x="75" y="219.6235">0</text><text fill="#333333" font-family="sans-serif" font-size="11" lengthAdjust="spacing" textLength="18" x="119" y="219.6235">100</text><text fill="#333333" font-family="sans-serif" font-size="11" lengthAdjust="spacing" textLength="18" x="219" y="219.6235">300</text><rect fill="#DDDDDD" height="31.1201" rx="7.5" ry="7.5" style="stroke:#333333;stroke-width:0.5;" width="104" x="94" y="224.0405"/><text fill="#333333" font-family="sans-serif" font-size="14" font-weight="bold" lengthAdjust="spacing" textLength="92" x="100" y="246.0845">Some legend</text><rect height="19.1201" style="stroke:#00000000;stroke-width:1.0;fill:none;" width="84" x="104" y="265.1606"/><text fill="#000000" font-family="sans-serif" font-size="14" lengthAdjust="spacing" textLength="84" x="104" y="281.2046">some caption</text><rect height="13.6572" style="stroke:#00000000;stroke-width:1.0;fill:none;" width="55" x="118.5" y="286.2808"/><text fill="#888888" font-family="sans-serif" font-size="10" lengthAdjust="spacing" textLength="55" x="118.5" y="297.7407">some footer</text><!--MD5=[b0adccd9f00f20e54e75a9750589c00b]
@startuml
Title this is my title
header: some header
footer: some footer
legend
Some legend
end legend
caption some caption

robust "Web Browser" as WB
concise "Web User" as WU

@0
WU is Idle
WB is Idle

@100
WU is Waiting
WB is Processing

@300
WB is Waiting
@enduml

PlantUML version 1.2022.4(Sat Apr 09 21:29:17 CST 2022)
(GPL source distribution)
Java Runtime: Java(TM) SE Runtime Environment
JVM: Java HotSpot(TM) 64-Bit Server VM
Default Encoding: GBK
Language: zh
Country: CN
--></g></svg>