<?xml version="1.0" encoding="UTF-8" standalone="no"?><svg xmlns="http://www.w3.org/2000/svg" xmlns:xlink="http://www.w3.org/1999/xlink" contentStyleType="text/css" height="241px" preserveAspectRatio="none" style="width:440px;height:241px;background:#FFFFFF;" version="1.1" viewBox="0 0 440 241" width="440px" zoomAndPan="magnify"><defs/><g><line style="stroke:#333333;stroke-width:0.5;" x1="10" x2="10" y1="10" y2="209.0176"/><line style="stroke:#333333;stroke-width:0.5;" x1="423" x2="423" y1="10" y2="209.0176"/><line style="stroke:#333333;stroke-width:0.5;stroke-dasharray:3.0,5.0;" x1="118" x2="118" y1="10" y2="209.0176"/><line style="stroke:#333333;stroke-width:0.5;stroke-dasharray:3.0,5.0;" x1="168" x2="168" y1="10" y2="209.0176"/><line style="stroke:#333333;stroke-width:0.5;stroke-dasharray:3.0,5.0;" x1="218" x2="218" y1="10" y2="209.0176"/><line style="stroke:#333333;stroke-width:0.5;stroke-dasharray:3.0,5.0;" x1="268" x2="268" y1="10" y2="209.0176"/><line style="stroke:#333333;stroke-width:0.5;stroke-dasharray:3.0,5.0;" x1="318" x2="318" y1="10" y2="209.0176"/><line style="stroke:#333333;stroke-width:0.5;stroke-dasharray:3.0,5.0;" x1="368" x2="368" y1="10" y2="209.0176"/><line style="stroke:#333333;stroke-width:0.5;stroke-dasharray:3.0,5.0;" x1="418" x2="418" y1="10" y2="209.0176"/><line style="stroke:#333333;stroke-width:0.5;" x1="10" x2="423" y1="10" y2="10"/><text fill="#333333" font-family="sans-serif" font-size="14" font-weight="bold" lengthAdjust="spacing" textLength="94" x="15" y="26.0439">Web Browser</text><line style="stroke:#333333;stroke-width:0.5;" x1="10" x2="110" y1="30.1201" y2="30.1201"/><line style="stroke:#333333;stroke-width:0.5;" x1="110" x2="120" y1="30.1201" y2="10"/><text fill="#333333" font-family="sans-serif" font-size="12" lengthAdjust="spacing" textLength="54" x="15" y="123.0664">Initializing</text><text fill="#333333" font-family="sans-serif" font-size="12" lengthAdjust="spacing" textLength="20" x="15" y="103.0664">idle</text><text fill="#333333" font-family="sans-serif" font-size="12" lengthAdjust="spacing" textLength="63" x="15" y="83.0664">Processing</text><text fill="#333333" font-family="sans-serif" font-size="12" lengthAdjust="spacing" textLength="41" x="15" y="63.0664">Waiting</text><line style="stroke:#006400;stroke-width:2.0;" x1="78" x2="118" y1="116.5088" y2="116.5088"/><line style="stroke:#006400;stroke-width:2.0;" x1="118" x2="218" y1="96.5088" y2="96.5088"/><line style="stroke:#006400;stroke-width:2.0;" x1="218" x2="268" y1="76.5088" y2="76.5088"/><line style="stroke:#006400;stroke-width:2.0;" x1="268" x2="418" y1="56.5088" y2="56.5088"/><line style="stroke:#006400;stroke-width:2.0;" x1="118" x2="118" y1="96.5088" y2="116.5088"/><line style="stroke:#006400;stroke-width:2.0;" x1="218" x2="218" y1="76.5088" y2="96.5088"/><line style="stroke:#006400;stroke-width:2.0;" x1="268" x2="268" y1="56.5088" y2="76.5088"/><line style="stroke:#8B0000;stroke-width:1.5;" x1="118" x2="143" y1="91.5088" y2="91.5088"/><polygon fill="#8B0000" points="125.5175,88.7726,125.5175,94.245,118,91.5088" style="stroke:#8B0000;stroke-width:2.0;"/><polygon fill="#8B0000" points="135.4825,94.245,135.4825,88.7726,143,91.5088" style="stroke:#8B0000;stroke-width:2.0;"/><text fill="#8B0000" font-family="sans-serif" font-size="12" lengthAdjust="spacing" textLength="63" x="99" y="83.8721">{50 ms lag}</text><line style="stroke:#333333;stroke-width:0.5;" x1="10" x2="423" y1="128.5088" y2="128.5088"/><text fill="#333333" font-family="sans-serif" font-size="14" font-weight="bold" lengthAdjust="spacing" textLength="68" x="15" y="144.5527">Web User</text><line style="stroke:#333333;stroke-width:0.5;" x1="10" x2="84" y1="148.6289" y2="148.6289"/><line style="stroke:#333333;stroke-width:0.5;" x1="84" x2="94" y1="148.6289" y2="128.5088"/><polygon fill="#E2E2F0" points="54,175.0176,106,175.0176,118,187.0176,106,199.0176,54,199.0176" style="stroke:#E2E2F0;stroke-width:1.5;"/><path d="M54,175.0176 L106,175.0176 L118,187.0176 L106,199.0176 L54,199.0176 " fill="#E2E2F0" style="stroke:#006400;stroke-width:1.5;"/><text fill="#333333" font-family="sans-serif" font-size="12" font-weight="bold" lengthAdjust="spacing" textLength="40" x="66" y="192.5752">Absent</text><polygon fill="#E2E2F0" points="130,175.0176,356,175.0176,368,187.0176,356,199.0176,130,199.0176,118,187.0176" style="stroke:#006400;stroke-width:1.5;"/><polygon fill="#E2E2F0" points="380,175.0176,418,175.0176,418,199.0176,380,199.0176,368,187.0176" style="stroke:#E2E2F0;stroke-width:1.5;"/><path d="M418,175.0176 L380,175.0176 L368,187.0176 L380,199.0176 L418,199.0176 " fill="#E2E2F0" style="stroke:#006400;stroke-width:1.5;"/><text fill="#333333" font-family="sans-serif" font-size="12" font-weight="bold" lengthAdjust="spacing" textLength="43" x="221.5" y="192.5752">Waiting</text><text fill="#333333" font-family="sans-serif" font-size="12" font-weight="bold" lengthAdjust="spacing" textLength="14" x="380" y="192.5752">ok</text><line style="stroke:#8B0000;stroke-width:1.5;" x1="218" x2="293" y1="164.3232" y2="164.3232"/><polygon fill="#8B0000" points="225.5175,161.5871,225.5175,167.0594,218,164.3232" style="stroke:#8B0000;stroke-width:1.0;"/><polygon fill="#8B0000" points="285.4825,167.0594,285.4825,161.5871,293,164.3232" style="stroke:#8B0000;stroke-width:1.0;"/><text fill="#8B0000" font-family="sans-serif" font-size="12" lengthAdjust="spacing" textLength="50" x="230.5" y="156.6865">{150 ms}</text><line style="stroke:#333333;stroke-width:2.0;" x1="118" x2="118" y1="209.0176" y2="214.0176"/><line style="stroke:#333333;stroke-width:2.0;" x1="168" x2="168" y1="209.0176" y2="214.0176"/><line style="stroke:#333333;stroke-width:2.0;" x1="218" x2="218" y1="209.0176" y2="214.0176"/><line style="stroke:#333333;stroke-width:2.0;" x1="268" x2="268" y1="209.0176" y2="214.0176"/><line style="stroke:#333333;stroke-width:2.0;" x1="318" x2="318" y1="209.0176" y2="214.0176"/><line style="stroke:#333333;stroke-width:2.0;" x1="368" x2="368" y1="209.0176" y2="214.0176"/><line style="stroke:#333333;stroke-width:2.0;" x1="418" x2="418" y1="209.0176" y2="214.0176"/><line style="stroke:#333333;stroke-width:2.0;" x1="118" x2="418" y1="209.0176" y2="209.0176"/><text fill="#333333" font-family="sans-serif" font-size="11" lengthAdjust="spacing" textLength="6" x="115" y="227.6235">0</text><text fill="#333333" font-family="sans-serif" font-size="11" lengthAdjust="spacing" textLength="18" x="209" y="227.6235">200</text><text fill="#333333" font-family="sans-serif" font-size="11" lengthAdjust="spacing" textLength="18" x="259" y="227.6235">300</text><text fill="#333333" font-family="sans-serif" font-size="11" lengthAdjust="spacing" textLength="18" x="359" y="227.6235">500</text><!--MD5=[8b90f9123c29c5080a2243cb5eba4931]
@startuml
robust "Web Browser" as WB
concise "Web User" as WU

WB is Initializing
WU is Absent

@WB
0 is idle
+200 is Processing
+100 is Waiting
WB@0 <-> @50 : {50 ms lag}

@WU
0 is Waiting
+500 is ok
@200 <-> @+150 : {150 ms}
@enduml

PlantUML version 1.2022.4(Sat Apr 09 21:29:17 CST 2022)
(GPL source distribution)
Java Runtime: Java(TM) SE Runtime Environment
JVM: Java HotSpot(TM) 64-Bit Server VM
Default Encoding: GBK
Language: zh
Country: CN
--></g></svg>