<?xml version="1.0" encoding="UTF-8" standalone="no"?><svg xmlns="http://www.w3.org/2000/svg" xmlns:xlink="http://www.w3.org/1999/xlink" contentStyleType="text/css" height="178px" preserveAspectRatio="none" style="width:300px;height:178px;background:#FFFFFF;" version="1.1" viewBox="0 0 300 178" width="300px" zoomAndPan="magnify"><defs/><g><line style="stroke:#333333;stroke-width:0.5;" x1="10" x2="10" y1="10" y2="146.2402"/><line style="stroke:#333333;stroke-width:0.5;" x1="283" x2="283" y1="10" y2="146.2402"/><line style="stroke:#333333;stroke-width:0.5;stroke-dasharray:3.0,5.0;" x1="78" x2="78" y1="10" y2="146.2402"/><line style="stroke:#333333;stroke-width:0.5;stroke-dasharray:3.0,5.0;" x1="128" x2="128" y1="10" y2="146.2402"/><line style="stroke:#333333;stroke-width:0.5;stroke-dasharray:3.0,5.0;" x1="178" x2="178" y1="10" y2="146.2402"/><line style="stroke:#333333;stroke-width:0.5;stroke-dasharray:3.0,5.0;" x1="228" x2="228" y1="10" y2="146.2402"/><line style="stroke:#333333;stroke-width:0.5;stroke-dasharray:3.0,5.0;" x1="278" x2="278" y1="10" y2="146.2402"/><line style="stroke:#333333;stroke-width:0.5;" x1="10" x2="283" y1="10" y2="10"/><text fill="#333333" font-family="sans-serif" font-size="14" font-weight="bold" lengthAdjust="spacing" textLength="94" x="15" y="26.0439">Web Browser</text><line style="stroke:#333333;stroke-width:0.5;" x1="10" x2="110" y1="30.1201" y2="30.1201"/><line style="stroke:#333333;stroke-width:0.5;" x1="110" x2="120" y1="30.1201" y2="10"/><text fill="#333333" font-family="sans-serif" font-size="12" lengthAdjust="spacing" textLength="20" x="15" y="81.6777">Idle</text><text fill="#333333" font-family="sans-serif" font-size="12" lengthAdjust="spacing" textLength="63" x="15" y="61.6777">Processing</text><text fill="#333333" font-family="sans-serif" font-size="12" lengthAdjust="spacing" textLength="41" x="15" y="41.6777">Waiting</text><line style="stroke:#006400;stroke-width:2.0;" x1="78" x2="128" y1="75.1201" y2="75.1201"/><line style="stroke:#006400;stroke-width:2.0;" x1="128" x2="228" y1="55.1201" y2="55.1201"/><line style="stroke:#006400;stroke-width:2.0;" x1="228" x2="278" y1="35.1201" y2="35.1201"/><line style="stroke:#006400;stroke-width:2.0;" x1="128" x2="128" y1="55.1201" y2="75.1201"/><line style="stroke:#006400;stroke-width:2.0;" x1="228" x2="228" y1="35.1201" y2="55.1201"/><line style="stroke:#333333;stroke-width:0.5;" x1="10" x2="283" y1="87.1201" y2="87.1201"/><text fill="#333333" font-family="sans-serif" font-size="14" font-weight="bold" lengthAdjust="spacing" textLength="68" x="15" y="103.1641">Web User</text><line style="stroke:#333333;stroke-width:0.5;" x1="10" x2="84" y1="107.2402" y2="107.2402"/><line style="stroke:#333333;stroke-width:0.5;" x1="84" x2="94" y1="107.2402" y2="87.1201"/><polygon fill="#E2E2F0" points="90,112.2402,116,112.2402,128,124.2402,116,136.2402,90,136.2402,78,124.2402" style="stroke:#006400;stroke-width:1.5;"/><polygon fill="#E2E2F0" points="140,112.2402,278,112.2402,278,136.2402,140,136.2402,128,124.2402" style="stroke:#E2E2F0;stroke-width:1.5;"/><path d="M278,112.2402 L140,112.2402 L128,124.2402 L140,136.2402 L278,136.2402 " fill="#E2E2F0" style="stroke:#006400;stroke-width:1.5;"/><text fill="#333333" font-family="sans-serif" font-size="12" font-weight="bold" lengthAdjust="spacing" textLength="20" x="93" y="129.7979">Idle</text><text fill="#333333" font-family="sans-serif" font-size="12" font-weight="bold" lengthAdjust="spacing" textLength="43" x="140" y="129.7979">Waiting</text><line style="stroke:#333333;stroke-width:2.0;" x1="78" x2="78" y1="146.2402" y2="151.2402"/><line style="stroke:#333333;stroke-width:2.0;" x1="128" x2="128" y1="146.2402" y2="151.2402"/><line style="stroke:#333333;stroke-width:2.0;" x1="178" x2="178" y1="146.2402" y2="151.2402"/><line style="stroke:#333333;stroke-width:2.0;" x1="228" x2="228" y1="146.2402" y2="151.2402"/><line style="stroke:#333333;stroke-width:2.0;" x1="278" x2="278" y1="146.2402" y2="151.2402"/><line style="stroke:#333333;stroke-width:2.0;" x1="78" x2="278" y1="146.2402" y2="146.2402"/><text fill="#333333" font-family="sans-serif" font-size="11" lengthAdjust="spacing" textLength="6" x="75" y="164.8462">0</text><text fill="#333333" font-family="sans-serif" font-size="11" lengthAdjust="spacing" textLength="18" x="119" y="164.8462">100</text><text fill="#333333" font-family="sans-serif" font-size="11" lengthAdjust="spacing" textLength="18" x="219" y="164.8462">300</text><!--MD5=[be2aaf7bd144026ef32f4230b952a642]
@startuml
robust "Web Browser" as WB
concise "Web User" as WU

@0
WU is Idle
WB is Idle

@100
WU is Waiting
WB is Processing

@300
WB is Waiting
@enduml

PlantUML version 1.2022.4(Sat Apr 09 21:29:17 CST 2022)
(GPL source distribution)
Java Runtime: Java(TM) SE Runtime Environment
JVM: Java HotSpot(TM) 64-Bit Server VM
Default Encoding: GBK
Language: zh
Country: CN
--></g></svg>