<?xml version="1.0" encoding="UTF-8" standalone="no"?><svg xmlns="http://www.w3.org/2000/svg" xmlns:xlink="http://www.w3.org/1999/xlink" contentStyleType="text/css" height="198px" preserveAspectRatio="none" style="width:440px;height:198px;background:#FFFFFF;" version="1.1" viewBox="0 0 440 198" width="440px" zoomAndPan="magnify"><defs/><g><line style="stroke:#333333;stroke-width:0.5;" x1="10" x2="10" y1="10" y2="166.2402"/><line style="stroke:#333333;stroke-width:0.5;" x1="423" x2="423" y1="10" y2="166.2402"/><line style="stroke:#333333;stroke-width:0.5;stroke-dasharray:3.0,5.0;" x1="118" x2="118" y1="10" y2="166.2402"/><line style="stroke:#333333;stroke-width:0.5;stroke-dasharray:3.0,5.0;" x1="168" x2="168" y1="10" y2="166.2402"/><line style="stroke:#333333;stroke-width:0.5;stroke-dasharray:3.0,5.0;" x1="218" x2="218" y1="10" y2="166.2402"/><line style="stroke:#333333;stroke-width:0.5;stroke-dasharray:3.0,5.0;" x1="268" x2="268" y1="10" y2="166.2402"/><line style="stroke:#333333;stroke-width:0.5;stroke-dasharray:3.0,5.0;" x1="318" x2="318" y1="10" y2="166.2402"/><line style="stroke:#333333;stroke-width:0.5;stroke-dasharray:3.0,5.0;" x1="368" x2="368" y1="10" y2="166.2402"/><line style="stroke:#333333;stroke-width:0.5;stroke-dasharray:3.0,5.0;" x1="418" x2="418" y1="10" y2="166.2402"/><line style="stroke:#333333;stroke-width:0.5;" x1="10" x2="423" y1="10" y2="10"/><text fill="#333333" font-family="sans-serif" font-size="14" font-weight="bold" lengthAdjust="spacing" textLength="94" x="15" y="26.0439">Web Browser</text><line style="stroke:#333333;stroke-width:0.5;" x1="10" x2="110" y1="30.1201" y2="30.1201"/><line style="stroke:#333333;stroke-width:0.5;" x1="110" x2="120" y1="30.1201" y2="10"/><text fill="#333333" font-family="sans-serif" font-size="12" lengthAdjust="spacing" textLength="54" x="15" y="101.6777">Initializing</text><text fill="#333333" font-family="sans-serif" font-size="12" lengthAdjust="spacing" textLength="20" x="15" y="81.6777">idle</text><text fill="#333333" font-family="sans-serif" font-size="12" lengthAdjust="spacing" textLength="63" x="15" y="61.6777">Processing</text><text fill="#333333" font-family="sans-serif" font-size="12" lengthAdjust="spacing" textLength="41" x="15" y="41.6777">Waiting</text><line style="stroke:#006400;stroke-width:2.0;" x1="78" x2="118" y1="95.1201" y2="95.1201"/><line style="stroke:#006400;stroke-width:2.0;" x1="118" x2="218" y1="75.1201" y2="75.1201"/><line style="stroke:#006400;stroke-width:2.0;" x1="218" x2="268" y1="55.1201" y2="55.1201"/><line style="stroke:#006400;stroke-width:2.0;" x1="268" x2="418" y1="35.1201" y2="35.1201"/><line style="stroke:#006400;stroke-width:2.0;" x1="118" x2="118" y1="75.1201" y2="95.1201"/><line style="stroke:#006400;stroke-width:2.0;" x1="218" x2="218" y1="55.1201" y2="75.1201"/><line style="stroke:#006400;stroke-width:2.0;" x1="268" x2="268" y1="35.1201" y2="55.1201"/><line style="stroke:#333333;stroke-width:0.5;" x1="10" x2="423" y1="107.1201" y2="107.1201"/><text fill="#333333" font-family="sans-serif" font-size="14" font-weight="bold" lengthAdjust="spacing" textLength="68" x="15" y="123.1641">Web User</text><line style="stroke:#333333;stroke-width:0.5;" x1="10" x2="84" y1="127.2402" y2="127.2402"/><line style="stroke:#333333;stroke-width:0.5;" x1="84" x2="94" y1="127.2402" y2="107.1201"/><polygon fill="#E2E2F0" points="54,132.2402,106,132.2402,118,144.2402,106,156.2402,54,156.2402" style="stroke:#E2E2F0;stroke-width:1.5;"/><path d="M54,132.2402 L106,132.2402 L118,144.2402 L106,156.2402 L54,156.2402 " fill="#E2E2F0" style="stroke:#006400;stroke-width:1.5;"/><text fill="#333333" font-family="sans-serif" font-size="12" font-weight="bold" lengthAdjust="spacing" textLength="40" x="66" y="149.7979">Absent</text><polygon fill="#E2E2F0" points="130,132.2402,356,132.2402,368,144.2402,356,156.2402,130,156.2402,118,144.2402" style="stroke:#006400;stroke-width:1.5;"/><polygon fill="#E2E2F0" points="380,132.2402,418,132.2402,418,156.2402,380,156.2402,368,144.2402" style="stroke:#E2E2F0;stroke-width:1.5;"/><path d="M418,132.2402 L380,132.2402 L368,144.2402 L380,156.2402 L418,156.2402 " fill="#E2E2F0" style="stroke:#006400;stroke-width:1.5;"/><text fill="#333333" font-family="sans-serif" font-size="12" font-weight="bold" lengthAdjust="spacing" textLength="43" x="221.5" y="149.7979">Waiting</text><text fill="#333333" font-family="sans-serif" font-size="12" font-weight="bold" lengthAdjust="spacing" textLength="14" x="380" y="149.7979">ok</text><line style="stroke:#333333;stroke-width:2.0;" x1="118" x2="118" y1="166.2402" y2="171.2402"/><line style="stroke:#333333;stroke-width:2.0;" x1="168" x2="168" y1="166.2402" y2="171.2402"/><line style="stroke:#333333;stroke-width:2.0;" x1="218" x2="218" y1="166.2402" y2="171.2402"/><line style="stroke:#333333;stroke-width:2.0;" x1="268" x2="268" y1="166.2402" y2="171.2402"/><line style="stroke:#333333;stroke-width:2.0;" x1="318" x2="318" y1="166.2402" y2="171.2402"/><line style="stroke:#333333;stroke-width:2.0;" x1="368" x2="368" y1="166.2402" y2="171.2402"/><line style="stroke:#333333;stroke-width:2.0;" x1="418" x2="418" y1="166.2402" y2="171.2402"/><line style="stroke:#333333;stroke-width:2.0;" x1="118" x2="418" y1="166.2402" y2="166.2402"/><text fill="#333333" font-family="sans-serif" font-size="11" lengthAdjust="spacing" textLength="6" x="115" y="184.8462">0</text><text fill="#333333" font-family="sans-serif" font-size="11" lengthAdjust="spacing" textLength="18" x="209" y="184.8462">200</text><text fill="#333333" font-family="sans-serif" font-size="11" lengthAdjust="spacing" textLength="18" x="259" y="184.8462">300</text><text fill="#333333" font-family="sans-serif" font-size="11" lengthAdjust="spacing" textLength="18" x="359" y="184.8462">500</text><!--MD5=[2868922c2017534ad76ec5bc55f5b34c]
@startuml
robust "Web Browser" as WB
concise "Web User" as WU

WB is Initializing
WU is Absent

@WB
0 is idle
+200 is Processing
+100 is Waiting

@WU
0 is Waiting
+500 is ok
@enduml

PlantUML version 1.2022.4(Sat Apr 09 21:29:17 CST 2022)
(GPL source distribution)
Java Runtime: Java(TM) SE Runtime Environment
JVM: Java HotSpot(TM) 64-Bit Server VM
Default Encoding: GBK
Language: zh
Country: CN
--></g></svg>