<?xml version="1.0" encoding="UTF-8" standalone="no"?><svg xmlns="http://www.w3.org/2000/svg" xmlns:xlink="http://www.w3.org/1999/xlink" contentStyleType="text/css" height="178px" preserveAspectRatio="none" style="width:378px;height:178px;background:#FFFFFF;" version="1.1" viewBox="0 0 378 178" width="378px" zoomAndPan="magnify"><defs/><g><line style="stroke:#333333;stroke-width:0.5;" x1="10" x2="10" y1="10" y2="146.2402"/><line style="stroke:#333333;stroke-width:0.5;" x1="361" x2="361" y1="10" y2="146.2402"/><line style="stroke:#333333;stroke-width:0.5;stroke-dasharray:3.0,5.0;" x1="56" x2="56" y1="10" y2="146.2402"/><line style="stroke:#333333;stroke-width:0.5;stroke-dasharray:3.0,5.0;" x1="106" x2="106" y1="10" y2="146.2402"/><line style="stroke:#333333;stroke-width:0.5;stroke-dasharray:3.0,5.0;" x1="156" x2="156" y1="10" y2="146.2402"/><line style="stroke:#333333;stroke-width:0.5;stroke-dasharray:3.0,5.0;" x1="206" x2="206" y1="10" y2="146.2402"/><line style="stroke:#333333;stroke-width:0.5;stroke-dasharray:3.0,5.0;" x1="256" x2="256" y1="10" y2="146.2402"/><line style="stroke:#333333;stroke-width:0.5;stroke-dasharray:3.0,5.0;" x1="306" x2="306" y1="10" y2="146.2402"/><line style="stroke:#333333;stroke-width:0.5;stroke-dasharray:3.0,5.0;" x1="356" x2="356" y1="10" y2="146.2402"/><line style="stroke:#333333;stroke-width:0.5;" x1="10" x2="361" y1="10" y2="10"/><text fill="#333333" font-family="sans-serif" font-size="14" font-weight="bold" lengthAdjust="spacing" textLength="94" x="15" y="26.0439">Web Browser</text><line style="stroke:#333333;stroke-width:0.5;" x1="10" x2="110" y1="30.1201" y2="30.1201"/><line style="stroke:#333333;stroke-width:0.5;" x1="110" x2="120" y1="30.1201" y2="10"/><text fill="#333333" font-family="sans-serif" font-size="12" lengthAdjust="spacing" textLength="20" x="15" y="81.6777">idle</text><text fill="#333333" font-family="sans-serif" font-size="12" lengthAdjust="spacing" textLength="28" x="15" y="61.6777">Proc.</text><text fill="#333333" font-family="sans-serif" font-size="12" lengthAdjust="spacing" textLength="41" x="15" y="41.6777">Waiting</text><line style="stroke:#006400;stroke-width:2.0;" x1="56" x2="156" y1="75.1201" y2="75.1201"/><line style="stroke:#006400;stroke-width:2.0;" x1="156" x2="206" y1="55.1201" y2="55.1201"/><line style="stroke:#006400;stroke-width:2.0;" x1="206" x2="356" y1="35.1201" y2="35.1201"/><line style="stroke:#006400;stroke-width:2.0;" x1="156" x2="156" y1="55.1201" y2="75.1201"/><line style="stroke:#006400;stroke-width:2.0;" x1="206" x2="206" y1="35.1201" y2="55.1201"/><line style="stroke:#333333;stroke-width:0.5;" x1="10" x2="361" y1="87.1201" y2="87.1201"/><text fill="#333333" font-family="sans-serif" font-size="14" font-weight="bold" lengthAdjust="spacing" textLength="68" x="15" y="103.1641">Web User</text><line style="stroke:#333333;stroke-width:0.5;" x1="10" x2="84" y1="107.2402" y2="107.2402"/><line style="stroke:#333333;stroke-width:0.5;" x1="84" x2="94" y1="107.2402" y2="87.1201"/><polygon fill="#E2E2F0" points="68,112.2402,294,112.2402,306,124.2402,294,136.2402,68,136.2402,56,124.2402" style="stroke:#006400;stroke-width:1.5;"/><polygon fill="#E2E2F0" points="318,112.2402,356,112.2402,356,136.2402,318,136.2402,306,124.2402" style="stroke:#E2E2F0;stroke-width:1.5;"/><path d="M356,112.2402 L318,112.2402 L306,124.2402 L318,136.2402 L356,136.2402 " fill="#E2E2F0" style="stroke:#006400;stroke-width:1.5;"/><text fill="#333333" font-family="sans-serif" font-size="12" font-weight="bold" lengthAdjust="spacing" textLength="43" x="159.5" y="129.7979">Waiting</text><text fill="#333333" font-family="sans-serif" font-size="12" font-weight="bold" lengthAdjust="spacing" textLength="14" x="318" y="129.7979">ok</text><line style="stroke:#333333;stroke-width:2.0;" x1="56" x2="56" y1="146.2402" y2="151.2402"/><line style="stroke:#333333;stroke-width:2.0;" x1="106" x2="106" y1="146.2402" y2="151.2402"/><line style="stroke:#333333;stroke-width:2.0;" x1="156" x2="156" y1="146.2402" y2="151.2402"/><line style="stroke:#333333;stroke-width:2.0;" x1="206" x2="206" y1="146.2402" y2="151.2402"/><line style="stroke:#333333;stroke-width:2.0;" x1="256" x2="256" y1="146.2402" y2="151.2402"/><line style="stroke:#333333;stroke-width:2.0;" x1="306" x2="306" y1="146.2402" y2="151.2402"/><line style="stroke:#333333;stroke-width:2.0;" x1="356" x2="356" y1="146.2402" y2="151.2402"/><line style="stroke:#333333;stroke-width:2.0;" x1="56" x2="356" y1="146.2402" y2="146.2402"/><text fill="#333333" font-family="sans-serif" font-size="11" lengthAdjust="spacing" textLength="6" x="53" y="164.8462">0</text><text fill="#333333" font-family="sans-serif" font-size="11" lengthAdjust="spacing" textLength="18" x="147" y="164.8462">200</text><text fill="#333333" font-family="sans-serif" font-size="11" lengthAdjust="spacing" textLength="18" x="197" y="164.8462">300</text><text fill="#333333" font-family="sans-serif" font-size="11" lengthAdjust="spacing" textLength="18" x="297" y="164.8462">500</text><!--MD5=[ccc3cfd2e3ec37ddb7ffbb8b595d1e23]
@startuml
robust "Web Browser" as WB
concise "Web User" as WU

@WB
0 is idle
+200 is Proc.
+100 is Waiting

@WU
0 is Waiting
+500 is ok
@enduml

PlantUML version 1.2022.4(Sat Apr 09 21:29:17 CST 2022)
(GPL source distribution)
Java Runtime: Java(TM) SE Runtime Environment
JVM: Java HotSpot(TM) 64-Bit Server VM
Default Encoding: GBK
Language: zh
Country: CN
--></g></svg>