<?xml version="1.0" encoding="UTF-8" standalone="no"?><svg xmlns="http://www.w3.org/2000/svg" xmlns:xlink="http://www.w3.org/1999/xlink" contentStyleType="text/css" height="235px" preserveAspectRatio="none" style="width:500px;height:235px;background:#FFFFFF;" version="1.1" viewBox="0 0 500 235" width="500px" zoomAndPan="magnify"><defs/><g><line style="stroke:#333333;stroke-width:0.5;" x1="10" x2="10" y1="10" y2="203.3604"/><line style="stroke:#333333;stroke-width:0.5;" x1="483" x2="483" y1="10" y2="203.3604"/><line style="stroke:#333333;stroke-width:0.5;stroke-dasharray:3.0,5.0;" x1="78" x2="78" y1="10" y2="203.3604"/><line style="stroke:#333333;stroke-width:0.5;stroke-dasharray:3.0,5.0;" x1="128" x2="128" y1="10" y2="203.3604"/><line style="stroke:#333333;stroke-width:0.5;stroke-dasharray:3.0,5.0;" x1="178" x2="178" y1="10" y2="203.3604"/><line style="stroke:#333333;stroke-width:0.5;stroke-dasharray:3.0,5.0;" x1="228" x2="228" y1="10" y2="203.3604"/><line style="stroke:#333333;stroke-width:0.5;stroke-dasharray:3.0,5.0;" x1="278" x2="278" y1="10" y2="203.3604"/><line style="stroke:#333333;stroke-width:0.5;stroke-dasharray:3.0,5.0;" x1="328" x2="328" y1="10" y2="203.3604"/><line style="stroke:#333333;stroke-width:0.5;stroke-dasharray:3.0,5.0;" x1="378" x2="378" y1="10" y2="203.3604"/><line style="stroke:#333333;stroke-width:0.5;stroke-dasharray:3.0,5.0;" x1="428" x2="428" y1="10" y2="203.3604"/><line style="stroke:#333333;stroke-width:0.5;stroke-dasharray:3.0,5.0;" x1="478" x2="478" y1="10" y2="203.3604"/><line style="stroke:#333333;stroke-width:0.5;" x1="10" x2="483" y1="10" y2="10"/><text fill="#333333" font-family="sans-serif" font-size="14" font-weight="bold" lengthAdjust="spacing" textLength="97" x="15" y="26.0439">DNS Resolver</text><line style="stroke:#333333;stroke-width:0.5;" x1="10" x2="113" y1="30.1201" y2="30.1201"/><line style="stroke:#333333;stroke-width:0.5;" x1="113" x2="123" y1="30.1201" y2="10"/><text fill="#333333" font-family="sans-serif" font-size="12" lengthAdjust="spacing" textLength="20" x="15" y="61.6777">Idle</text><text fill="#333333" font-family="sans-serif" font-size="12" lengthAdjust="spacing" textLength="63" x="15" y="41.6777">Processing</text><line style="stroke:#006400;stroke-width:2.0;" x1="78" x2="278" y1="55.1201" y2="55.1201"/><line style="stroke:#006400;stroke-width:2.0;" x1="278" x2="428" y1="35.1201" y2="35.1201"/><line style="stroke:#006400;stroke-width:2.0;" x1="428" x2="478" y1="55.1201" y2="55.1201"/><line style="stroke:#006400;stroke-width:2.0;" x1="278" x2="278" y1="35.1201" y2="55.1201"/><line style="stroke:#006400;stroke-width:2.0;" x1="428" x2="428" y1="35.1201" y2="55.1201"/><line style="stroke:#333333;stroke-width:0.5;" x1="10" x2="483" y1="67.1201" y2="67.1201"/><text fill="#333333" font-family="sans-serif" font-size="14" font-weight="bold" lengthAdjust="spacing" textLength="94" x="15" y="83.1641">Web Browser</text><line style="stroke:#333333;stroke-width:0.5;" x1="10" x2="110" y1="87.2402" y2="87.2402"/><line style="stroke:#333333;stroke-width:0.5;" x1="110" x2="120" y1="87.2402" y2="67.1201"/><text fill="#333333" font-family="sans-serif" font-size="12" lengthAdjust="spacing" textLength="20" x="15" y="138.7979">Idle</text><text fill="#333333" font-family="sans-serif" font-size="12" lengthAdjust="spacing" textLength="63" x="15" y="118.7979">Processing</text><text fill="#333333" font-family="sans-serif" font-size="12" lengthAdjust="spacing" textLength="41" x="15" y="98.7979">Waiting</text><line style="stroke:#006400;stroke-width:2.0;" x1="78" x2="128" y1="132.2402" y2="132.2402"/><line style="stroke:#006400;stroke-width:2.0;" x1="128" x2="228" y1="112.2402" y2="112.2402"/><line style="stroke:#006400;stroke-width:2.0;" x1="228" x2="478" y1="92.2402" y2="92.2402"/><line style="stroke:#006400;stroke-width:2.0;" x1="128" x2="128" y1="112.2402" y2="132.2402"/><line style="stroke:#006400;stroke-width:2.0;" x1="228" x2="228" y1="92.2402" y2="112.2402"/><line style="stroke:#333333;stroke-width:0.5;" x1="10" x2="483" y1="144.2402" y2="144.2402"/><text fill="#333333" font-family="sans-serif" font-size="14" font-weight="bold" lengthAdjust="spacing" textLength="68" x="15" y="160.2842">Web User</text><line style="stroke:#333333;stroke-width:0.5;" x1="10" x2="84" y1="164.3604" y2="164.3604"/><line style="stroke:#333333;stroke-width:0.5;" x1="84" x2="94" y1="164.3604" y2="144.2402"/><polygon fill="#E2E2F0" points="90,169.3604,116,169.3604,128,181.3604,116,193.3604,90,193.3604,78,181.3604" style="stroke:#006400;stroke-width:1.5;"/><polygon fill="#E2E2F0" points="140,169.3604,478,169.3604,478,193.3604,140,193.3604,128,181.3604" style="stroke:#E2E2F0;stroke-width:1.5;"/><path d="M478,169.3604 L140,169.3604 L128,181.3604 L140,193.3604 L478,193.3604 " fill="#E2E2F0" style="stroke:#006400;stroke-width:1.5;"/><text fill="#333333" font-family="sans-serif" font-size="12" font-weight="bold" lengthAdjust="spacing" textLength="20" x="93" y="186.918">Idle</text><text fill="#333333" font-family="sans-serif" font-size="12" font-weight="bold" lengthAdjust="spacing" textLength="43" x="140" y="186.918">Waiting</text><line style="stroke:#333333;stroke-width:2.0;" x1="78" x2="78" y1="203.3604" y2="208.3604"/><line style="stroke:#333333;stroke-width:2.0;" x1="128" x2="128" y1="203.3604" y2="208.3604"/><line style="stroke:#333333;stroke-width:2.0;" x1="178" x2="178" y1="203.3604" y2="208.3604"/><line style="stroke:#333333;stroke-width:2.0;" x1="228" x2="228" y1="203.3604" y2="208.3604"/><line style="stroke:#333333;stroke-width:2.0;" x1="278" x2="278" y1="203.3604" y2="208.3604"/><line style="stroke:#333333;stroke-width:2.0;" x1="328" x2="328" y1="203.3604" y2="208.3604"/><line style="stroke:#333333;stroke-width:2.0;" x1="378" x2="378" y1="203.3604" y2="208.3604"/><line style="stroke:#333333;stroke-width:2.0;" x1="428" x2="428" y1="203.3604" y2="208.3604"/><line style="stroke:#333333;stroke-width:2.0;" x1="478" x2="478" y1="203.3604" y2="208.3604"/><line style="stroke:#333333;stroke-width:2.0;" x1="78" x2="478" y1="203.3604" y2="203.3604"/><text fill="#333333" font-family="sans-serif" font-size="11" lengthAdjust="spacing" textLength="6" x="75" y="221.9663">0</text><text fill="#333333" font-family="sans-serif" font-size="11" lengthAdjust="spacing" textLength="18" x="119" y="221.9663">100</text><text fill="#333333" font-family="sans-serif" font-size="11" lengthAdjust="spacing" textLength="18" x="219" y="221.9663">300</text><text fill="#333333" font-family="sans-serif" font-size="11" lengthAdjust="spacing" textLength="18" x="269" y="221.9663">400</text><text fill="#333333" font-family="sans-serif" font-size="11" lengthAdjust="spacing" textLength="18" x="419" y="221.9663">700</text><line style="stroke:#00008B;stroke-width:1.5;" x1="128" x2="128" y1="181.3604" y2="132.2402"/><polygon fill="#00008B" points="130.7362,139.7578,125.2638,139.7578,128,132.2402" style="stroke:#00008B;stroke-width:1.5;"/><text fill="#00008B" font-family="Serif" font-size="14" lengthAdjust="spacing" textLength="26" x="128" y="155.8017">URL</text><line style="stroke:#00008B;stroke-width:1.5;" x1="228" x2="253" y1="92.2402" y2="55.1201"/><polygon fill="#00008B" points="251.0701,62.8838,246.5312,59.8269,253,55.1201" style="stroke:#00008B;stroke-width:1.5;"/><text fill="#00008B" font-family="Serif" font-size="14" lengthAdjust="spacing" textLength="74" x="248.8006" y="77.3993">Resolve URL</text><!--MD5=[2c88caf1f38d57e1d9266affc88707a8]
@startuml
robust "DNS Resolver" as DNS
robust "Web Browser" as WB
concise "Web User" as WU

@0
WU is Idle
WB is Idle
DNS is Idle

@+100
WU -> WB : URL
WU is Waiting
WB is Processing

@+200
WB is Waiting
WB -> DNS@+50 : Resolve URL

@+100
DNS is Processing

@+300
DNS is Idle
@enduml

PlantUML version 1.2022.4(Sat Apr 09 21:29:17 CST 2022)
(GPL source distribution)
Java Runtime: Java(TM) SE Runtime Environment
JVM: Java HotSpot(TM) 64-Bit Server VM
Default Encoding: GBK
Language: zh
Country: CN
--></g></svg>