<?xml version="1.0" encoding="UTF-8" standalone="no"?><svg xmlns="http://www.w3.org/2000/svg" xmlns:xlink="http://www.w3.org/1999/xlink" contentStyleType="text/css" height="101px" preserveAspectRatio="none" style="width:337px;height:101px;background:#FFFFFF;" version="1.1" viewBox="0 0 337 101" width="337px" zoomAndPan="magnify"><defs/><g><line style="stroke:#333333;stroke-width:0.5;" x1="10" x2="10" y1="10" y2="69.1201"/><line style="stroke:#333333;stroke-width:0.5;" x1="320" x2="320" y1="10" y2="69.1201"/><line style="stroke:#333333;stroke-width:0.5;stroke-dasharray:3.0,5.0;" x1="15" x2="15" y1="10" y2="69.1201"/><line style="stroke:#333333;stroke-width:0.5;stroke-dasharray:3.0,5.0;" x1="65" x2="65" y1="10" y2="69.1201"/><line style="stroke:#333333;stroke-width:0.5;stroke-dasharray:3.0,5.0;" x1="115" x2="115" y1="10" y2="69.1201"/><line style="stroke:#333333;stroke-width:0.5;stroke-dasharray:3.0,5.0;" x1="165" x2="165" y1="10" y2="69.1201"/><line style="stroke:#333333;stroke-width:0.5;stroke-dasharray:3.0,5.0;" x1="215" x2="215" y1="10" y2="69.1201"/><line style="stroke:#333333;stroke-width:0.5;stroke-dasharray:3.0,5.0;" x1="265" x2="265" y1="10" y2="69.1201"/><line style="stroke:#333333;stroke-width:0.5;stroke-dasharray:3.0,5.0;" x1="315" x2="315" y1="10" y2="69.1201"/><line style="stroke:#333333;stroke-width:0.5;" x1="10" x2="320" y1="10" y2="10"/><text fill="#333333" font-family="sans-serif" font-size="14" font-weight="bold" lengthAdjust="spacing" textLength="68" x="15" y="26.0439">Web User</text><line style="stroke:#333333;stroke-width:0.5;" x1="10" x2="84" y1="30.1201" y2="30.1201"/><line style="stroke:#333333;stroke-width:0.5;" x1="84" x2="94" y1="30.1201" y2="10"/><polygon fill="#E2E2F0" points="27,35.1201,253,35.1201,265,47.1201,253,59.1201,27,59.1201,15,47.1201" style="stroke:#006400;stroke-width:1.5;"/><polygon fill="#E2E2F0" points="277,35.1201,315,35.1201,315,59.1201,277,59.1201,265,47.1201" style="stroke:#E2E2F0;stroke-width:1.5;"/><path d="M315,35.1201 L277,35.1201 L265,47.1201 L277,59.1201 L315,59.1201 " fill="#E2E2F0" style="stroke:#006400;stroke-width:1.5;"/><text fill="#333333" font-family="sans-serif" font-size="12" font-weight="bold" lengthAdjust="spacing" textLength="43" x="118.5" y="52.6777">Waiting</text><text fill="#333333" font-family="sans-serif" font-size="12" font-weight="bold" lengthAdjust="spacing" textLength="14" x="277" y="52.6777">ok</text><line style="stroke:#333333;stroke-width:2.0;" x1="15" x2="15" y1="69.1201" y2="74.1201"/><line style="stroke:#333333;stroke-width:2.0;" x1="65" x2="65" y1="69.1201" y2="74.1201"/><line style="stroke:#333333;stroke-width:2.0;" x1="115" x2="115" y1="69.1201" y2="74.1201"/><line style="stroke:#333333;stroke-width:2.0;" x1="165" x2="165" y1="69.1201" y2="74.1201"/><line style="stroke:#333333;stroke-width:2.0;" x1="215" x2="215" y1="69.1201" y2="74.1201"/><line style="stroke:#333333;stroke-width:2.0;" x1="265" x2="265" y1="69.1201" y2="74.1201"/><line style="stroke:#333333;stroke-width:2.0;" x1="315" x2="315" y1="69.1201" y2="74.1201"/><line style="stroke:#333333;stroke-width:2.0;" x1="15" x2="315" y1="69.1201" y2="69.1201"/><text fill="#333333" font-family="sans-serif" font-size="11" lengthAdjust="spacing" textLength="6" x="12" y="87.7261">0</text><text fill="#333333" font-family="sans-serif" font-size="11" lengthAdjust="spacing" textLength="18" x="56" y="87.7261">100</text><text fill="#333333" font-family="sans-serif" font-size="11" lengthAdjust="spacing" textLength="18" x="106" y="87.7261">200</text><text fill="#333333" font-family="sans-serif" font-size="11" lengthAdjust="spacing" textLength="18" x="156" y="87.7261">300</text><text fill="#333333" font-family="sans-serif" font-size="11" lengthAdjust="spacing" textLength="18" x="206" y="87.7261">400</text><text fill="#333333" font-family="sans-serif" font-size="11" lengthAdjust="spacing" textLength="18" x="256" y="87.7261">500</text><text fill="#333333" font-family="sans-serif" font-size="11" lengthAdjust="spacing" textLength="18" x="306" y="87.7261">600</text><!--MD5=[80de464a39970979d4a521364d01c694]
@startuml
concise "Web User" as WU
scale 100 as 50 pixels

@WU
0 is Waiting
+500 is ok
@enduml

PlantUML version 1.2022.4(Sat Apr 09 21:29:17 CST 2022)
(GPL source distribution)
Java Runtime: Java(TM) SE Runtime Environment
JVM: Java HotSpot(TM) 64-Bit Server VM
Default Encoding: GBK
Language: zh
Country: CN
--></g></svg>