<?xml version="1.0" encoding="UTF-8" standalone="no"?><svg xmlns="http://www.w3.org/2000/svg" xmlns:xlink="http://www.w3.org/1999/xlink" contentStyleType="text/css" height="125px" preserveAspectRatio="none" style="width:215px;height:125px;background:#FFFFFF;" version="1.1" viewBox="0 0 215 125" width="215px" zoomAndPan="magnify"><defs/><g><ellipse cx="47" cy="101" fill="#222222" rx="10" ry="10" style="stroke:none;stroke-width:1.0;"/><rect fill="#F1F1F1" height="36.3887" rx="12.5" ry="12.5" style="stroke:#181818;stroke-width:0.5;" width="82" x="7" y="7"/><text fill="#000000" font-family="sans-serif" font-size="12" lengthAdjust="spacing" textLength="62" x="17" y="30.752">First Activity</text><rect fill="#F1F1F1" height="36.3887" rx="12.5" ry="12.5" style="stroke:#181818;stroke-width:0.5;" width="100" x="109" y="7"/><text fill="#000000" font-family="sans-serif" font-size="12" lengthAdjust="spacing" textLength="80" x="119" y="30.752">Second Activity</text><rect fill="#F1F1F1" height="36.3887" rx="12.5" ry="12.5" style="stroke:#181818;stroke-width:0.5;" width="86" x="117" y="83"/><text fill="#000000" font-family="sans-serif" font-size="12" lengthAdjust="spacing" textLength="66" x="127" y="106.752">Third Activity</text><ellipse cx="87" cy="101" fill="none" rx="10" ry="10" style="stroke:#222222;stroke-width:1.0;"/><ellipse cx="87.5" cy="101.5" fill="#222222" rx="6" ry="6" style="stroke:none;stroke-width:1.0;"/><!--MD5=[f7bfbdab6068c629bf76c521d4431dc7]
reverse link First Activity to start--><g id="link_First Activity_start"><path d="M47.6995,48.2361 C47.5069,62.4888 47.2671,80.2378 47.1241,90.8147 " fill="none" id="First Activity-backto-start" style="stroke:#181818;stroke-width:1.0;"/><polygon fill="#181818" points="47.7681,43.1631,43.6466,52.1081,47.7004,48.1626,51.6458,52.2164,47.7681,43.1631" style="stroke:#181818;stroke-width:1.0;"/></g><!--MD5=[6bcf6ea5361ee4e59421f63d99fbee0a]
link First Activity to Second Activity--><g id="link_First Activity_Second Activity"><path d="M89.1914,25 C93.9976,25 98.8037,25 103.6099,25 " fill="none" id="First Activity-to-Second Activity" style="stroke:#181818;stroke-width:1.0;"/><polygon fill="#181818" points="108.825,25,99.825,21,103.825,25,99.825,29,108.825,25" style="stroke:#181818;stroke-width:1.0;"/></g><!--MD5=[8a67e0603365ae780847bc316118f2ae]
link Second Activity to Third Activity--><g id="link_Second Activity_Third Activity"><path d="M159.232,43.1631 C159.371,53.4368 159.549,66.6075 159.698,77.6831 " fill="none" id="Second Activity-to-Third Activity" style="stroke:#181818;stroke-width:1.0;"/><polygon fill="#181818" points="159.769,82.93,163.647,73.8768,159.7014,77.9305,155.6477,73.9849,159.769,82.93" style="stroke:#181818;stroke-width:1.0;"/></g><!--MD5=[98e5836a993643f81365061192e69323]
reverse link end to Third Activity--><g id="link_end_Third Activity"><path d="M102.4731,101 C107.272,101 112.071,101 116.87,101 " fill="none" id="end-backto-Third Activity" style="stroke:#181818;stroke-width:1.0;"/><polygon fill="#181818" points="97.2656,101,106.2656,105,102.2656,101,106.2656,97,97.2656,101" style="stroke:#181818;stroke-width:1.0;"/></g><!--MD5=[825cabd3e6eb6a5e746bd7ae36dc77f3]
@startuml

(*) -up-> "First Activity"
-right-> "Second Activity"
- -> "Third Activity"
-left-> (*)

@enduml

PlantUML version 1.2022.4(Sat Apr 09 21:29:17 CST 2022)
(GPL source distribution)
Java Runtime: Java(TM) SE Runtime Environment
JVM: Java HotSpot(TM) 64-Bit Server VM
Default Encoding: GBK
Language: zh
Country: CN
--></g></svg>