<?xml version="1.0" encoding="UTF-8" standalone="no"?><svg xmlns="http://www.w3.org/2000/svg" xmlns:xlink="http://www.w3.org/1999/xlink" contentStyleType="text/css" height="1174px" preserveAspectRatio="none" style="width:439px;height:1174px;background:#FFFFFF;" version="1.1" viewBox="0 0 439 1174" width="439px" zoomAndPan="magnify"><defs/><g><rect height="29.1201" style="stroke:#00000000;stroke-width:1.0;fill:none;" width="134" x="145.5484" y="5"/><text fill="#000000" font-family="sans-serif" font-size="14" font-weight="bold" lengthAdjust="spacing" textLength="124" x="150.5484" y="26.0439">Servlet Container</text><ellipse cx="135.0969" cy="56.1201" fill="#222222" rx="10" ry="10" style="stroke:none;stroke-width:1.0;"/><rect fill="#F1F1F1" height="36.3887" rx="12.5" ry="12.5" style="stroke:#181818;stroke-width:0.5;" width="180" x="45.0969" y="107.1201"/><text fill="#000000" font-family="sans-serif" font-size="12" lengthAdjust="spacing" textLength="160" x="55.0969" y="130.8721">ClickServlet.handleRequest()</text><rect fill="#F1F1F1" height="36.3887" rx="12.5" ry="12.5" style="stroke:#181818;stroke-width:0.5;" width="75" x="97.5969" y="184.1201"/><text fill="#000000" font-family="sans-serif" font-size="12" lengthAdjust="spacing" textLength="55" x="107.5969" y="207.8721">new Page</text><g id="elem_#7"><polygon fill="#F1F1F1" points="135.0969,267.1201,147.0969,279.1201,135.0969,291.1201,123.0969,279.1201,135.0969,267.1201" style="stroke:#181818;stroke-width:0.5;"/></g><rect fill="#F1F1F1" height="36.3887" rx="12.5" ry="12.5" style="stroke:#181818;stroke-width:0.5;" width="90" x="189.0969" y="261.1201"/><text fill="#000000" font-family="sans-serif" font-size="12" lengthAdjust="spacing" textLength="70" x="199.0969" y="284.8721">Page.onInit()</text><g id="elem_#12"><polygon fill="#F1F1F1" points="245.0969,344.1201,257.0969,356.1201,245.0969,368.1201,233.0969,356.1201,245.0969,344.1201" style="stroke:#181818;stroke-width:0.5;"/></g><rect fill="#F1F1F1" height="36.3887" rx="12.5" ry="12.5" style="stroke:#181818;stroke-width:0.5;" width="113" x="290.5969" y="338.1201"/><text fill="#000000" font-family="sans-serif" font-size="12" lengthAdjust="spacing" textLength="93" x="300.5969" y="361.8721">Process controls</text><g id="elem_#17"><polygon fill="#F1F1F1" points="347.0969,415.1201,359.0969,427.1201,347.0969,439.1201,335.0969,427.1201,347.0969,415.1201" style="stroke:#181818;stroke-width:0.5;"/></g><rect fill="#555555" height="8" style="stroke:none;stroke-width:1.0;" width="80" x="256.0969" y="496.1201"/><rect fill="#555555" height="8" style="stroke:none;stroke-width:1.0;" width="80" x="230.0969" y="796.1201"/><g id="elem_#25"><polygon fill="#F1F1F1" points="296.0969,561.1201,308.0969,573.1201,296.0969,585.1201,284.0969,573.1201,296.0969,561.1201" style="stroke:#181818;stroke-width:0.5;"/></g><rect fill="#F1F1F1" height="36.3887" rx="12.5" ry="12.5" style="stroke:#181818;stroke-width:0.5;" width="99" x="164.5969" y="642.1201"/><text fill="#000000" font-family="sans-serif" font-size="12" lengthAdjust="spacing" textLength="79" x="174.5969" y="665.8721">Page.onPost()</text><rect fill="#F1F1F1" height="36.3887" rx="12.5" ry="12.5" style="stroke:#181818;stroke-width:0.5;" width="115" x="212.5969" y="719.1201"/><text fill="#000000" font-family="sans-serif" font-size="12" lengthAdjust="spacing" textLength="95" x="222.5969" y="742.8721">Page.onRender()</text><rect fill="#F1F1F1" height="36.3887" rx="12.5" ry="12.5" style="stroke:#181818;stroke-width:0.5;" width="93" x="283.5969" y="642.1201"/><text fill="#000000" font-family="sans-serif" font-size="12" lengthAdjust="spacing" textLength="73" x="293.5969" y="665.8721">Page.onGet()</text><g id="elem_#37"><polygon fill="#F1F1F1" points="270.0969,845.1201,282.0969,857.1201,270.0969,869.1201,258.0969,857.1201,270.0969,845.1201" style="stroke:#181818;stroke-width:0.5;"/></g><rect fill="#F1F1F1" height="36.3887" rx="12.5" ry="12.5" style="stroke:#181818;stroke-width:0.5;" width="106" x="327.0969" y="889.1201"/><text fill="#000000" font-family="sans-serif" font-size="12" lengthAdjust="spacing" textLength="86" x="337.0969" y="912.8721">redirect request</text><rect fill="#555555" height="8" style="stroke:none;stroke-width:1.0;" width="80" x="275.0969" y="1022.1201"/><g id="elem_#44"><polygon fill="#F1F1F1" points="198.0969,951.1201,210.0969,963.1201,198.0969,975.1201,186.0969,963.1201,198.0969,951.1201" style="stroke:#181818;stroke-width:0.5;"/></g><rect fill="#F1F1F1" height="36.3887" rx="12.5" ry="12.5" style="stroke:#181818;stroke-width:0.5;" width="110" x="36.0969" y="945.1201"/><text fill="#000000" font-family="sans-serif" font-size="12" lengthAdjust="spacing" textLength="90" x="46.0969" y="968.8721">Forward request</text><rect fill="#F1F1F1" height="36.3887" rx="12.5" ry="12.5" style="stroke:#181818;stroke-width:0.5;" width="143" x="243.5969" y="945.1201"/><text fill="#000000" font-family="sans-serif" font-size="12" lengthAdjust="spacing" textLength="123" x="253.5969" y="968.8721">Render page template</text><rect fill="#F1F1F1" height="36.3887" rx="12.5" ry="12.5" style="stroke:#181818;stroke-width:0.5;" width="116" x="257.0969" y="1071.1201"/><text fill="#000000" font-family="sans-serif" font-size="12" lengthAdjust="spacing" textLength="96" x="267.0969" y="1094.8721">Page.onDestroy()</text><ellipse cx="315.0969" cy="1158.1201" fill="none" rx="10" ry="10" style="stroke:#222222;stroke-width:1.0;"/><ellipse cx="315.5969" cy="1158.6201" fill="#222222" rx="6" ry="6" style="stroke:none;stroke-width:1.0;"/><!--MD5=[9843cc3cce4851f1dfefd6325c51ae36]
link start to ClickServlet.handleRequest()--><g id="link_start_ClickServlet.handleRequest()"><path d="M135.0969,66.1601 C135.0969,75.2801 135.0969,89.7301 135.0969,101.9201 " fill="none" id="start-to-ClickServlet.handleRequest()" style="stroke:#181818;stroke-width:1.0;"/><polygon fill="#181818" points="135.0969,106.9901,139.0969,97.9901,135.0969,101.9901,131.0969,97.9901,135.0969,106.9901" style="stroke:#181818;stroke-width:1.0;"/></g><!--MD5=[8e4cdb0bcc61bc4363d9081e3f48fc02]
link ClickServlet.handleRequest() to new Page--><g id="link_ClickServlet.handleRequest()_new Page"><path d="M135.0969,143.1401 C135.0969,153.7101 135.0969,167.4101 135.0969,178.8371 " fill="none" id="ClickServlet.handleRequest()-to-new Page" style="stroke:#181818;stroke-width:1.0;"/><polygon fill="#181818" points="135.0969,183.9091,139.0969,174.9091,135.0969,178.9091,131.0969,174.9091,135.0969,183.9091" style="stroke:#181818;stroke-width:1.0;"/></g><!--MD5=[8f951817337bff1a781314f40ad07f78]
link new Page to #7--><g id="link_new Page_#7"><path d="M135.0969,220.1391 C135.0969,232.5821 135.0969,249.3651 135.0969,261.6721 " fill="none" id="new Page-to-#7" style="stroke:#181818;stroke-width:1.0;"/><polygon fill="#181818" points="135.0969,266.9801,139.0969,257.9801,135.0969,261.9801,131.0969,257.9801,135.0969,266.9801" style="stroke:#181818;stroke-width:1.0;"/><text fill="#000000" font-family="sans-serif" font-size="11" lengthAdjust="spacing" textLength="109" x="6" y="257.3481">Page.onSecurityCheck</text></g><!--MD5=[442f59e6706c654e0e1fed8d762aab0e]
link #7 to Page.onInit()--><g id="link_#7_Page.onInit()"><path d="M147.2359,279.1201 C156.6169,279.1201 170.2779,279.1201 184.0009,279.1201 " fill="none" id="#7-to-Page.onInit()" style="stroke:#181818;stroke-width:1.0;"/><polygon fill="#181818" points="189.0509,279.1201,180.0509,275.1201,184.0509,279.1201,180.0509,283.1201,189.0509,279.1201" style="stroke:#181818;stroke-width:1.0;"/><text fill="#000000" font-family="sans-serif" font-size="11" lengthAdjust="spacing" textLength="19" x="158.5969" y="272.7261">true</text></g><!--MD5=[840674ed479bc6201b36fbbeb5c76c6e]
link Page.onInit() to #12--><g id="link_Page.onInit()_#12"><path d="M236.5929,297.1391 C238.5009,310.1481 241.1049,327.9001 242.9269,340.3231 " fill="none" id="Page.onInit()-to-#12" style="stroke:#181818;stroke-width:1.0;"/><polygon fill="#181818" points="243.6549,345.2911,246.3063,335.8059,242.9292,340.3441,238.391,336.967,243.6549,345.2911" style="stroke:#181818;stroke-width:1.0;"/><text fill="#000000" font-family="sans-serif" font-size="11" lengthAdjust="spacing" textLength="56" x="172.5659" y="333.5093">isForward?</text></g><!--MD5=[468ea18e39b9c43d38f4b28c970ed727]
link #12 to Process controls--><g id="link_#12_Process controls"><path d="M257.1979,356.1201 C264.5449,356.1201 274.5429,356.1201 285.2079,356.1201 " fill="none" id="#12-to-Process controls" style="stroke:#181818;stroke-width:1.0;"/><polygon fill="#181818" points="290.4879,356.1201,281.4879,352.1201,285.4879,356.1201,281.4879,360.1201,290.4879,356.1201" style="stroke:#181818;stroke-width:1.0;"/><text fill="#000000" font-family="sans-serif" font-size="11" lengthAdjust="spacing" textLength="12" x="267.8469" y="349.7261">no</text></g><!--MD5=[f8a07d94582bc6fa564eb53849f91a83]
link Process controls to #17--><g id="link_Process controls_#17"><path d="M347.0969,374.1761 C347.0969,385.0511 347.0969,399.0641 347.0969,409.7941 " fill="none" id="Process controls-to-#17" style="stroke:#181818;stroke-width:1.0;"/><polygon fill="#181818" points="347.0969,415.0721,351.0969,406.0721,347.0969,410.0721,343.0969,406.0721,347.0969,415.0721" style="stroke:#181818;stroke-width:1.0;"/><text fill="#000000" font-family="sans-serif" font-size="11" lengthAdjust="spacing" textLength="104" x="223.2719" y="405.2298">continue processing?</text></g><!--MD5=[2bbe3bda44e2007214577d1f89e8d65a]
link #17 to RENDERING--><g id="link_#17_RENDERING"><path d="M342.3899,434.6721 C332.9029,447.8801 311.5329,477.6311 301.4959,491.6041 " fill="none" id="#17-to-RENDERING" style="stroke:#181818;stroke-width:1.0;"/><polygon fill="#181818" points="298.3539,495.9781,306.853,491.0018,301.2707,491.9171,300.3554,486.3348,298.3539,495.9781" style="stroke:#181818;stroke-width:1.0;"/><text fill="#000000" font-family="sans-serif" font-size="11" lengthAdjust="spacing" textLength="18" x="325.0969" y="472.7261">yes</text></g><!--MD5=[5f71d430ceeb5c3ef2c91e3ba615353d]
link #17 to REDIRECT_CHECK--><g id="link_#17_REDIRECT_CHECK"><path d="M354.5769,432.1601 C370.8659,441.5651 408.0969,466.6181 408.0969,499.1201 C408.0969,499.1201 408.0969,499.1201 408.0969,738.1201 C408.0969,779.3591 355.9069,792.9461 315.7179,797.2951 " fill="none" id="#17-to-REDIRECT_CHECK" style="stroke:#181818;stroke-width:1.0;"/><polygon fill="#181818" points="310.3829,797.8271,319.7351,800.9152,315.3582,797.3314,318.942,792.9546,310.3829,797.8271" style="stroke:#181818;stroke-width:1.0;"/><text fill="#000000" font-family="sans-serif" font-size="11" lengthAdjust="spacing" textLength="12" x="409.0969" y="618.7261">no</text></g><!--MD5=[6a8a41751c468fb04cf68dd3c0811e0a]
link #12 to RENDERING--><g id="link_#12_RENDERING"><path d="M248.1349,365.5771 C257.2669,391.0041 284.3889,466.5211 293.2559,491.2111 " fill="none" id="#12-to-RENDERING" style="stroke:#181818;stroke-width:1.0;"/><polygon fill="#181818" points="295.0189,496.1171,295.7414,486.2948,293.3289,491.4114,288.2123,488.9988,295.0189,496.1171" style="stroke:#181818;stroke-width:1.0;"/><text fill="#000000" font-family="sans-serif" font-size="11" lengthAdjust="spacing" textLength="18" x="275.0969" y="432.2261">yes</text></g><!--MD5=[c7421490fd7f2c0691528180bb1860ed]
link RENDERING to #25--><g id="link_RENDERING_#25"><path d="M296.0969,504.1711 C296.0969,512.9751 296.0969,538.8891 296.0969,556.0491 " fill="none" id="RENDERING-to-#25" style="stroke:#181818;stroke-width:1.0;"/><polygon fill="#181818" points="296.0969,561.0651,300.0969,552.0651,296.0969,556.0651,292.0969,552.0651,296.0969,561.0651" style="stroke:#181818;stroke-width:1.0;"/><text fill="#000000" font-family="sans-serif" font-size="11" lengthAdjust="spacing" textLength="38" x="250.2594" y="550.6094">is Post?</text></g><!--MD5=[a7c803dadb2bf8d4325f58119802a0ce]
link #25 to Page.onPost()--><g id="link_#25_Page.onPost()"><path d="M290.4609,579.9621 C279.0629,591.7771 252.7849,619.0171 234.2509,638.2291 " fill="none" id="#25-to-Page.onPost()" style="stroke:#181818;stroke-width:1.0;"/><polygon fill="#181818" points="230.6539,641.9571,239.7812,638.2569,234.1253,638.3586,234.0236,632.7026,230.6539,641.9571" style="stroke:#181818;stroke-width:1.0;"/><text fill="#000000" font-family="sans-serif" font-size="11" lengthAdjust="spacing" textLength="18" x="265.0969" y="618.7261">yes</text></g><!--MD5=[1b66f207618bdab3497afc4703026f8c]
link Page.onPost() to render--><g id="link_Page.onPost()_render"><path d="M226.8039,678.1391 C234.9089,688.9931 245.4799,703.1511 254.1469,714.7591 " fill="none" id="Page.onPost()-to-render" style="stroke:#181818;stroke-width:1.0;"/><polygon fill="#181818" points="257.2459,718.9091,255.0673,709.3042,254.2548,714.9024,248.6566,714.09,257.2459,718.9091" style="stroke:#181818;stroke-width:1.0;"/></g><!--MD5=[531fb059dfadf2caceee1ad554904a10]
link render to REDIRECT_CHECK--><g id="link_render_REDIRECT_CHECK"><path d="M270.0969,755.4371 C270.0969,766.9951 270.0969,781.6801 270.0969,790.7371 " fill="none" id="render-to-REDIRECT_CHECK" style="stroke:#181818;stroke-width:1.0;"/><polygon fill="#181818" points="270.0969,795.7861,274.0969,786.7861,270.0969,790.7861,266.0969,786.7861,270.0969,795.7861" style="stroke:#181818;stroke-width:1.0;"/></g><!--MD5=[56f466b611eacf2c0e0382fe8c4a4567]
link #25 to Page.onGet()--><g id="link_#25_Page.onGet()"><path d="M299.3569,582.2701 C304.3709,594.8041 314.1459,619.2431 321.3329,637.2091 " fill="none" id="#25-to-Page.onGet()" style="stroke:#181818;stroke-width:1.0;"/><polygon fill="#181818" points="323.2849,642.0901,323.6563,632.2483,321.4279,637.4477,316.2285,635.2194,323.2849,642.0901" style="stroke:#181818;stroke-width:1.0;"/><text fill="#000000" font-family="sans-serif" font-size="11" lengthAdjust="spacing" textLength="12" x="316.0969" y="618.7261">no</text></g><!--MD5=[3fb9788c4256cc5bfe605eeb51329e9d]
link Page.onGet() to render--><g id="link_Page.onGet()_render"><path d="M316.4819,678.1391 C307.7979,688.9931 296.4719,703.1511 287.1859,714.7591 " fill="none" id="Page.onGet()-to-render" style="stroke:#181818;stroke-width:1.0;"/><polygon fill="#181818" points="283.8659,718.9091,292.6122,714.3812,286.9899,715.0052,286.3659,709.3829,283.8659,718.9091" style="stroke:#181818;stroke-width:1.0;"/></g><!--MD5=[db263ddebc84185206929ab8e35755a6]
link #7 to REDIRECT_CHECK--><g id="link_#7_REDIRECT_CHECK"><path d="M134.6329,290.7991 C134.0419,305.3431 133.0969,332.1951 133.0969,355.1201 C133.0969,355.1201 133.0969,355.1201 133.0969,738.1201 C133.0969,778.9841 184.5939,792.6701 224.4419,797.1431 " fill="none" id="#7-to-REDIRECT_CHECK" style="stroke:#181818;stroke-width:1.0;"/><polygon fill="#181818" points="229.7329,797.6921,221.1934,792.7853,224.7595,797.1765,220.3684,800.7427,229.7329,797.6921" style="stroke:#181818;stroke-width:1.0;"/><text fill="#000000" font-family="sans-serif" font-size="11" lengthAdjust="spacing" textLength="24" x="134.0969" y="537.7261">false</text></g><!--MD5=[e5e14e905e169636a99b462378a20df9]
link REDIRECT_CHECK to #37--><g id="link_REDIRECT_CHECK_#37"><path d="M270.0969,804.3961 C270.0969,811.1951 270.0969,827.2401 270.0969,839.6721 " fill="none" id="REDIRECT_CHECK-to-#37" style="stroke:#181818;stroke-width:1.0;"/><polygon fill="#181818" points="270.0969,844.7411,274.0969,835.7411,270.0969,839.7411,266.0969,835.7411,270.0969,844.7411" style="stroke:#181818;stroke-width:1.0;"/><text fill="#000000" font-family="sans-serif" font-size="11" lengthAdjust="spacing" textLength="59" x="199.85" y="834.7726">Do redirect?</text></g><!--MD5=[19ef8a6fd7a8f73013c4702088c1db69]
link #37 to redirect request--><g id="link_#37_redirect request"><path d="M278.0079,861.5721 C290.2409,866.9101 314.6249,877.5501 336.4939,887.0931 " fill="none" id="#37-to-redirect request" style="stroke:#181818;stroke-width:1.0;"/><polygon fill="#181818" points="341.1169,889.1101,334.4681,881.8442,336.5343,887.1102,331.2682,889.1764,341.1169,889.1101" style="stroke:#181818;stroke-width:1.0;"/><text fill="#000000" font-family="sans-serif" font-size="11" lengthAdjust="spacing" textLength="18" x="290.5789" y="871.9551">yes</text></g><!--MD5=[8c09a5a3fd1d167ed9e4ab1437a021a2]
link redirect request to BEFORE_DESTROY--><g id="link_redirect request_BEFORE_DESTROY"><path d="M390.7829,925.1601 C399.0359,940.7011 407.4519,963.8111 397.0969,981.1201 C383.6959,1003.5191 354.5499,1015.1711 334.8699,1020.7191 " fill="none" id="redirect request-to-BEFORE_DESTROY" style="stroke:#181818;stroke-width:1.0;"/><polygon fill="#181818" points="329.8389,1022.0641,339.5667,1023.6036,334.6692,1020.7726,337.5002,1015.8751,329.8389,1022.0641" style="stroke:#181818;stroke-width:1.0;"/></g><!--MD5=[db7b4fd881e0dba88560edc1c3627eab]
link #37 to #44--><g id="link_#37_#44"><path d="M265.5929,864.6261 C253.5219,882.0621 220.3529,929.9731 205.4809,951.4541 " fill="none" id="#37-to-#44" style="stroke:#181818;stroke-width:1.0;"/><polygon fill="#181818" points="202.5989,955.6171,211.01,950.4933,205.4445,951.5058,204.4319,945.9403,202.5989,955.6171" style="stroke:#181818;stroke-width:1.0;"/><text fill="#000000" font-family="sans-serif" font-size="11" lengthAdjust="spacing" textLength="64" x="154.04" y="968.1033">Do Forward?</text></g><!--MD5=[4700c1a4d8c6247b24de21d70a2e1f38]
reverse link Forward request to #44--><g id="link_Forward request_#44"><path d="M151.4069,963.1201 C164.5159,963.1201 177.0709,963.1201 185.8539,963.1201 " fill="none" id="Forward request-backto-#44" style="stroke:#181818;stroke-width:1.0;"/><polygon fill="#181818" points="146.1639,963.1201,155.1639,967.1201,151.1639,963.1201,155.1639,959.1201,146.1639,963.1201" style="stroke:#181818;stroke-width:1.0;"/><text fill="#000000" font-family="sans-serif" font-size="11" lengthAdjust="spacing" textLength="18" x="157.0969" y="956.7261">yes</text></g><!--MD5=[fdb647f30167129099f8dd933b3b0438]
link Forward request to BEFORE_DESTROY--><g id="link_Forward request_BEFORE_DESTROY"><path d="M146.1799,979.1201 C196.3869,992.7931 267.3769,1012.1251 298.9139,1020.7131 " fill="none" id="Forward request-to-BEFORE_DESTROY" style="stroke:#181818;stroke-width:1.0;"/><polygon fill="#181818" points="303.9799,1022.0931,296.346,1015.8702,299.1553,1020.7802,294.2454,1023.5895,303.9799,1022.0931" style="stroke:#181818;stroke-width:1.0;"/></g><!--MD5=[de19d49cc13cb82bc4299711c0db1787]
link #44 to Render page template--><g id="link_#44_Render page template"><path d="M210.1769,963.1201 C217.4679,963.1201 227.4439,963.1201 238.3609,963.1201 " fill="none" id="#44-to-Render page template" style="stroke:#181818;stroke-width:1.0;"/><polygon fill="#181818" points="243.4369,963.1201,234.4369,959.1201,238.4369,963.1201,234.4369,967.1201,243.4369,963.1201" style="stroke:#181818;stroke-width:1.0;"/><text fill="#000000" font-family="sans-serif" font-size="11" lengthAdjust="spacing" textLength="12" x="220.8469" y="956.7261">no</text></g><!--MD5=[bc03185f8d75878528e80e1593c511dd]
link Render page template to BEFORE_DESTROY--><g id="link_Render page template_BEFORE_DESTROY"><path d="M315.0969,981.4371 C315.0969,992.9951 315.0969,1007.6801 315.0969,1016.7371 " fill="none" id="Render page template-to-BEFORE_DESTROY" style="stroke:#181818;stroke-width:1.0;"/><polygon fill="#181818" points="315.0969,1021.7861,319.0969,1012.7861,315.0969,1016.7861,311.0969,1012.7861,315.0969,1021.7861" style="stroke:#181818;stroke-width:1.0;"/></g><!--MD5=[5b04f114e9641b095f126177f2131d69]
link BEFORE_DESTROY to Page.onDestroy()--><g id="link_BEFORE_DESTROY_Page.onDestroy()"><path d="M315.0969,1030.4001 C315.0969,1037.0411 315.0969,1052.5791 315.0969,1065.8621 " fill="none" id="BEFORE_DESTROY-to-Page.onDestroy()" style="stroke:#181818;stroke-width:1.0;"/><polygon fill="#181818" points="315.0969,1071.0065,319.0969,1062.0065,315.0969,1066.0065,311.0969,1062.0065,315.0969,1071.0065" style="stroke:#181818;stroke-width:1.0;"/></g><!--MD5=[4b945f0d4b49186e1c7b48d2cd702fc6]
link Page.onDestroy() to end--><g id="link_Page.onDestroy()_end"><path d="M315.0969,1107.3743 C315.0969,1118.336 315.0969,1132.3599 315.0969,1142.7218 " fill="none" id="Page.onDestroy()-to-end" style="stroke:#181818;stroke-width:1.0;"/><polygon fill="#181818" points="315.0969,1147.771,319.0969,1138.771,315.0969,1142.771,311.0969,1138.771,315.0969,1147.771" style="stroke:#181818;stroke-width:1.0;"/></g><!--MD5=[2fcd6c108c75648353cf166d6711182e]
@startuml
title Servlet Container

(*) - -> "ClickServlet.handleRequest()"
- -> "new Page"

if "Page.onSecurityCheck" then
  ->[true] "Page.onInit()"
  
  if "isForward?" then
   ->[no] "Process controls"
   
   if "continue processing?" then
     - ->[yes] ===RENDERING===
   else
     - ->[no] ===REDIRECT_CHECK===
   endif
   
  else
   - ->[yes] ===RENDERING===
  endif
  
  if "is Post?" then
    - ->[yes] "Page.onPost()"
    - -> "Page.onRender()" as render
    - -> ===REDIRECT_CHECK===
  else
    - ->[no] "Page.onGet()"
    - -> render
  endif
  
else
  - ->[false] ===REDIRECT_CHECK===
endif

if "Do redirect?" then
 ->[yes] "redirect request"
 - -> ==BEFORE_DESTROY===
else
 if "Do Forward?" then
  -left->[yes] "Forward request"
  - -> ==BEFORE_DESTROY===
 else
  -right->[no] "Render page template"
  - -> ==BEFORE_DESTROY===
 endif
endif

- -> "Page.onDestroy()"
- ->(*)

@enduml

PlantUML version 1.2022.4(Sat Apr 09 21:29:17 CST 2022)
(GPL source distribution)
Java Runtime: Java(TM) SE Runtime Environment
JVM: Java HotSpot(TM) 64-Bit Server VM
Default Encoding: GBK
Language: zh
Country: CN
--></g></svg>