<?xml version="1.0" encoding="UTF-8" standalone="no"?><svg xmlns="http://www.w3.org/2000/svg" xmlns:xlink="http://www.w3.org/1999/xlink" contentStyleType="text/css" height="263px" preserveAspectRatio="none" style="width:179px;height:263px;background:#FFFFFF;" version="1.1" viewBox="0 0 179 263" width="179px" zoomAndPan="magnify"><defs/><g><ellipse cx="57" cy="16" fill="#222222" rx="10" ry="10" style="stroke:none;stroke-width:1.0;"/><rect fill="#F1F1F1" height="36.3887" rx="12.5" ry="12.5" style="stroke:#181818;stroke-width:0.5;" width="82" x="16" y="67"/><text fill="#000000" font-family="sans-serif" font-size="12" lengthAdjust="spacing" textLength="62" x="26" y="90.752">First Activity</text><rect fill="#F1F1F1" height="36.3887" rx="12.5" ry="12.5" style="stroke:#181818;stroke-width:0.5;" width="100" x="7" y="160"/><text fill="#000000" font-family="sans-serif" font-size="12" lengthAdjust="spacing" textLength="80" x="17" y="183.752">Second Activity</text><ellipse cx="57" cy="247" fill="none" rx="10" ry="10" style="stroke:#222222;stroke-width:1.0;"/><ellipse cx="57.5" cy="247.5" fill="#222222" rx="6" ry="6" style="stroke:none;stroke-width:1.0;"/><!--MD5=[7b51c630cb61ed9b5d850ed70c977c40]
link start to First Activity--><g id="link_start_First Activity"><path d="M57,26.036 C57,35.162 57,49.614 57,61.804 " fill="none" id="start-to-First Activity" style="stroke:#181818;stroke-width:1.0;"/><polygon fill="#181818" points="57,66.868,61,57.868,57,61.868,53,57.868,57,66.868" style="stroke:#181818;stroke-width:1.0;"/></g><!--MD5=[6bcf6ea5361ee4e59421f63d99fbee0a]
link First Activity to Second Activity--><g id="link_First Activity_Second Activity"><path d="M57,103.116 C57,117.733 57,138.857 57,154.778 " fill="none" id="First Activity-to-Second Activity" style="stroke:#181818;stroke-width:1.0;"/><polygon fill="#181818" points="57,159.9603,61,150.9603,57,154.9603,53,150.9603,57,159.9603" style="stroke:#181818;stroke-width:1.0;"/><text fill="#000000" font-family="sans-serif" font-size="11" lengthAdjust="spacing" textLength="113" x="58" y="136.606">You can put also labels</text></g><!--MD5=[53f95cfb746dba279ce9e70d89122c70]
link Second Activity to end--><g id="link_Second Activity_end"><path d="M57,196.2542 C57,207.2159 57,221.2398 57,231.6017 " fill="none" id="Second Activity-to-end" style="stroke:#181818;stroke-width:1.0;"/><polygon fill="#181818" points="57,236.6509,61,227.6509,57,231.6509,53,227.6509,57,236.6509" style="stroke:#181818;stroke-width:1.0;"/></g><!--MD5=[97d2d880f9bb5a4e2d6d484ab8da94ba]
@startuml

(*) - -> "First Activity"
- ->[You can put also labels] "Second Activity"
- -> (*)

@enduml

PlantUML version 1.2022.4(Sat Apr 09 21:29:17 CST 2022)
(GPL source distribution)
Java Runtime: Java(TM) SE Runtime Environment
JVM: Java HotSpot(TM) 64-Bit Server VM
Default Encoding: GBK
Language: zh
Country: CN
--></g></svg>