<?xml version="1.0" encoding="UTF-8" standalone="no"?><svg xmlns="http://www.w3.org/2000/svg" xmlns:xlink="http://www.w3.org/1999/xlink" contentStyleType="text/css" height="433px" preserveAspectRatio="none" style="width:292px;height:433px;background:#FFFFFF;" version="1.1" viewBox="0 0 292 433" width="292px" zoomAndPan="magnify"><defs/><g><ellipse cx="115.5" cy="16" fill="#222222" rx="10" ry="10" style="stroke:none;stroke-width:1.0;"/><g id="elem_#3"><polygon fill="#F1F1F1" points="115.5,73,127.5,85,115.5,97,103.5,85,115.5,73" style="stroke:#181818;stroke-width:0.5;"/></g><rect fill="#F1F1F1" height="36.3887" rx="12.5" ry="12.5" style="stroke:#181818;stroke-width:0.5;" width="65" x="83" y="160"/><text fill="#000000" font-family="sans-serif" font-size="12" lengthAdjust="spacing" textLength="45" x="93" y="183.752">activity 1</text><g id="elem_#8"><polygon fill="#F1F1F1" points="115.5,243,127.5,255,115.5,267,103.5,255,115.5,243" style="stroke:#181818;stroke-width:0.5;"/></g><rect fill="#F1F1F1" height="36.3887" rx="12.5" ry="12.5" style="stroke:#181818;stroke-width:0.5;" width="65" x="149" y="237"/><text fill="#000000" font-family="sans-serif" font-size="12" lengthAdjust="spacing" textLength="45" x="159" y="260.752">activity 3</text><g id="elem_#13"><polygon fill="#F1F1F1" points="104.5,320,116.5,332,104.5,344,92.5,332,104.5,320" style="stroke:#181818;stroke-width:0.5;"/></g><rect fill="#F1F1F1" height="36.3887" rx="12.5" ry="12.5" style="stroke:#181818;stroke-width:0.5;" width="65" x="7" y="314"/><text fill="#000000" font-family="sans-serif" font-size="12" lengthAdjust="spacing" textLength="45" x="17" y="337.752">activity 5</text><rect fill="#F1F1F1" height="36.3887" rx="12.5" ry="12.5" style="stroke:#181818;stroke-width:0.5;" width="65" x="71" y="391"/><text fill="#000000" font-family="sans-serif" font-size="12" lengthAdjust="spacing" textLength="45" x="81" y="414.752">activity 6</text><rect fill="#F1F1F1" height="36.3887" rx="12.5" ry="12.5" style="stroke:#181818;stroke-width:0.5;" width="65" x="173" y="67"/><text fill="#000000" font-family="sans-serif" font-size="12" lengthAdjust="spacing" textLength="45" x="183" y="90.752">activity 2</text><g id="elem_#23"><polygon fill="#F1F1F1" points="188.5,320,200.5,332,188.5,344,176.5,332,188.5,320" style="stroke:#181818;stroke-width:0.5;"/></g><rect fill="#F1F1F1" height="36.3887" rx="12.5" ry="12.5" style="stroke:#181818;stroke-width:0.5;" width="65" x="156" y="391"/><text fill="#000000" font-family="sans-serif" font-size="12" lengthAdjust="spacing" textLength="45" x="166" y="414.752">activity 7</text><rect fill="#F1F1F1" height="36.3887" rx="12.5" ry="12.5" style="stroke:#181818;stroke-width:0.5;" width="65" x="221" y="314"/><text fill="#000000" font-family="sans-serif" font-size="12" lengthAdjust="spacing" textLength="45" x="231" y="337.752">activity 8</text><!--MD5=[9e7bccaab94f33706b7c2613f3cc0026]
link start to #3--><g id="link_start_#3"><path d="M115.5,26.036 C115.5,36.662 115.5,54.51 115.5,67.599 " fill="none" id="start-to-#3" style="stroke:#181818;stroke-width:1.0;"/><polygon fill="#181818" points="115.5,72.882,119.5,63.882,115.5,67.882,111.5,63.882,115.5,72.882" style="stroke:#181818;stroke-width:1.0;"/><text fill="#000000" font-family="sans-serif" font-size="11" lengthAdjust="spacing" textLength="51" x="53.9813" y="62.4003">Some Test</text></g><!--MD5=[60430cbcfc8f002115a8b691264c23d4]
link #3 to activity 1--><g id="link_#3_activity 1"><path d="M115.5,97.158 C115.5,111.352 115.5,136.205 115.5,154.422 " fill="none" id="#3-to-activity 1" style="stroke:#181818;stroke-width:1.0;"/><polygon fill="#181818" points="115.5,159.844,119.5,150.844,115.5,154.844,111.5,150.844,115.5,159.844" style="stroke:#181818;stroke-width:1.0;"/><text fill="#000000" font-family="sans-serif" font-size="11" lengthAdjust="spacing" textLength="19" x="116.5" y="136.606">true</text></g><!--MD5=[d21fdb4ca0031079ee63119c36138f1e]
link activity 1 to #8--><g id="link_activity 1_#8"><path d="M115.5,196.019 C115.5,208.462 115.5,225.245 115.5,237.552 " fill="none" id="activity 1-to-#8" style="stroke:#181818;stroke-width:1.0;"/><polygon fill="#181818" points="115.5,242.86,119.5,233.86,115.5,237.86,111.5,233.86,115.5,242.86" style="stroke:#181818;stroke-width:1.0;"/><text fill="#000000" font-family="sans-serif" font-size="11" lengthAdjust="spacing" textLength="3" x="111.8813" y="232.3692"> </text></g><!--MD5=[d656329860fa61bec791fcad3354f5ad]
link #8 to a3--><g id="link_#8_a3"><path d="M127.617,255 C132.879,255 138.141,255 143.403,255 " fill="none" id="#8-to-a3" style="stroke:#181818;stroke-width:1.0;"/><polygon fill="#181818" points="148.665,255,139.665,251,143.665,255,139.665,259,148.665,255" style="stroke:#181818;stroke-width:1.0;"/></g><!--MD5=[fbf94322611eaece0ea76740bbea1d45]
link #8 to #13--><g id="link_#8_#13"><path d="M114.062,265.805 C112.195,278.536 108.916,300.888 106.7265,315.82 " fill="none" id="#8-to-#13" style="stroke:#181818;stroke-width:1.0;"/><polygon fill="#181818" points="105.9735,320.953,111.2373,312.6288,106.6991,316.0059,103.322,311.4678,105.9735,320.953" style="stroke:#181818;stroke-width:1.0;"/><text fill="#000000" font-family="sans-serif" font-size="11" lengthAdjust="spacing" textLength="48" x="118.3918" y="309.5229">Other test</text></g><!--MD5=[4854def1bea6e82edfeeaadbe647e823]
reverse link activity 5 to #13--><g id="link_activity 5_#13"><path d="M77.2924,332 C82.3308,332 87.3693,332 92.4077,332 " fill="none" id="activity 5-backto-#13" style="stroke:#181818;stroke-width:1.0;"/><polygon fill="#181818" points="72.2539,332,81.2539,336,77.2539,332,81.2539,328,72.2539,332" style="stroke:#181818;stroke-width:1.0;"/></g><!--MD5=[e29d43a861d84414950ba52edb2a6a55]
link #13 to activity 6--><g id="link_#13_activity 6"><path d="M104.3524,344.0665 C104.2076,354.9301 103.9825,371.8155 103.7999,385.5056 " fill="none" id="#13-to-activity 6" style="stroke:#181818;stroke-width:1.0;"/><polygon fill="#181818" points="103.7298,390.767,107.8495,381.8212,103.7965,385.7674,99.8502,381.7144,103.7298,390.767" style="stroke:#181818;stroke-width:1.0;"/></g><!--MD5=[b72f6bec30fe41f49b86a5e0064dfaf4]
link #3 to activity 2--><g id="link_#3_activity 2"><path d="M127.638,85 C137.894,85 153.157,85 167.459,85 " fill="none" id="#3-to-activity 2" style="stroke:#181818;stroke-width:1.0;"/><polygon fill="#181818" points="172.674,85,163.674,81,167.674,85,163.674,89,172.674,85" style="stroke:#181818;stroke-width:1.0;"/><text fill="#000000" font-family="sans-serif" font-size="11" lengthAdjust="spacing" textLength="24" x="138.25" y="78.606">false</text></g><!--MD5=[06396574a44cf64a5e181059213d7122]
link a3 to #23--><g id="link_a3_#23"><path d="M183.088,273.019 C184.278,285.762 185.892,303.056 187.047,315.434 " fill="none" id="a3-to-#23" style="stroke:#181818;stroke-width:1.0;"/><polygon fill="#181818" points="187.543,320.741,190.69,311.4085,187.0787,315.7626,182.7246,312.1513,187.543,320.741" style="stroke:#181818;stroke-width:1.0;"/><text fill="#000000" font-family="sans-serif" font-size="11" lengthAdjust="spacing" textLength="38" x="187.4415" y="303.636">last test</text></g><!--MD5=[3ee6de26b3dd6fef45da51165c542616]
link #23 to activity 7--><g id="link_#23_activity 7"><path d="M188.5,344.0665 C188.5,354.9301 188.5,371.8155 188.5,385.5056 " fill="none" id="#23-to-activity 7" style="stroke:#181818;stroke-width:1.0;"/><polygon fill="#181818" points="188.5,390.767,192.5,381.767,188.5,385.767,184.5,381.767,188.5,390.767" style="stroke:#181818;stroke-width:1.0;"/></g><!--MD5=[eac15bc62b861bee70cf43eab36d77eb]
link #23 to activity 8--><g id="link_#23_activity 8"><path d="M200.688,332 C205.742,332 210.796,332 215.85,332 " fill="none" id="#23-to-activity 8" style="stroke:#181818;stroke-width:1.0;"/><polygon fill="#181818" points="220.905,332,211.905,328,215.905,332,211.905,336,220.905,332" style="stroke:#181818;stroke-width:1.0;"/></g><!--MD5=[2f79efea7564d097e2f4a472aad3e722]
@startuml

(*) - -> if "Some Test" then

  - ->[true] "activity 1"
  
  if "" then
    -> "activity 3" as a3
  else
    if "Other test" then
      -left-> "activity 5"
    else
      - -> "activity 6"
    endif
  endif
  
else

  ->[false] "activity 2"
  
endif

a3 - -> if "last test" then
  - -> "activity 7"
else
  -> "activity 8"
endif

@enduml

PlantUML version 1.2022.4(Sat Apr 09 21:29:17 CST 2022)
(GPL source distribution)
Java Runtime: Java(TM) SE Runtime Environment
JVM: Java HotSpot(TM) 64-Bit Server VM
Default Encoding: GBK
Language: zh
Country: CN
--></g></svg>