<?xml version="1.0" encoding="UTF-8" standalone="no"?><svg xmlns="http://www.w3.org/2000/svg" xmlns:xlink="http://www.w3.org/1999/xlink" contentStyleType="text/css" height="168px" preserveAspectRatio="none" style="width:114px;height:168px;background:#FFFFFF;" version="1.1" viewBox="0 0 114 168" width="114px" zoomAndPan="magnify"><defs/><g><ellipse cx="57" cy="16" fill="#222222" rx="10" ry="10" style="stroke:none;stroke-width:1.0;"/><polygon fill="#F1F1F1" points="98,91.4558,98,76.5442,73.9828,66,40.0172,66,16,76.5442,16,91.4558,40.0172,102,73.9828,102,98,91.4558" style="stroke:#181818;stroke-width:1.5;"/><text fill="#000000" font-family="sans-serif" font-size="12" lengthAdjust="spacing" textLength="62" x="26" y="89.752">First Activity</text><ellipse cx="57" cy="152" fill="none" rx="10" ry="10" style="stroke:#222222;stroke-width:1.0;"/><ellipse cx="57.5" cy="152.5" fill="#222222" rx="6" ry="6" style="stroke:none;stroke-width:1.0;"/><!--MD5=[7b51c630cb61ed9b5d850ed70c977c40]
link start to First Activity--><g id="link_start_First Activity"><path d="M57,26.177 C57,35.023 57,48.76 57,60.511 " fill="none" id="start-to-First Activity" style="stroke:#181818;stroke-width:1.0;"/><polygon fill="#181818" points="57,65.7455,61,56.7455,57,60.7455,53,56.7455,57,65.7455" style="stroke:#181818;stroke-width:1.0;"/></g><!--MD5=[2f98c24cd36dd3747b60e1b90ce1eaf3]
link First Activity to end--><g id="link_First Activity_end"><path d="M57,102.3407 C57,113.0395 57,126.5969 57,136.6823 " fill="none" id="First Activity-to-end" style="stroke:#181818;stroke-width:1.0;"/><polygon fill="#181818" points="57,141.888,61,132.888,57,136.888,53,132.888,57,141.888" style="stroke:#181818;stroke-width:1.0;"/></g><!--MD5=[fa5b80353e11123d9b7a80ab5122eb5d]
@startuml
'Default is skinparam activityShape roundBox
skinparam activityShape octagon

(*) - -> "First Activity"
"First Activity" - -> (*)

@enduml

@startuml
skinparam activityShape octagon

(*) - -> "First Activity"
"First Activity" - -> (*)

@enduml

PlantUML version 1.2022.4(Sat Apr 09 21:29:17 CST 2022)
(GPL source distribution)
Java Runtime: Java(TM) SE Runtime Environment
JVM: Java HotSpot(TM) 64-Bit Server VM
Default Encoding: GBK
Language: zh
Country: CN
--></g></svg>