<?xml version="1.0" encoding="UTF-8" standalone="no"?><svg xmlns="http://www.w3.org/2000/svg" xmlns:xlink="http://www.w3.org/1999/xlink" contentStyleType="text/css" height="413px" preserveAspectRatio="none" style="width:124px;height:413px;background:#AAFFFF;" version="1.1" viewBox="0 0 124 413" width="124px" zoomAndPan="magnify"><defs/><g><ellipse cx="62.5" cy="16" fill="#222222" rx="10" ry="10" style="stroke:none;stroke-width:1.0;"/><rect fill="#808000" height="34.6367" rx="12.5" ry="12.5" style="stroke:#CD853F;stroke-width:0.5;" width="111" x="7" y="66"/><text fill="#000000" font-family="Impact" font-size="12" lengthAdjust="spacing" textLength="91" x="17" y="88.1055">Climbs on Platform</text><rect fill="#8B4513" height="8" style="stroke:none;stroke-width:1.0;" width="80" x="22.5" y="141"/><rect fill="#CD853F" height="34.6367" rx="12.5" ry="12.5" style="stroke:#CD853F;stroke-width:0.5;" width="47" x="39" y="189"/><text fill="#000000" font-family="Impact" font-size="12" lengthAdjust="spacing" textLength="27" x="49" y="211.1055">Bows</text><rect fill="#8B4513" height="8" style="stroke:none;stroke-width:1.0;" width="80" x="22.5" y="264"/><rect fill="#CD853F" height="34.6367" rx="12.5" ry="12.5" style="stroke:#CD853F;stroke-width:0.5;" width="85" x="20" y="312"/><text fill="#000000" font-family="Impact" font-size="12" lengthAdjust="spacing" textLength="65" x="30" y="334.1055">WavesArmes</text><ellipse cx="62.5" cy="397" fill="none" rx="10" ry="10" style="stroke:#C0C0C0;stroke-width:1.0;"/><ellipse cx="63" cy="397.5" fill="#C0C0C0" rx="6" ry="6" style="stroke:none;stroke-width:1.0;"/><!--MD5=[849c6e42b1bf196375e3c04d769d73f7]
link start to Climbs on Platform--><g id="link_start_Climbs on Platform"><path d="M62.5,26.107 C62.5,35.009 62.5,48.899 62.5,60.666 " fill="none" id="start-to-Climbs on Platform" style="stroke:#181818;stroke-width:1.0;"/><polygon fill="#181818" points="62.5,65.898,66.5,56.898,62.5,60.898,58.5,56.898,62.5,65.898" style="stroke:#181818;stroke-width:1.0;"/></g><!--MD5=[0e9b11d2740e56c189749770539cdd9d]
link Climbs on Platform to S1--><g id="link_Climbs on Platform_S1"><path d="M62.5,101.074 C62.5,112.249 62.5,126.533 62.5,135.477 " fill="none" id="Climbs on Platform-to-S1" style="stroke:#181818;stroke-width:1.0;"/><polygon fill="#181818" points="62.5,140.711,66.5,131.711,62.5,135.711,58.5,131.711,62.5,140.711" style="stroke:#181818;stroke-width:1.0;"/></g><!--MD5=[cf319800d22d6c2360adc378c2eae2e2]
link S1 to Bows--><g id="link_S1_Bows"><path d="M62.5,149.199 C62.5,155.677 62.5,170.833 62.5,183.789 " fill="none" id="S1-to-Bows" style="stroke:#181818;stroke-width:1.0;"/><polygon fill="#181818" points="62.5,188.807,66.5,179.807,62.5,183.807,58.5,179.807,62.5,188.807" style="stroke:#181818;stroke-width:1.0;"/></g><!--MD5=[d3499ec33ef7151056f290236fd8ffee]
link Bows to S2--><g id="link_Bows_S2"><path d="M62.5,224.074 C62.5,235.249 62.5,249.533 62.5,258.477 " fill="none" id="Bows-to-S2" style="stroke:#181818;stroke-width:1.0;"/><polygon fill="#181818" points="62.5,263.711,66.5,254.711,62.5,258.711,58.5,254.711,62.5,263.711" style="stroke:#181818;stroke-width:1.0;"/></g><!--MD5=[9c9180c4e72fb687a9f792a9783ea13b]
link S2 to WavesArmes--><g id="link_S2_WavesArmes"><path d="M62.5,272.199 C62.5,278.677 62.5,293.833 62.5,306.789 " fill="none" id="S2-to-WavesArmes" style="stroke:#181818;stroke-width:1.0;"/><polygon fill="#181818" points="62.5,311.8072,66.5,302.8072,62.5,306.8072,58.5,302.8072,62.5,311.8072" style="stroke:#181818;stroke-width:1.0;"/></g><!--MD5=[6d15d8c7461821d6ec1f298b129acd08]
link WavesArmes to end--><g id="link_WavesArmes_end"><path d="M62.5,347.0284 C62.5,357.6446 62.5,371.3033 62.5,381.4974 " fill="none" id="WavesArmes-to-end" style="stroke:#181818;stroke-width:1.0;"/><polygon fill="#181818" points="62.5,386.763,66.5,377.763,62.5,381.763,58.5,377.763,62.5,386.763" style="stroke:#181818;stroke-width:1.0;"/></g><!--MD5=[a81e3fdc07e679457b3e946ebd978b46]
@startuml

skinparam backgroundColor #AAFFFF
skinparam activity {
  StartColor red
  BarColor SaddleBrown 
  EndColor Silver
  BackgroundColor Peru
  BackgroundColor<< Begin >> Olive
  BorderColor Peru
  FontName Impact
}

(*) - -> "Climbs on Platform" << Begin >>
- -> === S1 ===
- -> Bows
- -> === S2 ===
- -> WavesArmes
- -> (*)

@enduml

PlantUML version 1.2022.4(Sat Apr 09 21:29:17 CST 2022)
(GPL source distribution)
Java Runtime: Java(TM) SE Runtime Environment
JVM: Java HotSpot(TM) 64-Bit Server VM
Default Encoding: GBK
Language: zh
Country: CN
--></g></svg>