<?xml version="1.0" encoding="UTF-8" standalone="no"?><svg xmlns="http://www.w3.org/2000/svg" xmlns:xlink="http://www.w3.org/1999/xlink" contentStyleType="text/css" height="264px" preserveAspectRatio="none" style="width:253px;height:264px;background:#FFFFFF;" version="1.1" viewBox="0 0 253 264" width="253px" zoomAndPan="magnify"><defs/><g><ellipse cx="127" cy="16" fill="#222222" rx="10" ry="10" style="stroke:none;stroke-width:1.0;"/><rect fill="#555555" height="8" style="stroke:none;stroke-width:1.0;" width="80" x="87" y="66"/><rect fill="#F1F1F1" height="36.3887" rx="12.5" ry="12.5" style="stroke:#181818;stroke-width:0.5;" width="110" x="7" y="114"/><text fill="#000000" font-family="sans-serif" font-size="12" lengthAdjust="spacing" textLength="90" x="17" y="137.752">Parallel Activity 1</text><rect fill="#555555" height="8" style="stroke:none;stroke-width:1.0;" width="80" x="87" y="190"/><rect fill="#F1F1F1" height="36.3887" rx="12.5" ry="12.5" style="stroke:#181818;stroke-width:0.5;" width="110" x="137" y="114"/><text fill="#000000" font-family="sans-serif" font-size="12" lengthAdjust="spacing" textLength="90" x="147" y="137.752">Parallel Activity 2</text><ellipse cx="127" cy="248" fill="none" rx="10" ry="10" style="stroke:#222222;stroke-width:1.0;"/><ellipse cx="127.5" cy="248.5" fill="#222222" rx="6" ry="6" style="stroke:none;stroke-width:1.0;"/><!--MD5=[6396badacac00578348ddb3cf20ba689]
link start to B1--><g id="link_start_B1"><path d="M127,26.058 C127,35.797 127,51.153 127,60.621 " fill="none" id="start-to-B1" style="stroke:#181818;stroke-width:1.0;"/><polygon fill="#181818" points="127,65.874,131,56.874,127,60.874,123,56.874,127,65.874" style="stroke:#181818;stroke-width:1.0;"/></g><!--MD5=[89815f08734acef3b701a467988db45d]
link B1 to Parallel Activity 1--><g id="link_B1_Parallel Activity 1"><path d="M123.505,74.226 C116.226,80.945 98.9173,96.922 84.5099,110.222 " fill="none" id="B1-to-Parallel Activity 1" style="stroke:#181818;stroke-width:1.0;"/><polygon fill="#181818" points="80.534,113.892,89.8605,110.727,84.2081,110.5007,84.4344,104.8484,80.534,113.892" style="stroke:#181818;stroke-width:1.0;"/></g><!--MD5=[9dfb346c64f2e611b55cb8d7da594917]
link Parallel Activity 1 to B2--><g id="link_Parallel Activity 1_B2"><path d="M80.4525,150.033 C93.4718,162.0508 110.215,177.5063 119.661,186.2254 " fill="none" id="Parallel Activity 1-to-B2" style="stroke:#181818;stroke-width:1.0;"/><polygon fill="#181818" points="123.448,189.7208,119.5479,180.677,119.774,186.3294,114.1217,186.5554,123.448,189.7208" style="stroke:#181818;stroke-width:1.0;"/></g><!--MD5=[dd101ddc4241f7155734c5b5adbcf57b]
link B1 to Parallel Activity 2--><g id="link_B1_Parallel Activity 2"><path d="M130.495,74.226 C137.774,80.945 155.083,96.922 169.49,110.222 " fill="none" id="B1-to-Parallel Activity 2" style="stroke:#181818;stroke-width:1.0;"/><polygon fill="#181818" points="173.466,113.892,169.5656,104.8484,169.7919,110.5007,164.1395,110.727,173.466,113.892" style="stroke:#181818;stroke-width:1.0;"/></g><!--MD5=[567e15d994040624498a7e50582176b3]
link Parallel Activity 2 to B2--><g id="link_Parallel Activity 2_B2"><path d="M173.547,150.033 C160.528,162.0508 143.785,177.5063 134.339,186.2254 " fill="none" id="Parallel Activity 2-to-B2" style="stroke:#181818;stroke-width:1.0;"/><polygon fill="#181818" points="130.552,189.7208,139.8783,186.5554,134.226,186.3294,134.4521,180.677,130.552,189.7208" style="stroke:#181818;stroke-width:1.0;"/></g><!--MD5=[67dd31f82dae465fe6f080fdaa978b88]
link B2 to end--><g id="link_B2_end"><path d="M127,198.0971 C127,204.7713 127,220.8695 127,232.7824 " fill="none" id="B2-to-end" style="stroke:#181818;stroke-width:1.0;"/><polygon fill="#181818" points="127,237.9126,131,228.9126,127,232.9126,123,228.9126,127,237.9126" style="stroke:#181818;stroke-width:1.0;"/></g><!--MD5=[0cdc1cda18cfcc509f0afc9c68a38dbd]
@startuml

(*) - -> ===B1=== 
- -> "Parallel Activity 1"
- -> ===B2===

===B1=== - -> "Parallel Activity 2"
- -> ===B2===

- -> (*)

@enduml

PlantUML version 1.2022.4(Sat Apr 09 21:29:17 CST 2022)
(GPL source distribution)
Java Runtime: Java(TM) SE Runtime Environment
JVM: Java HotSpot(TM) 64-Bit Server VM
Default Encoding: GBK
Language: zh
Country: CN
--></g></svg>