<?xml version="1.0" encoding="UTF-8" standalone="no"?><svg xmlns="http://www.w3.org/2000/svg" xmlns:xlink="http://www.w3.org/1999/xlink" contentStyleType="text/css" height="482px" preserveAspectRatio="none" style="width:531px;height:482px;background:#FFFFFF;" version="1.1" viewBox="0 0 531 482" width="531px" zoomAndPan="magnify"><defs/><g><polygon fill="#D2691E" points="311.7691,270,259.8076,300,207.8461,270,207.8461,210,259.8076,180,311.7691,210" style="stroke:#D2691E;stroke-width:1.0;"/><text fill="#FFFFFF" font-family="sans-serif" font-size="14" font-weight="bold" lengthAdjust="spacing" textLength="71" x="224.3076" y="246.4839">Chocolate</text><polygon fill="#CD5C5C" points="415.6922,270,363.7307,300,311.7691,270,311.7691,210,363.7307,180,415.6922,210" style="stroke:#CD5C5C;stroke-width:1.0;"/><text fill="#FFFFFF" font-family="sans-serif" font-size="14" font-weight="bold" lengthAdjust="spacing" textLength="71" x="328.2307" y="246.4839">IndianRed</text><polygon fill="#D87093" points="363.7307,360,311.7691,390,259.8076,360,259.8076,300,311.7691,270,363.7307,300" style="stroke:#D87093;stroke-width:1.0;"/><text fill="#000000" font-family="sans-serif" font-size="14" font-weight="bold" lengthAdjust="spacing" textLength="98" x="262.7691" y="336.4839">PaleVioletRed</text><polygon fill="#FF6347" points="259.8076,360,207.8461,390,155.8846,360,155.8846,300,207.8461,270,259.8076,300" style="stroke:#FF6347;stroke-width:1.0;"/><text fill="#000000" font-family="sans-serif" font-size="14" font-weight="bold" lengthAdjust="spacing" textLength="51" x="182.3461" y="336.4839">Tomato</text><polygon fill="#CD853F" points="207.8461,270,155.8846,300,103.923,270,103.923,210,155.8846,180,207.8461,210" style="stroke:#CD853F;stroke-width:1.0;"/><text fill="#000000" font-family="sans-serif" font-size="14" font-weight="bold" lengthAdjust="spacing" textLength="33" x="139.3846" y="246.4839">Peru</text><polygon fill="#DA70D6" points="259.8076,180,207.8461,210,155.8846,180,155.8846,120,207.8461,90,259.8076,120" style="stroke:#DA70D6;stroke-width:1.0;"/><text fill="#000000" font-family="sans-serif" font-size="14" font-weight="bold" lengthAdjust="spacing" textLength="47" x="184.3461" y="156.4839">Orchid</text><polygon fill="#B8860B" points="363.7307,180,311.7691,210,259.8076,180,259.8076,120,311.7691,90,363.7307,120" style="stroke:#B8860B;stroke-width:1.0;"/><text fill="#000000" font-family="sans-serif" font-size="14" font-weight="bold" lengthAdjust="spacing" textLength="32" x="295.7691" y="146.9238">Dark</text><text fill="#000000" font-family="sans-serif" font-size="14" font-weight="bold" lengthAdjust="spacing" textLength="79" x="272.2691" y="166.0439">GoldenRod</text><polygon fill="#FF69B4" points="519.6152,270,467.6537,300,415.6922,270,415.6922,210,467.6537,180,519.6152,210" style="stroke:#FF69B4;stroke-width:1.0;"/><text fill="#000000" font-family="sans-serif" font-size="14" font-weight="bold" lengthAdjust="spacing" textLength="54" x="440.6537" y="246.4839">HotPink</text><polygon fill="#A0522D" points="467.6537,360,415.6922,390,363.7307,360,363.7307,300,415.6922,270,467.6537,300" style="stroke:#A0522D;stroke-width:1.0;"/><text fill="#FFFFFF" font-family="sans-serif" font-size="14" font-weight="bold" lengthAdjust="spacing" textLength="48" x="391.6922" y="336.4839">Sienna</text><polygon fill="#FF7F50" points="415.6922,450,363.7307,480,311.7691,450,311.7691,390,363.7307,360,415.6922,390" style="stroke:#FF7F50;stroke-width:1.0;"/><text fill="#000000" font-family="sans-serif" font-size="14" font-weight="bold" lengthAdjust="spacing" textLength="37" x="345.2307" y="426.4839">Coral</text><polygon fill="#F08080" points="311.7691,450,259.8076,480,207.8461,450,207.8461,390,259.8076,360,311.7691,390" style="stroke:#F08080;stroke-width:1.0;"/><text fill="#000000" font-family="sans-serif" font-size="14" font-weight="bold" lengthAdjust="spacing" textLength="72" x="223.8076" y="426.4839">LightCoral</text><polygon fill="#FA8072" points="207.8461,450,155.8846,480,103.923,450,103.923,390,155.8846,360,207.8461,390" style="stroke:#FA8072;stroke-width:1.0;"/><text fill="#000000" font-family="sans-serif" font-size="14" font-weight="bold" lengthAdjust="spacing" textLength="51" x="130.3846" y="426.4839">Salmon</text><polygon fill="#FF8C00" points="155.8846,360,103.923,390,51.9615,360,51.9615,300,103.923,270,155.8846,300" style="stroke:#FF8C00;stroke-width:1.0;"/><text fill="#000000" font-family="sans-serif" font-size="14" font-weight="bold" lengthAdjust="spacing" textLength="82" x="62.923" y="336.4839">Darkorange</text><polygon fill="#DAA520" points="103.923,270,51.9615,300,-0,270,-0,210,51.9615,180,103.923,210" style="stroke:#DAA520;stroke-width:1.0;"/><text fill="#000000" font-family="sans-serif" font-size="14" font-weight="bold" lengthAdjust="spacing" textLength="79" x="12.4615" y="246.4839">GoldenRod</text><polygon fill="#FF4500" points="155.8846,180,103.923,210,51.9615,180,51.9615,120,103.923,90,155.8846,120" style="stroke:#FF4500;stroke-width:1.0;"/><text fill="#FFFFFF" font-family="sans-serif" font-size="14" font-weight="bold" lengthAdjust="spacing" textLength="80" x="63.923" y="156.4839">OrangeRed</text><polygon fill="#BA55D3" points="207.8461,90,155.8846,120,103.923,90,103.923,30,155.8846,0,207.8461,30" style="stroke:#BA55D3;stroke-width:1.0;"/><text fill="#000000" font-family="sans-serif" font-size="14" font-weight="bold" lengthAdjust="spacing" textLength="103" x="104.3846" y="66.4839">MediumOrchid</text><polygon fill="#696969" points="311.7691,90,259.8076,120,207.8461,90,207.8461,30,259.8076,0,311.7691,30" style="stroke:#696969;stroke-width:1.0;"/><text fill="#FFFFFF" font-family="sans-serif" font-size="14" font-weight="bold" lengthAdjust="spacing" textLength="59" x="230.3076" y="66.4839">DimGrey</text><polygon fill="#556B2F" points="415.6922,90,363.7307,120,311.7691,90,311.7691,30,363.7307,0,415.6922,30" style="stroke:#556B2F;stroke-width:1.0;"/><text fill="#FFFFFF" font-family="sans-serif" font-size="14" font-weight="bold" lengthAdjust="spacing" textLength="69" x="329.2307" y="56.9238">DarkOlive</text><text fill="#FFFFFF" font-family="sans-serif" font-size="14" font-weight="bold" lengthAdjust="spacing" textLength="44" x="341.7307" y="76.0439">Green</text><polygon fill="#BC8F8F" points="467.6537,180,415.6922,210,363.7307,180,363.7307,120,415.6922,90,467.6537,120" style="stroke:#BC8F8F;stroke-width:1.0;"/><text fill="#000000" font-family="sans-serif" font-size="14" font-weight="bold" lengthAdjust="spacing" textLength="79" x="376.1922" y="156.4839">RosyBrown</text><!--MD5=[eb8abe737f3f1acf4a9482139830eb0e]
@startuml
colors chocolate
@enduml

PlantUML version 1.2022.4(Sat Apr 09 21:29:17 CST 2022)
(GPL source distribution)
Java Runtime: Java(TM) SE Runtime Environment
JVM: Java HotSpot(TM) 64-Bit Server VM
Default Encoding: GBK
Language: zh
Country: CN
--></g></svg>