<svg xmlns="http://www.w3.org/2000/svg" xmlns:xlink="http://www.w3.org/1999/xlink" style="width:531px;height:482px;background:#fff" width="531" height="482" contentStyleType="text/css" preserveAspectRatio="none" version="1.1" viewBox="0 0 531 482" zoomAndPan="magnify"><g><polygon fill="#D2691E" points="311.769 270 259.808 300 207.846 270 207.846 210 259.808 180 311.769 210" style="stroke:#d2691e;stroke-width:1"/><text x="224.308" y="246.484" fill="#FFF" font-family="sans-serif" font-size="14" font-weight="bold" lengthAdjust="spacing" textLength="71">Chocolate</text><polygon fill="#CD5C5C" points="415.692 270 363.731 300 311.769 270 311.769 210 363.731 180 415.692 210" style="stroke:#cd5c5c;stroke-width:1"/><text x="328.231" y="246.484" fill="#FFF" font-family="sans-serif" font-size="14" font-weight="bold" lengthAdjust="spacing" textLength="71">IndianRed</text><polygon fill="#D87093" points="363.731 360 311.769 390 259.808 360 259.808 300 311.769 270 363.731 300" style="stroke:#d87093;stroke-width:1"/><text x="262.769" y="336.484" fill="#000" font-family="sans-serif" font-size="14" font-weight="bold" lengthAdjust="spacing" textLength="98">PaleVioletRed</text><polygon fill="tomato" points="259.808 360 207.846 390 155.885 360 155.885 300 207.846 270 259.808 300" style="stroke:tomato;stroke-width:1"/><text x="182.346" y="336.484" fill="#000" font-family="sans-serif" font-size="14" font-weight="bold" lengthAdjust="spacing" textLength="51">Tomato</text><polygon fill="peru" points="207.846 270 155.885 300 103.923 270 103.923 210 155.885 180 207.846 210" style="stroke:peru;stroke-width:1"/><text x="139.385" y="246.484" fill="#000" font-family="sans-serif" font-size="14" font-weight="bold" lengthAdjust="spacing" textLength="33">Peru</text><polygon fill="orchid" points="259.808 180 207.846 210 155.885 180 155.885 120 207.846 90 259.808 120" style="stroke:orchid;stroke-width:1"/><text x="184.346" y="156.484" fill="#000" font-family="sans-serif" font-size="14" font-weight="bold" lengthAdjust="spacing" textLength="47">Orchid</text><polygon fill="#B8860B" points="363.731 180 311.769 210 259.808 180 259.808 120 311.769 90 363.731 120" style="stroke:#b8860b;stroke-width:1"/><text x="295.769" y="146.924" fill="#000" font-family="sans-serif" font-size="14" font-weight="bold" lengthAdjust="spacing" textLength="32">Dark</text><text x="272.269" y="166.044" fill="#000" font-family="sans-serif" font-size="14" font-weight="bold" lengthAdjust="spacing" textLength="79">GoldenRod</text><polygon fill="#FF69B4" points="519.615 270 467.654 300 415.692 270 415.692 210 467.654 180 519.615 210" style="stroke:#ff69b4;stroke-width:1"/><text x="440.654" y="246.484" fill="#000" font-family="sans-serif" font-size="14" font-weight="bold" lengthAdjust="spacing" textLength="54">HotPink</text><polygon fill="sienna" points="467.654 360 415.692 390 363.731 360 363.731 300 415.692 270 467.654 300" style="stroke:sienna;stroke-width:1"/><text x="391.692" y="336.484" fill="#FFF" font-family="sans-serif" font-size="14" font-weight="bold" lengthAdjust="spacing" textLength="48">Sienna</text><polygon fill="coral" points="415.692 450 363.731 480 311.769 450 311.769 390 363.731 360 415.692 390" style="stroke:coral;stroke-width:1"/><text x="345.231" y="426.484" fill="#000" font-family="sans-serif" font-size="14" font-weight="bold" lengthAdjust="spacing" textLength="37">Coral</text><polygon fill="#F08080" points="311.769 450 259.808 480 207.846 450 207.846 390 259.808 360 311.769 390" style="stroke:#f08080;stroke-width:1"/><text x="223.808" y="426.484" fill="#000" font-family="sans-serif" font-size="14" font-weight="bold" lengthAdjust="spacing" textLength="72">LightCoral</text><polygon fill="salmon" points="207.846 450 155.885 480 103.923 450 103.923 390 155.885 360 207.846 390" style="stroke:salmon;stroke-width:1"/><text x="130.385" y="426.484" fill="#000" font-family="sans-serif" font-size="14" font-weight="bold" lengthAdjust="spacing" textLength="51">Salmon</text><polygon fill="#FF8C00" points="155.885 360 103.923 390 51.962 360 51.962 300 103.923 270 155.885 300" style="stroke:#ff8c00;stroke-width:1"/><text x="62.923" y="336.484" fill="#000" font-family="sans-serif" font-size="14" font-weight="bold" lengthAdjust="spacing" textLength="82">Darkorange</text><polygon fill="#DAA520" points="103.923 270 51.962 300 0 270 0 210 51.962 180 103.923 210" style="stroke:#daa520;stroke-width:1"/><text x="12.461" y="246.484" fill="#000" font-family="sans-serif" font-size="14" font-weight="bold" lengthAdjust="spacing" textLength="79">GoldenRod</text><polygon fill="#FF4500" points="155.885 180 103.923 210 51.962 180 51.962 120 103.923 90 155.885 120" style="stroke:#ff4500;stroke-width:1"/><text x="63.923" y="156.484" fill="#FFF" font-family="sans-serif" font-size="14" font-weight="bold" lengthAdjust="spacing" textLength="80">OrangeRed</text><polygon fill="#BA55D3" points="207.846 90 155.885 120 103.923 90 103.923 30 155.885 0 207.846 30" style="stroke:#ba55d3;stroke-width:1"/><text x="104.385" y="66.484" fill="#000" font-family="sans-serif" font-size="14" font-weight="bold" lengthAdjust="spacing" textLength="103">MediumOrchid</text><polygon fill="#696969" points="311.769 90 259.808 120 207.846 90 207.846 30 259.808 0 311.769 30" style="stroke:#696969;stroke-width:1"/><text x="230.308" y="66.484" fill="#FFF" font-family="sans-serif" font-size="14" font-weight="bold" lengthAdjust="spacing" textLength="59">DimGrey</text><polygon fill="#556B2F" points="415.692 90 363.731 120 311.769 90 311.769 30 363.731 0 415.692 30" style="stroke:#556b2f;stroke-width:1"/><text x="329.231" y="56.924" fill="#FFF" font-family="sans-serif" font-size="14" font-weight="bold" lengthAdjust="spacing" textLength="69">DarkOlive</text><text x="341.731" y="76.044" fill="#FFF" font-family="sans-serif" font-size="14" font-weight="bold" lengthAdjust="spacing" textLength="44">Green</text><polygon fill="#BC8F8F" points="467.654 180 415.692 210 363.731 180 363.731 120 415.692 90 467.654 120" style="stroke:#bc8f8f;stroke-width:1"/><text x="376.192" y="156.484" fill="#000" font-family="sans-serif" font-size="14" font-weight="bold" lengthAdjust="spacing" textLength="79">RosyBrown</text></g></svg>