<?xml version="1.0" encoding="UTF-8" standalone="no"?><svg xmlns="http://www.w3.org/2000/svg" xmlns:xlink="http://www.w3.org/1999/xlink" contentStyleType="text/css" height="189px" preserveAspectRatio="none" style="width:181px;height:189px;background:#FFFFFF;" version="1.1" viewBox="0 0 181 189" width="181px" zoomAndPan="magnify"><defs/><g><!--MD5=[3f0ef310aaa84a542276992c5216544d]
class Car--><a href="http://plantuml.com/link" target="_top" title="http://plantuml.com/link" xlink:actuate="onRequest" xlink:href="http://plantuml.com/link" xlink:show="new" xlink:title="http://plantuml.com/link" xlink:type="simple"><g id="elem_Car"><rect codeLine="1" fill="#F1F1F1" height="48" id="Car" rx="2.5" ry="2.5" style="stroke:#181818;stroke-width:0.5;" width="55" x="87.5" y="7"/><ellipse cx="102.5" cy="23" fill="#ADD1B2" rx="11" ry="11" style="stroke:#181818;stroke-width:1.0;"/><path d="M101.0781,28.3594 Q99.2188,28.3594 98.125,26.9688 Q97.0313,25.5781 97.0313,22.5938 Q97.0313,20.0625 98.1953,18.4063 Q99.3594,16.75 101.3438,16.75 Q102.8125,16.75 103.2813,16.875 Q103.75,17.0781 103.75,17.0781 Q103.75,17.0781 103.75,17.0078 Q103.75,16.9375 104.3594,16.0156 L105.4063,19.6719 L104.0781,20.0781 Q103.6094,18.5313 102.9453,17.8672 Q102.2813,17.2031 101.2188,17.2031 Q100.8281,17.2031 100.0625,18.7344 Q99.2969,20.2656 99.2969,22.5156 Q99.2969,24.9844 99.9609,26.375 Q100.625,27.7656 101.1563,27.7656 Q102.2188,27.7656 102.9766,27 Q103.7344,26.2344 104.0781,24.5781 L105.4063,25.1719 Q105.0781,26.5781 104.1797,27.4688 Q103.2813,28.3594 101.0781,28.3594 Z " fill="#000000"/><text fill="#000000" font-family="sans-serif" font-size="14" lengthAdjust="spacing" textLength="23" x="116.5" y="29.4839">Car</text><line style="stroke:#181818;stroke-width:0.5;" x1="88.5" x2="141.5" y1="39" y2="39"/><line style="stroke:#181818;stroke-width:0.5;" x1="88.5" x2="141.5" y1="47" y2="47"/></g></a><!--MD5=[63ed6a0a2dfd613875880437a5e2b06e]
class Wheel--><a href="http://plantuml.com/sequence" target="_top" title="http://plantuml.com/sequence" xlink:actuate="onRequest" xlink:href="http://plantuml.com/sequence" xlink:show="new" xlink:title="http://plantuml.com/sequence" xlink:type="simple"><g id="elem_Wheel"><rect codeLine="2" fill="#F1F1F1" height="48" id="Wheel" rx="2.5" ry="2.5" style="stroke:#181818;stroke-width:0.5;" width="72" x="79" y="134"/><ellipse cx="94" cy="150" fill="#ADD1B2" rx="11" ry="11" style="stroke:#181818;stroke-width:1.0;"/><path d="M92.5781,155.3594 Q90.7188,155.3594 89.625,153.9688 Q88.5313,152.5781 88.5313,149.5938 Q88.5313,147.0625 89.6953,145.4063 Q90.8594,143.75 92.8438,143.75 Q94.3125,143.75 94.7813,143.875 Q95.25,144.0781 95.25,144.0781 Q95.25,144.0781 95.25,144.0078 Q95.25,143.9375 95.8594,143.0156 L96.9063,146.6719 L95.5781,147.0781 Q95.1094,145.5313 94.4453,144.8672 Q93.7813,144.2031 92.7188,144.2031 Q92.3281,144.2031 91.5625,145.7344 Q90.7969,147.2656 90.7969,149.5156 Q90.7969,151.9844 91.4609,153.375 Q92.125,154.7656 92.6563,154.7656 Q93.7188,154.7656 94.4766,154 Q95.2344,153.2344 95.5781,151.5781 L96.9063,152.1719 Q96.5781,153.5781 95.6797,154.4688 Q94.7813,155.3594 92.5781,155.3594 Z " fill="#000000"/><text fill="#000000" font-family="sans-serif" font-size="14" lengthAdjust="spacing" textLength="40" x="108" y="156.4839">Wheel</text><line style="stroke:#181818;stroke-width:0.5;" x1="80" x2="150" y1="166" y2="166"/><line style="stroke:#181818;stroke-width:0.5;" x1="80" x2="150" y1="174" y2="174"/></g></a><g id="elem_GMN4"><a href="http://plantuml.com" target="_top" title="http://plantuml.com" xlink:actuate="onRequest" xlink:href="http://plantuml.com" xlink:show="new" xlink:title="http://plantuml.com" xlink:type="simple"><path d="M6,144 L6,171.7544 A0,0 0 0 0 6,171.7544 L44,171.7544 A0,0 0 0 0 44,171.7544 L44,162 L78.8399,158 L44,154 L44,154 L34,144 L6,144 A0,0 0 0 0 6,144 " fill="#FEFFDD" style="stroke:#181818;stroke-width:0.5;"/><path d="M34,144 L34,154 L44,154 L34,144 " fill="#FEFFDD" style="stroke:#181818;stroke-width:0.5;"/><text fill="#000000" font-family="sans-serif" font-size="13" lengthAdjust="spacing" textLength="17" x="12" y="163.8979">foo</text></a></g><!--MD5=[6190aadcc963d15c02367c0199cc5452]
reverse link Car to Wheel--><g id="link_Car_Wheel"><a href="http://plantuml.com/class" target="_top" title="http://plantuml.com/class" xlink:actuate="onRequest" xlink:href="http://plantuml.com/class" xlink:show="new" xlink:title="http://plantuml.com/class" xlink:type="simple"><path codeLine="6" d="M115,68.291 C115,89.458 115,115.5227 115,133.9058 " fill="none" id="Car-backto-Wheel" style="stroke:#181818;stroke-width:1.0;"/><polygon fill="#181818" points="115,55.219,111,61.219,115,67.219,119,61.219,115,55.219" style="stroke:#181818;stroke-width:1.0;"/><text fill="#000000" font-family="sans-serif" font-size="13" lengthAdjust="spacing" textLength="57" x="116" y="100.8979">has some</text></a></g><!--MD5=[96dbbce667af309387911a13ad54f20d]
@startuml
class Car [[http://plantuml.com/link]]
class Wheel [[http://plantuml.com/sequence]]
note left [[http://plantuml.com]]
foo
end note
Car *- - Wheel [[http://plantuml.com/class]] : has some
@enduml

PlantUML version 1.2022.4(Sat Apr 09 21:29:17 CST 2022)
(GPL source distribution)
Java Runtime: Java(TM) SE Runtime Environment
JVM: Java HotSpot(TM) 64-Bit Server VM
Default Encoding: GBK
Language: zh
Country: CN
--></g></svg>