<?xml version="1.0" encoding="UTF-8" standalone="no"?><svg xmlns="http://www.w3.org/2000/svg" xmlns:xlink="http://www.w3.org/1999/xlink" contentStyleType="text/css" height="301px" preserveAspectRatio="none" style="width:459px;height:301px;background:#FFFFFF;" version="1.1" viewBox="0 0 459 301" width="459px" zoomAndPan="magnify"><defs/><g><line style="stroke:#181818;stroke-width:0.5;stroke-dasharray:5.0,5.0;" x1="216" x2="216" y1="84.1201" y2="217.3833"/><line style="stroke:#181818;stroke-width:0.5;stroke-dasharray:5.0,5.0;" x1="354" x2="354" y1="84.1201" y2="217.3833"/><a href="http://plantuml.com/sequence" target="_top" title="http://plantuml.com/sequence" xlink:actuate="onRequest" xlink:href="http://plantuml.com/sequence" xlink:show="new" xlink:title="http://plantuml.com/sequence" xlink:type="simple"><text fill="#000000" font-family="sans-serif" font-size="14" lengthAdjust="spacing" textLength="25" x="201" y="81.0439">Bob</text><ellipse cx="216.5" cy="13.5" fill="#E2E2F0" rx="8" ry="8" style="stroke:#181818;stroke-width:0.5;"/><path d="M216.5,21.5 L216.5,48.5 M203.5,29.5 L229.5,29.5 M216.5,48.5 L203.5,63.5 M216.5,48.5 L229.5,63.5 " fill="none" style="stroke:#181818;stroke-width:0.5;"/><text fill="#000000" font-family="sans-serif" font-size="14" lengthAdjust="spacing" textLength="25" x="201" y="232.4272">Bob</text><ellipse cx="216.5" cy="244.0034" fill="#E2E2F0" rx="8" ry="8" style="stroke:#181818;stroke-width:0.5;"/><path d="M216.5,252.0034 L216.5,279.0034 M203.5,260.0034 L229.5,260.0034 M216.5,279.0034 L203.5,294.0034 M216.5,279.0034 L229.5,294.0034 " fill="none" style="stroke:#181818;stroke-width:0.5;"/></a><text fill="#000000" font-family="sans-serif" font-size="14" lengthAdjust="spacing" textLength="41" x="296" y="81.0439">This is</text><a href="http://plantuml.com/sequence" target="_top" title="http://plantuml.com/sequence" xlink:actuate="onRequest" xlink:href="http://plantuml.com/sequence" xlink:show="new" xlink:title="http://plantuml.com/sequence" xlink:type="simple"><text fill="#0000FF" font-family="sans-serif" font-size="14" lengthAdjust="spacing" text-decoration="underline" textLength="30" x="341" y="81.0439">Alice</text></a><text fill="#000000" font-family="sans-serif" font-size="14" lengthAdjust="spacing" textLength="32" x="375" y="81.0439">actor</text><ellipse cx="354.5" cy="13.5" fill="#E2E2F0" rx="8" ry="8" style="stroke:#181818;stroke-width:0.5;"/><path d="M354.5,21.5 L354.5,48.5 M341.5,29.5 L367.5,29.5 M354.5,48.5 L341.5,63.5 M354.5,48.5 L367.5,63.5 " fill="none" style="stroke:#181818;stroke-width:0.5;"/><text fill="#000000" font-family="sans-serif" font-size="14" lengthAdjust="spacing" textLength="41" x="296" y="232.4272">This is</text><a href="http://plantuml.com/sequence" target="_top" title="http://plantuml.com/sequence" xlink:actuate="onRequest" xlink:href="http://plantuml.com/sequence" xlink:show="new" xlink:title="http://plantuml.com/sequence" xlink:type="simple"><text fill="#0000FF" font-family="sans-serif" font-size="14" lengthAdjust="spacing" text-decoration="underline" textLength="30" x="341" y="232.4272">Alice</text></a><text fill="#000000" font-family="sans-serif" font-size="14" lengthAdjust="spacing" textLength="32" x="375" y="232.4272">actor</text><ellipse cx="354.5" cy="244.0034" fill="#E2E2F0" rx="8" ry="8" style="stroke:#181818;stroke-width:0.5;"/><path d="M354.5,252.0034 L354.5,279.0034 M341.5,260.0034 L367.5,260.0034 M354.5,279.0034 L341.5,294.0034 M354.5,279.0034 L367.5,294.0034 " fill="none" style="stroke:#181818;stroke-width:0.5;"/><a href="http://plantuml.com/start" target="_top" title="http://plantuml.com/start" xlink:actuate="onRequest" xlink:href="http://plantuml.com/start" xlink:show="new" xlink:title="http://plantuml.com/start" xlink:type="simple"><polygon fill="#181818" points="342.5,116.8745,352.5,120.8745,342.5,124.8745,346.5,120.8745" style="stroke:#181818;stroke-width:1.0;"/><line style="stroke:#181818;stroke-width:1.0;" x1="216.5" x2="348.5" y1="120.8745" y2="120.8745"/><text fill="#000000" font-family="sans-serif" font-size="13" lengthAdjust="spacing" textLength="27" x="223.5" y="116.0181">hello</text></a><a href="http://plantuml.com/start" target="_top" title="http://plantuml.com/start" xlink:actuate="onRequest" xlink:href="http://plantuml.com/start" xlink:show="new" xlink:title="http://plantuml.com/start" xlink:type="simple"><path d="M92,99.1201 L92,126.1201 L211,126.1201 L211,109.1201 L201,99.1201 L92,99.1201 " fill="#FEFFDD" style="stroke:#181818;stroke-width:0.5;"/><path d="M201,99.1201 L201,109.1201 L211,109.1201 L201,99.1201 " fill="#FEFFDD" style="stroke:#181818;stroke-width:0.5;"/><text fill="#000000" font-family="sans-serif" font-size="13" lengthAdjust="spacing" textLength="98" x="98" y="119.0181">a note with a link</text></a><a href="http://plantuml.com/start" target="_top" title="http://plantuml.com/start" xlink:actuate="onRequest" xlink:href="http://plantuml.com/start" xlink:show="new" xlink:title="http://plantuml.com/start" xlink:type="simple"><polygon fill="#181818" points="227.5,154.6289,217.5,158.6289,227.5,162.6289,223.5,158.6289" style="stroke:#181818;stroke-width:1.0;"/><line style="stroke:#181818;stroke-width:1.0;" x1="221.5" x2="353.5" y1="158.6289" y2="158.6289"/><text fill="#000000" font-family="sans-serif" font-size="13" lengthAdjust="spacing" textLength="54" x="233.5" y="153.7725">hello with</text><a href="http://plantuml.com/start" target="_top" title="Tooltip for message" xlink:actuate="onRequest" xlink:href="http://plantuml.com/start" xlink:show="new" xlink:title="Tooltip for message" xlink:type="simple"><text fill="#0000FF" font-family="sans-serif" font-size="13" lengthAdjust="spacing" text-decoration="underline" textLength="56" x="291.5" y="153.7725">some link</text></a></a><a href="http://plantuml.com/start" target="_top" title="http://plantuml.com/start" xlink:actuate="onRequest" xlink:href="http://plantuml.com/start" xlink:show="new" xlink:title="http://plantuml.com/start" xlink:type="simple"><path d="M359,136.8745 L359,163.8745 L452,163.8745 L452,146.8745 L442,136.8745 L359,136.8745 " fill="#FEFFDD" style="stroke:#181818;stroke-width:0.5;"/><path d="M442,136.8745 L442,146.8745 L452,146.8745 L442,136.8745 " fill="#FEFFDD" style="stroke:#181818;stroke-width:0.5;"/><text fill="#000000" font-family="sans-serif" font-size="13" lengthAdjust="spacing" textLength="72" x="365" y="156.7725">another note</text></a><path d="M5,174.6289 L5,201.6289 L212,201.6289 L212,184.6289 L202,174.6289 L5,174.6289 " fill="#FEFFDD" style="stroke:#181818;stroke-width:0.5;"/><path d="M202,174.6289 L202,184.6289 L212,184.6289 L202,174.6289 " fill="#FEFFDD" style="stroke:#181818;stroke-width:0.5;"/><text fill="#000000" font-family="sans-serif" font-size="13" lengthAdjust="spacing" textLength="73" x="11" y="194.5269">You can use</text><a href="http://plantuml.com/start" target="_top" title="http://plantuml.com/start" xlink:actuate="onRequest" xlink:href="http://plantuml.com/start" xlink:show="new" xlink:title="http://plantuml.com/start" xlink:type="simple"><text fill="#0000FF" font-family="sans-serif" font-size="13" lengthAdjust="spacing" text-decoration="underline" textLength="77" x="88" y="194.5269">links in notes</text></a><text fill="#000000" font-family="sans-serif" font-size="13" lengthAdjust="spacing" textLength="28" x="169" y="194.5269">also.</text><!--MD5=[95236077769198309549c7942f739011]
@startuml
actor Bob [[http://plantuml.com/sequence]]
actor "This is [[http://plantuml.com/sequence Alice]] actor" as Alice
Bob -> Alice [[http://plantuml.com/start]] : hello
note left [[http://plantuml.com/start]]
  a note with a link
end note
Alice -> Bob : hello with [[http://plantuml.com/start{Tooltip for message} some link]]
note right [[http://plantuml.com/start]] : another note
note left of Bob
You can use [[http://plantuml.com/start links in notes]] also.
end note
@enduml

PlantUML version 1.2022.4(Sat Apr 09 21:29:17 CST 2022)
(GPL source distribution)
Java Runtime: Java(TM) SE Runtime Environment
JVM: Java HotSpot(TM) 64-Bit Server VM
Default Encoding: GBK
Language: zh
Country: CN
--></g></svg>