<?xml version="1.0" encoding="UTF-8" standalone="no"?><svg xmlns="http://www.w3.org/2000/svg" xmlns:xlink="http://www.w3.org/1999/xlink" contentStyleType="text/css" height="107px" preserveAspectRatio="none" style="width:130px;height:107px;background:#FFFFFF;" version="1.1" viewBox="0 0 130 107" width="130px" zoomAndPan="magnify"><defs/><g><!--MD5=[3f0ef310aaa84a542276992c5216544d]
class Car--><g id="elem_Car"><rect codeLine="1" fill="#F1F1F1" height="86.2402" id="Car" rx="2.5" ry="2.5" style="stroke:#181818;stroke-width:0.5;" width="109" x="7" y="7"/><ellipse cx="46.3" cy="23" fill="#ADD1B2" rx="11" ry="11" style="stroke:#181818;stroke-width:1.0;"/><path d="M44.8781,28.3594 Q43.0188,28.3594 41.925,26.9688 Q40.8313,25.5781 40.8313,22.5938 Q40.8313,20.0625 41.9953,18.4063 Q43.1594,16.75 45.1438,16.75 Q46.6125,16.75 47.0813,16.875 Q47.55,17.0781 47.55,17.0781 Q47.55,17.0781 47.55,17.0078 Q47.55,16.9375 48.1594,16.0156 L49.2063,19.6719 L47.8781,20.0781 Q47.4094,18.5313 46.7453,17.8672 Q46.0813,17.2031 45.0188,17.2031 Q44.6281,17.2031 43.8625,18.7344 Q43.0969,20.2656 43.0969,22.5156 Q43.0969,24.9844 43.7609,26.375 Q44.425,27.7656 44.9563,27.7656 Q46.0188,27.7656 46.7766,27 Q47.5344,26.2344 47.8781,24.5781 L49.2063,25.1719 Q48.8781,26.5781 47.9797,27.4688 Q47.0813,28.3594 44.8781,28.3594 Z " fill="#000000"/><text fill="#000000" font-family="sans-serif" font-size="14" lengthAdjust="spacing" textLength="23" x="65.7" y="29.4839">Car</text><line style="stroke:#181818;stroke-width:0.5;" x1="8" x2="115" y1="39" y2="39"/><a href="http://plantuml.com" target="_top" title="http://plantuml.com" xlink:actuate="onRequest" xlink:href="http://plantuml.com" xlink:show="new" xlink:title="http://plantuml.com" xlink:type="simple"><rect fill="#F1F1F1" height="10" style="stroke:none;stroke-width:1.0;" width="20" x="13" y="45"/><rect fill="none" height="6" style="stroke:#C82930;stroke-width:1.0;" width="6" x="15" y="47"/></a><a href="http://plantuml.com" target="_top" title="http://plantuml.com" xlink:actuate="onRequest" xlink:href="http://plantuml.com" xlink:show="new" xlink:title="http://plantuml.com" xlink:type="simple"><text fill="#000000" font-family="sans-serif" font-size="14" lengthAdjust="spacing" textLength="66" x="27" y="59.0439">Some field</text></a><line style="stroke:#181818;stroke-width:0.5;" x1="8" x2="115" y1="66.1201" y2="66.1201"/><a href="http://plantuml.com/link" target="_top" title="http://plantuml.com/link" xlink:actuate="onRequest" xlink:href="http://plantuml.com/link" xlink:show="new" xlink:title="http://plantuml.com/link" xlink:type="simple"><text fill="#000000" font-family="sans-serif" font-size="14" lengthAdjust="spacing" textLength="97" x="13" y="86.1641">Some method()</text></a></g><!--MD5=[de0b898dbd8b14ebde0c8ff33912b02a]
@startuml
class Car {
  - Some field [[[http://plantuml.com]]]
  Some method() [[[http://plantuml.com/link]]]
}
@enduml

PlantUML version 1.2022.4(Sat Apr 09 21:29:17 CST 2022)
(GPL source distribution)
Java Runtime: Java(TM) SE Runtime Environment
JVM: Java HotSpot(TM) 64-Bit Server VM
Default Encoding: GBK
Language: zh
Country: CN
--></g></svg>