<?xml version="1.0" encoding="UTF-8" standalone="no"?><svg xmlns="http://www.w3.org/2000/svg" xmlns:xlink="http://www.w3.org/1999/xlink" contentStyleType="text/css" height="237px" preserveAspectRatio="none" style="width:104px;height:237px;background:#FFFFFF;" version="1.1" viewBox="0 0 104 237" width="104px" zoomAndPan="magnify"><defs/><g><line style="stroke:#181818;stroke-width:0.5;stroke-dasharray:5.0,5.0;" x1="24" x2="24" y1="39.1201" y2="199.1201"/><line style="stroke:#181818;stroke-width:0.5;stroke-dasharray:5.0,5.0;" x1="76" x2="76" y1="39.1201" y2="199.1201"/><rect fill="#E2E2F0" height="33.1201" rx="2.5" ry="2.5" style="stroke:#181818;stroke-width:0.5;" width="39" x="5" y="5"/><text fill="#000000" font-family="sans-serif" font-size="14" lengthAdjust="spacing" textLength="25" x="12" y="28.0439">Bob</text><rect fill="#E2E2F0" height="33.1201" rx="2.5" ry="2.5" style="stroke:#181818;stroke-width:0.5;" width="39" x="5" y="198.1201"/><text fill="#000000" font-family="sans-serif" font-size="14" lengthAdjust="spacing" textLength="25" x="12" y="221.1641">Bob</text><rect fill="#E2E2F0" height="33.1201" rx="2.5" ry="2.5" style="stroke:#181818;stroke-width:0.5;" width="44" x="54" y="5"/><text fill="#000000" font-family="sans-serif" font-size="14" lengthAdjust="spacing" textLength="30" x="61" y="28.0439">Alice</text><rect fill="#E2E2F0" height="33.1201" rx="2.5" ry="2.5" style="stroke:#181818;stroke-width:0.5;" width="44" x="54" y="198.1201"/><text fill="#000000" font-family="sans-serif" font-size="14" lengthAdjust="spacing" textLength="30" x="61" y="221.1641">Alice</text><line style="stroke:#181818;stroke-width:2.0;" x1="58" x2="68" y1="50.1201" y2="60.1201"/><line style="stroke:#181818;stroke-width:2.0;" x1="58" x2="68" y1="60.1201" y2="50.1201"/><line style="stroke:#181818;stroke-width:1.0;" x1="24.5" x2="63" y1="55.1201" y2="55.1201"/><polygon fill="#181818" points="64,65.1201,74,69.1201,64,73.1201,68,69.1201" style="stroke:#181818;stroke-width:1.0;"/><line style="stroke:#181818;stroke-width:1.0;" x1="24.5" x2="70" y1="69.1201" y2="69.1201"/><line style="stroke:#181818;stroke-width:1.0;" x1="74" x2="64" y1="83.1201" y2="79.1201"/><line style="stroke:#181818;stroke-width:1.0;" x1="74" x2="64" y1="83.1201" y2="87.1201"/><line style="stroke:#181818;stroke-width:1.0;" x1="24.5" x2="75" y1="83.1201" y2="83.1201"/><polygon fill="#181818" points="64,93.1201,74,97.1201,64,97.1201" style="stroke:#181818;stroke-width:1.0;"/><line style="stroke:#181818;stroke-width:1.0;" x1="24.5" x2="75" y1="97.1201" y2="97.1201"/><line style="stroke:#181818;stroke-width:1.0;" x1="24.5" x2="34.5" y1="111.1201" y2="115.1201"/><line style="stroke:#181818;stroke-width:1.0;" x1="24.5" x2="75" y1="111.1201" y2="111.1201"/><line style="stroke:#181818;stroke-width:1.0;" x1="24.5" x2="34.5" y1="125.1201" y2="121.1201"/><line style="stroke:#181818;stroke-width:1.0;stroke-dasharray:2.0,2.0;" x1="24.5" x2="75" y1="125.1201" y2="125.1201"/><ellipse cx="75.5" cy="138.3701" fill="none" rx="4" ry="4" style="stroke:#181818;stroke-width:1.5;"/><polygon fill="#181818" points="58.5,135.1201,68.5,139.1201,58.5,143.1201,62.5,139.1201" style="stroke:#181818;stroke-width:1.0;"/><line style="stroke:#181818;stroke-width:1.0;" x1="24.5" x2="64.5" y1="139.1201" y2="139.1201"/><ellipse cx="24" cy="152.3701" fill="none" rx="4" ry="4" style="stroke:#181818;stroke-width:1.5;"/><line style="stroke:#181818;stroke-width:1.0;" x1="30" x2="40" y1="153.1201" y2="157.1201"/><line style="stroke:#181818;stroke-width:1.0;stroke-dasharray:2.0,2.0;" x1="24.5" x2="75" y1="153.1201" y2="153.1201"/><polygon fill="#181818" points="35.5,163.1201,25.5,167.1201,35.5,171.1201,31.5,167.1201" style="stroke:#181818;stroke-width:1.0;"/><polygon fill="#181818" points="64,163.1201,74,167.1201,64,171.1201,68,167.1201" style="stroke:#181818;stroke-width:1.0;"/><line style="stroke:#181818;stroke-width:1.0;" x1="29.5" x2="70" y1="167.1201" y2="167.1201"/><polygon fill="#181818" points="35.5,177.1201,25.5,181.1201,35.5,185.1201,31.5,181.1201" style="stroke:#181818;stroke-width:1.0;"/><ellipse cx="75.5" cy="180.3701" fill="none" rx="4" ry="4" style="stroke:#181818;stroke-width:1.5;"/><polygon fill="#181818" points="58.5,177.1201,68.5,181.1201,58.5,185.1201,62.5,181.1201" style="stroke:#181818;stroke-width:1.0;"/><line style="stroke:#181818;stroke-width:1.0;" x1="29.5" x2="64.5" y1="181.1201" y2="181.1201"/><!--MD5=[e5da819e20e77bb56a3c78bb96d3757b]
@startuml
Bob ->x Alice
Bob -> Alice
Bob ->> Alice
Bob -\ Alice
Bob \\- Alice
Bob //- - Alice

Bob ->o Alice
Bob o\\- - Alice

Bob <-> Alice
Bob <->o Alice
@enduml

PlantUML version 1.2022.4(Sat Apr 09 21:29:17 CST 2022)
(GPL source distribution)
Java Runtime: Java(TM) SE Runtime Environment
JVM: Java HotSpot(TM) 64-Bit Server VM
Default Encoding: GBK
Language: zh
Country: CN
--></g></svg>