<?xml version="1.0" encoding="UTF-8" standalone="no"?><svg xmlns="http://www.w3.org/2000/svg" xmlns:xlink="http://www.w3.org/1999/xlink" contentStyleType="text/css" height="346px" preserveAspectRatio="none" style="width:358px;height:346px;background:#FFFFFF;" version="1.1" viewBox="0 0 358 346" width="358px" zoomAndPan="magnify"><defs/><g><line style="stroke:#181818;stroke-width:0.5;stroke-dasharray:5.0,5.0;" x1="24" x2="24" y1="84.1201" y2="262.8921"/><line style="stroke:#181818;stroke-width:0.5;stroke-dasharray:5.0,5.0;" x1="119" x2="119" y1="84.1201" y2="262.8921"/><line style="stroke:#181818;stroke-width:0.5;stroke-dasharray:5.0,5.0;" x1="173" x2="173" y1="84.1201" y2="262.8921"/><line style="stroke:#181818;stroke-width:0.5;stroke-dasharray:5.0,5.0;" x1="222" x2="222" y1="84.1201" y2="262.8921"/><line style="stroke:#181818;stroke-width:0.5;stroke-dasharray:5.0,5.0;" x1="271" x2="271" y1="84.1201" y2="262.8921"/><line style="stroke:#181818;stroke-width:0.5;stroke-dasharray:5.0,5.0;" x1="326" x2="326" y1="84.1201" y2="262.8921"/><text fill="#000000" font-family="sans-serif" font-size="14" lengthAdjust="spacing" textLength="33" x="5" y="81.0439">Foo1</text><ellipse cx="24.5" cy="13.5" fill="#E2E2F0" rx="8" ry="8" style="stroke:#181818;stroke-width:0.5;"/><path d="M24.5,21.5 L24.5,48.5 M11.5,29.5 L37.5,29.5 M24.5,48.5 L11.5,63.5 M24.5,48.5 L37.5,63.5 " fill="none" style="stroke:#181818;stroke-width:0.5;"/><text fill="#000000" font-family="sans-serif" font-size="14" lengthAdjust="spacing" textLength="33" x="5" y="277.936">Foo1</text><ellipse cx="24.5" cy="289.5122" fill="#E2E2F0" rx="8" ry="8" style="stroke:#181818;stroke-width:0.5;"/><path d="M24.5,297.5122 L24.5,324.5122 M11.5,305.5122 L37.5,305.5122 M24.5,324.5122 L11.5,339.5122 M24.5,324.5122 L37.5,339.5122 " fill="none" style="stroke:#181818;stroke-width:0.5;"/><text fill="#000000" font-family="sans-serif" font-size="14" lengthAdjust="spacing" textLength="33" x="100" y="81.0439">Foo2</text><path d="M99,37 L99,61 M99,49 L116,49 " fill="none" style="stroke:#181818;stroke-width:0.5;"/><ellipse cx="128" cy="49" fill="#E2E2F0" rx="12" ry="12" style="stroke:#181818;stroke-width:0.5;"/><text fill="#000000" font-family="sans-serif" font-size="14" lengthAdjust="spacing" textLength="33" x="100" y="277.936">Foo2</text><path d="M99,285.0122 L99,309.0122 M99,297.0122 L116,297.0122 " fill="none" style="stroke:#181818;stroke-width:0.5;"/><ellipse cx="128" cy="297.0122" fill="#E2E2F0" rx="12" ry="12" style="stroke:#181818;stroke-width:0.5;"/><text fill="#000000" font-family="sans-serif" font-size="14" lengthAdjust="spacing" textLength="33" x="154" y="81.0439">Foo3</text><ellipse cx="173.5" cy="49" fill="#E2E2F0" rx="12" ry="12" style="stroke:#181818;stroke-width:0.5;"/><polygon fill="#181818" points="169.5,37,175.5,32,173.5,37,175.5,42,169.5,37" style="stroke:#181818;stroke-width:1.0;"/><text fill="#000000" font-family="sans-serif" font-size="14" lengthAdjust="spacing" textLength="33" x="154" y="277.936">Foo3</text><ellipse cx="173.5" cy="297.0122" fill="#E2E2F0" rx="12" ry="12" style="stroke:#181818;stroke-width:0.5;"/><polygon fill="#181818" points="169.5,285.0122,175.5,280.0122,173.5,285.0122,175.5,290.0122,169.5,285.0122" style="stroke:#181818;stroke-width:1.0;"/><text fill="#000000" font-family="sans-serif" font-size="14" lengthAdjust="spacing" textLength="33" x="203" y="81.0439">Foo4</text><ellipse cx="222.5" cy="49" fill="#E2E2F0" rx="12" ry="12" style="stroke:#181818;stroke-width:0.5;"/><line style="stroke:#181818;stroke-width:0.5;" x1="210.5" x2="234.5" y1="63" y2="63"/><text fill="#000000" font-family="sans-serif" font-size="14" lengthAdjust="spacing" textLength="33" x="203" y="277.936">Foo4</text><ellipse cx="222.5" cy="297.0122" fill="#E2E2F0" rx="12" ry="12" style="stroke:#181818;stroke-width:0.5;"/><line style="stroke:#181818;stroke-width:0.5;" x1="210.5" x2="234.5" y1="311.0122" y2="311.0122"/><text fill="#000000" font-family="sans-serif" font-size="14" lengthAdjust="spacing" textLength="33" x="252" y="81.0439">Foo5</text><path d="M253.5,29 C253.5,19 271.5,19 271.5,19 C271.5,19 289.5,19 289.5,29 L289.5,55 C289.5,65 271.5,65 271.5,65 C271.5,65 253.5,65 253.5,55 L253.5,29 " fill="#E2E2F0" style="stroke:#181818;stroke-width:1.5;"/><path d="M253.5,29 C253.5,39 271.5,39 271.5,39 C271.5,39 289.5,39 289.5,29 " fill="none" style="stroke:#181818;stroke-width:1.5;"/><text fill="#000000" font-family="sans-serif" font-size="14" lengthAdjust="spacing" textLength="33" x="252" y="277.936">Foo5</text><path d="M253.5,291.0122 C253.5,281.0122 271.5,281.0122 271.5,281.0122 C271.5,281.0122 289.5,281.0122 289.5,291.0122 L289.5,317.0122 C289.5,327.0122 271.5,327.0122 271.5,327.0122 C271.5,327.0122 253.5,327.0122 253.5,317.0122 L253.5,291.0122 " fill="#E2E2F0" style="stroke:#181818;stroke-width:1.5;"/><path d="M253.5,291.0122 C253.5,301.0122 271.5,301.0122 271.5,301.0122 C271.5,301.0122 289.5,301.0122 289.5,291.0122 " fill="none" style="stroke:#181818;stroke-width:1.5;"/><rect fill="#E2E2F0" height="33.1201" style="stroke:#181818;stroke-width:0.5;" width="47" x="305" y="46"/><rect fill="#E2E2F0" height="33.1201" style="stroke:#181818;stroke-width:0.5;" width="47" x="301" y="50"/><text fill="#000000" font-family="sans-serif" font-size="14" lengthAdjust="spacing" textLength="33" x="308" y="73.0439">Foo6</text><rect fill="#E2E2F0" height="33.1201" style="stroke:#181818;stroke-width:0.5;" width="47" x="305" y="261.8921"/><rect fill="#E2E2F0" height="33.1201" style="stroke:#181818;stroke-width:0.5;" width="47" x="301" y="265.8921"/><text fill="#000000" font-family="sans-serif" font-size="14" lengthAdjust="spacing" textLength="33" x="308" y="288.936">Foo6</text><polygon fill="#181818" points="107.5,113.8745,117.5,117.8745,107.5,121.8745,111.5,117.8745" style="stroke:#181818;stroke-width:1.0;"/><line style="stroke:#181818;stroke-width:1.0;" x1="24.5" x2="113.5" y1="117.8745" y2="117.8745"/><text fill="#000000" font-family="sans-serif" font-size="13" lengthAdjust="spacing" textLength="71" x="31.5" y="113.0181">To boundary</text><polygon fill="#181818" points="161.5,145.6289,171.5,149.6289,161.5,153.6289,165.5,149.6289" style="stroke:#181818;stroke-width:1.0;"/><line style="stroke:#181818;stroke-width:1.0;" x1="24.5" x2="167.5" y1="149.6289" y2="149.6289"/><text fill="#000000" font-family="sans-serif" font-size="13" lengthAdjust="spacing" textLength="57" x="31.5" y="144.7725">To control</text><polygon fill="#181818" points="210.5,177.3833,220.5,181.3833,210.5,185.3833,214.5,181.3833" style="stroke:#181818;stroke-width:1.0;"/><line style="stroke:#181818;stroke-width:1.0;" x1="24.5" x2="216.5" y1="181.3833" y2="181.3833"/><text fill="#000000" font-family="sans-serif" font-size="13" lengthAdjust="spacing" textLength="50" x="31.5" y="176.5269">To entity</text><polygon fill="#181818" points="259.5,209.1377,269.5,213.1377,259.5,217.1377,263.5,213.1377" style="stroke:#181818;stroke-width:1.0;"/><line style="stroke:#181818;stroke-width:1.0;" x1="24.5" x2="265.5" y1="213.1377" y2="213.1377"/><text fill="#000000" font-family="sans-serif" font-size="13" lengthAdjust="spacing" textLength="71" x="31.5" y="208.2813">To database</text><polygon fill="#181818" points="314.5,240.8921,324.5,244.8921,314.5,248.8921,318.5,244.8921" style="stroke:#181818;stroke-width:1.0;"/><line style="stroke:#181818;stroke-width:1.0;" x1="24.5" x2="320.5" y1="244.8921" y2="244.8921"/><text fill="#000000" font-family="sans-serif" font-size="13" lengthAdjust="spacing" textLength="80" x="31.5" y="240.0356">To collections</text><!--MD5=[b9db1d16a6831cc6f0100501909e5411]
@startuml
actor Foo1
boundary Foo2
control Foo3
entity Foo4
database Foo5
collections Foo6
Foo1 -> Foo2 : To boundary
Foo1 -> Foo3 : To control
Foo1 -> Foo4 : To entity
Foo1 -> Foo5 : To database
Foo1 -> Foo6 : To collections

@enduml

PlantUML version 1.2022.4(Sat Apr 09 21:29:17 CST 2022)
(GPL source distribution)
Java Runtime: Java(TM) SE Runtime Environment
JVM: Java HotSpot(TM) 64-Bit Server VM
Default Encoding: GBK
Language: zh
Country: CN
--></g></svg>