<?xml version="1.0" encoding="UTF-8" standalone="no"?><svg xmlns="http://www.w3.org/2000/svg" xmlns:xlink="http://www.w3.org/1999/xlink" contentStyleType="text/css" height="315px" preserveAspectRatio="none" style="width:272px;height:315px;background:#FFFFFF;" version="1.1" viewBox="0 0 272 315" width="272px" zoomAndPan="magnify"><defs/><g><line style="stroke:#181818;stroke-width:0.5;stroke-dasharray:5.0,5.0;" x1="27" x2="27" y1="39.1201" y2="277.6465"/><line style="stroke:#181818;stroke-width:0.5;stroke-dasharray:5.0,5.0;" x1="240.5" x2="240.5" y1="39.1201" y2="277.6465"/><rect fill="#E2E2F0" height="33.1201" rx="2.5" ry="2.5" style="stroke:#181818;stroke-width:0.5;" width="44" x="5" y="5"/><text fill="#000000" font-family="sans-serif" font-size="14" lengthAdjust="spacing" textLength="30" x="12" y="28.0439">Alice</text><rect fill="#E2E2F0" height="33.1201" rx="2.5" ry="2.5" style="stroke:#181818;stroke-width:0.5;" width="44" x="5" y="276.6465"/><text fill="#000000" font-family="sans-serif" font-size="14" lengthAdjust="spacing" textLength="30" x="12" y="299.6904">Alice</text><rect fill="#E2E2F0" height="33.1201" rx="2.5" ry="2.5" style="stroke:#181818;stroke-width:0.5;" width="39" x="221.5" y="5"/><text fill="#000000" font-family="sans-serif" font-size="14" lengthAdjust="spacing" textLength="25" x="228.5" y="28.0439">Bob</text><rect fill="#E2E2F0" height="33.1201" rx="2.5" ry="2.5" style="stroke:#181818;stroke-width:0.5;" width="39" x="221.5" y="276.6465"/><text fill="#000000" font-family="sans-serif" font-size="14" lengthAdjust="spacing" textLength="25" x="228.5" y="299.6904">Bob</text><rect fill="#EEEEEE" height="3" style="stroke:#EEEEEE;stroke-width:1.0;" width="265.5" x="0" y="70.9973"/><line style="stroke:#000000;stroke-width:1.0;" x1="0" x2="265.5" y1="70.9973" y2="70.9973"/><line style="stroke:#000000;stroke-width:1.0;" x1="0" x2="265.5" y1="73.9973" y2="73.9973"/><rect fill="#EEEEEE" height="25.7544" style="stroke:#000000;stroke-width:2.0;" width="97" x="84.25" y="59.1201"/><text fill="#000000" font-family="sans-serif" font-size="13" font-weight="bold" lengthAdjust="spacing" textLength="79" x="90.25" y="78.0181">Initialization</text><polygon fill="#181818" points="229,114.6289,239,118.6289,229,122.6289,233,118.6289" style="stroke:#181818;stroke-width:1.0;"/><line style="stroke:#181818;stroke-width:1.0;" x1="27" x2="235" y1="118.6289" y2="118.6289"/><text fill="#000000" font-family="sans-serif" font-size="13" lengthAdjust="spacing" textLength="135" x="34" y="113.7725">Authentication Request</text><polygon fill="#181818" points="38,146.3833,28,150.3833,38,154.3833,34,150.3833" style="stroke:#181818;stroke-width:1.0;"/><line style="stroke:#181818;stroke-width:1.0;stroke-dasharray:2.0,2.0;" x1="32" x2="240" y1="150.3833" y2="150.3833"/><text fill="#000000" font-family="sans-serif" font-size="13" lengthAdjust="spacing" textLength="145" x="44" y="145.5269">Authentication Response</text><rect fill="#EEEEEE" height="3" style="stroke:#EEEEEE;stroke-width:1.0;" width="265.5" x="0" y="180.2605"/><line style="stroke:#000000;stroke-width:1.0;" x1="0" x2="265.5" y1="180.2605" y2="180.2605"/><line style="stroke:#000000;stroke-width:1.0;" x1="0" x2="265.5" y1="183.2605" y2="183.2605"/><rect fill="#EEEEEE" height="25.7544" style="stroke:#000000;stroke-width:2.0;" width="83" x="91.25" y="168.3833"/><text fill="#000000" font-family="sans-serif" font-size="13" font-weight="bold" lengthAdjust="spacing" textLength="65" x="97.25" y="187.2813">Repetition</text><polygon fill="#181818" points="229,223.8921,239,227.8921,229,231.8921,233,227.8921" style="stroke:#181818;stroke-width:1.0;"/><line style="stroke:#181818;stroke-width:1.0;" x1="27" x2="235" y1="227.8921" y2="227.8921"/><text fill="#000000" font-family="sans-serif" font-size="13" lengthAdjust="spacing" textLength="182" x="34" y="223.0356">Another authentication Request</text><polygon fill="#181818" points="38,255.6465,28,259.6465,38,263.6465,34,259.6465" style="stroke:#181818;stroke-width:1.0;"/><line style="stroke:#181818;stroke-width:1.0;stroke-dasharray:2.0,2.0;" x1="32" x2="240" y1="259.6465" y2="259.6465"/><text fill="#000000" font-family="sans-serif" font-size="13" lengthAdjust="spacing" textLength="190" x="44" y="254.79">another authentication Response</text><!--MD5=[6c613844819a6c339fefe3e50c574be3]
@startuml

== Initialization ==

Alice -> Bob: Authentication Request
Bob - -> Alice: Authentication Response

== Repetition ==

Alice -> Bob: Another authentication Request
Alice <- - Bob: another authentication Response

@enduml

PlantUML version 1.2022.4(Sat Apr 09 21:29:17 CST 2022)
(GPL source distribution)
Java Runtime: Java(TM) SE Runtime Environment
JVM: Java HotSpot(TM) 64-Bit Server VM
Default Encoding: GBK
Language: zh
Country: CN
--></g></svg>