<?xml version="1.0" encoding="UTF-8" standalone="no"?><svg xmlns="http://www.w3.org/2000/svg" xmlns:xlink="http://www.w3.org/1999/xlink" contentStyleType="text/css" height="454px" preserveAspectRatio="none" style="width:322px;height:454px;background:#FFFFFF;" version="1.1" viewBox="0 0 322 454" width="322px" zoomAndPan="magnify"><defs/><g><rect height="311.8813" style="stroke:#000000;stroke-width:1.5;fill:none;" width="305.5" x="10" y="87.8745"/><rect height="148.7949" style="stroke:#000000;stroke-width:1.5;fill:none;" width="285.5" x="20" y="195.1836"/><rect height="51.5317" style="stroke:#000000;stroke-width:1.5;fill:none;" width="227.5" x="30" y="253.6924"/><line style="stroke:#181818;stroke-width:0.5;fill:none;stroke-dasharray:5.0,5.0;" x1="62" x2="62" y1="39.1201" y2="416.7559"/><line style="stroke:#181818;stroke-width:0.5;fill:none;stroke-dasharray:5.0,5.0;" x1="227.5" x2="227.5" y1="39.1201" y2="416.7559"/><line style="stroke:#181818;stroke-width:0.5;fill:none;stroke-dasharray:5.0,5.0;" x1="276.5" x2="276.5" y1="39.1201" y2="416.7559"/><rect fill="#E2E2F0" height="33.1201" rx="2.5" ry="2.5" style="stroke:#181818;stroke-width:0.5;" width="44" x="40" y="5"/><text fill="#000000" font-family="sans-serif" font-size="14" lengthAdjust="spacing" textLength="30" x="47" y="28.0439">Alice</text><rect fill="#E2E2F0" height="33.1201" rx="2.5" ry="2.5" style="stroke:#181818;stroke-width:0.5;" width="44" x="40" y="415.7559"/><text fill="#000000" font-family="sans-serif" font-size="14" lengthAdjust="spacing" textLength="30" x="47" y="438.7998">Alice</text><rect fill="#E2E2F0" height="33.1201" rx="2.5" ry="2.5" style="stroke:#181818;stroke-width:0.5;" width="39" x="208.5" y="5"/><text fill="#000000" font-family="sans-serif" font-size="14" lengthAdjust="spacing" textLength="25" x="215.5" y="28.0439">Bob</text><rect fill="#E2E2F0" height="33.1201" rx="2.5" ry="2.5" style="stroke:#181818;stroke-width:0.5;" width="39" x="208.5" y="415.7559"/><text fill="#000000" font-family="sans-serif" font-size="14" lengthAdjust="spacing" textLength="25" x="215.5" y="438.7998">Bob</text><rect fill="#E2E2F0" height="33.1201" rx="2.5" ry="2.5" style="stroke:#181818;stroke-width:0.5;" width="38" x="257.5" y="5"/><text fill="#000000" font-family="sans-serif" font-size="14" lengthAdjust="spacing" textLength="24" x="264.5" y="28.0439">Log</text><rect fill="#E2E2F0" height="33.1201" rx="2.5" ry="2.5" style="stroke:#181818;stroke-width:0.5;" width="38" x="257.5" y="415.7559"/><text fill="#000000" font-family="sans-serif" font-size="14" lengthAdjust="spacing" textLength="24" x="264.5" y="438.7998">Log</text><polygon fill="#181818" points="216,68.8745,226,72.8745,216,76.8745,220,72.8745" style="stroke:#181818;stroke-width:1.0;"/><line style="stroke:#181818;stroke-width:1.0;" x1="62" x2="222" y1="72.8745" y2="72.8745"/><text fill="#000000" font-family="sans-serif" font-size="13" lengthAdjust="spacing" textLength="135" x="69" y="68.0181">Authentication Request</text><path d="M10,87.8745 L71,87.8745 L71,97.6289 L61,107.6289 L10,107.6289 L10,87.8745 " fill="#EEEEEE" style="stroke:#000000;stroke-width:1.5;"/><rect fill="none" height="311.8813" style="stroke:#000000;stroke-width:1.5;" width="305.5" x="10" y="87.8745"/><text fill="#000000" font-family="sans-serif" font-size="13" font-weight="bold" lengthAdjust="spacing" textLength="16" x="25" y="103.7725">alt</text><text fill="#000000" font-family="sans-serif" font-size="11" font-weight="bold" lengthAdjust="spacing" textLength="98" x="86" y="102.4805">[successful case]</text><polygon fill="#181818" points="73,127.4063,63,131.4063,73,135.4063,69,131.4063" style="stroke:#181818;stroke-width:1.0;"/><line style="stroke:#181818;stroke-width:1.0;" x1="67" x2="227" y1="131.4063" y2="131.4063"/><text fill="#000000" font-family="sans-serif" font-size="13" lengthAdjust="spacing" textLength="142" x="79" y="126.5498">Authentication Accepted</text><line style="stroke:#000000;stroke-width:1.0;stroke-dasharray:2.0,2.0;" x1="10" x2="315.5" y1="140.4063" y2="140.4063"/><text fill="#000000" font-family="sans-serif" font-size="11" font-weight="bold" lengthAdjust="spacing" textLength="119" x="15" y="153.0122">[some kind of failure]</text><polygon fill="#181818" points="73,176.1836,63,180.1836,73,184.1836,69,180.1836" style="stroke:#181818;stroke-width:1.0;"/><line style="stroke:#181818;stroke-width:1.0;" x1="67" x2="227" y1="180.1836" y2="180.1836"/><text fill="#000000" font-family="sans-serif" font-size="13" lengthAdjust="spacing" textLength="126" x="79" y="175.3271">Authentication Failure</text><path d="M20,195.1836 L150,195.1836 L150,204.938 L140,214.938 L20,214.938 L20,195.1836 " fill="#EEEEEE" style="stroke:#000000;stroke-width:1.5;"/><rect fill="none" height="148.7949" style="stroke:#000000;stroke-width:1.5;" width="285.5" x="20" y="195.1836"/><text fill="#000000" font-family="sans-serif" font-size="13" font-weight="bold" lengthAdjust="spacing" textLength="85" x="35" y="211.0815">My own label</text><polygon fill="#181818" points="264.5,234.6924,274.5,238.6924,264.5,242.6924,268.5,238.6924" style="stroke:#181818;stroke-width:1.0;"/><line style="stroke:#181818;stroke-width:1.0;" x1="62" x2="270.5" y1="238.6924" y2="238.6924"/><text fill="#000000" font-family="sans-serif" font-size="13" lengthAdjust="spacing" textLength="91" x="69" y="233.8359">Log attack start</text><path d="M30,253.6924 L103,253.6924 L103,263.4468 L93,273.4468 L30,273.4468 L30,253.6924 " fill="#EEEEEE" style="stroke:#000000;stroke-width:1.5;"/><rect fill="none" height="51.5317" style="stroke:#000000;stroke-width:1.5;" width="227.5" x="30" y="253.6924"/><text fill="#000000" font-family="sans-serif" font-size="13" font-weight="bold" lengthAdjust="spacing" textLength="28" x="45" y="269.5903">loop</text><text fill="#000000" font-family="sans-serif" font-size="11" font-weight="bold" lengthAdjust="spacing" textLength="67" x="118" y="268.2983">[1000 times]</text><polygon fill="#181818" points="216,293.2241,226,297.2241,216,301.2241,220,297.2241" style="stroke:#181818;stroke-width:1.0;"/><line style="stroke:#181818;stroke-width:1.0;" x1="62" x2="222" y1="297.2241" y2="297.2241"/><text fill="#000000" font-family="sans-serif" font-size="13" lengthAdjust="spacing" textLength="69" x="69" y="292.3677">DNS Attack</text><polygon fill="#181818" points="264.5,331.9785,274.5,335.9785,264.5,339.9785,268.5,335.9785" style="stroke:#181818;stroke-width:1.0;"/><line style="stroke:#181818;stroke-width:1.0;" x1="62" x2="270.5" y1="335.9785" y2="335.9785"/><text fill="#000000" font-family="sans-serif" font-size="13" lengthAdjust="spacing" textLength="86" x="69" y="331.1221">Log attack end</text><line style="stroke:#000000;stroke-width:1.0;stroke-dasharray:2.0,2.0;" x1="10" x2="315.5" y1="351.9785" y2="351.9785"/><text fill="#000000" font-family="sans-serif" font-size="11" font-weight="bold" lengthAdjust="spacing" textLength="132" x="15" y="364.5845">[Another type of failure]</text><polygon fill="#181818" points="73,387.7559,63,391.7559,73,395.7559,69,391.7559" style="stroke:#181818;stroke-width:1.0;"/><line style="stroke:#181818;stroke-width:1.0;" x1="67" x2="227" y1="391.7559" y2="391.7559"/><text fill="#000000" font-family="sans-serif" font-size="13" lengthAdjust="spacing" textLength="80" x="79" y="386.8994">Please repeat</text><!--MD5=[eda41ad20f88175725f923584d78aad6]
@startuml
Alice -> Bob: Authentication Request

alt successful case

    Bob -> Alice: Authentication Accepted
    
else some kind of failure

    Bob -> Alice: Authentication Failure
    group My own label
    	Alice -> Log : Log attack start
        loop 1000 times
            Alice -> Bob: DNS Attack
        end
    	Alice -> Log : Log attack end
    end
    
else Another type of failure

   Bob -> Alice: Please repeat
   
end
@enduml

PlantUML version 1.2022.4(Sat Apr 09 21:29:17 CST 2022)
(GPL source distribution)
Java Runtime: Java(TM) SE Runtime Environment
JVM: Java HotSpot(TM) 64-Bit Server VM
Default Encoding: GBK
Language: zh
Country: CN
--></g></svg>