<?xml version="1.0" encoding="UTF-8" standalone="no"?><svg xmlns="http://www.w3.org/2000/svg" xmlns:xlink="http://www.w3.org/1999/xlink" contentStyleType="text/css" height="265px" preserveAspectRatio="none" style="width:70px;height:265px;background:#FFFFFF;" version="1.1" viewBox="0 0 70 265" width="70px" zoomAndPan="magnify"><defs/><g><line style="stroke:#181818;stroke-width:0.5;stroke-dasharray:5.0,5.0;" x1="31.5" x2="31.5" y1="39.1201" y2="227.1201"/><rect fill="#E2E2F0" height="33.1201" rx="2.5" ry="2.5" style="stroke:#181818;stroke-width:0.5;" width="39" x="12.5" y="5"/><text fill="#000000" font-family="sans-serif" font-size="14" lengthAdjust="spacing" textLength="25" x="19.5" y="28.0439">Bob</text><rect fill="#E2E2F0" height="33.1201" rx="2.5" ry="2.5" style="stroke:#181818;stroke-width:0.5;" width="39" x="12.5" y="226.1201"/><text fill="#000000" font-family="sans-serif" font-size="14" lengthAdjust="spacing" textLength="25" x="19.5" y="249.1641">Bob</text><polygon fill="#181818" points="20,51.1201,30,55.1201,20,59.1201,24,55.1201" style="stroke:#181818;stroke-width:1.0;"/><line style="stroke:#181818;stroke-width:1.0;" x1="0" x2="26" y1="55.1201" y2="55.1201"/><ellipse cx="7.5" cy="68.3701" fill="none" rx="4" ry="4" style="stroke:#181818;stroke-width:1.5;"/><polygon fill="#181818" points="20,65.1201,30,69.1201,20,73.1201,24,69.1201" style="stroke:#181818;stroke-width:1.0;"/><line style="stroke:#181818;stroke-width:1.0;" x1="12" x2="26" y1="69.1201" y2="69.1201"/><ellipse cx="7.5" cy="82.3701" fill="none" rx="4" ry="4" style="stroke:#181818;stroke-width:1.5;"/><ellipse cx="31.5" cy="82.3701" fill="none" rx="4" ry="4" style="stroke:#181818;stroke-width:1.5;"/><polygon fill="#181818" points="14.5,79.1201,24.5,83.1201,14.5,87.1201,18.5,83.1201" style="stroke:#181818;stroke-width:1.0;"/><line style="stroke:#181818;stroke-width:1.0;" x1="12" x2="20.5" y1="83.1201" y2="83.1201"/><line style="stroke:#181818;stroke-width:2.0;" x1="6" x2="16" y1="92.1201" y2="102.1201"/><line style="stroke:#181818;stroke-width:2.0;" x1="6" x2="16" y1="102.1201" y2="92.1201"/><polygon fill="#181818" points="20,93.1201,30,97.1201,20,101.1201,24,97.1201" style="stroke:#181818;stroke-width:1.0;"/><line style="stroke:#181818;stroke-width:1.0;" x1="12" x2="26" y1="97.1201" y2="97.1201"/><polygon fill="#181818" points="11,107.1201,1,111.1201,11,115.1201,7,111.1201" style="stroke:#181818;stroke-width:1.0;"/><line style="stroke:#181818;stroke-width:1.0;" x1="5" x2="31" y1="111.1201" y2="111.1201"/><line style="stroke:#181818;stroke-width:2.0;" x1="6" x2="16" y1="120.1201" y2="130.1201"/><line style="stroke:#181818;stroke-width:2.0;" x1="6" x2="16" y1="130.1201" y2="120.1201"/><line style="stroke:#181818;stroke-width:1.0;" x1="12" x2="31" y1="125.1201" y2="125.1201"/><polygon fill="#181818" points="52,135.1201,62,139.1201,52,143.1201,56,139.1201" style="stroke:#181818;stroke-width:1.0;"/><line style="stroke:#181818;stroke-width:1.0;" x1="32" x2="58" y1="139.1201" y2="139.1201"/><ellipse cx="55.5" cy="152.3701" fill="none" rx="4" ry="4" style="stroke:#181818;stroke-width:1.5;"/><polygon fill="#181818" points="38.5,149.1201,48.5,153.1201,38.5,157.1201,42.5,153.1201" style="stroke:#181818;stroke-width:1.0;"/><line style="stroke:#181818;stroke-width:1.0;" x1="32" x2="44.5" y1="153.1201" y2="153.1201"/><ellipse cx="31.5" cy="166.3701" fill="none" rx="4" ry="4" style="stroke:#181818;stroke-width:1.5;"/><ellipse cx="55.5" cy="166.3701" fill="none" rx="4" ry="4" style="stroke:#181818;stroke-width:1.5;"/><polygon fill="#181818" points="38.5,163.1201,48.5,167.1201,38.5,171.1201,42.5,167.1201" style="stroke:#181818;stroke-width:1.0;"/><line style="stroke:#181818;stroke-width:1.0;" x1="36" x2="44.5" y1="167.1201" y2="167.1201"/><line style="stroke:#181818;stroke-width:2.0;" x1="46" x2="56" y1="176.1201" y2="186.1201"/><line style="stroke:#181818;stroke-width:2.0;" x1="46" x2="56" y1="186.1201" y2="176.1201"/><line style="stroke:#181818;stroke-width:1.0;" x1="32" x2="51" y1="181.1201" y2="181.1201"/><polygon fill="#181818" points="43,191.1201,33,195.1201,43,199.1201,39,195.1201" style="stroke:#181818;stroke-width:1.0;"/><line style="stroke:#181818;stroke-width:1.0;" x1="37" x2="63" y1="195.1201" y2="195.1201"/><line style="stroke:#181818;stroke-width:2.0;" x1="38" x2="48" y1="204.1201" y2="214.1201"/><line style="stroke:#181818;stroke-width:2.0;" x1="38" x2="48" y1="214.1201" y2="204.1201"/><line style="stroke:#181818;stroke-width:1.0;" x1="44" x2="63" y1="209.1201" y2="209.1201"/><!--MD5=[c666bd51df57e5dac2370f26dedca327]
@startuml
[-> Bob
[o-> Bob
[o->o Bob
[x-> Bob

[<- Bob
[x<- Bob

Bob ->]
Bob ->o]
Bob o->o]
Bob ->x]

Bob <-]
Bob x<-]
@enduml

PlantUML version 1.2022.4(Sat Apr 09 21:29:17 CST 2022)
(GPL source distribution)
Java Runtime: Java(TM) SE Runtime Environment
JVM: Java HotSpot(TM) 64-Bit Server VM
Default Encoding: GBK
Language: zh
Country: CN
--></g></svg>