<?xml version="1.0" encoding="UTF-8" standalone="no"?><svg xmlns="http://www.w3.org/2000/svg" xmlns:xlink="http://www.w3.org/1999/xlink" contentStyleType="text/css" height="269px" preserveAspectRatio="none" style="width:235px;height:269px;background:#FFFFFF;" version="1.1" viewBox="0 0 235 269" width="235px" zoomAndPan="magnify"><defs/><g><rect fill="#FFFFFF" height="140.0176" style="stroke:#181818;stroke-width:1.0;" width="10" x="66" y="72.8745"/><rect fill="#FFFFFF" height="68.5088" style="stroke:#181818;stroke-width:1.0;" width="10" x="71" y="112.6289"/><line style="stroke:#181818;stroke-width:0.5;stroke-dasharray:5.0,5.0;" x1="70.5" x2="70.5" y1="39.1201" y2="230.8921"/><rect fill="#E2E2F0" height="33.1201" rx="2.5" ry="2.5" style="stroke:#181818;stroke-width:0.5;" width="23" x="59.5" y="5"/><text fill="#000000" font-family="sans-serif" font-size="14" lengthAdjust="spacing" textLength="9" x="66.5" y="28.0439">A</text><rect fill="#E2E2F0" height="33.1201" rx="2.5" ry="2.5" style="stroke:#181818;stroke-width:0.5;" width="23" x="59.5" y="229.8921"/><text fill="#000000" font-family="sans-serif" font-size="14" lengthAdjust="spacing" textLength="9" x="66.5" y="252.936">A</text><rect fill="#FFFFFF" height="140.0176" style="stroke:#181818;stroke-width:1.0;" width="10" x="66" y="72.8745"/><rect fill="#FFFFFF" height="68.5088" style="stroke:#181818;stroke-width:1.0;" width="10" x="71" y="112.6289"/><polygon fill="#181818" points="54,68.8745,64,72.8745,54,76.8745,58,72.8745" style="stroke:#181818;stroke-width:1.0;"/><line style="stroke:#181818;stroke-width:1.0;" x1="0" x2="60" y1="72.8745" y2="72.8745"/><text fill="#000000" font-family="sans-serif" font-size="13" lengthAdjust="spacing" textLength="47" x="7" y="68.0181">DoWork</text><line style="stroke:#181818;stroke-width:1.0;" x1="76" x2="123" y1="99.6289" y2="99.6289"/><line style="stroke:#181818;stroke-width:1.0;" x1="123" x2="123" y1="99.6289" y2="112.6289"/><line style="stroke:#181818;stroke-width:1.0;" x1="82" x2="123" y1="112.6289" y2="112.6289"/><polygon fill="#181818" points="92,108.6289,82,112.6289,92,116.6289,88,112.6289" style="stroke:#181818;stroke-width:1.0;"/><text fill="#000000" font-family="sans-serif" font-size="13" lengthAdjust="spacing" textLength="66" x="88" y="94.7725">Internal call</text><polygon fill="#181818" points="217,145.3833,227,149.3833,217,153.3833,221,149.3833" style="stroke:#181818;stroke-width:1.0;"/><line style="stroke:#181818;stroke-width:1.0;" x1="81" x2="223" y1="149.3833" y2="149.3833"/><text fill="#000000" font-family="sans-serif" font-size="13" lengthAdjust="spacing" textLength="124" x="88" y="144.5269">&lt;&lt; createRequest &gt;&gt;</text><polygon fill="#181818" points="87,177.1377,77,181.1377,87,185.1377,83,181.1377" style="stroke:#181818;stroke-width:1.0;"/><line style="stroke:#181818;stroke-width:1.0;stroke-dasharray:2.0,2.0;" x1="81" x2="228" y1="181.1377" y2="181.1377"/><text fill="#000000" font-family="sans-serif" font-size="13" lengthAdjust="spacing" textLength="93" x="93" y="176.2813">RequestCreated</text><polygon fill="#181818" points="11,208.8921,1,212.8921,11,216.8921,7,212.8921" style="stroke:#181818;stroke-width:1.0;"/><line style="stroke:#181818;stroke-width:1.0;" x1="5" x2="70" y1="212.8921" y2="212.8921"/><text fill="#000000" font-family="sans-serif" font-size="13" lengthAdjust="spacing" textLength="30" x="17" y="208.0356">Done</text><!--MD5=[f04e7a3331149bc54bf94096f5a41e8a]
@startuml
[-> A: DoWork

activate A

A -> A: Internal call
activate A

A ->] : << createRequest >>

A<- -] : RequestCreated
deactivate A
[<- A: Done
deactivate A
@enduml

PlantUML version 1.2022.4(Sat Apr 09 21:29:17 CST 2022)
(GPL source distribution)
Java Runtime: Java(TM) SE Runtime Environment
JVM: Java HotSpot(TM) 64-Bit Server VM
Default Encoding: GBK
Language: zh
Country: CN
--></g></svg>