<?xml version="1.0" encoding="UTF-8" standalone="no"?><svg xmlns="http://www.w3.org/2000/svg" xmlns:xlink="http://www.w3.org/1999/xlink" contentStyleType="text/css" height="287px" preserveAspectRatio="none" style="width:363px;height:287px;background:#FFFFFF;" version="1.1" viewBox="0 0 363 287" width="363px" zoomAndPan="magnify"><defs/><g><rect fill="#FFFFFF" height="158.772" style="stroke:#181818;stroke-width:1.0;" width="10" x="92.5" y="72.8745"/><rect fill="#FFFFFF" height="95.2632" style="stroke:#181818;stroke-width:1.0;" width="10" x="245.5" y="104.6289"/><rect fill="#FFFFFF" height="31.7544" style="stroke:#181818;stroke-width:1.0;" width="10" x="340.5" y="136.3833"/><line style="stroke:#181818;stroke-width:0.5;stroke-dasharray:5.0,5.0;" x1="26" x2="26" y1="39.1201" y2="249.6465"/><line style="stroke:#181818;stroke-width:0.5;stroke-dasharray:5.0,5.0;" x1="97" x2="97" y1="39.1201" y2="249.6465"/><line style="stroke:#181818;stroke-width:0.5;stroke-dasharray:5.0,5.0;" x1="250" x2="250" y1="39.1201" y2="249.6465"/><line style="stroke:#181818;stroke-width:0.5;stroke-dasharray:5.0,5.0;" x1="345.5" x2="345.5" y1="39.1201" y2="249.6465"/><rect fill="#E2E2F0" height="33.1201" rx="2.5" ry="2.5" style="stroke:#181818;stroke-width:0.5;" width="43" x="5" y="5"/><text fill="#000000" font-family="sans-serif" font-size="14" lengthAdjust="spacing" textLength="29" x="12" y="28.0439">User</text><rect fill="#E2E2F0" height="33.1201" rx="2.5" ry="2.5" style="stroke:#181818;stroke-width:0.5;" width="43" x="5" y="248.6465"/><text fill="#000000" font-family="sans-serif" font-size="14" lengthAdjust="spacing" textLength="29" x="12" y="271.6904">User</text><rect fill="#E2E2F0" height="33.1201" rx="2.5" ry="2.5" style="stroke:#181818;stroke-width:0.5;" width="23" x="86" y="5"/><text fill="#000000" font-family="sans-serif" font-size="14" lengthAdjust="spacing" textLength="9" x="93" y="28.0439">A</text><rect fill="#E2E2F0" height="33.1201" rx="2.5" ry="2.5" style="stroke:#181818;stroke-width:0.5;" width="23" x="86" y="248.6465"/><text fill="#000000" font-family="sans-serif" font-size="14" lengthAdjust="spacing" textLength="9" x="93" y="271.6904">A</text><rect fill="#E2E2F0" height="33.1201" rx="2.5" ry="2.5" style="stroke:#181818;stroke-width:0.5;" width="23" x="239" y="5"/><text fill="#000000" font-family="sans-serif" font-size="14" lengthAdjust="spacing" textLength="9" x="246" y="28.0439">B</text><rect fill="#E2E2F0" height="33.1201" rx="2.5" ry="2.5" style="stroke:#181818;stroke-width:0.5;" width="23" x="239" y="248.6465"/><text fill="#000000" font-family="sans-serif" font-size="14" lengthAdjust="spacing" textLength="9" x="246" y="271.6904">B</text><rect fill="#E2E2F0" height="33.1201" rx="2.5" ry="2.5" style="stroke:#181818;stroke-width:0.5;" width="24" x="333.5" y="5"/><text fill="#000000" font-family="sans-serif" font-size="14" lengthAdjust="spacing" textLength="10" x="340.5" y="28.0439">C</text><rect fill="#E2E2F0" height="33.1201" rx="2.5" ry="2.5" style="stroke:#181818;stroke-width:0.5;" width="24" x="333.5" y="248.6465"/><text fill="#000000" font-family="sans-serif" font-size="14" lengthAdjust="spacing" textLength="10" x="340.5" y="271.6904">C</text><rect fill="#FFFFFF" height="158.772" style="stroke:#181818;stroke-width:1.0;" width="10" x="92.5" y="72.8745"/><rect fill="#FFFFFF" height="95.2632" style="stroke:#181818;stroke-width:1.0;" width="10" x="245.5" y="104.6289"/><rect fill="#FFFFFF" height="31.7544" style="stroke:#181818;stroke-width:1.0;" width="10" x="340.5" y="136.3833"/><polygon fill="#181818" points="80.5,68.8745,90.5,72.8745,80.5,76.8745,84.5,72.8745" style="stroke:#181818;stroke-width:1.0;"/><line style="stroke:#181818;stroke-width:1.0;" x1="26.5" x2="86.5" y1="72.8745" y2="72.8745"/><text fill="#000000" font-family="sans-serif" font-size="13" lengthAdjust="spacing" textLength="47" x="33.5" y="68.0181">DoWork</text><polygon fill="#181818" points="233.5,100.6289,243.5,104.6289,233.5,108.6289,237.5,104.6289" style="stroke:#181818;stroke-width:1.0;"/><line style="stroke:#181818;stroke-width:1.0;" x1="102.5" x2="239.5" y1="104.6289" y2="104.6289"/><text fill="#000000" font-family="sans-serif" font-size="13" lengthAdjust="spacing" textLength="124" x="109.5" y="99.7725">&lt;&lt; createRequest &gt;&gt;</text><polygon fill="#181818" points="328.5,132.3833,338.5,136.3833,328.5,140.3833,332.5,136.3833" style="stroke:#181818;stroke-width:1.0;"/><line style="stroke:#181818;stroke-width:1.0;" x1="255.5" x2="334.5" y1="136.3833" y2="136.3833"/><text fill="#000000" font-family="sans-serif" font-size="13" lengthAdjust="spacing" textLength="47" x="262.5" y="131.5269">DoWork</text><polygon fill="#181818" points="266.5,164.1377,256.5,168.1377,266.5,172.1377,262.5,168.1377" style="stroke:#181818;stroke-width:1.0;"/><line style="stroke:#181818;stroke-width:1.0;stroke-dasharray:2.0,2.0;" x1="260.5" x2="344.5" y1="168.1377" y2="168.1377"/><text fill="#000000" font-family="sans-serif" font-size="13" lengthAdjust="spacing" textLength="61" x="272.5" y="163.2813">WorkDone</text><line style="stroke:#A80036;stroke-width:2.0;" x1="336.5" x2="354.5" y1="159.1377" y2="177.1377"/><line style="stroke:#A80036;stroke-width:2.0;" x1="336.5" x2="354.5" y1="177.1377" y2="159.1377"/><polygon fill="#181818" points="113.5,195.8921,103.5,199.8921,113.5,203.8921,109.5,199.8921" style="stroke:#181818;stroke-width:1.0;"/><line style="stroke:#181818;stroke-width:1.0;stroke-dasharray:2.0,2.0;" x1="107.5" x2="249.5" y1="199.8921" y2="199.8921"/><text fill="#000000" font-family="sans-serif" font-size="13" lengthAdjust="spacing" textLength="93" x="119.5" y="195.0356">RequestCreated</text><polygon fill="#181818" points="37.5,227.6465,27.5,231.6465,37.5,235.6465,33.5,231.6465" style="stroke:#181818;stroke-width:1.0;"/><line style="stroke:#181818;stroke-width:1.0;" x1="31.5" x2="96.5" y1="231.6465" y2="231.6465"/><text fill="#000000" font-family="sans-serif" font-size="13" lengthAdjust="spacing" textLength="30" x="43.5" y="226.79">Done</text><!--MD5=[fbab9d97c132068cc4f748a52e553d33]
@startuml
participant User

User -> A: DoWork
activate A

A -> B: << createRequest >>
activate B

B -> C: DoWork
activate C
C - -> B: WorkDone
destroy C

B - -> A: RequestCreated
deactivate B

A -> User: Done
deactivate A

@enduml

PlantUML version 1.2022.4(Sat Apr 09 21:29:17 CST 2022)
(GPL source distribution)
Java Runtime: Java(TM) SE Runtime Environment
JVM: Java HotSpot(TM) 64-Bit Server VM
Default Encoding: GBK
Language: zh
Country: CN
--></g></svg>