<?xml version="1.0" encoding="UTF-8" standalone="no"?><svg xmlns="http://www.w3.org/2000/svg" xmlns:xlink="http://www.w3.org/1999/xlink" contentStyleType="text/css" height="269px" preserveAspectRatio="none" style="width:273px;height:269px;background:#FFFFFF;" version="1.1" viewBox="0 0 273 269" width="273px" zoomAndPan="magnify"><defs/><g><rect fill="#FFBBBB" height="140.0176" style="stroke:#181818;stroke-width:1.0;" width="10" x="92.5" y="72.8745"/><rect fill="#E9967A" height="68.5088" style="stroke:#181818;stroke-width:1.0;" width="10" x="97.5" y="112.6289"/><rect fill="#FFFFFF" height="31.7544" style="stroke:#181818;stroke-width:1.0;" width="10" x="250.5" y="149.3833"/><line style="stroke:#181818;stroke-width:0.5;stroke-dasharray:5.0,5.0;" x1="26" x2="26" y1="39.1201" y2="230.8921"/><line style="stroke:#181818;stroke-width:0.5;stroke-dasharray:5.0,5.0;" x1="97" x2="97" y1="39.1201" y2="230.8921"/><line style="stroke:#181818;stroke-width:0.5;stroke-dasharray:5.0,5.0;" x1="255" x2="255" y1="39.1201" y2="230.8921"/><rect fill="#E2E2F0" height="33.1201" rx="2.5" ry="2.5" style="stroke:#181818;stroke-width:0.5;" width="43" x="5" y="5"/><text fill="#000000" font-family="sans-serif" font-size="14" lengthAdjust="spacing" textLength="29" x="12" y="28.0439">User</text><rect fill="#E2E2F0" height="33.1201" rx="2.5" ry="2.5" style="stroke:#181818;stroke-width:0.5;" width="43" x="5" y="229.8921"/><text fill="#000000" font-family="sans-serif" font-size="14" lengthAdjust="spacing" textLength="29" x="12" y="252.936">User</text><rect fill="#E2E2F0" height="33.1201" rx="2.5" ry="2.5" style="stroke:#181818;stroke-width:0.5;" width="23" x="86" y="5"/><text fill="#000000" font-family="sans-serif" font-size="14" lengthAdjust="spacing" textLength="9" x="93" y="28.0439">A</text><rect fill="#E2E2F0" height="33.1201" rx="2.5" ry="2.5" style="stroke:#181818;stroke-width:0.5;" width="23" x="86" y="229.8921"/><text fill="#000000" font-family="sans-serif" font-size="14" lengthAdjust="spacing" textLength="9" x="93" y="252.936">A</text><rect fill="#E2E2F0" height="33.1201" rx="2.5" ry="2.5" style="stroke:#181818;stroke-width:0.5;" width="23" x="244" y="5"/><text fill="#000000" font-family="sans-serif" font-size="14" lengthAdjust="spacing" textLength="9" x="251" y="28.0439">B</text><rect fill="#E2E2F0" height="33.1201" rx="2.5" ry="2.5" style="stroke:#181818;stroke-width:0.5;" width="23" x="244" y="229.8921"/><text fill="#000000" font-family="sans-serif" font-size="14" lengthAdjust="spacing" textLength="9" x="251" y="252.936">B</text><rect fill="#FFBBBB" height="140.0176" style="stroke:#181818;stroke-width:1.0;" width="10" x="92.5" y="72.8745"/><rect fill="#E9967A" height="68.5088" style="stroke:#181818;stroke-width:1.0;" width="10" x="97.5" y="112.6289"/><rect fill="#FFFFFF" height="31.7544" style="stroke:#181818;stroke-width:1.0;" width="10" x="250.5" y="149.3833"/><polygon fill="#181818" points="80.5,68.8745,90.5,72.8745,80.5,76.8745,84.5,72.8745" style="stroke:#181818;stroke-width:1.0;"/><line style="stroke:#181818;stroke-width:1.0;" x1="26.5" x2="86.5" y1="72.8745" y2="72.8745"/><text fill="#000000" font-family="sans-serif" font-size="13" lengthAdjust="spacing" textLength="47" x="33.5" y="68.0181">DoWork</text><line style="stroke:#181818;stroke-width:1.0;" x1="102.5" x2="149.5" y1="99.6289" y2="99.6289"/><line style="stroke:#181818;stroke-width:1.0;" x1="149.5" x2="149.5" y1="99.6289" y2="112.6289"/><line style="stroke:#181818;stroke-width:1.0;" x1="108.5" x2="149.5" y1="112.6289" y2="112.6289"/><polygon fill="#181818" points="118.5,108.6289,108.5,112.6289,118.5,116.6289,114.5,112.6289" style="stroke:#181818;stroke-width:1.0;"/><text fill="#000000" font-family="sans-serif" font-size="13" lengthAdjust="spacing" textLength="66" x="114.5" y="94.7725">Internal call</text><polygon fill="#181818" points="238.5,145.3833,248.5,149.3833,238.5,153.3833,242.5,149.3833" style="stroke:#181818;stroke-width:1.0;"/><line style="stroke:#181818;stroke-width:1.0;" x1="107.5" x2="244.5" y1="149.3833" y2="149.3833"/><text fill="#000000" font-family="sans-serif" font-size="13" lengthAdjust="spacing" textLength="124" x="114.5" y="144.5269">&lt;&lt; createRequest &gt;&gt;</text><polygon fill="#181818" points="113.5,177.1377,103.5,181.1377,113.5,185.1377,109.5,181.1377" style="stroke:#181818;stroke-width:1.0;"/><line style="stroke:#181818;stroke-width:1.0;stroke-dasharray:2.0,2.0;" x1="107.5" x2="254.5" y1="181.1377" y2="181.1377"/><text fill="#000000" font-family="sans-serif" font-size="13" lengthAdjust="spacing" textLength="93" x="119.5" y="176.2813">RequestCreated</text><polygon fill="#181818" points="37.5,208.8921,27.5,212.8921,37.5,216.8921,33.5,212.8921" style="stroke:#181818;stroke-width:1.0;"/><line style="stroke:#181818;stroke-width:1.0;" x1="31.5" x2="96.5" y1="212.8921" y2="212.8921"/><text fill="#000000" font-family="sans-serif" font-size="13" lengthAdjust="spacing" textLength="30" x="43.5" y="208.0356">Done</text><!--MD5=[e5f10ed1a05ae2d5726b6db3c3642dca]
@startuml
participant User

User -> A: DoWork
activate A #FFBBBB

A -> A: Internal call
activate A #DarkSalmon

A -> B: << createRequest >>
activate B

B - -> A: RequestCreated
deactivate B
deactivate A
A -> User: Done
deactivate A

@enduml

PlantUML version 1.2022.4(Sat Apr 09 21:29:17 CST 2022)
(GPL source distribution)
Java Runtime: Java(TM) SE Runtime Environment
JVM: Java HotSpot(TM) 64-Bit Server VM
Default Encoding: GBK
Language: zh
Country: CN
--></g></svg>