<?xml version="1.0" encoding="UTF-8" standalone="no"?><svg xmlns="http://www.w3.org/2000/svg" xmlns:xlink="http://www.w3.org/1999/xlink" contentStyleType="text/css" height="246px" preserveAspectRatio="none" style="width:326px;height:246px;background:#FFFFFF;" version="1.1" viewBox="0 0 326 246" width="326px" zoomAndPan="magnify"><defs/><g><line style="stroke:#181818;stroke-width:0.5;stroke-dasharray:5.0,5.0;" x1="131" x2="131" y1="39.1201" y2="207.8921"/><line style="stroke:#181818;stroke-width:0.5;stroke-dasharray:5.0,5.0;" x1="182" x2="182" y1="39.1201" y2="207.8921"/><rect fill="#E2E2F0" height="33.1201" rx="2.5" ry="2.5" style="stroke:#181818;stroke-width:0.5;" width="44" x="109" y="5"/><text fill="#000000" font-family="sans-serif" font-size="14" lengthAdjust="spacing" textLength="30" x="116" y="28.0439">Alice</text><rect fill="#E2E2F0" height="33.1201" rx="2.5" ry="2.5" style="stroke:#181818;stroke-width:0.5;" width="44" x="109" y="206.8921"/><text fill="#000000" font-family="sans-serif" font-size="14" lengthAdjust="spacing" textLength="30" x="116" y="229.936">Alice</text><rect fill="#E2E2F0" height="33.1201" rx="2.5" ry="2.5" style="stroke:#181818;stroke-width:0.5;" width="39" x="163" y="5"/><text fill="#000000" font-family="sans-serif" font-size="14" lengthAdjust="spacing" textLength="25" x="170" y="28.0439">Bob</text><rect fill="#E2E2F0" height="33.1201" rx="2.5" ry="2.5" style="stroke:#181818;stroke-width:0.5;" width="39" x="163" y="206.8921"/><text fill="#000000" font-family="sans-serif" font-size="14" lengthAdjust="spacing" textLength="25" x="170" y="229.936">Bob</text><polygon fill="#181818" points="170.5,71.8745,180.5,75.8745,170.5,79.8745,174.5,75.8745" style="stroke:#181818;stroke-width:1.0;"/><line style="stroke:#181818;stroke-width:1.0;" x1="131" x2="176.5" y1="75.8745" y2="75.8745"/><text fill="#000000" font-family="sans-serif" font-size="13" lengthAdjust="spacing" textLength="27" x="138" y="71.0181">hello</text><path d="M5,54.1201 L5,81.1201 L126,81.1201 L126,64.1201 L116,54.1201 L5,54.1201 " fill="#FEFFDD" style="stroke:#181818;stroke-width:0.5;"/><path d="M116,54.1201 L116,64.1201 L126,64.1201 L116,54.1201 " fill="#FEFFDD" style="stroke:#181818;stroke-width:0.5;"/><text fill="#000000" font-family="sans-serif" font-size="13" lengthAdjust="spacing" textLength="100" x="11" y="74.0181">this is a first note</text><polygon fill="#181818" points="142,109.6289,132,113.6289,142,117.6289,138,113.6289" style="stroke:#181818;stroke-width:1.0;"/><line style="stroke:#181818;stroke-width:1.0;" x1="136" x2="181.5" y1="113.6289" y2="113.6289"/><text fill="#000000" font-family="sans-serif" font-size="13" lengthAdjust="spacing" textLength="14" x="148" y="108.7725">ok</text><path d="M187,91.8745 L187,118.8745 L319,118.8745 L319,101.8745 L309,91.8745 L187,91.8745 " fill="#FEFFDD" style="stroke:#181818;stroke-width:0.5;"/><path d="M309,91.8745 L309,101.8745 L319,101.8745 L309,91.8745 " fill="#FEFFDD" style="stroke:#181818;stroke-width:0.5;"/><text fill="#000000" font-family="sans-serif" font-size="13" lengthAdjust="spacing" textLength="111" x="193" y="111.7725">this is another note</text><line style="stroke:#181818;stroke-width:1.0;" x1="182.5" x2="224.5" y1="162.6377" y2="162.6377"/><line style="stroke:#181818;stroke-width:1.0;" x1="224.5" x2="224.5" y1="162.6377" y2="175.6377"/><line style="stroke:#181818;stroke-width:1.0;" x1="183.5" x2="224.5" y1="175.6377" y2="175.6377"/><polygon fill="#181818" points="193.5,171.6377,183.5,175.6377,193.5,179.6377,189.5,175.6377" style="stroke:#181818;stroke-width:1.0;"/><text fill="#000000" font-family="sans-serif" font-size="13" lengthAdjust="spacing" textLength="74" x="189.5" y="157.7813">I am thinking</text><path d="M44,129.6289 L44,192.6289 L177,192.6289 L177,139.6289 L167,129.6289 L44,129.6289 " fill="#FEFFDD" style="stroke:#181818;stroke-width:0.5;"/><path d="M167,129.6289 L167,139.6289 L177,139.6289 L167,129.6289 " fill="#FEFFDD" style="stroke:#181818;stroke-width:0.5;"/><text fill="#000000" font-family="sans-serif" font-size="13" lengthAdjust="spacing" textLength="36" x="50" y="149.5269">a note</text><text fill="#000000" font-family="sans-serif" font-size="13" lengthAdjust="spacing" textLength="112" x="50" y="167.2813">can also be defined</text><text fill="#000000" font-family="sans-serif" font-size="13" lengthAdjust="spacing" textLength="89" x="50" y="185.0356">on several lines</text><!--MD5=[b5661ec1db4434603428bb05b318d50b]
@startuml
Alice->Bob : hello
note left: this is a first note

Bob->Alice : ok
note right: this is another note

Bob->Bob : I am thinking
note left
	a note
	can also be defined
	on several lines
end note
@enduml

PlantUML version 1.2022.4(Sat Apr 09 21:29:17 CST 2022)
(GPL source distribution)
Java Runtime: Java(TM) SE Runtime Environment
JVM: Java HotSpot(TM) 64-Bit Server VM
Default Encoding: GBK
Language: zh
Country: CN
--></g></svg>