<?xml version="1.0" encoding="UTF-8" standalone="no"?><svg xmlns="http://www.w3.org/2000/svg" xmlns:xlink="http://www.w3.org/1999/xlink" contentStyleType="text/css" height="334px" preserveAspectRatio="none" style="width:154px;height:334px;background:#FFFFFF;" version="1.1" viewBox="0 0 154 334" width="154px" zoomAndPan="magnify"><defs/><g><line style="stroke:#181818;stroke-width:0.5;stroke-dasharray:5.0,5.0;" x1="27" x2="27" y1="84.1201" y2="250.5493"/><line style="stroke:#181818;stroke-width:0.5;stroke-dasharray:5.0,5.0;" x1="77.5" x2="77.5" y1="84.1201" y2="250.5493"/><rect fill="#E2E2F0" height="33.1201" rx="2.5" ry="2.5" style="stroke:#181818;stroke-width:0.5;" width="44" x="5" y="50"/><text fill="#000000" font-family="sans-serif" font-size="14" lengthAdjust="spacing" textLength="30" x="12" y="73.0439">Alice</text><rect fill="#E2E2F0" height="33.1201" rx="2.5" ry="2.5" style="stroke:#181818;stroke-width:0.5;" width="44" x="5" y="249.5493"/><text fill="#000000" font-family="sans-serif" font-size="14" lengthAdjust="spacing" textLength="30" x="12" y="272.5933">Alice</text><text fill="#000000" font-family="sans-serif" font-size="14" lengthAdjust="spacing" textLength="25" x="62.5" y="81.0439">Bob</text><ellipse cx="78" cy="13.5" fill="#E2E2F0" rx="8" ry="8" style="stroke:#181818;stroke-width:0.5;"/><path d="M78,21.5 L78,48.5 M65,29.5 L91,29.5 M78,48.5 L65,63.5 M78,48.5 L91,63.5 " fill="none" style="stroke:#181818;stroke-width:0.5;"/><text fill="#000000" font-family="sans-serif" font-size="14" lengthAdjust="spacing" textLength="25" x="62.5" y="265.5933">Bob</text><ellipse cx="78" cy="277.1694" fill="#E2E2F0" rx="8" ry="8" style="stroke:#181818;stroke-width:0.5;"/><path d="M78,285.1694 L78,312.1694 M65,293.1694 L91,293.1694 M78,312.1694 L65,327.1694 M78,312.1694 L91,327.1694 " fill="none" style="stroke:#181818;stroke-width:0.5;"/><rect height="44.1431" style="stroke:#000000;stroke-width:1.5;fill:none;" width="94.5" x="2" y="94.1201"/><path d="M2,94.1201 L64,94.1201 L64,103.1201 L54,113.1201 L2,113.1201 L2,94.1201 " fill="#EEEEEE" style="stroke:#000000;stroke-width:2.0;"/><text fill="#000000" font-family="sans-serif" font-size="13" font-weight="bold" lengthAdjust="spacing" textLength="17" x="15" y="111.0181">ref</text><text fill="#000000" font-family="sans-serif" font-size="12" lengthAdjust="spacing" textLength="16" x="41.25" y="130.8721">init</text><polygon fill="#181818" points="66,163.0176,76,167.0176,66,171.0176,70,167.0176" style="stroke:#181818;stroke-width:1.0;"/><line style="stroke:#181818;stroke-width:1.0;" x1="27" x2="72" y1="167.0176" y2="167.0176"/><text fill="#000000" font-family="sans-serif" font-size="13" lengthAdjust="spacing" textLength="27" x="34" y="162.1611">hello</text><rect height="60.5317" style="stroke:#000000;stroke-width:1.5;fill:none;" width="89" x="59.5" y="175.0176"/><path d="M59.5,175.0176 L121.5,175.0176 L121.5,184.0176 L111.5,194.0176 L59.5,194.0176 L59.5,175.0176 " fill="#EEEEEE" style="stroke:#000000;stroke-width:2.0;"/><text fill="#000000" font-family="sans-serif" font-size="13" font-weight="bold" lengthAdjust="spacing" textLength="17" x="72.5" y="191.9155">ref</text><text fill="#000000" font-family="sans-serif" font-size="12" lengthAdjust="spacing" textLength="81" x="63.5" y="211.7695">This can be on</text><text fill="#000000" font-family="sans-serif" font-size="12" lengthAdjust="spacing" textLength="70" x="69" y="228.1582">several lines</text><!--MD5=[fb90b6ae17b61e7719c7f517216e896d]
@startuml
participant Alice
actor Bob

ref over Alice, Bob : init

Alice -> Bob : hello

ref over Bob
  This can be on
  several lines
end ref
@enduml

PlantUML version 1.2022.4(Sat Apr 09 21:29:17 CST 2022)
(GPL source distribution)
Java Runtime: Java(TM) SE Runtime Environment
JVM: Java HotSpot(TM) 64-Bit Server VM
Default Encoding: GBK
Language: zh
Country: CN
--></g></svg>