<?xml version="1.0" encoding="UTF-8" standalone="no"?><svg xmlns="http://www.w3.org/2000/svg" xmlns:xlink="http://www.w3.org/1999/xlink" contentStyleType="text/css" height="413px" preserveAspectRatio="none" style="width:341px;height:413px;background:#FFFFFF;" version="1.1" viewBox="0 0 341 413" width="341px" zoomAndPan="magnify"><defs/><g><rect fill="#FFFFFF" height="194.2808" style="stroke:#181818;stroke-width:1.0;" width="10" x="88.5" y="117.8745"/><rect fill="#FFFFFF" height="113.0176" style="stroke:#181818;stroke-width:1.0;" width="10" x="189.5" y="167.3833"/><rect fill="#FFFFFF" height="31.7544" style="stroke:#181818;stroke-width:1.0;" width="10" x="290" y="199.1377"/><line style="stroke:#181818;stroke-width:0.5;stroke-dasharray:5.0,5.0;" x1="22" x2="22" y1="84.1201" y2="330.1553"/><line style="stroke:#181818;stroke-width:0.5;stroke-dasharray:5.0,5.0;" x1="93" x2="93" y1="84.1201" y2="330.1553"/><line style="stroke:#181818;stroke-width:0.5;stroke-dasharray:5.0,5.0;" x1="194" x2="194" y1="84.1201" y2="330.1553"/><line style="stroke:#181818;stroke-width:0.5;stroke-dasharray:5.0,5.0;" x1="295" x2="295" y1="84.1201" y2="330.1553"/><text fill="#000000" font-family="sans-serif" font-size="14" lengthAdjust="spacing" text-decoration="underline" textLength="29" x="5" y="81.0439">User</text><ellipse cx="22.5" cy="13.5" fill="#E2E2F0" rx="8" ry="8" style="stroke:#181818;stroke-width:0.5;"/><path d="M22.5,21.5 L22.5,48.5 M9.5,29.5 L35.5,29.5 M22.5,48.5 L9.5,63.5 M22.5,48.5 L35.5,63.5 " fill="none" style="stroke:#181818;stroke-width:0.5;"/><text fill="#000000" font-family="sans-serif" font-size="14" lengthAdjust="spacing" text-decoration="underline" textLength="29" x="5" y="345.1992">User</text><ellipse cx="22.5" cy="356.7754" fill="#E2E2F0" rx="8" ry="8" style="stroke:#181818;stroke-width:0.5;"/><path d="M22.5,364.7754 L22.5,391.7754 M9.5,372.7754 L35.5,372.7754 M22.5,391.7754 L9.5,406.7754 M22.5,391.7754 L35.5,406.7754 " fill="none" style="stroke:#181818;stroke-width:0.5;"/><rect fill="#E2E2F0" height="33.1201" rx="10" ry="10" style="stroke:#181818;stroke-width:0.5;" width="81" x="53" y="50"/><text fill="#000000" font-family="sans-serif" font-size="14" lengthAdjust="spacing" text-decoration="underline" textLength="67" x="60" y="73.0439">First Class</text><rect fill="#E2E2F0" height="33.1201" rx="10" ry="10" style="stroke:#181818;stroke-width:0.5;" width="81" x="53" y="329.1553"/><text fill="#000000" font-family="sans-serif" font-size="14" lengthAdjust="spacing" text-decoration="underline" textLength="67" x="60" y="352.1992">First Class</text><rect fill="#E2E2F0" height="33.1201" rx="10" ry="10" style="stroke:#181818;stroke-width:0.5;" width="101" x="144" y="50"/><text fill="#000000" font-family="sans-serif" font-size="14" lengthAdjust="spacing" text-decoration="underline" textLength="87" x="151" y="73.0439">Second Class</text><rect fill="#E2E2F0" height="33.1201" rx="10" ry="10" style="stroke:#181818;stroke-width:0.5;" width="101" x="144" y="329.1553"/><text fill="#000000" font-family="sans-serif" font-size="14" lengthAdjust="spacing" text-decoration="underline" textLength="87" x="151" y="352.1992">Second Class</text><rect fill="#E2E2F0" height="33.1201" rx="10" ry="10" style="stroke:#181818;stroke-width:0.5;" width="80" x="255" y="50"/><text fill="#000000" font-family="sans-serif" font-size="14" lengthAdjust="spacing" text-decoration="underline" textLength="66" x="262" y="73.0439">Last Class</text><rect fill="#E2E2F0" height="33.1201" rx="10" ry="10" style="stroke:#181818;stroke-width:0.5;" width="80" x="255" y="329.1553"/><text fill="#000000" font-family="sans-serif" font-size="14" lengthAdjust="spacing" text-decoration="underline" textLength="66" x="262" y="352.1992">Last Class</text><rect fill="#FFFFFF" height="194.2808" style="stroke:#181818;stroke-width:1.0;" width="10" x="88.5" y="117.8745"/><rect fill="#FFFFFF" height="113.0176" style="stroke:#181818;stroke-width:1.0;" width="10" x="189.5" y="167.3833"/><rect fill="#FFFFFF" height="31.7544" style="stroke:#181818;stroke-width:1.0;" width="10" x="290" y="199.1377"/><polygon fill="#181818" points="76.5,113.8745,86.5,117.8745,76.5,121.8745,80.5,117.8745" style="stroke:#181818;stroke-width:1.0;"/><line style="stroke:#181818;stroke-width:2.0;" x1="22.5" x2="82.5" y1="117.8745" y2="117.8745"/><text fill="#000000" font-family="sans-serif" font-size="13" lengthAdjust="spacing" textLength="47" x="29.5" y="113.0181">DoWork</text><polygon fill="#181818" points="177.5,163.3833,187.5,167.3833,177.5,171.3833,181.5,167.3833" style="stroke:#181818;stroke-width:1.0;"/><line style="stroke:#181818;stroke-width:2.0;" x1="98.5" x2="183.5" y1="167.3833" y2="167.3833"/><text fill="#000000" font-family="sans-serif" font-size="13" lengthAdjust="spacing" textLength="38" x="105.5" y="144.7725">Create</text><text fill="#000000" font-family="sans-serif" font-size="13" lengthAdjust="spacing" textLength="48" x="105.5" y="162.5269">Request</text><polygon fill="#181818" points="278,195.1377,288,199.1377,278,203.1377,282,199.1377" style="stroke:#181818;stroke-width:1.0;"/><line style="stroke:#181818;stroke-width:2.0;" x1="199.5" x2="284" y1="199.1377" y2="199.1377"/><text fill="#000000" font-family="sans-serif" font-size="13" lengthAdjust="spacing" textLength="47" x="206.5" y="194.2813">DoWork</text><polygon fill="#181818" points="210.5,226.8921,200.5,230.8921,210.5,234.8921,206.5,230.8921" style="stroke:#181818;stroke-width:1.0;"/><line style="stroke:#181818;stroke-width:2.0;stroke-dasharray:2.0,2.0;" x1="204.5" x2="294" y1="230.8921" y2="230.8921"/><text fill="#000000" font-family="sans-serif" font-size="13" lengthAdjust="spacing" textLength="61" x="216.5" y="226.0356">WorkDone</text><line style="stroke:#A80036;stroke-width:2.0;" x1="286" x2="304" y1="221.8921" y2="239.8921"/><line style="stroke:#A80036;stroke-width:2.0;" x1="286" x2="304" y1="239.8921" y2="221.8921"/><polygon fill="#181818" points="109.5,276.4009,99.5,280.4009,109.5,284.4009,105.5,280.4009" style="stroke:#181818;stroke-width:1.0;"/><line style="stroke:#181818;stroke-width:2.0;stroke-dasharray:2.0,2.0;" x1="103.5" x2="193.5" y1="280.4009" y2="280.4009"/><text fill="#000000" font-family="sans-serif" font-size="13" lengthAdjust="spacing" textLength="48" x="115.5" y="257.79">Request</text><text fill="#000000" font-family="sans-serif" font-size="13" lengthAdjust="spacing" textLength="45" x="115.5" y="275.5444">Created</text><polygon fill="#181818" points="33.5,308.1553,23.5,312.1553,33.5,316.1553,29.5,312.1553" style="stroke:#181818;stroke-width:1.0;"/><line style="stroke:#181818;stroke-width:2.0;stroke-dasharray:2.0,2.0;" x1="27.5" x2="92.5" y1="312.1553" y2="312.1553"/><text fill="#000000" font-family="sans-serif" font-size="13" lengthAdjust="spacing" textLength="30" x="39.5" y="307.2988">Done</text><!--MD5=[a2c374d972b88730b8a5ecf137e5435b]
@startuml
skinparam sequenceArrowThickness 2
skinparam roundcorner 20
skinparam maxmessagesize 60
skinparam sequenceParticipant underline

actor User
participant "First Class" as A
participant "Second Class" as B
participant "Last Class" as C

User -> A: DoWork
activate A

A -> B: Create Request
activate B

B -> C: DoWork
activate C
C - -> B: WorkDone
destroy C

B - -> A: Request Created
deactivate B

A - -> User: Done
deactivate A

@enduml

PlantUML version 1.2022.4(Sat Apr 09 21:29:17 CST 2022)
(GPL source distribution)
Java Runtime: Java(TM) SE Runtime Environment
JVM: Java HotSpot(TM) 64-Bit Server VM
Default Encoding: GBK
Language: zh
Country: CN
--></g></svg>