<?xml version="1.0" encoding="UTF-8" standalone="no"?><svg xmlns="http://www.w3.org/2000/svg" xmlns:xlink="http://www.w3.org/1999/xlink" contentStyleType="text/css" height="386px" preserveAspectRatio="none" style="width:384px;height:386px;background:#EEEBDC;" version="1.1" viewBox="0 0 384 386" width="384px" zoomAndPan="magnify"><defs/><g><polygon fill="#A9DCDF" points="93.5,121.9717,93.5,122.0417,95.5,121.8336,97.5,122.0361,99.5,122.1049,101.5,121.7339,103.5,121.9717,103.4223,121.9717,103.0735,131.8949,103.1165,141.8182,103.4318,151.7414,102.8086,161.6647,104.0536,171.5879,102.8697,181.5112,103.3022,191.4344,103.9319,201.3577,103.4142,211.2809,103.5682,221.2042,103.4681,231.1274,103.6785,241.0507,103.7391,250.9739,104.0857,260.8972,104.1711,270.8204,103.5,280.7437,103.5,280.9701,101.5,280.8285,99.5,280.8982,97.5,280.9777,95.5,280.5033,93.5,280.7437,94.1785,280.7437,93.2035,270.8204,94.0338,260.8972,93.005,250.9739,93.4315,241.0507,94.2416,231.1274,93.4513,221.2042,93.6053,211.2809,93.8386,201.3577,93.9162,191.4344,93.4961,181.5112,93.7872,171.5879,92.9276,161.6647,93.7844,151.7414,94.0482,141.8182,93.9445,131.8949,93.5,121.9717" style="stroke:#0000FF;stroke-width:1.0;"/><polygon fill="#A9DCDF" points="224.5,153.7261,224.5,153.7961,226.5,153.588,228.5,153.7905,230.5,153.8593,232.5,153.4883,234.5,153.7261,234.4223,153.7261,234.0735,163.2524,234.1165,172.7787,234.4318,182.305,233.8086,191.8313,235.0536,201.3577,233.8697,210.884,234.3022,220.4103,234.9319,229.9366,234.4142,239.4629,234.5,248.9893,234.5,249.012,232.5,248.9786,230.5,249.0488,228.5,249.069,226.5,249.1845,224.5,248.9893,225.1711,248.9893,225.1793,239.4629,224.7546,229.9366,224.9636,220.4103,225.2022,210.884,223.7788,201.3577,225.1785,191.8313,224.2035,182.305,225.0338,172.7787,224.005,163.2524,224.5,153.7261" style="stroke:#0000FF;stroke-width:1.0;"/><polygon fill="#A9DCDF" points="331,185.4805,331,185.5505,333,185.3424,335,185.5449,337,185.6137,339,185.2427,341,185.4805,340.9741,185.4805,340.8578,191.8313,340.8722,198.1822,340.9773,204.5331,340.7695,210.884,341,217.2349,341,217.4194,339,217.0248,337,217.1689,335,217.3788,333,217.2063,331,217.2349,331.0227,217.2349,330.9894,210.884,331.0595,204.5331,331.0797,198.1822,331.1952,191.8313,331,185.4805" style="stroke:#0000FF;stroke-width:1.0;"/><path d="M25,88.2173 L25.2802,88.2173 L24.4476,98.2424 L25.2577,108.2674 L25.5329,118.2925 L24.0488,128.3175 L24.8964,138.3426 L24.4313,148.3677 L24.4887,158.3927 L24.9091,168.4178 L24.0782,178.4429 L25.7382,188.4679 L24.1596,198.493 L24.7363,208.5181 L25.5759,218.5431 L24.8856,228.5682 L25.091,238.5933 L24.9574,248.6183 L25.238,258.6434 L25.3188,268.6685 L25.7809,278.6935 L25.8947,288.7186 L25,298.7437 " fill="none" style="stroke:#0000FF;stroke-width:0.5;stroke-dasharray:5.0,5.0;"/><path d="M98,88.2173 L98.2802,88.2173 L97.4476,98.2424 L98.2577,108.2674 L98.5329,118.2925 L97.0488,128.3175 L97.8964,138.3426 L97.4313,148.3677 L97.4887,158.3927 L97.9091,168.4178 L97.0782,178.4429 L98.7382,188.4679 L97.1596,198.493 L97.7363,208.5181 L98.5759,218.5431 L97.8856,228.5682 L98.091,238.5933 L97.9574,248.6183 L98.238,258.6434 L98.3188,268.6685 L98.7809,278.6935 L98.8947,288.7186 L98,298.7437 " fill="none" style="stroke:#0000FF;stroke-width:0.5;stroke-dasharray:5.0,5.0;"/><path d="M229,88.2173 L229.2802,88.2173 L228.4476,98.2424 L229.2577,108.2674 L229.5329,118.2925 L228.0488,128.3175 L228.8964,138.3426 L228.4313,148.3677 L228.4887,158.3927 L228.9091,168.4178 L228.0782,178.4429 L229.7382,188.4679 L228.1596,198.493 L228.7363,208.5181 L229.5759,218.5431 L228.8856,228.5682 L229.091,238.5933 L228.9574,248.6183 L229.238,258.6434 L229.3188,268.6685 L229.7809,278.6935 L229.8947,288.7186 L229,298.7437 " fill="none" style="stroke:#0000FF;stroke-width:0.5;stroke-dasharray:5.0,5.0;"/><path d="M336,88.2173 L336.2802,88.2173 L335.4476,98.2424 L336.2577,108.2674 L336.5329,118.2925 L335.0488,128.3175 L335.8964,138.3426 L335.4313,148.3677 L335.4887,158.3927 L335.9091,168.4178 L335.0782,178.4429 L336.7382,188.4679 L335.1596,198.493 L335.7363,208.5181 L336.5759,218.5431 L335.8856,228.5682 L336.091,238.5933 L335.9574,248.6183 L336.238,258.6434 L336.3188,268.6685 L336.7809,278.6935 L336.8947,288.7186 L336,298.7437 " fill="none" style="stroke:#0000FF;stroke-width:0.5;stroke-dasharray:5.0,5.0;"/><text fill="#00BFFF" font-family="Aapex" font-size="17" lengthAdjust="spacing" textLength="34" x="5" y="84.4819">User</text><polygon fill="#00FFFF" points="33.0442,15.4459,31.8715,17.0482,30.4845,19.3951,28.5008,20.9767,26.4163,21.8415,24.7542,21.9166,22.618,20.8349,20.6023,20.1283,19.0724,18.6936,18.2699,17.0511,17.7939,15.7433,17.3277,14.0351,16.5709,12.5651,17.1525,11.1298,17.662,9.5576,19.574,8.3142,20.9192,6.7008,22.5843,6.165,24.5637,5.7037,27.1021,5.9778,28.4924,6.6335,30.1089,6.9307,32.0743,8.9443,32.7595,11.0701,33.0571,12.5206,32.72,14.9108" style="stroke:#00BFFF;stroke-width:0.5;"/><path d="M25,21.5 L25.1868,21.5 L24.6317,26.9 L25.1718,32.3 L25.3553,37.7 L24.3659,43.1 L25,48.5 M12,29.5 L12,29.4309 L17.2,29.1209 L22.4,29.1591 L27.6,29.4394 L32.8,28.8854 L38,29.5 M25,48.5 L25.3719,48.8223 L21.9766,51.1331 L19.6672,54.3849 L17.4901,57.7515 L14.5424,60.4501 L12,63.5 M25,48.5 L25.0458,48.5397 L27.5785,51.4814 L30.3199,54.6039 L32.9606,57.6392 L35.7934,60.841 L38,63.5 " fill="none" style="stroke:#00BFFF;stroke-width:0.5;"/><text fill="#00BFFF" font-family="Aapex" font-size="17" lengthAdjust="spacing" textLength="34" x="5" y="317.2256">User</text><polygon fill="#00FFFF" points="33.0442,331.4069,31.8715,333.0092,30.4845,335.356,28.5008,336.9376,26.4163,337.8025,24.7542,337.8775,22.618,336.7959,20.6023,336.0892,19.0724,334.6545,18.2699,333.012,17.7939,331.7042,17.3277,329.996,16.5709,328.526,17.1525,327.0908,17.662,325.5186,19.574,324.2751,20.9192,322.6617,22.5843,322.126,24.5637,321.6646,27.1021,321.9387,28.4924,322.5944,30.1089,322.8916,32.0743,324.9053,32.7595,327.0311,33.0571,328.4816,32.72,330.8718" style="stroke:#00BFFF;stroke-width:0.5;"/><path d="M25,337.4609 L25.1868,337.4609 L24.6317,342.8609 L25.1718,348.2609 L25.3553,353.6609 L24.3659,359.0609 L25,364.4609 M12,345.4609 L12,345.3919 L17.2,345.0818 L22.4,345.12 L27.6,345.4004 L32.8,344.8464 L38,345.4609 M25,364.4609 L25.3719,364.7832 L21.9766,367.094 L19.6672,370.3458 L17.4901,373.7124 L14.5424,376.411 L12,379.4609 M25,364.4609 L25.0458,364.5007 L27.5785,367.4423 L30.3199,370.5649 L32.9606,373.6002 L35.7934,376.8019 L38,379.4609 " fill="none" style="stroke:#00BFFF;stroke-width:0.5;"/><polygon fill="#1E90FF" points="57.5,52.4819,57.5,52.6921,67.75,52.0676,78,52.6752,88.25,52.8816,98.5,51.7685,108.75,52.4042,119,52.0554,129.25,52.0984,139.5,52.4819,139.4913,52.4609,139.7654,52.4155,140.2777,52.9453,140.4803,52.7272,140.889,53.0068,141.2678,53.2142,141.4008,53.2693,141.3878,53.5568,141.5817,53.93,141.6973,54.2708,141.9085,54.6512,142,54.9819,142.0797,54.9819,142.1952,60.929,142.2237,66.8761,142.2264,72.8231,142.0849,78.7702,142,84.7173,142.1428,84.7764,142.0698,85.1604,141.485,85.3324,141.7696,85.8645,141.3229,86.0937,141.2678,86.4851,141.3359,86.6494,140.8511,86.4791,140.5519,86.7569,140.3017,87.1528,139.8473,87.0558,139.5,87.2173,139.5,87.3226,129.25,87.5559,119,87.6335,108.75,87.2134,98.5,87.5045,88.25,86.6449,78,87.5017,67.75,87.7655,57.5,87.2173,57.5567,87.3542,57.2246,87.2596,56.7313,86.7756,56.3561,86.5771,56.0065,86.4401,55.7322,86.4851,55.7141,86.4775,55.5253,86.1064,55.6492,85.8649,55.2391,85.4021,55.0408,85.0271,55,84.7173,55.0761,84.7173,54.7777,78.7702,54.827,72.8231,55.2163,66.8761,55.1452,60.929,55,54.9819,55.2262,55.0756,55.0473,54.5873,55.3912,54.3155,55.6212,53.9966,55.4403,53.5075,55.7322,53.2142,55.72,53.1846,56.1019,53.1065,56.5225,53.122,56.7924,52.7735,57.2055,52.7708,57.5,52.4819" style="stroke:#00BFFF;stroke-width:0.5;"/><text fill="#A9DCDF" font-family="Impact" font-size="17" lengthAdjust="spacing" textLength="73" x="62" y="76.6313">First Class</text><polygon fill="#1E90FF" points="57.5,297.7437,57.5,297.9538,67.75,297.3293,78,297.9369,88.25,298.1433,98.5,297.0303,108.75,297.6659,119,297.3172,129.25,297.3602,139.5,297.7437,139.4913,297.7227,139.7654,297.6772,140.2777,298.207,140.4803,297.9889,140.889,298.2685,141.2678,298.4759,141.4008,298.531,141.3878,298.8185,141.5817,299.1917,141.6973,299.5325,141.9085,299.9129,142,300.2437,142.0797,300.2437,142.1952,306.1907,142.2237,312.1378,142.2264,318.0849,142.0849,324.0319,142,329.979,142.1428,330.0381,142.0698,330.4221,141.485,330.5941,141.7696,331.1262,141.3229,331.3554,141.2678,331.7468,141.3359,331.9112,140.8511,331.7408,140.5519,332.0186,140.3017,332.4145,139.8473,332.3175,139.5,332.479,139.5,332.5843,129.25,332.8176,119,332.8952,108.75,332.4751,98.5,332.7662,88.25,331.9066,78,332.7634,67.75,333.0272,57.5,332.479,57.5567,332.6159,57.2246,332.5213,56.7313,332.0373,56.3561,331.8388,56.0065,331.7019,55.7322,331.7468,55.7141,331.7393,55.5253,331.3681,55.6492,331.1266,55.2391,330.6638,55.0408,330.2888,55,329.979,55.0761,329.979,54.7777,324.0319,54.827,318.0849,55.2163,312.1378,55.1452,306.1907,55,300.2437,55.2262,300.3373,55.0473,299.8491,55.3912,299.5773,55.6212,299.2583,55.4403,298.7692,55.7322,298.4759,55.72,298.4464,56.1019,298.3682,56.5225,298.3837,56.7924,298.0353,57.2055,298.0326,57.5,297.7437" style="stroke:#00BFFF;stroke-width:0.5;"/><text fill="#A9DCDF" font-family="Impact" font-size="17" lengthAdjust="spacing" textLength="73" x="62" y="321.8931">First Class</text><polygon fill="#1E90FF" points="177.5,52.4819,177.5,52.6921,187.9,52.0676,198.3,52.6752,208.7,52.8816,219.1,51.7685,229.5,52.4042,239.9,52.0554,250.3,52.0984,260.7,52.4138,271.1,51.7906,281.5,52.4819,281.5706,52.6524,281.7732,52.4343,282.1819,52.7139,282.6158,53.0543,282.9033,53.0413,283.2678,53.2142,283.2888,53.2229,283.4044,53.5636,283.6156,53.944,283.7808,54.3053,284.0339,54.7031,284,54.9819,284.2237,54.9819,284.2264,60.929,284.0849,66.8761,284.1545,72.8231,284.2341,78.7702,284,84.7173,283.7779,84.6253,284.0625,85.1574,283.6158,85.3866,283.7251,85.846,283.2618,86.0684,283.2678,86.4851,283.259,86.464,283.0088,86.8599,282.5544,86.7629,282.2205,86.9568,281.8967,87.1751,281.5,87.2173,281.5,87.6335,271.1,87.2134,260.7,87.5045,250.3,86.6449,239.9,87.5017,229.5,87.7655,219.1,87.6618,208.7,87.8303,198.3,86.7342,187.9,86.5651,177.5,87.2173,177.4207,87.0259,177.1389,87.0527,176.7678,86.8639,176.5263,86.9878,176.0635,86.5777,175.7322,86.4851,175.6266,86.4413,175.6561,86.1606,175.234,85.6929,175.133,85.3582,175.3463,85.1536,175,84.7173,175.1452,84.7173,175.2448,78.7702,174.8927,72.8231,175.1064,66.8761,175.1968,60.929,175,54.9819,174.8545,54.9217,175.1169,54.6162,175.3317,54.2909,175.6401,54.0044,175.5845,53.5672,175.7322,53.2142,175.7912,53.3566,176.0151,52.8972,176.3529,52.7127,176.8571,52.9299,177.055,52.4076,177.5,52.4819" style="stroke:#00BFFF;stroke-width:0.5;"/><text fill="#A9DCDF" font-family="Impact" font-size="17" lengthAdjust="spacing" textLength="95" x="182" y="76.6313">Second Class</text><polygon fill="#1E90FF" points="177.5,297.7437,177.5,297.9538,187.9,297.3293,198.3,297.9369,208.7,298.1433,219.1,297.0303,229.5,297.6659,239.9,297.3172,250.3,297.3602,260.7,297.6755,271.1,297.0523,281.5,297.7437,281.5706,297.9142,281.7732,297.696,282.1819,297.9756,282.6158,298.316,282.9033,298.303,283.2678,298.4759,283.2888,298.4846,283.4044,298.8254,283.6156,299.2058,283.7808,299.567,284.0339,299.9648,284,300.2437,284.2237,300.2437,284.2264,306.1907,284.0849,312.1378,284.1545,318.0849,284.2341,324.0319,284,329.979,283.7779,329.887,284.0625,330.4191,283.6158,330.6483,283.7251,331.1078,283.2618,331.3301,283.2678,331.7468,283.259,331.7257,283.0088,332.1216,282.5544,332.0247,282.2205,332.2185,281.8967,332.4368,281.5,332.479,281.5,332.8952,271.1,332.4751,260.7,332.7662,250.3,331.9066,239.9,332.7634,229.5,333.0272,219.1,332.9235,208.7,333.092,198.3,331.9959,187.9,331.8268,177.5,332.479,177.4207,332.2876,177.1389,332.3144,176.7678,332.1256,176.5263,332.2495,176.0635,331.8394,175.7322,331.7468,175.6266,331.703,175.6561,331.4223,175.234,330.9546,175.133,330.6199,175.3463,330.4153,175,329.979,175.1452,329.979,175.2448,324.0319,174.8927,318.0849,175.1064,312.1378,175.1968,306.1907,175,300.2437,174.8545,300.1834,175.1169,299.8779,175.3317,299.5526,175.6401,299.2661,175.5845,298.8289,175.7322,298.4759,175.7912,298.6183,176.0151,298.1589,176.3529,297.9744,176.8571,298.1916,177.055,297.6693,177.5,297.7437" style="stroke:#00BFFF;stroke-width:0.5;"/><text fill="#A9DCDF" font-family="Impact" font-size="17" lengthAdjust="spacing" textLength="95" x="182" y="321.8931">Second Class</text><polygon fill="#1E90FF" points="296.5,52.4819,296.5,52.6921,306.375,52.0676,316.25,52.6752,326.125,52.8816,336,51.7685,345.875,52.4042,355.75,52.0554,365.625,52.0984,375.5,52.4819,375.4913,52.4609,375.7654,52.4155,376.2777,52.9453,376.4803,52.7272,376.889,53.0068,377.2678,53.2142,377.4008,53.2693,377.3878,53.5568,377.5817,53.93,377.6973,54.2708,377.9085,54.6512,378,54.9819,378.0797,54.9819,378.1952,60.929,378.2237,66.8761,378.2264,72.8231,378.0849,78.7702,378,84.7173,378.1428,84.7764,378.0698,85.1604,377.485,85.3324,377.7696,85.8645,377.3229,86.0937,377.2678,86.4851,377.3359,86.6494,376.8511,86.4791,376.5519,86.7569,376.3017,87.1528,375.8473,87.0558,375.5,87.2173,375.5,87.3226,365.625,87.5559,355.75,87.6335,345.875,87.2134,336,87.5045,326.125,86.6449,316.25,87.5017,306.375,87.7655,296.5,87.2173,296.5567,87.3542,296.2246,87.2596,295.7313,86.7756,295.3561,86.5771,295.0065,86.4401,294.7322,86.4851,294.7141,86.4775,294.5253,86.1064,294.6492,85.8649,294.2391,85.4021,294.0408,85.0271,294,84.7173,294.0761,84.7173,293.7777,78.7702,293.827,72.8231,294.2163,66.8761,294.1452,60.929,294,54.9819,294.2262,55.0756,294.0473,54.5873,294.3912,54.3155,294.6212,53.9966,294.4403,53.5075,294.7322,53.2142,294.72,53.1846,295.1019,53.1065,295.5225,53.122,295.7924,52.7735,296.2055,52.7708,296.5,52.4819" style="stroke:#00BFFF;stroke-width:0.5;"/><text fill="#A9DCDF" font-family="Impact" font-size="17" lengthAdjust="spacing" textLength="70" x="301" y="76.6313">Last Class</text><polygon fill="#1E90FF" points="296.5,297.7437,296.5,297.9538,306.375,297.3293,316.25,297.9369,326.125,298.1433,336,297.0303,345.875,297.6659,355.75,297.3172,365.625,297.3602,375.5,297.7437,375.4913,297.7227,375.7654,297.6772,376.2777,298.207,376.4803,297.9889,376.889,298.2685,377.2678,298.4759,377.4008,298.531,377.3878,298.8185,377.5817,299.1917,377.6973,299.5325,377.9085,299.9129,378,300.2437,378.0797,300.2437,378.1952,306.1907,378.2237,312.1378,378.2264,318.0849,378.0849,324.0319,378,329.979,378.1428,330.0381,378.0698,330.4221,377.485,330.5941,377.7696,331.1262,377.3229,331.3554,377.2678,331.7468,377.3359,331.9112,376.8511,331.7408,376.5519,332.0186,376.3017,332.4145,375.8473,332.3175,375.5,332.479,375.5,332.5843,365.625,332.8176,355.75,332.8952,345.875,332.4751,336,332.7662,326.125,331.9066,316.25,332.7634,306.375,333.0272,296.5,332.479,296.5567,332.6159,296.2246,332.5213,295.7313,332.0373,295.3561,331.8388,295.0065,331.7019,294.7322,331.7468,294.7141,331.7393,294.5253,331.3681,294.6492,331.1266,294.2391,330.6638,294.0408,330.2888,294,329.979,294.0761,329.979,293.7777,324.0319,293.827,318.0849,294.2163,312.1378,294.1452,306.1907,294,300.2437,294.2262,300.3373,294.0473,299.8491,294.3912,299.5773,294.6212,299.2583,294.4403,298.7692,294.7322,298.4759,294.72,298.4464,295.1019,298.3682,295.5225,298.3837,295.7924,298.0353,296.2055,298.0326,296.5,297.7437" style="stroke:#00BFFF;stroke-width:0.5;"/><text fill="#A9DCDF" font-family="Impact" font-size="17" lengthAdjust="spacing" textLength="70" x="301" y="321.8931">Last Class</text><polygon fill="#A9DCDF" points="93.5,121.9717,93.5,122.0417,95.5,121.8336,97.5,122.0361,99.5,122.1049,101.5,121.7339,103.5,121.9717,103.4223,121.9717,103.0735,131.8949,103.1165,141.8182,103.4318,151.7414,102.8086,161.6647,104.0536,171.5879,102.8697,181.5112,103.3022,191.4344,103.9319,201.3577,103.4142,211.2809,103.5682,221.2042,103.4681,231.1274,103.6785,241.0507,103.7391,250.9739,104.0857,260.8972,104.1711,270.8204,103.5,280.7437,103.5,280.9701,101.5,280.8285,99.5,280.8982,97.5,280.9777,95.5,280.5033,93.5,280.7437,94.1785,280.7437,93.2035,270.8204,94.0338,260.8972,93.005,250.9739,93.4315,241.0507,94.2416,231.1274,93.4513,221.2042,93.6053,211.2809,93.8386,201.3577,93.9162,191.4344,93.4961,181.5112,93.7872,171.5879,92.9276,161.6647,93.7844,151.7414,94.0482,141.8182,93.9445,131.8949,93.5,121.9717" style="stroke:#0000FF;stroke-width:1.0;"/><polygon fill="#A9DCDF" points="224.5,153.7261,224.5,153.7961,226.5,153.588,228.5,153.7905,230.5,153.8593,232.5,153.4883,234.5,153.7261,234.4223,153.7261,234.0735,163.2524,234.1165,172.7787,234.4318,182.305,233.8086,191.8313,235.0536,201.3577,233.8697,210.884,234.3022,220.4103,234.9319,229.9366,234.4142,239.4629,234.5,248.9893,234.5,249.012,232.5,248.9786,230.5,249.0488,228.5,249.069,226.5,249.1845,224.5,248.9893,225.1711,248.9893,225.1793,239.4629,224.7546,229.9366,224.9636,220.4103,225.2022,210.884,223.7788,201.3577,225.1785,191.8313,224.2035,182.305,225.0338,172.7787,224.005,163.2524,224.5,153.7261" style="stroke:#0000FF;stroke-width:1.0;"/><polygon fill="#A9DCDF" points="331,185.4805,331,185.5505,333,185.3424,335,185.5449,337,185.6137,339,185.2427,341,185.4805,340.9741,185.4805,340.8578,191.8313,340.8722,198.1822,340.9773,204.5331,340.7695,210.884,341,217.2349,341,217.4194,339,217.0248,337,217.1689,335,217.3788,333,217.2063,331,217.2349,331.0227,217.2349,330.9894,210.884,331.0595,204.5331,331.0797,198.1822,331.1952,191.8313,331,185.4805" style="stroke:#0000FF;stroke-width:1.0;"/><polygon fill="#00BFFF" points="81.5,117.9717,81.526,118.0367,83.4487,118.6435,85.5239,119.6315,87.5495,120.4954,89.4117,120.9509,91.5,121.9717,91.4904,121.9476,89.4472,122.6397,87.4525,123.453,85.4916,124.3506,83.4144,124.9577,81.5,125.9717,81.6305,126.1022,82.1514,125.0231,83.0534,124.3251,84.0018,123.6735,84.6798,122.7515,85.5,121.9717,85.5161,121.9878,84.6925,121.1641,83.9421,120.4138,83.1564,119.628,82.438,118.9097,81.5,117.9717" style="stroke:#00BFFF;stroke-width:1.0;"/><path d="M25,121.9717 L25,122.2519 L35.4167,121.4193 L45.8333,122.2294 L56.25,122.5046 L66.6667,121.0205 L77.0833,121.8681 L87.5,121.9717 " fill="none" style="stroke:#00BFFF;stroke-width:1.0;"/><text fill="#000000" font-family="sans-serif" font-size="13" lengthAdjust="spacing" textLength="47" x="32" y="117.1152">DoWork</text><polygon fill="#00BFFF" points="212.5,149.7261,212.526,149.7911,214.4487,150.3978,216.5239,151.3859,218.5495,152.2498,220.4117,152.7053,222.5,153.7261,222.4904,153.702,220.4472,154.3941,218.4525,155.2074,216.4916,156.105,214.4144,156.7121,212.5,157.7261,212.6305,157.8566,213.1514,156.7775,214.0534,156.0795,215.0018,155.4279,215.6798,154.5059,216.5,153.7261,216.5161,153.7422,215.6925,152.9185,214.9421,152.1682,214.1564,151.3824,213.438,150.6641,212.5,149.7261" style="stroke:#00BFFF;stroke-width:1.0;"/><path d="M103.5,153.7261 L103.5,154.0063 L113.0833,153.1736 L122.6667,153.9838 L132.25,154.259 L141.8333,152.7749 L151.4167,153.6225 L161,153.1574 L170.5833,153.2147 L180.1667,153.6352 L189.75,152.8042 L199.3333,154.4643 L208.9167,152.8857 L218.5,153.7261 " fill="none" style="stroke:#00BFFF;stroke-width:1.0;"/><text fill="#000000" font-family="sans-serif" font-size="13" lengthAdjust="spacing" textLength="90" x="110.5" y="148.8696">Create Request</text><polygon fill="#00BFFF" points="319,181.4805,319.026,181.5455,320.9487,182.1522,323.0239,183.1403,325.0495,184.0042,326.9117,184.4597,329,185.4805,328.9904,185.4564,326.9472,186.1485,324.9525,186.9618,322.9916,187.8594,320.9144,188.4665,319,189.4805,319.1305,189.611,319.6514,188.5319,320.5534,187.8339,321.5018,187.1823,322.1798,186.2603,323,185.4805,323.0161,185.4966,322.1925,184.6729,321.4421,183.9225,320.6564,183.1368,319.938,182.4185,319,181.4805" style="stroke:#00BFFF;stroke-width:1.0;"/><path d="M234.5,185.4805 L234.5,185.7607 L244.5556,184.928 L254.6111,185.7382 L264.6667,186.0134 L274.7222,184.5293 L284.7778,185.3769 L294.8333,184.9118 L304.8889,184.9691 L314.9444,185.3896 L325,185.4805 " fill="none" style="stroke:#00BFFF;stroke-width:1.0;"/><text fill="#000000" font-family="sans-serif" font-size="13" lengthAdjust="spacing" textLength="47" x="241.5" y="180.624">DoWork</text><polygon fill="#00BFFF" points="245.5,213.2349,245.526,213.2999,243.4487,213.9066,241.5239,214.8947,239.5495,215.7586,237.4117,216.2141,235.5,217.2349,235.4904,217.2108,237.4472,217.9029,239.4525,218.7162,241.4916,219.6138,243.4144,220.2209,245.5,221.2349,245.6305,221.3654,244.5514,220.2863,243.8534,219.5882,243.2018,218.9367,242.2798,218.0146,241.5,217.2349,241.5161,217.2509,242.2925,216.4273,243.1421,215.6769,243.9564,214.8912,244.838,214.1729,245.5,213.2349" style="stroke:#00BFFF;stroke-width:1.0;"/><path d="M239.5,217.2349 L239.5,217.5151 L249.05,216.6824 L258.6,217.4926 L268.15,217.7678 L277.7,216.2837 L287.25,217.1312 L296.8,216.6662 L306.35,216.7235 L315.9,217.144 L325.45,216.313 L335,217.2349 " fill="none" style="stroke:#00BFFF;stroke-width:1.0;stroke-dasharray:2.0,2.0;"/><text fill="#000000" font-family="sans-serif" font-size="13" lengthAdjust="spacing" textLength="61" x="251.5" y="212.3784">WorkDone</text><path d="M327,208.2349 L327.0661,208.3009 L330.4698,211.7047 L334.2607,215.4956 L337.9256,219.1605 L341.1758,222.4107 L345,226.2349 " fill="none" style="stroke:#0000FF;stroke-width:2.0;"/><path d="M327,226.2349 L327.0661,226.3009 L330.4698,222.5047 L334.2607,219.0956 L337.9256,215.5605 L341.1758,211.6107 L345,208.2349 " fill="none" style="stroke:#0000FF;stroke-width:2.0;"/><polygon fill="#00BFFF" points="114.5,244.9893,114.526,245.0543,112.4487,245.661,110.5239,246.6491,108.5495,247.513,106.4117,247.9685,104.5,248.9893,104.4904,248.9652,106.4472,249.6573,108.4525,250.4706,110.4916,251.3682,112.4144,251.9753,114.5,252.9893,114.6305,253.1198,113.5514,252.0407,112.8534,251.3426,112.2018,250.6911,111.2798,249.769,110.5,248.9893,110.5161,249.0053,111.2925,248.1817,112.1421,247.4313,112.9564,246.6456,113.838,245.9273,114.5,244.9893" style="stroke:#00BFFF;stroke-width:1.0;"/><path d="M108.5,248.9893 L108.5,249.2695 L118.5,248.4368 L128.5,249.247 L138.5,249.5222 L148.5,248.0381 L158.5,248.8856 L168.5,248.4206 L178.5,248.4779 L188.5,248.8984 L198.5,248.0674 L208.5,249.7274 L218.5,248.1489 L228.5,248.9893 " fill="none" style="stroke:#00BFFF;stroke-width:1.0;stroke-dasharray:2.0,2.0;"/><text fill="#000000" font-family="sans-serif" font-size="13" lengthAdjust="spacing" textLength="97" x="120.5" y="244.1328">Request Created</text><polygon fill="#00BFFF" points="36,276.7437,36.026,276.8087,33.9487,277.4154,32.0239,278.4035,30.0495,279.2674,27.9117,279.7229,26,280.7437,25.9904,280.7196,27.9472,281.4117,29.9525,282.225,31.9916,283.1226,33.9144,283.7297,36,284.7437,36.1305,284.8741,35.0514,283.7951,34.3534,283.097,33.7018,282.4455,32.7798,281.5234,32,280.7437,32.0161,280.7597,32.7925,279.9361,33.6421,279.1857,34.4564,278.4,35.338,277.6817,36,276.7437" style="stroke:#00BFFF;stroke-width:1.0;"/><path d="M30,280.7437 L30,281.0239 L39.6429,280.1912 L49.2857,281.0014 L58.9286,281.2766 L68.5714,279.7925 L78.2143,280.64 L87.8571,280.175 L97.5,280.7437 " fill="none" style="stroke:#00BFFF;stroke-width:1.0;stroke-dasharray:2.0,2.0;"/><text fill="#000000" font-family="sans-serif" font-size="13" lengthAdjust="spacing" textLength="30" x="42" y="275.8872">Done</text><!--MD5=[5685ebd04a8dcfa31e707986f5d773ae]
@startuml
skinparam backgroundColor #EEEBDC
skinparam handwritten true

skinparam sequence {
	ArrowColor DeepSkyBlue
	ActorBorderColor DeepSkyBlue
	LifeLineBorderColor blue
	LifeLineBackgroundColor #A9DCDF
	
	ParticipantBorderColor DeepSkyBlue
	ParticipantBackgroundColor DodgerBlue
	ParticipantFontName Impact
	ParticipantFontSize 17
	ParticipantFontColor #A9DCDF
	
	ActorBackgroundColor aqua
	ActorFontColor DeepSkyBlue
	ActorFontSize 17
	ActorFontName Aapex
}

actor User
participant "First Class" as A
participant "Second Class" as B
participant "Last Class" as C

User -> A: DoWork
activate A

A -> B: Create Request
activate B

B -> C: DoWork
activate C
C - -> B: WorkDone
destroy C

B - -> A: Request Created
deactivate B

A - -> User: Done
deactivate A

@enduml

PlantUML version 1.2022.4(Sat Apr 09 21:29:17 CST 2022)
(GPL source distribution)
Java Runtime: Java(TM) SE Runtime Environment
JVM: Java HotSpot(TM) 64-Bit Server VM
Default Encoding: GBK
Language: zh
Country: CN
--></g></svg>