<?xml version="1.0" encoding="UTF-8" standalone="no"?><svg xmlns="http://www.w3.org/2000/svg" xmlns:xlink="http://www.w3.org/1999/xlink" contentStyleType="text/css" height="167px" preserveAspectRatio="none" style="width:232px;height:167px;background:#FFFFFF;" version="1.1" viewBox="0 0 232 167" width="232px" zoomAndPan="magnify"><defs/><g><line style="stroke:#181818;stroke-width:0.5;stroke-dasharray:5.0,5.0;" x1="54" x2="54" y1="58.2402" y2="109.9946"/><line style="stroke:#181818;stroke-width:0.5;stroke-dasharray:5.0,5.0;" x1="169" x2="169" y1="58.2402" y2="109.9946"/><rect fill="#E2E2F0" height="52.2402" rx="2.5" ry="2.5" style="stroke:#181818;stroke-width:0.5;" width="98" x="5" y="5"/><text fill="#000000" font-family="sans-serif" font-size="14" font-style="italic" lengthAdjust="spacing" textLength="84" x="12" y="28.0439">«Generated»</text><text fill="#000000" font-family="sans-serif" font-size="14" lengthAdjust="spacing" textLength="80" x="14" y="47.1641">Famous Bob</text><rect fill="#E2E2F0" height="52.2402" rx="2.5" ry="2.5" style="stroke:#181818;stroke-width:0.5;" width="98" x="5" y="108.9946"/><text fill="#000000" font-family="sans-serif" font-size="14" font-style="italic" lengthAdjust="spacing" textLength="84" x="12" y="132.0386">«Generated»</text><text fill="#000000" font-family="sans-serif" font-size="14" lengthAdjust="spacing" textLength="80" x="14" y="151.1587">Famous Bob</text><rect fill="#E2E2F0" height="52.2402" rx="2.5" ry="2.5" style="stroke:#181818;stroke-width:0.5;" width="113" x="113" y="5"/><ellipse cx="131" cy="23" fill="#ADD1B2" rx="11" ry="11" style="stroke:#181818;stroke-width:1.0;"/><path d="M129.5781,28.3594 Q127.7188,28.3594 126.625,26.9688 Q125.5313,25.5781 125.5313,22.5938 Q125.5313,20.0625 126.6953,18.4063 Q127.8594,16.75 129.8438,16.75 Q131.3125,16.75 131.7813,16.875 Q132.25,17.0781 132.25,17.0781 Q132.25,17.0781 132.25,17.0078 Q132.25,16.9375 132.8594,16.0156 L133.9063,19.6719 L132.5781,20.0781 Q132.1094,18.5313 131.4453,17.8672 Q130.7813,17.2031 129.7188,17.2031 Q129.3281,17.2031 128.5625,18.7344 Q127.7969,20.2656 127.7969,22.5156 Q127.7969,24.9844 128.4609,26.375 Q129.125,27.7656 129.6563,27.7656 Q130.7188,27.7656 131.4766,27 Q132.2344,26.2344 132.5781,24.5781 L133.9063,25.1719 Q133.5781,26.5781 132.6797,27.4688 Q131.7813,28.3594 129.5781,28.3594 Z " fill="#000000"/><text fill="#000000" font-family="sans-serif" font-size="14" font-style="italic" lengthAdjust="spacing" textLength="71" x="148" y="28.0439">«Testable»</text><text fill="#000000" font-family="sans-serif" font-size="14" lengthAdjust="spacing" textLength="30" x="168.5" y="47.1641">Alice</text><rect fill="#E2E2F0" height="52.2402" rx="2.5" ry="2.5" style="stroke:#181818;stroke-width:0.5;" width="113" x="113" y="108.9946"/><ellipse cx="131" cy="126.9946" fill="#ADD1B2" rx="11" ry="11" style="stroke:#181818;stroke-width:1.0;"/><path d="M129.5781,132.354 Q127.7188,132.354 126.625,130.9634 Q125.5313,129.5728 125.5313,126.5884 Q125.5313,124.0571 126.6953,122.4009 Q127.8594,120.7446 129.8438,120.7446 Q131.3125,120.7446 131.7813,120.8696 Q132.25,121.0728 132.25,121.0728 Q132.25,121.0728 132.25,121.0024 Q132.25,120.9321 132.8594,120.0103 L133.9063,123.6665 L132.5781,124.0728 Q132.1094,122.5259 131.4453,121.8618 Q130.7813,121.1978 129.7188,121.1978 Q129.3281,121.1978 128.5625,122.729 Q127.7969,124.2603 127.7969,126.5103 Q127.7969,128.979 128.4609,130.3696 Q129.125,131.7603 129.6563,131.7603 Q130.7188,131.7603 131.4766,130.9946 Q132.2344,130.229 132.5781,128.5728 L133.9063,129.1665 Q133.5781,130.5728 132.6797,131.4634 Q131.7813,132.354 129.5781,132.354 Z " fill="#000000"/><text fill="#000000" font-family="sans-serif" font-size="14" font-style="italic" lengthAdjust="spacing" textLength="71" x="148" y="132.0386">«Testable»</text><text fill="#000000" font-family="sans-serif" font-size="14" lengthAdjust="spacing" textLength="30" x="168.5" y="151.1587">Alice</text><polygon fill="#181818" points="157.5,87.9946,167.5,91.9946,157.5,95.9946,161.5,91.9946" style="stroke:#181818;stroke-width:1.0;"/><line style="stroke:#181818;stroke-width:1.0;" x1="54" x2="163.5" y1="91.9946" y2="91.9946"/><text fill="#000000" font-family="sans-serif" font-size="13" lengthAdjust="spacing" textLength="83" x="61" y="87.1382">First message</text><!--MD5=[fa8d7968a8748ff982627dfaeb53a7f6]
@startuml

participant "Famous Bob" as Bob << Generated >>
participant Alice << (C,#ADD1B2) Testable >>

Bob->Alice: First message

@enduml

PlantUML version 1.2022.4(Sat Apr 09 21:29:17 CST 2022)
(GPL source distribution)
Java Runtime: Java(TM) SE Runtime Environment
JVM: Java HotSpot(TM) 64-Bit Server VM
Default Encoding: GBK
Language: zh
Country: CN
--></g></svg>