<?xml version="1.0" encoding="UTF-8" standalone="no"?><svg xmlns="http://www.w3.org/2000/svg" xmlns:xlink="http://www.w3.org/1999/xlink" contentStyleType="text/css" height="134px" preserveAspectRatio="none" style="width:187px;height:134px;background:#FFFFFF;" version="1.1" viewBox="0 0 187 134" width="187px" zoomAndPan="magnify"><defs/><g><line style="stroke:#181818;stroke-width:0.5;stroke-dasharray:5.0,5.0;" x1="38" x2="38" y1="42" y2="93.7544"/><line style="stroke:#181818;stroke-width:0.5;stroke-dasharray:5.0,5.0;" x1="145.5" x2="145.5" y1="42" y2="93.7544"/><rect fill="#E2E2F0" height="36" rx="2.5" ry="2.5" style="stroke:#181818;stroke-width:0.5;" width="67" x="5" y="5"/><ellipse cx="23" cy="23" fill="#ADD1B2" rx="11" ry="11" style="stroke:#181818;stroke-width:1.0;"/><path d="M21.5781,28.3594 Q19.7188,28.3594 18.625,26.9688 Q17.5313,25.5781 17.5313,22.5938 Q17.5313,20.0625 18.6953,18.4063 Q19.8594,16.75 21.8438,16.75 Q23.3125,16.75 23.7813,16.875 Q24.25,17.0781 24.25,17.0781 Q24.25,17.0781 24.25,17.0078 Q24.25,16.9375 24.8594,16.0156 L25.9063,19.6719 L24.5781,20.0781 Q24.1094,18.5313 23.4453,17.8672 Q22.7813,17.2031 21.7188,17.2031 Q21.3281,17.2031 20.5625,18.7344 Q19.7969,20.2656 19.7969,22.5156 Q19.7969,24.9844 20.4609,26.375 Q21.125,27.7656 21.6563,27.7656 Q22.7188,27.7656 23.4766,27 Q24.2344,26.2344 24.5781,24.5781 L25.9063,25.1719 Q25.5781,26.5781 24.6797,27.4688 Q23.7813,28.3594 21.5781,28.3594 Z " fill="#000000"/><text fill="#000000" font-family="sans-serif" font-size="14" lengthAdjust="spacing" textLength="25" x="40" y="28.0439">Bob</text><rect fill="#E2E2F0" height="36" rx="2.5" ry="2.5" style="stroke:#181818;stroke-width:0.5;" width="67" x="5" y="92.7544"/><ellipse cx="23" cy="110.7544" fill="#ADD1B2" rx="11" ry="11" style="stroke:#181818;stroke-width:1.0;"/><path d="M21.5781,116.1138 Q19.7188,116.1138 18.625,114.7231 Q17.5313,113.3325 17.5313,110.3481 Q17.5313,107.8169 18.6953,106.1606 Q19.8594,104.5044 21.8438,104.5044 Q23.3125,104.5044 23.7813,104.6294 Q24.25,104.8325 24.25,104.8325 Q24.25,104.8325 24.25,104.7622 Q24.25,104.6919 24.8594,103.77 L25.9063,107.4263 L24.5781,107.8325 Q24.1094,106.2856 23.4453,105.6216 Q22.7813,104.9575 21.7188,104.9575 Q21.3281,104.9575 20.5625,106.4888 Q19.7969,108.02 19.7969,110.27 Q19.7969,112.7388 20.4609,114.1294 Q21.125,115.52 21.6563,115.52 Q22.7188,115.52 23.4766,114.7544 Q24.2344,113.9888 24.5781,112.3325 L25.9063,112.9263 Q25.5781,114.3325 24.6797,115.2231 Q23.7813,116.1138 21.5781,116.1138 Z " fill="#000000"/><text fill="#000000" font-family="sans-serif" font-size="14" lengthAdjust="spacing" textLength="25" x="40" y="115.7983">Bob</text><rect fill="#E2E2F0" height="36" rx="2.5" ry="2.5" style="stroke:#181818;stroke-width:0.5;" width="72" x="109.5" y="5"/><ellipse cx="127.5" cy="23" fill="#ADD1B2" rx="11" ry="11" style="stroke:#181818;stroke-width:1.0;"/><path d="M126.0781,28.3594 Q124.2188,28.3594 123.125,26.9688 Q122.0313,25.5781 122.0313,22.5938 Q122.0313,20.0625 123.1953,18.4063 Q124.3594,16.75 126.3438,16.75 Q127.8125,16.75 128.2813,16.875 Q128.75,17.0781 128.75,17.0781 Q128.75,17.0781 128.75,17.0078 Q128.75,16.9375 129.3594,16.0156 L130.4063,19.6719 L129.0781,20.0781 Q128.6094,18.5313 127.9453,17.8672 Q127.2813,17.2031 126.2188,17.2031 Q125.8281,17.2031 125.0625,18.7344 Q124.2969,20.2656 124.2969,22.5156 Q124.2969,24.9844 124.9609,26.375 Q125.625,27.7656 126.1563,27.7656 Q127.2188,27.7656 127.9766,27 Q128.7344,26.2344 129.0781,24.5781 L130.4063,25.1719 Q130.0781,26.5781 129.1797,27.4688 Q128.2813,28.3594 126.0781,28.3594 Z " fill="#000000"/><text fill="#000000" font-family="sans-serif" font-size="14" lengthAdjust="spacing" textLength="30" x="144.5" y="28.0439">Alice</text><rect fill="#E2E2F0" height="36" rx="2.5" ry="2.5" style="stroke:#181818;stroke-width:0.5;" width="72" x="109.5" y="92.7544"/><ellipse cx="127.5" cy="110.7544" fill="#ADD1B2" rx="11" ry="11" style="stroke:#181818;stroke-width:1.0;"/><path d="M126.0781,116.1138 Q124.2188,116.1138 123.125,114.7231 Q122.0313,113.3325 122.0313,110.3481 Q122.0313,107.8169 123.1953,106.1606 Q124.3594,104.5044 126.3438,104.5044 Q127.8125,104.5044 128.2813,104.6294 Q128.75,104.8325 128.75,104.8325 Q128.75,104.8325 128.75,104.7622 Q128.75,104.6919 129.3594,103.77 L130.4063,107.4263 L129.0781,107.8325 Q128.6094,106.2856 127.9453,105.6216 Q127.2813,104.9575 126.2188,104.9575 Q125.8281,104.9575 125.0625,106.4888 Q124.2969,108.02 124.2969,110.27 Q124.2969,112.7388 124.9609,114.1294 Q125.625,115.52 126.1563,115.52 Q127.2188,115.52 127.9766,114.7544 Q128.7344,113.9888 129.0781,112.3325 L130.4063,112.9263 Q130.0781,114.3325 129.1797,115.2231 Q128.2813,116.1138 126.0781,116.1138 Z " fill="#000000"/><text fill="#000000" font-family="sans-serif" font-size="14" lengthAdjust="spacing" textLength="30" x="144.5" y="115.7983">Alice</text><polygon fill="#181818" points="133.5,71.7544,143.5,75.7544,133.5,79.7544,137.5,75.7544" style="stroke:#181818;stroke-width:1.0;"/><line style="stroke:#181818;stroke-width:1.0;" x1="38.5" x2="139.5" y1="75.7544" y2="75.7544"/><text fill="#000000" font-family="sans-serif" font-size="13" lengthAdjust="spacing" textLength="83" x="45.5" y="70.8979">First message</text><!--MD5=[f621373765312e33d3479afcc659437c]
@startuml

participant Bob << (C,#ADD1B2) >>
participant Alice << (C,#ADD1B2) >>

Bob->Alice: First message

@enduml

PlantUML version 1.2022.4(Sat Apr 09 21:29:17 CST 2022)
(GPL source distribution)
Java Runtime: Java(TM) SE Runtime Environment
JVM: Java HotSpot(TM) 64-Bit Server VM
Default Encoding: GBK
Language: zh
Country: CN
--></g></svg>