<?xml version="1.0" encoding="UTF-8" standalone="no"?><svg xmlns="http://www.w3.org/2000/svg" xmlns:xlink="http://www.w3.org/1999/xlink" contentStyleType="text/css" height="167px" preserveAspectRatio="none" style="width:280px;height:167px;background:#FFFFFF;" version="1.1" viewBox="0 0 280 167" width="280px" zoomAndPan="magnify"><defs/><g><line style="stroke:#181818;stroke-width:0.5;stroke-dasharray:5.0,5.0;" x1="66" x2="66" y1="58.2402" y2="109.9946"/><line style="stroke:#181818;stroke-width:0.5;stroke-dasharray:5.0,5.0;" x1="205" x2="205" y1="58.2402" y2="109.9946"/><rect fill="#E2E2F0" height="52.2402" rx="2.5" ry="2.5" style="stroke:#181818;stroke-width:0.5;" width="122" x="5" y="5"/><text fill="#000000" font-family="sans-serif" font-size="14" font-style="italic" lengthAdjust="spacing" textLength="108" x="12" y="28.0439">&lt;&lt; Generated &gt;&gt;</text><text fill="#000000" font-family="sans-serif" font-size="14" lengthAdjust="spacing" textLength="80" x="26" y="47.1641">Famous Bob</text><rect fill="#E2E2F0" height="52.2402" rx="2.5" ry="2.5" style="stroke:#181818;stroke-width:0.5;" width="122" x="5" y="108.9946"/><text fill="#000000" font-family="sans-serif" font-size="14" font-style="italic" lengthAdjust="spacing" textLength="108" x="12" y="132.0386">&lt;&lt; Generated &gt;&gt;</text><text fill="#000000" font-family="sans-serif" font-size="14" lengthAdjust="spacing" textLength="80" x="26" y="151.1587">Famous Bob</text><rect fill="#E2E2F0" height="52.2402" rx="2.5" ry="2.5" style="stroke:#181818;stroke-width:0.5;" width="137" x="137" y="5"/><ellipse cx="155" cy="23" fill="#ADD1B2" rx="11" ry="11" style="stroke:#181818;stroke-width:1.0;"/><path d="M153.5781,28.3594 Q151.7188,28.3594 150.625,26.9688 Q149.5313,25.5781 149.5313,22.5938 Q149.5313,20.0625 150.6953,18.4063 Q151.8594,16.75 153.8438,16.75 Q155.3125,16.75 155.7813,16.875 Q156.25,17.0781 156.25,17.0781 Q156.25,17.0781 156.25,17.0078 Q156.25,16.9375 156.8594,16.0156 L157.9063,19.6719 L156.5781,20.0781 Q156.1094,18.5313 155.4453,17.8672 Q154.7813,17.2031 153.7188,17.2031 Q153.3281,17.2031 152.5625,18.7344 Q151.7969,20.2656 151.7969,22.5156 Q151.7969,24.9844 152.4609,26.375 Q153.125,27.7656 153.6563,27.7656 Q154.7188,27.7656 155.4766,27 Q156.2344,26.2344 156.5781,24.5781 L157.9063,25.1719 Q157.5781,26.5781 156.6797,27.4688 Q155.7813,28.3594 153.5781,28.3594 Z " fill="#000000"/><text fill="#000000" font-family="sans-serif" font-size="14" font-style="italic" lengthAdjust="spacing" textLength="95" x="172" y="28.0439">&lt;&lt; Testable &gt;&gt;</text><text fill="#000000" font-family="sans-serif" font-size="14" lengthAdjust="spacing" textLength="30" x="204.5" y="47.1641">Alice</text><rect fill="#E2E2F0" height="52.2402" rx="2.5" ry="2.5" style="stroke:#181818;stroke-width:0.5;" width="137" x="137" y="108.9946"/><ellipse cx="155" cy="126.9946" fill="#ADD1B2" rx="11" ry="11" style="stroke:#181818;stroke-width:1.0;"/><path d="M153.5781,132.354 Q151.7188,132.354 150.625,130.9634 Q149.5313,129.5728 149.5313,126.5884 Q149.5313,124.0571 150.6953,122.4009 Q151.8594,120.7446 153.8438,120.7446 Q155.3125,120.7446 155.7813,120.8696 Q156.25,121.0728 156.25,121.0728 Q156.25,121.0728 156.25,121.0024 Q156.25,120.9321 156.8594,120.0103 L157.9063,123.6665 L156.5781,124.0728 Q156.1094,122.5259 155.4453,121.8618 Q154.7813,121.1978 153.7188,121.1978 Q153.3281,121.1978 152.5625,122.729 Q151.7969,124.2603 151.7969,126.5103 Q151.7969,128.979 152.4609,130.3696 Q153.125,131.7603 153.6563,131.7603 Q154.7188,131.7603 155.4766,130.9946 Q156.2344,130.229 156.5781,128.5728 L157.9063,129.1665 Q157.5781,130.5728 156.6797,131.4634 Q155.7813,132.354 153.5781,132.354 Z " fill="#000000"/><text fill="#000000" font-family="sans-serif" font-size="14" font-style="italic" lengthAdjust="spacing" textLength="95" x="172" y="132.0386">&lt;&lt; Testable &gt;&gt;</text><text fill="#000000" font-family="sans-serif" font-size="14" lengthAdjust="spacing" textLength="30" x="204.5" y="151.1587">Alice</text><polygon fill="#181818" points="193.5,87.9946,203.5,91.9946,193.5,95.9946,197.5,91.9946" style="stroke:#181818;stroke-width:1.0;"/><line style="stroke:#181818;stroke-width:1.0;" x1="66" x2="199.5" y1="91.9946" y2="91.9946"/><text fill="#000000" font-family="sans-serif" font-size="13" lengthAdjust="spacing" textLength="83" x="73" y="87.1382">First message</text><!--MD5=[cb9800fc221ce498d33869c23eb32b7f]
@startuml

skinparam guillemet false
participant "Famous Bob" as Bob << Generated >>
participant Alice << (C,#ADD1B2) Testable >>

Bob->Alice: First message

@enduml

PlantUML version 1.2022.4(Sat Apr 09 21:29:17 CST 2022)
(GPL source distribution)
Java Runtime: Java(TM) SE Runtime Environment
JVM: Java HotSpot(TM) 64-Bit Server VM
Default Encoding: GBK
Language: zh
Country: CN
--></g></svg>