<?xml version="1.0" encoding="UTF-8" standalone="no"?><svg xmlns="http://www.w3.org/2000/svg" xmlns:xlink="http://www.w3.org/1999/xlink" contentStyleType="text/css" height="212px" preserveAspectRatio="none" style="width:210px;height:212px;background:#FFFFFF;" version="1.1" viewBox="0 0 210 212" width="210px" zoomAndPan="magnify"><defs/><g><line style="stroke:#181818;stroke-width:0.5;stroke-dasharray:5.0,5.0;" x1="27" x2="27" y1="58.2402" y2="155.749"/><line style="stroke:#181818;stroke-width:0.5;stroke-dasharray:5.0,5.0;" x1="83" x2="83" y1="58.2402" y2="155.749"/><line style="stroke:#181818;stroke-width:0.5;stroke-dasharray:5.0,5.0;" x1="161" x2="161" y1="58.2402" y2="155.749"/><rect fill="#E2E2F0" height="33.1201" rx="2.5" ry="2.5" style="stroke:#181818;stroke-width:0.5;" width="44" x="5" y="24.1201"/><text fill="#000000" font-family="sans-serif" font-size="14" lengthAdjust="spacing" textLength="30" x="12" y="47.1641">Alice</text><rect fill="#E2E2F0" height="33.1201" rx="2.5" ry="2.5" style="stroke:#181818;stroke-width:0.5;" width="44" x="5" y="154.749"/><text fill="#000000" font-family="sans-serif" font-size="14" lengthAdjust="spacing" textLength="30" x="12" y="177.793">Alice</text><rect fill="#E2E2F0" height="33.1201" rx="2.5" ry="2.5" style="stroke:#181818;stroke-width:0.5;" width="49" x="59" y="24.1201"/><text fill="#000000" font-family="sans-serif" font-size="14" lengthAdjust="spacing" textLength="35" x="66" y="47.1641">Bob()</text><rect fill="#E2E2F0" height="33.1201" rx="2.5" ry="2.5" style="stroke:#181818;stroke-width:0.5;" width="49" x="59" y="154.749"/><text fill="#000000" font-family="sans-serif" font-size="14" lengthAdjust="spacing" textLength="35" x="66" y="177.793">Bob()</text><rect fill="#E2E2F0" height="52.2402" rx="2.5" ry="2.5" style="stroke:#181818;stroke-width:0.5;" width="86" x="118" y="5"/><text fill="#000000" font-family="sans-serif" font-size="14" lengthAdjust="spacing" textLength="72" x="125" y="28.0439">This is very</text><text fill="#000000" font-family="sans-serif" font-size="14" lengthAdjust="spacing" textLength="27" x="147.5" y="47.1641">long</text><rect fill="#E2E2F0" height="52.2402" rx="2.5" ry="2.5" style="stroke:#181818;stroke-width:0.5;" width="86" x="118" y="154.749"/><text fill="#000000" font-family="sans-serif" font-size="14" lengthAdjust="spacing" textLength="72" x="125" y="177.793">This is very</text><text fill="#000000" font-family="sans-serif" font-size="14" lengthAdjust="spacing" textLength="27" x="147.5" y="196.9131">long</text><polygon fill="#181818" points="71.5,87.9946,81.5,91.9946,71.5,95.9946,75.5,91.9946" style="stroke:#181818;stroke-width:1.0;"/><line style="stroke:#181818;stroke-width:1.0;" x1="27" x2="77.5" y1="91.9946" y2="91.9946"/><text fill="#000000" font-family="sans-serif" font-size="13" lengthAdjust="spacing" textLength="29" x="34" y="87.1382">Hello</text><polygon fill="#181818" points="149,101.9946,159,105.9946,149,109.9946,153,105.9946" style="stroke:#181818;stroke-width:1.0;"/><line style="stroke:#181818;stroke-width:1.0;" x1="83.5" x2="155" y1="105.9946" y2="105.9946"/><polygon fill="#181818" points="94.5,133.749,84.5,137.749,94.5,141.749,90.5,137.749" style="stroke:#181818;stroke-width:1.0;"/><line style="stroke:#181818;stroke-width:1.0;stroke-dasharray:2.0,2.0;" x1="88.5" x2="160" y1="137.749" y2="137.749"/><text fill="#000000" font-family="sans-serif" font-size="13" lengthAdjust="spacing" textLength="14" x="100.5" y="132.8926">ok</text><!--MD5=[6e9271c43052aaa0aab37393ea8be329]
@startuml
Alice -> "Bob()" : Hello
"Bob()" -> "This is very\nlong" as Long
' You can also declare:
' "Bob()" -> Long as "This is very\nlong"
Long - -> "Bob()" : ok
@enduml

@startuml
Alice -> "Bob()" : Hello
"Bob()" -> "This is very\nlong" as Long
Long - -> "Bob()" : ok
@enduml

PlantUML version 1.2022.4(Sat Apr 09 21:29:17 CST 2022)
(GPL source distribution)
Java Runtime: Java(TM) SE Runtime Environment
JVM: Java HotSpot(TM) 64-Bit Server VM
Default Encoding: GBK
Language: zh
Country: CN
--></g></svg>