<?xml version="1.0" encoding="UTF-8" standalone="no"?>
<!DOCTYPE svg PUBLIC "-//W3C//DTD SVG 1.1//EN"
 "http://www.w3.org/Graphics/SVG/1.1/DTD/svg11.dtd">
<!-- Generated by graphviz version 2.38.0 (20140413.2041)
 -->
<!-- Title: G Pages: 1 -->
<svg width="180pt" height="188pt"
 viewBox="0.00 0.00 180.34 188.00" xmlns="http://www.w3.org/2000/svg" xmlns:xlink="http://www.w3.org/1999/xlink">
<g id="graph0" class="graph" transform="scale(1 1) rotate(0) translate(4 184)">
<title>G</title>
<polygon fill="white" stroke="none" points="-4,4 -4,-184 176.343,-184 176.343,4 -4,4"/>
<!-- Welcome -->
<g id="node1" class="node"><title>Welcome</title>
<ellipse fill="none" stroke="black" cx="75.5975" cy="-162" rx="45.4919" ry="18"/>
<text text-anchor="middle" x="75.5975" y="-158.3" font-family="Times New Roman,serif" font-size="14.00">Welcome</text>
</g>
<!-- To -->
<g id="node2" class="node"><title>To</title>
<ellipse fill="none" stroke="black" cx="75.5975" cy="-90" rx="27" ry="18"/>
<text text-anchor="middle" x="75.5975" y="-86.3" font-family="Times New Roman,serif" font-size="14.00">To</text>
</g>
<!-- Welcome&#45;&gt;To -->
<g id="edge1" class="edge"><title>Welcome&#45;&gt;To</title>
<path fill="none" stroke="black" d="M75.5975,-143.697C75.5975,-135.983 75.5975,-126.712 75.5975,-118.112"/>
<polygon fill="black" stroke="black" points="79.0976,-118.104 75.5975,-108.104 72.0976,-118.104 79.0976,-118.104"/>
</g>
<!-- Web -->
<g id="node3" class="node"><title>Web</title>
<ellipse fill="none" stroke="black" cx="28.5975" cy="-18" rx="28.6953" ry="18"/>
<text text-anchor="middle" x="28.5975" y="-14.3" font-family="Times New Roman,serif" font-size="14.00">Web</text>
</g>
<!-- To&#45;&gt;Web -->
<g id="edge2" class="edge"><title>To&#45;&gt;Web</title>
<path fill="none" stroke="black" d="M64.9324,-73.1159C59.0434,-64.345 51.6031,-53.2637 44.9912,-43.4162"/>
<polygon fill="black" stroke="black" points="47.7004,-41.1724 39.2203,-34.8212 41.8889,-45.0745 47.7004,-41.1724"/>
</g>
<!-- GraphViz! -->
<g id="node4" class="node"><title>GraphViz!</title>
<ellipse fill="none" stroke="black" cx="123.597" cy="-18" rx="48.9926" ry="18"/>
<text text-anchor="middle" x="123.597" y="-14.3" font-family="Times New Roman,serif" font-size="14.00">GraphViz!</text>
</g>
<!-- To&#45;&gt;GraphViz! -->
<g id="edge3" class="edge"><title>To&#45;&gt;GraphViz!</title>
<path fill="none" stroke="black" d="M86.4894,-73.1159C92.3343,-64.592 99.6755,-53.8861 106.282,-44.2513"/>
<polygon fill="black" stroke="black" points="109.311,-46.024 112.079,-35.7973 103.537,-42.0653 109.311,-46.024"/>
</g>
</g>
</svg>
