<?xml version="1.0" encoding="UTF-8" standalone="no"?>
<!DOCTYPE svg PUBLIC "-//W3C//DTD SVG 1.1//EN"
 "http://www.w3.org/Graphics/SVG/1.1/DTD/svg11.dtd">
<!-- Generated by graphviz version 2.38.0 (20140413.2041)
 -->
<!-- Title: %3 Pages: 1 -->
<svg width="189pt" height="305pt"
 viewBox="0.00 0.00 189.00 305.00" xmlns="http://www.w3.org/2000/svg" xmlns:xlink="http://www.w3.org/1999/xlink">
<g id="graph0" class="graph" transform="scale(1 1) rotate(0) translate(4 301)">
<title>%3</title>
<polygon fill="white" stroke="none" points="-4,4 -4,-301 185,-301 185,4 -4,4"/>
<!-- a -->
<g id="node1" class="node"><title>a</title>
<ellipse fill="none" stroke="black" cx="27" cy="-279" rx="27" ry="18"/>
<text text-anchor="middle" x="27" y="-275.3" font-family="Times New Roman,serif" font-size="14.00">a</text>
</g>
<!-- b -->
<g id="node2" class="node"><title>b</title>
<ellipse fill="none" stroke="black" cx="34" cy="-18" rx="27" ry="18"/>
<text text-anchor="middle" x="34" y="-14.3" font-family="Times New Roman,serif" font-size="14.00">b</text>
</g>
<!-- a&#45;&gt;b -->
<g id="edge1" class="edge"><title>a&#45;&gt;b</title>
<path fill="none" stroke="black" d="M26.0398,-260.96C25.3152,-247.21 24.3829,-227.367 24,-210 22.711,-151.535 27.9283,-83.1163 31.3099,-46.1094"/>
<polygon fill="black" stroke="black" points="34.7987,-46.3919 32.2496,-36.1083 27.8294,-45.737 34.7987,-46.3919"/>
<text text-anchor="middle" x="33" y="-144.8" font-family="Times New Roman,serif" font-size="14.00">0.2</text>
</g>
<!-- c -->
<g id="node3" class="node"><title>c</title>
<ellipse fill="none" stroke="black" cx="60" cy="-192" rx="27" ry="18"/>
<text text-anchor="middle" x="60" y="-188.3" font-family="Times New Roman,serif" font-size="14.00">c</text>
</g>
<!-- a&#45;&gt;c -->
<g id="edge2" class="edge"><title>a&#45;&gt;c</title>
<path fill="none" stroke="black" d="M33.5197,-261.207C38.1751,-249.216 44.5284,-232.851 49.8449,-219.157"/>
<polygon fill="black" stroke="black" points="53.1373,-220.347 53.4938,-209.758 46.6118,-217.814 53.1373,-220.347"/>
<text text-anchor="middle" x="54" y="-231.8" font-family="Times New Roman,serif" font-size="14.00">0.4</text>
</g>
<!-- c&#45;&gt;b -->
<g id="edge3" class="edge"><title>c&#45;&gt;b</title>
<path fill="none" stroke="black" d="M57.412,-173.879C52.8955,-144.001 43.5403,-82.1129 38.1227,-46.2736"/>
<polygon fill="black" stroke="black" points="41.533,-45.4161 36.5776,-36.0516 34.6116,-46.4624 41.533,-45.4161"/>
<text text-anchor="middle" x="58" y="-101.3" font-family="Times New Roman,serif" font-size="14.00">0.6</text>
</g>
<!-- e -->
<g id="node4" class="node"><title>e</title>
<ellipse fill="none" stroke="black" cx="118" cy="-105" rx="27" ry="18"/>
<text text-anchor="middle" x="118" y="-101.3" font-family="Times New Roman,serif" font-size="14.00">e</text>
</g>
<!-- c&#45;&gt;e -->
<g id="edge4" class="edge"><title>c&#45;&gt;e</title>
<path fill="none" stroke="black" d="M70.6381,-175.41C79.2503,-162.788 91.5328,-144.788 101.432,-130.281"/>
<polygon fill="black" stroke="black" points="104.488,-132.012 107.233,-121.779 98.7054,-128.067 104.488,-132.012"/>
<text text-anchor="middle" x="101" y="-144.8" font-family="Times New Roman,serif" font-size="14.00">0.6</text>
</g>
<!-- e&#45;&gt;b -->
<g id="edge6" class="edge"><title>e&#45;&gt;b</title>
<path fill="none" stroke="black" d="M103.751,-89.5809C90.5968,-76.2706 70.8701,-56.309 55.7482,-41.0071"/>
<polygon fill="black" stroke="black" points="57.838,-38.1424 48.3194,-33.4898 52.859,-43.0628 57.838,-38.1424"/>
<text text-anchor="middle" x="90" y="-57.8" font-family="Times New Roman,serif" font-size="14.00">0.7</text>
</g>
<!-- e&#45;&gt;e -->
<g id="edge5" class="edge"><title>e&#45;&gt;e</title>
<path fill="none" stroke="black" d="M142.532,-112.752C153.508,-113.49 163,-110.906 163,-105 163,-101.032 158.715,-98.5632 152.574,-97.5944"/>
<polygon fill="black" stroke="black" points="152.647,-94.0949 142.532,-97.248 152.406,-101.091 152.647,-94.0949"/>
<text text-anchor="middle" x="172" y="-101.3" font-family="Times New Roman,serif" font-size="14.00">0.1</text>
</g>
</g>
</svg>
