<?xml version="1.0" encoding="UTF-8" standalone="no"?>
<!DOCTYPE svg PUBLIC "-//W3C//DTD SVG 1.1//EN"
 "http://www.w3.org/Graphics/SVG/1.1/DTD/svg11.dtd">
<!-- Generated by graphviz version 2.38.0 (20140413.2041)
 -->
<!-- Title: %3 Pages: 1 -->
<svg width="255pt" height="404pt"
 viewBox="0.00 0.00 254.93 404.00" xmlns="http://www.w3.org/2000/svg" xmlns:xlink="http://www.w3.org/1999/xlink">
<g id="graph0" class="graph" transform="scale(1 1) rotate(0) translate(4 400)">
<title>%3</title>
<polygon fill="white" stroke="none" points="-4,4 -4,-400 250.93,-400 250.93,4 -4,4"/>
<!-- a -->
<g id="node1" class="node"><title>a</title>
<ellipse fill="none" stroke="black" cx="123" cy="-378" rx="27" ry="18"/>
<text text-anchor="middle" x="123" y="-374.3" font-family="Times New Roman,serif" font-size="14.00">a</text>
</g>
<!-- b -->
<g id="node2" class="node"><title>b</title>
<ellipse fill="none" stroke="black" cx="123" cy="-306" rx="27" ry="18"/>
<text text-anchor="middle" x="123" y="-302.3" font-family="Times New Roman,serif" font-size="14.00">b</text>
</g>
<!-- a&#45;&#45;b -->
<g id="edge1" class="edge"><title>a&#45;&#45;b</title>
<path fill="none" stroke="black" d="M123,-359.697C123,-348.846 123,-334.917 123,-324.104"/>
</g>
<!-- c -->
<g id="node3" class="node"><title>c</title>
<ellipse fill="none" stroke="black" cx="207" cy="-234" rx="27" ry="18"/>
<text text-anchor="middle" x="207" y="-230.3" font-family="Times New Roman,serif" font-size="14.00">c</text>
</g>
<!-- a&#45;&#45;c -->
<g id="edge7" class="edge"><title>a&#45;&#45;c</title>
<path fill="none" stroke="black" d="M134.14,-361.505C141.48,-351.081 151.149,-336.931 159,-324 174.032,-299.24 189.627,-269.425 198.815,-251.356"/>
</g>
<!-- d -->
<g id="node4" class="node"><title>d</title>
<ellipse fill="none" stroke="black" cx="207" cy="-162" rx="27" ry="18"/>
<text text-anchor="middle" x="207" y="-158.3" font-family="Times New Roman,serif" font-size="14.00">d</text>
</g>
<!-- a&#45;&#45;d -->
<g id="edge8" class="edge"><title>a&#45;&#45;d</title>
<path fill="none" stroke="black" d="M142.085,-364.913C170.872,-345.353 224.048,-303.687 243,-252 248.508,-236.978 247.703,-231.293 243,-216 238.619,-201.753 228.961,-187.9 220.75,-177.931"/>
</g>
<!-- e -->
<g id="node5" class="node"><title>e</title>
<ellipse fill="none" stroke="black" cx="141" cy="-90" rx="27" ry="18"/>
<text text-anchor="middle" x="141" y="-86.3" font-family="Times New Roman,serif" font-size="14.00">e</text>
</g>
<!-- a&#45;&#45;e -->
<g id="edge9" class="edge"><title>a&#45;&#45;e</title>
<path fill="none" stroke="black" d="M109.25,-362.069C101.039,-352.1 91.381,-338.247 87,-324 82.2972,-308.707 84.8661,-303.857 87,-288 96.223,-219.465 122.727,-141.036 134.834,-107.551"/>
</g>
<!-- f -->
<g id="node6" class="node"><title>f</title>
<ellipse fill="none" stroke="black" cx="141" cy="-18" rx="27" ry="18"/>
<text text-anchor="middle" x="141" y="-14.3" font-family="Times New Roman,serif" font-size="14.00">f</text>
</g>
<!-- a&#45;&#45;f -->
<g id="edge6" class="edge"><title>a&#45;&#45;f</title>
<path fill="none" stroke="black" d="M102.689,-365.908C67.7536,-345.172 0,-296.969 0,-235 0,-235 0,-235 0,-161 0,-94.2958 79.3125,-47.7729 118.969,-28.6805"/>
</g>
<!-- b&#45;&#45;c -->
<g id="edge2" class="edge"><title>b&#45;&#45;c</title>
<path fill="none" stroke="black" d="M139.196,-291.503C154.071,-279.108 175.995,-260.838 190.854,-248.455"/>
</g>
<!-- b&#45;&#45;d -->
<g id="edge10" class="edge"><title>b&#45;&#45;d</title>
<path fill="none" stroke="black" d="M131.185,-288.644C140.373,-270.575 155.968,-240.76 171,-216 178.851,-203.069 188.52,-188.919 195.86,-178.495"/>
</g>
<!-- b&#45;&#45;e -->
<g id="edge11" class="edge"><title>b&#45;&#45;e</title>
<path fill="none" stroke="black" d="M124.443,-287.849C127.813,-247.78 136.173,-148.383 139.551,-108.232"/>
</g>
<!-- b&#45;&#45;f -->
<g id="edge12" class="edge"><title>b&#45;&#45;f</title>
<path fill="none" stroke="black" d="M117.545,-288.151C105.797,-249.131 81.0306,-149.947 105,-72 109.381,-57.7531 119.039,-43.8997 127.25,-33.9312"/>
</g>
<!-- c&#45;&#45;d -->
<g id="edge3" class="edge"><title>c&#45;&#45;d</title>
<path fill="none" stroke="black" d="M207,-215.697C207,-204.846 207,-190.917 207,-180.104"/>
</g>
<!-- c&#45;&#45;e -->
<g id="edge13" class="edge"><title>c&#45;&#45;e</title>
<path fill="none" stroke="black" d="M194.781,-217.458C187.182,-207.246 177.629,-193.35 171,-180 159.107,-156.049 150.14,-126.26 145.231,-107.942"/>
</g>
<!-- c&#45;&#45;f -->
<g id="edge14" class="edge"><title>c&#45;&#45;f</title>
<path fill="none" stroke="black" d="M220.75,-218.069C228.961,-208.1 238.619,-194.247 243,-180 247.703,-164.707 247.411,-159.38 243,-144 228.946,-94.998 183.321,-52.4917 158.118,-32.0122"/>
</g>
<!-- d&#45;&#45;e -->
<g id="edge4" class="edge"><title>d&#45;&#45;e</title>
<path fill="none" stroke="black" d="M193.003,-146.155C181.803,-134.276 166.172,-117.697 154.977,-105.824"/>
</g>
<!-- d&#45;&#45;f -->
<g id="edge15" class="edge"><title>d&#45;&#45;f</title>
<path fill="none" stroke="black" d="M202.769,-144.058C197.86,-125.74 188.893,-95.9509 177,-72 170.371,-58.65 160.818,-44.7545 153.219,-34.5423"/>
</g>
<!-- e&#45;&#45;f -->
<g id="edge5" class="edge"><title>e&#45;&#45;f</title>
<path fill="none" stroke="black" d="M141,-71.6966C141,-60.8463 141,-46.9167 141,-36.1043"/>
</g>
</g>
</svg>
