<?xml version="1.0" encoding="UTF-8" standalone="no"?>
<!DOCTYPE svg PUBLIC "-//W3C//DTD SVG 1.1//EN"
 "http://www.w3.org/Graphics/SVG/1.1/DTD/svg11.dtd">
<!-- Generated by graphviz version 2.38.0 (20140413.2041)
 -->
<!-- Title: %3 Pages: 1 -->
<svg width="692pt" height="229pt"
 viewBox="0.00 0.00 692.00 229.00" xmlns="http://www.w3.org/2000/svg" xmlns:xlink="http://www.w3.org/1999/xlink">
<g id="graph0" class="graph" transform="scale(1 1) rotate(0) translate(4 225)">
<title>%3</title>
<polygon fill="white" stroke="none" points="-4,4 -4,-225 688,-225 688,4 -4,4"/>
<!-- a -->
<g id="node1" class="node"><title>a</title>
<ellipse fill="none" stroke="black" cx="27" cy="-149" rx="27" ry="18"/>
<text text-anchor="middle" x="27" y="-145.3" font-family="Times New Roman,serif" font-size="14.00">a</text>
</g>
<!-- b -->
<g id="node2" class="node"><title>b</title>
<ellipse fill="none" stroke="black" cx="117" cy="-203" rx="27" ry="18"/>
<text text-anchor="middle" x="117" y="-199.3" font-family="Times New Roman,serif" font-size="14.00">b</text>
</g>
<!-- a&#45;&#45;b -->
<g id="edge1" class="edge"><title>a&#45;&#45;b</title>
<path fill="none" stroke="black" d="M47.5301,-160.984C62.1132,-169.933 81.9546,-182.108 96.5245,-191.049"/>
</g>
<!-- c -->
<g id="node3" class="node"><title>c</title>
<ellipse fill="none" stroke="black" cx="117" cy="-149" rx="27" ry="18"/>
<text text-anchor="middle" x="117" y="-145.3" font-family="Times New Roman,serif" font-size="14.00">c</text>
</g>
<!-- a&#45;&#45;c -->
<g id="edge2" class="edge"><title>a&#45;&#45;c</title>
<path fill="none" stroke="black" d="M54.4029,-149C65.6421,-149 78.7152,-149 89.919,-149"/>
</g>
<!-- d -->
<g id="node4" class="node"><title>d</title>
<ellipse fill="none" stroke="black" cx="117" cy="-95" rx="27" ry="18"/>
<text text-anchor="middle" x="117" y="-91.3" font-family="Times New Roman,serif" font-size="14.00">d</text>
</g>
<!-- a&#45;&#45;d -->
<g id="edge3" class="edge"><title>a&#45;&#45;d</title>
<path fill="none" stroke="black" d="M47.5301,-137.016C62.1132,-128.067 81.9546,-115.892 96.5245,-106.951"/>
</g>
<!-- b&#45;&#45;c -->
<g id="edge4" class="edge"><title>b&#45;&#45;c</title>
<path fill="none" stroke="black" d="M117,-184.79C117,-178.907 117,-173.024 117,-167.141"/>
</g>
<!-- e -->
<g id="node5" class="node"><title>e</title>
<ellipse fill="none" stroke="black" cx="207" cy="-203" rx="27" ry="18"/>
<text text-anchor="middle" x="207" y="-199.3" font-family="Times New Roman,serif" font-size="14.00">e</text>
</g>
<!-- b&#45;&#45;e -->
<g id="edge5" class="edge"><title>b&#45;&#45;e</title>
<path fill="none" stroke="black" d="M144.403,-203C155.642,-203 168.715,-203 179.919,-203"/>
</g>
<!-- c&#45;&#45;e -->
<g id="edge6" class="edge"><title>c&#45;&#45;e</title>
<path fill="none" stroke="black" d="M137.53,-160.984C152.113,-169.933 171.955,-182.108 186.525,-191.049"/>
</g>
<!-- f -->
<g id="node6" class="node"><title>f</title>
<ellipse fill="none" stroke="black" cx="207" cy="-149" rx="27" ry="18"/>
<text text-anchor="middle" x="207" y="-145.3" font-family="Times New Roman,serif" font-size="14.00">f</text>
</g>
<!-- c&#45;&#45;f -->
<g id="edge7" class="edge"><title>c&#45;&#45;f</title>
<path fill="none" stroke="black" d="M144.403,-149C155.642,-149 168.715,-149 179.919,-149"/>
</g>
<!-- d&#45;&#45;f -->
<g id="edge8" class="edge"><title>d&#45;&#45;f</title>
<path fill="none" stroke="black" d="M137.53,-106.984C152.113,-115.933 171.955,-128.108 186.525,-137.049"/>
</g>
<!-- g -->
<g id="node7" class="node"><title>g</title>
<ellipse fill="none" stroke="black" cx="207" cy="-95" rx="27" ry="18"/>
<text text-anchor="middle" x="207" y="-91.3" font-family="Times New Roman,serif" font-size="14.00">g</text>
</g>
<!-- d&#45;&#45;g -->
<g id="edge9" class="edge"><title>d&#45;&#45;g</title>
<path fill="none" stroke="black" d="M144.403,-95C155.642,-95 168.715,-95 179.919,-95"/>
</g>
<!-- h -->
<g id="node8" class="node"><title>h</title>
<ellipse fill="none" stroke="black" cx="297" cy="-203" rx="27" ry="18"/>
<text text-anchor="middle" x="297" y="-199.3" font-family="Times New Roman,serif" font-size="14.00">h</text>
</g>
<!-- e&#45;&#45;h -->
<g id="edge10" class="edge"><title>e&#45;&#45;h</title>
<path fill="none" stroke="black" d="M234.403,-203C245.642,-203 258.715,-203 269.919,-203"/>
</g>
<!-- f&#45;&#45;g -->
<g id="edge11" class="edge"><title>f&#45;&#45;g</title>
<path fill="none" stroke="black" d="M207,-130.79C207,-124.907 207,-119.024 207,-113.141"/>
</g>
<!-- f&#45;&#45;h -->
<g id="edge12" class="edge"><title>f&#45;&#45;h</title>
<path fill="none" stroke="black" d="M227.53,-160.984C242.113,-169.933 261.955,-182.108 276.525,-191.049"/>
</g>
<!-- i -->
<g id="node9" class="node"><title>i</title>
<ellipse fill="none" stroke="black" cx="297" cy="-149" rx="27" ry="18"/>
<text text-anchor="middle" x="297" y="-145.3" font-family="Times New Roman,serif" font-size="14.00">i</text>
</g>
<!-- f&#45;&#45;i -->
<g id="edge13" class="edge"><title>f&#45;&#45;i</title>
<path fill="none" stroke="black" d="M234.403,-149C245.642,-149 258.715,-149 269.919,-149"/>
</g>
<!-- j -->
<g id="node10" class="node"><title>j</title>
<ellipse fill="none" stroke="black" cx="297" cy="-95" rx="27" ry="18"/>
<text text-anchor="middle" x="297" y="-91.3" font-family="Times New Roman,serif" font-size="14.00">j</text>
</g>
<!-- f&#45;&#45;j -->
<g id="edge14" class="edge"><title>f&#45;&#45;j</title>
<path fill="none" stroke="black" d="M227.53,-137.016C242.113,-128.067 261.955,-115.892 276.525,-106.951"/>
</g>
<!-- k -->
<g id="node11" class="node"><title>k</title>
<ellipse fill="none" stroke="black" cx="297" cy="-41" rx="27" ry="18"/>
<text text-anchor="middle" x="297" y="-37.3" font-family="Times New Roman,serif" font-size="14.00">k</text>
</g>
<!-- g&#45;&#45;k -->
<g id="edge15" class="edge"><title>g&#45;&#45;k</title>
<path fill="none" stroke="black" d="M227.53,-83.0156C242.113,-74.0669 261.955,-61.8915 276.525,-52.9508"/>
</g>
<!-- o -->
<g id="node12" class="node"><title>o</title>
<ellipse fill="none" stroke="black" cx="477" cy="-180" rx="27" ry="18"/>
<text text-anchor="middle" x="477" y="-176.3" font-family="Times New Roman,serif" font-size="14.00">o</text>
</g>
<!-- h&#45;&#45;o -->
<g id="edge16" class="edge"><title>h&#45;&#45;o</title>
<path fill="none" stroke="black" d="M323.642,-207.351C347.348,-210.559 383.422,-213.369 414,-207 428.597,-203.96 443.97,-197.291 455.756,-191.342"/>
</g>
<!-- l -->
<g id="node13" class="node"><title>l</title>
<ellipse fill="none" stroke="black" cx="387" cy="-180" rx="27" ry="18"/>
<text text-anchor="middle" x="387" y="-176.3" font-family="Times New Roman,serif" font-size="14.00">l</text>
</g>
<!-- h&#45;&#45;l -->
<g id="edge17" class="edge"><title>h&#45;&#45;l</title>
<path fill="none" stroke="black" d="M322.513,-196.593C334.718,-193.403 349.431,-189.558 361.619,-186.372"/>
</g>
<!-- i&#45;&#45;j -->
<g id="edge18" class="edge"><title>i&#45;&#45;j</title>
<path fill="none" stroke="black" d="M297,-130.79C297,-124.907 297,-119.024 297,-113.141"/>
</g>
<!-- i&#45;&#45;l -->
<g id="edge19" class="edge"><title>i&#45;&#45;l</title>
<path fill="none" stroke="black" d="M321.121,-157.145C333.954,-161.666 349.871,-167.273 362.728,-171.802"/>
</g>
<!-- m -->
<g id="node14" class="node"><title>m</title>
<ellipse fill="none" stroke="black" cx="387" cy="-126" rx="27" ry="18"/>
<text text-anchor="middle" x="387" y="-122.3" font-family="Times New Roman,serif" font-size="14.00">m</text>
</g>
<!-- i&#45;&#45;m -->
<g id="edge20" class="edge"><title>i&#45;&#45;m</title>
<path fill="none" stroke="black" d="M322.513,-142.593C334.718,-139.403 349.431,-135.558 361.619,-132.372"/>
</g>
<!-- j&#45;&#45;k -->
<g id="edge21" class="edge"><title>j&#45;&#45;k</title>
<path fill="none" stroke="black" d="M297,-76.7902C297,-70.907 297,-65.0238 297,-59.1406"/>
</g>
<!-- j&#45;&#45;m -->
<g id="edge22" class="edge"><title>j&#45;&#45;m</title>
<path fill="none" stroke="black" d="M321.121,-103.145C333.954,-107.666 349.871,-113.273 362.728,-117.802"/>
</g>
<!-- n -->
<g id="node15" class="node"><title>n</title>
<ellipse fill="none" stroke="black" cx="387" cy="-72" rx="27" ry="18"/>
<text text-anchor="middle" x="387" y="-68.3" font-family="Times New Roman,serif" font-size="14.00">n</text>
</g>
<!-- j&#45;&#45;n -->
<g id="edge23" class="edge"><title>j&#45;&#45;n</title>
<path fill="none" stroke="black" d="M322.513,-88.5932C334.718,-85.4031 349.431,-81.5578 361.619,-78.3724"/>
</g>
<!-- k&#45;&#45;n -->
<g id="edge24" class="edge"><title>k&#45;&#45;n</title>
<path fill="none" stroke="black" d="M321.121,-49.1449C333.954,-53.6655 349.871,-59.2728 362.728,-63.8019"/>
</g>
<!-- r -->
<g id="node16" class="node"><title>r</title>
<ellipse fill="none" stroke="black" cx="477" cy="-18" rx="27" ry="18"/>
<text text-anchor="middle" x="477" y="-14.3" font-family="Times New Roman,serif" font-size="14.00">r</text>
</g>
<!-- k&#45;&#45;r -->
<g id="edge25" class="edge"><title>k&#45;&#45;r</title>
<path fill="none" stroke="black" d="M323.883,-37.6556C357.727,-33.2825 416.659,-25.6677 450.375,-21.3111"/>
</g>
<!-- p -->
<g id="node17" class="node"><title>p</title>
<ellipse fill="none" stroke="black" cx="477" cy="-126" rx="27" ry="18"/>
<text text-anchor="middle" x="477" y="-122.3" font-family="Times New Roman,serif" font-size="14.00">p</text>
</g>
<!-- o&#45;&#45;p -->
<g id="edge33" class="edge"><title>o&#45;&#45;p</title>
<path fill="none" stroke="black" d="M477,-161.79C477,-155.907 477,-150.024 477,-144.141"/>
</g>
<!-- s -->
<g id="node19" class="node"><title>s</title>
<ellipse fill="none" stroke="black" cx="567" cy="-126" rx="27" ry="18"/>
<text text-anchor="middle" x="567" y="-122.3" font-family="Times New Roman,serif" font-size="14.00">s</text>
</g>
<!-- o&#45;&#45;s -->
<g id="edge34" class="edge"><title>o&#45;&#45;s</title>
<path fill="none" stroke="black" d="M497.53,-168.016C512.113,-159.067 531.955,-146.892 546.525,-137.951"/>
</g>
<!-- l&#45;&#45;o -->
<g id="edge26" class="edge"><title>l&#45;&#45;o</title>
<path fill="none" stroke="black" d="M414.403,-180C425.642,-180 438.715,-180 449.919,-180"/>
</g>
<!-- l&#45;&#45;m -->
<g id="edge27" class="edge"><title>l&#45;&#45;m</title>
<path fill="none" stroke="black" d="M387,-161.79C387,-155.907 387,-150.024 387,-144.141"/>
</g>
<!-- m&#45;&#45;o -->
<g id="edge28" class="edge"><title>m&#45;&#45;o</title>
<path fill="none" stroke="black" d="M407.53,-137.984C422.113,-146.933 441.955,-159.108 456.525,-168.049"/>
</g>
<!-- m&#45;&#45;n -->
<g id="edge29" class="edge"><title>m&#45;&#45;n</title>
<path fill="none" stroke="black" d="M387,-107.79C387,-101.907 387,-96.0238 387,-90.1406"/>
</g>
<!-- m&#45;&#45;p -->
<g id="edge30" class="edge"><title>m&#45;&#45;p</title>
<path fill="none" stroke="black" d="M414.403,-126C425.642,-126 438.715,-126 449.919,-126"/>
</g>
<!-- n&#45;&#45;r -->
<g id="edge31" class="edge"><title>n&#45;&#45;r</title>
<path fill="none" stroke="black" d="M407.53,-60.0156C422.113,-51.0669 441.955,-38.8915 456.525,-29.9508"/>
</g>
<!-- q -->
<g id="node18" class="node"><title>q</title>
<ellipse fill="none" stroke="black" cx="477" cy="-72" rx="27" ry="18"/>
<text text-anchor="middle" x="477" y="-68.3" font-family="Times New Roman,serif" font-size="14.00">q</text>
</g>
<!-- n&#45;&#45;q -->
<g id="edge32" class="edge"><title>n&#45;&#45;q</title>
<path fill="none" stroke="black" d="M414.403,-72C425.642,-72 438.715,-72 449.919,-72"/>
</g>
<!-- t -->
<g id="node20" class="node"><title>t</title>
<ellipse fill="none" stroke="black" cx="567" cy="-72" rx="27" ry="18"/>
<text text-anchor="middle" x="567" y="-68.3" font-family="Times New Roman,serif" font-size="14.00">t</text>
</g>
<!-- r&#45;&#45;t -->
<g id="edge40" class="edge"><title>r&#45;&#45;t</title>
<path fill="none" stroke="black" d="M497.53,-29.9844C512.113,-38.9331 531.955,-51.1085 546.525,-60.0492"/>
</g>
<!-- p&#45;&#45;q -->
<g id="edge35" class="edge"><title>p&#45;&#45;q</title>
<path fill="none" stroke="black" d="M477,-107.79C477,-101.907 477,-96.0238 477,-90.1406"/>
</g>
<!-- p&#45;&#45;s -->
<g id="edge36" class="edge"><title>p&#45;&#45;s</title>
<path fill="none" stroke="black" d="M504.403,-126C515.642,-126 528.715,-126 539.919,-126"/>
</g>
<!-- p&#45;&#45;t -->
<g id="edge37" class="edge"><title>p&#45;&#45;t</title>
<path fill="none" stroke="black" d="M497.53,-114.016C512.113,-105.067 531.955,-92.8915 546.525,-83.9508"/>
</g>
<!-- q&#45;&#45;r -->
<g id="edge38" class="edge"><title>q&#45;&#45;r</title>
<path fill="none" stroke="black" d="M477,-53.7902C477,-47.907 477,-42.0238 477,-36.1406"/>
</g>
<!-- q&#45;&#45;t -->
<g id="edge39" class="edge"><title>q&#45;&#45;t</title>
<path fill="none" stroke="black" d="M504.403,-72C515.642,-72 528.715,-72 539.919,-72"/>
</g>
<!-- z -->
<g id="node21" class="node"><title>z</title>
<ellipse fill="none" stroke="black" cx="657" cy="-99" rx="27" ry="18"/>
<text text-anchor="middle" x="657" y="-95.3" font-family="Times New Roman,serif" font-size="14.00">z</text>
</g>
<!-- s&#45;&#45;z -->
<g id="edge41" class="edge"><title>s&#45;&#45;z</title>
<path fill="none" stroke="black" d="M592.046,-118.622C604.565,-114.781 619.818,-110.101 632.287,-106.275"/>
</g>
<!-- t&#45;&#45;z -->
<g id="edge42" class="edge"><title>t&#45;&#45;z</title>
<path fill="none" stroke="black" d="M592.046,-79.3779C604.565,-83.2188 619.818,-87.8986 632.287,-91.7245"/>
</g>
</g>
</svg>
