<?xml version="1.0" encoding="UTF-8" standalone="no"?>
<!DOCTYPE svg PUBLIC "-//W3C//DTD SVG 1.1//EN"
 "http://www.w3.org/Graphics/SVG/1.1/DTD/svg11.dtd">
<!-- Generated by graphviz version 2.38.0 (20140413.2041)
 -->
<!-- Title: g Pages: 1 -->
<svg width="487pt" height="44pt"
 viewBox="0.00 0.00 486.88 44.00" xmlns="http://www.w3.org/2000/svg" xmlns:xlink="http://www.w3.org/1999/xlink">
<g id="graph0" class="graph" transform="scale(1 1) rotate(0) translate(4 40)">
<title>g</title>
<polygon fill="white" stroke="none" points="-4,4 -4,-40 482.885,-40 482.885,4 -4,4"/>
<!-- webgraphviz -->
<g id="node1" class="node"><title>webgraphviz</title>
<ellipse fill="none" stroke="black" cx="56.545" cy="-18" rx="56.59" ry="18"/>
<text text-anchor="middle" x="56.545" y="-14.3" font-family="Times New Roman,serif" font-size="14.00">webgraphviz</text>
</g>
<!-- @ -->
<g id="node2" class="node"><title>@</title>
<ellipse fill="none" stroke="black" cx="176.09" cy="-18" rx="27" ry="18"/>
<text text-anchor="middle" x="176.09" y="-14.3" font-family="Times New Roman,serif" font-size="14.00">@</text>
</g>
<!-- webgraphviz&#45;&gt;@ -->
<g id="edge1" class="edge"><title>webgraphviz&#45;&gt;@</title>
<path fill="none" stroke="black" d="M113.219,-18C121.884,-18 130.638,-18 138.727,-18"/>
<polygon fill="black" stroke="black" points="138.913,-21.5001 148.913,-18 138.913,-14.5001 138.913,-21.5001"/>
</g>
<!-- gmail -->
<g id="node3" class="node"><title>gmail</title>
<ellipse fill="none" stroke="black" cx="268.987" cy="-18" rx="29.795" ry="18"/>
<text text-anchor="middle" x="268.987" y="-14.3" font-family="Times New Roman,serif" font-size="14.00">gmail</text>
</g>
<!-- @&#45;&gt;gmail -->
<g id="edge2" class="edge"><title>@&#45;&gt;gmail</title>
<path fill="none" stroke="black" d="M203.381,-18C211.284,-18 220.132,-18 228.685,-18"/>
<polygon fill="black" stroke="black" points="228.887,-21.5001 238.887,-18 228.887,-14.5001 228.887,-21.5001"/>
</g>
<!-- . -->
<g id="node4" class="node"><title>.</title>
<ellipse fill="none" stroke="black" cx="361.885" cy="-18" rx="27" ry="18"/>
<text text-anchor="middle" x="361.885" y="-14.3" font-family="Times New Roman,serif" font-size="14.00">.</text>
</g>
<!-- gmail&#45;&gt;. -->
<g id="edge3" class="edge"><title>gmail&#45;&gt;.</title>
<path fill="none" stroke="black" d="M298.998,-18C307.124,-18 316.061,-18 324.554,-18"/>
<polygon fill="black" stroke="black" points="324.611,-21.5001 334.611,-18 324.611,-14.5001 324.611,-21.5001"/>
</g>
<!-- com -->
<g id="node5" class="node"><title>com</title>
<ellipse fill="none" stroke="black" cx="451.885" cy="-18" rx="27" ry="18"/>
<text text-anchor="middle" x="451.885" y="-14.3" font-family="Times New Roman,serif" font-size="14.00">com</text>
</g>
<!-- .&#45;&gt;com -->
<g id="edge4" class="edge"><title>.&#45;&gt;com</title>
<path fill="none" stroke="black" d="M389.288,-18C397.278,-18 406.195,-18 414.709,-18"/>
<polygon fill="black" stroke="black" points="414.804,-21.5001 424.804,-18 414.804,-14.5001 414.804,-21.5001"/>
</g>
</g>
</svg>
