<?xml version="1.0" encoding="UTF-8" standalone="no"?>
<!DOCTYPE svg PUBLIC "-//W3C//DTD SVG 1.1//EN"
 "http://www.w3.org/Graphics/SVG/1.1/DTD/svg11.dtd">
<!-- Generated by graphviz version 2.38.0 (20140413.2041)
 -->
<!-- Title: prof Pages: 1 -->
<svg width="1999pt" height="620pt"
 viewBox="0.00 0.00 1998.74 620.00" xmlns="http://www.w3.org/2000/svg" xmlns:xlink="http://www.w3.org/1999/xlink">
<g id="graph0" class="graph" transform="scale(1 1) rotate(0) translate(4 616)">
<title>prof</title>
<polygon fill="white" stroke="none" points="-4,4 -4,-616 1994.74,-616 1994.74,4 -4,4"/>
<!-- start -->
<g id="node1" class="node"><title>start</title>
<ellipse fill="lightgrey" stroke="black" cx="1141.15" cy="-594" rx="27" ry="18"/>
<text text-anchor="middle" x="1141.15" y="-590.3" font-family="Times New Roman,serif" font-size="14.00">start</text>
</g>
<!-- main -->
<g id="node2" class="node"><title>main</title>
<ellipse fill="#ccd1ff" stroke="#ccd1ff" cx="969.147" cy="-450" rx="27.8951" ry="18"/>
<text text-anchor="middle" x="969.147" y="-446.3" font-family="Times New Roman,serif" font-size="14.00">main</text>
</g>
<!-- start&#45;&gt;main -->
<g id="edge1" class="edge"><title>start&#45;&gt;main</title>
<path fill="none" stroke="#fe0300" d="M1124.65,-579.384C1094.22,-554.257 1029.09,-500.488 993.537,-471.136"/>
<polygon fill="#fe0300" stroke="#fe0300" points="995.529,-468.242 985.589,-464.574 991.072,-473.64 995.529,-468.242"/>
</g>
<!-- on_exit -->
<g id="node3" class="node"><title>on_exit</title>
<ellipse fill="#ccd1ff" stroke="#ccd1ff" cx="1470.15" cy="-522" rx="37.8943" ry="18"/>
<text text-anchor="middle" x="1470.15" y="-518.3" font-family="Times New Roman,serif" font-size="14.00">on_exit</text>
</g>
<!-- start&#45;&gt;on_exit -->
<g id="edge2" class="edge"><title>start&#45;&gt;on_exit</title>
<path fill="none" stroke="#3542b2" d="M1166.42,-587.623C1222.28,-575.738 1356.82,-547.113 1426.57,-532.272"/>
<polygon fill="#3542b2" stroke="#3542b2" points="1427.32,-535.691 1436.37,-530.186 1425.86,-528.844 1427.32,-535.691"/>
</g>
<!-- sort -->
<g id="node4" class="node"><title>sort</title>
<ellipse fill="#80ffb8" stroke="#80ffb8" cx="337.147" cy="-378" rx="27" ry="18"/>
<text text-anchor="middle" x="337.147" y="-374.3" font-family="Times New Roman,serif" font-size="14.00">sort</text>
</g>
<!-- main&#45;&gt;sort -->
<g id="edge3" class="edge"><title>main&#45;&gt;sort</title>
<path fill="none" stroke="#22d532" d="M940.961,-449.471C855.093,-450.273 589.716,-448.055 378.147,-396 374.752,-395.165 371.272,-394.091 367.845,-392.891"/>
<polygon fill="#22d532" stroke="#22d532" points="369.026,-389.595 358.436,-389.262 366.507,-396.126 369.026,-389.595"/>
</g>
<!-- merge -->
<g id="node5" class="node"><title>merge</title>
<ellipse fill="#bdd6ff" stroke="#bdd6ff" cx="452.147" cy="-378" rx="32.4942" ry="18"/>
<text text-anchor="middle" x="452.147" y="-374.3" font-family="Times New Roman,serif" font-size="14.00">merge</text>
</g>
<!-- main&#45;&gt;merge -->
<g id="edge4" class="edge"><title>main&#45;&gt;merge</title>
<path fill="none" stroke="#2eb4c2" d="M942.079,-445.335C857.112,-433.831 595.308,-398.384 493.369,-384.581"/>
<polygon fill="#2eb4c2" stroke="#2eb4c2" points="493.825,-381.111 483.445,-383.238 492.885,-388.048 493.825,-381.111"/>
</g>
<!-- term -->
<g id="node6" class="node"><title>term</title>
<ellipse fill="#ccd1ff" stroke="#ccd1ff" cx="825.147" cy="-378" rx="27" ry="18"/>
<text text-anchor="middle" x="825.147" y="-374.3" font-family="Times New Roman,serif" font-size="14.00">term</text>
</g>
<!-- main&#45;&gt;term -->
<g id="edge5" class="edge"><title>main&#45;&gt;term</title>
<path fill="none" stroke="#3544b3" d="M947.589,-438.52C923.165,-426.647 883.178,-407.209 855.581,-393.794"/>
<polygon fill="#3544b3" stroke="#3544b3" points="856.907,-390.547 846.383,-389.323 853.846,-396.843 856.907,-390.547"/>
</g>
<!-- signal -->
<g id="node7" class="node"><title>signal</title>
<ellipse fill="#cad1ff" stroke="#cad1ff" cx="1148.15" cy="-306" rx="31.3957" ry="18"/>
<text text-anchor="middle" x="1148.15" y="-302.3" font-family="Times New Roman,serif" font-size="14.00">signal</text>
</g>
<!-- main&#45;&gt;signal -->
<g id="edge6" class="edge"><title>main&#45;&gt;signal</title>
<path fill="none" stroke="#3542b2" d="M997.208,-448.089C1062.02,-445.335 1219.02,-434.724 1251.15,-396 1261.36,-383.686 1259.48,-373.659 1251.15,-360 1237.19,-337.119 1209.85,-323.697 1186.84,-316.087"/>
<polygon fill="#3542b2" stroke="#3542b2" points="1187.55,-312.646 1176.97,-313.079 1185.51,-319.342 1187.55,-312.646"/>
</g>
<!-- sbrk -->
<g id="node8" class="node"><title>sbrk</title>
<ellipse fill="#cad1ff" stroke="#cad1ff" cx="1631.15" cy="-90" rx="27" ry="18"/>
<text text-anchor="middle" x="1631.15" y="-86.3" font-family="Times New Roman,serif" font-size="14.00">sbrk</text>
</g>
<!-- main&#45;&gt;sbrk -->
<g id="edge7" class="edge"><title>main&#45;&gt;sbrk</title>
<path fill="none" stroke="#3542b2" d="M997.31,-448.331C1108.29,-445.446 1511.4,-432.512 1554.15,-396 1637.02,-325.208 1637.48,-179.422 1633.65,-118.599"/>
<polygon fill="#3542b2" stroke="#3542b2" points="1637.12,-117.991 1632.91,-108.269 1630.14,-118.494 1637.12,-117.991"/>
</g>
<!-- unlink -->
<g id="node9" class="node"><title>unlink</title>
<ellipse fill="#c5d2ff" stroke="#c5d2ff" cx="818.147" cy="-306" rx="32.4942" ry="18"/>
<text text-anchor="middle" x="818.147" y="-302.3" font-family="Times New Roman,serif" font-size="14.00">unlink</text>
</g>
<!-- main&#45;&gt;unlink -->
<g id="edge8" class="edge"><title>main&#45;&gt;unlink</title>
<path fill="none" stroke="#3542b2" d="M941.4,-447.425C881.904,-443.407 745.179,-430.54 717.147,-396 707.065,-383.576 708.869,-373.692 717.147,-360 724.675,-347.549 756.841,-331.928 782.879,-320.879"/>
<polygon fill="#3542b2" stroke="#3542b2" points="784.248,-324.101 792.138,-317.03 781.56,-317.637 784.248,-324.101"/>
</g>
<!-- newfile -->
<g id="node10" class="node"><title>newfile</title>
<ellipse fill="#ccd1ff" stroke="#ccd1ff" cx="694.147" cy="-306" rx="36.2938" ry="18"/>
<text text-anchor="middle" x="694.147" y="-302.3" font-family="Times New Roman,serif" font-size="14.00">newfile</text>
</g>
<!-- main&#45;&gt;newfile -->
<g id="edge9" class="edge"><title>main&#45;&gt;newfile</title>
<path fill="none" stroke="#3542b2" d="M941.145,-447.307C880.31,-443.024 738.975,-429.614 707.147,-396 691.838,-379.832 689.55,-354.062 690.527,-334.404"/>
<polygon fill="#3542b2" stroke="#3542b2" points="694.034,-334.459 691.344,-324.211 687.056,-333.899 694.034,-334.459"/>
</g>
<!-- fclose -->
<g id="node11" class="node"><title>fclose</title>
<ellipse fill="#ccd1ff" stroke="#ccd1ff" cx="346.147" cy="-306" rx="32.4942" ry="18"/>
<text text-anchor="middle" x="346.147" y="-302.3" font-family="Times New Roman,serif" font-size="14.00">fclose</text>
</g>
<!-- main&#45;&gt;fclose -->
<g id="edge10" class="edge"><title>main&#45;&gt;fclose</title>
<path fill="none" stroke="#3542b2" d="M940.978,-449.318C840.819,-449.996 503.018,-448.279 411.147,-396 386.311,-381.867 368.331,-353.934 357.66,-333.112"/>
<polygon fill="#3542b2" stroke="#3542b2" points="360.668,-331.295 353.142,-323.837 354.375,-334.36 360.668,-331.295"/>
</g>
<!-- close -->
<g id="node12" class="node"><title>close</title>
<ellipse fill="#ccd1ff" stroke="#ccd1ff" cx="600.147" cy="-234" rx="29.795" ry="18"/>
<text text-anchor="middle" x="600.147" y="-230.3" font-family="Times New Roman,serif" font-size="14.00">close</text>
</g>
<!-- main&#45;&gt;close -->
<g id="edge11" class="edge"><title>main&#45;&gt;close</title>
<path fill="none" stroke="#3542b2" d="M941.398,-446.774C878.717,-441.277 728.506,-425.334 688.147,-396 642.415,-362.761 617.797,-298.227 606.998,-261.766"/>
<polygon fill="#3542b2" stroke="#3542b2" points="610.283,-260.519 604.197,-251.847 603.546,-262.422 610.283,-260.519"/>
</g>
<!-- brk -->
<g id="node13" class="node"><title>brk</title>
<ellipse fill="#ccd1ff" stroke="#ccd1ff" cx="753.147" cy="-378" rx="27" ry="18"/>
<text text-anchor="middle" x="753.147" y="-374.3" font-family="Times New Roman,serif" font-size="14.00">brk</text>
</g>
<!-- main&#45;&gt;brk -->
<g id="edge12" class="edge"><title>main&#45;&gt;brk</title>
<path fill="none" stroke="#3542b2" d="M943.398,-442.759C908.084,-433.899 842.882,-416.457 789.147,-396 787.306,-395.299 785.429,-394.544 783.546,-393.754"/>
<polygon fill="#3542b2" stroke="#3542b2" points="784.791,-390.478 774.231,-389.623 781.953,-396.877 784.791,-390.478"/>
</g>
<!-- setbuf -->
<g id="node14" class="node"><title>setbuf</title>
<ellipse fill="#ccd1ff" stroke="#ccd1ff" cx="33.1471" cy="-306" rx="33.2948" ry="18"/>
<text text-anchor="middle" x="33.1471" y="-302.3" font-family="Times New Roman,serif" font-size="14.00">setbuf</text>
</g>
<!-- main&#45;&gt;setbuf -->
<g id="edge13" class="edge"><title>main&#45;&gt;setbuf</title>
<path fill="none" stroke="#3542b2" d="M941.134,-449.18C848.711,-449.266 545.435,-445.495 301.147,-396 215.108,-378.568 118.312,-341.979 67.9026,-321.561"/>
<polygon fill="#3542b2" stroke="#3542b2" points="69.0371,-318.243 58.456,-317.703 66.3907,-324.724 69.0371,-318.243"/>
</g>
<!-- copyproto -->
<g id="node15" class="node"><title>copyproto</title>
<ellipse fill="#ccd1ff" stroke="#ccd1ff" cx="919.147" cy="-378" rx="49.2915" ry="18"/>
<text text-anchor="middle" x="919.147" y="-374.3" font-family="Times New Roman,serif" font-size="14.00">copyproto</text>
</g>
<!-- main&#45;&gt;copyproto -->
<g id="edge14" class="edge"><title>main&#45;&gt;copyproto</title>
<path fill="none" stroke="#3542b2" d="M958.05,-433.465C951.909,-424.867 944.126,-413.97 937.138,-404.187"/>
<polygon fill="#3542b2" stroke="#3542b2" points="939.923,-402.065 931.263,-395.962 934.227,-406.133 939.923,-402.065"/>
</g>
<!-- initree -->
<g id="node16" class="node"><title>initree</title>
<ellipse fill="#ccd1ff" stroke="#ccd1ff" cx="1019.15" cy="-378" rx="32.4942" ry="18"/>
<text text-anchor="middle" x="1019.15" y="-374.3" font-family="Times New Roman,serif" font-size="14.00">initree</text>
</g>
<!-- main&#45;&gt;initree -->
<g id="edge15" class="edge"><title>main&#45;&gt;initree</title>
<path fill="none" stroke="#3542b2" d="M980.244,-433.465C986.563,-424.617 994.621,-413.337 1001.76,-403.339"/>
<polygon fill="#3542b2" stroke="#3542b2" points="1004.77,-405.149 1007.73,-394.977 999.074,-401.08 1004.77,-405.149"/>
</g>
<!-- safeoutfil -->
<g id="node17" class="node"><title>safeoutfil</title>
<ellipse fill="#ccd1ff" stroke="#ccd1ff" cx="1114.15" cy="-378" rx="44.393" ry="18"/>
<text text-anchor="middle" x="1114.15" y="-374.3" font-family="Times New Roman,serif" font-size="14.00">safeoutfil</text>
</g>
<!-- main&#45;&gt;safeoutfil -->
<g id="edge16" class="edge"><title>main&#45;&gt;safeoutfil</title>
<path fill="none" stroke="#3542b2" d="M990.855,-438.52C1013.75,-427.466 1050.23,-409.855 1077.58,-396.651"/>
<polygon fill="#3542b2" stroke="#3542b2" points="1079.36,-399.683 1086.84,-392.183 1076.31,-393.379 1079.36,-399.683"/>
</g>
<!-- getpid -->
<g id="node18" class="node"><title>getpid</title>
<ellipse fill="#ccd1ff" stroke="#ccd1ff" cx="1209.15" cy="-378" rx="33.2948" ry="18"/>
<text text-anchor="middle" x="1209.15" y="-374.3" font-family="Times New Roman,serif" font-size="14.00">getpid</text>
</g>
<!-- main&#45;&gt;getpid -->
<g id="edge17" class="edge"><title>main&#45;&gt;getpid</title>
<path fill="none" stroke="#3542b2" d="M995.078,-443.137C1033.19,-434.277 1106.41,-416.336 1167.15,-396 1169.56,-395.191 1172.04,-394.316 1174.52,-393.402"/>
<polygon fill="#3542b2" stroke="#3542b2" points="1175.93,-396.609 1184.02,-389.758 1173.43,-390.073 1175.93,-396.609"/>
</g>
<!-- sprintf -->
<g id="node19" class="node"><title>sprintf</title>
<ellipse fill="#ccd1ff" stroke="#ccd1ff" cx="1408.15" cy="-378" rx="34.394" ry="18"/>
<text text-anchor="middle" x="1408.15" y="-374.3" font-family="Times New Roman,serif" font-size="14.00">sprintf</text>
</g>
<!-- main&#45;&gt;sprintf -->
<g id="edge18" class="edge"><title>main&#45;&gt;sprintf</title>
<path fill="none" stroke="#3542b2" d="M996.958,-447.606C1062.22,-443.833 1229.89,-431.224 1365.15,-396 1367.75,-395.322 1370.41,-394.529 1373.07,-393.665"/>
<polygon fill="#3542b2" stroke="#3542b2" points="1374.31,-396.936 1382.57,-390.29 1371.97,-390.34 1374.31,-396.936"/>
</g>
<!-- creat -->
<g id="node20" class="node"><title>creat</title>
<ellipse fill="#ccd1ff" stroke="#ccd1ff" cx="1327.15" cy="-378" rx="28.6953" ry="18"/>
<text text-anchor="middle" x="1327.15" y="-374.3" font-family="Times New Roman,serif" font-size="14.00">creat</text>
</g>
<!-- main&#45;&gt;creat -->
<g id="edge19" class="edge"><title>main&#45;&gt;creat</title>
<path fill="none" stroke="#3542b2" d="M996.534,-446.348C1051.73,-440.577 1179.97,-425.01 1284.15,-396 1287.58,-395.045 1291.11,-393.911 1294.6,-392.688"/>
<polygon fill="#3542b2" stroke="#3542b2" points="1296.1,-395.864 1304.24,-389.083 1293.65,-389.308 1296.1,-395.864"/>
</g>
<!-- rem -->
<g id="node21" class="node"><title>rem</title>
<ellipse fill="#ccd1ff" stroke="#ccd1ff" cx="1053.15" cy="-162" rx="27" ry="18"/>
<text text-anchor="middle" x="1053.15" y="-158.3" font-family="Times New Roman,serif" font-size="14.00">rem</text>
</g>
<!-- main&#45;&gt;rem -->
<g id="edge20" class="edge"><title>main&#45;&gt;rem</title>
<path fill="none" stroke="#3542b2" d="M997.086,-448.542C1106.21,-446.471 1499.49,-436.245 1536.15,-396 1561.16,-368.54 1524.43,-257.369 1464.15,-216 1395.12,-168.632 1169.87,-202.204 1089.15,-180 1087.2,-179.464 1085.22,-178.828 1083.26,-178.123"/>
<polygon fill="#3542b2" stroke="#3542b2" points="1084.2,-174.725 1073.62,-174.153 1081.53,-181.198 1084.2,-174.725"/>
</g>
<!-- oldfile -->
<g id="node22" class="node"><title>oldfile</title>
<ellipse fill="#ccd1ff" stroke="#ccd1ff" cx="1494.15" cy="-378" rx="33.2948" ry="18"/>
<text text-anchor="middle" x="1494.15" y="-374.3" font-family="Times New Roman,serif" font-size="14.00">oldfile</text>
</g>
<!-- main&#45;&gt;oldfile -->
<g id="edge21" class="edge"><title>main&#45;&gt;oldfile</title>
<path fill="none" stroke="#3542b2" d="M997.043,-448.52C1071.76,-446.683 1282.21,-437.88 1451.15,-396 1454,-395.294 1456.91,-394.442 1459.81,-393.502"/>
<polygon fill="#3542b2" stroke="#3542b2" points="1461.26,-396.699 1469.5,-390.042 1458.91,-390.106 1461.26,-396.699"/>
</g>
<!-- malloc -->
<g id="node44" class="node"><title>malloc</title>
<ellipse fill="#ccd1ff" stroke="#ccd1ff" cx="1667.15" cy="-450" rx="34.394" ry="18"/>
<text text-anchor="middle" x="1667.15" y="-446.3" font-family="Times New Roman,serif" font-size="14.00">malloc</text>
</g>
<!-- on_exit&#45;&gt;malloc -->
<g id="edge71" class="edge"><title>on_exit&#45;&gt;malloc</title>
<path fill="none" stroke="#29d820" d="M1498.83,-510.317C1504.56,-508.206 1510.54,-506.02 1516.15,-504 1554.66,-490.125 1598.86,-474.665 1629.45,-464.04"/>
<polygon fill="#29d820" stroke="#29d820" points="1630.97,-467.217 1639.27,-460.632 1628.67,-460.604 1630.97,-467.217"/>
</g>
<!-- sort&#45;&gt;newfile -->
<g id="edge24" class="edge"><title>sort&#45;&gt;newfile</title>
<path fill="none" stroke="#3542b2" d="M362.087,-370.958C376.406,-367.568 394.746,-363.358 411.147,-360 499.629,-341.884 522.456,-341.062 611.147,-324 624.14,-321.5 638.25,-318.659 651.087,-316.023"/>
<polygon fill="#3542b2" stroke="#3542b2" points="651.978,-319.413 661.064,-313.965 650.563,-312.558 651.978,-319.413"/>
</g>
<!-- sort&#45;&gt;fclose -->
<g id="edge25" class="edge"><title>sort&#45;&gt;fclose</title>
<path fill="none" stroke="#3542b2" d="M339.326,-360.055C340.317,-352.346 341.515,-343.027 342.629,-334.364"/>
<polygon fill="#3542b2" stroke="#3542b2" points="346.122,-334.64 343.926,-324.275 339.179,-333.747 346.122,-334.64"/>
</g>
<!-- sort&#45;&gt;setbuf -->
<g id="edge26" class="edge"><title>sort&#45;&gt;setbuf</title>
<path fill="none" stroke="#3542b2" d="M310.95,-372.878C264.133,-365.23 163.229,-347.461 80.1471,-324 76.5094,-322.973 72.7487,-321.803 69.0123,-320.569"/>
<polygon fill="#3542b2" stroke="#3542b2" points="69.8744,-317.163 59.2796,-317.205 67.5878,-323.78 69.8744,-317.163"/>
</g>
<!-- msort -->
<g id="node23" class="node"><title>msort</title>
<ellipse fill="#b9d9ff" stroke="#b9d9ff" cx="264.147" cy="-306" rx="31.6951" ry="18"/>
<text text-anchor="middle" x="264.147" y="-302.3" font-family="Times New Roman,serif" font-size="14.00">msort</text>
</g>
<!-- sort&#45;&gt;msort -->
<g id="edge22" class="edge"><title>sort&#45;&gt;msort</title>
<path fill="none" stroke="#3459b6" d="M322.374,-362.834C312.19,-353.069 298.457,-339.9 286.886,-328.805"/>
<polygon fill="#3459b6" stroke="#3459b6" points="289.294,-326.264 279.654,-321.869 284.449,-331.317 289.294,-326.264"/>
</g>
<!-- filbuf -->
<g id="node24" class="node"><title>filbuf</title>
<ellipse fill="#c8d1ff" stroke="#c8d1ff" cx="102.147" cy="-234" rx="29.795" ry="18"/>
<text text-anchor="middle" x="102.147" y="-230.3" font-family="Times New Roman,serif" font-size="14.00">filbuf</text>
</g>
<!-- sort&#45;&gt;filbuf -->
<g id="edge23" class="edge"><title>sort&#45;&gt;filbuf</title>
<path fill="none" stroke="#3542b2" d="M310.308,-374.437C256.704,-368.739 139.285,-353.165 113.147,-324 98.3305,-307.467 96.6069,-281.74 97.9876,-262.189"/>
<polygon fill="#3542b2" stroke="#3542b2" points="101.488,-262.363 99.0105,-252.061 94.5232,-261.659 101.488,-262.363"/>
</g>
<!-- setfil -->
<g id="node25" class="node"><title>setfil</title>
<ellipse fill="#ccd1ff" stroke="#ccd1ff" cx="759.147" cy="-234" rx="27.8951" ry="18"/>
<text text-anchor="middle" x="759.147" y="-230.3" font-family="Times New Roman,serif" font-size="14.00">setfil</text>
</g>
<!-- sort&#45;&gt;setfil -->
<g id="edge27" class="edge"><title>sort&#45;&gt;setfil</title>
<path fill="none" stroke="#3542b2" d="M357.787,-366.079C393.701,-347.497 470.429,-309.645 539.147,-288 617.794,-263.228 642.57,-276.995 721.147,-252 723.413,-251.279 725.725,-250.463 728.033,-249.587"/>
<polygon fill="#3542b2" stroke="#3542b2" points="729.453,-252.787 737.372,-245.749 726.792,-246.313 729.453,-252.787"/>
</g>
<!-- merge&#45;&gt;unlink -->
<g id="edge36" class="edge"><title>merge&#45;&gt;unlink</title>
<path fill="none" stroke="#3542b2" d="M483.908,-373.764C541.886,-367.411 668.452,-351.482 772.147,-324 775.732,-323.05 779.429,-321.931 783.096,-320.728"/>
<polygon fill="#3542b2" stroke="#3542b2" points="784.343,-324 792.635,-317.406 782.041,-317.389 784.343,-324"/>
</g>
<!-- merge&#45;&gt;fclose -->
<g id="edge38" class="edge"><title>merge&#45;&gt;fclose</title>
<path fill="none" stroke="#3542b2" d="M431.709,-363.503C415.475,-352.783 392.586,-337.668 374.567,-325.768"/>
<polygon fill="#3542b2" stroke="#3542b2" points="376.436,-322.808 366.163,-320.218 372.579,-328.649 376.436,-322.808"/>
</g>
<!-- merge&#45;&gt;setbuf -->
<g id="edge41" class="edge"><title>merge&#45;&gt;setbuf</title>
<path fill="none" stroke="#3542b2" d="M422.613,-370.099C407.814,-366.78 389.588,-362.903 373.147,-360 258.266,-339.715 228.054,-344.137 113.147,-324 100.015,-321.699 85.753,-318.798 72.9574,-316.048"/>
<polygon fill="#3542b2" stroke="#3542b2" points="73.5756,-312.601 63.0594,-313.889 72.0837,-319.44 73.5756,-312.601"/>
</g>
<!-- merge&#45;&gt;setfil -->
<g id="edge39" class="edge"><title>merge&#45;&gt;setfil</title>
<path fill="none" stroke="#3542b2" d="M484.355,-375.412C551.467,-371.433 703.048,-358.738 739.147,-324 755.591,-308.176 759.86,-281.967 760.449,-262.078"/>
<polygon fill="#3542b2" stroke="#3542b2" points="763.949,-262.067 760.46,-252.064 756.949,-262.06 763.949,-262.067"/>
</g>
<!-- insert -->
<g id="node27" class="node"><title>insert</title>
<ellipse fill="#ccd1ff" stroke="#ccd1ff" cx="522.147" cy="-234" rx="30.5947" ry="18"/>
<text text-anchor="middle" x="522.147" y="-230.3" font-family="Times New Roman,serif" font-size="14.00">insert</text>
</g>
<!-- merge&#45;&gt;insert -->
<g id="edge33" class="edge"><title>merge&#45;&gt;insert</title>
<path fill="none" stroke="#3542b2" d="M452.186,-359.938C452.893,-341.253 456.041,-310.9 468.147,-288 474.784,-275.446 485.444,-264.044 495.547,-255.059"/>
<polygon fill="#3542b2" stroke="#3542b2" points="498.057,-257.521 503.442,-248.396 493.543,-252.171 498.057,-257.521"/>
</g>
<!-- wline -->
<g id="node28" class="node"><title>wline</title>
<ellipse fill="#d7ff3e" stroke="#d7ff3e" cx="186.147" cy="-234" rx="29.4969" ry="18"/>
<text text-anchor="middle" x="186.147" y="-230.3" font-family="Times New Roman,serif" font-size="14.00">wline</text>
</g>
<!-- merge&#45;&gt;wline -->
<g id="edge35" class="edge"><title>merge&#45;&gt;wline</title>
<path fill="none" stroke="#3542b2" d="M422.34,-370.472C361.203,-357.032 226.993,-327.253 223.147,-324 204.737,-308.427 195.33,-282.186 190.623,-262.221"/>
<polygon fill="#3542b2" stroke="#3542b2" points="193.992,-261.233 188.515,-252.164 187.14,-262.669 193.992,-261.233"/>
</g>
<!-- cmpsave -->
<g id="node30" class="node"><title>cmpsave</title>
<ellipse fill="#ccd1ff" stroke="#ccd1ff" cx="392.147" cy="-234" rx="42.7926" ry="18"/>
<text text-anchor="middle" x="392.147" y="-230.3" font-family="Times New Roman,serif" font-size="14.00">cmpsave</text>
</g>
<!-- merge&#45;&gt;cmpsave -->
<g id="edge42" class="edge"><title>merge&#45;&gt;cmpsave</title>
<path fill="none" stroke="#3542b2" d="M445.029,-360.153C434.699,-335.706 415.459,-290.171 403.254,-261.286"/>
<polygon fill="#3542b2" stroke="#3542b2" points="406.372,-259.674 399.256,-251.825 399.924,-262.399 406.372,-259.674"/>
</g>
<!-- rline -->
<g id="node31" class="node"><title>rline</title>
<ellipse fill="#6fff82" stroke="#6fff82" cx="149.147" cy="-306" rx="27" ry="18"/>
<text text-anchor="middle" x="149.147" y="-302.3" font-family="Times New Roman,serif" font-size="14.00">rline</text>
</g>
<!-- merge&#45;&gt;rline -->
<g id="edge34" class="edge"><title>merge&#45;&gt;rline</title>
<path fill="none" stroke="#3542b2" d="M422.537,-370.498C407.719,-367.278 389.499,-363.367 373.147,-360 291.959,-343.28 269.491,-347.993 190.147,-324 186.975,-323.041 183.713,-321.924 180.479,-320.73"/>
<polygon fill="#3542b2" stroke="#3542b2" points="181.57,-317.399 170.983,-316.996 179.008,-323.913 181.57,-317.399"/>
</g>
<!-- fopen -->
<g id="node32" class="node"><title>fopen</title>
<ellipse fill="#ccd1ff" stroke="#ccd1ff" cx="680.147" cy="-234" rx="31.6951" ry="18"/>
<text text-anchor="middle" x="680.147" y="-230.3" font-family="Times New Roman,serif" font-size="14.00">fopen</text>
</g>
<!-- merge&#45;&gt;fopen -->
<g id="edge37" class="edge"><title>merge&#45;&gt;fopen</title>
<path fill="none" stroke="#3542b2" d="M464.002,-361.031C479.356,-341.361 507.881,-308.092 539.147,-288 578.886,-262.463 595.095,-269.051 639.147,-252 641.39,-251.132 643.696,-250.222 646.016,-249.295"/>
<polygon fill="#3542b2" stroke="#3542b2" points="647.56,-252.445 655.507,-245.439 644.925,-245.96 647.56,-252.445"/>
</g>
<!-- mul -->
<g id="node33" class="node"><title>mul</title>
<ellipse fill="#ccd1ff" stroke="#ccd1ff" cx="575.147" cy="-306" rx="27" ry="18"/>
<text text-anchor="middle" x="575.147" y="-302.3" font-family="Times New Roman,serif" font-size="14.00">mul</text>
</g>
<!-- merge&#45;&gt;mul -->
<g id="edge40" class="edge"><title>merge&#45;&gt;mul</title>
<path fill="none" stroke="#3542b2" d="M474.137,-364.485C494.211,-353.061 524.023,-336.095 546.06,-323.553"/>
<polygon fill="#3542b2" stroke="#3542b2" points="548.018,-326.466 554.978,-318.478 544.556,-320.383 548.018,-326.466"/>
</g>
<!-- term&#45;&gt;signal -->
<g id="edge51" class="edge"><title>term&#45;&gt;signal</title>
<path fill="none" stroke="#3542b2" d="M845.715,-366.172C850.67,-363.879 856.016,-361.654 861.147,-360 946.497,-332.482 1051.01,-317.681 1107.39,-311.166"/>
<polygon fill="#3542b2" stroke="#3542b2" points="1107.8,-314.642 1117.35,-310.045 1107.02,-307.686 1107.8,-314.642"/>
</g>
<!-- term&#45;&gt;unlink -->
<g id="edge50" class="edge"><title>term&#45;&gt;unlink</title>
<path fill="none" stroke="#3542b2" d="M823.417,-359.697C822.645,-351.983 821.718,-342.712 820.858,-334.112"/>
<polygon fill="#3542b2" stroke="#3542b2" points="824.335,-333.706 819.857,-324.104 817.37,-334.403 824.335,-333.706"/>
</g>
<!-- term&#45;&gt;setfil -->
<g id="edge52" class="edge"><title>term&#45;&gt;setfil</title>
<path fill="none" stroke="#3542b2" d="M846.289,-366.774C876.86,-351.939 929.917,-325.991 931.147,-324 939.559,-310.39 940.65,-300.872 931.147,-288 900.502,-246.49 837.829,-236.479 797.196,-234.602"/>
<polygon fill="#3542b2" stroke="#3542b2" points="797.227,-231.102 787.121,-234.282 797.005,-238.098 797.227,-231.102"/>
</g>
<!-- exit -->
<g id="node39" class="node"><title>exit</title>
<ellipse fill="#ccd1ff" stroke="#ccd1ff" cx="895.147" cy="-306" rx="27" ry="18"/>
<text text-anchor="middle" x="895.147" y="-302.3" font-family="Times New Roman,serif" font-size="14.00">exit</text>
</g>
<!-- term&#45;&gt;exit -->
<g id="edge53" class="edge"><title>term&#45;&gt;exit</title>
<path fill="none" stroke="#3542b2" d="M839.651,-362.496C849.412,-352.735 862.457,-339.69 873.447,-328.7"/>
<polygon fill="#3542b2" stroke="#3542b2" points="876.065,-331.031 880.662,-321.485 871.116,-326.082 876.065,-331.031"/>
</g>
<!-- sigvec -->
<g id="node53" class="node"><title>sigvec</title>
<ellipse fill="#ccd1ff" stroke="#ccd1ff" cx="1148.15" cy="-234" rx="33.5952" ry="18"/>
<text text-anchor="middle" x="1148.15" y="-230.3" font-family="Times New Roman,serif" font-size="14.00">sigvec</text>
</g>
<!-- signal&#45;&gt;sigvec -->
<g id="edge72" class="edge"><title>signal&#45;&gt;sigvec</title>
<path fill="none" stroke="#3542b2" d="M1148.15,-287.697C1148.15,-279.983 1148.15,-270.712 1148.15,-262.112"/>
<polygon fill="#3542b2" stroke="#3542b2" points="1151.65,-262.104 1148.15,-252.104 1144.65,-262.104 1151.65,-262.104"/>
</g>
<!-- newfile&#45;&gt;setfil -->
<g id="edge58" class="edge"><title>newfile&#45;&gt;setfil</title>
<path fill="none" stroke="#3542b2" d="M708.573,-289.465C717.276,-280.092 728.514,-267.99 738.185,-257.574"/>
<polygon fill="#3542b2" stroke="#3542b2" points="740.968,-259.721 745.208,-250.011 735.839,-254.958 740.968,-259.721"/>
</g>
<!-- newfile&#45;&gt;fopen -->
<g id="edge57" class="edge"><title>newfile&#45;&gt;fopen</title>
<path fill="none" stroke="#344db4" d="M690.758,-288.055C689.216,-280.346 687.352,-271.027 685.62,-262.364"/>
<polygon fill="#344db4" stroke="#344db4" points="688.995,-261.395 683.602,-252.275 682.131,-262.768 688.995,-261.395"/>
</g>
<!-- fclose&#45;&gt;close -->
<g id="edge60" class="edge"><title>fclose&#45;&gt;close</title>
<path fill="none" stroke="#3542b2" d="M376.693,-299.312C418.994,-291.03 497.505,-274.188 562.147,-252 564.044,-251.349 565.976,-250.639 567.914,-249.891"/>
<polygon fill="#3542b2" stroke="#3542b2" points="569.602,-252.981 577.507,-245.927 566.928,-246.511 569.602,-252.981"/>
</g>
<!-- fflush -->
<g id="node43" class="node"><title>fflush</title>
<ellipse fill="#ccd1ff" stroke="#ccd1ff" cx="357.147" cy="-162" rx="31.3957" ry="18"/>
<text text-anchor="middle" x="357.147" y="-158.3" font-family="Times New Roman,serif" font-size="14.00">fflush</text>
</g>
<!-- fclose&#45;&gt;fflush -->
<g id="edge59" class="edge"><title>fclose&#45;&gt;fflush</title>
<path fill="none" stroke="#3547b3" d="M375.463,-297.938C398.613,-290.649 429.391,-276.756 444.147,-252 452.339,-238.256 451.983,-229.95 444.147,-216 433.304,-196.698 412.263,-183.6 393.59,-175.254"/>
<polygon fill="#3547b3" stroke="#3547b3" points="394.685,-171.919 384.107,-171.315 392,-178.383 394.685,-171.919"/>
</g>
<!-- doprnt -->
<g id="node58" class="node"><title>doprnt</title>
<ellipse fill="#ccd1ff" stroke="#ccd1ff" cx="1408.15" cy="-306" rx="35.194" ry="18"/>
<text text-anchor="middle" x="1408.15" y="-302.3" font-family="Times New Roman,serif" font-size="14.00">doprnt</text>
</g>
<!-- sprintf&#45;&gt;doprnt -->
<g id="edge85" class="edge"><title>sprintf&#45;&gt;doprnt</title>
<path fill="none" stroke="#3542b2" d="M1408.15,-359.697C1408.15,-351.983 1408.15,-342.712 1408.15,-334.112"/>
<polygon fill="#3542b2" stroke="#3542b2" points="1411.65,-334.104 1408.15,-324.104 1404.65,-334.104 1411.65,-334.104"/>
</g>
<!-- qsort -->
<g id="node26" class="node"><title>qsort</title>
<ellipse fill="#8dffdc" stroke="#8dffdc" cx="263.147" cy="-234" rx="29.795" ry="18"/>
<text text-anchor="middle" x="263.147" y="-230.3" font-family="Times New Roman,serif" font-size="14.00">qsort</text>
</g>
<!-- msort&#45;&gt;qsort -->
<g id="edge28" class="edge"><title>msort&#45;&gt;qsort</title>
<path fill="none" stroke="#3542b2" d="M263.9,-287.697C263.79,-279.983 263.657,-270.712 263.534,-262.112"/>
<polygon fill="#3542b2" stroke="#3542b2" points="267.034,-262.053 263.391,-252.104 260.035,-262.153 267.034,-262.053"/>
</g>
<!-- msort&#45;&gt;insert -->
<g id="edge29" class="edge"><title>msort&#45;&gt;insert</title>
<path fill="none" stroke="#3542b2" d="M288.633,-294.13C294.016,-291.942 299.728,-289.774 305.147,-288 338.146,-277.2 431.149,-255.578 484.07,-243.557"/>
<polygon fill="#3542b2" stroke="#3542b2" points="485.11,-246.91 494.09,-241.287 483.564,-240.083 485.11,-246.91"/>
</g>
<!-- msort&#45;&gt;wline -->
<g id="edge30" class="edge"><title>msort&#45;&gt;wline</title>
<path fill="none" stroke="#3542b2" d="M247.605,-290.155C236.6,-280.278 221.976,-267.154 209.754,-256.186"/>
<polygon fill="#3542b2" stroke="#3542b2" points="211.912,-253.419 202.132,-249.345 207.236,-258.629 211.912,-253.419"/>
</g>
<!-- div -->
<g id="node29" class="node"><title>div</title>
<ellipse fill="#ccd1ff" stroke="#ccd1ff" cx="760.147" cy="-162" rx="27" ry="18"/>
<text text-anchor="middle" x="760.147" y="-158.3" font-family="Times New Roman,serif" font-size="14.00">div</text>
</g>
<!-- msort&#45;&gt;div -->
<g id="edge31" class="edge"><title>msort&#45;&gt;div</title>
<path fill="none" stroke="#3542b2" d="M275.413,-289.125C292.247,-265.908 323.736,-224.518 340.147,-216 492.29,-137.034 558.821,-225.28 724.147,-180 726.097,-179.466 728.071,-178.832 730.039,-178.128"/>
<polygon fill="#3542b2" stroke="#3542b2" points="731.762,-181.204 739.678,-174.162 729.099,-174.73 731.762,-181.204"/>
</g>
<!-- msort&#45;&gt;cmpsave -->
<g id="edge32" class="edge"><title>msort&#45;&gt;cmpsave</title>
<path fill="none" stroke="#3542b2" d="M286.151,-292.967C305.877,-282.179 335.134,-266.179 357.916,-253.72"/>
<polygon fill="#3542b2" stroke="#3542b2" points="359.827,-256.664 366.922,-248.795 356.469,-250.523 359.827,-256.664"/>
</g>
<!-- read -->
<g id="node38" class="node"><title>read</title>
<ellipse fill="#b5dcff" stroke="#b5dcff" cx="102.147" cy="-162" rx="27" ry="18"/>
<text text-anchor="middle" x="102.147" y="-158.3" font-family="Times New Roman,serif" font-size="14.00">read</text>
</g>
<!-- filbuf&#45;&gt;read -->
<g id="edge49" class="edge"><title>filbuf&#45;&gt;read</title>
<path fill="none" stroke="#3542b2" d="M102.147,-215.697C102.147,-207.983 102.147,-198.712 102.147,-190.112"/>
<polygon fill="#3542b2" stroke="#3542b2" points="105.647,-190.104 102.147,-180.104 98.6472,-190.104 105.647,-190.104"/>
</g>
<!-- setfil&#45;&gt;rem -->
<g id="edge78" class="edge"><title>setfil&#45;&gt;rem</title>
<path fill="none" stroke="#3542b2" d="M786.445,-229.576C834.145,-223.116 935.379,-207.269 1017.15,-180 1019.06,-179.36 1021.01,-178.645 1022.96,-177.88"/>
<polygon fill="#3542b2" stroke="#3542b2" points="1024.75,-180.921 1032.55,-173.753 1021.99,-174.49 1024.75,-180.921"/>
</g>
<!-- setfil&#45;&gt;div -->
<g id="edge77" class="edge"><title>setfil&#45;&gt;div</title>
<path fill="none" stroke="#3542b2" d="M759.394,-215.697C759.504,-207.983 759.637,-198.712 759.76,-190.112"/>
<polygon fill="#3542b2" stroke="#3542b2" points="763.259,-190.153 759.903,-180.104 756.26,-190.053 763.259,-190.153"/>
</g>
<!-- cmpa -->
<g id="node34" class="node"><title>cmpa</title>
<ellipse fill="#ff0000" stroke="#ff0000" cx="473.147" cy="-162" rx="30.5947" ry="18"/>
<text text-anchor="middle" x="473.147" y="-158.3" font-family="Times New Roman,serif" font-size="14.00">cmpa</text>
</g>
<!-- qsort&#45;&gt;cmpa -->
<g id="edge45" class="edge"><title>qsort&#45;&gt;cmpa</title>
<path fill="none" stroke="#3542b2" d="M287.718,-223.209C294.023,-220.779 300.814,-218.232 307.147,-216 351.363,-200.415 402.877,-184.277 436.65,-173.967"/>
<polygon fill="#3542b2" stroke="#3542b2" points="437.985,-177.219 446.535,-170.961 435.949,-170.522 437.985,-177.219"/>
</g>
<!-- insert&#45;&gt;cmpa -->
<g id="edge43" class="edge"><title>insert&#45;&gt;cmpa</title>
<path fill="none" stroke="#3542b2" d="M511.028,-217.116C504.826,-208.255 496.973,-197.037 490.028,-187.115"/>
<polygon fill="#3542b2" stroke="#3542b2" points="492.824,-185.006 484.222,-178.821 487.089,-189.021 492.824,-185.006"/>
</g>
<!-- getfreehdr -->
<g id="node47" class="node"><title>getfreehdr</title>
<ellipse fill="#ccd1ff" stroke="#ccd1ff" cx="961.147" cy="-162" rx="47.3916" ry="18"/>
<text text-anchor="middle" x="961.147" y="-158.3" font-family="Times New Roman,serif" font-size="14.00">getfreehdr</text>
</g>
<!-- insert&#45;&gt;getfreehdr -->
<g id="edge76" class="edge"><title>insert&#45;&gt;getfreehdr</title>
<path fill="none" stroke="#3542b2" d="M544.855,-221.837C550.105,-219.614 555.739,-217.505 561.147,-216 624.732,-198.307 811.435,-177.945 905.555,-168.429"/>
<polygon fill="#3542b2" stroke="#3542b2" points="906.139,-171.888 915.738,-167.405 905.439,-164.923 906.139,-171.888"/>
</g>
<!-- flsbuf -->
<g id="node35" class="node"><title>flsbuf</title>
<ellipse fill="#ccd1ff" stroke="#ccd1ff" cx="204.147" cy="-162" rx="31.6951" ry="18"/>
<text text-anchor="middle" x="204.147" y="-158.3" font-family="Times New Roman,serif" font-size="14.00">flsbuf</text>
</g>
<!-- wline&#45;&gt;flsbuf -->
<g id="edge44" class="edge"><title>wline&#45;&gt;flsbuf</title>
<path fill="none" stroke="#3542b2" d="M190.504,-216.055C192.509,-208.261 194.936,-198.822 197.184,-190.079"/>
<polygon fill="#3542b2" stroke="#3542b2" points="200.604,-190.832 199.705,-180.275 193.825,-189.089 200.604,-190.832"/>
</g>
<!-- rline&#45;&gt;filbuf -->
<g id="edge46" class="edge"><title>rline&#45;&gt;filbuf</title>
<path fill="none" stroke="#3542b2" d="M138.482,-289.116C132.676,-280.469 125.362,-269.575 118.821,-259.833"/>
<polygon fill="#3542b2" stroke="#3542b2" points="121.576,-257.658 113.096,-251.307 115.765,-261.56 121.576,-257.658"/>
</g>
<!-- endopen -->
<g id="node40" class="node"><title>endopen</title>
<ellipse fill="#ccd1ff" stroke="#ccd1ff" cx="582.147" cy="-162" rx="42.4939" ry="18"/>
<text text-anchor="middle" x="582.147" y="-158.3" font-family="Times New Roman,serif" font-size="14.00">endopen</text>
</g>
<!-- fopen&#45;&gt;endopen -->
<g id="edge55" class="edge"><title>fopen&#45;&gt;endopen</title>
<path fill="none" stroke="#354ab3" d="M661.252,-219.503C647.173,-209.447 627.68,-195.524 611.568,-184.015"/>
<polygon fill="#354ab3" stroke="#354ab3" points="613.192,-180.874 603.02,-177.909 609.123,-186.57 613.192,-180.874"/>
</g>
<!-- findiop -->
<g id="node42" class="node"><title>findiop</title>
<ellipse fill="#ccd1ff" stroke="#ccd1ff" cx="679.147" cy="-162" rx="36.2938" ry="18"/>
<text text-anchor="middle" x="679.147" y="-158.3" font-family="Times New Roman,serif" font-size="14.00">findiop</text>
</g>
<!-- fopen&#45;&gt;findiop -->
<g id="edge56" class="edge"><title>fopen&#45;&gt;findiop</title>
<path fill="none" stroke="#3542b2" d="M679.9,-215.697C679.79,-207.983 679.657,-198.712 679.534,-190.112"/>
<polygon fill="#3542b2" stroke="#3542b2" points="683.034,-190.053 679.391,-180.104 676.035,-190.153 683.034,-190.053"/>
</g>
<!-- xflsbuf -->
<g id="node36" class="node"><title>xflsbuf</title>
<ellipse fill="#ccd1ff" stroke="#ccd1ff" cx="281.147" cy="-90" rx="36.2938" ry="18"/>
<text text-anchor="middle" x="281.147" y="-86.3" font-family="Times New Roman,serif" font-size="14.00">xflsbuf</text>
</g>
<!-- flsbuf&#45;&gt;xflsbuf -->
<g id="edge48" class="edge"><title>flsbuf&#45;&gt;xflsbuf</title>
<path fill="none" stroke="#3542b2" d="M220.477,-146.155C231.124,-136.476 245.202,-123.678 257.116,-112.846"/>
<polygon fill="#3542b2" stroke="#3542b2" points="259.53,-115.382 264.575,-106.065 254.822,-110.202 259.53,-115.382"/>
</g>
<!-- write -->
<g id="node37" class="node"><title>write</title>
<ellipse fill="#9cfffe" stroke="#9cfffe" cx="281.147" cy="-18" rx="28.6953" ry="18"/>
<text text-anchor="middle" x="281.147" y="-14.3" font-family="Times New Roman,serif" font-size="14.00">write</text>
</g>
<!-- xflsbuf&#45;&gt;write -->
<g id="edge47" class="edge"><title>xflsbuf&#45;&gt;write</title>
<path fill="none" stroke="#3542b2" d="M281.147,-71.6966C281.147,-63.9827 281.147,-54.7125 281.147,-46.1124"/>
<polygon fill="#3542b2" stroke="#3542b2" points="284.647,-46.1043 281.147,-36.1043 277.647,-46.1044 284.647,-46.1043"/>
</g>
<!-- open -->
<g id="node41" class="node"><title>open</title>
<ellipse fill="#c8d1ff" stroke="#c8d1ff" cx="582.147" cy="-90" rx="28.6953" ry="18"/>
<text text-anchor="middle" x="582.147" y="-86.3" font-family="Times New Roman,serif" font-size="14.00">open</text>
</g>
<!-- endopen&#45;&gt;open -->
<g id="edge54" class="edge"><title>endopen&#45;&gt;open</title>
<path fill="none" stroke="#3542b2" d="M582.147,-143.697C582.147,-135.983 582.147,-126.712 582.147,-118.112"/>
<polygon fill="#3542b2" stroke="#3542b2" points="585.647,-118.104 582.147,-108.104 578.647,-118.104 585.647,-118.104"/>
</g>
<!-- fflush&#45;&gt;xflsbuf -->
<g id="edge61" class="edge"><title>fflush&#45;&gt;xflsbuf</title>
<path fill="none" stroke="#344db4" d="M341.029,-146.155C330.692,-136.633 317.077,-124.093 305.441,-113.376"/>
<polygon fill="#344db4" stroke="#344db4" points="307.494,-110.508 297.767,-106.308 302.751,-115.657 307.494,-110.508"/>
</g>
<!-- morecore -->
<g id="node45" class="node"><title>morecore</title>
<ellipse fill="#ccd1ff" stroke="#ccd1ff" cx="1667.15" cy="-378" rx="45.4919" ry="18"/>
<text text-anchor="middle" x="1667.15" y="-374.3" font-family="Times New Roman,serif" font-size="14.00">morecore</text>
</g>
<!-- malloc&#45;&gt;morecore -->
<g id="edge62" class="edge"><title>malloc&#45;&gt;morecore</title>
<path fill="none" stroke="#29d820" d="M1667.15,-431.697C1667.15,-423.983 1667.15,-414.712 1667.15,-406.112"/>
<polygon fill="#29d820" stroke="#29d820" points="1670.65,-406.104 1667.15,-396.104 1663.65,-406.104 1670.65,-406.104"/>
</g>
<!-- demote -->
<g id="node46" class="node"><title>demote</title>
<ellipse fill="#ccd1ff" stroke="#ccd1ff" cx="1768.15" cy="-378" rx="37.8943" ry="18"/>
<text text-anchor="middle" x="1768.15" y="-374.3" font-family="Times New Roman,serif" font-size="14.00">demote</text>
</g>
<!-- malloc&#45;&gt;demote -->
<g id="edge63" class="edge"><title>malloc&#45;&gt;demote</title>
<path fill="none" stroke="#3542b2" d="M1687.1,-435.17C1701.98,-424.856 1722.54,-410.612 1739.22,-399.049"/>
<polygon fill="#3542b2" stroke="#3542b2" points="1741.32,-401.855 1747.54,-393.282 1737.33,-396.101 1741.32,-401.855"/>
</g>
<!-- morecore&#45;&gt;sbrk -->
<g id="edge64" class="edge"><title>morecore&#45;&gt;sbrk</title>
<path fill="none" stroke="#3542b2" d="M1666.49,-359.915C1664.81,-321.214 1659.39,-224.004 1645.15,-144 1643.61,-135.34 1641.35,-126.026 1639.1,-117.657"/>
<polygon fill="#3542b2" stroke="#3542b2" points="1642.47,-116.714 1636.41,-108.027 1635.73,-118.6 1642.47,-116.714"/>
</g>
<!-- morecore&#45;&gt;getfreehdr -->
<g id="edge65" class="edge"><title>morecore&#45;&gt;getfreehdr</title>
<path fill="none" stroke="#3542b2" d="M1663.01,-359.834C1653.76,-325.577 1627.83,-249.18 1574.15,-216 1468.64,-150.784 1139.19,-202.162 1017.15,-180 1013.21,-179.285 1009.16,-178.388 1005.12,-177.382"/>
<polygon fill="#3542b2" stroke="#3542b2" points="1005.76,-173.928 995.195,-174.697 1003.93,-180.686 1005.76,-173.928"/>
</g>
<!-- free -->
<g id="node48" class="node"><title>free</title>
<ellipse fill="#ccd1ff" stroke="#ccd1ff" cx="1276.15" cy="-306" rx="27" ry="18"/>
<text text-anchor="middle" x="1276.15" y="-302.3" font-family="Times New Roman,serif" font-size="14.00">free</text>
</g>
<!-- morecore&#45;&gt;free -->
<g id="edge66" class="edge"><title>morecore&#45;&gt;free</title>
<path fill="none" stroke="#3542b2" d="M1625.94,-370.029C1567.6,-360.108 1457.63,-341.205 1364.15,-324 1346.95,-320.835 1327.89,-317.173 1311.92,-314.06"/>
<polygon fill="#3542b2" stroke="#3542b2" points="1312.41,-310.589 1301.92,-312.104 1311.07,-317.458 1312.41,-310.589"/>
</g>
<!-- getpagesize -->
<g id="node49" class="node"><title>getpagesize</title>
<ellipse fill="#ccd1ff" stroke="#ccd1ff" cx="1749.15" cy="-306" rx="51.9908" ry="18"/>
<text text-anchor="middle" x="1749.15" y="-302.3" font-family="Times New Roman,serif" font-size="14.00">getpagesize</text>
</g>
<!-- morecore&#45;&gt;getpagesize -->
<g id="edge67" class="edge"><title>morecore&#45;&gt;getpagesize</title>
<path fill="none" stroke="#3542b2" d="M1685.35,-361.465C1696.34,-352.081 1710.54,-339.96 1722.75,-329.536"/>
<polygon fill="#3542b2" stroke="#3542b2" points="1725.1,-332.132 1730.43,-322.977 1720.55,-326.808 1725.1,-332.132"/>
</g>
<!-- putfreehdr -->
<g id="node50" class="node"><title>putfreehdr</title>
<ellipse fill="#ccd1ff" stroke="#ccd1ff" cx="1867.15" cy="-306" rx="48.1917" ry="18"/>
<text text-anchor="middle" x="1867.15" y="-302.3" font-family="Times New Roman,serif" font-size="14.00">putfreehdr</text>
</g>
<!-- morecore&#45;&gt;putfreehdr -->
<g id="edge68" class="edge"><title>morecore&#45;&gt;putfreehdr</title>
<path fill="none" stroke="#3542b2" d="M1700.17,-365.441C1733.88,-353.642 1786.39,-335.265 1823.51,-322.273"/>
<polygon fill="#3542b2" stroke="#3542b2" points="1824.79,-325.535 1833.07,-318.928 1822.47,-318.928 1824.79,-325.535"/>
</g>
<!-- udiv -->
<g id="node51" class="node"><title>udiv</title>
<ellipse fill="#ccd1ff" stroke="#ccd1ff" cx="1538.15" cy="-234" rx="27" ry="18"/>
<text text-anchor="middle" x="1538.15" y="-230.3" font-family="Times New Roman,serif" font-size="14.00">udiv</text>
</g>
<!-- morecore&#45;&gt;udiv -->
<g id="edge69" class="edge"><title>morecore&#45;&gt;udiv</title>
<path fill="none" stroke="#3542b2" d="M1651.7,-360.882C1641.75,-350.44 1628.59,-336.505 1617.15,-324 1596.71,-301.663 1573.78,-275.733 1557.91,-257.644"/>
<polygon fill="#3542b2" stroke="#3542b2" points="1560.37,-255.142 1551.15,-249.926 1555.11,-259.754 1560.37,-255.142"/>
</g>
<!-- umul -->
<g id="node52" class="node"><title>umul</title>
<ellipse fill="#ccd1ff" stroke="#ccd1ff" cx="1962.15" cy="-306" rx="28.6953" ry="18"/>
<text text-anchor="middle" x="1962.15" y="-302.3" font-family="Times New Roman,serif" font-size="14.00">umul</text>
</g>
<!-- morecore&#45;&gt;umul -->
<g id="edge70" class="edge"><title>morecore&#45;&gt;umul</title>
<path fill="none" stroke="#3542b2" d="M1700.66,-365.711C1707.4,-363.65 1714.46,-361.637 1721.15,-360 1810.15,-338.197 1836.56,-350.911 1924.15,-324 1926.42,-323.302 1928.74,-322.502 1931.05,-321.638"/>
<polygon fill="#3542b2" stroke="#3542b2" points="1932.46,-324.843 1940.4,-317.826 1929.81,-318.362 1932.46,-324.843"/>
</g>
<!-- getfreehdr&#45;&gt;sbrk -->
<g id="edge74" class="edge"><title>getfreehdr&#45;&gt;sbrk</title>
<path fill="none" stroke="#3542b2" d="M995.217,-149.424C1002.39,-147.335 1009.96,-145.385 1017.15,-144 1232.84,-102.425 1497.47,-93.4465 1593.82,-91.5209"/>
<polygon fill="#3542b2" stroke="#3542b2" points="1594,-95.0182 1603.94,-91.3327 1593.87,-88.0194 1594,-95.0182"/>
</g>
<!-- free&#45;&gt;insert -->
<g id="edge75" class="edge"><title>free&#45;&gt;insert</title>
<path fill="none" stroke="#3542b2" d="M1250.87,-299.188C1233.36,-295.39 1209.46,-290.658 1188.15,-288 911.168,-253.452 832.652,-316.778 561.147,-252 558.844,-251.45 556.505,-250.772 554.177,-250.005"/>
<polygon fill="#3542b2" stroke="#3542b2" points="555.37,-246.714 544.778,-246.463 552.901,-253.265 555.37,-246.714"/>
</g>
<!-- sigblock -->
<g id="node56" class="node"><title>sigblock</title>
<ellipse fill="#ccd1ff" stroke="#ccd1ff" cx="1258.15" cy="-162" rx="41.6928" ry="18"/>
<text text-anchor="middle" x="1258.15" y="-158.3" font-family="Times New Roman,serif" font-size="14.00">sigblock</text>
</g>
<!-- sigvec&#45;&gt;sigblock -->
<g id="edge79" class="edge"><title>sigvec&#45;&gt;sigblock</title>
<path fill="none" stroke="#3542b2" d="M1169.1,-219.669C1185.56,-209.19 1208.74,-194.439 1227.33,-182.614"/>
<polygon fill="#3542b2" stroke="#3542b2" points="1229.21,-185.566 1235.76,-177.244 1225.45,-179.66 1229.21,-185.566"/>
</g>
<!-- sigsetmask -->
<g id="node57" class="node"><title>sigsetmask</title>
<ellipse fill="#ccd1ff" stroke="#ccd1ff" cx="1148.15" cy="-162" rx="50.0912" ry="18"/>
<text text-anchor="middle" x="1148.15" y="-158.3" font-family="Times New Roman,serif" font-size="14.00">sigsetmask</text>
</g>
<!-- sigvec&#45;&gt;sigsetmask -->
<g id="edge80" class="edge"><title>sigvec&#45;&gt;sigsetmask</title>
<path fill="none" stroke="#3542b2" d="M1148.15,-215.697C1148.15,-207.983 1148.15,-198.712 1148.15,-190.112"/>
<polygon fill="#3542b2" stroke="#3542b2" points="1151.65,-190.104 1148.15,-180.104 1144.65,-190.104 1151.65,-190.104"/>
</g>
<!-- moncontrol -->
<g id="node54" class="node"><title>moncontrol</title>
<ellipse fill="#cad1ff" stroke="#cad1ff" cx="1556.15" cy="-594" rx="52.7911" ry="18"/>
<text text-anchor="middle" x="1556.15" y="-590.3" font-family="Times New Roman,serif" font-size="14.00">moncontrol</text>
</g>
<!-- profil -->
<g id="node55" class="node"><title>profil</title>
<ellipse fill="#ccd1ff" stroke="#ccd1ff" cx="1556.15" cy="-522" rx="30.5947" ry="18"/>
<text text-anchor="middle" x="1556.15" y="-518.3" font-family="Times New Roman,serif" font-size="14.00">profil</text>
</g>
<!-- moncontrol&#45;&gt;profil -->
<g id="edge73" class="edge"><title>moncontrol&#45;&gt;profil</title>
<path fill="none" stroke="#3542b2" d="M1556.15,-575.697C1556.15,-567.983 1556.15,-558.712 1556.15,-550.112"/>
<polygon fill="#3542b2" stroke="#3542b2" points="1559.65,-550.104 1556.15,-540.104 1552.65,-550.104 1559.65,-550.104"/>
</g>
<!-- doprnt&#45;&gt;udiv -->
<g id="edge82" class="edge"><title>doprnt&#45;&gt;udiv</title>
<path fill="none" stroke="#3542b2" d="M1431.39,-292.485C1453.05,-280.821 1485.45,-263.377 1508.87,-250.766"/>
<polygon fill="#3542b2" stroke="#3542b2" points="1510.53,-253.847 1517.67,-246.024 1507.21,-247.684 1510.53,-253.847"/>
</g>
<!-- urem -->
<g id="node59" class="node"><title>urem</title>
<ellipse fill="#ccd1ff" stroke="#ccd1ff" cx="1426.15" cy="-234" rx="28.6953" ry="18"/>
<text text-anchor="middle" x="1426.15" y="-230.3" font-family="Times New Roman,serif" font-size="14.00">urem</text>
</g>
<!-- doprnt&#45;&gt;urem -->
<g id="edge81" class="edge"><title>doprnt&#45;&gt;urem</title>
<path fill="none" stroke="#3542b2" d="M1412.5,-288.055C1414.51,-280.261 1416.94,-270.822 1419.18,-262.079"/>
<polygon fill="#3542b2" stroke="#3542b2" points="1422.6,-262.832 1421.7,-252.275 1415.82,-261.089 1422.6,-262.832"/>
</g>
<!-- strlen -->
<g id="node60" class="node"><title>strlen</title>
<ellipse fill="#ccd1ff" stroke="#ccd1ff" cx="1230.15" cy="-234" rx="30.5947" ry="18"/>
<text text-anchor="middle" x="1230.15" y="-230.3" font-family="Times New Roman,serif" font-size="14.00">strlen</text>
</g>
<!-- doprnt&#45;&gt;strlen -->
<g id="edge83" class="edge"><title>doprnt&#45;&gt;strlen</title>
<path fill="none" stroke="#3542b2" d="M1380.54,-294.725C1352.6,-284.249 1308.22,-267.394 1270.15,-252 1267.96,-251.117 1265.72,-250.196 1263.46,-249.261"/>
<polygon fill="#3542b2" stroke="#3542b2" points="1264.78,-246.02 1254.2,-245.386 1262.08,-252.477 1264.78,-246.02"/>
</g>
<!-- localeconv -->
<g id="node61" class="node"><title>localeconv</title>
<ellipse fill="#ccd1ff" stroke="#ccd1ff" cx="1329.15" cy="-234" rx="50.0912" ry="18"/>
<text text-anchor="middle" x="1329.15" y="-230.3" font-family="Times New Roman,serif" font-size="14.00">localeconv</text>
</g>
<!-- doprnt&#45;&gt;localeconv -->
<g id="edge84" class="edge"><title>doprnt&#45;&gt;localeconv</title>
<path fill="none" stroke="#3542b2" d="M1391.39,-290.155C1380.77,-280.739 1366.81,-268.372 1354.8,-257.735"/>
<polygon fill="#3542b2" stroke="#3542b2" points="1357.06,-255.055 1347.25,-251.043 1352.42,-260.294 1357.06,-255.055"/>
</g>
</g>
</svg>
