<?xml version="1.0" encoding="UTF-8" standalone="no"?>
<!DOCTYPE svg PUBLIC "-//W3C//DTD SVG 1.1//EN"
 "http://www.w3.org/Graphics/SVG/1.1/DTD/svg11.dtd">
<!-- Generated by graphviz version 2.38.0 (20140413.2041)
 -->
<!-- Title: %3 Pages: 1 -->
<svg width="127pt" height="404pt"
 viewBox="0.00 0.00 127.00 404.00" xmlns="http://www.w3.org/2000/svg" xmlns:xlink="http://www.w3.org/1999/xlink">
<g id="graph0" class="graph" transform="scale(1 1) rotate(0) translate(4 400)">
<title>%3</title>
<polygon fill="white" stroke="none" points="-4,4 -4,-400 123,-400 123,4 -4,4"/>
<!-- a -->
<g id="node1" class="node"><title>a</title>
<ellipse fill="none" stroke="black" cx="92" cy="-378" rx="27" ry="18"/>
<text text-anchor="middle" x="92" y="-374.3" font-family="Times New Roman,serif" font-size="14.00">a</text>
</g>
<!-- b -->
<g id="node2" class="node"><title>b</title>
<ellipse fill="none" stroke="black" cx="65" cy="-306" rx="27" ry="18"/>
<text text-anchor="middle" x="65" y="-302.3" font-family="Times New Roman,serif" font-size="14.00">b</text>
</g>
<!-- a&#45;&#45;b -->
<g id="edge1" class="edge"><title>a&#45;&#45;b</title>
<path fill="none" stroke="red" stroke-width="3" d="M85.6014,-360.411C81.3597,-349.414 75.8106,-335.027 71.5403,-323.956"/>
</g>
<!-- d -->
<g id="node4" class="node"><title>d</title>
<ellipse fill="none" stroke="black" cx="82" cy="-162" rx="27" ry="18"/>
<text text-anchor="middle" x="82" y="-158.3" font-family="Times New Roman,serif" font-size="14.00">d</text>
</g>
<!-- a&#45;&#45;d -->
<g id="edge6" class="edge"><title>a&#45;&#45;d</title>
<path fill="none" stroke="black" d="M95.6538,-359.908C97.6758,-349.569 99.9808,-336.09 101,-324 105.445,-271.274 93.1145,-209.161 86.2504,-179.884"/>
</g>
<!-- c -->
<g id="node3" class="node"><title>c</title>
<ellipse fill="none" stroke="black" cx="27" cy="-234" rx="27" ry="18"/>
<text text-anchor="middle" x="27" y="-230.3" font-family="Times New Roman,serif" font-size="14.00">c</text>
</g>
<!-- b&#45;&#45;c -->
<g id="edge2" class="edge"><title>b&#45;&#45;c</title>
<path fill="none" stroke="black" d="M56.1865,-288.765C50.0475,-277.456 41.8942,-262.437 35.7657,-251.147"/>
</g>
<!-- b&#45;&#45;d -->
<g id="edge7" class="edge"><title>b&#45;&#45;d</title>
<path fill="none" stroke="red" stroke-width="3" d="M67.0506,-287.871C70.3181,-260.578 76.6701,-207.52 79.9421,-180.189"/>
</g>
<!-- c&#45;&#45;d -->
<g id="edge3" class="edge"><title>c&#45;&#45;d</title>
<path fill="none" stroke="red" stroke-width="3" d="M38.9342,-217.811C48.1595,-206.07 60.8696,-189.893 70.0891,-178.159"/>
</g>
<!-- f -->
<g id="node6" class="node"><title>f</title>
<ellipse fill="none" stroke="black" cx="54" cy="-18" rx="27" ry="18"/>
<text text-anchor="middle" x="54" y="-14.3" font-family="Times New Roman,serif" font-size="14.00">f</text>
</g>
<!-- c&#45;&#45;f -->
<g id="edge8" class="edge"><title>c&#45;&#45;f</title>
<path fill="none" stroke="red" stroke-width="3" d="M28.8684,-215.585C32.0815,-186.026 38.9872,-124.163 46,-72 47.6119,-60.0106 49.6497,-46.5306 51.2652,-36.1657"/>
</g>
<!-- e -->
<g id="node5" class="node"><title>e</title>
<ellipse fill="none" stroke="black" cx="82" cy="-90" rx="27" ry="18"/>
<text text-anchor="middle" x="82" y="-86.3" font-family="Times New Roman,serif" font-size="14.00">e</text>
</g>
<!-- d&#45;&#45;e -->
<g id="edge4" class="edge"><title>d&#45;&#45;e</title>
<path fill="none" stroke="black" d="M82,-143.697C82,-132.846 82,-118.917 82,-108.104"/>
</g>
<!-- e&#45;&#45;f -->
<g id="edge5" class="edge"><title>e&#45;&#45;f</title>
<path fill="none" stroke="black" d="M75.3644,-72.411C70.901,-61.2524 65.0414,-46.6036 60.588,-35.4699"/>
</g>
</g>
</svg>
