<?xml version="1.0" encoding="UTF-8" standalone="no"?>
<!DOCTYPE svg PUBLIC "-//W3C//DTD SVG 1.1//EN"
 "http://www.w3.org/Graphics/SVG/1.1/DTD/svg11.dtd">
<!-- Generated by graphviz version 2.38.0 (20140413.2041)
 -->
<!-- Title: %3 Pages: 1 -->
<svg width="199pt" height="260pt"
 viewBox="0.00 0.00 199.00 260.00" xmlns="http://www.w3.org/2000/svg" xmlns:xlink="http://www.w3.org/1999/xlink">
<g id="graph0" class="graph" transform="scale(1 1) rotate(0) translate(4 256)">
<title>%3</title>
<polygon fill="white" stroke="none" points="-4,4 -4,-256 195,-256 195,4 -4,4"/>
<!-- a -->
<g id="node1" class="node"><title>a</title>
<ellipse fill="none" stroke="black" cx="137" cy="-162" rx="27" ry="18"/>
<text text-anchor="middle" x="137" y="-158.3" font-family="Times New Roman,serif" font-size="14.00">a</text>
</g>
<!-- b -->
<g id="node2" class="node"><title>b</title>
<ellipse fill="none" stroke="black" cx="99" cy="-90" rx="27" ry="18"/>
<text text-anchor="middle" x="99" y="-86.3" font-family="Times New Roman,serif" font-size="14.00">b</text>
</g>
<!-- a&#45;&#45;b -->
<g id="edge1" class="edge"><title>a&#45;&#45;b</title>
<path fill="none" stroke="black" d="M128.187,-144.765C122.048,-133.456 113.894,-118.437 107.766,-107.147"/>
</g>
<!-- c -->
<g id="node3" class="node"><title>c</title>
<ellipse fill="none" stroke="black" cx="126" cy="-18" rx="27" ry="18"/>
<text text-anchor="middle" x="126" y="-14.3" font-family="Times New Roman,serif" font-size="14.00">c</text>
</g>
<!-- a&#45;&#45;c -->
<g id="edge3" class="edge"><title>a&#45;&#45;c</title>
<path fill="none" stroke="black" d="M137.353,-143.895C137.551,-125.944 137.383,-96.9239 135,-72 133.845,-59.9221 131.542,-46.4435 129.555,-36.1014"/>
</g>
<!-- b&#45;&#45;c -->
<g id="edge2" class="edge"><title>b&#45;&#45;c</title>
<path fill="none" stroke="black" d="M105.399,-72.411C109.64,-61.4141 115.189,-47.0274 119.46,-35.9562"/>
</g>
<!-- d -->
<g id="node4" class="node"><title>d</title>
<ellipse fill="none" stroke="black" cx="27" cy="-90" rx="27" ry="18"/>
<text text-anchor="middle" x="27" y="-86.3" font-family="Times New Roman,serif" font-size="14.00">d</text>
</g>
<!-- d&#45;&#45;c -->
<g id="edge4" class="edge"><title>d&#45;&#45;c</title>
<path fill="none" stroke="black" d="M45.1581,-76.1609C63.0209,-63.5307 90.1341,-44.3597 107.957,-31.7577"/>
</g>
<!-- e -->
<g id="node5" class="node"><title>e</title>
<ellipse fill="none" stroke="black" cx="164" cy="-234" rx="27" ry="18"/>
<text text-anchor="middle" x="164" y="-230.3" font-family="Times New Roman,serif" font-size="14.00">e</text>
</g>
<!-- e&#45;&#45;a -->
<g id="edge6" class="edge"><title>e&#45;&#45;a</title>
<path fill="none" stroke="black" d="M157.601,-216.411C153.36,-205.414 147.811,-191.027 143.54,-179.956"/>
</g>
<!-- e&#45;&#45;c -->
<g id="edge5" class="edge"><title>e&#45;&#45;c</title>
<path fill="none" stroke="black" d="M167.654,-215.908C169.676,-205.569 171.981,-192.09 173,-180 177.123,-131.097 167.619,-117.805 150,-72 145.213,-59.5558 138.982,-45.8536 134.069,-35.4992"/>
</g>
</g>
</svg>
