<?xml version="1.0" encoding="UTF-8" standalone="no"?>
<!DOCTYPE svg PUBLIC "-//W3C//DTD SVG 1.1//EN"
 "http://www.w3.org/Graphics/SVG/1.1/DTD/svg11.dtd">
<!-- Generated by graphviz version 2.38.0 (20140413.2041)
 -->
<!-- Title: %3 Pages: 1 -->
<svg width="238pt" height="182pt"
 viewBox="0.00 0.00 238.00 182.00" xmlns="http://www.w3.org/2000/svg" xmlns:xlink="http://www.w3.org/1999/xlink">
<g id="graph0" class="graph" transform="scale(1 1) rotate(0) translate(4 178)">
<title>%3</title>
<polygon fill="white" stroke="none" points="-4,4 -4,-178 234,-178 234,4 -4,4"/>
<g id="clust1" class="cluster"><title>cluster_0</title>
<polygon fill="none" stroke="black" points="8,-91 8,-166 222,-166 222,-91 8,-91"/>
<text text-anchor="middle" x="115" y="-150.8" font-family="Times New Roman,serif" font-size="14.00">Subgraph A</text>
</g>
<g id="clust2" class="cluster"><title>cluster_1</title>
<polygon fill="none" stroke="black" points="26,-8 26,-83 168,-83 168,-8 26,-8"/>
<text text-anchor="middle" x="97" y="-67.8" font-family="Times New Roman,serif" font-size="14.00">Subgraph B</text>
</g>
<!-- a -->
<g id="node1" class="node"><title>a</title>
<ellipse fill="none" stroke="black" cx="115" cy="-117" rx="27" ry="18"/>
<text text-anchor="middle" x="115" y="-113.3" font-family="Times New Roman,serif" font-size="14.00">a</text>
</g>
<!-- d -->
<g id="node4" class="node"><title>d</title>
<ellipse fill="none" stroke="black" cx="133" cy="-34" rx="27" ry="18"/>
<text text-anchor="middle" x="133" y="-30.3" font-family="Times New Roman,serif" font-size="14.00">d</text>
</g>
<!-- a&#45;&#45;d -->
<g id="edge2" class="edge"><title>a&#45;&#45;d</title>
<path fill="none" stroke="black" d="M118.817,-98.822C121.893,-84.9831 126.193,-65.6332 129.25,-51.8755"/>
</g>
<!-- e -->
<g id="node5" class="node"><title>e</title>
<ellipse fill="none" stroke="black" cx="61" cy="-34" rx="27" ry="18"/>
<text text-anchor="middle" x="61" y="-30.3" font-family="Times New Roman,serif" font-size="14.00">e</text>
</g>
<!-- a&#45;&#45;e -->
<g id="edge1" class="edge"><title>a&#45;&#45;e</title>
<path fill="none" stroke="black" d="M104.588,-100.382C95.0874,-86.1311 81.1123,-65.1685 71.564,-50.846"/>
</g>
<!-- b -->
<g id="node2" class="node"><title>b</title>
<ellipse fill="none" stroke="black" cx="43" cy="-117" rx="27" ry="18"/>
<text text-anchor="middle" x="43" y="-113.3" font-family="Times New Roman,serif" font-size="14.00">b</text>
</g>
<!-- b&#45;&#45;d -->
<g id="edge3" class="edge"><title>b&#45;&#45;d</title>
<path fill="none" stroke="black" d="M58.6768,-101.891C75.1957,-87.0239 101.052,-63.7532 117.503,-48.9474"/>
</g>
<!-- b&#45;&#45;e -->
<g id="edge4" class="edge"><title>b&#45;&#45;e</title>
<path fill="none" stroke="black" d="M46.8173,-98.822C49.8926,-84.9831 54.1926,-65.6332 57.2499,-51.8755"/>
</g>
<!-- c -->
<g id="node3" class="node"><title>c</title>
<ellipse fill="none" stroke="black" cx="187" cy="-117" rx="27" ry="18"/>
<text text-anchor="middle" x="187" y="-113.3" font-family="Times New Roman,serif" font-size="14.00">c</text>
</g>
<!-- c&#45;&#45;d -->
<g id="edge5" class="edge"><title>c&#45;&#45;d</title>
<path fill="none" stroke="black" d="M176.588,-100.382C167.087,-86.1311 153.112,-65.1685 143.564,-50.846"/>
</g>
<!-- c&#45;&#45;e -->
<g id="edge6" class="edge"><title>c&#45;&#45;e</title>
<path fill="none" stroke="black" d="M168.137,-103.873C144.383,-88.6033 103.807,-62.5186 79.9924,-47.2094"/>
</g>
</g>
</svg>
