<?xml version="1.0" encoding="UTF-8" standalone="no"?>
<!DOCTYPE svg PUBLIC "-//W3C//DTD SVG 1.1//EN"
 "http://www.w3.org/Graphics/SVG/1.1/DTD/svg11.dtd">
<!-- Generated by graphviz version 2.38.0 (20140413.2041)
 -->
<!-- Title: %3 Pages: 1 -->
<svg width="199pt" height="318pt"
 viewBox="0.00 0.00 199.00 318.00" xmlns="http://www.w3.org/2000/svg" xmlns:xlink="http://www.w3.org/1999/xlink">
<g id="graph0" class="graph" transform="scale(1 1) rotate(0) translate(4 314)">
<title>%3</title>
<polygon fill="white" stroke="none" points="-4,4 -4,-314 195,-314 195,4 -4,4"/>
<g id="clust1" class="cluster"><title>cluster_0</title>
<polygon fill="none" stroke="black" points="8,-8 8,-302 92,-302 92,-8 8,-8"/>
<text text-anchor="middle" x="50" y="-286.8" font-family="Times New Roman,serif" font-size="14.00">Subgraph A</text>
</g>
<g id="clust2" class="cluster"><title>cluster_1</title>
<polygon fill="none" stroke="black" points="100,-152 100,-227 183,-227 183,-152 100,-152"/>
<text text-anchor="middle" x="141.5" y="-211.8" font-family="Times New Roman,serif" font-size="14.00">Subgraph B</text>
</g>
<!-- a -->
<g id="node1" class="node"><title>a</title>
<ellipse fill="none" stroke="black" cx="57" cy="-253" rx="27" ry="18"/>
<text text-anchor="middle" x="57" y="-249.3" font-family="Times New Roman,serif" font-size="14.00">a</text>
</g>
<!-- b -->
<g id="node2" class="node"><title>b</title>
<ellipse fill="none" stroke="black" cx="57" cy="-178" rx="27" ry="18"/>
<text text-anchor="middle" x="57" y="-174.3" font-family="Times New Roman,serif" font-size="14.00">b</text>
</g>
<!-- a&#45;&gt;b -->
<g id="edge1" class="edge"><title>a&#45;&gt;b</title>
<path fill="none" stroke="black" d="M57,-234.7C57,-226.245 57,-215.869 57,-206.373"/>
<polygon fill="black" stroke="black" points="60.5001,-206.176 57,-196.176 53.5001,-206.176 60.5001,-206.176"/>
</g>
<!-- f -->
<g id="node5" class="node"><title>f</title>
<ellipse fill="none" stroke="black" cx="135" cy="-178" rx="27" ry="18"/>
<text text-anchor="middle" x="135" y="-174.3" font-family="Times New Roman,serif" font-size="14.00">f</text>
</g>
<!-- a&#45;&gt;f -->
<g id="edge4" class="edge"><title>a&#45;&gt;f</title>
<path fill="none" stroke="black" d="M77.3145,-240.688C83.6071,-236.746 90.3628,-232.037 96,-227 103.963,-219.885 111.625,-211.053 118.018,-202.913"/>
<polygon fill="black" stroke="black" points="120.93,-204.866 124.18,-194.782 115.351,-200.638 120.93,-204.866"/>
</g>
<!-- c -->
<g id="node3" class="node"><title>c</title>
<ellipse fill="none" stroke="black" cx="57" cy="-106" rx="27" ry="18"/>
<text text-anchor="middle" x="57" y="-102.3" font-family="Times New Roman,serif" font-size="14.00">c</text>
</g>
<!-- b&#45;&gt;c -->
<g id="edge2" class="edge"><title>b&#45;&gt;c</title>
<path fill="none" stroke="black" d="M57,-159.697C57,-151.983 57,-142.712 57,-134.112"/>
<polygon fill="black" stroke="black" points="60.5001,-134.104 57,-124.104 53.5001,-134.104 60.5001,-134.104"/>
</g>
<!-- d -->
<g id="node4" class="node"><title>d</title>
<ellipse fill="none" stroke="black" cx="57" cy="-34" rx="27" ry="18"/>
<text text-anchor="middle" x="57" y="-30.3" font-family="Times New Roman,serif" font-size="14.00">d</text>
</g>
<!-- c&#45;&gt;d -->
<g id="edge3" class="edge"><title>c&#45;&gt;d</title>
<path fill="none" stroke="black" d="M57,-87.6966C57,-79.9827 57,-70.7125 57,-62.1124"/>
<polygon fill="black" stroke="black" points="60.5001,-62.1043 57,-52.1043 53.5001,-62.1044 60.5001,-62.1043"/>
</g>
<!-- f&#45;&gt;c -->
<g id="edge5" class="edge"><title>f&#45;&gt;c</title>
<path fill="none" stroke="black" d="M119.59,-163.17C108.266,-153.008 92.691,-139.03 79.9113,-127.561"/>
<polygon fill="black" stroke="black" points="82.1584,-124.875 72.3783,-120.801 77.483,-130.085 82.1584,-124.875"/>
</g>
</g>
</svg>
