<?xml version="1.0" encoding="UTF-8" standalone="no"?>
<!DOCTYPE svg PUBLIC "-//W3C//DTD SVG 1.1//EN"
 "http://www.w3.org/Graphics/SVG/1.1/DTD/svg11.dtd">
<!-- Generated by graphviz version 2.38.0 (20140413.2041)
 -->
<!-- Title: unix Pages: 1 -->
<svg width="864pt" height="726pt"
 viewBox="0.00 0.00 864.00 725.76" xmlns="http://www.w3.org/2000/svg" xmlns:xlink="http://www.w3.org/1999/xlink">
<g id="graph0" class="graph" transform="scale(0.603791 0.603791) rotate(0) translate(4 1198)">
<title>unix</title>
<polygon fill="white" stroke="none" points="-4,4 -4,-1198 1426.96,-1198 1426.96,4 -4,4"/>
<text text-anchor="middle" x="711.48" y="-55.2" font-family="Helvetica,sans-Serif" font-style="oblique" font-size="36.00">Object Oriented Graphs</text>
<text text-anchor="middle" x="711.48" y="-15.2" font-family="Helvetica,sans-Serif" font-style="oblique" font-size="36.00">Stephen North, 3/19/93</text>
<!-- 5th Edition -->
<g id="node1" class="node"><title>5th Edition</title>
<polygon fill="#ee8262" stroke="#ee8262" points="966.126,-1171.81 977.362,-1187.3 941.891,-1194.13 861.092,-1186.82 796.089,-1172.29 800.616,-1160.82 857.334,-1155.51 911.102,-1154.55 942.046,-1159.19 966.126,-1171.81"/>
<text text-anchor="middle" x="894.851" y="-1167.68" font-family="Helvetica-Outline" font-size="14.00">5th Edition</text>
</g>
<!-- 6th Edition -->
<g id="node2" class="node"><title>6th Edition</title>
<polygon fill="deepskyblue" stroke="deepskyblue" points="799.263,-1104.7 699.154,-1112.64 568.223,-1093.96 597.488,-1074.95 720.127,-1080.64 799.263,-1104.7"/>
<text text-anchor="middle" x="676.851" y="-1089.68" font-family="Helvetica-Outline" font-size="14.00">6th Edition</text>
</g>
<!-- 5th Edition&#45;&gt;6th Edition -->
<g id="edge1" class="edge"><title>5th Edition&#45;&gt;6th Edition</title>
<path fill="none" stroke="black" d="M853.076,-1155.82C819.143,-1143.99 770.947,-1127.18 733.533,-1114.14"/>
<polygon fill="black" stroke="black" points="734.374,-1110.72 723.779,-1110.74 732.069,-1117.33 734.374,-1110.72"/>
</g>
<!-- PWB 1.0 -->
<g id="node3" class="node"><title>PWB 1.0</title>
<polygon fill="#eeb422" stroke="#eeb422" points="1059.61,-1111.66 1017.17,-1111.5 980.915,-1100.59 972.075,-1085.31 995.986,-1074.9 1038.64,-1075.44 1074.9,-1086.36 1083.52,-1101.25 1059.61,-1111.66"/>
<text text-anchor="middle" x="1027.85" y="-1089.68" font-family="Helvetica-Outline" font-size="14.00">PWB 1.0</text>
</g>
<!-- 5th Edition&#45;&gt;PWB 1.0 -->
<g id="edge2" class="edge"><title>5th Edition&#45;&gt;PWB 1.0</title>
<path fill="none" stroke="black" d="M920.18,-1155.91C941.605,-1143.66 972.429,-1126.05 995.612,-1112.8"/>
<polygon fill="black" stroke="black" points="997.454,-1115.78 1004.4,-1107.78 993.981,-1109.7 997.454,-1115.78"/>
</g>
<!-- LSX -->
<g id="node4" class="node"><title>LSX</title>
<polygon fill="#eec591" stroke="#eec591" points="951.899,-1007.64 937.969,-1017.27 912,-1022.48 891.762,-1022.17 878.116,-1014.43 868.84,-1000.85 873.893,-989.106 901.468,-987.212 936.713,-995.587 951.899,-1007.64"/>
<text text-anchor="middle" x="905.851" y="-1002.6" font-family="Helvetica-Outline" font-size="14.00">LSX</text>
</g>
<!-- 6th Edition&#45;&gt;LSX -->
<g id="edge3" class="edge"><title>6th Edition&#45;&gt;LSX</title>
<path fill="none" stroke="black" d="M721.74,-1081.09C757.427,-1071.47 808.253,-1056.31 850.851,-1038 859.852,-1034.13 869.289,-1029.21 877.755,-1024.45"/>
<polygon fill="black" stroke="black" points="879.584,-1027.43 886.493,-1019.4 876.083,-1021.37 879.584,-1027.43"/>
</g>
<!-- 1 BSD -->
<g id="node5" class="node"><title>1 BSD</title>
<polygon fill="#ffd700" stroke="#ffd700" points="261.167,-1011.25 248.43,-1025.59 203.736,-1024.06 167.412,-1009.16 173.482,-993.46 207.735,-986.829 241.996,-993.779 261.167,-1011.25"/>
<text text-anchor="middle" x="214.851" y="-1002.6" font-family="Helvetica-Outline" font-size="14.00">1 BSD</text>
</g>
<!-- 6th Edition&#45;&gt;1 BSD -->
<g id="edge4" class="edge"><title>6th Edition&#45;&gt;1 BSD</title>
<path fill="none" stroke="black" d="M584.384,-1083.36C509.015,-1074.92 400.166,-1060.24 306.851,-1038 292.079,-1034.48 276.297,-1029.63 262.05,-1024.82"/>
<polygon fill="black" stroke="black" points="263.058,-1021.47 252.463,-1021.52 260.778,-1028.09 263.058,-1021.47"/>
</g>
<!-- Mini Unix -->
<g id="node6" class="node"><title>Mini Unix</title>
<polygon fill="greenyellow" stroke="greenyellow" points="638.268,-1024.3 517.448,-1022.91 548.37,-988.339 663.319,-989.667 638.268,-1024.3"/>
<text text-anchor="middle" x="591.851" y="-1002.6" font-family="Helvetica-Outline" font-size="14.00">Mini Unix</text>
</g>
<!-- 6th Edition&#45;&gt;Mini Unix -->
<g id="edge5" class="edge"><title>6th Edition&#45;&gt;Mini Unix</title>
<path fill="none" stroke="black" d="M662.432,-1077.95C649.767,-1065.27 631.08,-1046.57 616.115,-1031.59"/>
<polygon fill="black" stroke="black" points="618.225,-1028.75 608.681,-1024.15 613.273,-1033.7 618.225,-1028.75"/>
</g>
<!-- Wollongong -->
<g id="node7" class="node"><title>Wollongong</title>
<polygon fill="darkseagreen" stroke="darkseagreen" points="778.905,-1025.7 688.945,-1014.05 701.121,-991.694 803.472,-991.654 841.813,-1008.42 778.905,-1025.7"/>
<text text-anchor="middle" x="762.851" y="-1002.6" font-family="Helvetica-Outline" font-size="14.00">Wollongong</text>
</g>
<!-- 6th Edition&#45;&gt;Wollongong -->
<g id="edge6" class="edge"><title>6th Edition&#45;&gt;Wollongong</title>
<path fill="none" stroke="black" d="M690.289,-1079.08C703.767,-1065.75 724.756,-1044.99 740.7,-1029.22"/>
<polygon fill="black" stroke="black" points="743.419,-1031.45 748.067,-1021.93 738.496,-1026.47 743.419,-1031.45"/>
</g>
<!-- Interdata -->
<g id="node8" class="node"><title>Interdata</title>
<polygon fill="#1e90ff" stroke="#1e90ff" points="415.058,-1031.49 316.329,-996.327 426.627,-990.371 473.391,-1007.03 415.058,-1031.49"/>
<text text-anchor="middle" x="407.851" y="-1002.6" font-family="Helvetica-Outline" font-size="14.00">Interdata</text>
</g>
<!-- 6th Edition&#45;&gt;Interdata -->
<g id="edge7" class="edge"><title>6th Edition&#45;&gt;Interdata</title>
<path fill="none" stroke="black" d="M625.621,-1076.17C576.38,-1060.6 502.59,-1037.27 454.828,-1022.16"/>
<polygon fill="black" stroke="black" points="455.639,-1018.75 445.049,-1019.07 453.528,-1025.42 455.639,-1018.75"/>
</g>
<!-- PWB 1.2 -->
<g id="node28" class="node"><title>PWB 1.2</title>
<polygon fill="cyan" stroke="cyan" points="1049.78,-1035.8 1001.3,-1031.92 970.405,-1001.28 982.77,-974.42 1031.49,-979.045 1076.4,-1000.87 1082.82,-1020.8 1049.78,-1035.8"/>
<text text-anchor="middle" x="1027.85" y="-1002.6" font-family="Helvetica-Outline" font-size="14.00">PWB 1.2</text>
</g>
<!-- PWB 1.0&#45;&gt;PWB 1.2 -->
<g id="edge31" class="edge"><title>PWB 1.0&#45;&gt;PWB 1.2</title>
<path fill="none" stroke="black" d="M1027.85,-1075.16C1027.85,-1066.26 1027.85,-1055.03 1027.85,-1044.28"/>
<polygon fill="black" stroke="black" points="1031.35,-1044.21 1027.85,-1034.21 1024.35,-1044.21 1031.35,-1044.21"/>
</g>
<!-- USG 1.0 -->
<g id="node29" class="node"><title>USG 1.0</title>
<polygon fill="blue" stroke="blue" points="1233.27,-1031.5 1103.56,-1000.44 1204.75,-990.283 1257.82,-1002.99 1233.27,-1031.5"/>
<text text-anchor="middle" x="1199.85" y="-1002.6" font-family="Helvetica-Outline" font-size="14.00">USG 1.0</text>
</g>
<!-- PWB 1.0&#45;&gt;USG 1.0 -->
<g id="edge32" class="edge"><title>PWB 1.0&#45;&gt;USG 1.0</title>
<path fill="none" stroke="black" d="M1053.23,-1079.82C1083.85,-1064.68 1135.33,-1039.22 1168.42,-1022.85"/>
<polygon fill="black" stroke="black" points="1170.24,-1025.86 1177.65,-1018.28 1167.14,-1019.58 1170.24,-1025.86"/>
</g>
<!-- 2 BSD -->
<g id="node19" class="node"><title>2 BSD</title>
<polygon fill="blanchedalmond" stroke="blanchedalmond" points="133.977,-574.997 96.6171,-574.32 76.7841,-561.409 89.3814,-545.862 124.891,-539.263 156.62,-546.76 160.686,-562.752 133.977,-574.997"/>
<text text-anchor="middle" x="119.851" y="-554.209" font-family="Helvetica-Outline" font-size="14.00">2 BSD</text>
</g>
<!-- 1 BSD&#45;&gt;2 BSD -->
<g id="edge19" class="edge"><title>1 BSD&#45;&gt;2 BSD</title>
<path fill="none" stroke="black" d="M202.797,-987.685C182.062,-955.611 141.851,-884.893 141.851,-818.839 141.851,-818.839 141.851,-818.839 141.851,-725.044 141.851,-675.117 131.966,-617.475 125.448,-584.895"/>
<polygon fill="black" stroke="black" points="128.826,-583.945 123.386,-574.854 121.969,-585.353 128.826,-583.945"/>
</g>
<!-- Unix/TS 3.0 -->
<g id="node9" class="node"><title>Unix/TS 3.0</title>
<polygon fill="#eed2ee" stroke="#eed2ee" points="1034.06,-741.495 1002.09,-752.56 914.861,-744.654 823.458,-722.41 809.673,-705.731 881.581,-704.388 968.814,-712.294 1020.27,-724.817 1034.06,-741.495"/>
<text text-anchor="middle" x="931.851" y="-722.344" font-family="Helvetica-Outline" font-size="14.00">Unix/TS 3.0</text>
</g>
<!-- Interdata&#45;&gt;Unix/TS 3.0 -->
<g id="edge8" class="edge"><title>Interdata&#45;&gt;Unix/TS 3.0</title>
<path fill="none" stroke="black" d="M433.29,-992.55C485.776,-966.12 609.716,-903.127 711.851,-846.727 756.448,-822.1 766.157,-813.402 810.851,-788.952 838.082,-774.055 869.275,-758.122 893.169,-746.151"/>
<polygon fill="black" stroke="black" points="894.889,-749.204 902.272,-741.605 891.762,-742.941 894.889,-749.204"/>
</g>
<!-- PWB 2.0 -->
<g id="node10" class="node"><title>PWB 2.0</title>
<polygon fill="#a2cd5a" stroke="#a2cd5a" points="934.807,-927.431 862.473,-931.062 763.473,-910.045 776.895,-893.908 869.274,-894.533 928.184,-907.039 934.807,-927.431"/>
<text text-anchor="middle" x="855.851" y="-906.97" font-family="Helvetica-Outline" font-size="14.00">PWB 2.0</text>
</g>
<!-- Interdata&#45;&gt;PWB 2.0 -->
<g id="edge9" class="edge"><title>Interdata&#45;&gt;PWB 2.0</title>
<path fill="none" stroke="black" d="M438.926,-994.568C458.741,-988.046 485.073,-979.971 508.851,-974.613 614.501,-950.805 643.68,-959.979 749.851,-938.613 769.484,-934.662 790.931,-929.393 809.366,-924.563"/>
<polygon fill="black" stroke="black" points="810.499,-927.884 819.267,-921.936 808.704,-921.118 810.499,-927.884"/>
</g>
<!-- 7th Edition -->
<g id="node11" class="node"><title>7th Edition</title>
<polygon fill="chocolate" stroke="chocolate" points="463.013,-918.485 439.965,-929.878 404.651,-933.934 367.665,-927.373 344.24,-913.362 346.901,-899.392 375.737,-891.462 416.839,-890.867 451.614,-896.106 467.884,-905.838 463.013,-918.485"/>
<text text-anchor="middle" x="407.851" y="-906.97" font-family="Helvetica-Outline" font-size="14.00">7th Edition</text>
</g>
<!-- Interdata&#45;&gt;7th Edition -->
<g id="edge10" class="edge"><title>Interdata&#45;&gt;7th Edition</title>
<path fill="none" stroke="black" d="M407.851,-991.084C407.851,-978.577 407.851,-959.91 407.851,-943.816"/>
<polygon fill="black" stroke="black" points="411.351,-943.703 407.851,-933.703 404.351,-943.703 411.351,-943.703"/>
</g>
<!-- TS 4.0 -->
<g id="node38" class="node"><title>TS 4.0</title>
<polygon fill="crimson" stroke="crimson" points="1087.04,-579.138 1064,-583.918 1021.42,-578.763 981.73,-568.778 957.741,-556.579 950.992,-542.951 961.704,-531.9 991.953,-530.784 1036.35,-543.165 1075.58,-563.115 1087.04,-579.138"/>
<text text-anchor="middle" x="1012.85" y="-554.209" font-family="Helvetica-Outline" font-size="14.00">TS 4.0</text>
</g>
<!-- Unix/TS 3.0&#45;&gt;TS 4.0 -->
<g id="edge44" class="edge"><title>Unix/TS 3.0&#45;&gt;TS 4.0</title>
<path fill="none" stroke="black" d="M939.471,-709.414C953.511,-680.619 983.573,-618.96 1000.54,-584.16"/>
<polygon fill="black" stroke="black" points="1003.72,-585.629 1004.95,-575.107 997.425,-582.561 1003.72,-585.629"/>
</g>
<!-- PWB 2.0&#45;&gt;Unix/TS 3.0 -->
<g id="edge42" class="edge"><title>PWB 2.0&#45;&gt;Unix/TS 3.0</title>
<path fill="none" stroke="black" d="M844.228,-894.211C827.755,-870.256 801.739,-823.349 821.851,-788.952 834.723,-766.936 858.624,-752.143 880.866,-742.556"/>
<polygon fill="black" stroke="black" points="882.3,-745.752 890.26,-738.76 879.677,-739.262 882.3,-745.752"/>
</g>
<!-- 8th Edition -->
<g id="node12" class="node"><title>8th Edition</title>
<polygon fill="#00c5cd" stroke="#00c5cd" points="745.542,-480.816 687.213,-466.196 727.393,-436.728 895.256,-478.801 745.542,-480.816"/>
<text text-anchor="middle" x="763.851" y="-461.935" font-family="Helvetica-Outline" font-size="14.00">8th Edition</text>
</g>
<!-- 7th Edition&#45;&gt;8th Edition -->
<g id="edge11" class="edge"><title>7th Edition&#45;&gt;8th Edition</title>
<path fill="none" stroke="black" d="M456.698,-899.047C533.699,-882.201 675.024,-850.835 678.851,-846.727 715.564,-807.319 697.851,-780.902 697.851,-727.044 697.851,-727.044 697.851,-727.044 697.851,-641.053 697.851,-583.592 729.573,-521.972 749.033,-489.578"/>
<polygon fill="black" stroke="black" points="752.131,-491.221 754.395,-480.871 746.171,-487.551 752.131,-491.221"/>
</g>
<!-- 32V -->
<g id="node13" class="node"><title>32V</title>
<polygon fill="#4f94cd" stroke="#4f94cd" points="664.942,-822.91 668.006,-839.472 615.408,-836.438 563.897,-819.4 569.402,-804.491 603.009,-798.163 633.293,-804.001 664.942,-822.91"/>
<text text-anchor="middle" x="616.851" y="-814.139" font-family="Helvetica-Outline" font-size="14.00">32V</text>
</g>
<!-- 7th Edition&#45;&gt;32V -->
<g id="edge12" class="edge"><title>7th Edition&#45;&gt;32V</title>
<path fill="none" stroke="black" d="M443.275,-894.714C473.098,-882.073 516.847,-863.409 554.851,-846.727 564.497,-842.493 574.952,-837.822 584.481,-833.532"/>
<polygon fill="black" stroke="black" points="585.961,-836.705 593.636,-829.401 583.082,-830.324 585.961,-836.705"/>
</g>
<!-- V7M -->
<g id="node14" class="node"><title>V7M</title>
<polygon fill="navy" stroke="navy" points="107.553,-732.404 101.043,-742.559 76.5069,-746.406 52.539,-745.702 34.7718,-739.484 18.5926,-726.138 6.65895,-709.528 12.7511,-699.227 43.764,-702.396 84.3293,-716.592 107.553,-732.404"/>
<text text-anchor="middle" x="53.851" y="-722.344" font-family="Helvetica-Outline" font-size="14.00">V7M</text>
</g>
<!-- 7th Edition&#45;&gt;V7M -->
<g id="edge13" class="edge"><title>7th Edition&#45;&gt;V7M</title>
<path fill="none" stroke="black" d="M346.241,-901.549C297.737,-893.173 229.73,-876.925 176.851,-846.727 135.114,-822.892 97.138,-781.574 74.7551,-754.269"/>
<polygon fill="black" stroke="black" points="77.3202,-751.874 68.3224,-746.28 71.8679,-756.264 77.3202,-751.874"/>
</g>
<!-- Ultrix&#45;11 -->
<g id="node15" class="node"><title>Ultrix&#45;11</title>
<polygon fill="#698b69" stroke="#698b69" points="183.96,-364.965 185.849,-375.895 159.854,-385.154 127.658,-389.909 97.0689,-388.075 65.245,-379.482 39.8535,-367.143 42.3446,-356.476 83.5182,-352.259 143.159,-355.834 183.96,-364.965"/>
<text text-anchor="middle" x="112.851" y="-367.819" font-family="Helvetica-Outline" font-size="14.00">Ultrix&#45;11</text>
</g>
<!-- 7th Edition&#45;&gt;Ultrix&#45;11 -->
<g id="edge14" class="edge"><title>7th Edition&#45;&gt;Ultrix&#45;11</title>
<path fill="none" stroke="black" d="M345.364,-906.505C300.918,-900.787 243.364,-885.699 209.851,-846.727 174.735,-805.89 190.851,-780.902 190.851,-727.044 190.851,-727.044 190.851,-727.044 190.851,-556.909 190.851,-496.285 154.645,-432.679 131.568,-398.294"/>
<polygon fill="black" stroke="black" points="134.279,-396.058 125.731,-389.799 128.51,-400.023 134.279,-396.058"/>
</g>
<!-- Xenix -->
<g id="node16" class="node"><title>Xenix</title>
<polygon fill="coral" stroke="coral" points="322.974,-836.383 287.576,-838.136 246.115,-829.83 222.88,-816.33 225.182,-801.884 251.672,-794.954 293.132,-803.26 325.276,-821.937 322.974,-836.383"/>
<text text-anchor="middle" x="271.851" y="-814.139" font-family="Helvetica-Outline" font-size="14.00">Xenix</text>
</g>
<!-- 7th Edition&#45;&gt;Xenix -->
<g id="edge15" class="edge"><title>7th Edition&#45;&gt;Xenix</title>
<path fill="none" stroke="black" d="M380.329,-891.289C359.682,-877.499 331.207,-858.481 308.611,-843.391"/>
<polygon fill="black" stroke="black" points="310.528,-840.462 300.268,-837.818 306.64,-846.283 310.528,-840.462"/>
</g>
<!-- UniPlus+ -->
<g id="node17" class="node"><title>UniPlus+</title>
<polygon fill="#a2cd5a" stroke="#a2cd5a" points="521.73,-832.06 486.28,-842.659 396.753,-828.807 343.444,-806.696 389.378,-798.737 466.901,-802.598 509.471,-813.316 521.73,-832.06"/>
<text text-anchor="middle" x="444.851" y="-814.139" font-family="Helvetica-Outline" font-size="14.00">UniPlus+</text>
</g>
<!-- 7th Edition&#45;&gt;UniPlus+ -->
<g id="edge16" class="edge"><title>7th Edition&#45;&gt;UniPlus+</title>
<path fill="none" stroke="black" d="M415.517,-890.85C420.918,-877.593 428.219,-859.668 434.187,-845.018"/>
<polygon fill="black" stroke="black" points="437.534,-846.079 438.065,-835.497 431.051,-843.438 437.534,-846.079"/>
</g>
<!-- 9th Edition -->
<g id="node18" class="node"><title>9th Edition</title>
<polygon fill="#cd5b45" stroke="#cd5b45" points="855.194,-385.33 811.026,-395.101 754.941,-385.802 732.674,-365.748 764.495,-351.352 821.381,-351.558 859.246,-365.743 855.194,-385.33"/>
<text text-anchor="middle" x="799.851" y="-367.819" font-family="Helvetica-Outline" font-size="14.00">9th Edition</text>
</g>
<!-- 8th Edition&#45;&gt;9th Edition -->
<g id="edge18" class="edge"><title>8th Edition&#45;&gt;9th Edition</title>
<path fill="none" stroke="black" d="M770.622,-447.309C775.668,-434.398 782.674,-416.471 788.562,-401.406"/>
<polygon fill="black" stroke="black" points="791.857,-402.588 792.238,-392 785.338,-400.04 791.857,-402.588"/>
</g>
<!-- 3 BSD -->
<g id="node22" class="node"><title>3 BSD</title>
<polygon fill="lemonchiffon" stroke="lemonchiffon" points="651.019,-721.922 650.418,-733.364 630.884,-742.01 596.403,-744.044 561.473,-738.885 543.732,-729.138 551.284,-718.723 577.769,-711.104 609.595,-708.678 635.933,-712.568 651.019,-721.922"/>
<text text-anchor="middle" x="600.851" y="-722.344" font-family="Helvetica-Outline" font-size="14.00">3 BSD</text>
</g>
<!-- 32V&#45;&gt;3 BSD -->
<g id="edge23" class="edge"><title>32V&#45;&gt;3 BSD</title>
<path fill="none" stroke="black" d="M613.842,-799.949C611.54,-787.031 608.32,-768.962 605.662,-754.044"/>
<polygon fill="black" stroke="black" points="609.047,-753.089 603.847,-743.858 602.156,-754.317 609.047,-753.089"/>
</g>
<!-- V7M&#45;&gt;Ultrix&#45;11 -->
<g id="edge17" class="edge"><title>V7M&#45;&gt;Ultrix&#45;11</title>
<path fill="none" stroke="black" d="M53.9366,-705.865C54.3796,-670.833 56.675,-594.263 67.851,-530.847 76.2282,-483.312 93.1405,-429.58 103.678,-398.521"/>
<polygon fill="black" stroke="black" points="107.045,-399.493 106.986,-388.899 100.425,-397.218 107.045,-399.493"/>
</g>
<!-- 2.8 BSD -->
<g id="node20" class="node"><title>2.8 BSD</title>
<polygon fill="#b0e2ff" stroke="#b0e2ff" points="290.573,-482.835 230.268,-467.321 283.432,-445.426 367.131,-466.959 290.573,-482.835"/>
<text text-anchor="middle" x="292.851" y="-461.935" font-family="Helvetica-Outline" font-size="14.00">2.8 BSD</text>
</g>
<!-- 2 BSD&#45;&gt;2.8 BSD -->
<g id="edge20" class="edge"><title>2 BSD&#45;&gt;2.8 BSD</title>
<path fill="none" stroke="black" d="M145.007,-543.782C175.968,-527.626 228.533,-500.197 261.929,-482.771"/>
<polygon fill="black" stroke="black" points="263.972,-485.652 271.219,-477.923 260.734,-479.447 263.972,-485.652"/>
</g>
<!-- 2.8 BSD&#45;&gt;Ultrix&#45;11 -->
<g id="edge21" class="edge"><title>2.8 BSD&#45;&gt;Ultrix&#45;11</title>
<path fill="none" stroke="black" d="M267.823,-451.827C237.762,-436.443 186.994,-410.462 151.795,-392.449"/>
<polygon fill="black" stroke="black" points="153.254,-389.264 142.757,-387.824 150.065,-395.495 153.254,-389.264"/>
</g>
<!-- 2.9 BSD -->
<g id="node21" class="node"><title>2.9 BSD</title>
<polygon fill="#76eec6" stroke="#76eec6" points="261.854,-386.111 223.728,-358.436 304.26,-342.709 381.562,-398.821 261.854,-386.111"/>
<text text-anchor="middle" x="292.851" y="-367.819" font-family="Helvetica-Outline" font-size="14.00">2.9 BSD</text>
</g>
<!-- 2.8 BSD&#45;&gt;2.9 BSD -->
<g id="edge22" class="edge"><title>2.8 BSD&#45;&gt;2.9 BSD</title>
<path fill="none" stroke="black" d="M292.851,-447.74C292.851,-434.32 292.851,-415.289 292.851,-399.727"/>
<polygon fill="black" stroke="black" points="296.351,-399.619 292.851,-389.619 289.351,-399.619 296.351,-399.619"/>
</g>
<!-- 4 BSD -->
<g id="node23" class="node"><title>4 BSD</title>
<polygon fill="#ff7f00" stroke="#ff7f00" points="614.615,-654.619 555.567,-658.457 524.551,-639.625 544.847,-620.889 639.676,-636.676 614.615,-654.619"/>
<text text-anchor="middle" x="575.851" y="-638.353" font-family="Helvetica-Outline" font-size="14.00">4 BSD</text>
</g>
<!-- 3 BSD&#45;&gt;4 BSD -->
<g id="edge24" class="edge"><title>3 BSD&#45;&gt;4 BSD</title>
<path fill="none" stroke="black" d="M596.149,-709.622C592.474,-697.571 587.303,-680.612 583.1,-666.827"/>
<polygon fill="black" stroke="black" points="586.38,-665.583 580.115,-657.039 579.684,-667.625 586.38,-665.583"/>
</g>
<!-- 4.1 BSD -->
<g id="node24" class="node"><title>4.1 BSD</title>
<polygon fill="#ffffe0" stroke="#ffffe0" points="554.674,-578.328 472.883,-561.458 500.897,-534.987 606.949,-556.862 554.674,-578.328"/>
<text text-anchor="middle" x="533.851" y="-554.209" font-family="Helvetica-Outline" font-size="14.00">4.1 BSD</text>
</g>
<!-- 4 BSD&#45;&gt;4.1 BSD -->
<g id="edge25" class="edge"><title>4 BSD&#45;&gt;4.1 BSD</title>
<path fill="none" stroke="black" d="M567.352,-624.43C561.565,-613.113 553.788,-597.902 547.183,-584.985"/>
<polygon fill="black" stroke="black" points="550.296,-583.383 542.627,-576.073 544.063,-586.57 550.296,-583.383"/>
</g>
<!-- 4.1 BSD&#45;&gt;8th Edition -->
<g id="edge28" class="edge"><title>4.1 BSD&#45;&gt;8th Edition</title>
<path fill="none" stroke="black" d="M559.344,-546.903C599.527,-531.132 677.866,-500.384 725.061,-481.86"/>
<polygon fill="black" stroke="black" points="726.604,-485.015 734.634,-478.103 724.046,-478.498 726.604,-485.015"/>
</g>
<!-- 4.1 BSD&#45;&gt;2.8 BSD -->
<g id="edge27" class="edge"><title>4.1 BSD&#45;&gt;2.8 BSD</title>
<path fill="none" stroke="black" d="M493.513,-541.799C447.794,-524.674 373.898,-496.994 329.682,-480.431"/>
<polygon fill="black" stroke="black" points="330.777,-477.104 320.184,-476.874 328.321,-483.659 330.777,-477.104"/>
</g>
<!-- 4.2 BSD -->
<g id="node25" class="node"><title>4.2 BSD</title>
<polygon fill="#68228b" stroke="#68228b" points="614.785,-488.779 586.395,-493.223 533.351,-487.13 485.19,-476.792 456.764,-464.642 447.467,-450.421 457.307,-438.047 491.8,-436.211 547.047,-449.578 598.403,-471.529 614.785,-488.779"/>
<text text-anchor="middle" x="521.851" y="-461.935" font-family="Helvetica-Outline" font-size="14.00">4.2 BSD</text>
</g>
<!-- 4.1 BSD&#45;&gt;4.2 BSD -->
<g id="edge26" class="edge"><title>4.1 BSD&#45;&gt;4.2 BSD</title>
<path fill="none" stroke="black" d="M531.761,-541.184C530.08,-528.543 527.675,-510.45 525.655,-495.254"/>
<polygon fill="black" stroke="black" points="529.119,-494.751 524.332,-485.299 522.18,-495.673 529.119,-494.751"/>
</g>
<!-- 4.3 BSD -->
<g id="node26" class="node"><title>4.3 BSD</title>
<polygon fill="#eee9bf" stroke="#eee9bf" points="706.999,-384.206 682.88,-396.363 651.492,-399.03 624.97,-391.377 613.388,-376.256 620.992,-359.209 644.822,-346.675 675.921,-343.631 702.554,-351.428 714.493,-367.015 706.999,-384.206"/>
<text text-anchor="middle" x="663.851" y="-367.819" font-family="Helvetica-Outline" font-size="14.00">4.3 BSD</text>
</g>
<!-- 4.2 BSD&#45;&gt;4.3 BSD -->
<g id="edge29" class="edge"><title>4.2 BSD&#45;&gt;4.3 BSD</title>
<path fill="none" stroke="black" d="M545.619,-449.217C566.736,-435.518 598.055,-415.201 623.154,-398.919"/>
<polygon fill="black" stroke="black" points="625.262,-401.724 631.746,-393.346 621.452,-395.852 625.262,-401.724"/>
</g>
<!-- Ultrix&#45;32 -->
<g id="node27" class="node"><title>Ultrix&#45;32</title>
<polygon fill="#cd9b1d" stroke="#cd9b1d" points="530.685,-388.292 443.298,-379.868 421.991,-350.599 595.43,-367.318 530.685,-388.292"/>
<text text-anchor="middle" x="497.851" y="-367.819" font-family="Helvetica-Outline" font-size="14.00">Ultrix&#45;32</text>
</g>
<!-- 4.2 BSD&#45;&gt;Ultrix&#45;32 -->
<g id="edge30" class="edge"><title>4.2 BSD&#45;&gt;Ultrix&#45;32</title>
<path fill="none" stroke="black" d="M515.918,-441.865C512.246,-427.77 507.545,-409.726 503.859,-395.577"/>
<polygon fill="black" stroke="black" points="507.18,-394.441 501.271,-385.647 500.406,-396.206 507.18,-394.441"/>
</g>
<!-- PWB 1.2&#45;&gt;PWB 2.0 -->
<g id="edge33" class="edge"><title>PWB 1.2&#45;&gt;PWB 2.0</title>
<path fill="none" stroke="black" d="M980.396,-979.471C954.625,-965.441 923.032,-948.242 898.114,-934.677"/>
<polygon fill="black" stroke="black" points="899.715,-931.564 889.259,-929.857 896.368,-937.712 899.715,-931.564"/>
</g>
<!-- CB Unix 1 -->
<g id="node30" class="node"><title>CB Unix 1</title>
<polygon fill="firebrick" stroke="firebrick" points="1377.46,-918.667 1362.97,-931.022 1323.16,-934.494 1281.06,-928.662 1249.63,-914.411 1236.82,-896.566 1253.03,-884.68 1298.95,-886.576 1351.57,-900.949 1377.46,-918.667"/>
<text text-anchor="middle" x="1303.85" y="-906.97" font-family="Helvetica-Outline" font-size="14.00">CB Unix 1</text>
</g>
<!-- USG 1.0&#45;&gt;CB Unix 1 -->
<g id="edge34" class="edge"><title>USG 1.0&#45;&gt;CB Unix 1</title>
<path fill="none" stroke="black" d="M1214.31,-992.285C1230.37,-977.823 1256.67,-954.148 1276.62,-936.187"/>
<polygon fill="black" stroke="black" points="1279.1,-938.663 1284.19,-929.371 1274.42,-933.461 1279.1,-938.663"/>
</g>
<!-- USG 2.0 -->
<g id="node31" class="node"><title>USG 2.0</title>
<polygon fill="#458b00" stroke="#458b00" points="1048.16,-937.65 988.728,-882.784 1103.54,-896.616 1134.97,-925.629 1048.16,-937.65"/>
<text text-anchor="middle" x="1068.85" y="-906.97" font-family="Helvetica-Outline" font-size="14.00">USG 2.0</text>
</g>
<!-- USG 1.0&#45;&gt;USG 2.0 -->
<g id="edge35" class="edge"><title>USG 1.0&#45;&gt;USG 2.0</title>
<path fill="none" stroke="black" d="M1181.91,-992.482C1162.02,-978.262 1129.42,-954.964 1104.33,-937.029"/>
<polygon fill="black" stroke="black" points="1106.31,-934.14 1096.14,-931.172 1102.24,-939.835 1106.31,-934.14"/>
</g>
<!-- CB Unix 2 -->
<g id="node32" class="node"><title>CB Unix 2</title>
<polygon fill="greenyellow" stroke="greenyellow" points="1393.01,-816.287 1402.06,-830.51 1385.82,-839.893 1335.47,-837.977 1275.97,-826.59 1248.63,-813.639 1269.64,-805.168 1315.94,-801.538 1354.81,-801.257 1377.16,-805.533 1393.01,-816.287"/>
<text text-anchor="middle" x="1335.85" y="-814.139" font-family="Helvetica-Outline" font-size="14.00">CB Unix 2</text>
</g>
<!-- CB Unix 1&#45;&gt;CB Unix 2 -->
<g id="edge36" class="edge"><title>CB Unix 1&#45;&gt;CB Unix 2</title>
<path fill="none" stroke="black" d="M1310.95,-889.512C1315.4,-876.895 1321.19,-860.464 1326.06,-846.621"/>
<polygon fill="black" stroke="black" points="1329.4,-847.685 1329.42,-837.09 1322.8,-845.359 1329.4,-847.685"/>
</g>
<!-- USG 3.0 -->
<g id="node36" class="node"><title>USG 3.0</title>
<polygon fill="#eed5b7" stroke="#eed5b7" points="934.136,-836.047 872.057,-820.225 888.102,-789.064 1033.11,-826.022 934.136,-836.047"/>
<text text-anchor="middle" x="931.851" y="-814.139" font-family="Helvetica-Outline" font-size="14.00">USG 3.0</text>
</g>
<!-- USG 2.0&#45;&gt;USG 3.0 -->
<g id="edge40" class="edge"><title>USG 2.0&#45;&gt;USG 3.0</title>
<path fill="none" stroke="black" d="M1037.08,-888.603C1014.89,-873.891 985.394,-854.338 963.28,-839.677"/>
<polygon fill="black" stroke="black" points="965.166,-836.728 954.898,-834.119 961.298,-842.562 965.166,-836.728"/>
</g>
<!-- CB Unix 3 -->
<g id="node33" class="node"><title>CB Unix 3</title>
<polygon fill="#8b7d6b" stroke="#8b7d6b" points="1316.17,-724.38 1337.01,-739.867 1326.47,-750.074 1270.55,-748.07 1197.5,-735.779 1157.5,-721.643 1172.69,-712.22 1219.27,-708.077 1261.42,-707.765 1289.93,-712.561 1316.17,-724.38"/>
<text text-anchor="middle" x="1254.85" y="-722.344" font-family="Helvetica-Outline" font-size="14.00">CB Unix 3</text>
</g>
<!-- CB Unix 2&#45;&gt;CB Unix 3 -->
<g id="edge37" class="edge"><title>CB Unix 2&#45;&gt;CB Unix 3</title>
<path fill="none" stroke="black" d="M1321.74,-801.198C1310.47,-788.704 1294.37,-770.855 1280.79,-755.8"/>
<polygon fill="black" stroke="black" points="1283.25,-753.305 1273.96,-748.224 1278.06,-757.994 1283.25,-753.305"/>
</g>
<!-- Unix/TS++ -->
<g id="node34" class="node"><title>Unix/TS++</title>
<polygon fill="#eed5d2" stroke="#eed5d2" points="1221.05,-648.557 1181.45,-661.825 1064.86,-653.419 1040.65,-635.55 1106.65,-624.184 1170.46,-628.785 1221.05,-648.557"/>
<text text-anchor="middle" x="1130.85" y="-638.353" font-family="Helvetica-Outline" font-size="14.00">Unix/TS++</text>
</g>
<!-- CB Unix 3&#45;&gt;Unix/TS++ -->
<g id="edge38" class="edge"><title>CB Unix 3&#45;&gt;Unix/TS++</title>
<path fill="none" stroke="black" d="M1228.86,-707.856C1210.42,-695.666 1185.49,-679.179 1165.38,-665.886"/>
<polygon fill="black" stroke="black" points="1167.08,-662.814 1156.81,-660.218 1163.22,-668.654 1167.08,-662.814"/>
</g>
<!-- PDP&#45;11 Sys V -->
<g id="node35" class="node"><title>PDP&#45;11 Sys V</title>
<polygon fill="#98f5ff" stroke="#98f5ff" points="1408.21,-646.784 1380.9,-657.32 1329.31,-661.187 1282.14,-657.466 1254.48,-646.533 1252.32,-632.139 1281.2,-621.91 1336.17,-622.307 1389.93,-632.834 1408.21,-646.784"/>
<text text-anchor="middle" x="1323.85" y="-638.353" font-family="Helvetica-Outline" font-size="14.00">PDP&#45;11 Sys V</text>
</g>
<!-- CB Unix 3&#45;&gt;PDP&#45;11 Sys V -->
<g id="edge39" class="edge"><title>CB Unix 3&#45;&gt;PDP&#45;11 Sys V</title>
<path fill="none" stroke="black" d="M1268.48,-708.845C1278.37,-697.096 1291.92,-680.995 1303.14,-667.662"/>
<polygon fill="black" stroke="black" points="1306.01,-669.686 1309.77,-659.781 1300.66,-665.179 1306.01,-669.686"/>
</g>
<!-- CB Unix 3&#45;&gt;TS 4.0 -->
<g id="edge46" class="edge"><title>CB Unix 3&#45;&gt;TS 4.0</title>
<path fill="none" stroke="black" d="M1174.77,-712.017C1119.01,-701.296 1051.29,-684.421 1031.85,-663.135 1013.11,-642.618 1009.87,-610.019 1010.37,-586.743"/>
<polygon fill="black" stroke="black" points="1013.87,-586.62 1010.83,-576.471 1006.88,-586.301 1013.87,-586.62"/>
</g>
<!-- Unix/TS++&#45;&gt;TS 4.0 -->
<g id="edge45" class="edge"><title>Unix/TS++&#45;&gt;TS 4.0</title>
<path fill="none" stroke="black" d="M1106.4,-624.033C1091.32,-613.533 1071.58,-599.795 1054.13,-587.644"/>
<polygon fill="black" stroke="black" points="1055.98,-584.669 1045.77,-581.828 1051.98,-590.414 1055.98,-584.669"/>
</g>
<!-- USG 3.0&#45;&gt;Unix/TS 3.0 -->
<g id="edge41" class="edge"><title>USG 3.0&#45;&gt;Unix/TS 3.0</title>
<path fill="none" stroke="black" d="M931.851,-799.949C931.851,-787.804 931.851,-771.106 931.851,-756.755"/>
<polygon fill="black" stroke="black" points="935.351,-756.352 931.851,-746.352 928.351,-756.352 935.351,-756.352"/>
</g>
<!-- Unix/TS 1.0 -->
<g id="node37" class="node"><title>Unix/TS 1.0</title>
<polygon fill="orangered" stroke="orangered" points="1097.19,-837.378 1050.7,-805.763 1192.33,-803.619 1223.18,-824.597 1097.19,-837.378"/>
<text text-anchor="middle" x="1140.85" y="-814.139" font-family="Helvetica-Outline" font-size="14.00">Unix/TS 1.0</text>
</g>
<!-- Unix/TS 1.0&#45;&gt;Unix/TS 3.0 -->
<g id="edge43" class="edge"><title>Unix/TS 1.0&#45;&gt;Unix/TS 3.0</title>
<path fill="none" stroke="black" d="M1112.66,-804.729C1083.49,-792.196 1036.88,-772.167 998.283,-755.586"/>
<polygon fill="black" stroke="black" points="999.229,-752.183 988.659,-751.451 996.465,-758.614 999.229,-752.183"/>
</g>
<!-- System V.0 -->
<g id="node39" class="node"><title>System V.0</title>
<polygon fill="#ff7f00" stroke="#ff7f00" points="1101.83,-467.635 1077.2,-478.707 1022.26,-483.635 962.355,-480.06 926.081,-469.735 930.968,-457.573 974.363,-449.211 1035.27,-448.464 1085.33,-455.698 1101.83,-467.635"/>
<text text-anchor="middle" x="1012.85" y="-461.935" font-family="Helvetica-Outline" font-size="14.00">System V.0</text>
</g>
<!-- TS 4.0&#45;&gt;System V.0 -->
<g id="edge47" class="edge"><title>TS 4.0&#45;&gt;System V.0</title>
<path fill="none" stroke="black" d="M1012.85,-536.424C1012.85,-523.7 1012.85,-507.204 1012.85,-493.446"/>
<polygon fill="black" stroke="black" points="1016.35,-493.122 1012.85,-483.122 1009.35,-493.122 1016.35,-493.122"/>
</g>
<!-- System V.2 -->
<g id="node40" class="node"><title>System V.2</title>
<polygon fill="#6e8b3d" stroke="#6e8b3d" points="1114.88,-388.385 1040.74,-394.849 897.1,-371.105 910.82,-354.653 1026.57,-355.067 1086.99,-365.055 1114.88,-388.385"/>
<text text-anchor="middle" x="1012.85" y="-367.819" font-family="Helvetica-Outline" font-size="14.00">System V.2</text>
</g>
<!-- System V.0&#45;&gt;System V.2 -->
<g id="edge48" class="edge"><title>System V.0&#45;&gt;System V.2</title>
<path fill="none" stroke="black" d="M1012.85,-448.59C1012.85,-435.355 1012.85,-416.265 1012.85,-400.519"/>
<polygon fill="black" stroke="black" points="1016.35,-400.266 1012.85,-390.266 1009.35,-400.266 1016.35,-400.266"/>
</g>
<!-- System V.3 -->
<g id="node41" class="node"><title>System V.3</title>
<polygon fill="#cae1ff" stroke="#cae1ff" points="1077.51,-302.819 1002.64,-300.044 951.586,-291.404 946.671,-276.667 975.459,-260.191 1039.58,-264.122 1096.51,-287.903 1077.51,-302.819"/>
<text text-anchor="middle" x="1012.85" y="-279.607" font-family="Helvetica-Outline" font-size="14.00">System V.3</text>
</g>
<!-- System V.2&#45;&gt;System V.3 -->
<g id="edge49" class="edge"><title>System V.2&#45;&gt;System V.3</title>
<path fill="none" stroke="black" d="M1012.85,-354.706C1012.85,-342.466 1012.85,-325.237 1012.85,-310.887"/>
<polygon fill="black" stroke="black" points="1016.35,-310.605 1012.85,-300.605 1009.35,-310.605 1016.35,-310.605"/>
</g>
</g>
</svg>
