<?xml version="1.0" encoding="UTF-8" standalone="no"?><svg xmlns="http://www.w3.org/2000/svg" xmlns:xlink="http://www.w3.org/1999/xlink" contentStyleType="text/css" height="189px" preserveAspectRatio="none" style="width:203px;height:189px;background:#FFFFFF;" version="1.1" viewBox="0 0 203 189" width="203px" zoomAndPan="magnify"><defs/><g><!--MD5=[245d2f63106c9e261e62f339c1a83039]
entity Component--><g id="elem_Component"><rect fill="#F1F1F1" height="49.1201" rx="2.5" ry="2.5" style="stroke:#181818;stroke-width:0.5;" width="113" x="7" y="7"/><rect fill="#F1F1F1" height="10" style="stroke:#181818;stroke-width:0.5;" width="15" x="100" y="12"/><rect fill="#F1F1F1" height="2" style="stroke:#181818;stroke-width:0.5;" width="4" x="98" y="14"/><rect fill="#F1F1F1" height="2" style="stroke:#181818;stroke-width:0.5;" width="4" x="98" y="18"/><text fill="#000000" font-family="sans-serif" font-size="14" lengthAdjust="spacing" textLength="73" x="22" y="43.0439">Component</text></g><!--MD5=[da94713845aad0e22b579531246e792c]
entity Interface1--><g id="elem_Interface1"><ellipse cx="63.5" cy="148" fill="#F1F1F1" rx="8" ry="8" style="stroke:#181818;stroke-width:0.5;"/><text fill="#000000" font-family="sans-serif" font-size="14" lengthAdjust="spacing" textLength="63" x="32" y="181.0439">Interface1</text></g><!--MD5=[b2b86481b352a5828e039158fb969b0a]
entity Interface2--><g id="elem_Interface2"><ellipse cx="164.5" cy="31.5" fill="#F1F1F1" rx="8" ry="8" style="stroke:#181818;stroke-width:0.5;"/><text fill="#000000" font-family="sans-serif" font-size="14" lengthAdjust="spacing" textLength="63" x="133" y="64.5439">Interface2</text></g><!--MD5=[281026e945f2ca7a943553241a3b9e38]
link Component to Interface1--><g id="link_Component_Interface1"><path d="M63.5,56.224 C63.5,79.613 63.5,114.5286 63.5,133.5184 " fill="none" id="Component-to-Interface1" style="stroke:#181818;stroke-width:1.0;"/><polygon fill="#181818" points="63.5,138.8701,67.5,129.8701,63.5,133.8701,59.5,129.8701,63.5,138.8701" style="stroke:#181818;stroke-width:1.0;"/></g><!--MD5=[6d7bd8e47e070319c05031b2eb6b6458]
link Component to Interface2--><g id="link_Component_Interface2"><path d="M120.313,31.5 C130.21,31.5 140.107,31.5 150.004,31.5 " fill="none" id="Component-to-Interface2" style="stroke:#181818;stroke-width:1.0;"/><polygon fill="#181818" points="155.179,31.5,146.179,27.5,150.179,31.5,146.179,35.5,155.179,31.5" style="stroke:#181818;stroke-width:1.0;"/></g><!--MD5=[168ebe1c510b97a7108eacda536c5faa]
@startuml
[Component] - -> Interface1
[Component] -> Interface2
@enduml

PlantUML version 1.2022.4(Sat Apr 09 21:29:17 CST 2022)
(GPL source distribution)
Java Runtime: Java(TM) SE Runtime Environment
JVM: Java HotSpot(TM) 64-Bit Server VM
Default Encoding: GBK
Language: zh
Country: CN
--></g></svg>