<?xml version="1.0" encoding="UTF-8" standalone="no"?><svg xmlns="http://www.w3.org/2000/svg" xmlns:xlink="http://www.w3.org/1999/xlink" contentStyleType="text/css" height="597px" preserveAspectRatio="none" style="width:488px;height:597px;background:#FFFFFF;" version="1.1" viewBox="0 0 488 597" width="488px" zoomAndPan="magnify"><defs/><g><!--MD5=[262aabfe314dcb38308ea550cce12173]
cluster Some Group--><g id="cluster_Some Group"><path d="M8.5,6 L96.5,6 A3.75,3.75 0 0 1 99,8.5 L106,31.1201 L437.5,31.1201 A2.5,2.5 0 0 1 440,33.6201 L440,106.5 A2.5,2.5 0 0 1 437.5,109 L8.5,109 A2.5,2.5 0 0 1 6,106.5 L6,8.5 A2.5,2.5 0 0 1 8.5,6 " style="stroke:#000000;stroke-width:1.5;fill:none;"/><line style="stroke:#000000;stroke-width:1.5;fill:none;" x1="6" x2="106" y1="31.1201" y2="31.1201"/><text fill="#000000" font-family="sans-serif" font-size="14" font-weight="bold" lengthAdjust="spacing" textLength="87" x="10" y="24.0439">Some Group</text></g><!--MD5=[a809f7b457cbc4d947186a4bb863b06b]
cluster Other Groups--><g id="cluster_Other Groups"><polygon points="38,143,48,133,289,133,289,231,279,241,38,241,38,143" style="stroke:#181818;stroke-width:1.0;fill:none;"/><line style="stroke:#181818;stroke-width:1.0;fill:none;" x1="279" x2="289" y1="143" y2="133"/><line style="stroke:#181818;stroke-width:1.0;fill:none;" x1="38" x2="279" y1="143" y2="143"/><line style="stroke:#181818;stroke-width:1.0;fill:none;" x1="279" x2="279" y1="143" y2="241"/><text fill="#000000" font-family="sans-serif" font-size="14" font-weight="bold" lengthAdjust="spacing" textLength="96" x="111.5" y="162.0439">Other Groups</text></g><g id="cluster_##13"><path d="M321.1072,168.8455 C325.2325,162.0807 329.1045,161.9918 333.6454,168.4515 C336.7116,162.7379 342.9356,162.9511 346.1359,168.3 C349.685,162.0002 354.8236,161.3688 359.0538,167.5976 C362.1475,160.6019 366.8874,159.9648 371.3752,166.31 C375.1766,160.1241 379.1978,160.1855 383.5735,165.7119 C387.0905,160.286 392.4467,160.1277 396.1584,165.4848 C400.7597,159.9482 404.3152,160.9996 407.3828,166.9796 C411.0405,161.2681 417.1971,161.1108 420.601,167.2624 C425.1058,162.5162 428.9727,163.5102 431.523,169.2904 C435.2019,163.6831 439.0968,163.1166 443.3951,168.629 C450.8366,169.7061 451.7066,175.3974 447.6639,180.5774 C452.8052,181.9648 454.3963,185.142 451.0849,189.6994 C457.0781,192.0235 459.536,196.8157 453.8866,201.8291 C457.5842,207.093 455.9422,211.5482 449.8214,213.3467 C454.6098,217.6936 452.5359,222.6632 446.7843,224.0075 C451.7568,228.6256 449.502,233.3239 443.8728,235.1791 C439.4323,241.4188 434.7735,240.5458 431.7489,233.8517 C428.0083,239.6021 423.4027,239.6362 420.0143,233.5039 C416.9748,240.9496 412.6868,240.3216 407.6112,235.5751 C404.0171,241.802 398.249,242.4716 394.4917,235.7403 C391.2154,241.8071 387.138,241.8192 383.4853,236.0916 C380.1178,243.0537 373.7728,242.659 370.5859,235.9215 C365.8156,241.5097 361.8252,241.3582 357.8686,235.0515 C354.2929,240.9354 349.8678,241.857 345.8418,235.4937 C342.1839,241.0917 337.5646,240.4783 334.0276,235.3604 C330.235,240.7259 324.3995,240.7113 322.1382,233.869 C312.8939,229.8065 313.2056,223.8909 319.6624,217.4594 C311.7231,213.8046 311.3024,205.9707 318.2005,200.9981 C311.151,194.1266 312.4437,188.9554 320.8466,184.5733 C314.5436,180.0932 314.4236,173.1105 321.1072,168.8455 " style="stroke:#181818;stroke-width:1.0;fill:none;"/></g><!--MD5=[a8e31809c94bd3920922c17a126bb0b3]
cluster MySql--><g id="cluster_MySql"><path d="M293,275 C293,265 382,265 382,265 C382,265 471,265 471,275 L471,570 C471,580 382,580 382,580 C382,580 293,580 293,570 L293,275 " style="stroke:#181818;stroke-width:1.0;fill:none;"/><path d="M293,275 C293,285 382,285 382,285 C382,285 471,285 471,275 " fill="none" style="stroke:#181818;stroke-width:1.0;"/><text fill="#000000" font-family="sans-serif" font-size="14" font-weight="bold" lengthAdjust="spacing" textLength="42" x="361" y="303.0439">MySql</text></g><!--MD5=[57a7dd60b0970f41fd8892a58576fbc8]
cluster This is my folder--><g id="cluster_This is my folder"><path d="M319.5,326 L434.5,326 A3.75,3.75 0 0 1 437,328.5 L444,351.1201 L444.5,351.1201 A2.5,2.5 0 0 1 447,353.6201 L447,426.5 A2.5,2.5 0 0 1 444.5,429 L319.5,429 A2.5,2.5 0 0 1 317,426.5 L317,328.5 A2.5,2.5 0 0 1 319.5,326 " style="stroke:#000000;stroke-width:1.5;fill:none;"/><line style="stroke:#000000;stroke-width:1.5;fill:none;" x1="317" x2="444" y1="351.1201" y2="351.1201"/><text fill="#000000" font-family="sans-serif" font-size="14" font-weight="bold" lengthAdjust="spacing" textLength="114" x="321" y="344.0439">This is my folder</text></g><!--MD5=[b098bf3b49ab5940c6091a421f0675e2]
cluster Foo--><g id="cluster_Foo"><rect height="103" rx="2.5" ry="2.5" style="stroke:#181818;stroke-width:1.0;fill:none;" width="126" x="319" y="453"/><path d="M356,453 L356,465.1201 L346,475.1201 L319,475.1201 " fill="none" style="stroke:#181818;stroke-width:1.0;"/><text fill="#000000" font-family="sans-serif" font-size="14" font-weight="bold" lengthAdjust="spacing" textLength="27" x="322" y="470.0439">Foo</text></g><!--MD5=[96f7e1299d4a43069e6ed32352fcac20]
entity HTTP--><g id="elem_HTTP"><ellipse cx="212" cy="68.5" fill="#F1F1F1" rx="8" ry="8" style="stroke:#181818;stroke-width:0.5;"/><text fill="#000000" font-family="sans-serif" font-size="14" lengthAdjust="spacing" textLength="36" x="194" y="101.5439">HTTP</text></g><!--MD5=[cbd7cda55f2530e2efe43ec72c097853]
entity First Component--><g id="elem_First Component"><rect fill="#F1F1F1" height="49.1201" rx="2.5" ry="2.5" style="stroke:#181818;stroke-width:0.5;" width="145" x="22.5" y="44"/><rect fill="#F1F1F1" height="10" style="stroke:#181818;stroke-width:0.5;" width="15" x="147.5" y="49"/><rect fill="#F1F1F1" height="2" style="stroke:#181818;stroke-width:0.5;" width="4" x="145.5" y="51"/><rect fill="#F1F1F1" height="2" style="stroke:#181818;stroke-width:0.5;" width="4" x="145.5" y="55"/><text fill="#000000" font-family="sans-serif" font-size="14" lengthAdjust="spacing" textLength="105" x="37.5" y="80.0439">First Component</text></g><!--MD5=[b9d11f23832c1491231c5b33e55ab8c6]
entity Another Component--><g id="elem_Another Component"><rect fill="#F1F1F1" height="49.1201" rx="2.5" ry="2.5" style="stroke:#181818;stroke-width:0.5;" width="167" x="256.5" y="44"/><rect fill="#F1F1F1" height="10" style="stroke:#181818;stroke-width:0.5;" width="15" x="403.5" y="49"/><rect fill="#F1F1F1" height="2" style="stroke:#181818;stroke-width:0.5;" width="4" x="401.5" y="51"/><rect fill="#F1F1F1" height="2" style="stroke:#181818;stroke-width:0.5;" width="4" x="401.5" y="55"/><text fill="#000000" font-family="sans-serif" font-size="14" lengthAdjust="spacing" textLength="127" x="271.5" y="80.0439">Another Component</text></g><!--MD5=[76af18d92d7d7c0f7ebd8f4f605ac5aa]
entity FTP--><g id="elem_FTP"><ellipse cx="63" cy="200.5" fill="#F1F1F1" rx="8" ry="8" style="stroke:#181818;stroke-width:0.5;"/><text fill="#000000" font-family="sans-serif" font-size="14" lengthAdjust="spacing" textLength="27" x="49.5" y="233.5439">FTP</text></g><!--MD5=[0e2cc1aee2c7f52697e111b4fb84546c]
entity Second Component--><g id="elem_Second Component"><rect fill="#F1F1F1" height="49.1201" rx="2.5" ry="2.5" style="stroke:#181818;stroke-width:0.5;" width="165" x="107.5" y="176"/><rect fill="#F1F1F1" height="10" style="stroke:#181818;stroke-width:0.5;" width="15" x="252.5" y="181"/><rect fill="#F1F1F1" height="2" style="stroke:#181818;stroke-width:0.5;" width="4" x="250.5" y="183"/><rect fill="#F1F1F1" height="2" style="stroke:#181818;stroke-width:0.5;" width="4" x="250.5" y="187"/><text fill="#000000" font-family="sans-serif" font-size="14" lengthAdjust="spacing" textLength="125" x="122.5" y="212.0439">Second Component</text></g><!--MD5=[243c1e580c31013c48b02624e18b25a7]
entity Example 1--><g id="elem_Example 1"><rect fill="#F1F1F1" height="49.1201" rx="2.5" ry="2.5" style="stroke:#181818;stroke-width:0.5;" width="105" x="329.5" y="176"/><rect fill="#F1F1F1" height="10" style="stroke:#181818;stroke-width:0.5;" width="15" x="414.5" y="181"/><rect fill="#F1F1F1" height="2" style="stroke:#181818;stroke-width:0.5;" width="4" x="412.5" y="183"/><rect fill="#F1F1F1" height="2" style="stroke:#181818;stroke-width:0.5;" width="4" x="412.5" y="187"/><text fill="#000000" font-family="sans-serif" font-size="14" lengthAdjust="spacing" textLength="65" x="344.5" y="212.0439">Example 1</text></g><!--MD5=[3e0e08c92570480402984701ab5a6d2d]
entity Folder 3--><g id="elem_Folder 3"><rect fill="#F1F1F1" height="49.1201" rx="2.5" ry="2.5" style="stroke:#181818;stroke-width:0.5;" width="93" x="335.5" y="364"/><rect fill="#F1F1F1" height="10" style="stroke:#181818;stroke-width:0.5;" width="15" x="408.5" y="369"/><rect fill="#F1F1F1" height="2" style="stroke:#181818;stroke-width:0.5;" width="4" x="406.5" y="371"/><rect fill="#F1F1F1" height="2" style="stroke:#181818;stroke-width:0.5;" width="4" x="406.5" y="375"/><text fill="#000000" font-family="sans-serif" font-size="14" lengthAdjust="spacing" textLength="53" x="350.5" y="400.0439">Folder 3</text></g><!--MD5=[63877ed85df621d134a6c80fb52dad56]
entity Frame 4--><g id="elem_Frame 4"><rect fill="#F1F1F1" height="49.1201" rx="2.5" ry="2.5" style="stroke:#181818;stroke-width:0.5;" width="93" x="335.5" y="491"/><rect fill="#F1F1F1" height="10" style="stroke:#181818;stroke-width:0.5;" width="15" x="408.5" y="496"/><rect fill="#F1F1F1" height="2" style="stroke:#181818;stroke-width:0.5;" width="4" x="406.5" y="498"/><rect fill="#F1F1F1" height="2" style="stroke:#181818;stroke-width:0.5;" width="4" x="406.5" y="502"/><text fill="#000000" font-family="sans-serif" font-size="14" lengthAdjust="spacing" textLength="53" x="350.5" y="527.0439">Frame 4</text></g><!--MD5=[46d996859f59e5baf77956ce93023cee]
link HTTP to First Component--><g id="link_HTTP_First Component"><path d="M202.995,68.5 C191.219,68.5 179.444,68.5 167.668,68.5 " fill="none" id="HTTP-First Component" style="stroke:#181818;stroke-width:1.0;"/></g><!--MD5=[1966a42bb49d59057147dbda06282f4b]
link FTP to Second Component--><g id="link_FTP_Second Component"><path d="M72.4258,200.5 C84.0607,200.5 95.696,200.5 107.331,200.5 " fill="none" id="FTP-Second Component" style="stroke:#181818;stroke-width:1.0;"/></g><!--MD5=[d3aefbd8005e27b21e7ce98ddd948193]
link First Component to FTP--><g id="link_First Component_FTP"><path d="M89.205,93.042 C82.4972,120.293 71.6821,164.229 66.2845,186.157 " fill="none" id="First Component-to-FTP" style="stroke:#181818;stroke-width:1.0;"/><polygon fill="#181818" points="65.0348,191.234,71.071,183.4517,66.2305,186.3791,63.3031,181.5386,65.0348,191.234" style="stroke:#181818;stroke-width:1.0;"/></g><!--MD5=[efc1ffe8b578a0fb156c7bce303319bb]
link Another Component to Example 1--><g id="link_Another Component_Example 1"><path d="M347.606,93.042 C354.668,114.901 365.199,147.496 372.746,170.856 " fill="none" id="Another Component-to-Example 1" style="stroke:#181818;stroke-width:1.0;"/><polygon fill="#181818" points="374.309,175.694,375.3489,165.9002,372.7721,170.9361,367.7362,168.3593,374.309,175.694" style="stroke:#181818;stroke-width:1.0;"/></g><!--MD5=[7ec8393a78a133520e8846dd05a7857a]
link Example 1 to Folder 3--><g id="link_Example 1_Folder 3"><path d="M382,225.057 C382,259.065 382,321.855 382,358.613 " fill="none" id="Example 1-to-Folder 3" style="stroke:#181818;stroke-width:1.0;"/><polygon fill="#181818" points="382,363.841,386,354.841,382,358.841,378,354.841,382,363.841" style="stroke:#181818;stroke-width:1.0;"/></g><!--MD5=[b96c7096199393c1414a8b4e9ed2c30f]
link Folder 3 to Frame 4--><g id="link_Folder 3_Frame 4"><path d="M382,413.012 C382,433.57 382,463.499 382,485.531 " fill="none" id="Folder 3-to-Frame 4" style="stroke:#181818;stroke-width:1.0;"/><polygon fill="#181818" points="382,490.669,386,481.669,382,485.669,378,481.669,382,490.669" style="stroke:#181818;stroke-width:1.0;"/></g><!--MD5=[3cf2e25b85daeba6f9cf106836affb43]
@startuml

package "Some Group" {
  HTTP - [First Component]
  [Another Component]
}
 
node "Other Groups" {
  FTP - [Second Component]
  [First Component] - -> FTP
} 

cloud {
  [Example 1]
}


database "MySql" {
  folder "This is my folder" {
    [Folder 3]
  }
  frame "Foo" {
    [Frame 4]
  }
}


[Another Component] - -> [Example 1]
[Example 1] - -> [Folder 3]
[Folder 3] - -> [Frame 4]

@enduml

PlantUML version 1.2022.4(Sat Apr 09 21:29:17 CST 2022)
(GPL source distribution)
Java Runtime: Java(TM) SE Runtime Environment
JVM: Java HotSpot(TM) 64-Bit Server VM
Default Encoding: GBK
Language: zh
Country: CN
--></g></svg>