<?xml version="1.0" encoding="UTF-8" standalone="no"?><svg xmlns="http://www.w3.org/2000/svg" xmlns:xlink="http://www.w3.org/1999/xlink" contentStyleType="text/css" height="177px" preserveAspectRatio="none" style="width:259px;height:177px;background:#FFFFFF;" version="1.1" viewBox="0 0 259 177" width="259px" zoomAndPan="magnify"><defs/><g><!--MD5=[dda5f3a7ebfb005891e95a01d056c369]
entity First Interface--><g id="elem_First Interface"><ellipse cx="49.5" cy="14" fill="#F1F1F1" rx="8" ry="8" style="stroke:#181818;stroke-width:0.5;"/><text fill="#000000" font-family="sans-serif" font-size="14" lengthAdjust="spacing" textLength="87" x="6" y="47.0439">First Interface</text></g><!--MD5=[94d4c555eeabb6ac484bbc309a441d5f]
entity Interf2--><g id="elem_Interf2"><ellipse cx="197.5" cy="14" fill="#F1F1F1" rx="8" ry="8" style="stroke:#181818;stroke-width:0.5;"/><text fill="#000000" font-family="sans-serif" font-size="14" lengthAdjust="spacing" textLength="109" x="143" y="47.0439">Another interface</text></g><!--MD5=[7265947c535ad6c90194051c8a7d1ab2]
class Interf3--><g id="elem_Interf3"><rect codeLine="4" fill="#F1F1F1" height="48" id="Interf3" rx="2.5" ry="2.5" style="stroke:#181818;stroke-width:0.5;" width="73" x="13" y="114"/><ellipse cx="28" cy="130" fill="#B4A7E5" rx="11" ry="11" style="stroke:#181818;stroke-width:1.0;"/><path d="M24.5938,124.2813 L24.5938,123.875 L30.9063,123.875 L30.9063,124.2813 L28.375,124.2813 Q28.375,124.2813 28.5234,124.4141 Q28.6719,124.5469 28.6719,124.8125 L28.6719,134.2969 Q28.6719,134.5625 28.8906,134.6953 Q29.1094,134.8281 29.1094,134.8281 L30.9063,134.8281 L30.9063,135.2344 L24.5938,135.2344 L24.5938,134.8281 L26.125,134.8281 Q26.4531,134.8281 26.5859,134.6953 Q26.7188,134.5625 26.7188,134.2969 L26.7188,124.8125 Q26.7188,124.5469 26.5859,124.4141 Q26.4531,124.2813 26.125,124.2813 L24.5938,124.2813 Z " fill="#000000"/><text fill="#000000" font-family="sans-serif" font-size="14" font-style="italic" lengthAdjust="spacing" textLength="41" x="42" y="136.4839">Interf3</text><line style="stroke:#181818;stroke-width:0.5;" x1="14" x2="85" y1="146" y2="146"/><line style="stroke:#181818;stroke-width:0.5;" x1="14" x2="85" y1="154" y2="154"/></g><!--MD5=[abdb98634bb836bdd042cacf8fa90152]
class Interf4--><g id="elem_Interf4"><rect codeLine="5" fill="#F1F1F1" height="64.2402" id="Interf4" rx="2.5" ry="2.5" style="stroke:#181818;stroke-width:0.5;" width="87" x="121" y="106"/><ellipse cx="136" cy="130.1201" fill="#B4A7E5" rx="11" ry="11" style="stroke:#181818;stroke-width:1.0;"/><path d="M132.5938,124.4014 L132.5938,123.9951 L138.9063,123.9951 L138.9063,124.4014 L136.375,124.4014 Q136.375,124.4014 136.5234,124.5342 Q136.6719,124.667 136.6719,124.9326 L136.6719,134.417 Q136.6719,134.6826 136.8906,134.8154 Q137.1094,134.9482 137.1094,134.9482 L138.9063,134.9482 L138.9063,135.3545 L132.5938,135.3545 L132.5938,134.9482 L134.125,134.9482 Q134.4531,134.9482 134.5859,134.8154 Q134.7188,134.6826 134.7188,134.417 L134.7188,124.9326 Q134.7188,124.667 134.5859,124.5342 Q134.4531,124.4014 134.125,124.4014 L132.5938,124.4014 Z " fill="#000000"/><text fill="#000000" font-family="sans-serif" font-size="14" font-style="italic" lengthAdjust="spacing" textLength="27" x="164" y="127.0439">Last</text><text fill="#000000" font-family="sans-serif" font-size="14" font-style="italic" lengthAdjust="spacing" textLength="55" x="150" y="146.1641">interface</text><line style="stroke:#181818;stroke-width:0.5;" x1="122" x2="207" y1="154.2402" y2="154.2402"/><line style="stroke:#181818;stroke-width:0.5;" x1="122" x2="207" y1="162.2402" y2="162.2402"/></g><!--MD5=[92dce53a9793af320d257e793a32df2c]
@startuml

() "First Interface"
() "Another interface" as Interf2
interface Interf3
interface "Last\ninterface" as Interf4

@enduml

PlantUML version 1.2022.4(Sat Apr 09 21:29:17 CST 2022)
(GPL source distribution)
Java Runtime: Java(TM) SE Runtime Environment
JVM: Java HotSpot(TM) 64-Bit Server VM
Default Encoding: GBK
Language: zh
Country: CN
--></g></svg>