<?xml version="1.0" encoding="UTF-8" standalone="no"?><svg xmlns="http://www.w3.org/2000/svg" xmlns:xlink="http://www.w3.org/1999/xlink" contentStyleType="text/css" height="190px" preserveAspectRatio="none" style="width:415px;height:190px;background:#FFFFFF;" version="1.1" viewBox="0 0 415 190" width="415px" zoomAndPan="magnify"><defs/><g><!--MD5=[bdbee0fc59a29b9ec21c283a244fef13]
entity DA--><g id="elem_DA"><ellipse cx="55" cy="31.5" fill="#F1F1F1" rx="8" ry="8" style="stroke:#181818;stroke-width:0.5;"/><text fill="#000000" font-family="sans-serif" font-size="14" lengthAdjust="spacing" textLength="79" x="15.5" y="64.5439">Data Access</text></g><!--MD5=[cbd7cda55f2530e2efe43ec72c097853]
entity First Component--><g id="elem_First Component"><rect fill="#F1F1F1" height="49.1201" rx="2.5" ry="2.5" style="stroke:#181818;stroke-width:0.5;" width="145" x="99.5" y="7"/><rect fill="#F1F1F1" height="10" style="stroke:#181818;stroke-width:0.5;" width="15" x="224.5" y="12"/><rect fill="#F1F1F1" height="2" style="stroke:#181818;stroke-width:0.5;" width="4" x="222.5" y="14"/><rect fill="#F1F1F1" height="2" style="stroke:#181818;stroke-width:0.5;" width="4" x="222.5" y="18"/><text fill="#000000" font-family="sans-serif" font-size="14" lengthAdjust="spacing" textLength="105" x="114.5" y="43.0439">First Component</text></g><!--MD5=[96f7e1299d4a43069e6ed32352fcac20]
entity HTTP--><g id="elem_HTTP"><ellipse cx="172" cy="149" fill="#F1F1F1" rx="8" ry="8" style="stroke:#181818;stroke-width:0.5;"/><text fill="#000000" font-family="sans-serif" font-size="14" lengthAdjust="spacing" textLength="36" x="154" y="182.0439">HTTP</text></g><g id="elem_GMN8"><path d="M6,135 L6,162.7544 A0,0 0 0 0 6,162.7544 L128,162.7544 A0,0 0 0 0 128,162.7544 L128,153 L162.743,149 L128,145 L128,145 L118,135 L6,135 A0,0 0 0 0 6,135 " fill="#FEFFDD" style="stroke:#181818;stroke-width:0.5;"/><path d="M118,135 L118,145 L128,145 L118,135 " fill="#FEFFDD" style="stroke:#181818;stroke-width:0.5;"/><text fill="#000000" font-family="sans-serif" font-size="13" lengthAdjust="spacing" textLength="101" x="12" y="154.8979">Web Service only</text></g><g id="elem_GMN11"><path d="M280,8.5 L280,27.5 L244.563,31.5 L280,35.5 L280,54.0088 A0,0 0 0 0 280,54.0088 L408,54.0088 A0,0 0 0 0 408,54.0088 L408,18.5 L398,8.5 L280,8.5 A0,0 0 0 0 280,8.5 " fill="#FEFFDD" style="stroke:#181818;stroke-width:0.5;"/><path d="M398,8.5 L398,18.5 L408,18.5 L398,8.5 " fill="#FEFFDD" style="stroke:#181818;stroke-width:0.5;"/><text fill="#000000" font-family="sans-serif" font-size="13" lengthAdjust="spacing" textLength="91" x="286" y="28.3979">A note can also</text><text fill="#000000" font-family="sans-serif" font-size="13" lengthAdjust="spacing" textLength="107" x="286" y="46.1523">be on several lines</text></g><!--MD5=[363fa5e0e34baebc00cf77642f1dd18b]
link DA to First Component--><g id="link_DA_First Component"><path d="M64.1406,31.5 C75.7973,31.5 87.454,31.5 99.1107,31.5 " fill="none" id="DA-First Component" style="stroke:#181818;stroke-width:1.0;"/></g><!--MD5=[b31ac7abd68f04ca600009a3528fb133]
link First Component to HTTP--><g id="link_First Component_HTTP"><path d="M172,56.152 C172,79.7173 172,115.0846 172,134.3317 " fill="none" id="First Component-to-HTTP" style="stroke:#181818;stroke-width:1.0;stroke-dasharray:7.0,7.0;"/><polygon fill="#181818" points="172,139.7565,176,130.7565,172,134.7565,168,130.7565,172,139.7565" style="stroke:#181818;stroke-width:1.0;"/><text fill="#000000" font-family="sans-serif" font-size="13" lengthAdjust="spacing" textLength="21" x="173" y="101.8979">use</text></g><!--MD5=[cd4df61b44f69973200d2a126c18a63a]
@startuml

interface "Data Access" as DA

DA - [First Component] 
[First Component] ..> HTTP : use

note left of HTTP : Web Service only

note right of [First Component]
  A note can also
  be on several lines
end note

@enduml

PlantUML version 1.2022.4(Sat Apr 09 21:29:17 CST 2022)
(GPL source distribution)
Java Runtime: Java(TM) SE Runtime Environment
JVM: Java HotSpot(TM) 64-Bit Server VM
Default Encoding: GBK
Language: zh
Country: CN
--></g></svg>