<?xml version="1.0" encoding="UTF-8" standalone="no"?><svg xmlns="http://www.w3.org/2000/svg" xmlns:xlink="http://www.w3.org/1999/xlink" contentStyleType="text/css" height="91px" preserveAspectRatio="none" style="width:322px;height:91px;background:#FFFFFF;" version="1.1" viewBox="0 0 322 91" width="322px" zoomAndPan="magnify"><defs/><g><line style="stroke:#C0C0C0;stroke-width:1.0;" x1="0" x2="0" y1="0" y2="73.0688"/><line style="stroke:#C0C0C0;stroke-width:1.0;" x1="16" x2="16" y1="0" y2="73.0688"/><line style="stroke:#C0C0C0;stroke-width:1.0;" x1="32" x2="32" y1="0" y2="73.0688"/><line style="stroke:#C0C0C0;stroke-width:1.0;" x1="48" x2="48" y1="0" y2="73.0688"/><line style="stroke:#C0C0C0;stroke-width:1.0;" x1="64" x2="64" y1="0" y2="73.0688"/><line style="stroke:#C0C0C0;stroke-width:1.0;" x1="80" x2="80" y1="0" y2="73.0688"/><line style="stroke:#C0C0C0;stroke-width:1.0;" x1="96" x2="96" y1="0" y2="73.0688"/><line style="stroke:#C0C0C0;stroke-width:1.0;" x1="112" x2="112" y1="0" y2="73.0688"/><line style="stroke:#C0C0C0;stroke-width:1.0;" x1="128" x2="128" y1="0" y2="73.0688"/><line style="stroke:#C0C0C0;stroke-width:1.0;" x1="144" x2="144" y1="0" y2="73.0688"/><line style="stroke:#C0C0C0;stroke-width:1.0;" x1="160" x2="160" y1="0" y2="73.0688"/><line style="stroke:#C0C0C0;stroke-width:1.0;" x1="176" x2="176" y1="0" y2="73.0688"/><line style="stroke:#C0C0C0;stroke-width:1.0;" x1="192" x2="192" y1="0" y2="73.0688"/><line style="stroke:#C0C0C0;stroke-width:1.0;" x1="208" x2="208" y1="0" y2="73.0688"/><line style="stroke:#C0C0C0;stroke-width:1.0;" x1="224" x2="224" y1="0" y2="73.0688"/><line style="stroke:#C0C0C0;stroke-width:1.0;" x1="240" x2="240" y1="0" y2="73.0688"/><line style="stroke:#C0C0C0;stroke-width:1.0;" x1="256" x2="256" y1="0" y2="73.0688"/><line style="stroke:#C0C0C0;stroke-width:1.0;" x1="272" x2="272" y1="0" y2="73.0688"/><line style="stroke:#C0C0C0;stroke-width:1.0;" x1="288" x2="288" y1="0" y2="73.0688"/><line style="stroke:#C0C0C0;stroke-width:1.0;" x1="304" x2="304" y1="0" y2="73.0688"/><line style="stroke:#C0C0C0;stroke-width:1.0;" x1="320" x2="320" y1="0" y2="73.0688"/><text fill="#000000" font-family="Serif" font-size="10" lengthAdjust="spacing" textLength="5" x="5.5" y="11.46">1</text><text fill="#000000" font-family="Serif" font-size="10" lengthAdjust="spacing" textLength="5" x="21.5" y="11.46">2</text><text fill="#000000" font-family="Serif" font-size="10" lengthAdjust="spacing" textLength="5" x="37.5" y="11.46">3</text><text fill="#000000" font-family="Serif" font-size="10" lengthAdjust="spacing" textLength="5" x="53.5" y="11.46">4</text><text fill="#000000" font-family="Serif" font-size="10" lengthAdjust="spacing" textLength="5" x="69.5" y="11.46">5</text><text fill="#000000" font-family="Serif" font-size="10" lengthAdjust="spacing" textLength="5" x="85.5" y="11.46">6</text><text fill="#000000" font-family="Serif" font-size="10" lengthAdjust="spacing" textLength="5" x="101.5" y="11.46">7</text><text fill="#000000" font-family="Serif" font-size="10" lengthAdjust="spacing" textLength="5" x="117.5" y="11.46">8</text><text fill="#000000" font-family="Serif" font-size="10" lengthAdjust="spacing" textLength="5" x="133.5" y="11.46">9</text><text fill="#000000" font-family="Serif" font-size="10" lengthAdjust="spacing" textLength="10" x="147" y="11.46">10</text><text fill="#000000" font-family="Serif" font-size="10" lengthAdjust="spacing" textLength="10" x="163" y="11.46">11</text><text fill="#000000" font-family="Serif" font-size="10" lengthAdjust="spacing" textLength="10" x="179" y="11.46">12</text><text fill="#000000" font-family="Serif" font-size="10" lengthAdjust="spacing" textLength="10" x="195" y="11.46">13</text><text fill="#000000" font-family="Serif" font-size="10" lengthAdjust="spacing" textLength="10" x="211" y="11.46">14</text><text fill="#000000" font-family="Serif" font-size="10" lengthAdjust="spacing" textLength="10" x="227" y="11.46">15</text><text fill="#000000" font-family="Serif" font-size="10" lengthAdjust="spacing" textLength="10" x="243" y="11.46">16</text><text fill="#000000" font-family="Serif" font-size="10" lengthAdjust="spacing" textLength="10" x="259" y="11.46">17</text><text fill="#000000" font-family="Serif" font-size="10" lengthAdjust="spacing" textLength="10" x="275" y="11.46">18</text><text fill="#000000" font-family="Serif" font-size="10" lengthAdjust="spacing" textLength="10" x="291" y="11.46">19</text><text fill="#000000" font-family="Serif" font-size="10" lengthAdjust="spacing" textLength="10" x="307" y="11.46">20</text><line style="stroke:#C0C0C0;stroke-width:1.0;" x1="0" x2="320" y1="0" y2="0"/><line style="stroke:#C0C0C0;stroke-width:1.0;" x1="0" x2="320" y1="13" y2="13"/><line style="stroke:#181818;stroke-width:1.5;" x1="151" x2="151" y1="33.0229" y2="44.5344"/><line style="stroke:#181818;stroke-width:1.5;" x1="151" x2="159" y1="44.5344" y2="44.5344"/><polygon fill="#181818" points="155,40.5344,155,44.5344,155,48.5344,159,44.5344" style="stroke:#181818;stroke-width:1.5;"/><line style="stroke:#181818;stroke-width:1.5;" x1="159" x2="151" y1="44.5344" y2="44.5344"/><line style="stroke:#181818;stroke-width:1.5;" x1="151" x2="151" y1="44.5344" y2="63.5574"/><line style="stroke:#181818;stroke-width:1.5;" x1="151" x2="159" y1="63.5574" y2="63.5574"/><polygon fill="#181818" points="155,59.5574,155,63.5574,155,67.5574,159,63.5574" style="stroke:#181818;stroke-width:1.5;"/><rect fill="#E2E2F0" height="15.0229" style="stroke:none;stroke-width:1.0;" width="156" x="2" y="18"/><line style="stroke:#181818;stroke-width:1.0;" x1="2" x2="158" y1="18" y2="18"/><line style="stroke:#181818;stroke-width:1.0;" x1="2" x2="158" y1="33.0229" y2="33.0229"/><line style="stroke:#181818;stroke-width:1.0;" x1="2" x2="2" y1="18" y2="33.0229"/><line style="stroke:#181818;stroke-width:1.0;" x1="158" x2="158" y1="18" y2="33.0229"/><rect fill="#E2E2F0" height="15.0229" style="stroke:none;stroke-width:1.0;" width="156" x="162" y="37.0229"/><line style="stroke:#181818;stroke-width:1.0;" x1="162" x2="318" y1="37.0229" y2="37.0229"/><line style="stroke:#181818;stroke-width:1.0;" x1="162" x2="318" y1="52.0459" y2="52.0459"/><line style="stroke:#181818;stroke-width:1.0;" x1="162" x2="162" y1="37.0229" y2="52.0459"/><line style="stroke:#181818;stroke-width:1.0;" x1="318" x2="318" y1="37.0229" y2="52.0459"/><rect fill="#E2E2F0" height="15.0229" style="stroke:none;stroke-width:1.0;" width="76" x="162" y="56.0459"/><line style="stroke:#181818;stroke-width:1.0;" x1="162" x2="238" y1="56.0459" y2="56.0459"/><line style="stroke:#181818;stroke-width:1.0;" x1="162" x2="238" y1="71.0688" y2="71.0688"/><line style="stroke:#181818;stroke-width:1.0;" x1="162" x2="162" y1="56.0459" y2="71.0688"/><line style="stroke:#181818;stroke-width:1.0;" x1="238" x2="238" y1="56.0459" y2="71.0688"/><text fill="#000000" font-family="sans-serif" font-size="11" lengthAdjust="spacing" textLength="81" x="6" y="30.606">Prototype design</text><text fill="#000000" font-family="sans-serif" font-size="11" lengthAdjust="spacing" textLength="74" x="166" y="49.6289">Code prototype</text><text fill="#000000" font-family="sans-serif" font-size="11" lengthAdjust="spacing" textLength="52" x="166" y="68.6519">Write tests</text><line style="stroke:#C0C0C0;stroke-width:1.0;" x1="0" x2="0" y1="73.0688" y2="89.0688"/><line style="stroke:#C0C0C0;stroke-width:1.0;" x1="16" x2="16" y1="73.0688" y2="89.0688"/><line style="stroke:#C0C0C0;stroke-width:1.0;" x1="32" x2="32" y1="73.0688" y2="89.0688"/><line style="stroke:#C0C0C0;stroke-width:1.0;" x1="48" x2="48" y1="73.0688" y2="89.0688"/><line style="stroke:#C0C0C0;stroke-width:1.0;" x1="64" x2="64" y1="73.0688" y2="89.0688"/><line style="stroke:#C0C0C0;stroke-width:1.0;" x1="80" x2="80" y1="73.0688" y2="89.0688"/><line style="stroke:#C0C0C0;stroke-width:1.0;" x1="96" x2="96" y1="73.0688" y2="89.0688"/><line style="stroke:#C0C0C0;stroke-width:1.0;" x1="112" x2="112" y1="73.0688" y2="89.0688"/><line style="stroke:#C0C0C0;stroke-width:1.0;" x1="128" x2="128" y1="73.0688" y2="89.0688"/><line style="stroke:#C0C0C0;stroke-width:1.0;" x1="144" x2="144" y1="73.0688" y2="89.0688"/><line style="stroke:#C0C0C0;stroke-width:1.0;" x1="160" x2="160" y1="73.0688" y2="89.0688"/><line style="stroke:#C0C0C0;stroke-width:1.0;" x1="176" x2="176" y1="73.0688" y2="89.0688"/><line style="stroke:#C0C0C0;stroke-width:1.0;" x1="192" x2="192" y1="73.0688" y2="89.0688"/><line style="stroke:#C0C0C0;stroke-width:1.0;" x1="208" x2="208" y1="73.0688" y2="89.0688"/><line style="stroke:#C0C0C0;stroke-width:1.0;" x1="224" x2="224" y1="73.0688" y2="89.0688"/><line style="stroke:#C0C0C0;stroke-width:1.0;" x1="240" x2="240" y1="73.0688" y2="89.0688"/><line style="stroke:#C0C0C0;stroke-width:1.0;" x1="256" x2="256" y1="73.0688" y2="89.0688"/><line style="stroke:#C0C0C0;stroke-width:1.0;" x1="272" x2="272" y1="73.0688" y2="89.0688"/><line style="stroke:#C0C0C0;stroke-width:1.0;" x1="288" x2="288" y1="73.0688" y2="89.0688"/><line style="stroke:#C0C0C0;stroke-width:1.0;" x1="304" x2="304" y1="73.0688" y2="89.0688"/><line style="stroke:#C0C0C0;stroke-width:1.0;" x1="320" x2="320" y1="73.0688" y2="89.0688"/><text fill="#000000" font-family="Serif" font-size="10" lengthAdjust="spacing" textLength="5" x="5.5" y="87.5288">1</text><text fill="#000000" font-family="Serif" font-size="10" lengthAdjust="spacing" textLength="5" x="21.5" y="87.5288">2</text><text fill="#000000" font-family="Serif" font-size="10" lengthAdjust="spacing" textLength="5" x="37.5" y="87.5288">3</text><text fill="#000000" font-family="Serif" font-size="10" lengthAdjust="spacing" textLength="5" x="53.5" y="87.5288">4</text><text fill="#000000" font-family="Serif" font-size="10" lengthAdjust="spacing" textLength="5" x="69.5" y="87.5288">5</text><text fill="#000000" font-family="Serif" font-size="10" lengthAdjust="spacing" textLength="5" x="85.5" y="87.5288">6</text><text fill="#000000" font-family="Serif" font-size="10" lengthAdjust="spacing" textLength="5" x="101.5" y="87.5288">7</text><text fill="#000000" font-family="Serif" font-size="10" lengthAdjust="spacing" textLength="5" x="117.5" y="87.5288">8</text><text fill="#000000" font-family="Serif" font-size="10" lengthAdjust="spacing" textLength="5" x="133.5" y="87.5288">9</text><text fill="#000000" font-family="Serif" font-size="10" lengthAdjust="spacing" textLength="10" x="147" y="87.5288">10</text><text fill="#000000" font-family="Serif" font-size="10" lengthAdjust="spacing" textLength="10" x="163" y="87.5288">11</text><text fill="#000000" font-family="Serif" font-size="10" lengthAdjust="spacing" textLength="10" x="179" y="87.5288">12</text><text fill="#000000" font-family="Serif" font-size="10" lengthAdjust="spacing" textLength="10" x="195" y="87.5288">13</text><text fill="#000000" font-family="Serif" font-size="10" lengthAdjust="spacing" textLength="10" x="211" y="87.5288">14</text><text fill="#000000" font-family="Serif" font-size="10" lengthAdjust="spacing" textLength="10" x="227" y="87.5288">15</text><text fill="#000000" font-family="Serif" font-size="10" lengthAdjust="spacing" textLength="10" x="243" y="87.5288">16</text><text fill="#000000" font-family="Serif" font-size="10" lengthAdjust="spacing" textLength="10" x="259" y="87.5288">17</text><text fill="#000000" font-family="Serif" font-size="10" lengthAdjust="spacing" textLength="10" x="275" y="87.5288">18</text><text fill="#000000" font-family="Serif" font-size="10" lengthAdjust="spacing" textLength="10" x="291" y="87.5288">19</text><text fill="#000000" font-family="Serif" font-size="10" lengthAdjust="spacing" textLength="10" x="307" y="87.5288">20</text><line style="stroke:#C0C0C0;stroke-width:1.0;" x1="0" x2="320" y1="76.0688" y2="76.0688"/><!--MD5=[641faa1dd88d40669b2ba9d44e6a0158]
@startgantt
[Prototype design] lasts 10 days
[Code prototype] lasts 10 days
[Write tests] lasts 5 days
[Code prototype] starts at [Prototype design]'s end
[Write tests] starts at [Code prototype]'s start
@endgantt

PlantUML version 1.2022.4(Sat Apr 09 21:29:17 CST 2022)
(GPL source distribution)
Java Runtime: Java(TM) SE Runtime Environment
JVM: Java HotSpot(TM) 64-Bit Server VM
Default Encoding: GBK
Language: zh
Country: CN
--></g></svg>