<?xml version="1.0" encoding="UTF-8" standalone="no"?><svg xmlns="http://www.w3.org/2000/svg" xmlns:xlink="http://www.w3.org/1999/xlink" contentStyleType="text/css" height="129px" preserveAspectRatio="none" style="width:415px;height:129px;background:#FFFFFF;" version="1.1" viewBox="0 0 415 129" width="415px" zoomAndPan="magnify"><defs/><g><line style="stroke:#C0C0C0;stroke-width:1.0;" x1="0" x2="0" y1="0" y2="111.1147"/><line style="stroke:#C0C0C0;stroke-width:1.0;" x1="16" x2="16" y1="0" y2="111.1147"/><line style="stroke:#C0C0C0;stroke-width:1.0;" x1="32" x2="32" y1="0" y2="111.1147"/><line style="stroke:#C0C0C0;stroke-width:1.0;" x1="48" x2="48" y1="0" y2="111.1147"/><line style="stroke:#C0C0C0;stroke-width:1.0;" x1="64" x2="64" y1="0" y2="111.1147"/><line style="stroke:#C0C0C0;stroke-width:1.0;" x1="80" x2="80" y1="0" y2="111.1147"/><line style="stroke:#C0C0C0;stroke-width:1.0;" x1="96" x2="96" y1="0" y2="111.1147"/><line style="stroke:#C0C0C0;stroke-width:1.0;" x1="112" x2="112" y1="0" y2="111.1147"/><line style="stroke:#C0C0C0;stroke-width:1.0;" x1="128" x2="128" y1="0" y2="111.1147"/><line style="stroke:#C0C0C0;stroke-width:1.0;" x1="144" x2="144" y1="0" y2="111.1147"/><line style="stroke:#C0C0C0;stroke-width:1.0;" x1="160" x2="160" y1="0" y2="111.1147"/><line style="stroke:#C0C0C0;stroke-width:1.0;" x1="176" x2="176" y1="0" y2="111.1147"/><line style="stroke:#C0C0C0;stroke-width:1.0;" x1="192" x2="192" y1="0" y2="111.1147"/><line style="stroke:#C0C0C0;stroke-width:1.0;" x1="208" x2="208" y1="0" y2="111.1147"/><line style="stroke:#C0C0C0;stroke-width:1.0;" x1="224" x2="224" y1="0" y2="111.1147"/><line style="stroke:#C0C0C0;stroke-width:1.0;" x1="240" x2="240" y1="0" y2="111.1147"/><line style="stroke:#C0C0C0;stroke-width:1.0;" x1="256" x2="256" y1="0" y2="111.1147"/><line style="stroke:#C0C0C0;stroke-width:1.0;" x1="272" x2="272" y1="0" y2="111.1147"/><line style="stroke:#C0C0C0;stroke-width:1.0;" x1="288" x2="288" y1="0" y2="111.1147"/><line style="stroke:#C0C0C0;stroke-width:1.0;" x1="304" x2="304" y1="0" y2="111.1147"/><line style="stroke:#C0C0C0;stroke-width:1.0;" x1="320" x2="320" y1="0" y2="111.1147"/><line style="stroke:#C0C0C0;stroke-width:1.0;" x1="336" x2="336" y1="0" y2="111.1147"/><line style="stroke:#C0C0C0;stroke-width:1.0;" x1="352" x2="352" y1="0" y2="111.1147"/><line style="stroke:#C0C0C0;stroke-width:1.0;" x1="368" x2="368" y1="0" y2="111.1147"/><line style="stroke:#C0C0C0;stroke-width:1.0;" x1="384" x2="384" y1="0" y2="111.1147"/><line style="stroke:#C0C0C0;stroke-width:1.0;" x1="400" x2="400" y1="0" y2="111.1147"/><text fill="#000000" font-family="Serif" font-size="10" lengthAdjust="spacing" textLength="5" x="5.5" y="11.46">1</text><text fill="#000000" font-family="Serif" font-size="10" lengthAdjust="spacing" textLength="5" x="21.5" y="11.46">2</text><text fill="#000000" font-family="Serif" font-size="10" lengthAdjust="spacing" textLength="5" x="37.5" y="11.46">3</text><text fill="#000000" font-family="Serif" font-size="10" lengthAdjust="spacing" textLength="5" x="53.5" y="11.46">4</text><text fill="#000000" font-family="Serif" font-size="10" lengthAdjust="spacing" textLength="5" x="69.5" y="11.46">5</text><text fill="#000000" font-family="Serif" font-size="10" lengthAdjust="spacing" textLength="5" x="85.5" y="11.46">6</text><text fill="#000000" font-family="Serif" font-size="10" lengthAdjust="spacing" textLength="5" x="101.5" y="11.46">7</text><text fill="#000000" font-family="Serif" font-size="10" lengthAdjust="spacing" textLength="5" x="117.5" y="11.46">8</text><text fill="#000000" font-family="Serif" font-size="10" lengthAdjust="spacing" textLength="5" x="133.5" y="11.46">9</text><text fill="#000000" font-family="Serif" font-size="10" lengthAdjust="spacing" textLength="10" x="147" y="11.46">10</text><text fill="#000000" font-family="Serif" font-size="10" lengthAdjust="spacing" textLength="10" x="163" y="11.46">11</text><text fill="#000000" font-family="Serif" font-size="10" lengthAdjust="spacing" textLength="10" x="179" y="11.46">12</text><text fill="#000000" font-family="Serif" font-size="10" lengthAdjust="spacing" textLength="10" x="195" y="11.46">13</text><text fill="#000000" font-family="Serif" font-size="10" lengthAdjust="spacing" textLength="10" x="211" y="11.46">14</text><text fill="#000000" font-family="Serif" font-size="10" lengthAdjust="spacing" textLength="10" x="227" y="11.46">15</text><text fill="#000000" font-family="Serif" font-size="10" lengthAdjust="spacing" textLength="10" x="243" y="11.46">16</text><text fill="#000000" font-family="Serif" font-size="10" lengthAdjust="spacing" textLength="10" x="259" y="11.46">17</text><text fill="#000000" font-family="Serif" font-size="10" lengthAdjust="spacing" textLength="10" x="275" y="11.46">18</text><text fill="#000000" font-family="Serif" font-size="10" lengthAdjust="spacing" textLength="10" x="291" y="11.46">19</text><text fill="#000000" font-family="Serif" font-size="10" lengthAdjust="spacing" textLength="10" x="307" y="11.46">20</text><text fill="#000000" font-family="Serif" font-size="10" lengthAdjust="spacing" textLength="10" x="323" y="11.46">21</text><text fill="#000000" font-family="Serif" font-size="10" lengthAdjust="spacing" textLength="10" x="339" y="11.46">22</text><text fill="#000000" font-family="Serif" font-size="10" lengthAdjust="spacing" textLength="10" x="355" y="11.46">23</text><text fill="#000000" font-family="Serif" font-size="10" lengthAdjust="spacing" textLength="10" x="371" y="11.46">24</text><text fill="#000000" font-family="Serif" font-size="10" lengthAdjust="spacing" textLength="10" x="387" y="11.46">25</text><line style="stroke:#C0C0C0;stroke-width:1.0;" x1="0" x2="400" y1="0" y2="0"/><line style="stroke:#C0C0C0;stroke-width:1.0;" x1="0" x2="400" y1="13" y2="13"/><line style="stroke:#181818;stroke-width:1.5;" x1="200" x2="200" y1="33.0229" y2="44.5344"/><line style="stroke:#181818;stroke-width:1.5;" x1="200" x2="255" y1="44.5344" y2="44.5344"/><polygon fill="#181818" points="251,40.5344,251,44.5344,251,48.5344,255,44.5344" style="stroke:#181818;stroke-width:1.5;"/><line style="stroke:#181818;stroke-width:1.5;" x1="207" x2="215" y1="25.5115" y2="25.5115"/><line style="stroke:#181818;stroke-width:1.5;" x1="215" x2="215" y1="25.5115" y2="63.5574"/><line style="stroke:#181818;stroke-width:1.5;" x1="215" x2="207" y1="63.5574" y2="63.5574"/><polygon fill="#181818" points="211,59.5574,211,63.5574,211,67.5574,207,63.5574" style="stroke:#181818;stroke-width:1.5;"/><line style="stroke:#181818;stroke-width:1.5;" x1="136" x2="136" y1="71.0688" y2="82.5803"/><line style="stroke:#181818;stroke-width:1.5;" x1="136" x2="127" y1="82.5803" y2="82.5803"/><polygon fill="#181818" points="131,78.5803,131,82.5803,131,86.5803,127,82.5803" style="stroke:#181818;stroke-width:1.5;"/><line style="stroke:#181818;stroke-width:1.5;" x1="255" x2="231" y1="44.5344" y2="44.5344"/><line style="stroke:#181818;stroke-width:1.5;" x1="231" x2="231" y1="44.5344" y2="101.6033"/><line style="stroke:#181818;stroke-width:1.5;" x1="231" x2="239" y1="101.6033" y2="101.6033"/><polygon fill="#181818" points="235,97.6033,235,101.6033,235,105.6033,239,101.6033" style="stroke:#181818;stroke-width:1.5;"/><line style="stroke:#181818;stroke-width:1.5;" x1="399" x2="407" y1="44.5344" y2="44.5344"/><line style="stroke:#181818;stroke-width:1.5;" x1="407" x2="407" y1="44.5344" y2="101.6033"/><line style="stroke:#181818;stroke-width:1.5;" x1="407" x2="399" y1="101.6033" y2="101.6033"/><polygon fill="#181818" points="403,97.6033,403,101.6033,403,105.6033,399,101.6033" style="stroke:#181818;stroke-width:1.5;"/><rect fill="#E6E6FA" height="15.0229" style="stroke:none;stroke-width:1.0;" width="204" x="2" y="18"/><line style="stroke:#ADD8E6;stroke-width:1.0;" x1="2" x2="206" y1="18" y2="18"/><line style="stroke:#ADD8E6;stroke-width:1.0;" x1="2" x2="206" y1="33.0229" y2="33.0229"/><line style="stroke:#ADD8E6;stroke-width:1.0;" x1="2" x2="2" y1="18" y2="33.0229"/><line style="stroke:#ADD8E6;stroke-width:1.0;" x1="206" x2="206" y1="18" y2="33.0229"/><rect fill="#FF7F50" height="15.0229" style="stroke:none;stroke-width:1.0;" width="140" x="258" y="37.0229"/><line style="stroke:#008000;stroke-width:1.0;" x1="258" x2="398" y1="37.0229" y2="37.0229"/><line style="stroke:#008000;stroke-width:1.0;" x1="258" x2="398" y1="52.0459" y2="52.0459"/><line style="stroke:#008000;stroke-width:1.0;" x1="258" x2="258" y1="37.0229" y2="52.0459"/><line style="stroke:#008000;stroke-width:1.0;" x1="398" x2="398" y1="37.0229" y2="52.0459"/><rect fill="#E2E2F0" height="15.0229" style="stroke:none;stroke-width:1.0;" width="76" x="130" y="56.0459"/><line style="stroke:#181818;stroke-width:1.0;" x1="130" x2="206" y1="56.0459" y2="56.0459"/><line style="stroke:#181818;stroke-width:1.0;" x1="130" x2="206" y1="71.0688" y2="71.0688"/><line style="stroke:#181818;stroke-width:1.0;" x1="130" x2="130" y1="56.0459" y2="71.0688"/><line style="stroke:#181818;stroke-width:1.0;" x1="206" x2="206" y1="56.0459" y2="71.0688"/><rect fill="#E2E2F0" height="15.0229" style="stroke:none;stroke-width:1.0;" width="92" x="34" y="75.0688"/><line style="stroke:#181818;stroke-width:1.0;" x1="34" x2="126" y1="75.0688" y2="75.0688"/><line style="stroke:#181818;stroke-width:1.0;" x1="34" x2="126" y1="90.0918" y2="90.0918"/><line style="stroke:#181818;stroke-width:1.0;" x1="34" x2="34" y1="75.0688" y2="90.0918"/><line style="stroke:#181818;stroke-width:1.0;" x1="126" x2="126" y1="75.0688" y2="90.0918"/><rect fill="#FF7F50" height="15.0229" style="stroke:none;stroke-width:1.0;" width="156" x="242" y="94.0918"/><line style="stroke:#008000;stroke-width:1.0;" x1="242" x2="398" y1="94.0918" y2="94.0918"/><line style="stroke:#008000;stroke-width:1.0;" x1="242" x2="398" y1="109.1147" y2="109.1147"/><line style="stroke:#008000;stroke-width:1.0;" x1="242" x2="242" y1="94.0918" y2="109.1147"/><line style="stroke:#008000;stroke-width:1.0;" x1="398" x2="398" y1="94.0918" y2="109.1147"/><text fill="#000000" font-family="sans-serif" font-size="11" lengthAdjust="spacing" textLength="81" x="6" y="30.606">Prototype design</text><text fill="#000000" font-family="sans-serif" font-size="11" lengthAdjust="spacing" textLength="70" x="262" y="49.6289">Test prototype</text><text fill="#000000" font-family="sans-serif" font-size="11" lengthAdjust="spacing" textLength="52" x="134" y="68.6519">Write tests</text><text fill="#000000" font-family="sans-serif" font-size="11" lengthAdjust="spacing" textLength="84" x="140" y="87.6748">Hire tests writers</text><text fill="#000000" font-family="sans-serif" font-size="11" lengthAdjust="spacing" textLength="121" x="246" y="106.6978">Init and write tests report</text><line style="stroke:#C0C0C0;stroke-width:1.0;" x1="0" x2="0" y1="111.1147" y2="127.1147"/><line style="stroke:#C0C0C0;stroke-width:1.0;" x1="16" x2="16" y1="111.1147" y2="127.1147"/><line style="stroke:#C0C0C0;stroke-width:1.0;" x1="32" x2="32" y1="111.1147" y2="127.1147"/><line style="stroke:#C0C0C0;stroke-width:1.0;" x1="48" x2="48" y1="111.1147" y2="127.1147"/><line style="stroke:#C0C0C0;stroke-width:1.0;" x1="64" x2="64" y1="111.1147" y2="127.1147"/><line style="stroke:#C0C0C0;stroke-width:1.0;" x1="80" x2="80" y1="111.1147" y2="127.1147"/><line style="stroke:#C0C0C0;stroke-width:1.0;" x1="96" x2="96" y1="111.1147" y2="127.1147"/><line style="stroke:#C0C0C0;stroke-width:1.0;" x1="112" x2="112" y1="111.1147" y2="127.1147"/><line style="stroke:#C0C0C0;stroke-width:1.0;" x1="128" x2="128" y1="111.1147" y2="127.1147"/><line style="stroke:#C0C0C0;stroke-width:1.0;" x1="144" x2="144" y1="111.1147" y2="127.1147"/><line style="stroke:#C0C0C0;stroke-width:1.0;" x1="160" x2="160" y1="111.1147" y2="127.1147"/><line style="stroke:#C0C0C0;stroke-width:1.0;" x1="176" x2="176" y1="111.1147" y2="127.1147"/><line style="stroke:#C0C0C0;stroke-width:1.0;" x1="192" x2="192" y1="111.1147" y2="127.1147"/><line style="stroke:#C0C0C0;stroke-width:1.0;" x1="208" x2="208" y1="111.1147" y2="127.1147"/><line style="stroke:#C0C0C0;stroke-width:1.0;" x1="224" x2="224" y1="111.1147" y2="127.1147"/><line style="stroke:#C0C0C0;stroke-width:1.0;" x1="240" x2="240" y1="111.1147" y2="127.1147"/><line style="stroke:#C0C0C0;stroke-width:1.0;" x1="256" x2="256" y1="111.1147" y2="127.1147"/><line style="stroke:#C0C0C0;stroke-width:1.0;" x1="272" x2="272" y1="111.1147" y2="127.1147"/><line style="stroke:#C0C0C0;stroke-width:1.0;" x1="288" x2="288" y1="111.1147" y2="127.1147"/><line style="stroke:#C0C0C0;stroke-width:1.0;" x1="304" x2="304" y1="111.1147" y2="127.1147"/><line style="stroke:#C0C0C0;stroke-width:1.0;" x1="320" x2="320" y1="111.1147" y2="127.1147"/><line style="stroke:#C0C0C0;stroke-width:1.0;" x1="336" x2="336" y1="111.1147" y2="127.1147"/><line style="stroke:#C0C0C0;stroke-width:1.0;" x1="352" x2="352" y1="111.1147" y2="127.1147"/><line style="stroke:#C0C0C0;stroke-width:1.0;" x1="368" x2="368" y1="111.1147" y2="127.1147"/><line style="stroke:#C0C0C0;stroke-width:1.0;" x1="384" x2="384" y1="111.1147" y2="127.1147"/><line style="stroke:#C0C0C0;stroke-width:1.0;" x1="400" x2="400" y1="111.1147" y2="127.1147"/><text fill="#000000" font-family="Serif" font-size="10" lengthAdjust="spacing" textLength="5" x="5.5" y="125.5747">1</text><text fill="#000000" font-family="Serif" font-size="10" lengthAdjust="spacing" textLength="5" x="21.5" y="125.5747">2</text><text fill="#000000" font-family="Serif" font-size="10" lengthAdjust="spacing" textLength="5" x="37.5" y="125.5747">3</text><text fill="#000000" font-family="Serif" font-size="10" lengthAdjust="spacing" textLength="5" x="53.5" y="125.5747">4</text><text fill="#000000" font-family="Serif" font-size="10" lengthAdjust="spacing" textLength="5" x="69.5" y="125.5747">5</text><text fill="#000000" font-family="Serif" font-size="10" lengthAdjust="spacing" textLength="5" x="85.5" y="125.5747">6</text><text fill="#000000" font-family="Serif" font-size="10" lengthAdjust="spacing" textLength="5" x="101.5" y="125.5747">7</text><text fill="#000000" font-family="Serif" font-size="10" lengthAdjust="spacing" textLength="5" x="117.5" y="125.5747">8</text><text fill="#000000" font-family="Serif" font-size="10" lengthAdjust="spacing" textLength="5" x="133.5" y="125.5747">9</text><text fill="#000000" font-family="Serif" font-size="10" lengthAdjust="spacing" textLength="10" x="147" y="125.5747">10</text><text fill="#000000" font-family="Serif" font-size="10" lengthAdjust="spacing" textLength="10" x="163" y="125.5747">11</text><text fill="#000000" font-family="Serif" font-size="10" lengthAdjust="spacing" textLength="10" x="179" y="125.5747">12</text><text fill="#000000" font-family="Serif" font-size="10" lengthAdjust="spacing" textLength="10" x="195" y="125.5747">13</text><text fill="#000000" font-family="Serif" font-size="10" lengthAdjust="spacing" textLength="10" x="211" y="125.5747">14</text><text fill="#000000" font-family="Serif" font-size="10" lengthAdjust="spacing" textLength="10" x="227" y="125.5747">15</text><text fill="#000000" font-family="Serif" font-size="10" lengthAdjust="spacing" textLength="10" x="243" y="125.5747">16</text><text fill="#000000" font-family="Serif" font-size="10" lengthAdjust="spacing" textLength="10" x="259" y="125.5747">17</text><text fill="#000000" font-family="Serif" font-size="10" lengthAdjust="spacing" textLength="10" x="275" y="125.5747">18</text><text fill="#000000" font-family="Serif" font-size="10" lengthAdjust="spacing" textLength="10" x="291" y="125.5747">19</text><text fill="#000000" font-family="Serif" font-size="10" lengthAdjust="spacing" textLength="10" x="307" y="125.5747">20</text><text fill="#000000" font-family="Serif" font-size="10" lengthAdjust="spacing" textLength="10" x="323" y="125.5747">21</text><text fill="#000000" font-family="Serif" font-size="10" lengthAdjust="spacing" textLength="10" x="339" y="125.5747">22</text><text fill="#000000" font-family="Serif" font-size="10" lengthAdjust="spacing" textLength="10" x="355" y="125.5747">23</text><text fill="#000000" font-family="Serif" font-size="10" lengthAdjust="spacing" textLength="10" x="371" y="125.5747">24</text><text fill="#000000" font-family="Serif" font-size="10" lengthAdjust="spacing" textLength="10" x="387" y="125.5747">25</text><line style="stroke:#C0C0C0;stroke-width:1.0;" x1="0" x2="400" y1="114.1147" y2="114.1147"/><!--MD5=[d91428e05acecf8f14e4fc1c11e46ad7]
@startgantt
[Prototype design] lasts 13 days and is colored in Lavender/LightBlue
[Test prototype] lasts 9 days and is colored in Coral/Green and starts 3 days after [Prototype design]'s end
[Write tests] lasts 5 days and ends at [Prototype design]'s end
[Hire tests writers] lasts 6 days and ends at [Write tests]'s start
[Init and write tests report] is colored in Coral/Green
[Init and write tests report] starts 1 day before [Test prototype]'s start and ends at [Test prototype]'s end
@endgantt

PlantUML version 1.2022.4(Sat Apr 09 21:29:17 CST 2022)
(GPL source distribution)
Java Runtime: Java(TM) SE Runtime Environment
JVM: Java HotSpot(TM) 64-Bit Server VM
Default Encoding: GBK
Language: zh
Country: CN
--></g></svg>