<?xml version="1.0" encoding="UTF-8" standalone="no"?><svg xmlns="http://www.w3.org/2000/svg" xmlns:xlink="http://www.w3.org/1999/xlink" contentStyleType="text/css" height="72px" preserveAspectRatio="none" style="width:402px;height:72px;background:#FFFFFF;" version="1.1" viewBox="0 0 402 72" width="402px" zoomAndPan="magnify"><defs/><g><line style="stroke:#C0C0C0;stroke-width:1.0;" x1="0" x2="0" y1="0" y2="54.0459"/><line style="stroke:#C0C0C0;stroke-width:1.0;" x1="16" x2="16" y1="0" y2="54.0459"/><line style="stroke:#C0C0C0;stroke-width:1.0;" x1="32" x2="32" y1="0" y2="54.0459"/><line style="stroke:#C0C0C0;stroke-width:1.0;" x1="48" x2="48" y1="0" y2="54.0459"/><line style="stroke:#C0C0C0;stroke-width:1.0;" x1="64" x2="64" y1="0" y2="54.0459"/><line style="stroke:#C0C0C0;stroke-width:1.0;" x1="80" x2="80" y1="0" y2="54.0459"/><line style="stroke:#C0C0C0;stroke-width:1.0;" x1="96" x2="96" y1="0" y2="54.0459"/><line style="stroke:#C0C0C0;stroke-width:1.0;" x1="112" x2="112" y1="0" y2="54.0459"/><line style="stroke:#C0C0C0;stroke-width:1.0;" x1="128" x2="128" y1="0" y2="54.0459"/><line style="stroke:#C0C0C0;stroke-width:1.0;" x1="144" x2="144" y1="0" y2="54.0459"/><line style="stroke:#C0C0C0;stroke-width:1.0;" x1="160" x2="160" y1="0" y2="54.0459"/><line style="stroke:#C0C0C0;stroke-width:1.0;" x1="176" x2="176" y1="0" y2="54.0459"/><line style="stroke:#C0C0C0;stroke-width:1.0;" x1="192" x2="192" y1="0" y2="54.0459"/><line style="stroke:#C0C0C0;stroke-width:1.0;" x1="208" x2="208" y1="0" y2="54.0459"/><line style="stroke:#C0C0C0;stroke-width:1.0;" x1="224" x2="224" y1="0" y2="54.0459"/><line style="stroke:#C0C0C0;stroke-width:1.0;" x1="240" x2="240" y1="0" y2="54.0459"/><line style="stroke:#C0C0C0;stroke-width:1.0;" x1="256" x2="256" y1="0" y2="54.0459"/><line style="stroke:#C0C0C0;stroke-width:1.0;" x1="272" x2="272" y1="0" y2="54.0459"/><line style="stroke:#C0C0C0;stroke-width:1.0;" x1="288" x2="288" y1="0" y2="54.0459"/><line style="stroke:#C0C0C0;stroke-width:1.0;" x1="304" x2="304" y1="0" y2="54.0459"/><line style="stroke:#C0C0C0;stroke-width:1.0;" x1="320" x2="320" y1="0" y2="54.0459"/><line style="stroke:#C0C0C0;stroke-width:1.0;" x1="336" x2="336" y1="0" y2="54.0459"/><line style="stroke:#C0C0C0;stroke-width:1.0;" x1="352" x2="352" y1="0" y2="54.0459"/><line style="stroke:#C0C0C0;stroke-width:1.0;" x1="368" x2="368" y1="0" y2="54.0459"/><line style="stroke:#C0C0C0;stroke-width:1.0;" x1="384" x2="384" y1="0" y2="54.0459"/><line style="stroke:#C0C0C0;stroke-width:1.0;" x1="400" x2="400" y1="0" y2="54.0459"/><text fill="#000000" font-family="Serif" font-size="10" lengthAdjust="spacing" textLength="5" x="5.5" y="11.46">1</text><text fill="#000000" font-family="Serif" font-size="10" lengthAdjust="spacing" textLength="5" x="21.5" y="11.46">2</text><text fill="#000000" font-family="Serif" font-size="10" lengthAdjust="spacing" textLength="5" x="37.5" y="11.46">3</text><text fill="#000000" font-family="Serif" font-size="10" lengthAdjust="spacing" textLength="5" x="53.5" y="11.46">4</text><text fill="#000000" font-family="Serif" font-size="10" lengthAdjust="spacing" textLength="5" x="69.5" y="11.46">5</text><text fill="#000000" font-family="Serif" font-size="10" lengthAdjust="spacing" textLength="5" x="85.5" y="11.46">6</text><text fill="#000000" font-family="Serif" font-size="10" lengthAdjust="spacing" textLength="5" x="101.5" y="11.46">7</text><text fill="#000000" font-family="Serif" font-size="10" lengthAdjust="spacing" textLength="5" x="117.5" y="11.46">8</text><text fill="#000000" font-family="Serif" font-size="10" lengthAdjust="spacing" textLength="5" x="133.5" y="11.46">9</text><text fill="#000000" font-family="Serif" font-size="10" lengthAdjust="spacing" textLength="10" x="147" y="11.46">10</text><text fill="#000000" font-family="Serif" font-size="10" lengthAdjust="spacing" textLength="10" x="163" y="11.46">11</text><text fill="#000000" font-family="Serif" font-size="10" lengthAdjust="spacing" textLength="10" x="179" y="11.46">12</text><text fill="#000000" font-family="Serif" font-size="10" lengthAdjust="spacing" textLength="10" x="195" y="11.46">13</text><text fill="#000000" font-family="Serif" font-size="10" lengthAdjust="spacing" textLength="10" x="211" y="11.46">14</text><text fill="#000000" font-family="Serif" font-size="10" lengthAdjust="spacing" textLength="10" x="227" y="11.46">15</text><text fill="#000000" font-family="Serif" font-size="10" lengthAdjust="spacing" textLength="10" x="243" y="11.46">16</text><text fill="#000000" font-family="Serif" font-size="10" lengthAdjust="spacing" textLength="10" x="259" y="11.46">17</text><text fill="#000000" font-family="Serif" font-size="10" lengthAdjust="spacing" textLength="10" x="275" y="11.46">18</text><text fill="#000000" font-family="Serif" font-size="10" lengthAdjust="spacing" textLength="10" x="291" y="11.46">19</text><text fill="#000000" font-family="Serif" font-size="10" lengthAdjust="spacing" textLength="10" x="307" y="11.46">20</text><text fill="#000000" font-family="Serif" font-size="10" lengthAdjust="spacing" textLength="10" x="323" y="11.46">21</text><text fill="#000000" font-family="Serif" font-size="10" lengthAdjust="spacing" textLength="10" x="339" y="11.46">22</text><text fill="#000000" font-family="Serif" font-size="10" lengthAdjust="spacing" textLength="10" x="355" y="11.46">23</text><text fill="#000000" font-family="Serif" font-size="10" lengthAdjust="spacing" textLength="10" x="371" y="11.46">24</text><text fill="#000000" font-family="Serif" font-size="10" lengthAdjust="spacing" textLength="10" x="387" y="11.46">25</text><line style="stroke:#C0C0C0;stroke-width:1.0;" x1="0" x2="400" y1="0" y2="0"/><line style="stroke:#C0C0C0;stroke-width:1.0;" x1="0" x2="400" y1="13" y2="13"/><line style="stroke:#181818;stroke-width:1.5;" x1="231" x2="231" y1="33.0229" y2="44.5344"/><line style="stroke:#181818;stroke-width:1.5;" x1="231" x2="239" y1="44.5344" y2="44.5344"/><polygon fill="#181818" points="235,40.5344,235,44.5344,235,48.5344,239,44.5344" style="stroke:#181818;stroke-width:1.5;"/><rect fill="#E2E2F0" height="15.0229" style="stroke:none;stroke-width:1.0;" width="236" x="2" y="18"/><line style="stroke:#181818;stroke-width:1.0;" x1="2" x2="238" y1="18" y2="18"/><line style="stroke:#181818;stroke-width:1.0;" x1="2" x2="238" y1="33.0229" y2="33.0229"/><line style="stroke:#181818;stroke-width:1.0;" x1="2" x2="2" y1="18" y2="33.0229"/><line style="stroke:#181818;stroke-width:1.0;" x1="238" x2="238" y1="18" y2="33.0229"/><rect fill="#E2E2F0" height="15.0229" style="stroke:none;stroke-width:1.0;" width="156" x="242" y="37.0229"/><line style="stroke:#181818;stroke-width:1.0;" x1="242" x2="398" y1="37.0229" y2="37.0229"/><line style="stroke:#181818;stroke-width:1.0;" x1="242" x2="398" y1="52.0459" y2="52.0459"/><line style="stroke:#181818;stroke-width:1.0;" x1="242" x2="242" y1="37.0229" y2="52.0459"/><line style="stroke:#181818;stroke-width:1.0;" x1="398" x2="398" y1="37.0229" y2="52.0459"/><text fill="#000000" font-family="sans-serif" font-size="11" lengthAdjust="spacing" textLength="81" x="6" y="30.606">Prototype design</text><text fill="#000000" font-family="sans-serif" font-size="11" lengthAdjust="spacing" textLength="70" x="246" y="49.6289">Test prototype</text><line style="stroke:#C0C0C0;stroke-width:1.0;" x1="0" x2="0" y1="54.0459" y2="70.0459"/><line style="stroke:#C0C0C0;stroke-width:1.0;" x1="16" x2="16" y1="54.0459" y2="70.0459"/><line style="stroke:#C0C0C0;stroke-width:1.0;" x1="32" x2="32" y1="54.0459" y2="70.0459"/><line style="stroke:#C0C0C0;stroke-width:1.0;" x1="48" x2="48" y1="54.0459" y2="70.0459"/><line style="stroke:#C0C0C0;stroke-width:1.0;" x1="64" x2="64" y1="54.0459" y2="70.0459"/><line style="stroke:#C0C0C0;stroke-width:1.0;" x1="80" x2="80" y1="54.0459" y2="70.0459"/><line style="stroke:#C0C0C0;stroke-width:1.0;" x1="96" x2="96" y1="54.0459" y2="70.0459"/><line style="stroke:#C0C0C0;stroke-width:1.0;" x1="112" x2="112" y1="54.0459" y2="70.0459"/><line style="stroke:#C0C0C0;stroke-width:1.0;" x1="128" x2="128" y1="54.0459" y2="70.0459"/><line style="stroke:#C0C0C0;stroke-width:1.0;" x1="144" x2="144" y1="54.0459" y2="70.0459"/><line style="stroke:#C0C0C0;stroke-width:1.0;" x1="160" x2="160" y1="54.0459" y2="70.0459"/><line style="stroke:#C0C0C0;stroke-width:1.0;" x1="176" x2="176" y1="54.0459" y2="70.0459"/><line style="stroke:#C0C0C0;stroke-width:1.0;" x1="192" x2="192" y1="54.0459" y2="70.0459"/><line style="stroke:#C0C0C0;stroke-width:1.0;" x1="208" x2="208" y1="54.0459" y2="70.0459"/><line style="stroke:#C0C0C0;stroke-width:1.0;" x1="224" x2="224" y1="54.0459" y2="70.0459"/><line style="stroke:#C0C0C0;stroke-width:1.0;" x1="240" x2="240" y1="54.0459" y2="70.0459"/><line style="stroke:#C0C0C0;stroke-width:1.0;" x1="256" x2="256" y1="54.0459" y2="70.0459"/><line style="stroke:#C0C0C0;stroke-width:1.0;" x1="272" x2="272" y1="54.0459" y2="70.0459"/><line style="stroke:#C0C0C0;stroke-width:1.0;" x1="288" x2="288" y1="54.0459" y2="70.0459"/><line style="stroke:#C0C0C0;stroke-width:1.0;" x1="304" x2="304" y1="54.0459" y2="70.0459"/><line style="stroke:#C0C0C0;stroke-width:1.0;" x1="320" x2="320" y1="54.0459" y2="70.0459"/><line style="stroke:#C0C0C0;stroke-width:1.0;" x1="336" x2="336" y1="54.0459" y2="70.0459"/><line style="stroke:#C0C0C0;stroke-width:1.0;" x1="352" x2="352" y1="54.0459" y2="70.0459"/><line style="stroke:#C0C0C0;stroke-width:1.0;" x1="368" x2="368" y1="54.0459" y2="70.0459"/><line style="stroke:#C0C0C0;stroke-width:1.0;" x1="384" x2="384" y1="54.0459" y2="70.0459"/><line style="stroke:#C0C0C0;stroke-width:1.0;" x1="400" x2="400" y1="54.0459" y2="70.0459"/><text fill="#000000" font-family="Serif" font-size="10" lengthAdjust="spacing" textLength="5" x="5.5" y="68.5059">1</text><text fill="#000000" font-family="Serif" font-size="10" lengthAdjust="spacing" textLength="5" x="21.5" y="68.5059">2</text><text fill="#000000" font-family="Serif" font-size="10" lengthAdjust="spacing" textLength="5" x="37.5" y="68.5059">3</text><text fill="#000000" font-family="Serif" font-size="10" lengthAdjust="spacing" textLength="5" x="53.5" y="68.5059">4</text><text fill="#000000" font-family="Serif" font-size="10" lengthAdjust="spacing" textLength="5" x="69.5" y="68.5059">5</text><text fill="#000000" font-family="Serif" font-size="10" lengthAdjust="spacing" textLength="5" x="85.5" y="68.5059">6</text><text fill="#000000" font-family="Serif" font-size="10" lengthAdjust="spacing" textLength="5" x="101.5" y="68.5059">7</text><text fill="#000000" font-family="Serif" font-size="10" lengthAdjust="spacing" textLength="5" x="117.5" y="68.5059">8</text><text fill="#000000" font-family="Serif" font-size="10" lengthAdjust="spacing" textLength="5" x="133.5" y="68.5059">9</text><text fill="#000000" font-family="Serif" font-size="10" lengthAdjust="spacing" textLength="10" x="147" y="68.5059">10</text><text fill="#000000" font-family="Serif" font-size="10" lengthAdjust="spacing" textLength="10" x="163" y="68.5059">11</text><text fill="#000000" font-family="Serif" font-size="10" lengthAdjust="spacing" textLength="10" x="179" y="68.5059">12</text><text fill="#000000" font-family="Serif" font-size="10" lengthAdjust="spacing" textLength="10" x="195" y="68.5059">13</text><text fill="#000000" font-family="Serif" font-size="10" lengthAdjust="spacing" textLength="10" x="211" y="68.5059">14</text><text fill="#000000" font-family="Serif" font-size="10" lengthAdjust="spacing" textLength="10" x="227" y="68.5059">15</text><text fill="#000000" font-family="Serif" font-size="10" lengthAdjust="spacing" textLength="10" x="243" y="68.5059">16</text><text fill="#000000" font-family="Serif" font-size="10" lengthAdjust="spacing" textLength="10" x="259" y="68.5059">17</text><text fill="#000000" font-family="Serif" font-size="10" lengthAdjust="spacing" textLength="10" x="275" y="68.5059">18</text><text fill="#000000" font-family="Serif" font-size="10" lengthAdjust="spacing" textLength="10" x="291" y="68.5059">19</text><text fill="#000000" font-family="Serif" font-size="10" lengthAdjust="spacing" textLength="10" x="307" y="68.5059">20</text><text fill="#000000" font-family="Serif" font-size="10" lengthAdjust="spacing" textLength="10" x="323" y="68.5059">21</text><text fill="#000000" font-family="Serif" font-size="10" lengthAdjust="spacing" textLength="10" x="339" y="68.5059">22</text><text fill="#000000" font-family="Serif" font-size="10" lengthAdjust="spacing" textLength="10" x="355" y="68.5059">23</text><text fill="#000000" font-family="Serif" font-size="10" lengthAdjust="spacing" textLength="10" x="371" y="68.5059">24</text><text fill="#000000" font-family="Serif" font-size="10" lengthAdjust="spacing" textLength="10" x="387" y="68.5059">25</text><line style="stroke:#C0C0C0;stroke-width:1.0;" x1="0" x2="400" y1="57.0459" y2="57.0459"/><!--MD5=[50808f7383f46ca4e7536a02e2b605cd]
@startgantt
[Prototype design] as [D] lasts 15 days
[Test prototype] as [T] lasts 10 days
[T] starts at [D]'s end
@endgantt

PlantUML version 1.2022.4(Sat Apr 09 21:29:17 CST 2022)
(GPL source distribution)
Java Runtime: Java(TM) SE Runtime Environment
JVM: Java HotSpot(TM) 64-Bit Server VM
Default Encoding: GBK
Language: zh
Country: CN
--></g></svg>