<?xml version="1.0" encoding="UTF-8" standalone="no"?><svg xmlns="http://www.w3.org/2000/svg" xmlns:xlink="http://www.w3.org/1999/xlink" contentStyleType="text/css" height="107px" preserveAspectRatio="none" style="width:126px;height:107px;background:#FFFFFF;" version="1.1" viewBox="0 0 126 107" width="126px" zoomAndPan="magnify"><defs/><g><!--MD5=[c54ba4f61d01a424743e5a1fa0f9e38e]
class Dummy--><g id="elem_Dummy"><rect codeLine="1" fill="#F1F1F1" height="86.2402" id="Dummy" rx="2.5" ry="2.5" style="stroke:#181818;stroke-width:0.5;" width="105" x="7" y="7"/><ellipse cx="33.7" cy="23" fill="#ADD1B2" rx="11" ry="11" style="stroke:#181818;stroke-width:1.0;"/><path d="M32.2781,28.3594 Q30.4188,28.3594 29.325,26.9688 Q28.2313,25.5781 28.2313,22.5938 Q28.2313,20.0625 29.3953,18.4063 Q30.5594,16.75 32.5438,16.75 Q34.0125,16.75 34.4813,16.875 Q34.95,17.0781 34.95,17.0781 Q34.95,17.0781 34.95,17.0078 Q34.95,16.9375 35.5594,16.0156 L36.6063,19.6719 L35.2781,20.0781 Q34.8094,18.5313 34.1453,17.8672 Q33.4813,17.2031 32.4188,17.2031 Q32.0281,17.2031 31.2625,18.7344 Q30.4969,20.2656 30.4969,22.5156 Q30.4969,24.9844 31.1609,26.375 Q31.825,27.7656 32.3563,27.7656 Q33.4188,27.7656 34.1766,27 Q34.9344,26.2344 35.2781,24.5781 L36.6063,25.1719 Q36.2781,26.5781 35.3797,27.4688 Q34.4813,28.3594 32.2781,28.3594 Z " fill="#000000"/><text fill="#000000" font-family="sans-serif" font-size="14" lengthAdjust="spacing" textLength="47" x="50.3" y="29.4839">Dummy</text><line style="stroke:#181818;stroke-width:0.5;" x1="8" x2="111" y1="39" y2="39"/><text fill="#000000" font-family="sans-serif" font-size="14" lengthAdjust="spacing" text-decoration="underline" textLength="52" x="13" y="59.0439">String id</text><line style="stroke:#181818;stroke-width:0.5;" x1="8" x2="111" y1="66.1201" y2="66.1201"/><text fill="#000000" font-family="sans-serif" font-size="14" font-style="italic" lengthAdjust="spacing" textLength="93" x="13" y="86.1641">void methods()</text></g><!--MD5=[8212265eb495ff0dff4d5bb36b20ef93]
@startuml
class Dummy {
  {static} String id
  {abstract} void methods()
}
@enduml

PlantUML version 1.2022.4(Sat Apr 09 21:29:17 CST 2022)
(GPL source distribution)
Java Runtime: Java(TM) SE Runtime Environment
JVM: Java HotSpot(TM) 64-Bit Server VM
Default Encoding: GBK
Language: zh
Country: CN
--></g></svg>