<?xml version="1.0" encoding="UTF-8" standalone="no"?><svg xmlns="http://www.w3.org/2000/svg" xmlns:xlink="http://www.w3.org/1999/xlink" contentStyleType="text/css" height="373px" preserveAspectRatio="none" style="width:572px;height:373px;background:#FFFFFF;" version="1.1" viewBox="0 0 572 373" width="572px" zoomAndPan="magnify"><defs/><g><!--MD5=[b4fa10df80476353258f72a232547d63]
class AbstractList--><g id="elem_AbstractList"><rect codeLine="2" fill="#F1F1F1" height="48" id="AbstractList" rx="2.5" ry="2.5" style="stroke:#181818;stroke-width:0.5;" width="106" x="188" y="172"/><ellipse cx="203" cy="188" fill="#A9DCDF" rx="11" ry="11" style="stroke:#181818;stroke-width:1.0;"/><path d="M203.375,187.9844 L201.3906,187.9844 L200.7969,190.5 Q200.7344,190.8438 200.7344,191.0313 Q200.7344,191.2969 200.8281,191.5625 Q200.9219,191.8281 200.9219,191.8281 L201.5938,191.8281 L201.5938,192.2344 L198.1406,192.2344 L198.1406,191.8281 L198.3281,191.8281 Q198.5938,191.8281 198.7969,191.6641 Q199,191.5 199.0625,191.1094 L201.6563,180.9375 L203.5313,180.3281 L206.1719,191.1094 Q206.3125,191.5 206.5078,191.6641 Q206.7031,191.8281 206.7031,191.8281 L207.1719,191.8281 L207.1719,192.2344 L203.3125,192.2344 L203.3125,191.8281 L203.5781,191.8281 Q203.9844,191.8281 204.0469,191.6641 Q204.1094,191.5 204.1094,191.375 Q204.1094,191.1094 204.0469,190.9063 L203.375,187.9844 Z M201.9844,182.0781 L201.9844,182.0781 L201.5313,187.5781 L203.3125,187.5781 L201.9844,182.0781 Z " fill="#000000"/><text fill="#000000" font-family="sans-serif" font-size="14" font-style="italic" lengthAdjust="spacing" textLength="74" x="217" y="194.4839">AbstractList</text><line style="stroke:#181818;stroke-width:0.5;" x1="189" x2="293" y1="204" y2="204"/><line style="stroke:#181818;stroke-width:0.5;" x1="189" x2="293" y1="212" y2="212"/></g><!--MD5=[8e34b16d8d8f96f4a11290cd523ed859]
class AbstractCollection--><g id="elem_AbstractCollection"><rect codeLine="3" fill="#F1F1F1" height="48" id="AbstractCollection" rx="2.5" ry="2.5" style="stroke:#181818;stroke-width:0.5;" width="146" x="7" y="172"/><ellipse cx="22" cy="188" fill="#A9DCDF" rx="11" ry="11" style="stroke:#181818;stroke-width:1.0;"/><path d="M22.375,187.9844 L20.3906,187.9844 L19.7969,190.5 Q19.7344,190.8438 19.7344,191.0313 Q19.7344,191.2969 19.8281,191.5625 Q19.9219,191.8281 19.9219,191.8281 L20.5938,191.8281 L20.5938,192.2344 L17.1406,192.2344 L17.1406,191.8281 L17.3281,191.8281 Q17.5938,191.8281 17.7969,191.6641 Q18,191.5 18.0625,191.1094 L20.6563,180.9375 L22.5313,180.3281 L25.1719,191.1094 Q25.3125,191.5 25.5078,191.6641 Q25.7031,191.8281 25.7031,191.8281 L26.1719,191.8281 L26.1719,192.2344 L22.3125,192.2344 L22.3125,191.8281 L22.5781,191.8281 Q22.9844,191.8281 23.0469,191.6641 Q23.1094,191.5 23.1094,191.375 Q23.1094,191.1094 23.0469,190.9063 L22.375,187.9844 Z M20.9844,182.0781 L20.9844,182.0781 L20.5313,187.5781 L22.3125,187.5781 L20.9844,182.0781 Z " fill="#000000"/><text fill="#000000" font-family="sans-serif" font-size="14" font-style="italic" lengthAdjust="spacing" textLength="114" x="36" y="194.4839">AbstractCollection</text><line style="stroke:#181818;stroke-width:0.5;" x1="8" x2="152" y1="204" y2="204"/><line style="stroke:#181818;stroke-width:0.5;" x1="8" x2="152" y1="212" y2="212"/></g><!--MD5=[3d4177ac58b4411586d067f34e84928f]
class List--><g id="elem_List"><rect codeLine="4" fill="#F1F1F1" height="48" id="List" rx="2.5" ry="2.5" style="stroke:#181818;stroke-width:0.5;" width="54" x="201" y="35.5"/><ellipse cx="216" cy="51.5" fill="#B4A7E5" rx="11" ry="11" style="stroke:#181818;stroke-width:1.0;"/><path d="M212.5938,45.7813 L212.5938,45.375 L218.9063,45.375 L218.9063,45.7813 L216.375,45.7813 Q216.375,45.7813 216.5234,45.9141 Q216.6719,46.0469 216.6719,46.3125 L216.6719,55.7969 Q216.6719,56.0625 216.8906,56.1953 Q217.1094,56.3281 217.1094,56.3281 L218.9063,56.3281 L218.9063,56.7344 L212.5938,56.7344 L212.5938,56.3281 L214.125,56.3281 Q214.4531,56.3281 214.5859,56.1953 Q214.7188,56.0625 214.7188,55.7969 L214.7188,46.3125 Q214.7188,46.0469 214.5859,45.9141 Q214.4531,45.7813 214.125,45.7813 L212.5938,45.7813 Z " fill="#000000"/><text fill="#000000" font-family="sans-serif" font-size="14" font-style="italic" lengthAdjust="spacing" textLength="22" x="230" y="57.9839">List</text><line style="stroke:#181818;stroke-width:0.5;" x1="202" x2="254" y1="67.5" y2="67.5"/><line style="stroke:#181818;stroke-width:0.5;" x1="202" x2="254" y1="75.5" y2="75.5"/></g><!--MD5=[c160724f8e3bb89ca8141a12554ac2e3]
class Collection--><g id="elem_Collection"><rect codeLine="5" fill="#F1F1F1" height="48" id="Collection" rx="2.5" ry="2.5" style="stroke:#181818;stroke-width:0.5;" width="94" x="46" y="35.5"/><ellipse cx="61" cy="51.5" fill="#B4A7E5" rx="11" ry="11" style="stroke:#181818;stroke-width:1.0;"/><path d="M57.5938,45.7813 L57.5938,45.375 L63.9063,45.375 L63.9063,45.7813 L61.375,45.7813 Q61.375,45.7813 61.5234,45.9141 Q61.6719,46.0469 61.6719,46.3125 L61.6719,55.7969 Q61.6719,56.0625 61.8906,56.1953 Q62.1094,56.3281 62.1094,56.3281 L63.9063,56.3281 L63.9063,56.7344 L57.5938,56.7344 L57.5938,56.3281 L59.125,56.3281 Q59.4531,56.3281 59.5859,56.1953 Q59.7188,56.0625 59.7188,55.7969 L59.7188,46.3125 Q59.7188,46.0469 59.5859,45.9141 Q59.4531,45.7813 59.125,45.7813 L57.5938,45.7813 Z " fill="#000000"/><text fill="#000000" font-family="sans-serif" font-size="14" font-style="italic" lengthAdjust="spacing" textLength="62" x="75" y="57.9839">Collection</text><line style="stroke:#181818;stroke-width:0.5;" x1="47" x2="139" y1="67.5" y2="67.5"/><line style="stroke:#181818;stroke-width:0.5;" x1="47" x2="139" y1="75.5" y2="75.5"/></g><!--MD5=[ab8871ed637f40707b866ba6597734bc]
class ArrayList--><g id="elem_ArrayList"><rect codeLine="14" fill="#F1F1F1" height="86.2402" id="ArrayList" rx="2.5" ry="2.5" style="stroke:#181818;stroke-width:0.5;" width="145" x="168.5" y="280"/><ellipse cx="209.15" cy="296" fill="#ADD1B2" rx="11" ry="11" style="stroke:#181818;stroke-width:1.0;"/><path d="M207.7281,301.3594 Q205.8688,301.3594 204.775,299.9688 Q203.6813,298.5781 203.6813,295.5938 Q203.6813,293.0625 204.8453,291.4063 Q206.0094,289.75 207.9938,289.75 Q209.4625,289.75 209.9313,289.875 Q210.4,290.0781 210.4,290.0781 Q210.4,290.0781 210.4,290.0078 Q210.4,289.9375 211.0094,289.0156 L212.0563,292.6719 L210.7281,293.0781 Q210.2594,291.5313 209.5953,290.8672 Q208.9313,290.2031 207.8688,290.2031 Q207.4781,290.2031 206.7125,291.7344 Q205.9469,293.2656 205.9469,295.5156 Q205.9469,297.9844 206.6109,299.375 Q207.275,300.7656 207.8063,300.7656 Q208.8688,300.7656 209.6266,300 Q210.3844,299.2344 210.7281,297.5781 L212.0563,298.1719 Q211.7281,299.5781 210.8297,300.4688 Q209.9313,301.3594 207.7281,301.3594 Z " fill="#000000"/><text fill="#000000" font-family="sans-serif" font-size="14" lengthAdjust="spacing" textLength="56" x="228.85" y="302.4839">ArrayList</text><line style="stroke:#181818;stroke-width:0.5;" x1="169.5" x2="312.5" y1="312" y2="312"/><text fill="#000000" font-family="sans-serif" font-size="14" lengthAdjust="spacing" textLength="133" x="174.5" y="332.0439">Object[] elementData</text><line style="stroke:#181818;stroke-width:0.5;" x1="169.5" x2="312.5" y1="339.1201" y2="339.1201"/><text fill="#000000" font-family="sans-serif" font-size="14" lengthAdjust="spacing" textLength="34" x="174.5" y="359.1641">size()</text></g><!--MD5=[15b68e006199004da79ea2a4d117d8e9]
class TimeUnit--><g id="elem_TimeUnit"><rect codeLine="19" fill="#F1F1F1" height="105.3604" id="TimeUnit" rx="2.5" ry="2.5" style="stroke:#181818;stroke-width:0.5;" width="87" x="290.5" y="7"/><ellipse cx="305.5" cy="23" fill="#EB937F" rx="11" ry="11" style="stroke:#181818;stroke-width:1.0;"/><path d="M302.0313,17.2813 L302.0313,16.875 L309.5469,16.875 L310.2656,19.1406 L309.0938,19.5938 Q308.4063,18.2656 307.8125,17.7734 Q307.2188,17.2813 306.4844,17.2813 L304.625,17.2813 Q304.625,17.2813 304.7578,17.4141 Q304.8906,17.5469 304.8906,17.8125 L304.8906,21.9219 L305.9531,21.9219 Q306.6094,21.9219 306.9141,21.5938 Q307.2188,21.2656 307.2188,20.5938 L307.2188,20.2031 L308.6094,20.2031 L308.6094,24.1094 L307.2188,24.1094 L307.2188,23.8438 Q307.2188,23.125 306.9141,22.7266 Q306.6094,22.3281 305.9531,22.3281 L305.0313,22.3281 L305.0313,27.2969 Q305.0313,27.5625 305.1953,27.6953 Q305.3594,27.8281 305.3594,27.8281 L306.3438,27.8281 Q307.3438,27.8281 308.0391,27.2656 Q308.7344,26.7031 309.25,25.1875 L310.4688,25.6406 L309.7344,28.2344 L301.9688,28.2344 L301.9688,27.8281 L302.3594,27.8281 Q302.7031,27.8281 302.8359,27.6953 Q302.9688,27.5625 302.9688,27.2969 L302.9688,17.8125 Q302.9688,17.5469 302.8359,17.4141 Q302.7031,17.2813 302.3594,17.2813 L302.0313,17.2813 Z " fill="#000000"/><text fill="#000000" font-family="sans-serif" font-size="14" lengthAdjust="spacing" textLength="55" x="319.5" y="29.4839">TimeUnit</text><line style="stroke:#181818;stroke-width:0.5;" x1="291.5" x2="376.5" y1="39" y2="39"/><text fill="#000000" font-family="sans-serif" font-size="14" lengthAdjust="spacing" textLength="37" x="296.5" y="59.0439">DAYS</text><text fill="#000000" font-family="sans-serif" font-size="14" lengthAdjust="spacing" textLength="48" x="296.5" y="78.1641">HOURS</text><text fill="#000000" font-family="sans-serif" font-size="14" lengthAdjust="spacing" textLength="59" x="296.5" y="97.2842">MINUTES</text><line style="stroke:#181818;stroke-width:0.5;" x1="291.5" x2="376.5" y1="104.3604" y2="104.3604"/></g><!--MD5=[0c8287f799745f7b534bf75518604c1e]
class SuppressWarnings--><g id="elem_SuppressWarnings"><rect codeLine="25" fill="#F1F1F1" height="48" id="SuppressWarnings" rx="2.5" ry="2.5" style="stroke:#181818;stroke-width:0.5;" width="152" x="413" y="35.5"/><ellipse cx="428" cy="51.5" fill="#E3664A" rx="11" ry="11" style="stroke:#181818;stroke-width:1.0;"/><path d="M427.1563,54.7031 Q426.75,54.7031 426.3906,54.1719 Q426.0313,53.6406 426.0313,52.5781 Q426.0313,51.125 426.8281,49.5 Q427.625,47.875 428.6094,47.875 Q429.875,47.875 430.0469,48.0078 Q430.2188,48.1406 430.2188,48.1406 L430.2188,47.7969 L431.1406,47.7969 L430.5469,51.9844 Q430.4844,52.5156 430.4063,52.9219 Q430.3438,53.3125 430.3438,53.5156 Q430.3438,53.7813 430.4453,53.9141 Q430.5469,54.0469 430.5469,54.0469 Q430.5469,54.0469 430.7734,53.1172 Q431,52.1875 431,50.5938 Q431,47.9375 430.1094,47.0703 Q429.2188,46.2031 428.2188,46.2031 Q428.0156,46.2031 427.0547,47.4375 Q426.0938,48.6719 426.0938,51.6563 Q426.0938,54.25 426.8906,55.5391 Q427.6875,56.8281 428.0156,56.8281 Q429.0156,56.8281 429.7813,56.2969 Q430.5469,55.7656 431.2031,54.4375 L432.5313,54.8438 Q431.875,56.1719 431.0078,56.7656 Q430.1406,57.3594 428.0156,57.3594 Q426.2969,57.3594 425.2344,55.7344 Q424.1719,54.1094 424.1719,51.6563 Q424.1719,48.9375 425.3672,47.3438 Q426.5625,45.75 428.2188,45.75 Q430.6094,45.75 431.6094,46.875 Q432.6094,48 432.6094,50.5313 Q432.6094,52.5156 431.9453,53.6094 Q431.2813,54.7031 429.4844,54.7031 Q429.1406,54.7031 428.9141,54.4375 Q428.6875,54.1719 428.6875,54.1719 Q428.6875,54.1719 428.6563,54.4375 Q428.625,54.7031 427.1563,54.7031 Z M428.1563,54.1719 Q428.1563,54.1719 428.3203,53.7109 Q428.4844,53.25 428.6875,52.3125 L429.1406,49.0625 Q429.2188,48.6719 429.0469,48.4688 Q428.875,48.2656 428.6094,48.2656 Q428.6094,48.2656 428.25,49.625 Q427.8906,50.9844 427.8906,53.0469 Q427.8906,53.6406 428.0234,53.9063 Q428.1563,54.1719 428.1563,54.1719 Z " fill="#000000"/><text fill="#000000" font-family="sans-serif" font-size="14" lengthAdjust="spacing" textLength="120" x="442" y="57.9839">SuppressWarnings</text><line style="stroke:#181818;stroke-width:0.5;" x1="414" x2="564" y1="67.5" y2="67.5"/><line style="stroke:#181818;stroke-width:0.5;" x1="414" x2="564" y1="75.5" y2="75.5"/></g><!--MD5=[00308d07b6a5721fb0cf5861877e6652]
reverse link List to AbstractList--><g id="link_List_AbstractList"><path codeLine="7" d="M232.167,103.609 C234.352,126.215 236.942,153.018 238.751,171.73 " fill="none" id="List-backto-AbstractList" style="stroke:#181818;stroke-width:1.0;"/><polygon fill="none" points="225.191,104.202,230.235,83.621,239.127,102.855,225.191,104.202" style="stroke:#181818;stroke-width:1.0;"/></g><!--MD5=[1822909749df1453bdd84de7a60a3406]
reverse link Collection to AbstractCollection--><g id="link_Collection_AbstractCollection"><path codeLine="8" d="M88.8334,103.609 C86.6483,126.215 84.0577,153.018 82.2491,171.73 " fill="none" id="Collection-backto-AbstractCollection" style="stroke:#181818;stroke-width:1.0;"/><polygon fill="none" points="81.8735,102.855,90.7652,83.621,95.8085,104.202,81.8735,102.855" style="stroke:#181818;stroke-width:1.0;"/></g><!--MD5=[0159284274f96a472eb2618ad803aaca]
reverse link Collection to List--><g id="link_Collection_List"><path codeLine="10" d="M160.591,59.5 C174.029,59.5 187.467,59.5 200.905,59.5 " fill="none" id="Collection-backto-List" style="stroke:#181818;stroke-width:1.0;"/><polygon fill="none" points="160.197,66.5,140.197,59.5,160.197,52.5,160.197,66.5" style="stroke:#181818;stroke-width:1.0;"/></g><!--MD5=[7a3a52e8f65ef1a8d8d29530ea5cd870]
reverse link AbstractCollection to AbstractList--><g id="link_AbstractCollection_AbstractList"><path codeLine="11" d="M173.278,196 C178.146,196 183.013,196 187.881,196 " fill="none" id="AbstractCollection-backto-AbstractList" style="stroke:#181818;stroke-width:1.0;"/><polygon fill="none" points="173.268,203,153.268,196,173.268,189,173.268,203" style="stroke:#181818;stroke-width:1.0;"/></g><!--MD5=[40e4bb1af59cca28d4643aaff05088cc]
reverse link AbstractList to ArrayList--><g id="link_AbstractList_ArrayList"><path codeLine="12" d="M241,240.269 C241,253.117 241,267.1658 241,279.9359 " fill="none" id="AbstractList-backto-ArrayList" style="stroke:#181818;stroke-width:1.0;"/><polygon fill="none" points="234,240.219,241,220.219,248,240.219,234,240.219" style="stroke:#181818;stroke-width:1.0;"/></g><!--MD5=[d489e22d58acaabf1235c859383c5c6a]
@startuml

abstract class AbstractList
abstract AbstractCollection
interface List
interface Collection

List <|- - AbstractList
Collection <|- - AbstractCollection

Collection <|- List
AbstractCollection <|- AbstractList
AbstractList <|- - ArrayList

class ArrayList {
  Object[] elementData
  size()
}

enum TimeUnit {
  DAYS
  HOURS
  MINUTES
}

annotation SuppressWarnings

@enduml

PlantUML version 1.2022.4(Sat Apr 09 21:29:17 CST 2022)
(GPL source distribution)
Java Runtime: Java(TM) SE Runtime Environment
JVM: Java HotSpot(TM) 64-Bit Server VM
Default Encoding: GBK
Language: zh
Country: CN
--></g></svg>