<?xml version="1.0" encoding="UTF-8" standalone="no"?><svg xmlns="http://www.w3.org/2000/svg" xmlns:xlink="http://www.w3.org/1999/xlink" contentStyleType="text/css" height="107px" preserveAspectRatio="none" style="width:215px;height:107px;background:#FFFFFF;" version="1.1" viewBox="0 0 215 107" width="215px" zoomAndPan="magnify"><defs/><g><!--MD5=[c54ba4f61d01a424743e5a1fa0f9e38e]
class Dummy--><g id="elem_Dummy"><rect codeLine="1" fill="#F1F1F1" height="86.2402" id="Dummy" rx="2.5" ry="2.5" style="stroke:#181818;stroke-width:0.5;" width="194" x="7" y="7"/><ellipse cx="76.25" cy="23" fill="#ADD1B2" rx="11" ry="11" style="stroke:#181818;stroke-width:1.0;"/><path d="M74.8281,28.3594 Q72.9688,28.3594 71.875,26.9688 Q70.7813,25.5781 70.7813,22.5938 Q70.7813,20.0625 71.9453,18.4063 Q73.1094,16.75 75.0938,16.75 Q76.5625,16.75 77.0313,16.875 Q77.5,17.0781 77.5,17.0781 Q77.5,17.0781 77.5,17.0078 Q77.5,16.9375 78.1094,16.0156 L79.1563,19.6719 L77.8281,20.0781 Q77.3594,18.5313 76.6953,17.8672 Q76.0313,17.2031 74.9688,17.2031 Q74.5781,17.2031 73.8125,18.7344 Q73.0469,20.2656 73.0469,22.5156 Q73.0469,24.9844 73.7109,26.375 Q74.375,27.7656 74.9063,27.7656 Q75.9688,27.7656 76.7266,27 Q77.4844,26.2344 77.8281,24.5781 L79.1563,25.1719 Q78.8281,26.5781 77.9297,27.4688 Q77.0313,28.3594 74.8281,28.3594 Z " fill="#000000"/><text fill="#000000" font-family="sans-serif" font-size="14" lengthAdjust="spacing" textLength="47" x="96.75" y="29.4839">Dummy</text><line style="stroke:#181818;stroke-width:0.5;" x1="8" x2="200" y1="39" y2="39"/><text fill="#000000" font-family="sans-serif" font-size="14" lengthAdjust="spacing" textLength="182" x="13" y="59.0439">A field (despite parentheses)</text><line style="stroke:#181818;stroke-width:0.5;" x1="8" x2="200" y1="66.1201" y2="66.1201"/><text fill="#000000" font-family="sans-serif" font-size="14" lengthAdjust="spacing" textLength="87" x="13" y="86.1641">Some method</text></g><!--MD5=[1202f3d317a54cfc076518854ff09391]
@startuml
class Dummy {
  {field} A field (despite parentheses)
  {method} Some method
}

@enduml

PlantUML version 1.2022.4(Sat Apr 09 21:29:17 CST 2022)
(GPL source distribution)
Java Runtime: Java(TM) SE Runtime Environment
JVM: Java HotSpot(TM) 64-Bit Server VM
Default Encoding: GBK
Language: zh
Country: CN
--></g></svg>