<?xml version="1.0" encoding="UTF-8" standalone="no"?><svg xmlns="http://www.w3.org/2000/svg" xmlns:xlink="http://www.w3.org/1999/xlink" contentStyleType="text/css" height="242px" preserveAspectRatio="none" style="width:366px;height:242px;background:#FFFFFF;" version="1.1" viewBox="0 0 366 242" width="366px" zoomAndPan="magnify"><defs/><g><!--MD5=[4272a0a1957754cd214430d460c5f4ca]
class Foo1--><g id="elem_Foo1"><rect codeLine="1" fill="#F1F1F1" height="224.9609" id="Foo1" rx="2.5" ry="2.5" style="stroke:#181818;stroke-width:0.5;" width="204" x="7" y="8.5"/><ellipse cx="88.25" cy="24.5" fill="#ADD1B2" rx="11" ry="11" style="stroke:#181818;stroke-width:1.0;"/><path d="M86.8281,29.8594 Q84.9688,29.8594 83.875,28.4688 Q82.7813,27.0781 82.7813,24.0938 Q82.7813,21.5625 83.9453,19.9063 Q85.1094,18.25 87.0938,18.25 Q88.5625,18.25 89.0313,18.375 Q89.5,18.5781 89.5,18.5781 Q89.5,18.5781 89.5,18.5078 Q89.5,18.4375 90.1094,17.5156 L91.1563,21.1719 L89.8281,21.5781 Q89.3594,20.0313 88.6953,19.3672 Q88.0313,18.7031 86.9688,18.7031 Q86.5781,18.7031 85.8125,20.2344 Q85.0469,21.7656 85.0469,24.0156 Q85.0469,26.4844 85.7109,27.875 Q86.375,29.2656 86.9063,29.2656 Q87.9688,29.2656 88.7266,28.5 Q89.4844,27.7344 89.8281,26.0781 L91.1563,26.6719 Q90.8281,28.0781 89.9297,28.9688 Q89.0313,29.8594 86.8281,29.8594 Z " fill="#000000"/><text fill="#000000" font-family="sans-serif" font-size="14" lengthAdjust="spacing" textLength="33" x="108.75" y="30.9839">Foo1</text><line style="stroke:#181818;stroke-width:0.5;" x1="8" x2="210" y1="40.5" y2="40.5"/><text fill="#000000" font-family="sans-serif" font-size="14" lengthAdjust="spacing" textLength="79" x="13" y="60.5439">You can use</text><text fill="#000000" font-family="sans-serif" font-size="14" lengthAdjust="spacing" textLength="79" x="13" y="79.6641">several lines</text><line style="stroke:#181818;stroke-width:1.0;stroke-dasharray:1.0,2.0;" x1="8" x2="210" y1="86.7402" y2="86.7402"/><text fill="#000000" font-family="sans-serif" font-size="14" lengthAdjust="spacing" textLength="75" x="13" y="106.7842">as you want</text><text fill="#000000" font-family="sans-serif" font-size="14" lengthAdjust="spacing" textLength="65" x="13" y="125.9043">and group</text><line style="stroke:#181818;stroke-width:1.0;" x1="8" x2="210" y1="132.9805" y2="132.9805"/><line style="stroke:#181818;stroke-width:1.0;" x1="8" x2="210" y1="134.9805" y2="134.9805"/><text fill="#000000" font-family="sans-serif" font-size="14" lengthAdjust="spacing" textLength="99" x="13" y="153.0244">things together.</text><line style="stroke:#181818;stroke-width:0.5;" x1="8" x2="210" y1="160.1006" y2="160.1006"/><text fill="#000000" font-family="sans-serif" font-size="14" lengthAdjust="spacing" textLength="192" x="13" y="180.1445">You can have as many groups</text><text fill="#000000" font-family="sans-serif" font-size="14" lengthAdjust="spacing" textLength="75" x="13" y="199.2646">as you want</text><line style="stroke:#181818;stroke-width:1.0;" x1="8" x2="210" y1="206.3408" y2="206.3408"/><text fill="#000000" font-family="sans-serif" font-size="14" lengthAdjust="spacing" textLength="77" x="13" y="226.3848">End of class</text></g><!--MD5=[3fd616f346a44cd59a91eb10b19e157c]
class User--><g id="elem_User"><rect codeLine="16" fill="#F1F1F1" height="228.0811" id="User" rx="2.5" ry="2.5" style="stroke:#181818;stroke-width:0.5;" width="113" x="246.5" y="7"/><ellipse cx="284.9" cy="23" fill="#ADD1B2" rx="11" ry="11" style="stroke:#181818;stroke-width:1.0;"/><path d="M283.4781,28.3594 Q281.6188,28.3594 280.525,26.9688 Q279.4313,25.5781 279.4313,22.5938 Q279.4313,20.0625 280.5953,18.4063 Q281.7594,16.75 283.7438,16.75 Q285.2125,16.75 285.6813,16.875 Q286.15,17.0781 286.15,17.0781 Q286.15,17.0781 286.15,17.0078 Q286.15,16.9375 286.7594,16.0156 L287.8063,19.6719 L286.4781,20.0781 Q286.0094,18.5313 285.3453,17.8672 Q284.6813,17.2031 283.6188,17.2031 Q283.2281,17.2031 282.4625,18.7344 Q281.6969,20.2656 281.6969,22.5156 Q281.6969,24.9844 282.3609,26.375 Q283.025,27.7656 283.5563,27.7656 Q284.6188,27.7656 285.3766,27 Q286.1344,26.2344 286.4781,24.5781 L287.8063,25.1719 Q287.4781,26.5781 286.5797,27.4688 Q285.6813,28.3594 283.4781,28.3594 Z " fill="#000000"/><text fill="#000000" font-family="sans-serif" font-size="14" lengthAdjust="spacing" textLength="29" x="304.1" y="29.4839">User</text><line style="stroke:#181818;stroke-width:0.5;" x1="247.5" x2="358.5" y1="39" y2="39"/><ellipse cx="257.5" cy="73.1201" fill="#84BE84" rx="3" ry="3" style="stroke:#038048;stroke-width:1.0;"/><text fill="#000000" font-family="sans-serif" font-size="14" lengthAdjust="spacing" textLength="66" x="266.5" y="82.1641">getName()</text><ellipse cx="257.5" cy="92.2402" fill="#84BE84" rx="3" ry="3" style="stroke:#038048;stroke-width:1.0;"/><text fill="#000000" font-family="sans-serif" font-size="14" lengthAdjust="spacing" textLength="82" x="266.5" y="101.2842">getAddress()</text><line style="stroke:#181818;stroke-width:1.0;stroke-dasharray:1.0,2.0;" x1="247.5" x2="260" y1="56.5601" y2="56.5601"/><text fill="#000000" font-family="sans-serif" font-size="14" lengthAdjust="spacing" textLength="86" x="260" y="62.5439">Simple Getter</text><line style="stroke:#181818;stroke-width:1.0;stroke-dasharray:1.0,2.0;" x1="346" x2="358.5" y1="56.5601" y2="56.5601"/><ellipse cx="257.5" cy="134.4805" fill="#84BE84" rx="3" ry="3" style="stroke:#038048;stroke-width:1.0;"/><text fill="#000000" font-family="sans-serif" font-size="14" lengthAdjust="spacing" textLength="65" x="266.5" y="143.5244">setName()</text><line style="stroke:#181818;stroke-width:1.0;stroke-dasharray:1.0,2.0;" x1="247.5" x2="265" y1="117.9204" y2="117.9204"/><text fill="#000000" font-family="sans-serif" font-size="14" lengthAdjust="spacing" textLength="76" x="265" y="123.9043">Some setter</text><line style="stroke:#181818;stroke-width:1.0;stroke-dasharray:1.0,2.0;" x1="341" x2="358.5" y1="117.9204" y2="117.9204"/><text fill="#000000" font-family="sans-serif" font-size="14" lengthAdjust="spacing" textLength="43" x="252.5" y="185.7646">int age</text><line style="stroke:#181818;stroke-width:0.5;" x1="247.5" x2="265.5" y1="160.1606" y2="160.1606"/><text fill="#000000" font-family="sans-serif" font-size="14" lengthAdjust="spacing" textLength="75" x="265.5" y="166.1445">private data</text><line style="stroke:#181818;stroke-width:0.5;" x1="340.5" x2="358.5" y1="160.1606" y2="160.1606"/><text fill="#000000" font-family="sans-serif" font-size="14" lengthAdjust="spacing" textLength="101" x="252.5" y="228.0049">String password</text><line style="stroke:#181818;stroke-width:1.0;" x1="247.5" x2="271.5" y1="202.4009" y2="202.4009"/><text fill="#000000" font-family="sans-serif" font-size="14" lengthAdjust="spacing" textLength="63" x="271.5" y="208.3848">encrypted</text><line style="stroke:#181818;stroke-width:1.0;" x1="334.5" x2="358.5" y1="202.4009" y2="202.4009"/></g><!--MD5=[09b64331bdd7927aeaf9b15985a86f14]
@startuml
class Foo1 {
  You can use
  several lines
  ..
  as you want
  and group
  ==
  things together.
  __
  You can have as many groups
  as you want
  - -
  End of class
}

class User {
  .. Simple Getter ..
  + getName()
  + getAddress()
  .. Some setter ..
  + setName()
  __ private data __
  int age
  - - encrypted - -
  String password
}

@enduml

PlantUML version 1.2022.4(Sat Apr 09 21:29:17 CST 2022)
(GPL source distribution)
Java Runtime: Java(TM) SE Runtime Environment
JVM: Java HotSpot(TM) 64-Bit Server VM
Default Encoding: GBK
Language: zh
Country: CN
--></g></svg>