<?xml version="1.0" encoding="UTF-8" standalone="no"?><svg xmlns="http://www.w3.org/2000/svg" xmlns:xlink="http://www.w3.org/1999/xlink" contentStyleType="text/css" height="335px" preserveAspectRatio="none" style="width:191px;height:335px;background:#FFFFFF;" version="1.1" viewBox="0 0 191 335" width="191px" zoomAndPan="magnify"><defs/><g><!--MD5=[d6181cb537bdc20c0a3007a98a56832d]
class Student--><g id="elem_Student"><rect codeLine="1" fill="#F1F1F1" height="67.1201" id="Student" rx="2.5" ry="2.5" style="stroke:#181818;stroke-width:0.5;" width="81" x="7" y="7"/><ellipse cx="22" cy="23" fill="#ADD1B2" rx="11" ry="11" style="stroke:#181818;stroke-width:1.0;"/><path d="M20.5781,28.3594 Q18.7188,28.3594 17.625,26.9688 Q16.5313,25.5781 16.5313,22.5938 Q16.5313,20.0625 17.6953,18.4063 Q18.8594,16.75 20.8438,16.75 Q22.3125,16.75 22.7813,16.875 Q23.25,17.0781 23.25,17.0781 Q23.25,17.0781 23.25,17.0078 Q23.25,16.9375 23.8594,16.0156 L24.9063,19.6719 L23.5781,20.0781 Q23.1094,18.5313 22.4453,17.8672 Q21.7813,17.2031 20.7188,17.2031 Q20.3281,17.2031 19.5625,18.7344 Q18.7969,20.2656 18.7969,22.5156 Q18.7969,24.9844 19.4609,26.375 Q20.125,27.7656 20.6563,27.7656 Q21.7188,27.7656 22.4766,27 Q23.2344,26.2344 23.5781,24.5781 L24.9063,25.1719 Q24.5781,26.5781 23.6797,27.4688 Q22.7813,28.3594 20.5781,28.3594 Z " fill="#000000"/><text fill="#000000" font-family="sans-serif" font-size="14" lengthAdjust="spacing" textLength="49" x="36" y="29.4839">Student</text><line style="stroke:#181818;stroke-width:0.5;" x1="8" x2="87" y1="39" y2="39"/><text fill="#000000" font-family="sans-serif" font-size="14" lengthAdjust="spacing" textLength="36" x="13" y="59.0439">Name</text><line style="stroke:#181818;stroke-width:0.5;" x1="8" x2="87" y1="66.1201" y2="66.1201"/></g><!--MD5=[4066b0363c5a91ff3b6e03e0428953a9]
class Course--><g id="elem_Course"><rect fill="#F1F1F1" height="48" id="Course" rx="2.5" ry="2.5" style="stroke:#181818;stroke-width:0.5;" width="78" x="8.5" y="280"/><ellipse cx="23.5" cy="296" fill="#ADD1B2" rx="11" ry="11" style="stroke:#181818;stroke-width:1.0;"/><path d="M22.0781,301.3594 Q20.2188,301.3594 19.125,299.9688 Q18.0313,298.5781 18.0313,295.5938 Q18.0313,293.0625 19.1953,291.4063 Q20.3594,289.75 22.3438,289.75 Q23.8125,289.75 24.2813,289.875 Q24.75,290.0781 24.75,290.0781 Q24.75,290.0781 24.75,290.0078 Q24.75,289.9375 25.3594,289.0156 L26.4063,292.6719 L25.0781,293.0781 Q24.6094,291.5313 23.9453,290.8672 Q23.2813,290.2031 22.2188,290.2031 Q21.8281,290.2031 21.0625,291.7344 Q20.2969,293.2656 20.2969,295.5156 Q20.2969,297.9844 20.9609,299.375 Q21.625,300.7656 22.1563,300.7656 Q23.2188,300.7656 23.9766,300 Q24.7344,299.2344 25.0781,297.5781 L26.4063,298.1719 Q26.0781,299.5781 25.1797,300.4688 Q24.2813,301.3594 22.0781,301.3594 Z " fill="#000000"/><text fill="#000000" font-family="sans-serif" font-size="14" lengthAdjust="spacing" textLength="46" x="37.5" y="302.4839">Course</text><line style="stroke:#181818;stroke-width:0.5;" x1="9.5" x2="85.5" y1="312" y2="312"/><line style="stroke:#181818;stroke-width:0.5;" x1="9.5" x2="85.5" y1="320" y2="320"/></g><!--MD5=[a5e519b5507f5347c192db89cdb5223a]
class Enrollment--><g id="elem_Enrollment"><rect codeLine="7" fill="#F1F1F1" height="86.2402" id="Enrollment" rx="2.5" ry="2.5" style="stroke:#181818;stroke-width:0.5;" width="99" x="85" y="134"/><ellipse cx="100" cy="150" fill="#ADD1B2" rx="11" ry="11" style="stroke:#181818;stroke-width:1.0;"/><path d="M98.5781,155.3594 Q96.7188,155.3594 95.625,153.9688 Q94.5313,152.5781 94.5313,149.5938 Q94.5313,147.0625 95.6953,145.4063 Q96.8594,143.75 98.8438,143.75 Q100.3125,143.75 100.7813,143.875 Q101.25,144.0781 101.25,144.0781 Q101.25,144.0781 101.25,144.0078 Q101.25,143.9375 101.8594,143.0156 L102.9063,146.6719 L101.5781,147.0781 Q101.1094,145.5313 100.4453,144.8672 Q99.7813,144.2031 98.7188,144.2031 Q98.3281,144.2031 97.5625,145.7344 Q96.7969,147.2656 96.7969,149.5156 Q96.7969,151.9844 97.4609,153.375 Q98.125,154.7656 98.6563,154.7656 Q99.7188,154.7656 100.4766,154 Q101.2344,153.2344 101.5781,151.5781 L102.9063,152.1719 Q102.5781,153.5781 101.6797,154.4688 Q100.7813,155.3594 98.5781,155.3594 Z " fill="#000000"/><text fill="#000000" font-family="sans-serif" font-size="14" lengthAdjust="spacing" textLength="67" x="114" y="156.4839">Enrollment</text><line style="stroke:#181818;stroke-width:0.5;" x1="86" x2="183" y1="166" y2="166"/><line style="stroke:#181818;stroke-width:0.5;" x1="86" x2="183" y1="174" y2="174"/><text fill="#000000" font-family="sans-serif" font-size="14" lengthAdjust="spacing" textLength="39" x="91" y="194.0439">drop()</text><text fill="#000000" font-family="sans-serif" font-size="14" lengthAdjust="spacing" textLength="51" x="91" y="213.1641">cancel()</text></g><ellipse cx="47.5" cy="177" fill="#000000" rx="2" ry="2" style="stroke:none;stroke-width:1.0;"/><!--MD5=[69a23c42a9407eeb347d644f3f2fe679]
link Student to apoint6--><g id="link_Student_apoint6"><path d="M47.5,74.059 C47.5,110.755 47.5,166.428 47.5,174.903 " fill="none" id="Student-apoint6" style="stroke:#181818;stroke-width:1.0;"/><text fill="#000000" font-family="sans-serif" font-size="13" lengthAdjust="spacing" textLength="20" x="25.5938" y="97.0349">0..*</text></g><!--MD5=[2667fb554c97f37ba20d9374fe872663]
link apoint6 to Course--><g id="link_apoint6_Course"><path d="M47.5,179.404 C47.5,189.113 47.5,246.8779 47.5,279.8909 " fill="none" id="apoint6-Course" style="stroke:#181818;stroke-width:1.0;"/><text fill="#000000" font-family="sans-serif" font-size="13" lengthAdjust="spacing" textLength="20" x="24.8125" y="269.1265">1..*</text></g><!--MD5=[3b9f2af3d9b6b3681390dc513e5b587c]
link apoint6 to Enrollment--><g id="link_apoint6_Enrollment"><path d="M49.5391,177 C61.2654,177 72.9918,177 84.7182,177 " fill="none" id="apoint6-Enrollment" style="stroke:#181818;stroke-width:1.0;stroke-dasharray:7.0,7.0;"/></g><!--MD5=[3ae0cdaad6c6a2ff099d55cd12c5d577]
@startuml
class Student {
  Name
}
Student "0..*" - - "1..*" Course
(Student, Course) . Enrollment

class Enrollment {
  drop()
  cancel()
}
@enduml

PlantUML version 1.2022.4(Sat Apr 09 21:29:17 CST 2022)
(GPL source distribution)
Java Runtime: Java(TM) SE Runtime Environment
JVM: Java HotSpot(TM) 64-Bit Server VM
Default Encoding: GBK
Language: zh
Country: CN
--></g></svg>