<?xml version="1.0" encoding="UTF-8" standalone="no"?><svg xmlns="http://www.w3.org/2000/svg" xmlns:xlink="http://www.w3.org/1999/xlink" contentStyleType="text/css" height="227px" preserveAspectRatio="none" style="width:247px;height:227px;background:#FFFFFF;" version="1.1" viewBox="0 0 247 227" width="247px" zoomAndPan="magnify"><defs/><g><!--MD5=[d6181cb537bdc20c0a3007a98a56832d]
class Student--><g id="elem_Student"><rect codeLine="1" fill="#F1F1F1" height="67.1201" id="Student" rx="2.5" ry="2.5" style="stroke:#181818;stroke-width:0.5;" width="81" x="7" y="7"/><ellipse cx="22" cy="23" fill="#ADD1B2" rx="11" ry="11" style="stroke:#181818;stroke-width:1.0;"/><path d="M20.5781,28.3594 Q18.7188,28.3594 17.625,26.9688 Q16.5313,25.5781 16.5313,22.5938 Q16.5313,20.0625 17.6953,18.4063 Q18.8594,16.75 20.8438,16.75 Q22.3125,16.75 22.7813,16.875 Q23.25,17.0781 23.25,17.0781 Q23.25,17.0781 23.25,17.0078 Q23.25,16.9375 23.8594,16.0156 L24.9063,19.6719 L23.5781,20.0781 Q23.1094,18.5313 22.4453,17.8672 Q21.7813,17.2031 20.7188,17.2031 Q20.3281,17.2031 19.5625,18.7344 Q18.7969,20.2656 18.7969,22.5156 Q18.7969,24.9844 19.4609,26.375 Q20.125,27.7656 20.6563,27.7656 Q21.7188,27.7656 22.4766,27 Q23.2344,26.2344 23.5781,24.5781 L24.9063,25.1719 Q24.5781,26.5781 23.6797,27.4688 Q22.7813,28.3594 20.5781,28.3594 Z " fill="#000000"/><text fill="#000000" font-family="sans-serif" font-size="14" lengthAdjust="spacing" textLength="49" x="36" y="29.4839">Student</text><line style="stroke:#181818;stroke-width:0.5;" x1="8" x2="87" y1="39" y2="39"/><text fill="#000000" font-family="sans-serif" font-size="14" lengthAdjust="spacing" textLength="36" x="13" y="59.0439">Name</text><line style="stroke:#181818;stroke-width:0.5;" x1="8" x2="87" y1="66.1201" y2="66.1201"/></g><!--MD5=[4066b0363c5a91ff3b6e03e0428953a9]
class Course--><g id="elem_Course"><rect fill="#F1F1F1" height="48" id="Course" rx="2.5" ry="2.5" style="stroke:#181818;stroke-width:0.5;" width="78" x="162.5" y="16.5"/><ellipse cx="177.5" cy="32.5" fill="#ADD1B2" rx="11" ry="11" style="stroke:#181818;stroke-width:1.0;"/><path d="M176.0781,37.8594 Q174.2188,37.8594 173.125,36.4688 Q172.0313,35.0781 172.0313,32.0938 Q172.0313,29.5625 173.1953,27.9063 Q174.3594,26.25 176.3438,26.25 Q177.8125,26.25 178.2813,26.375 Q178.75,26.5781 178.75,26.5781 Q178.75,26.5781 178.75,26.5078 Q178.75,26.4375 179.3594,25.5156 L180.4063,29.1719 L179.0781,29.5781 Q178.6094,28.0313 177.9453,27.3672 Q177.2813,26.7031 176.2188,26.7031 Q175.8281,26.7031 175.0625,28.2344 Q174.2969,29.7656 174.2969,32.0156 Q174.2969,34.4844 174.9609,35.875 Q175.625,37.2656 176.1563,37.2656 Q177.2188,37.2656 177.9766,36.5 Q178.7344,35.7344 179.0781,34.0781 L180.4063,34.6719 Q180.0781,36.0781 179.1797,36.9688 Q178.2813,37.8594 176.0781,37.8594 Z " fill="#000000"/><text fill="#000000" font-family="sans-serif" font-size="14" lengthAdjust="spacing" textLength="46" x="191.5" y="38.9839">Course</text><line style="stroke:#181818;stroke-width:0.5;" x1="163.5" x2="239.5" y1="48.5" y2="48.5"/><line style="stroke:#181818;stroke-width:0.5;" x1="163.5" x2="239.5" y1="56.5" y2="56.5"/></g><!--MD5=[a5e519b5507f5347c192db89cdb5223a]
class Enrollment--><g id="elem_Enrollment"><rect codeLine="7" fill="#F1F1F1" height="86.2402" id="Enrollment" rx="2.5" ry="2.5" style="stroke:#181818;stroke-width:0.5;" width="99" x="76" y="134"/><ellipse cx="91" cy="150" fill="#ADD1B2" rx="11" ry="11" style="stroke:#181818;stroke-width:1.0;"/><path d="M89.5781,155.3594 Q87.7188,155.3594 86.625,153.9688 Q85.5313,152.5781 85.5313,149.5938 Q85.5313,147.0625 86.6953,145.4063 Q87.8594,143.75 89.8438,143.75 Q91.3125,143.75 91.7813,143.875 Q92.25,144.0781 92.25,144.0781 Q92.25,144.0781 92.25,144.0078 Q92.25,143.9375 92.8594,143.0156 L93.9063,146.6719 L92.5781,147.0781 Q92.1094,145.5313 91.4453,144.8672 Q90.7813,144.2031 89.7188,144.2031 Q89.3281,144.2031 88.5625,145.7344 Q87.7969,147.2656 87.7969,149.5156 Q87.7969,151.9844 88.4609,153.375 Q89.125,154.7656 89.6563,154.7656 Q90.7188,154.7656 91.4766,154 Q92.2344,153.2344 92.5781,151.5781 L93.9063,152.1719 Q93.5781,153.5781 92.6797,154.4688 Q91.7813,155.3594 89.5781,155.3594 Z " fill="#000000"/><text fill="#000000" font-family="sans-serif" font-size="14" lengthAdjust="spacing" textLength="67" x="105" y="156.4839">Enrollment</text><line style="stroke:#181818;stroke-width:0.5;" x1="77" x2="174" y1="166" y2="166"/><line style="stroke:#181818;stroke-width:0.5;" x1="77" x2="174" y1="174" y2="174"/><text fill="#000000" font-family="sans-serif" font-size="14" lengthAdjust="spacing" textLength="39" x="82" y="194.0439">drop()</text><text fill="#000000" font-family="sans-serif" font-size="14" lengthAdjust="spacing" textLength="51" x="82" y="213.1641">cancel()</text></g><ellipse cx="125.5" cy="40.5" fill="#000000" rx="2" ry="2" style="stroke:none;stroke-width:1.0;"/><!--MD5=[69a23c42a9407eeb347d644f3f2fe679]
link Student to apoint6--><g id="link_Student_apoint6"><path d="M88.0234,40.5 C99.8325,40.5 111.641,40.5 123.451,40.5 " fill="none" id="Student-apoint6" style="stroke:#181818;stroke-width:1.0;"/><text fill="#000000" font-family="sans-serif" font-size="13" lengthAdjust="spacing" textLength="20" x="95.4989" y="36.8139">0..*</text></g><!--MD5=[2667fb554c97f37ba20d9374fe872663]
link apoint6 to Course--><g id="link_apoint6_Course"><path d="M127.578,40.5 C139.128,40.5 150.679,40.5 162.229,40.5 " fill="none" id="apoint6-Course" style="stroke:#181818;stroke-width:1.0;"/><text fill="#000000" font-family="sans-serif" font-size="13" lengthAdjust="spacing" textLength="20" x="135.5267" y="36.5295">1..*</text></g><!--MD5=[3b9f2af3d9b6b3681390dc513e5b587c]
link apoint6 to Enrollment--><g id="link_apoint6_Enrollment"><path d="M125.5,43.01 C125.5,51.9 125.5,98.22 125.5,133.7202 " fill="none" id="apoint6-Enrollment" style="stroke:#181818;stroke-width:1.0;stroke-dasharray:7.0,7.0;"/></g><!--MD5=[15037f24ef1cf75c9957b46f7b64b508]
@startuml
class Student {
  Name
}
Student "0..*" - "1..*" Course
(Student, Course) .. Enrollment

class Enrollment {
  drop()
  cancel()
}
@enduml

PlantUML version 1.2022.4(Sat Apr 09 21:29:17 CST 2022)
(GPL source distribution)
Java Runtime: Java(TM) SE Runtime Environment
JVM: Java HotSpot(TM) 64-Bit Server VM
Default Encoding: GBK
Language: zh
Country: CN
--></g></svg>