<?xml version="1.0" encoding="UTF-8" standalone="no"?><svg xmlns="http://www.w3.org/2000/svg" xmlns:xlink="http://www.w3.org/1999/xlink" contentStyleType="text/css" height="134px" preserveAspectRatio="none" style="width:119px;height:134px;background:#FFFFFF;" version="1.1" viewBox="0 0 119 134" width="119px" zoomAndPan="magnify"><defs/><g><!--MD5=[41020b8da08040395955d2ce6dc6a62c]
cluster X1::X2--><g id="cluster_X1::X2"><path d="M8.5,6 L51.5,6 A3.75,3.75 0 0 1 54,8.5 L61,31.1201 L109.5,31.1201 A2.5,2.5 0 0 1 112,33.6201 L112,124.5 A2.5,2.5 0 0 1 109.5,127 L8.5,127 A2.5,2.5 0 0 1 6,124.5 L6,8.5 A2.5,2.5 0 0 1 8.5,6 " style="stroke:#000000;stroke-width:1.5;fill:none;"/><line style="stroke:#000000;stroke-width:1.5;fill:none;" x1="6" x2="61" y1="31.1201" y2="31.1201"/><text fill="#000000" font-family="sans-serif" font-size="14" font-weight="bold" lengthAdjust="spacing" textLength="42" x="10" y="24.0439">X1::X2</text></g><!--MD5=[7288d1695b18baf317e981810cbbd25d]
class X1::X2::foo--><g id="elem_X1::X2::foo"><rect codeLine="3" fill="#F1F1F1" height="67.1201" id="X1::X2::foo" rx="2.5" ry="2.5" style="stroke:#181818;stroke-width:0.5;" width="73" x="22.5" y="44"/><ellipse cx="46.95" cy="60" fill="#ADD1B2" rx="11" ry="11" style="stroke:#181818;stroke-width:1.0;"/><path d="M45.5281,65.3594 Q43.6688,65.3594 42.575,63.9688 Q41.4813,62.5781 41.4813,59.5938 Q41.4813,57.0625 42.6453,55.4063 Q43.8094,53.75 45.7938,53.75 Q47.2625,53.75 47.7313,53.875 Q48.2,54.0781 48.2,54.0781 Q48.2,54.0781 48.2,54.0078 Q48.2,53.9375 48.8094,53.0156 L49.8563,56.6719 L48.5281,57.0781 Q48.0594,55.5313 47.3953,54.8672 Q46.7313,54.2031 45.6688,54.2031 Q45.2781,54.2031 44.5125,55.7344 Q43.7469,57.2656 43.7469,59.5156 Q43.7469,61.9844 44.4109,63.375 Q45.075,64.7656 45.6063,64.7656 Q46.6688,64.7656 47.4266,64 Q48.1844,63.2344 48.5281,61.5781 L49.8563,62.1719 Q49.5281,63.5781 48.6297,64.4688 Q47.7313,65.3594 45.5281,65.3594 Z " fill="#000000"/><text fill="#000000" font-family="sans-serif" font-size="14" lengthAdjust="spacing" textLength="20" x="63.05" y="66.4839">foo</text><line style="stroke:#181818;stroke-width:0.5;" x1="23.5" x2="94.5" y1="76" y2="76"/><text fill="#000000" font-family="sans-serif" font-size="14" lengthAdjust="spacing" textLength="61" x="28.5" y="96.0439">some info</text><line style="stroke:#181818;stroke-width:0.5;" x1="23.5" x2="94.5" y1="103.1201" y2="103.1201"/></g><!--MD5=[538616f14faaa54156d4ab23db6bcd10]
@startuml

set namespaceSeparator ::
class X1::X2::foo {
  some info
}

@enduml

PlantUML version 1.2022.4(Sat Apr 09 21:29:17 CST 2022)
(GPL source distribution)
Java Runtime: Java(TM) SE Runtime Environment
JVM: Java HotSpot(TM) 64-Bit Server VM
Default Encoding: GBK
Language: zh
Country: CN
--></g></svg>