<?xml version="1.0" encoding="UTF-8" standalone="no"?><svg xmlns="http://www.w3.org/2000/svg" xmlns:xlink="http://www.w3.org/1999/xlink" contentStyleType="text/css" height="170px" preserveAspectRatio="none" style="width:199px;height:170px;background:#FFFFFF;" version="1.1" viewBox="0 0 199 170" width="199px" zoomAndPan="magnify"><defs/><g><!--MD5=[d6181cb537bdc20c0a3007a98a56832d]
class Student--><g id="elem_Student"><rect fill="#F1F1F1" height="48" id="Student" rx="2.5" ry="2.5" style="stroke:#181818;stroke-width:0.5;" width="81" x="7" y="115"/><ellipse cx="22" cy="131" fill="#ADD1B2" rx="11" ry="11" style="stroke:#181818;stroke-width:1.0;"/><path d="M20.5781,136.3594 Q18.7188,136.3594 17.625,134.9688 Q16.5313,133.5781 16.5313,130.5938 Q16.5313,128.0625 17.6953,126.4063 Q18.8594,124.75 20.8438,124.75 Q22.3125,124.75 22.7813,124.875 Q23.25,125.0781 23.25,125.0781 Q23.25,125.0781 23.25,125.0078 Q23.25,124.9375 23.8594,124.0156 L24.9063,127.6719 L23.5781,128.0781 Q23.1094,126.5313 22.4453,125.8672 Q21.7813,125.2031 20.7188,125.2031 Q20.3281,125.2031 19.5625,126.7344 Q18.7969,128.2656 18.7969,130.5156 Q18.7969,132.9844 19.4609,134.375 Q20.125,135.7656 20.6563,135.7656 Q21.7188,135.7656 22.4766,135 Q23.2344,134.2344 23.5781,132.5781 L24.9063,133.1719 Q24.5781,134.5781 23.6797,135.4688 Q22.7813,136.3594 20.5781,136.3594 Z " fill="#000000"/><text fill="#000000" font-family="sans-serif" font-size="14" lengthAdjust="spacing" textLength="49" x="36" y="137.4839">Student</text><line style="stroke:#181818;stroke-width:0.5;" x1="8" x2="87" y1="147" y2="147"/><line style="stroke:#181818;stroke-width:0.5;" x1="8" x2="87" y1="155" y2="155"/></g><!--MD5=[d218c48b946d362ff1ecd879cabebcad]
class Room--><g id="elem_Room"><rect fill="#F1F1F1" height="48" id="Room" rx="2.5" ry="2.5" style="stroke:#181818;stroke-width:0.5;" width="69" x="123" y="115"/><ellipse cx="138" cy="131" fill="#ADD1B2" rx="11" ry="11" style="stroke:#181818;stroke-width:1.0;"/><path d="M136.5781,136.3594 Q134.7188,136.3594 133.625,134.9688 Q132.5313,133.5781 132.5313,130.5938 Q132.5313,128.0625 133.6953,126.4063 Q134.8594,124.75 136.8438,124.75 Q138.3125,124.75 138.7813,124.875 Q139.25,125.0781 139.25,125.0781 Q139.25,125.0781 139.25,125.0078 Q139.25,124.9375 139.8594,124.0156 L140.9063,127.6719 L139.5781,128.0781 Q139.1094,126.5313 138.4453,125.8672 Q137.7813,125.2031 136.7188,125.2031 Q136.3281,125.2031 135.5625,126.7344 Q134.7969,128.2656 134.7969,130.5156 Q134.7969,132.9844 135.4609,134.375 Q136.125,135.7656 136.6563,135.7656 Q137.7188,135.7656 138.4766,135 Q139.2344,134.2344 139.5781,132.5781 L140.9063,133.1719 Q140.5781,134.5781 139.6797,135.4688 Q138.7813,136.3594 136.5781,136.3594 Z " fill="#000000"/><text fill="#000000" font-family="sans-serif" font-size="14" lengthAdjust="spacing" textLength="37" x="152" y="137.4839">Room</text><line style="stroke:#181818;stroke-width:0.5;" x1="124" x2="191" y1="147" y2="147"/><line style="stroke:#181818;stroke-width:0.5;" x1="124" x2="191" y1="155" y2="155"/></g><!--MD5=[d29c9a6f599273240dc5c7dc802fb3eb]
class Chair--><g id="elem_Chair"><rect fill="#F1F1F1" height="48" id="Chair" rx="2.5" ry="2.5" style="stroke:#181818;stroke-width:0.5;" width="66" x="124.5" y="7"/><ellipse cx="139.5" cy="23" fill="#ADD1B2" rx="11" ry="11" style="stroke:#181818;stroke-width:1.0;"/><path d="M138.0781,28.3594 Q136.2188,28.3594 135.125,26.9688 Q134.0313,25.5781 134.0313,22.5938 Q134.0313,20.0625 135.1953,18.4063 Q136.3594,16.75 138.3438,16.75 Q139.8125,16.75 140.2813,16.875 Q140.75,17.0781 140.75,17.0781 Q140.75,17.0781 140.75,17.0078 Q140.75,16.9375 141.3594,16.0156 L142.4063,19.6719 L141.0781,20.0781 Q140.6094,18.5313 139.9453,17.8672 Q139.2813,17.2031 138.2188,17.2031 Q137.8281,17.2031 137.0625,18.7344 Q136.2969,20.2656 136.2969,22.5156 Q136.2969,24.9844 136.9609,26.375 Q137.625,27.7656 138.1563,27.7656 Q139.2188,27.7656 139.9766,27 Q140.7344,26.2344 141.0781,24.5781 L142.4063,25.1719 Q142.0781,26.5781 141.1797,27.4688 Q140.2813,28.3594 138.0781,28.3594 Z " fill="#000000"/><text fill="#000000" font-family="sans-serif" font-size="14" lengthAdjust="spacing" textLength="34" x="153.5" y="29.4839">Chair</text><line style="stroke:#181818;stroke-width:0.5;" x1="125.5" x2="189.5" y1="39" y2="39"/><line style="stroke:#181818;stroke-width:0.5;" x1="125.5" x2="189.5" y1="47" y2="47"/></g><!--MD5=[8c360bd068248117ef878fe966704db5]
link Student to Room--><g id="link_Student_Room"><path codeLine="1" d="M88.3203,139 C95.4365,139 102.5526,139 109.669,139 " fill="none" id="Student-to-Room" style="stroke:#181818;stroke-width:1.0;"/><polygon fill="none" points="122.91,139,116.91,135,110.91,139,116.91,143,122.91,139" style="stroke:#181818;stroke-width:1.0;"/></g><!--MD5=[3bb74e7383537f19daa232b06d056726]
link Chair to Room--><g id="link_Chair_Room"><path codeLine="2" d="M157.5,55 C157.5,68.5198 157.5,85.9223 157.5,101.2977 " fill="none" id="Chair-to-Room" style="stroke:#181818;stroke-width:1.0;"/><polygon fill="#181818" points="157.5,114.6784,161.5,108.6784,157.5,102.6784,153.5,108.6784,157.5,114.6784" style="stroke:#181818;stroke-width:1.0;"/></g><!--MD5=[0c977307489efebf91b5a1c8371ef90d]
@startuml
Student -o Room
Chair - -* Room
@enduml

PlantUML version 1.2022.4(Sat Apr 09 21:29:17 CST 2022)
(GPL source distribution)
Java Runtime: Java(TM) SE Runtime Environment
JVM: Java HotSpot(TM) 64-Bit Server VM
Default Encoding: GBK
Language: zh
Country: CN
--></g></svg>