<?xml version="1.0" encoding="UTF-8" standalone="no"?><svg xmlns="http://www.w3.org/2000/svg" xmlns:xlink="http://www.w3.org/1999/xlink" contentStyleType="text/css" height="278px" preserveAspectRatio="none" style="width:347px;height:278px;background:#FFFFFF;" version="1.1" viewBox="0 0 347 278" width="347px" zoomAndPan="magnify"><defs/><g><!--MD5=[a7341930b10dc4f5414e3bba4c3f8ca3]
class foo--><g id="elem_foo"><rect fill="#F1F1F1" height="48" id="foo" rx="2.5" ry="2.5" style="stroke:#181818;stroke-width:0.5;" width="52" x="143.5" y="115"/><ellipse cx="158.5" cy="131" fill="#ADD1B2" rx="11" ry="11" style="stroke:#181818;stroke-width:1.0;"/><path d="M157.0781,136.3594 Q155.2188,136.3594 154.125,134.9688 Q153.0313,133.5781 153.0313,130.5938 Q153.0313,128.0625 154.1953,126.4063 Q155.3594,124.75 157.3438,124.75 Q158.8125,124.75 159.2813,124.875 Q159.75,125.0781 159.75,125.0781 Q159.75,125.0781 159.75,125.0078 Q159.75,124.9375 160.3594,124.0156 L161.4063,127.6719 L160.0781,128.0781 Q159.6094,126.5313 158.9453,125.8672 Q158.2813,125.2031 157.2188,125.2031 Q156.8281,125.2031 156.0625,126.7344 Q155.2969,128.2656 155.2969,130.5156 Q155.2969,132.9844 155.9609,134.375 Q156.625,135.7656 157.1563,135.7656 Q158.2188,135.7656 158.9766,135 Q159.7344,134.2344 160.0781,132.5781 L161.4063,133.1719 Q161.0781,134.5781 160.1797,135.4688 Q159.2813,136.3594 157.0781,136.3594 Z " fill="#000000"/><text fill="#000000" font-family="sans-serif" font-size="14" lengthAdjust="spacing" textLength="20" x="172.5" y="137.4839">foo</text><line style="stroke:#181818;stroke-width:0.5;" x1="144.5" x2="194.5" y1="147" y2="147"/><line style="stroke:#181818;stroke-width:0.5;" x1="144.5" x2="194.5" y1="155" y2="155"/></g><!--MD5=[94dea8627b0c227e7836a99210bcdadc]
class dummyLeft--><g id="elem_dummyLeft"><rect fill="#F1F1F1" height="48" id="dummyLeft" rx="2.5" ry="2.5" style="stroke:#181818;stroke-width:0.5;" width="101" x="7" y="115"/><ellipse cx="22" cy="131" fill="#ADD1B2" rx="11" ry="11" style="stroke:#181818;stroke-width:1.0;"/><path d="M20.5781,136.3594 Q18.7188,136.3594 17.625,134.9688 Q16.5313,133.5781 16.5313,130.5938 Q16.5313,128.0625 17.6953,126.4063 Q18.8594,124.75 20.8438,124.75 Q22.3125,124.75 22.7813,124.875 Q23.25,125.0781 23.25,125.0781 Q23.25,125.0781 23.25,125.0078 Q23.25,124.9375 23.8594,124.0156 L24.9063,127.6719 L23.5781,128.0781 Q23.1094,126.5313 22.4453,125.8672 Q21.7813,125.2031 20.7188,125.2031 Q20.3281,125.2031 19.5625,126.7344 Q18.7969,128.2656 18.7969,130.5156 Q18.7969,132.9844 19.4609,134.375 Q20.125,135.7656 20.6563,135.7656 Q21.7188,135.7656 22.4766,135 Q23.2344,134.2344 23.5781,132.5781 L24.9063,133.1719 Q24.5781,134.5781 23.6797,135.4688 Q22.7813,136.3594 20.5781,136.3594 Z " fill="#000000"/><text fill="#000000" font-family="sans-serif" font-size="14" lengthAdjust="spacing" textLength="69" x="36" y="137.4839">dummyLeft</text><line style="stroke:#181818;stroke-width:0.5;" x1="8" x2="107" y1="147" y2="147"/><line style="stroke:#181818;stroke-width:0.5;" x1="8" x2="107" y1="155" y2="155"/></g><!--MD5=[0f8f42da059ea0465d83d71ee1bb6687]
class dummyRight--><g id="elem_dummyRight"><rect fill="#F1F1F1" height="48" id="dummyRight" rx="2.5" ry="2.5" style="stroke:#181818;stroke-width:0.5;" width="110" x="230.5" y="115"/><ellipse cx="245.5" cy="131" fill="#ADD1B2" rx="11" ry="11" style="stroke:#181818;stroke-width:1.0;"/><path d="M244.0781,136.3594 Q242.2188,136.3594 241.125,134.9688 Q240.0313,133.5781 240.0313,130.5938 Q240.0313,128.0625 241.1953,126.4063 Q242.3594,124.75 244.3438,124.75 Q245.8125,124.75 246.2813,124.875 Q246.75,125.0781 246.75,125.0781 Q246.75,125.0781 246.75,125.0078 Q246.75,124.9375 247.3594,124.0156 L248.4063,127.6719 L247.0781,128.0781 Q246.6094,126.5313 245.9453,125.8672 Q245.2813,125.2031 244.2188,125.2031 Q243.8281,125.2031 243.0625,126.7344 Q242.2969,128.2656 242.2969,130.5156 Q242.2969,132.9844 242.9609,134.375 Q243.625,135.7656 244.1563,135.7656 Q245.2188,135.7656 245.9766,135 Q246.7344,134.2344 247.0781,132.5781 L248.4063,133.1719 Q248.0781,134.5781 247.1797,135.4688 Q246.2813,136.3594 244.0781,136.3594 Z " fill="#000000"/><text fill="#000000" font-family="sans-serif" font-size="14" lengthAdjust="spacing" textLength="78" x="259.5" y="137.4839">dummyRight</text><line style="stroke:#181818;stroke-width:0.5;" x1="231.5" x2="339.5" y1="147" y2="147"/><line style="stroke:#181818;stroke-width:0.5;" x1="231.5" x2="339.5" y1="155" y2="155"/></g><!--MD5=[754be462986d97685bcbedcbd1b03d51]
class dummyUp--><g id="elem_dummyUp"><rect fill="#F1F1F1" height="48" id="dummyUp" rx="2.5" ry="2.5" style="stroke:#181818;stroke-width:0.5;" width="94" x="122.5" y="7"/><ellipse cx="137.5" cy="23" fill="#ADD1B2" rx="11" ry="11" style="stroke:#181818;stroke-width:1.0;"/><path d="M136.0781,28.3594 Q134.2188,28.3594 133.125,26.9688 Q132.0313,25.5781 132.0313,22.5938 Q132.0313,20.0625 133.1953,18.4063 Q134.3594,16.75 136.3438,16.75 Q137.8125,16.75 138.2813,16.875 Q138.75,17.0781 138.75,17.0781 Q138.75,17.0781 138.75,17.0078 Q138.75,16.9375 139.3594,16.0156 L140.4063,19.6719 L139.0781,20.0781 Q138.6094,18.5313 137.9453,17.8672 Q137.2813,17.2031 136.2188,17.2031 Q135.8281,17.2031 135.0625,18.7344 Q134.2969,20.2656 134.2969,22.5156 Q134.2969,24.9844 134.9609,26.375 Q135.625,27.7656 136.1563,27.7656 Q137.2188,27.7656 137.9766,27 Q138.7344,26.2344 139.0781,24.5781 L140.4063,25.1719 Q140.0781,26.5781 139.1797,27.4688 Q138.2813,28.3594 136.0781,28.3594 Z " fill="#000000"/><text fill="#000000" font-family="sans-serif" font-size="14" lengthAdjust="spacing" textLength="62" x="151.5" y="29.4839">dummyUp</text><line style="stroke:#181818;stroke-width:0.5;" x1="123.5" x2="215.5" y1="39" y2="39"/><line style="stroke:#181818;stroke-width:0.5;" x1="123.5" x2="215.5" y1="47" y2="47"/></g><!--MD5=[62e5df812a67fad9e6371ff77980d007]
class dummyDown--><g id="elem_dummyDown"><rect fill="#F1F1F1" height="48" id="dummyDown" rx="2.5" ry="2.5" style="stroke:#181818;stroke-width:0.5;" width="112" x="113.5" y="223"/><ellipse cx="128.5" cy="239" fill="#ADD1B2" rx="11" ry="11" style="stroke:#181818;stroke-width:1.0;"/><path d="M127.0781,244.3594 Q125.2188,244.3594 124.125,242.9688 Q123.0313,241.5781 123.0313,238.5938 Q123.0313,236.0625 124.1953,234.4063 Q125.3594,232.75 127.3438,232.75 Q128.8125,232.75 129.2813,232.875 Q129.75,233.0781 129.75,233.0781 Q129.75,233.0781 129.75,233.0078 Q129.75,232.9375 130.3594,232.0156 L131.4063,235.6719 L130.0781,236.0781 Q129.6094,234.5313 128.9453,233.8672 Q128.2813,233.2031 127.2188,233.2031 Q126.8281,233.2031 126.0625,234.7344 Q125.2969,236.2656 125.2969,238.5156 Q125.2969,240.9844 125.9609,242.375 Q126.625,243.7656 127.1563,243.7656 Q128.2188,243.7656 128.9766,243 Q129.7344,242.2344 130.0781,240.5781 L131.4063,241.1719 Q131.0781,242.5781 130.1797,243.4688 Q129.2813,244.3594 127.0781,244.3594 Z " fill="#000000"/><text fill="#000000" font-family="sans-serif" font-size="14" lengthAdjust="spacing" textLength="80" x="142.5" y="245.4839">dummyDown</text><line style="stroke:#181818;stroke-width:0.5;" x1="114.5" x2="224.5" y1="255" y2="255"/><line style="stroke:#181818;stroke-width:0.5;" x1="114.5" x2="224.5" y1="263" y2="263"/></g><!--MD5=[ac01b16d6187ba4b40605282b6b11df3]
reverse link dummyLeft to foo--><g id="link_dummyLeft_foo"><path codeLine="1" d="M113.435,139 C123.351,139 133.266,139 143.182,139 " fill="none" id="dummyLeft-backto-foo" style="stroke:#181818;stroke-width:1.0;"/><polygon fill="#181818" points="108.25,139,117.25,143,113.25,139,117.25,135,108.25,139" style="stroke:#181818;stroke-width:1.0;"/></g><!--MD5=[9f46f2d06dd08af488e3bc909dfa516f]
link foo to dummyRight--><g id="link_foo_dummyRight"><path codeLine="2" d="M195.781,139 C205.63,139 215.478,139 225.327,139 " fill="none" id="foo-to-dummyRight" style="stroke:#181818;stroke-width:1.0;"/><polygon fill="#181818" points="230.477,139,221.477,135,225.477,139,221.477,143,230.477,139" style="stroke:#181818;stroke-width:1.0;"/></g><!--MD5=[ce952bdc0ca7e1890a3901d6c5d1a78a]
reverse link dummyUp to foo--><g id="link_dummyUp_foo"><path codeLine="3" d="M169.5,60.131 C169.5,77.154 169.5,98.604 169.5,114.678 " fill="none" id="dummyUp-backto-foo" style="stroke:#181818;stroke-width:1.0;"/><polygon fill="#181818" points="169.5,55,165.5,64,169.5,60,173.5,64,169.5,55" style="stroke:#181818;stroke-width:1.0;"/></g><!--MD5=[f1a294ba749e3e7617528890654ecb27]
link foo to dummyDown--><g id="link_foo_dummyDown"><path codeLine="4" d="M169.5,163 C169.5,179.003 169.5,200.4461 169.5,217.528 " fill="none" id="foo-to-dummyDown" style="stroke:#181818;stroke-width:1.0;"/><polygon fill="#181818" points="169.5,222.6784,173.5,213.6784,169.5,217.6784,165.5,213.6784,169.5,222.6784" style="stroke:#181818;stroke-width:1.0;"/></g><!--MD5=[56bb6e5e2e5048db9ffb49c679f60a2f]
@startuml
foo -left-> dummyLeft 
foo -right-> dummyRight 
foo -up-> dummyUp 
foo -down-> dummyDown
@enduml

PlantUML version 1.2022.4(Sat Apr 09 21:29:17 CST 2022)
(GPL source distribution)
Java Runtime: Java(TM) SE Runtime Environment
JVM: Java HotSpot(TM) 64-Bit Server VM
Default Encoding: GBK
Language: zh
Country: CN
--></g></svg>