<?xml version="1.0" encoding="UTF-8" standalone="no"?><svg xmlns="http://www.w3.org/2000/svg" xmlns:xlink="http://www.w3.org/1999/xlink" contentStyleType="text/css" height="170px" preserveAspectRatio="none" style="width:199px;height:170px;background:#FFFFFF;" version="1.1" viewBox="0 0 199 170" width="199px" zoomAndPan="magnify"><defs/><g><!--MD5=[d218c48b946d362ff1ecd879cabebcad]
class Room--><g id="elem_Room"><rect fill="#F1F1F1" height="48" id="Room" rx="2.5" ry="2.5" style="stroke:#181818;stroke-width:0.5;" width="69" x="7" y="7"/><ellipse cx="22" cy="23" fill="#ADD1B2" rx="11" ry="11" style="stroke:#181818;stroke-width:1.0;"/><path d="M20.5781,28.3594 Q18.7188,28.3594 17.625,26.9688 Q16.5313,25.5781 16.5313,22.5938 Q16.5313,20.0625 17.6953,18.4063 Q18.8594,16.75 20.8438,16.75 Q22.3125,16.75 22.7813,16.875 Q23.25,17.0781 23.25,17.0781 Q23.25,17.0781 23.25,17.0078 Q23.25,16.9375 23.8594,16.0156 L24.9063,19.6719 L23.5781,20.0781 Q23.1094,18.5313 22.4453,17.8672 Q21.7813,17.2031 20.7188,17.2031 Q20.3281,17.2031 19.5625,18.7344 Q18.7969,20.2656 18.7969,22.5156 Q18.7969,24.9844 19.4609,26.375 Q20.125,27.7656 20.6563,27.7656 Q21.7188,27.7656 22.4766,27 Q23.2344,26.2344 23.5781,24.5781 L24.9063,25.1719 Q24.5781,26.5781 23.6797,27.4688 Q22.7813,28.3594 20.5781,28.3594 Z " fill="#000000"/><text fill="#000000" font-family="sans-serif" font-size="14" lengthAdjust="spacing" textLength="37" x="36" y="29.4839">Room</text><line style="stroke:#181818;stroke-width:0.5;" x1="8" x2="75" y1="39" y2="39"/><line style="stroke:#181818;stroke-width:0.5;" x1="8" x2="75" y1="47" y2="47"/></g><!--MD5=[d6181cb537bdc20c0a3007a98a56832d]
class Student--><g id="elem_Student"><rect fill="#F1F1F1" height="48" id="Student" rx="2.5" ry="2.5" style="stroke:#181818;stroke-width:0.5;" width="81" x="111" y="7"/><ellipse cx="126" cy="23" fill="#ADD1B2" rx="11" ry="11" style="stroke:#181818;stroke-width:1.0;"/><path d="M124.5781,28.3594 Q122.7188,28.3594 121.625,26.9688 Q120.5313,25.5781 120.5313,22.5938 Q120.5313,20.0625 121.6953,18.4063 Q122.8594,16.75 124.8438,16.75 Q126.3125,16.75 126.7813,16.875 Q127.25,17.0781 127.25,17.0781 Q127.25,17.0781 127.25,17.0078 Q127.25,16.9375 127.8594,16.0156 L128.9063,19.6719 L127.5781,20.0781 Q127.1094,18.5313 126.4453,17.8672 Q125.7813,17.2031 124.7188,17.2031 Q124.3281,17.2031 123.5625,18.7344 Q122.7969,20.2656 122.7969,22.5156 Q122.7969,24.9844 123.4609,26.375 Q124.125,27.7656 124.6563,27.7656 Q125.7188,27.7656 126.4766,27 Q127.2344,26.2344 127.5781,24.5781 L128.9063,25.1719 Q128.5781,26.5781 127.6797,27.4688 Q126.7813,28.3594 124.5781,28.3594 Z " fill="#000000"/><text fill="#000000" font-family="sans-serif" font-size="14" lengthAdjust="spacing" textLength="49" x="140" y="29.4839">Student</text><line style="stroke:#181818;stroke-width:0.5;" x1="112" x2="191" y1="39" y2="39"/><line style="stroke:#181818;stroke-width:0.5;" x1="112" x2="191" y1="47" y2="47"/></g><!--MD5=[d29c9a6f599273240dc5c7dc802fb3eb]
class Chair--><g id="elem_Chair"><rect fill="#F1F1F1" height="48" id="Chair" rx="2.5" ry="2.5" style="stroke:#181818;stroke-width:0.5;" width="66" x="8.5" y="115"/><ellipse cx="23.5" cy="131" fill="#ADD1B2" rx="11" ry="11" style="stroke:#181818;stroke-width:1.0;"/><path d="M22.0781,136.3594 Q20.2188,136.3594 19.125,134.9688 Q18.0313,133.5781 18.0313,130.5938 Q18.0313,128.0625 19.1953,126.4063 Q20.3594,124.75 22.3438,124.75 Q23.8125,124.75 24.2813,124.875 Q24.75,125.0781 24.75,125.0781 Q24.75,125.0781 24.75,125.0078 Q24.75,124.9375 25.3594,124.0156 L26.4063,127.6719 L25.0781,128.0781 Q24.6094,126.5313 23.9453,125.8672 Q23.2813,125.2031 22.2188,125.2031 Q21.8281,125.2031 21.0625,126.7344 Q20.2969,128.2656 20.2969,130.5156 Q20.2969,132.9844 20.9609,134.375 Q21.625,135.7656 22.1563,135.7656 Q23.2188,135.7656 23.9766,135 Q24.7344,134.2344 25.0781,132.5781 L26.4063,133.1719 Q26.0781,134.5781 25.1797,135.4688 Q24.2813,136.3594 22.0781,136.3594 Z " fill="#000000"/><text fill="#000000" font-family="sans-serif" font-size="14" lengthAdjust="spacing" textLength="34" x="37.5" y="137.4839">Chair</text><line style="stroke:#181818;stroke-width:0.5;" x1="9.5" x2="73.5" y1="147" y2="147"/><line style="stroke:#181818;stroke-width:0.5;" x1="9.5" x2="73.5" y1="155" y2="155"/></g><!--MD5=[d20d8e8d5383227d6c455ad4b7ce0dc8]
reverse link Room to Student--><g id="link_Room_Student"><path codeLine="1" d="M89.5731,31 C96.7037,31 103.8344,31 110.965,31 " fill="none" id="Room-backto-Student" style="stroke:#181818;stroke-width:1.0;"/><polygon fill="none" points="76.3047,31,82.3047,35,88.3047,31,82.3047,27,76.3047,31" style="stroke:#181818;stroke-width:1.0;"/></g><!--MD5=[2a69598203971254e9e56d9715aeb6c9]
reverse link Room to Chair--><g id="link_Room_Chair"><path codeLine="2" d="M41.5,68.3383 C41.5,83.6813 41.5,101.098 41.5,114.6784 " fill="none" id="Room-backto-Chair" style="stroke:#181818;stroke-width:1.0;"/><polygon fill="#181818" points="41.5,55,37.5,61,41.5,67,45.5,61,41.5,55" style="stroke:#181818;stroke-width:1.0;"/></g><!--MD5=[06ab663cd549b25f4e98eb93a9074b45]
@startuml
Room o- Student
Room *- - Chair
@enduml

PlantUML version 1.2022.4(Sat Apr 09 21:29:17 CST 2022)
(GPL source distribution)
Java Runtime: Java(TM) SE Runtime Environment
JVM: Java HotSpot(TM) 64-Bit Server VM
Default Encoding: GBK
Language: zh
Country: CN
--></g></svg>