<?xml version="1.0" encoding="UTF-8" standalone="no"?><svg xmlns="http://www.w3.org/2000/svg" xmlns:xlink="http://www.w3.org/1999/xlink" contentStyleType="text/css" height="115px" preserveAspectRatio="none" style="width:360px;height:115px;background:#FAEBD7;" version="1.1" viewBox="0 0 360 115" width="360px" zoomAndPan="magnify"><defs><linearGradient id="g1e73twiv8abdu0" x1="0%" x2="100%" y1="0%" y2="100%"><stop offset="0%" stop-color="#FAEBD7"/><stop offset="100%" stop-color="#FFD700"/></linearGradient><linearGradient id="g1e73twiv8abdu1" x1="0%" x2="100%" y1="0%" y2="100%"><stop offset="0%" stop-color="#ADFF2F"/><stop offset="100%" stop-color="#FAFAD2"/></linearGradient><linearGradient id="g1e73twiv8abdu2" x1="0%" x2="100%" y1="50%" y2="50%"><stop offset="0%" stop-color="#F5DEB3"/><stop offset="100%" stop-color="#6495ED"/></linearGradient><linearGradient id="g1e73twiv8abdu3" x1="50%" x2="50%" y1="0%" y2="100%"><stop offset="0%" stop-color="#FF0000"/><stop offset="100%" stop-color="#008000"/></linearGradient><linearGradient id="g1e73twiv8abdu4" x1="0%" x2="100%" y1="100%" y2="0%"><stop offset="0%" stop-color="#0000FF"/><stop offset="100%" stop-color="#9932CC"/></linearGradient></defs><g><rect fill="url(#g1e73twiv8abdu0)" height="115" style="stroke:none;stroke-width:1.0;" width="360" x="0" y="0"/><!--MD5=[a17f76d92a579d1a1e67299d1a2f9f08]
cluster example--><g id="cluster_example"><path d="M243.5,6 L303.5,6 A3.75,3.75 0 0 1 306,8.5 L313,31.1201 L350.5,31.1201 A2.5,2.5 0 0 1 353,33.6201 L353,105.5 A2.5,2.5 0 0 1 350.5,108 L243.5,108 A2.5,2.5 0 0 1 241,105.5 L241,8.5 A2.5,2.5 0 0 1 243.5,6 " fill="url(#g1e73twiv8abdu1)" style="stroke:#000000;stroke-width:1.5;"/><line style="stroke:#000000;stroke-width:1.5;" x1="241" x2="313" y1="31.1201" y2="31.1201"/><text fill="#000000" font-family="sans-serif" font-size="14" font-weight="bold" lengthAdjust="spacing" textLength="59" x="245" y="24.0439">example</text></g><!--MD5=[c54ba4f61d01a424743e5a1fa0f9e38e]
class Dummy--><g id="elem_Dummy"><rect codeLine="12" fill="url(#g1e73twiv8abdu2)" height="48" id="Dummy" rx="2.5" ry="2.5" style="stroke:#181818;stroke-width:0.5;" width="79" x="257.5" y="44"/><rect fill="url(#g1e73twiv8abdu2)" height="32" rx="2.5" ry="2.5" style="stroke:url(#g1e73twiv8abdu2);stroke-width:0.5;" width="79" x="257.5" y="44"/><rect fill="url(#g1e73twiv8abdu2)" height="2.5" style="stroke:url(#g1e73twiv8abdu2);stroke-width:0.5;" width="79" x="257.5" y="73.5"/><rect codeLine="12" fill="none" height="48" id="Dummy" rx="2.5" ry="2.5" style="stroke:#181818;stroke-width:0.5;" width="79" x="257.5" y="44"/><ellipse cx="272.5" cy="60" fill="#ADD1B2" rx="11" ry="11" style="stroke:#181818;stroke-width:1.0;"/><path d="M271.0781,65.3594 Q269.2188,65.3594 268.125,63.9688 Q267.0313,62.5781 267.0313,59.5938 Q267.0313,57.0625 268.1953,55.4063 Q269.3594,53.75 271.3438,53.75 Q272.8125,53.75 273.2813,53.875 Q273.75,54.0781 273.75,54.0781 Q273.75,54.0781 273.75,54.0078 Q273.75,53.9375 274.3594,53.0156 L275.4063,56.6719 L274.0781,57.0781 Q273.6094,55.5313 272.9453,54.8672 Q272.2813,54.2031 271.2188,54.2031 Q270.8281,54.2031 270.0625,55.7344 Q269.2969,57.2656 269.2969,59.5156 Q269.2969,61.9844 269.9609,63.375 Q270.625,64.7656 271.1563,64.7656 Q272.2188,64.7656 272.9766,64 Q273.7344,63.2344 274.0781,61.5781 L275.4063,62.1719 Q275.0781,63.5781 274.1797,64.4688 Q273.2813,65.3594 271.0781,65.3594 Z " fill="#000000"/><text fill="#000000" font-family="sans-serif" font-size="14" lengthAdjust="spacing" textLength="47" x="286.5" y="66.4839">Dummy</text><line style="stroke:#181818;stroke-width:0.5;" x1="258.5" x2="335.5" y1="76" y2="76"/><line style="stroke:#181818;stroke-width:0.5;" x1="258.5" x2="335.5" y1="84" y2="84"/></g><!--MD5=[d10371c429a20e8e62c953c705282488]
class Foo--><g id="elem_Foo"><rect codeLine="5" fill="url(#g1e73twiv8abdu3)" height="48" id="Foo" rx="2.5" ry="2.5" style="stroke:#181818;stroke-width:0.5;" width="57" x="165.5" y="44"/><ellipse cx="180.5" cy="60" fill="#ADD1B2" rx="11" ry="11" style="stroke:#181818;stroke-width:1.0;"/><path d="M179.0781,65.3594 Q177.2188,65.3594 176.125,63.9688 Q175.0313,62.5781 175.0313,59.5938 Q175.0313,57.0625 176.1953,55.4063 Q177.3594,53.75 179.3438,53.75 Q180.8125,53.75 181.2813,53.875 Q181.75,54.0781 181.75,54.0781 Q181.75,54.0781 181.75,54.0078 Q181.75,53.9375 182.3594,53.0156 L183.4063,56.6719 L182.0781,57.0781 Q181.6094,55.5313 180.9453,54.8672 Q180.2813,54.2031 179.2188,54.2031 Q178.8281,54.2031 178.0625,55.7344 Q177.2969,57.2656 177.2969,59.5156 Q177.2969,61.9844 177.9609,63.375 Q178.625,64.7656 179.1563,64.7656 Q180.2188,64.7656 180.9766,64 Q181.7344,63.2344 182.0781,61.5781 L183.4063,62.1719 Q183.0781,63.5781 182.1797,64.4688 Q181.2813,65.3594 179.0781,65.3594 Z " fill="#000000"/><text fill="#000000" font-family="sans-serif" font-size="14" lengthAdjust="spacing" textLength="25" x="194.5" y="66.4839">Foo</text><line style="stroke:#181818;stroke-width:0.5;" x1="166.5" x2="221.5" y1="76" y2="76"/><line style="stroke:#181818;stroke-width:0.5;" x1="166.5" x2="221.5" y1="84" y2="84"/></g><g id="elem_GMN3"><path d="M6,45 L6,90.5088 A0,0 0 0 0 6,90.5088 L130,90.5088 A0,0 0 0 0 130,90.5088 L130,72 L165.007,68 L130,64 L130,55 L120,45 L6,45 A0,0 0 0 0 6,45 " fill="url(#g1e73twiv8abdu4)" style="stroke:#181818;stroke-width:0.5;"/><path d="M120,45 L120,55 L130,55 L120,45 " fill="url(#g1e73twiv8abdu4)" style="stroke:#181818;stroke-width:0.5;"/><text fill="#000000" font-family="sans-serif" font-size="13" lengthAdjust="spacing" textLength="57" x="12" y="64.8979">this is my</text><text fill="#000000" font-family="sans-serif" font-size="13" lengthAdjust="spacing" textLength="103" x="12" y="82.6523">note on this class</text></g><!--MD5=[f5282621cd05434ceb968d92c35c4b9c]
@startuml

skinparam backgroundcolor AntiqueWhite/Gold
skinparam classBackgroundColor Wheat|CornflowerBlue

class Foo #red-green
note left of Foo #blue\9932CC
  this is my
  note on this class
end note

package example #GreenYellow/LightGoldenRodYellow {
  class Dummy
}

@enduml

PlantUML version 1.2022.4(Sat Apr 09 21:29:17 CST 2022)
(GPL source distribution)
Java Runtime: Java(TM) SE Runtime Environment
JVM: Java HotSpot(TM) 64-Bit Server VM
Default Encoding: GBK
Language: zh
Country: CN
--></g></svg>