<?xml version="1.0" encoding="UTF-8" standalone="no"?><svg xmlns="http://www.w3.org/2000/svg" xmlns:xlink="http://www.w3.org/1999/xlink" contentStyleType="text/css" height="145px" preserveAspectRatio="none" style="width:112px;height:145px;background:#FFFFFF;" version="1.1" viewBox="0 0 112 145" width="112px" zoomAndPan="magnify"><defs/><g><!--MD5=[c54ba4f61d01a424743e5a1fa0f9e38e]
class Dummy--><g id="elem_Dummy"><rect codeLine="2" fill="#F1F1F1" height="124.4805" id="Dummy" rx="2.5" ry="2.5" style="stroke:#181818;stroke-width:0.5;" width="91" x="7" y="7"/><ellipse cx="27.4" cy="23" fill="#ADD1B2" rx="11" ry="11" style="stroke:#181818;stroke-width:1.0;"/><path d="M25.9781,28.3594 Q24.1188,28.3594 23.025,26.9688 Q21.9313,25.5781 21.9313,22.5938 Q21.9313,20.0625 23.0953,18.4063 Q24.2594,16.75 26.2438,16.75 Q27.7125,16.75 28.1813,16.875 Q28.65,17.0781 28.65,17.0781 Q28.65,17.0781 28.65,17.0078 Q28.65,16.9375 29.2594,16.0156 L30.3063,19.6719 L28.9781,20.0781 Q28.5094,18.5313 27.8453,17.8672 Q27.1813,17.2031 26.1188,17.2031 Q25.7281,17.2031 24.9625,18.7344 Q24.1969,20.2656 24.1969,22.5156 Q24.1969,24.9844 24.8609,26.375 Q25.525,27.7656 26.0563,27.7656 Q27.1188,27.7656 27.8766,27 Q28.6344,26.2344 28.9781,24.5781 L30.3063,25.1719 Q29.9781,26.5781 29.0797,27.4688 Q28.1813,28.3594 25.9781,28.3594 Z " fill="#000000"/><text fill="#000000" font-family="sans-serif" font-size="14" lengthAdjust="spacing" textLength="47" x="42.6" y="29.4839">Dummy</text><line style="stroke:#181818;stroke-width:0.5;" x1="8" x2="97" y1="39" y2="39"/><rect fill="none" height="6" style="stroke:#C82930;stroke-width:1.0;" width="6" x="15" y="47"/><text fill="#000000" font-family="sans-serif" font-size="14" lengthAdjust="spacing" textLength="34" x="27" y="59.0439">field1</text><polygon fill="none" points="18,64.1201,22,68.1201,18,72.1201,14,68.1201" style="stroke:#B38D22;stroke-width:1.0;"/><text fill="#000000" font-family="sans-serif" font-size="14" lengthAdjust="spacing" textLength="34" x="27" y="78.1641">field2</text><line style="stroke:#181818;stroke-width:0.5;" x1="8" x2="97" y1="85.2402" y2="85.2402"/><polygon fill="#4177AF" points="18,92.2402,14,98.2402,22,98.2402" style="stroke:#1963A0;stroke-width:1.0;"/><text fill="#000000" font-family="sans-serif" font-size="14" lengthAdjust="spacing" textLength="65" x="27" y="105.2842">method1()</text><ellipse cx="18" cy="115.3604" fill="#84BE84" rx="3" ry="3" style="stroke:#038048;stroke-width:1.0;"/><text fill="#000000" font-family="sans-serif" font-size="14" lengthAdjust="spacing" textLength="65" x="27" y="124.4043">method2()</text></g><!--MD5=[b6dbc4290a9efde3032aa54226eb29a4]
@startuml

class Dummy {
 -field1
 #field2
 ~method1()
 +method2()
}

@enduml

PlantUML version 1.2022.4(Sat Apr 09 21:29:17 CST 2022)
(GPL source distribution)
Java Runtime: Java(TM) SE Runtime Environment
JVM: Java HotSpot(TM) 64-Bit Server VM
Default Encoding: GBK
Language: zh
Country: CN
--></g></svg>