<?xml version="1.0" encoding="UTF-8" standalone="no"?><svg xmlns="http://www.w3.org/2000/svg" xmlns:xlink="http://www.w3.org/1999/xlink" contentStyleType="text/css" height="231px" preserveAspectRatio="none" style="width:378px;height:231px;background:#FFFFFF;" version="1.1" viewBox="0 0 378 231" width="378px" zoomAndPan="magnify"><defs/><g><!--MD5=[5df30eedd3143d3ffddbe7845149d430]
class Together1--><g id="elem_Together1"><rect codeLine="5" fill="#F1F1F1" height="48" id="Together1" rx="2.5" ry="2.5" style="stroke:#181818;stroke-width:0.5;" width="98" x="7" y="7"/><ellipse cx="22" cy="23" fill="#ADD1B2" rx="11" ry="11" style="stroke:#181818;stroke-width:1.0;"/><path d="M20.5781,28.3594 Q18.7188,28.3594 17.625,26.9688 Q16.5313,25.5781 16.5313,22.5938 Q16.5313,20.0625 17.6953,18.4063 Q18.8594,16.75 20.8438,16.75 Q22.3125,16.75 22.7813,16.875 Q23.25,17.0781 23.25,17.0781 Q23.25,17.0781 23.25,17.0078 Q23.25,16.9375 23.8594,16.0156 L24.9063,19.6719 L23.5781,20.0781 Q23.1094,18.5313 22.4453,17.8672 Q21.7813,17.2031 20.7188,17.2031 Q20.3281,17.2031 19.5625,18.7344 Q18.7969,20.2656 18.7969,22.5156 Q18.7969,24.9844 19.4609,26.375 Q20.125,27.7656 20.6563,27.7656 Q21.7188,27.7656 22.4766,27 Q23.2344,26.2344 23.5781,24.5781 L24.9063,25.1719 Q24.5781,26.5781 23.6797,27.4688 Q22.7813,28.3594 20.5781,28.3594 Z " fill="#000000"/><text fill="#000000" font-family="sans-serif" font-size="14" lengthAdjust="spacing" textLength="66" x="36" y="29.4839">Together1</text><line style="stroke:#181818;stroke-width:0.5;" x1="8" x2="104" y1="39" y2="39"/><line style="stroke:#181818;stroke-width:0.5;" x1="8" x2="104" y1="47" y2="47"/></g><!--MD5=[48b4c2a78a3117d2c4984a51741476e0]
class Together2--><g id="elem_Together2"><rect codeLine="6" fill="#F1F1F1" height="48" id="Together2" rx="2.5" ry="2.5" style="stroke:#181818;stroke-width:0.5;" width="98" x="140" y="7"/><ellipse cx="155" cy="23" fill="#ADD1B2" rx="11" ry="11" style="stroke:#181818;stroke-width:1.0;"/><path d="M153.5781,28.3594 Q151.7188,28.3594 150.625,26.9688 Q149.5313,25.5781 149.5313,22.5938 Q149.5313,20.0625 150.6953,18.4063 Q151.8594,16.75 153.8438,16.75 Q155.3125,16.75 155.7813,16.875 Q156.25,17.0781 156.25,17.0781 Q156.25,17.0781 156.25,17.0078 Q156.25,16.9375 156.8594,16.0156 L157.9063,19.6719 L156.5781,20.0781 Q156.1094,18.5313 155.4453,17.8672 Q154.7813,17.2031 153.7188,17.2031 Q153.3281,17.2031 152.5625,18.7344 Q151.7969,20.2656 151.7969,22.5156 Q151.7969,24.9844 152.4609,26.375 Q153.125,27.7656 153.6563,27.7656 Q154.7188,27.7656 155.4766,27 Q156.2344,26.2344 156.5781,24.5781 L157.9063,25.1719 Q157.5781,26.5781 156.6797,27.4688 Q155.7813,28.3594 153.5781,28.3594 Z " fill="#000000"/><text fill="#000000" font-family="sans-serif" font-size="14" lengthAdjust="spacing" textLength="66" x="169" y="29.4839">Together2</text><line style="stroke:#181818;stroke-width:0.5;" x1="141" x2="237" y1="39" y2="39"/><line style="stroke:#181818;stroke-width:0.5;" x1="141" x2="237" y1="47" y2="47"/></g><!--MD5=[ee88f9fbc4af7328800dd94691dbd380]
class Together3--><g id="elem_Together3"><rect codeLine="7" fill="#F1F1F1" height="48" id="Together3" rx="2.5" ry="2.5" style="stroke:#181818;stroke-width:0.5;" width="98" x="273" y="7"/><ellipse cx="288" cy="23" fill="#ADD1B2" rx="11" ry="11" style="stroke:#181818;stroke-width:1.0;"/><path d="M286.5781,28.3594 Q284.7188,28.3594 283.625,26.9688 Q282.5313,25.5781 282.5313,22.5938 Q282.5313,20.0625 283.6953,18.4063 Q284.8594,16.75 286.8438,16.75 Q288.3125,16.75 288.7813,16.875 Q289.25,17.0781 289.25,17.0781 Q289.25,17.0781 289.25,17.0078 Q289.25,16.9375 289.8594,16.0156 L290.9063,19.6719 L289.5781,20.0781 Q289.1094,18.5313 288.4453,17.8672 Q287.7813,17.2031 286.7188,17.2031 Q286.3281,17.2031 285.5625,18.7344 Q284.7969,20.2656 284.7969,22.5156 Q284.7969,24.9844 285.4609,26.375 Q286.125,27.7656 286.6563,27.7656 Q287.7188,27.7656 288.4766,27 Q289.2344,26.2344 289.5781,24.5781 L290.9063,25.1719 Q290.5781,26.5781 289.6797,27.4688 Q288.7813,28.3594 286.5781,28.3594 Z " fill="#000000"/><text fill="#000000" font-family="sans-serif" font-size="14" lengthAdjust="spacing" textLength="66" x="302" y="29.4839">Together3</text><line style="stroke:#181818;stroke-width:0.5;" x1="274" x2="370" y1="39" y2="39"/><line style="stroke:#181818;stroke-width:0.5;" x1="274" x2="370" y1="47" y2="47"/></g><!--MD5=[9309b92a624b41a9b14058ed535bfdef]
class Bar1--><g id="elem_Bar1"><rect codeLine="2" fill="#F1F1F1" height="48" id="Bar1" rx="2.5" ry="2.5" style="stroke:#181818;stroke-width:0.5;" width="62" x="158" y="176"/><ellipse cx="173" cy="192" fill="#ADD1B2" rx="11" ry="11" style="stroke:#181818;stroke-width:1.0;"/><path d="M171.5781,197.3594 Q169.7188,197.3594 168.625,195.9688 Q167.5313,194.5781 167.5313,191.5938 Q167.5313,189.0625 168.6953,187.4063 Q169.8594,185.75 171.8438,185.75 Q173.3125,185.75 173.7813,185.875 Q174.25,186.0781 174.25,186.0781 Q174.25,186.0781 174.25,186.0078 Q174.25,185.9375 174.8594,185.0156 L175.9063,188.6719 L174.5781,189.0781 Q174.1094,187.5313 173.4453,186.8672 Q172.7813,186.2031 171.7188,186.2031 Q171.3281,186.2031 170.5625,187.7344 Q169.7969,189.2656 169.7969,191.5156 Q169.7969,193.9844 170.4609,195.375 Q171.125,196.7656 171.6563,196.7656 Q172.7188,196.7656 173.4766,196 Q174.2344,195.2344 174.5781,193.5781 L175.9063,194.1719 Q175.5781,195.5781 174.6797,196.4688 Q173.7813,197.3594 171.5781,197.3594 Z " fill="#000000"/><text fill="#000000" font-family="sans-serif" font-size="14" lengthAdjust="spacing" textLength="30" x="187" y="198.4839">Bar1</text><line style="stroke:#181818;stroke-width:0.5;" x1="159" x2="219" y1="208" y2="208"/><line style="stroke:#181818;stroke-width:0.5;" x1="159" x2="219" y1="216" y2="216"/></g><!--MD5=[47c62c72fb0f480816627df6bfd59287]
class Bar2--><g id="elem_Bar2"><rect codeLine="3" fill="#F1F1F1" height="48" id="Bar2" rx="2.5" ry="2.5" style="stroke:#181818;stroke-width:0.5;" width="62" x="255" y="176"/><ellipse cx="270" cy="192" fill="#ADD1B2" rx="11" ry="11" style="stroke:#181818;stroke-width:1.0;"/><path d="M268.5781,197.3594 Q266.7188,197.3594 265.625,195.9688 Q264.5313,194.5781 264.5313,191.5938 Q264.5313,189.0625 265.6953,187.4063 Q266.8594,185.75 268.8438,185.75 Q270.3125,185.75 270.7813,185.875 Q271.25,186.0781 271.25,186.0781 Q271.25,186.0781 271.25,186.0078 Q271.25,185.9375 271.8594,185.0156 L272.9063,188.6719 L271.5781,189.0781 Q271.1094,187.5313 270.4453,186.8672 Q269.7813,186.2031 268.7188,186.2031 Q268.3281,186.2031 267.5625,187.7344 Q266.7969,189.2656 266.7969,191.5156 Q266.7969,193.9844 267.4609,195.375 Q268.125,196.7656 268.6563,196.7656 Q269.7188,196.7656 270.4766,196 Q271.2344,195.2344 271.5781,193.5781 L272.9063,194.1719 Q272.5781,195.5781 271.6797,196.4688 Q270.7813,197.3594 268.5781,197.3594 Z " fill="#000000"/><text fill="#000000" font-family="sans-serif" font-size="14" lengthAdjust="spacing" textLength="30" x="284" y="198.4839">Bar2</text><line style="stroke:#181818;stroke-width:0.5;" x1="256" x2="316" y1="208" y2="208"/><line style="stroke:#181818;stroke-width:0.5;" x1="256" x2="316" y1="216" y2="216"/></g><!--MD5=[df9118eda639853ad40d51770d27c7f9]
link Together1 to Together2--><g id="link_Together1_Together2"><path codeLine="9" d="M105.096,31 C116.676,31 128.257,31 139.837,31 " fill="none" id="Together1-Together2" style="stroke:#181818;stroke-width:1.0;"/></g><!--MD5=[4eb1e55769478d34f6e44703396bb46d]
link Together2 to Together3--><g id="link_Together2_Together3"><path codeLine="10" d="M238.096,31 C249.676,31 261.257,31 272.837,31 " fill="none" id="Together2-Together3" style="stroke:#181818;stroke-width:1.0;"/></g><!--MD5=[15019db8bf9021c0479d8b5b677de8fa]
link Together2 to Bar1--><!--MD5=[27fad07632e2676888ecf2833f4b0a42]
link Bar1 to Bar2--><!--MD5=[57288cc186b8271aa9aba5987fb61d7d]
@startuml

class Bar1
class Bar2
together {
  class Together1
  class Together2
  class Together3
}
Together1 - Together2
Together2 - Together3
Together2 -[hidden]- -> Bar1
Bar1 -[hidden]> Bar2


@enduml

PlantUML version 1.2022.4(Sat Apr 09 21:29:17 CST 2022)
(GPL source distribution)
Java Runtime: Java(TM) SE Runtime Environment
JVM: Java HotSpot(TM) 64-Bit Server VM
Default Encoding: GBK
Language: zh
Country: CN
--></g></svg>