<?xml version="1.0" encoding="UTF-8" standalone="no"?><svg xmlns="http://www.w3.org/2000/svg" xmlns:xlink="http://www.w3.org/1999/xlink" contentStyleType="text/css" height="205px" preserveAspectRatio="none" style="width:244px;height:205px;background:#FFFFFF;" version="1.1" viewBox="0 0 244 205" width="244px" zoomAndPan="magnify"><defs/><g><!--MD5=[c0da8a8ef1573589a8e6c56a64cf368e]
class Dummy1--><g id="elem_Dummy1"><rect codeLine="2" fill="#F1F1F1" height="59.1201" id="Dummy1" rx="2.5" ry="2.5" style="stroke:#181818;stroke-width:0.5;" width="108" x="7" y="7"/><ellipse cx="31.45" cy="23" fill="#ADD1B2" rx="11" ry="11" style="stroke:#181818;stroke-width:1.0;"/><path d="M30.0281,28.3594 Q28.1688,28.3594 27.075,26.9688 Q25.9813,25.5781 25.9813,22.5938 Q25.9813,20.0625 27.1453,18.4063 Q28.3094,16.75 30.2938,16.75 Q31.7625,16.75 32.2313,16.875 Q32.7,17.0781 32.7,17.0781 Q32.7,17.0781 32.7,17.0078 Q32.7,16.9375 33.3094,16.0156 L34.3563,19.6719 L33.0281,20.0781 Q32.5594,18.5313 31.8953,17.8672 Q31.2313,17.2031 30.1688,17.2031 Q29.7781,17.2031 29.0125,18.7344 Q28.2469,20.2656 28.2469,22.5156 Q28.2469,24.9844 28.9109,26.375 Q29.575,27.7656 30.1063,27.7656 Q31.1688,27.7656 31.9266,27 Q32.6844,26.2344 33.0281,24.5781 L34.3563,25.1719 Q34.0281,26.5781 33.1297,27.4688 Q32.2313,28.3594 30.0281,28.3594 Z " fill="#000000"/><text fill="#000000" font-family="sans-serif" font-size="14" lengthAdjust="spacing" textLength="55" x="47.55" y="29.4839">Dummy1</text><line style="stroke:#181818;stroke-width:0.5;" x1="8" x2="114" y1="39" y2="39"/><ellipse cx="18" cy="50" fill="#84BE84" rx="3" ry="3" style="stroke:#038048;stroke-width:1.0;"/><text fill="#000000" font-family="sans-serif" font-size="14" lengthAdjust="spacing" textLength="82" x="27" y="59.0439">myMethods()</text></g><!--MD5=[686a9624dace5cdb350a4826e10ff494]
class Dummy2--><g id="elem_Dummy2"><rect codeLine="6" fill="#F1F1F1" height="32" id="Dummy2" rx="2.5" ry="2.5" style="stroke:#181818;stroke-width:0.5;" width="87" x="150.5" y="20.5"/><ellipse cx="165.5" cy="36.5" fill="#ADD1B2" rx="11" ry="11" style="stroke:#181818;stroke-width:1.0;"/><path d="M164.0781,41.8594 Q162.2188,41.8594 161.125,40.4688 Q160.0313,39.0781 160.0313,36.0938 Q160.0313,33.5625 161.1953,31.9063 Q162.3594,30.25 164.3438,30.25 Q165.8125,30.25 166.2813,30.375 Q166.75,30.5781 166.75,30.5781 Q166.75,30.5781 166.75,30.5078 Q166.75,30.4375 167.3594,29.5156 L168.4063,33.1719 L167.0781,33.5781 Q166.6094,32.0313 165.9453,31.3672 Q165.2813,30.7031 164.2188,30.7031 Q163.8281,30.7031 163.0625,32.2344 Q162.2969,33.7656 162.2969,36.0156 Q162.2969,38.4844 162.9609,39.875 Q163.625,41.2656 164.1563,41.2656 Q165.2188,41.2656 165.9766,40.5 Q166.7344,39.7344 167.0781,38.0781 L168.4063,38.6719 Q168.0781,40.0781 167.1797,40.9688 Q166.2813,41.8594 164.0781,41.8594 Z " fill="#000000"/><text fill="#000000" font-family="sans-serif" font-size="14" lengthAdjust="spacing" textLength="55" x="179.5" y="42.9839">Dummy2</text></g><!--MD5=[03f3c499bdbff3e936d41b31aeae136d]
class Dummy3--><g id="elem_Dummy3"><rect codeLine="10" fill="#F1F1F1" height="72.6289" id="Dummy3" rx="2.5" ry="2.5" style="stroke:#181818;stroke-width:0.5;" width="88" x="17" y="126"/><text fill="#000000" font-family="sans-serif" font-size="12" font-style="italic" lengthAdjust="spacing" textLength="81" x="20.5" y="144.752">«Serializable»</text><text fill="#000000" font-family="sans-serif" font-size="14" lengthAdjust="spacing" textLength="55" x="33.5" y="163.4326">Dummy3</text><line style="stroke:#181818;stroke-width:0.5;" x1="18" x2="104" y1="171.5088" y2="171.5088"/><text fill="#000000" font-family="sans-serif" font-size="14" lengthAdjust="spacing" textLength="76" x="23" y="191.5527">String name</text></g><!--MD5=[30c823f78b74695d85ef7b8cc96ccfe1]
@startuml

class Dummy1 {
  +myMethods()
}

class Dummy2 {
  +hiddenMethod()
}

class Dummy3 <<Serializable>> {
	String name
}

hide members
hide <<Serializable>> circle
show Dummy1 methods
show <<Serializable>> fields

@enduml

PlantUML version 1.2022.4(Sat Apr 09 21:29:17 CST 2022)
(GPL source distribution)
Java Runtime: Java(TM) SE Runtime Environment
JVM: Java HotSpot(TM) 64-Bit Server VM
Default Encoding: GBK
Language: zh
Country: CN
--></g></svg>