<?xml version="1.0" encoding="UTF-8" standalone="no"?><svg xmlns="http://www.w3.org/2000/svg" xmlns:xlink="http://www.w3.org/1999/xlink" contentStyleType="text/css" height="170px" preserveAspectRatio="none" style="width:79px;height:170px;background:#FFFFFF;" version="1.1" viewBox="0 0 79 170" width="79px" zoomAndPan="magnify"><defs/><g><!--MD5=[4272a0a1957754cd214430d460c5f4ca]
class Foo1--><g id="elem_Foo1"><rect codeLine="2" fill="#F1F1F1" height="48" id="Foo1" rx="2.5" ry="2.5" style="stroke:#181818;stroke-width:0.5;" width="65" x="7" y="115"/><ellipse cx="22" cy="131" fill="#ADD1B2" rx="11" ry="11" style="stroke:#181818;stroke-width:1.0;"/><path d="M20.5781,136.3594 Q18.7188,136.3594 17.625,134.9688 Q16.5313,133.5781 16.5313,130.5938 Q16.5313,128.0625 17.6953,126.4063 Q18.8594,124.75 20.8438,124.75 Q22.3125,124.75 22.7813,124.875 Q23.25,125.0781 23.25,125.0781 Q23.25,125.0781 23.25,125.0078 Q23.25,124.9375 23.8594,124.0156 L24.9063,127.6719 L23.5781,128.0781 Q23.1094,126.5313 22.4453,125.8672 Q21.7813,125.2031 20.7188,125.2031 Q20.3281,125.2031 19.5625,126.7344 Q18.7969,128.2656 18.7969,130.5156 Q18.7969,132.9844 19.4609,134.375 Q20.125,135.7656 20.6563,135.7656 Q21.7188,135.7656 22.4766,135 Q23.2344,134.2344 23.5781,132.5781 L24.9063,133.1719 Q24.5781,134.5781 23.6797,135.4688 Q22.7813,136.3594 20.5781,136.3594 Z " fill="#000000"/><text fill="#000000" font-family="sans-serif" font-size="14" lengthAdjust="spacing" textLength="33" x="36" y="137.4839">Foo1</text><line style="stroke:#181818;stroke-width:0.5;" x1="8" x2="71" y1="147" y2="147"/><line style="stroke:#181818;stroke-width:0.5;" x1="8" x2="71" y1="155" y2="155"/></g><!--MD5=[6c8c18b8d4fa3298c600fc3f82908513]
class Foo2--><!--MD5=[030293e57decd6f37a46863902556d9b]
reverse link Foo2 to Foo1--><!--MD5=[f4b002ac3319c7ba2997b8ece394e58a]
@startuml

class Foo1
class Foo2

Foo2 *- - Foo1

hide Foo2

@enduml

PlantUML version 1.2022.4(Sat Apr 09 21:29:17 CST 2022)
(GPL source distribution)
Java Runtime: Java(TM) SE Runtime Environment
JVM: Java HotSpot(TM) 64-Bit Server VM
Default Encoding: GBK
Language: zh
Country: CN
--></g></svg>