<?xml version="1.0" encoding="UTF-8" standalone="no"?><svg xmlns="http://www.w3.org/2000/svg" xmlns:xlink="http://www.w3.org/1999/xlink" contentStyleType="text/css" height="189px" preserveAspectRatio="none" style="width:380px;height:189px;background:#FFFFFF;" version="1.1" viewBox="0 0 380 189" width="380px" zoomAndPan="magnify"><defs/><g><!--MD5=[3f0ef310aaa84a542276992c5216544d]
class Car--><g id="elem_Car"><rect codeLine="1" fill="#F1F1F1" height="48" id="Car" rx="2.5" ry="2.5" style="stroke:#181818;stroke-width:0.5;" width="55" x="159.5" y="7"/><ellipse cx="174.5" cy="23" fill="#ADD1B2" rx="11" ry="11" style="stroke:#181818;stroke-width:1.0;"/><path d="M173.0781,28.3594 Q171.2188,28.3594 170.125,26.9688 Q169.0313,25.5781 169.0313,22.5938 Q169.0313,20.0625 170.1953,18.4063 Q171.3594,16.75 173.3438,16.75 Q174.8125,16.75 175.2813,16.875 Q175.75,17.0781 175.75,17.0781 Q175.75,17.0781 175.75,17.0078 Q175.75,16.9375 176.3594,16.0156 L177.4063,19.6719 L176.0781,20.0781 Q175.6094,18.5313 174.9453,17.8672 Q174.2813,17.2031 173.2188,17.2031 Q172.8281,17.2031 172.0625,18.7344 Q171.2969,20.2656 171.2969,22.5156 Q171.2969,24.9844 171.9609,26.375 Q172.625,27.7656 173.1563,27.7656 Q174.2188,27.7656 174.9766,27 Q175.7344,26.2344 176.0781,24.5781 L177.4063,25.1719 Q177.0781,26.5781 176.1797,27.4688 Q175.2813,28.3594 173.0781,28.3594 Z " fill="#000000"/><text fill="#000000" font-family="sans-serif" font-size="14" lengthAdjust="spacing" textLength="23" x="188.5" y="29.4839">Car</text><line style="stroke:#181818;stroke-width:0.5;" x1="160.5" x2="213.5" y1="39" y2="39"/><line style="stroke:#181818;stroke-width:0.5;" x1="160.5" x2="213.5" y1="47" y2="47"/></g><!--MD5=[eee9d396a8aca12c6c152931e8dc1ab6]
class Driver--><g id="elem_Driver"><rect fill="#F1F1F1" height="48" id="Driver" rx="2.5" ry="2.5" style="stroke:#181818;stroke-width:0.5;" width="70" x="7" y="7"/><ellipse cx="22" cy="23" fill="#ADD1B2" rx="11" ry="11" style="stroke:#181818;stroke-width:1.0;"/><path d="M20.5781,28.3594 Q18.7188,28.3594 17.625,26.9688 Q16.5313,25.5781 16.5313,22.5938 Q16.5313,20.0625 17.6953,18.4063 Q18.8594,16.75 20.8438,16.75 Q22.3125,16.75 22.7813,16.875 Q23.25,17.0781 23.25,17.0781 Q23.25,17.0781 23.25,17.0078 Q23.25,16.9375 23.8594,16.0156 L24.9063,19.6719 L23.5781,20.0781 Q23.1094,18.5313 22.4453,17.8672 Q21.7813,17.2031 20.7188,17.2031 Q20.3281,17.2031 19.5625,18.7344 Q18.7969,20.2656 18.7969,22.5156 Q18.7969,24.9844 19.4609,26.375 Q20.125,27.7656 20.6563,27.7656 Q21.7188,27.7656 22.4766,27 Q23.2344,26.2344 23.5781,24.5781 L24.9063,25.1719 Q24.5781,26.5781 23.6797,27.4688 Q22.7813,28.3594 20.5781,28.3594 Z " fill="#000000"/><text fill="#000000" font-family="sans-serif" font-size="14" lengthAdjust="spacing" textLength="38" x="36" y="29.4839">Driver</text><line style="stroke:#181818;stroke-width:0.5;" x1="8" x2="76" y1="39" y2="39"/><line style="stroke:#181818;stroke-width:0.5;" x1="8" x2="76" y1="47" y2="47"/></g><!--MD5=[63ed6a0a2dfd613875880437a5e2b06e]
class Wheel--><g id="elem_Wheel"><rect fill="#F1F1F1" height="48" id="Wheel" rx="2.5" ry="2.5" style="stroke:#181818;stroke-width:0.5;" width="72" x="301" y="7"/><ellipse cx="316" cy="23" fill="#ADD1B2" rx="11" ry="11" style="stroke:#181818;stroke-width:1.0;"/><path d="M314.5781,28.3594 Q312.7188,28.3594 311.625,26.9688 Q310.5313,25.5781 310.5313,22.5938 Q310.5313,20.0625 311.6953,18.4063 Q312.8594,16.75 314.8438,16.75 Q316.3125,16.75 316.7813,16.875 Q317.25,17.0781 317.25,17.0781 Q317.25,17.0781 317.25,17.0078 Q317.25,16.9375 317.8594,16.0156 L318.9063,19.6719 L317.5781,20.0781 Q317.1094,18.5313 316.4453,17.8672 Q315.7813,17.2031 314.7188,17.2031 Q314.3281,17.2031 313.5625,18.7344 Q312.7969,20.2656 312.7969,22.5156 Q312.7969,24.9844 313.4609,26.375 Q314.125,27.7656 314.6563,27.7656 Q315.7188,27.7656 316.4766,27 Q317.2344,26.2344 317.5781,24.5781 L318.9063,25.1719 Q318.5781,26.5781 317.6797,27.4688 Q316.7813,28.3594 314.5781,28.3594 Z " fill="#000000"/><text fill="#000000" font-family="sans-serif" font-size="14" lengthAdjust="spacing" textLength="40" x="330" y="29.4839">Wheel</text><line style="stroke:#181818;stroke-width:0.5;" x1="302" x2="372" y1="39" y2="39"/><line style="stroke:#181818;stroke-width:0.5;" x1="302" x2="372" y1="47" y2="47"/></g><!--MD5=[09ce52be0ee7de43c61b6e2d59bf108b]
class Person--><g id="elem_Person"><rect fill="#F1F1F1" height="48" id="Person" rx="2.5" ry="2.5" style="stroke:#181818;stroke-width:0.5;" width="77" x="148.5" y="134"/><ellipse cx="163.5" cy="150" fill="#ADD1B2" rx="11" ry="11" style="stroke:#181818;stroke-width:1.0;"/><path d="M162.0781,155.3594 Q160.2188,155.3594 159.125,153.9688 Q158.0313,152.5781 158.0313,149.5938 Q158.0313,147.0625 159.1953,145.4063 Q160.3594,143.75 162.3438,143.75 Q163.8125,143.75 164.2813,143.875 Q164.75,144.0781 164.75,144.0781 Q164.75,144.0781 164.75,144.0078 Q164.75,143.9375 165.3594,143.0156 L166.4063,146.6719 L165.0781,147.0781 Q164.6094,145.5313 163.9453,144.8672 Q163.2813,144.2031 162.2188,144.2031 Q161.8281,144.2031 161.0625,145.7344 Q160.2969,147.2656 160.2969,149.5156 Q160.2969,151.9844 160.9609,153.375 Q161.625,154.7656 162.1563,154.7656 Q163.2188,154.7656 163.9766,154 Q164.7344,153.2344 165.0781,151.5781 L166.4063,152.1719 Q166.0781,153.5781 165.1797,154.4688 Q164.2813,155.3594 162.0781,155.3594 Z " fill="#000000"/><text fill="#000000" font-family="sans-serif" font-size="14" lengthAdjust="spacing" textLength="45" x="177.5" y="156.4839">Person</text><line style="stroke:#181818;stroke-width:0.5;" x1="149.5" x2="224.5" y1="166" y2="166"/><line style="stroke:#181818;stroke-width:0.5;" x1="149.5" x2="224.5" y1="174" y2="174"/></g><!--MD5=[85884a73f707af3ae230d559cad4fc2c]
link Driver to Car--><g id="link_Driver_Car"><path codeLine="3" d="M77.1005,31 C102.4125,31 136.1,31 159.476,31 " fill="none" id="Driver-Car" style="stroke:#181818;stroke-width:1.0;"/><polygon fill="#000000" points="104.25,18.8772,95.2049,15.9383,95.2049,21.8161,104.25,18.8772" style="stroke:#000000;stroke-width:1.0;"/><text fill="#000000" font-family="sans-serif" font-size="13" lengthAdjust="spacing" textLength="33" x="108.25" y="24.8979">drives</text></g><!--MD5=[6190aadcc963d15c02367c0199cc5452]
reverse link Car to Wheel--><g id="link_Car_Wheel"><path codeLine="4" d="M227.602,31 C250.474,31 278.794,31 300.889,31 " fill="none" id="Car-backto-Wheel" style="stroke:#181818;stroke-width:1.0;"/><polygon fill="#181818" points="214.512,31,220.512,35,226.512,31,220.512,27,214.512,31" style="stroke:#181818;stroke-width:1.0;"/><polygon fill="#000000" points="241.75,18.8772,232.7049,15.9383,232.7049,21.8161,241.75,18.8772" style="stroke:#000000;stroke-width:1.0;"/><text fill="#000000" font-family="sans-serif" font-size="13" lengthAdjust="spacing" textLength="37" x="245.75" y="24.8979">have 4</text></g><!--MD5=[2800f28b8e2a8d078fc1fa2e2aa6715e]
link Car to Person--><g id="link_Car_Person"><path codeLine="5" d="M187,55.219 C187,77.671 187,111.4959 187,133.9058 " fill="none" id="Car-Person" style="stroke:#181818;stroke-width:1.0;"/><polygon fill="#000000" points="192,89.8772,189.0611,98.9223,194.9389,98.9223,192,89.8772" style="stroke:#000000;stroke-width:1.0;"/><text fill="#000000" font-family="sans-serif" font-size="13" lengthAdjust="spacing" textLength="30" x="201" y="100.8979">owns</text></g><!--MD5=[e6f809918ff75e4e362e093e5e916918]
@startuml
class Car

Driver - Car : drives >
Car *- Wheel : have 4 >
Car - - Person : < owns

@enduml

PlantUML version 1.2022.4(Sat Apr 09 21:29:17 CST 2022)
(GPL source distribution)
Java Runtime: Java(TM) SE Runtime Environment
JVM: Java HotSpot(TM) 64-Bit Server VM
Default Encoding: GBK
Language: zh
Country: CN
--></g></svg>