<?xml version="1.0" encoding="UTF-8" standalone="no"?><svg xmlns="http://www.w3.org/2000/svg" xmlns:xlink="http://www.w3.org/1999/xlink" contentStyleType="text/css" height="62px" preserveAspectRatio="none" style="width:115px;height:62px;background:#FFFFFF;" version="1.1" viewBox="0 0 115 62" width="115px" zoomAndPan="magnify"><defs/><g><!--MD5=[a7341930b10dc4f5414e3bba4c3f8ca3]
class foo--><g id="elem_foo"><rect codeLine="1" fill="#F1F1F1" height="48" id="foo" rx="2.5" ry="2.5" style="stroke:#181818;stroke-width:0.5;" width="52" x="56.5" y="7"/><ellipse cx="71.5" cy="23" fill="#ADD1B2" rx="11" ry="11" style="stroke:#181818;stroke-width:1.0;"/><path d="M70.0781,28.3594 Q68.2188,28.3594 67.125,26.9688 Q66.0313,25.5781 66.0313,22.5938 Q66.0313,20.0625 67.1953,18.4063 Q68.3594,16.75 70.3438,16.75 Q71.8125,16.75 72.2813,16.875 Q72.75,17.0781 72.75,17.0781 Q72.75,17.0781 72.75,17.0078 Q72.75,16.9375 73.3594,16.0156 L74.4063,19.6719 L73.0781,20.0781 Q72.6094,18.5313 71.9453,17.8672 Q71.2813,17.2031 70.2188,17.2031 Q69.8281,17.2031 69.0625,18.7344 Q68.2969,20.2656 68.2969,22.5156 Q68.2969,24.9844 68.9609,26.375 Q69.625,27.7656 70.1563,27.7656 Q71.2188,27.7656 71.9766,27 Q72.7344,26.2344 73.0781,24.5781 L74.4063,25.1719 Q74.0781,26.5781 73.1797,27.4688 Q72.2813,28.3594 70.0781,28.3594 Z " fill="#000000"/><text fill="#000000" font-family="sans-serif" font-size="14" lengthAdjust="spacing" textLength="20" x="85.5" y="29.4839">foo</text><line style="stroke:#181818;stroke-width:0.5;" x1="57.5" x2="107.5" y1="39" y2="39"/><line style="stroke:#181818;stroke-width:0.5;" x1="57.5" x2="107.5" y1="47" y2="47"/></g><g id="elem_foolol3"><ellipse cx="16.5" cy="31" fill="#F1F1F1" rx="5" ry="5" style="stroke:#181818;stroke-width:1.5;"/></g><text fill="#000000" font-family="sans-serif" font-size="14" lengthAdjust="spacing" textLength="21" x="6" y="52.0439">bar</text><!--MD5=[0dc640485abe3ecbc200e2c35cb9b06f]
link foolol3 to foo--><g id="link_foolol3_foo"><path d="M21.6563,31 C33.2229,31 44.7896,31 56.3562,31 " fill="none" id="foolol3-foo" style="stroke:#181818;stroke-width:1.0;"/></g><!--MD5=[c31bcada357cc00c2d7c009a6673cc74]
@startuml
class foo
bar ()- foo
@enduml

PlantUML version 1.2022.4(Sat Apr 09 21:29:17 CST 2022)
(GPL source distribution)
Java Runtime: Java(TM) SE Runtime Environment
JVM: Java HotSpot(TM) 64-Bit Server VM
Default Encoding: GBK
Language: zh
Country: CN
--></g></svg>