<?xml version="1.0" encoding="UTF-8" standalone="no"?><svg xmlns="http://www.w3.org/2000/svg" xmlns:xlink="http://www.w3.org/1999/xlink" contentStyleType="text/css" height="205px" preserveAspectRatio="none" style="width:716px;height:205px;background:#FFFFFF;" version="1.1" viewBox="0 0 716 205" width="716px" zoomAndPan="magnify"><defs/><g><!--MD5=[d10371c429a20e8e62c953c705282488]
class Foo--><g id="elem_Foo"><rect codeLine="2" fill="#F1F1F1" height="48" id="Foo" rx="2.5" ry="2.5" style="stroke:#181818;stroke-width:0.5;" width="57" x="184" y="24"/><ellipse cx="199" cy="40" fill="#ADD1B2" rx="11" ry="11" style="stroke:#181818;stroke-width:1.0;"/><path d="M197.5781,45.3594 Q195.7188,45.3594 194.625,43.9688 Q193.5313,42.5781 193.5313,39.5938 Q193.5313,37.0625 194.6953,35.4063 Q195.8594,33.75 197.8438,33.75 Q199.3125,33.75 199.7813,33.875 Q200.25,34.0781 200.25,34.0781 Q200.25,34.0781 200.25,34.0078 Q200.25,33.9375 200.8594,33.0156 L201.9063,36.6719 L200.5781,37.0781 Q200.1094,35.5313 199.4453,34.8672 Q198.7813,34.2031 197.7188,34.2031 Q197.3281,34.2031 196.5625,35.7344 Q195.7969,37.2656 195.7969,39.5156 Q195.7969,41.9844 196.4609,43.375 Q197.125,44.7656 197.6563,44.7656 Q198.7188,44.7656 199.4766,44 Q200.2344,43.2344 200.5781,41.5781 L201.9063,42.1719 Q201.5781,43.5781 200.6797,44.4688 Q199.7813,45.3594 197.5781,45.3594 Z " fill="#000000"/><text fill="#000000" font-family="sans-serif" font-size="14" lengthAdjust="spacing" textLength="25" x="213" y="46.4839">Foo</text><line style="stroke:#181818;stroke-width:0.5;" x1="185" x2="240" y1="56" y2="56"/><line style="stroke:#181818;stroke-width:0.5;" x1="185" x2="240" y1="64" y2="64"/></g><g id="elem_GMN3"><path d="M6,34 L6,61.7544 A0,0 0 0 0 6,61.7544 L149,61.7544 A0,0 0 0 0 149,61.7544 L149,52 L183.826,48 L149,44 L149,44 L139,34 L6,34 A0,0 0 0 0 6,34 " fill="#FEFFDD" style="stroke:#181818;stroke-width:0.5;"/><path d="M139,34 L139,44 L149,44 L139,34 " fill="#FEFFDD" style="stroke:#181818;stroke-width:0.5;"/><text fill="#000000" font-family="sans-serif" font-size="13" lengthAdjust="spacing" textLength="122" x="12" y="53.8979">On last defined class</text></g><!--MD5=[aa7f586532e18719e6cefa70fc650583]
class Object--><g id="elem_Object"><rect fill="#F1F1F1" height="48" id="Object" rx="2.5" ry="2.5" style="stroke:#181818;stroke-width:0.5;" width="73" x="312" y="150"/><ellipse cx="327" cy="166" fill="#ADD1B2" rx="11" ry="11" style="stroke:#181818;stroke-width:1.0;"/><path d="M325.5781,171.3594 Q323.7188,171.3594 322.625,169.9688 Q321.5313,168.5781 321.5313,165.5938 Q321.5313,163.0625 322.6953,161.4063 Q323.8594,159.75 325.8438,159.75 Q327.3125,159.75 327.7813,159.875 Q328.25,160.0781 328.25,160.0781 Q328.25,160.0781 328.25,160.0078 Q328.25,159.9375 328.8594,159.0156 L329.9063,162.6719 L328.5781,163.0781 Q328.1094,161.5313 327.4453,160.8672 Q326.7813,160.2031 325.7188,160.2031 Q325.3281,160.2031 324.5625,161.7344 Q323.7969,163.2656 323.7969,165.5156 Q323.7969,167.9844 324.4609,169.375 Q325.125,170.7656 325.6563,170.7656 Q326.7188,170.7656 327.4766,170 Q328.2344,169.2344 328.5781,167.5781 L329.9063,168.1719 Q329.5781,169.5781 328.6797,170.4688 Q327.7813,171.3594 325.5781,171.3594 Z " fill="#000000"/><text fill="#000000" font-family="sans-serif" font-size="14" lengthAdjust="spacing" textLength="41" x="341" y="172.4839">Object</text><line style="stroke:#181818;stroke-width:0.5;" x1="313" x2="384" y1="182" y2="182"/><line style="stroke:#181818;stroke-width:0.5;" x1="313" x2="384" y1="190" y2="190"/></g><g id="elem_GMN7"><path d="M276.5,13 L276.5,83.0918 A0,0 0 0 0 276.5,83.0918 L344.5,83.0918 L348.5,149.8719 L352.5,83.0918 L420.5,83.0918 A0,0 0 0 0 420.5,83.0918 L420.5,23 L410.5,13 L276.5,13 A0,0 0 0 0 276.5,13 " fill="#FEFFDD" style="stroke:#181818;stroke-width:0.5;"/><path d="M410.5,13 L410.5,23 L420.5,23 L410.5,13 " fill="#FEFFDD" style="stroke:#181818;stroke-width:0.5;"/><text fill="#000000" font-family="sans-serif" font-size="13" lengthAdjust="spacing" textLength="40" x="282.5" y="39.7266">In java,</text><text fill="#000000" font-family="sans-serif" font-size="18" lengthAdjust="spacing" textLength="44" x="326.5" y="38.6279">every</text><text fill="#000000" font-family="sans-serif" font-size="13" lengthAdjust="spacing" textLength="4" x="370.5" y="39.7266"> </text><text fill="#000000" font-family="sans-serif" font-size="13" lengthAdjust="spacing" text-decoration="underline" textLength="31" x="374.5" y="39.7266">class</text><text fill="#000000" font-family="sans-serif" font-size="13" font-weight="bold" lengthAdjust="spacing" textLength="50" x="282.5" y="57.481">extends</text><text fill="#000000" font-family="sans-serif" font-size="13" font-style="italic" lengthAdjust="spacing" textLength="21" x="282.5" y="75.2354">this</text><text fill="#000000" font-family="sans-serif" font-size="13" lengthAdjust="spacing" textLength="25" x="307.5" y="75.2354">one.</text></g><g id="elem_N1"><path d="M456,6 L456,89.5112 L709,89.5112 L709,16 L699,6 L456,6 " fill="#FEFFDD" style="stroke:#181818;stroke-width:0.5;"/><path d="M699,6 L699,16 L709,16 L699,6 " fill="#FEFFDD" style="stroke:#181818;stroke-width:1.0;"/><text fill="#000000" font-family="sans-serif" font-size="13" lengthAdjust="spacing" textLength="67" x="462" y="25.8979">This note is</text><text fill="#000000" font-family="sans-serif" font-size="13" lengthAdjust="spacing" text-decoration="underline" textLength="24" x="533" y="25.8979">also</text><text fill="#4169E1" font-family="sans-serif" font-size="13" font-weight="bold" lengthAdjust="spacing" textLength="66" x="462" y="43.6523">on several</text><text fill="#000000" font-family="sans-serif" font-size="13" lengthAdjust="spacing" text-decoration="line-through" textLength="34" x="462" y="61.4067">words</text><text fill="#000000" font-family="sans-serif" font-size="13" lengthAdjust="spacing" textLength="27" x="500" y="61.4067">lines</text><text fill="#000000" font-family="sans-serif" font-size="13" lengthAdjust="spacing" textLength="123" x="462" y="81.6548">And this is hosted by</text><text fill="#000000" font-family="monospace" font-size="14" lengthAdjust="spacing" textLength="105" x="589" y="80.3071">(Cannot decode)</text></g><!--MD5=[ac1d8e483ffcc21637ec17cbed78a656]
@startuml

class Foo
note left: On last defined class

note top of Object
  In java, <size:18>every</size> <u>class</u>
  <b>extends</b>
  <i>this</i> one.
end note

note as N1
  This note is <u>also</u>
  <b><color:royalBlue>on several</color>
  <s>words</s> lines
  And this is hosted by <img:sourceforge.jpg>
end note

@enduml

PlantUML version 1.2022.4(Sat Apr 09 21:29:17 CST 2022)
(GPL source distribution)
Java Runtime: Java(TM) SE Runtime Environment
JVM: Java HotSpot(TM) 64-Bit Server VM
Default Encoding: GBK
Language: zh
Country: CN
--></g></svg>