<?xml version="1.0" encoding="UTF-8" standalone="no"?><svg xmlns="http://www.w3.org/2000/svg" xmlns:xlink="http://www.w3.org/1999/xlink" contentStyleType="text/css" height="227px" preserveAspectRatio="none" style="width:438px;height:227px;background:#FFFFFF;" version="1.1" viewBox="0 0 438 227" width="438px" zoomAndPan="magnify"><defs/><g><!--MD5=[c54ba4f61d01a424743e5a1fa0f9e38e]
class Dummy--><g id="elem_Dummy"><rect codeLine="2" fill="#F1F1F1" height="48" id="Dummy" rx="2.5" ry="2.5" style="stroke:#181818;stroke-width:0.5;" width="79" x="75" y="7"/><ellipse cx="90" cy="23" fill="#ADD1B2" rx="11" ry="11" style="stroke:#181818;stroke-width:1.0;"/><path d="M88.5781,28.3594 Q86.7188,28.3594 85.625,26.9688 Q84.5313,25.5781 84.5313,22.5938 Q84.5313,20.0625 85.6953,18.4063 Q86.8594,16.75 88.8438,16.75 Q90.3125,16.75 90.7813,16.875 Q91.25,17.0781 91.25,17.0781 Q91.25,17.0781 91.25,17.0078 Q91.25,16.9375 91.8594,16.0156 L92.9063,19.6719 L91.5781,20.0781 Q91.1094,18.5313 90.4453,17.8672 Q89.7813,17.2031 88.7188,17.2031 Q88.3281,17.2031 87.5625,18.7344 Q86.7969,20.2656 86.7969,22.5156 Q86.7969,24.9844 87.4609,26.375 Q88.125,27.7656 88.6563,27.7656 Q89.7188,27.7656 90.4766,27 Q91.2344,26.2344 91.5781,24.5781 L92.9063,25.1719 Q92.5781,26.5781 91.6797,27.4688 Q90.7813,28.3594 88.5781,28.3594 Z " fill="#000000"/><text fill="#000000" font-family="sans-serif" font-size="14" lengthAdjust="spacing" textLength="47" x="104" y="29.4839">Dummy</text><line style="stroke:#181818;stroke-width:0.5;" x1="76" x2="153" y1="39" y2="39"/><line style="stroke:#181818;stroke-width:0.5;" x1="76" x2="153" y1="47" y2="47"/></g><!--MD5=[d10371c429a20e8e62c953c705282488]
class Foo--><g id="elem_Foo"><rect fill="#F1F1F1" height="48" id="Foo" rx="2.5" ry="2.5" style="stroke:#181818;stroke-width:0.5;" width="57" x="7" y="172"/><ellipse cx="22" cy="188" fill="#ADD1B2" rx="11" ry="11" style="stroke:#181818;stroke-width:1.0;"/><path d="M20.5781,193.3594 Q18.7188,193.3594 17.625,191.9688 Q16.5313,190.5781 16.5313,187.5938 Q16.5313,185.0625 17.6953,183.4063 Q18.8594,181.75 20.8438,181.75 Q22.3125,181.75 22.7813,181.875 Q23.25,182.0781 23.25,182.0781 Q23.25,182.0781 23.25,182.0078 Q23.25,181.9375 23.8594,181.0156 L24.9063,184.6719 L23.5781,185.0781 Q23.1094,183.5313 22.4453,182.8672 Q21.7813,182.2031 20.7188,182.2031 Q20.3281,182.2031 19.5625,183.7344 Q18.7969,185.2656 18.7969,187.5156 Q18.7969,189.9844 19.4609,191.375 Q20.125,192.7656 20.6563,192.7656 Q21.7188,192.7656 22.4766,192 Q23.2344,191.2344 23.5781,189.5781 L24.9063,190.1719 Q24.5781,191.5781 23.6797,192.4688 Q22.7813,193.3594 20.5781,193.3594 Z " fill="#000000"/><text fill="#000000" font-family="sans-serif" font-size="14" lengthAdjust="spacing" textLength="25" x="36" y="194.4839">Foo</text><line style="stroke:#181818;stroke-width:0.5;" x1="8" x2="63" y1="204" y2="204"/><line style="stroke:#181818;stroke-width:0.5;" x1="8" x2="63" y1="212" y2="212"/></g><!--MD5=[6c8c18b8d4fa3298c600fc3f82908513]
class Foo2--><g id="elem_Foo2"><rect fill="#F1F1F1" height="48" id="Foo2" rx="2.5" ry="2.5" style="stroke:#181818;stroke-width:0.5;" width="65" x="161" y="172"/><ellipse cx="176" cy="188" fill="#ADD1B2" rx="11" ry="11" style="stroke:#181818;stroke-width:1.0;"/><path d="M174.5781,193.3594 Q172.7188,193.3594 171.625,191.9688 Q170.5313,190.5781 170.5313,187.5938 Q170.5313,185.0625 171.6953,183.4063 Q172.8594,181.75 174.8438,181.75 Q176.3125,181.75 176.7813,181.875 Q177.25,182.0781 177.25,182.0781 Q177.25,182.0781 177.25,182.0078 Q177.25,181.9375 177.8594,181.0156 L178.9063,184.6719 L177.5781,185.0781 Q177.1094,183.5313 176.4453,182.8672 Q175.7813,182.2031 174.7188,182.2031 Q174.3281,182.2031 173.5625,183.7344 Q172.7969,185.2656 172.7969,187.5156 Q172.7969,189.9844 173.4609,191.375 Q174.125,192.7656 174.6563,192.7656 Q175.7188,192.7656 176.4766,192 Q177.2344,191.2344 177.5781,189.5781 L178.9063,190.1719 Q178.5781,191.5781 177.6797,192.4688 Q176.7813,193.3594 174.5781,193.3594 Z " fill="#000000"/><text fill="#000000" font-family="sans-serif" font-size="14" lengthAdjust="spacing" textLength="33" x="190" y="194.4839">Foo2</text><line style="stroke:#181818;stroke-width:0.5;" x1="162" x2="225" y1="204" y2="204"/><line style="stroke:#181818;stroke-width:0.5;" x1="162" x2="225" y1="212" y2="212"/></g><!--MD5=[d76d18aa41993d91eba7c1d001801f01]
link Dummy to Foo--><g id="link_Dummy_Foo"><path codeLine="3" d="M74.8985,47.389 C58.7079,55.879 41.6579,68.177 32.5,85 C18.8284,110.115 22.1696,143.4658 27.303,166.8357 " fill="none" id="Dummy-to-Foo" style="stroke:#181818;stroke-width:1.0;"/><polygon fill="#181818" points="28.4919,171.9589,30.3536,162.2876,27.3615,167.0884,22.5607,164.0963,28.4919,171.9589" style="stroke:#181818;stroke-width:1.0;"/><text fill="#000000" font-family="sans-serif" font-size="13" lengthAdjust="spacing" textLength="33" x="75" y="100.8979">A link</text><path d="M37.5,109.7544 L37.5,136.7544 L145.5,136.7544 L145.5,119.7544 L135.5,109.7544 L37.5,109.7544 " fill="#FEFFDD" style="stroke:#181818;stroke-width:0.5;"/><path d="M135.5,109.7544 L135.5,119.7544 L145.5,119.7544 L135.5,109.7544 " fill="#FEFFDD" style="stroke:#181818;stroke-width:0.5;"/><text fill="#000000" font-family="sans-serif" font-size="13" lengthAdjust="spacing" textLength="87" x="43.5" y="129.6523">note that is red</text></g><!--MD5=[44c5d7c7a374be28da000d8b4a09b677]
link Dummy to Foo2--><g id="link_Dummy_Foo2"><path codeLine="6" d="M134.462,55.222 C141.447,64.128 148.929,74.645 154.5,85 C168.691,111.376 179.497,143.9676 186.096,166.8026 " fill="none" id="Dummy-to-Foo2" style="stroke:#181818;stroke-width:1.0;"/><polygon fill="#181818" points="187.52,171.8094,188.9038,162.0582,186.1514,167.0003,181.2093,164.248,187.52,171.8094" style="stroke:#181818;stroke-width:1.0;"/><text fill="#000000" font-family="sans-serif" font-size="13" lengthAdjust="spacing" textLength="69" x="178.5" y="119.7751">Another link</text><path d="M253.5,91 L253.5,136 L431.5,136 L431.5,101 L421.5,91 L253.5,91 " fill="#FEFFDD" style="stroke:#181818;stroke-width:0.5;"/><path d="M421.5,91 L421.5,101 L431.5,101 L421.5,91 " fill="#FEFFDD" style="stroke:#181818;stroke-width:0.5;"/><text fill="#000000" font-family="sans-serif" font-size="13" lengthAdjust="spacing" textLength="157" x="259.5" y="110.8979">this is my note on right link</text><text fill="#000000" font-family="sans-serif" font-size="13" lengthAdjust="spacing" textLength="63" x="259.5" y="128.6523">and in blue</text></g><!--MD5=[7168b901e6e74ec6b33705ab7382563d]
@startuml

class Dummy
Dummy - -> Foo : A link
note on link #red: note that is red

Dummy - -> Foo2 : Another link
note right on link #blue
	this is my note on right link
	and in blue
end note

@enduml

PlantUML version 1.2022.4(Sat Apr 09 21:29:17 CST 2022)
(GPL source distribution)
Java Runtime: Java(TM) SE Runtime Environment
JVM: Java HotSpot(TM) 64-Bit Server VM
Default Encoding: GBK
Language: zh
Country: CN
--></g></svg>