<?xml version="1.0" encoding="UTF-8" standalone="no"?><svg xmlns="http://www.w3.org/2000/svg" xmlns:xlink="http://www.w3.org/1999/xlink" contentStyleType="text/css" height="398px" preserveAspectRatio="none" style="width:592px;height:398px;background:#FFFFFF;" version="1.1" viewBox="0 0 592 398" width="592px" zoomAndPan="magnify"><defs/><g><!--MD5=[aa7f586532e18719e6cefa70fc650583]
class Object--><g id="elem_Object"><rect codeLine="1" fill="#F1F1F1" height="61.5088" id="Object" rx="2.5" ry="2.5" style="stroke:#181818;stroke-width:0.5;" width="84" x="299.5" y="115"/><ellipse cx="314.5" cy="137.7544" fill="#ADD1B2" rx="11" ry="11" style="stroke:#181818;stroke-width:1.0;"/><path d="M313.0781,143.1138 Q311.2188,143.1138 310.125,141.7231 Q309.0313,140.3325 309.0313,137.3481 Q309.0313,134.8169 310.1953,133.1606 Q311.3594,131.5044 313.3438,131.5044 Q314.8125,131.5044 315.2813,131.6294 Q315.75,131.8325 315.75,131.8325 Q315.75,131.8325 315.75,131.7622 Q315.75,131.6919 316.3594,130.77 L317.4063,134.4263 L316.0781,134.8325 Q315.6094,133.2856 314.9453,132.6216 Q314.2813,131.9575 313.2188,131.9575 Q312.8281,131.9575 312.0625,133.4888 Q311.2969,135.02 311.2969,137.27 Q311.2969,139.7388 311.9609,141.1294 Q312.625,142.52 313.1563,142.52 Q314.2188,142.52 314.9766,141.7544 Q315.7344,140.9888 316.0781,139.3325 L317.4063,139.9263 Q317.0781,141.3325 316.1797,142.2231 Q315.2813,143.1138 313.0781,143.1138 Z " fill="#000000"/><text fill="#000000" font-family="sans-serif" font-size="12" font-style="italic" lengthAdjust="spacing" textLength="56" x="326.5" y="133.752">«general»</text><text fill="#000000" font-family="sans-serif" font-size="14" lengthAdjust="spacing" textLength="41" x="334" y="152.4326">Object</text><line style="stroke:#181818;stroke-width:0.5;" x1="300.5" x2="382.5" y1="160.5088" y2="160.5088"/><line style="stroke:#181818;stroke-width:0.5;" x1="300.5" x2="382.5" y1="168.5088" y2="168.5088"/></g><!--MD5=[ab8871ed637f40707b866ba6597734bc]
class ArrayList--><g id="elem_ArrayList"><rect fill="#F1F1F1" height="48" id="ArrayList" rx="2.5" ry="2.5" style="stroke:#181818;stroke-width:0.5;" width="88" x="297.5" y="343"/><ellipse cx="312.5" cy="359" fill="#ADD1B2" rx="11" ry="11" style="stroke:#181818;stroke-width:1.0;"/><path d="M311.0781,364.3594 Q309.2188,364.3594 308.125,362.9688 Q307.0313,361.5781 307.0313,358.5938 Q307.0313,356.0625 308.1953,354.4063 Q309.3594,352.75 311.3438,352.75 Q312.8125,352.75 313.2813,352.875 Q313.75,353.0781 313.75,353.0781 Q313.75,353.0781 313.75,353.0078 Q313.75,352.9375 314.3594,352.0156 L315.4063,355.6719 L314.0781,356.0781 Q313.6094,354.5313 312.9453,353.8672 Q312.2813,353.2031 311.2188,353.2031 Q310.8281,353.2031 310.0625,354.7344 Q309.2969,356.2656 309.2969,358.5156 Q309.2969,360.9844 309.9609,362.375 Q310.625,363.7656 311.1563,363.7656 Q312.2188,363.7656 312.9766,363 Q313.7344,362.2344 314.0781,360.5781 L315.4063,361.1719 Q315.0781,362.5781 314.1797,363.4688 Q313.2813,364.3594 311.0781,364.3594 Z " fill="#000000"/><text fill="#000000" font-family="sans-serif" font-size="14" lengthAdjust="spacing" textLength="56" x="326.5" y="365.4839">ArrayList</text><line style="stroke:#181818;stroke-width:0.5;" x1="298.5" x2="384.5" y1="375" y2="375"/><line style="stroke:#181818;stroke-width:0.5;" x1="298.5" x2="384.5" y1="383" y2="383"/></g><g id="elem_GMN5"><path d="M276.5,8 L276.5,53.5088 A0,0 0 0 0 276.5,53.5088 L337.5,53.5088 L341.5,114.877 L345.5,53.5088 L406.5,53.5088 A0,0 0 0 0 406.5,53.5088 L406.5,18 L396.5,8 L276.5,8 A0,0 0 0 0 276.5,8 " fill="#FEFFDD" style="stroke:#181818;stroke-width:0.5;"/><path d="M396.5,8 L396.5,18 L406.5,18 L396.5,8 " fill="#FEFFDD" style="stroke:#181818;stroke-width:0.5;"/><text fill="#000000" font-family="sans-serif" font-size="13" lengthAdjust="spacing" textLength="109" x="282.5" y="27.8979">In java, every class</text><text fill="#000000" font-family="sans-serif" font-size="13" lengthAdjust="spacing" textLength="100" x="282.5" y="45.6523">extends this one.</text></g><g id="elem_N1"><path d="M441.5,17 L441.5,44.7544 L585.5,44.7544 L585.5,27 L575.5,17 L441.5,17 " fill="#FEFFDD" style="stroke:#181818;stroke-width:0.5;"/><path d="M575.5,17 L575.5,27 L585.5,27 L575.5,17 " fill="#FEFFDD" style="stroke:#181818;stroke-width:1.0;"/><text fill="#000000" font-family="sans-serif" font-size="13" lengthAdjust="spacing" textLength="123" x="447.5" y="36.8979">This is a floating note</text></g><g id="elem_N2"><path d="M330.5,237 L330.5,282.5088 L482.5,282.5088 L482.5,247 L472.5,237 L330.5,237 " fill="#FEFFDD" style="stroke:#181818;stroke-width:0.5;"/><path d="M472.5,237 L472.5,247 L482.5,247 L472.5,237 " fill="#FEFFDD" style="stroke:#181818;stroke-width:1.0;"/><text fill="#000000" font-family="sans-serif" font-size="13" lengthAdjust="spacing" textLength="131" x="336.5" y="256.8979">This note is connected</text><text fill="#000000" font-family="sans-serif" font-size="13" lengthAdjust="spacing" textLength="105" x="336.5" y="274.6523">to several objects.</text></g><!--MD5=[d10371c429a20e8e62c953c705282488]
class Foo--><g id="elem_Foo"><rect codeLine="11" fill="#F1F1F1" height="48" id="Foo" rx="2.5" ry="2.5" style="stroke:#181818;stroke-width:0.5;" width="57" x="184" y="7"/><ellipse cx="199" cy="23" fill="#ADD1B2" rx="11" ry="11" style="stroke:#181818;stroke-width:1.0;"/><path d="M197.5781,28.3594 Q195.7188,28.3594 194.625,26.9688 Q193.5313,25.5781 193.5313,22.5938 Q193.5313,20.0625 194.6953,18.4063 Q195.8594,16.75 197.8438,16.75 Q199.3125,16.75 199.7813,16.875 Q200.25,17.0781 200.25,17.0781 Q200.25,17.0781 200.25,17.0078 Q200.25,16.9375 200.8594,16.0156 L201.9063,19.6719 L200.5781,20.0781 Q200.1094,18.5313 199.4453,17.8672 Q198.7813,17.2031 197.7188,17.2031 Q197.3281,17.2031 196.5625,18.7344 Q195.7969,20.2656 195.7969,22.5156 Q195.7969,24.9844 196.4609,26.375 Q197.125,27.7656 197.6563,27.7656 Q198.7188,27.7656 199.4766,27 Q200.2344,26.2344 200.5781,24.5781 L201.9063,25.1719 Q201.5781,26.5781 200.6797,27.4688 Q199.7813,28.3594 197.5781,28.3594 Z " fill="#000000"/><text fill="#000000" font-family="sans-serif" font-size="14" lengthAdjust="spacing" textLength="25" x="213" y="29.4839">Foo</text><line style="stroke:#181818;stroke-width:0.5;" x1="185" x2="240" y1="39" y2="39"/><line style="stroke:#181818;stroke-width:0.5;" x1="185" x2="240" y1="47" y2="47"/></g><g id="elem_GMN13"><path d="M6,17 L6,44.7544 A0,0 0 0 0 6,44.7544 L149,44.7544 A0,0 0 0 0 149,44.7544 L149,35 L183.826,31 L149,27 L149,27 L139,17 L6,17 A0,0 0 0 0 6,17 " fill="#FEFFDD" style="stroke:#181818;stroke-width:0.5;"/><path d="M139,17 L139,27 L149,27 L139,17 " fill="#FEFFDD" style="stroke:#181818;stroke-width:0.5;"/><text fill="#000000" font-family="sans-serif" font-size="13" lengthAdjust="spacing" textLength="122" x="12" y="36.8979">On last defined class</text></g><!--MD5=[78ed3d54c6ad96fb6434a4e45aa4b5f0]
reverse link Object to ArrayList--><g id="link_Object_ArrayList"><path codeLine="2" d="M323.172,196.504 C319.174,209.498 315.533,223.623 313.5,237 C310.428,257.212 310.189,262.825 313.5,283 C316.924,303.8594 324.884,326.5365 331.446,342.9076 " fill="none" id="Object-backto-ArrayList" style="stroke:#181818;stroke-width:1.0;"/><polygon fill="none" points="316.61,194.051,329.568,177.285,329.894,198.472,316.61,194.051" style="stroke:#181818;stroke-width:1.0;"/></g><!--MD5=[3e4c2ab897744bf32c2b923a407c86d6]
link Object to N2--><g id="link_Object_N2"><path codeLine="8" d="M358.919,177.014 C369.824,195.805 383.641,219.612 393.572,236.724 " fill="none" id="Object-N2" style="stroke:#181818;stroke-width:1.0;stroke-dasharray:7.0,7.0;"/></g><!--MD5=[5a614eaa38e8d197576af088f89b713e]
link N2 to ArrayList--><g id="link_N2_ArrayList"><path codeLine="9" d="M392.874,283.011 C382.004,300.571 366.823,325.0942 355.783,342.9269 " fill="none" id="N2-ArrayList" style="stroke:#181818;stroke-width:1.0;stroke-dasharray:7.0,7.0;"/></g><!--MD5=[4efe236f422d883db04ddae5fb53c67e]
@startuml
class Object << general >>
Object <|- - - ArrayList

note top of Object : In java, every class\nextends this one.

note "This is a floating note" as N1
note "This note is connected\nto several objects." as N2
Object .. N2
N2 .. ArrayList

class Foo
note left: On last defined class

@enduml

PlantUML version 1.2022.4(Sat Apr 09 21:29:17 CST 2022)
(GPL source distribution)
Java Runtime: Java(TM) SE Runtime Environment
JVM: Java HotSpot(TM) 64-Bit Server VM
Default Encoding: GBK
Language: zh
Country: CN
--></g></svg>