<?xml version="1.0" encoding="UTF-8" standalone="no"?><svg xmlns="http://www.w3.org/2000/svg" xmlns:xlink="http://www.w3.org/1999/xlink" contentStyleType="text/css" height="131.25px" preserveAspectRatio="none" style="width:750px;height:131px;background:#FFFFFF;" version="1.1" viewBox="0 0 750 131" width="750.9375px" zoomAndPan="magnify"><defs/><g><!--MD5=[70b59617d19c80bf7c340a7f3163d54c]
cluster foo1--><g id="cluster_foo1"><polygon points="15,24.375,24.375,15,116.25,15,116.25,105.9375,106.875,115.3125,15,115.3125,15,24.375" style="stroke:#181818;stroke-width:0.9375;fill:none;"/><line style="stroke:#181818;stroke-width:0.9375;fill:none;" x1="106.875" x2="116.25" y1="24.375" y2="15"/><line style="stroke:#181818;stroke-width:0.9375;fill:none;" x1="15" x2="106.875" y1="24.375" y2="24.375"/><line style="stroke:#181818;stroke-width:0.9375;fill:none;" x1="106.875" x2="106.875" y1="24.375" y2="115.3125"/><text fill="#000000" font-family="sans-serif" font-size="13.125" font-weight="bold" lengthAdjust="spacing" textLength="29.0625" x="47.3438" y="42.2287">foo1</text></g><!--MD5=[69bafa93f6d577e15cecc3ba47f3ccf6]
cluster foo2--><g id="cluster_foo2"><rect height="95.625" rx="2.3438" ry="2.3438" style="stroke:#181818;stroke-width:0.9375;fill:none;" width="101.25" x="138.75" y="19.6875"/><text fill="#000000" font-family="sans-serif" font-size="13.125" font-weight="bold" lengthAdjust="spacing" textLength="29.0625" x="174.8438" y="36.6037">foo2</text></g><!--MD5=[d220670f1f041e4b70b6949b895ad63a]
cluster foo3--><g id="cluster_foo3"><path d="M264.8438,19.6875 L294.8438,19.6875 A3.5156,3.5156 0 0 1 297.1875,22.0313 L303.75,43.2376 L361.4063,43.2376 A2.3438,2.3438 0 0 1 363.75,45.5814 L363.75,112.9688 A2.3438,2.3438 0 0 1 361.4063,115.3125 L264.8438,115.3125 A2.3438,2.3438 0 0 1 262.5,112.9688 L262.5,22.0313 A2.3438,2.3438 0 0 1 264.8438,19.6875 " style="stroke:#000000;stroke-width:1.40625;fill:none;"/><line style="stroke:#000000;stroke-width:1.40625;fill:none;" x1="262.5" x2="303.75" y1="43.2376" y2="43.2376"/><text fill="#000000" font-family="sans-serif" font-size="13.125" font-weight="bold" lengthAdjust="spacing" textLength="29.0625" x="266.25" y="36.6037">foo3</text></g><!--MD5=[8cfc67fbdac55c843b65406732b290e1]
cluster foo4--><g id="cluster_foo4"><rect height="95.625" rx="2.3438" ry="2.3438" style="stroke:#181818;stroke-width:0.9375;fill:none;" width="101.25" x="386.25" y="19.6875"/><path d="M424.6875,19.6875 L424.6875,31.0501 L415.3125,40.4251 L386.25,40.4251 " fill="none" style="stroke:#181818;stroke-width:0.9375;"/><text fill="#000000" font-family="sans-serif" font-size="13.125" font-weight="bold" lengthAdjust="spacing" textLength="29.0625" x="389.0625" y="35.6662">foo4</text></g><!--MD5=[f066f1cee520bf839ab1271cb89fc1a5]
cluster foo5--><g id="cluster_foo5"><path d="M524.4893,29.213 C527.4859,22.3579 533.2481,21.7893 538.2964,26.8323 C540.9486,21.3062 544.9668,21.3718 548.5636,25.8643 C552.113,19.2504 558.3751,20.4501 561.3533,26.4437 C565.7232,20.2033 571.5111,20.855 574.8133,27.5543 C578.1926,21.9764 582.5884,22.1685 585.872,27.65 C593.5216,22.0349 601.8644,22.4716 603.75,33.75 C603.7861,33.7427 603.8041,33.7671 603.788,33.7997 C610.409,37.0962 612.1612,40.8528 606.0894,46.4572 C610.7816,49.8375 611.8671,54.2695 606.2671,57.8108 C612.9853,61.0155 611.9024,64.8956 607.6259,69.3904 C611.7926,72.9473 611.0169,76.6777 606.118,78.7784 C611.2632,82.5687 612.5546,88.09 605.9168,91.6968 C610.6003,100.8067 607.05,106.5816 597.1875,107.8125 C597.4743,107.3973 597.7272,107.4647 597.9847,107.842 C596.7241,113.536 591.5046,116.2175 586.6019,112.043 C584.1245,119.657 580.0439,119.2803 574.4664,115.2831 C571.5748,121.3851 566.7338,123.1801 561.7869,117.4938 C556.5306,122.5024 551.7782,121.2721 548.5045,115.1318 C542.7493,118.3791 539.2353,117.1206 537.4177,110.6429 C526.1624,117.4474 519.7718,113.4952 517.5,101.25 C517.5881,101.1771 517.6472,101.2009 517.6721,101.3098 C511.7364,98.6595 511.4147,95.1927 516.3772,91.153 C510.1555,89.1683 508.6804,85.8107 512.9935,80.4846 C505.4558,78.0909 504.8028,72.8113 510.533,67.8365 C505.5973,63.1717 507.3933,58.7517 513.4937,57.1422 C508.3352,51.6725 509.859,47.5113 516.6458,45.1926 C508.8907,36.3816 512.8761,28.196 524.0625,27.1875 C525.0443,27.717 525.2269,28.3213 524.4893,29.213 " style="stroke:#181818;stroke-width:0.9375;fill:none;"/><text fill="#000000" font-family="sans-serif" font-size="13.125" font-weight="bold" lengthAdjust="spacing" textLength="29.0625" x="546.0938" y="46.9162">foo5</text></g><!--MD5=[d00e5b8f14b49092f5a3c4f8fbc2fcad]
cluster foo6--><g id="cluster_foo6"><path d="M633.75,15 C633.75,5.625 684.375,5.625 684.375,5.625 C684.375,5.625 735,5.625 735,15 L735,105.9375 C735,115.3125 684.375,115.3125 684.375,115.3125 C684.375,115.3125 633.75,115.3125 633.75,105.9375 L633.75,15 " style="stroke:#181818;stroke-width:0.9375;fill:none;"/><path d="M633.75,15 C633.75,24.375 684.375,24.375 684.375,24.375 C684.375,24.375 735,24.375 735,15 " fill="none" style="stroke:#181818;stroke-width:0.9375;"/><text fill="#000000" font-family="sans-serif" font-size="13.125" font-weight="bold" lengthAdjust="spacing" textLength="29.0625" x="669.8438" y="41.2912">foo6</text></g><!--MD5=[db8947410cfcb5febdf8f8cf27669db4]
class Class1--><g id="elem_Class1"><rect codeLine="3" fill="#F1F1F1" height="45" id="Class1" rx="2.3438" ry="2.3438" style="stroke:#181818;stroke-width:0.46875;" width="70.3125" x="30.4688" y="55.3125"/><ellipse cx="44.5313" cy="70.3125" fill="#ADD1B2" rx="10.3125" ry="10.3125" style="stroke:#181818;stroke-width:0.9375;"/><path d="M43.1982,75.3369 Q41.4551,75.3369 40.4297,74.0332 Q39.4043,72.7295 39.4043,69.9316 Q39.4043,67.5586 40.4956,66.0059 Q41.5869,64.4531 43.4473,64.4531 Q44.8242,64.4531 45.2637,64.5703 Q45.7031,64.7607 45.7031,64.7607 Q45.7031,64.7607 45.7031,64.6948 Q45.7031,64.6289 46.2744,63.7646 L47.2559,67.1924 L46.0107,67.5732 Q45.5713,66.123 44.9487,65.5005 Q44.3262,64.8779 43.3301,64.8779 Q42.9639,64.8779 42.2461,66.3135 Q41.5283,67.749 41.5283,69.8584 Q41.5283,72.1729 42.1509,73.4766 Q42.7734,74.7803 43.2715,74.7803 Q44.2676,74.7803 44.978,74.0625 Q45.6885,73.3447 46.0107,71.792 L47.2559,72.3486 Q46.9482,73.667 46.106,74.502 Q45.2637,75.3369 43.1982,75.3369 Z " fill="#000000"/><text fill="#000000" font-family="sans-serif" font-size="13.125" lengthAdjust="spacing" textLength="40.3125" x="57.6563" y="76.3911">Class1</text><line style="stroke:#181818;stroke-width:0.46875;" x1="31.4063" x2="99.8438" y1="85.3125" y2="85.3125"/><line style="stroke:#181818;stroke-width:0.46875;" x1="31.4063" x2="99.8438" y1="92.8125" y2="92.8125"/></g><!--MD5=[097cec2c4502543b4bc821e1e2f7ea8d]
class Class2--><g id="elem_Class2"><rect codeLine="7" fill="#F1F1F1" height="45" id="Class2" rx="2.3438" ry="2.3438" style="stroke:#181818;stroke-width:0.46875;" width="70.3125" x="154.2188" y="55.3125"/><ellipse cx="168.2813" cy="70.3125" fill="#ADD1B2" rx="10.3125" ry="10.3125" style="stroke:#181818;stroke-width:0.9375;"/><path d="M166.9482,75.3369 Q165.2051,75.3369 164.1797,74.0332 Q163.1543,72.7295 163.1543,69.9316 Q163.1543,67.5586 164.2456,66.0059 Q165.3369,64.4531 167.1973,64.4531 Q168.5742,64.4531 169.0137,64.5703 Q169.4531,64.7607 169.4531,64.7607 Q169.4531,64.7607 169.4531,64.6948 Q169.4531,64.6289 170.0244,63.7646 L171.0059,67.1924 L169.7607,67.5732 Q169.3213,66.123 168.6987,65.5005 Q168.0762,64.8779 167.0801,64.8779 Q166.7139,64.8779 165.9961,66.3135 Q165.2783,67.749 165.2783,69.8584 Q165.2783,72.1729 165.9009,73.4766 Q166.5234,74.7803 167.0215,74.7803 Q168.0176,74.7803 168.728,74.0625 Q169.4385,73.3447 169.7607,71.792 L171.0059,72.3486 Q170.6982,73.667 169.856,74.502 Q169.0137,75.3369 166.9482,75.3369 Z " fill="#000000"/><text fill="#000000" font-family="sans-serif" font-size="13.125" lengthAdjust="spacing" textLength="40.3125" x="181.4063" y="76.3911">Class2</text><line style="stroke:#181818;stroke-width:0.46875;" x1="155.1563" x2="223.5938" y1="85.3125" y2="85.3125"/><line style="stroke:#181818;stroke-width:0.46875;" x1="155.1563" x2="223.5938" y1="92.8125" y2="92.8125"/></g><!--MD5=[abf337c455a9c7bb6033e86969bcb5eb]
class Class3--><g id="elem_Class3"><rect codeLine="11" fill="#F1F1F1" height="45" id="Class3" rx="2.3438" ry="2.3438" style="stroke:#181818;stroke-width:0.46875;" width="70.3125" x="277.9688" y="55.3125"/><ellipse cx="292.0313" cy="70.3125" fill="#ADD1B2" rx="10.3125" ry="10.3125" style="stroke:#181818;stroke-width:0.9375;"/><path d="M290.6982,75.3369 Q288.9551,75.3369 287.9297,74.0332 Q286.9043,72.7295 286.9043,69.9316 Q286.9043,67.5586 287.9956,66.0059 Q289.0869,64.4531 290.9473,64.4531 Q292.3242,64.4531 292.7637,64.5703 Q293.2031,64.7607 293.2031,64.7607 Q293.2031,64.7607 293.2031,64.6948 Q293.2031,64.6289 293.7744,63.7646 L294.7559,67.1924 L293.5107,67.5732 Q293.0713,66.123 292.4487,65.5005 Q291.8262,64.8779 290.8301,64.8779 Q290.4639,64.8779 289.7461,66.3135 Q289.0283,67.749 289.0283,69.8584 Q289.0283,72.1729 289.6509,73.4766 Q290.2734,74.7803 290.7715,74.7803 Q291.7676,74.7803 292.478,74.0625 Q293.1885,73.3447 293.5107,71.792 L294.7559,72.3486 Q294.4482,73.667 293.606,74.502 Q292.7637,75.3369 290.6982,75.3369 Z " fill="#000000"/><text fill="#000000" font-family="sans-serif" font-size="13.125" lengthAdjust="spacing" textLength="40.3125" x="305.1563" y="76.3911">Class3</text><line style="stroke:#181818;stroke-width:0.46875;" x1="278.9063" x2="347.3438" y1="85.3125" y2="85.3125"/><line style="stroke:#181818;stroke-width:0.46875;" x1="278.9063" x2="347.3438" y1="92.8125" y2="92.8125"/></g><!--MD5=[ed88a39d11e1a868d4958d16413c4746]
class Class4--><g id="elem_Class4"><rect codeLine="15" fill="#F1F1F1" height="45" id="Class4" rx="2.3438" ry="2.3438" style="stroke:#181818;stroke-width:0.46875;" width="70.3125" x="401.7188" y="55.3125"/><ellipse cx="415.7813" cy="70.3125" fill="#ADD1B2" rx="10.3125" ry="10.3125" style="stroke:#181818;stroke-width:0.9375;"/><path d="M414.4482,75.3369 Q412.7051,75.3369 411.6797,74.0332 Q410.6543,72.7295 410.6543,69.9316 Q410.6543,67.5586 411.7456,66.0059 Q412.8369,64.4531 414.6973,64.4531 Q416.0742,64.4531 416.5137,64.5703 Q416.9531,64.7607 416.9531,64.7607 Q416.9531,64.7607 416.9531,64.6948 Q416.9531,64.6289 417.5244,63.7646 L418.5059,67.1924 L417.2607,67.5732 Q416.8213,66.123 416.1987,65.5005 Q415.5762,64.8779 414.5801,64.8779 Q414.2139,64.8779 413.4961,66.3135 Q412.7783,67.749 412.7783,69.8584 Q412.7783,72.1729 413.4009,73.4766 Q414.0234,74.7803 414.5215,74.7803 Q415.5176,74.7803 416.228,74.0625 Q416.9385,73.3447 417.2607,71.792 L418.5059,72.3486 Q418.1982,73.667 417.356,74.502 Q416.5137,75.3369 414.4482,75.3369 Z " fill="#000000"/><text fill="#000000" font-family="sans-serif" font-size="13.125" lengthAdjust="spacing" textLength="40.3125" x="428.9063" y="76.3911">Class4</text><line style="stroke:#181818;stroke-width:0.46875;" x1="402.6563" x2="471.0938" y1="85.3125" y2="85.3125"/><line style="stroke:#181818;stroke-width:0.46875;" x1="402.6563" x2="471.0938" y1="92.8125" y2="92.8125"/></g><!--MD5=[e3cc6d06644b91dda2b3b874ae70d9db]
class Class5--><g id="elem_Class5"><rect codeLine="19" fill="#F1F1F1" height="45" id="Class5" rx="2.3438" ry="2.3438" style="stroke:#181818;stroke-width:0.46875;" width="70.3125" x="525.4688" y="55.3125"/><ellipse cx="539.5313" cy="70.3125" fill="#ADD1B2" rx="10.3125" ry="10.3125" style="stroke:#181818;stroke-width:0.9375;"/><path d="M538.1982,75.3369 Q536.4551,75.3369 535.4297,74.0332 Q534.4043,72.7295 534.4043,69.9316 Q534.4043,67.5586 535.4956,66.0059 Q536.5869,64.4531 538.4473,64.4531 Q539.8242,64.4531 540.2637,64.5703 Q540.7031,64.7607 540.7031,64.7607 Q540.7031,64.7607 540.7031,64.6948 Q540.7031,64.6289 541.2744,63.7646 L542.2559,67.1924 L541.0107,67.5732 Q540.5713,66.123 539.9487,65.5005 Q539.3262,64.8779 538.3301,64.8779 Q537.9639,64.8779 537.2461,66.3135 Q536.5283,67.749 536.5283,69.8584 Q536.5283,72.1729 537.1509,73.4766 Q537.7734,74.7803 538.2715,74.7803 Q539.2676,74.7803 539.978,74.0625 Q540.6885,73.3447 541.0107,71.792 L542.2559,72.3486 Q541.9482,73.667 541.106,74.502 Q540.2637,75.3369 538.1982,75.3369 Z " fill="#000000"/><text fill="#000000" font-family="sans-serif" font-size="13.125" lengthAdjust="spacing" textLength="40.3125" x="552.6563" y="76.3911">Class5</text><line style="stroke:#181818;stroke-width:0.46875;" x1="526.4063" x2="594.8438" y1="85.3125" y2="85.3125"/><line style="stroke:#181818;stroke-width:0.46875;" x1="526.4063" x2="594.8438" y1="92.8125" y2="92.8125"/></g><!--MD5=[53157becf988d72e4dca1079f2d06dbd]
class Class6--><g id="elem_Class6"><rect codeLine="23" fill="#F1F1F1" height="45" id="Class6" rx="2.3438" ry="2.3438" style="stroke:#181818;stroke-width:0.46875;" width="70.3125" x="649.2188" y="55.3125"/><ellipse cx="663.2813" cy="70.3125" fill="#ADD1B2" rx="10.3125" ry="10.3125" style="stroke:#181818;stroke-width:0.9375;"/><path d="M661.9482,75.3369 Q660.2051,75.3369 659.1797,74.0332 Q658.1543,72.7295 658.1543,69.9316 Q658.1543,67.5586 659.2456,66.0059 Q660.3369,64.4531 662.1973,64.4531 Q663.5742,64.4531 664.0137,64.5703 Q664.4531,64.7607 664.4531,64.7607 Q664.4531,64.7607 664.4531,64.6948 Q664.4531,64.6289 665.0244,63.7646 L666.0059,67.1924 L664.7607,67.5732 Q664.3213,66.123 663.6987,65.5005 Q663.0762,64.8779 662.0801,64.8779 Q661.7139,64.8779 660.9961,66.3135 Q660.2783,67.749 660.2783,69.8584 Q660.2783,72.1729 660.9009,73.4766 Q661.5234,74.7803 662.0215,74.7803 Q663.0176,74.7803 663.728,74.0625 Q664.4385,73.3447 664.7607,71.792 L666.0059,72.3486 Q665.6982,73.667 664.856,74.502 Q664.0137,75.3369 661.9482,75.3369 Z " fill="#000000"/><text fill="#000000" font-family="sans-serif" font-size="13.125" lengthAdjust="spacing" textLength="40.3125" x="676.4063" y="76.3911">Class6</text><line style="stroke:#181818;stroke-width:0.46875;" x1="650.1563" x2="718.5938" y1="85.3125" y2="85.3125"/><line style="stroke:#181818;stroke-width:0.46875;" x1="650.1563" x2="718.5938" y1="92.8125" y2="92.8125"/></g><!--MD5=[f83f2512995f3dd0a1ed6144b943689b]
@startuml
scale 750 width
package foo1 <<Node>> {
  class Class1
}

package foo2 <<Rectangle>> {
  class Class2
}

package foo3 <<Folder>> {
  class Class3
}

package foo4 <<Frame>> {
  class Class4
}

package foo5 <<Cloud>> {
  class Class5
}

package foo6 <<Database>> {
  class Class6
}

@enduml

PlantUML version 1.2022.4(Sat Apr 09 21:29:17 CST 2022)
(GPL source distribution)
Java Runtime: Java(TM) SE Runtime Environment
JVM: Java HotSpot(TM) 64-Bit Server VM
Default Encoding: GBK
Language: zh
Country: CN
--></g></svg>