<?xml version="1.0" encoding="UTF-8" standalone="no"?><svg xmlns="http://www.w3.org/2000/svg" xmlns:xlink="http://www.w3.org/1999/xlink" contentStyleType="text/css" height="223px" preserveAspectRatio="none" style="width:408px;height:223px;background:#FFFFFF;" version="1.1" viewBox="0 0 408 223" width="408px" zoomAndPan="magnify"><defs/><g><!--MD5=[1a7c909d8ac09fc782f5eb680a232d5b]
cluster Classic Collections--><g id="cluster_Classic Collections"><path d="M8.5,6 L142.5,6 A3.75,3.75 0 0 1 145,8.5 L152,31.1201 L152.5,31.1201 A2.5,2.5 0 0 1 155,33.6201 L155,213.5 A2.5,2.5 0 0 1 152.5,216 L8.5,216 A2.5,2.5 0 0 1 6,213.5 L6,8.5 A2.5,2.5 0 0 1 8.5,6 " fill="#DDDDDD" style="stroke:#000000;stroke-width:1.5;"/><line style="stroke:#000000;stroke-width:1.5;" x1="6" x2="152" y1="31.1201" y2="31.1201"/><text fill="#000000" font-family="sans-serif" font-size="14" font-weight="bold" lengthAdjust="spacing" textLength="133" x="10" y="24.0439">Classic Collections</text></g><!--MD5=[02e9e194a0548f773f3aa466798987a4]
cluster net.sourceforge.plantuml--><g id="cluster_net.sourceforge.plantuml"><path d="M181.5,114 L360.5,114 A3.75,3.75 0 0 1 363,116.5 L370,139.1201 L398.5,139.1201 A2.5,2.5 0 0 1 401,141.6201 L401,213.5 A2.5,2.5 0 0 1 398.5,216 L181.5,216 A2.5,2.5 0 0 1 179,213.5 L179,116.5 A2.5,2.5 0 0 1 181.5,114 " style="stroke:#000000;stroke-width:1.5;fill:none;"/><line style="stroke:#000000;stroke-width:1.5;fill:none;" x1="179" x2="370" y1="139.1201" y2="139.1201"/><text fill="#000000" font-family="sans-serif" font-size="14" font-weight="bold" lengthAdjust="spacing" textLength="178" x="183" y="132.0439">net.sourceforge.plantuml</text></g><!--MD5=[aa7f586532e18719e6cefa70fc650583]
class Object--><g id="elem_Object"><rect fill="#F1F1F1" height="48" id="Object" rx="2.5" ry="2.5" style="stroke:#181818;stroke-width:0.5;" width="73" x="61.5" y="44"/><ellipse cx="76.5" cy="60" fill="#ADD1B2" rx="11" ry="11" style="stroke:#181818;stroke-width:1.0;"/><path d="M75.0781,65.3594 Q73.2188,65.3594 72.125,63.9688 Q71.0313,62.5781 71.0313,59.5938 Q71.0313,57.0625 72.1953,55.4063 Q73.3594,53.75 75.3438,53.75 Q76.8125,53.75 77.2813,53.875 Q77.75,54.0781 77.75,54.0781 Q77.75,54.0781 77.75,54.0078 Q77.75,53.9375 78.3594,53.0156 L79.4063,56.6719 L78.0781,57.0781 Q77.6094,55.5313 76.9453,54.8672 Q76.2813,54.2031 75.2188,54.2031 Q74.8281,54.2031 74.0625,55.7344 Q73.2969,57.2656 73.2969,59.5156 Q73.2969,61.9844 73.9609,63.375 Q74.625,64.7656 75.1563,64.7656 Q76.2188,64.7656 76.9766,64 Q77.7344,63.2344 78.0781,61.5781 L79.4063,62.1719 Q79.0781,63.5781 78.1797,64.4688 Q77.2813,65.3594 75.0781,65.3594 Z " fill="#000000"/><text fill="#000000" font-family="sans-serif" font-size="14" lengthAdjust="spacing" textLength="41" x="90.5" y="66.4839">Object</text><line style="stroke:#181818;stroke-width:0.5;" x1="62.5" x2="133.5" y1="76" y2="76"/><line style="stroke:#181818;stroke-width:0.5;" x1="62.5" x2="133.5" y1="84" y2="84"/></g><!--MD5=[ab8871ed637f40707b866ba6597734bc]
class ArrayList--><g id="elem_ArrayList"><rect fill="#F1F1F1" height="48" id="ArrayList" rx="2.5" ry="2.5" style="stroke:#181818;stroke-width:0.5;" width="88" x="51" y="152"/><ellipse cx="66" cy="168" fill="#ADD1B2" rx="11" ry="11" style="stroke:#181818;stroke-width:1.0;"/><path d="M64.5781,173.3594 Q62.7188,173.3594 61.625,171.9688 Q60.5313,170.5781 60.5313,167.5938 Q60.5313,165.0625 61.6953,163.4063 Q62.8594,161.75 64.8438,161.75 Q66.3125,161.75 66.7813,161.875 Q67.25,162.0781 67.25,162.0781 Q67.25,162.0781 67.25,162.0078 Q67.25,161.9375 67.8594,161.0156 L68.9063,164.6719 L67.5781,165.0781 Q67.1094,163.5313 66.4453,162.8672 Q65.7813,162.2031 64.7188,162.2031 Q64.3281,162.2031 63.5625,163.7344 Q62.7969,165.2656 62.7969,167.5156 Q62.7969,169.9844 63.4609,171.375 Q64.125,172.7656 64.6563,172.7656 Q65.7188,172.7656 66.4766,172 Q67.2344,171.2344 67.5781,169.5781 L68.9063,170.1719 Q68.5781,171.5781 67.6797,172.4688 Q66.7813,173.3594 64.5781,173.3594 Z " fill="#000000"/><text fill="#000000" font-family="sans-serif" font-size="14" lengthAdjust="spacing" textLength="56" x="80" y="174.4839">ArrayList</text><line style="stroke:#181818;stroke-width:0.5;" x1="52" x2="138" y1="184" y2="184"/><line style="stroke:#181818;stroke-width:0.5;" x1="52" x2="138" y1="192" y2="192"/></g><!--MD5=[060322837cf907fb29556f3e6b48a9e1]
class Demo1--><g id="elem_Demo1"><rect fill="#F1F1F1" height="48" id="Demo1" rx="2.5" ry="2.5" style="stroke:#181818;stroke-width:0.5;" width="77" x="195.5" y="152"/><ellipse cx="210.5" cy="168" fill="#ADD1B2" rx="11" ry="11" style="stroke:#181818;stroke-width:1.0;"/><path d="M209.0781,173.3594 Q207.2188,173.3594 206.125,171.9688 Q205.0313,170.5781 205.0313,167.5938 Q205.0313,165.0625 206.1953,163.4063 Q207.3594,161.75 209.3438,161.75 Q210.8125,161.75 211.2813,161.875 Q211.75,162.0781 211.75,162.0781 Q211.75,162.0781 211.75,162.0078 Q211.75,161.9375 212.3594,161.0156 L213.4063,164.6719 L212.0781,165.0781 Q211.6094,163.5313 210.9453,162.8672 Q210.2813,162.2031 209.2188,162.2031 Q208.8281,162.2031 208.0625,163.7344 Q207.2969,165.2656 207.2969,167.5156 Q207.2969,169.9844 207.9609,171.375 Q208.625,172.7656 209.1563,172.7656 Q210.2188,172.7656 210.9766,172 Q211.7344,171.2344 212.0781,169.5781 L213.4063,170.1719 Q213.0781,171.5781 212.1797,172.4688 Q211.2813,173.3594 209.0781,173.3594 Z " fill="#000000"/><text fill="#000000" font-family="sans-serif" font-size="14" lengthAdjust="spacing" textLength="45" x="224.5" y="174.4839">Demo1</text><line style="stroke:#181818;stroke-width:0.5;" x1="196.5" x2="271.5" y1="184" y2="184"/><line style="stroke:#181818;stroke-width:0.5;" x1="196.5" x2="271.5" y1="192" y2="192"/></g><!--MD5=[a1f53e37d9ee92029b24542d0dfb95ad]
class Demo2--><g id="elem_Demo2"><rect fill="#F1F1F1" height="48" id="Demo2" rx="2.5" ry="2.5" style="stroke:#181818;stroke-width:0.5;" width="77" x="307.5" y="152"/><ellipse cx="322.5" cy="168" fill="#ADD1B2" rx="11" ry="11" style="stroke:#181818;stroke-width:1.0;"/><path d="M321.0781,173.3594 Q319.2188,173.3594 318.125,171.9688 Q317.0313,170.5781 317.0313,167.5938 Q317.0313,165.0625 318.1953,163.4063 Q319.3594,161.75 321.3438,161.75 Q322.8125,161.75 323.2813,161.875 Q323.75,162.0781 323.75,162.0781 Q323.75,162.0781 323.75,162.0078 Q323.75,161.9375 324.3594,161.0156 L325.4063,164.6719 L324.0781,165.0781 Q323.6094,163.5313 322.9453,162.8672 Q322.2813,162.2031 321.2188,162.2031 Q320.8281,162.2031 320.0625,163.7344 Q319.2969,165.2656 319.2969,167.5156 Q319.2969,169.9844 319.9609,171.375 Q320.625,172.7656 321.1563,172.7656 Q322.2188,172.7656 322.9766,172 Q323.7344,171.2344 324.0781,169.5781 L325.4063,170.1719 Q325.0781,171.5781 324.1797,172.4688 Q323.2813,173.3594 321.0781,173.3594 Z " fill="#000000"/><text fill="#000000" font-family="sans-serif" font-size="14" lengthAdjust="spacing" textLength="45" x="336.5" y="174.4839">Demo2</text><line style="stroke:#181818;stroke-width:0.5;" x1="308.5" x2="383.5" y1="184" y2="184"/><line style="stroke:#181818;stroke-width:0.5;" x1="308.5" x2="383.5" y1="192" y2="192"/></g><!--MD5=[78ed3d54c6ad96fb6434a4e45aa4b5f0]
reverse link Object to ArrayList--><g id="link_Object_ArrayList"><path codeLine="3" d="M96.782,112.024 C96.399,125.579 95.989,140.0381 95.66,151.6784 " fill="none" id="Object-backto-ArrayList" style="stroke:#181818;stroke-width:1.0;"/><polygon fill="none" points="89.7859,111.794,97.349,92,103.78,112.19,89.7859,111.794" style="stroke:#181818;stroke-width:1.0;"/></g><!--MD5=[48a35d8a1517b475c0933e49f0163cea]
reverse link Object to Demo1--><g id="link_Object_Demo1"><path codeLine="7" d="M151.339,103.278 C152.577,104.185 153.8,105.093 155,106 C174.036,120.377 194.277,138.108 209.504,151.9958 " fill="none" id="Object-backto-Demo1" style="stroke:#181818;stroke-width:1.0;"/><polygon fill="none" points="147.148,108.89,134.714,91.732,155.134,97.391,147.148,108.89" style="stroke:#181818;stroke-width:1.0;"/></g><!--MD5=[27e2771ea67e3162b3350a04b0334c4f]
reverse link Demo1 to Demo2--><g id="link_Demo1_Demo2"><path codeLine="8" d="M286.157,176 C293.262,176 300.366,176 307.471,176 " fill="none" id="Demo1-backto-Demo2" style="stroke:#181818;stroke-width:1.0;"/><polygon fill="#181818" points="272.938,176,278.938,180,284.938,176,278.938,172,272.938,176" style="stroke:#181818;stroke-width:1.0;"/></g><!--MD5=[788d078437ad60ee9edc4bf9957dfdac]
@startuml

package "Classic Collections" #DDDDDD {
  Object <|- - ArrayList
}

package net.sourceforge.plantuml {
  Object <|- - Demo1
  Demo1 *- Demo2
}

@enduml

PlantUML version 1.2022.4(Sat Apr 09 21:29:17 CST 2022)
(GPL source distribution)
Java Runtime: Java(TM) SE Runtime Environment
JVM: Java HotSpot(TM) 64-Bit Server VM
Default Encoding: GBK
Language: zh
Country: CN
--></g></svg>