<?xml version="1.0" encoding="UTF-8" standalone="no"?><svg xmlns="http://www.w3.org/2000/svg" xmlns:xlink="http://www.w3.org/1999/xlink" contentStyleType="text/css" height="170px" preserveAspectRatio="none" style="width:569px;height:170px;background:#FFFFFF;" version="1.1" viewBox="0 0 569 170" width="569px" zoomAndPan="magnify"><defs/><g><!--MD5=[b2f23c4a06b9bc4c947f037f864aea3c]
class Class01--><g id="elem_Class01"><rect fill="#F1F1F1" height="48" id="Class01" rx="2.5" ry="2.5" style="stroke:#181818;stroke-width:0.5;" width="83" x="7" y="7"/><ellipse cx="22" cy="23" fill="#ADD1B2" rx="11" ry="11" style="stroke:#181818;stroke-width:1.0;"/><path d="M20.5781,28.3594 Q18.7188,28.3594 17.625,26.9688 Q16.5313,25.5781 16.5313,22.5938 Q16.5313,20.0625 17.6953,18.4063 Q18.8594,16.75 20.8438,16.75 Q22.3125,16.75 22.7813,16.875 Q23.25,17.0781 23.25,17.0781 Q23.25,17.0781 23.25,17.0078 Q23.25,16.9375 23.8594,16.0156 L24.9063,19.6719 L23.5781,20.0781 Q23.1094,18.5313 22.4453,17.8672 Q21.7813,17.2031 20.7188,17.2031 Q20.3281,17.2031 19.5625,18.7344 Q18.7969,20.2656 18.7969,22.5156 Q18.7969,24.9844 19.4609,26.375 Q20.125,27.7656 20.6563,27.7656 Q21.7188,27.7656 22.4766,27 Q23.2344,26.2344 23.5781,24.5781 L24.9063,25.1719 Q24.5781,26.5781 23.6797,27.4688 Q22.7813,28.3594 20.5781,28.3594 Z " fill="#000000"/><text fill="#000000" font-family="sans-serif" font-size="14" lengthAdjust="spacing" textLength="51" x="36" y="29.4839">Class01</text><line style="stroke:#181818;stroke-width:0.5;" x1="8" x2="89" y1="39" y2="39"/><line style="stroke:#181818;stroke-width:0.5;" x1="8" x2="89" y1="47" y2="47"/></g><!--MD5=[67b7f66b9c6b27d60ed6d0424460c06c]
class Class02--><g id="elem_Class02"><rect fill="#F1F1F1" height="48" id="Class02" rx="2.5" ry="2.5" style="stroke:#181818;stroke-width:0.5;" width="83" x="7" y="115"/><ellipse cx="22" cy="131" fill="#ADD1B2" rx="11" ry="11" style="stroke:#181818;stroke-width:1.0;"/><path d="M20.5781,136.3594 Q18.7188,136.3594 17.625,134.9688 Q16.5313,133.5781 16.5313,130.5938 Q16.5313,128.0625 17.6953,126.4063 Q18.8594,124.75 20.8438,124.75 Q22.3125,124.75 22.7813,124.875 Q23.25,125.0781 23.25,125.0781 Q23.25,125.0781 23.25,125.0078 Q23.25,124.9375 23.8594,124.0156 L24.9063,127.6719 L23.5781,128.0781 Q23.1094,126.5313 22.4453,125.8672 Q21.7813,125.2031 20.7188,125.2031 Q20.3281,125.2031 19.5625,126.7344 Q18.7969,128.2656 18.7969,130.5156 Q18.7969,132.9844 19.4609,134.375 Q20.125,135.7656 20.6563,135.7656 Q21.7188,135.7656 22.4766,135 Q23.2344,134.2344 23.5781,132.5781 L24.9063,133.1719 Q24.5781,134.5781 23.6797,135.4688 Q22.7813,136.3594 20.5781,136.3594 Z " fill="#000000"/><text fill="#000000" font-family="sans-serif" font-size="14" lengthAdjust="spacing" textLength="51" x="36" y="137.4839">Class02</text><line style="stroke:#181818;stroke-width:0.5;" x1="8" x2="89" y1="147" y2="147"/><line style="stroke:#181818;stroke-width:0.5;" x1="8" x2="89" y1="155" y2="155"/></g><!--MD5=[e34eefe962fcadefcbf83660cc436420]
class Class03--><g id="elem_Class03"><rect fill="#F1F1F1" height="48" id="Class03" rx="2.5" ry="2.5" style="stroke:#181818;stroke-width:0.5;" width="83" x="125" y="7"/><ellipse cx="140" cy="23" fill="#ADD1B2" rx="11" ry="11" style="stroke:#181818;stroke-width:1.0;"/><path d="M138.5781,28.3594 Q136.7188,28.3594 135.625,26.9688 Q134.5313,25.5781 134.5313,22.5938 Q134.5313,20.0625 135.6953,18.4063 Q136.8594,16.75 138.8438,16.75 Q140.3125,16.75 140.7813,16.875 Q141.25,17.0781 141.25,17.0781 Q141.25,17.0781 141.25,17.0078 Q141.25,16.9375 141.8594,16.0156 L142.9063,19.6719 L141.5781,20.0781 Q141.1094,18.5313 140.4453,17.8672 Q139.7813,17.2031 138.7188,17.2031 Q138.3281,17.2031 137.5625,18.7344 Q136.7969,20.2656 136.7969,22.5156 Q136.7969,24.9844 137.4609,26.375 Q138.125,27.7656 138.6563,27.7656 Q139.7188,27.7656 140.4766,27 Q141.2344,26.2344 141.5781,24.5781 L142.9063,25.1719 Q142.5781,26.5781 141.6797,27.4688 Q140.7813,28.3594 138.5781,28.3594 Z " fill="#000000"/><text fill="#000000" font-family="sans-serif" font-size="14" lengthAdjust="spacing" textLength="51" x="154" y="29.4839">Class03</text><line style="stroke:#181818;stroke-width:0.5;" x1="126" x2="207" y1="39" y2="39"/><line style="stroke:#181818;stroke-width:0.5;" x1="126" x2="207" y1="47" y2="47"/></g><!--MD5=[d53a23475d458e69a9e37a48405189e2]
class Class04--><g id="elem_Class04"><rect fill="#F1F1F1" height="48" id="Class04" rx="2.5" ry="2.5" style="stroke:#181818;stroke-width:0.5;" width="83" x="125" y="115"/><ellipse cx="140" cy="131" fill="#ADD1B2" rx="11" ry="11" style="stroke:#181818;stroke-width:1.0;"/><path d="M138.5781,136.3594 Q136.7188,136.3594 135.625,134.9688 Q134.5313,133.5781 134.5313,130.5938 Q134.5313,128.0625 135.6953,126.4063 Q136.8594,124.75 138.8438,124.75 Q140.3125,124.75 140.7813,124.875 Q141.25,125.0781 141.25,125.0781 Q141.25,125.0781 141.25,125.0078 Q141.25,124.9375 141.8594,124.0156 L142.9063,127.6719 L141.5781,128.0781 Q141.1094,126.5313 140.4453,125.8672 Q139.7813,125.2031 138.7188,125.2031 Q138.3281,125.2031 137.5625,126.7344 Q136.7969,128.2656 136.7969,130.5156 Q136.7969,132.9844 137.4609,134.375 Q138.125,135.7656 138.6563,135.7656 Q139.7188,135.7656 140.4766,135 Q141.2344,134.2344 141.5781,132.5781 L142.9063,133.1719 Q142.5781,134.5781 141.6797,135.4688 Q140.7813,136.3594 138.5781,136.3594 Z " fill="#000000"/><text fill="#000000" font-family="sans-serif" font-size="14" lengthAdjust="spacing" textLength="51" x="154" y="137.4839">Class04</text><line style="stroke:#181818;stroke-width:0.5;" x1="126" x2="207" y1="147" y2="147"/><line style="stroke:#181818;stroke-width:0.5;" x1="126" x2="207" y1="155" y2="155"/></g><!--MD5=[21c802bf509ebb275d96eccffaf3e0b6]
class Class05--><g id="elem_Class05"><rect fill="#F1F1F1" height="48" id="Class05" rx="2.5" ry="2.5" style="stroke:#181818;stroke-width:0.5;" width="83" x="243" y="7"/><ellipse cx="258" cy="23" fill="#ADD1B2" rx="11" ry="11" style="stroke:#181818;stroke-width:1.0;"/><path d="M256.5781,28.3594 Q254.7188,28.3594 253.625,26.9688 Q252.5313,25.5781 252.5313,22.5938 Q252.5313,20.0625 253.6953,18.4063 Q254.8594,16.75 256.8438,16.75 Q258.3125,16.75 258.7813,16.875 Q259.25,17.0781 259.25,17.0781 Q259.25,17.0781 259.25,17.0078 Q259.25,16.9375 259.8594,16.0156 L260.9063,19.6719 L259.5781,20.0781 Q259.1094,18.5313 258.4453,17.8672 Q257.7813,17.2031 256.7188,17.2031 Q256.3281,17.2031 255.5625,18.7344 Q254.7969,20.2656 254.7969,22.5156 Q254.7969,24.9844 255.4609,26.375 Q256.125,27.7656 256.6563,27.7656 Q257.7188,27.7656 258.4766,27 Q259.2344,26.2344 259.5781,24.5781 L260.9063,25.1719 Q260.5781,26.5781 259.6797,27.4688 Q258.7813,28.3594 256.5781,28.3594 Z " fill="#000000"/><text fill="#000000" font-family="sans-serif" font-size="14" lengthAdjust="spacing" textLength="51" x="272" y="29.4839">Class05</text><line style="stroke:#181818;stroke-width:0.5;" x1="244" x2="325" y1="39" y2="39"/><line style="stroke:#181818;stroke-width:0.5;" x1="244" x2="325" y1="47" y2="47"/></g><!--MD5=[247dd373b5711b206209116e093ec52c]
class Class06--><g id="elem_Class06"><rect fill="#F1F1F1" height="48" id="Class06" rx="2.5" ry="2.5" style="stroke:#181818;stroke-width:0.5;" width="83" x="243" y="115"/><ellipse cx="258" cy="131" fill="#ADD1B2" rx="11" ry="11" style="stroke:#181818;stroke-width:1.0;"/><path d="M256.5781,136.3594 Q254.7188,136.3594 253.625,134.9688 Q252.5313,133.5781 252.5313,130.5938 Q252.5313,128.0625 253.6953,126.4063 Q254.8594,124.75 256.8438,124.75 Q258.3125,124.75 258.7813,124.875 Q259.25,125.0781 259.25,125.0781 Q259.25,125.0781 259.25,125.0078 Q259.25,124.9375 259.8594,124.0156 L260.9063,127.6719 L259.5781,128.0781 Q259.1094,126.5313 258.4453,125.8672 Q257.7813,125.2031 256.7188,125.2031 Q256.3281,125.2031 255.5625,126.7344 Q254.7969,128.2656 254.7969,130.5156 Q254.7969,132.9844 255.4609,134.375 Q256.125,135.7656 256.6563,135.7656 Q257.7188,135.7656 258.4766,135 Q259.2344,134.2344 259.5781,132.5781 L260.9063,133.1719 Q260.5781,134.5781 259.6797,135.4688 Q258.7813,136.3594 256.5781,136.3594 Z " fill="#000000"/><text fill="#000000" font-family="sans-serif" font-size="14" lengthAdjust="spacing" textLength="51" x="272" y="137.4839">Class06</text><line style="stroke:#181818;stroke-width:0.5;" x1="244" x2="325" y1="147" y2="147"/><line style="stroke:#181818;stroke-width:0.5;" x1="244" x2="325" y1="155" y2="155"/></g><!--MD5=[83017deacfdfe1c29bd0eb2a2cc9c723]
class Class07--><g id="elem_Class07"><rect fill="#F1F1F1" height="48" id="Class07" rx="2.5" ry="2.5" style="stroke:#181818;stroke-width:0.5;" width="83" x="361" y="7"/><ellipse cx="376" cy="23" fill="#ADD1B2" rx="11" ry="11" style="stroke:#181818;stroke-width:1.0;"/><path d="M374.5781,28.3594 Q372.7188,28.3594 371.625,26.9688 Q370.5313,25.5781 370.5313,22.5938 Q370.5313,20.0625 371.6953,18.4063 Q372.8594,16.75 374.8438,16.75 Q376.3125,16.75 376.7813,16.875 Q377.25,17.0781 377.25,17.0781 Q377.25,17.0781 377.25,17.0078 Q377.25,16.9375 377.8594,16.0156 L378.9063,19.6719 L377.5781,20.0781 Q377.1094,18.5313 376.4453,17.8672 Q375.7813,17.2031 374.7188,17.2031 Q374.3281,17.2031 373.5625,18.7344 Q372.7969,20.2656 372.7969,22.5156 Q372.7969,24.9844 373.4609,26.375 Q374.125,27.7656 374.6563,27.7656 Q375.7188,27.7656 376.4766,27 Q377.2344,26.2344 377.5781,24.5781 L378.9063,25.1719 Q378.5781,26.5781 377.6797,27.4688 Q376.7813,28.3594 374.5781,28.3594 Z " fill="#000000"/><text fill="#000000" font-family="sans-serif" font-size="14" lengthAdjust="spacing" textLength="51" x="390" y="29.4839">Class07</text><line style="stroke:#181818;stroke-width:0.5;" x1="362" x2="443" y1="39" y2="39"/><line style="stroke:#181818;stroke-width:0.5;" x1="362" x2="443" y1="47" y2="47"/></g><!--MD5=[0e75c8574cc137f0f93c5ac687b4b98c]
class Class08--><g id="elem_Class08"><rect fill="#F1F1F1" height="48" id="Class08" rx="2.5" ry="2.5" style="stroke:#181818;stroke-width:0.5;" width="83" x="361" y="115"/><ellipse cx="376" cy="131" fill="#ADD1B2" rx="11" ry="11" style="stroke:#181818;stroke-width:1.0;"/><path d="M374.5781,136.3594 Q372.7188,136.3594 371.625,134.9688 Q370.5313,133.5781 370.5313,130.5938 Q370.5313,128.0625 371.6953,126.4063 Q372.8594,124.75 374.8438,124.75 Q376.3125,124.75 376.7813,124.875 Q377.25,125.0781 377.25,125.0781 Q377.25,125.0781 377.25,125.0078 Q377.25,124.9375 377.8594,124.0156 L378.9063,127.6719 L377.5781,128.0781 Q377.1094,126.5313 376.4453,125.8672 Q375.7813,125.2031 374.7188,125.2031 Q374.3281,125.2031 373.5625,126.7344 Q372.7969,128.2656 372.7969,130.5156 Q372.7969,132.9844 373.4609,134.375 Q374.125,135.7656 374.6563,135.7656 Q375.7188,135.7656 376.4766,135 Q377.2344,134.2344 377.5781,132.5781 L378.9063,133.1719 Q378.5781,134.5781 377.6797,135.4688 Q376.7813,136.3594 374.5781,136.3594 Z " fill="#000000"/><text fill="#000000" font-family="sans-serif" font-size="14" lengthAdjust="spacing" textLength="51" x="390" y="137.4839">Class08</text><line style="stroke:#181818;stroke-width:0.5;" x1="362" x2="443" y1="147" y2="147"/><line style="stroke:#181818;stroke-width:0.5;" x1="362" x2="443" y1="155" y2="155"/></g><!--MD5=[11c0341282256c64706f32de960d439a]
class Class09--><g id="elem_Class09"><rect fill="#F1F1F1" height="48" id="Class09" rx="2.5" ry="2.5" style="stroke:#181818;stroke-width:0.5;" width="83" x="479" y="7"/><ellipse cx="494" cy="23" fill="#ADD1B2" rx="11" ry="11" style="stroke:#181818;stroke-width:1.0;"/><path d="M492.5781,28.3594 Q490.7188,28.3594 489.625,26.9688 Q488.5313,25.5781 488.5313,22.5938 Q488.5313,20.0625 489.6953,18.4063 Q490.8594,16.75 492.8438,16.75 Q494.3125,16.75 494.7813,16.875 Q495.25,17.0781 495.25,17.0781 Q495.25,17.0781 495.25,17.0078 Q495.25,16.9375 495.8594,16.0156 L496.9063,19.6719 L495.5781,20.0781 Q495.1094,18.5313 494.4453,17.8672 Q493.7813,17.2031 492.7188,17.2031 Q492.3281,17.2031 491.5625,18.7344 Q490.7969,20.2656 490.7969,22.5156 Q490.7969,24.9844 491.4609,26.375 Q492.125,27.7656 492.6563,27.7656 Q493.7188,27.7656 494.4766,27 Q495.2344,26.2344 495.5781,24.5781 L496.9063,25.1719 Q496.5781,26.5781 495.6797,27.4688 Q494.7813,28.3594 492.5781,28.3594 Z " fill="#000000"/><text fill="#000000" font-family="sans-serif" font-size="14" lengthAdjust="spacing" textLength="51" x="508" y="29.4839">Class09</text><line style="stroke:#181818;stroke-width:0.5;" x1="480" x2="561" y1="39" y2="39"/><line style="stroke:#181818;stroke-width:0.5;" x1="480" x2="561" y1="47" y2="47"/></g><!--MD5=[f0780a43e5c0af3c52b439b7f3f3994e]
class Class10--><g id="elem_Class10"><rect fill="#F1F1F1" height="48" id="Class10" rx="2.5" ry="2.5" style="stroke:#181818;stroke-width:0.5;" width="83" x="479" y="115"/><ellipse cx="494" cy="131" fill="#ADD1B2" rx="11" ry="11" style="stroke:#181818;stroke-width:1.0;"/><path d="M492.5781,136.3594 Q490.7188,136.3594 489.625,134.9688 Q488.5313,133.5781 488.5313,130.5938 Q488.5313,128.0625 489.6953,126.4063 Q490.8594,124.75 492.8438,124.75 Q494.3125,124.75 494.7813,124.875 Q495.25,125.0781 495.25,125.0781 Q495.25,125.0781 495.25,125.0078 Q495.25,124.9375 495.8594,124.0156 L496.9063,127.6719 L495.5781,128.0781 Q495.1094,126.5313 494.4453,125.8672 Q493.7813,125.2031 492.7188,125.2031 Q492.3281,125.2031 491.5625,126.7344 Q490.7969,128.2656 490.7969,130.5156 Q490.7969,132.9844 491.4609,134.375 Q492.125,135.7656 492.6563,135.7656 Q493.7188,135.7656 494.4766,135 Q495.2344,134.2344 495.5781,132.5781 L496.9063,133.1719 Q496.5781,134.5781 495.6797,135.4688 Q494.7813,136.3594 492.5781,136.3594 Z " fill="#000000"/><text fill="#000000" font-family="sans-serif" font-size="14" lengthAdjust="spacing" textLength="51" x="508" y="137.4839">Class10</text><line style="stroke:#181818;stroke-width:0.5;" x1="480" x2="561" y1="147" y2="147"/><line style="stroke:#181818;stroke-width:0.5;" x1="480" x2="561" y1="155" y2="155"/></g><!--MD5=[3ab52052fd7925c5f64fca5d41d6866e]
reverse link Class01 to Class02--><g id="link_Class01_Class02"><path codeLine="1" d="M48.5,75.0236 C48.5,88.5792 48.5,103.0381 48.5,114.6784 " fill="none" id="Class01-backto-Class02" style="stroke:#181818;stroke-width:1.0;"/><polygon fill="none" points="41.5001,75.0005,48.5,55,55.5001,75.0004,41.5001,75.0005" style="stroke:#181818;stroke-width:1.0;"/></g><!--MD5=[0815ca07f8d628dc1a46a48ef0cd4c01]
reverse link Class03 to Class04--><g id="link_Class03_Class04"><path codeLine="2" d="M166.5,68.3383 C166.5,83.6813 166.5,101.098 166.5,114.6784 " fill="none" id="Class03-backto-Class04" style="stroke:#181818;stroke-width:1.0;"/><polygon fill="#181818" points="166.5,55,162.5,61,166.5,67,170.5,61,166.5,55" style="stroke:#181818;stroke-width:1.0;"/></g><!--MD5=[07ec844cc9d193d99f69abe09e63aa9e]
reverse link Class05 to Class06--><g id="link_Class05_Class06"><path codeLine="3" d="M284.5,68.3383 C284.5,83.6813 284.5,101.098 284.5,114.6784 " fill="none" id="Class05-backto-Class06" style="stroke:#181818;stroke-width:1.0;"/><polygon fill="none" points="284.5,55,280.5,61,284.5,67,288.5,61,284.5,55" style="stroke:#181818;stroke-width:1.0;"/></g><!--MD5=[cd6c6022d9f7be31b268d5c573778c45]
link Class07 to Class08--><g id="link_Class07_Class08"><path codeLine="4" d="M402.5,55 C402.5,72.6584 402.5,96.9408 402.5,114.6784 " fill="none" id="Class07-Class08" style="stroke:#181818;stroke-width:1.0;stroke-dasharray:7.0,7.0;"/></g><!--MD5=[012abb55b9b004b4a603a60db8edb83a]
link Class09 to Class10--><g id="link_Class09_Class10"><path codeLine="5" d="M520.5,55 C520.5,72.6584 520.5,96.9408 520.5,114.6784 " fill="none" id="Class09-Class10" style="stroke:#181818;stroke-width:1.0;"/></g><!--MD5=[15b5cee980159041fa6b777920a05cc2]
@startuml
Class01 <|- - Class02
Class03 *- - Class04
Class05 o- - Class06
Class07 .. Class08
Class09 - - Class10
@enduml

PlantUML version 1.2022.4(Sat Apr 09 21:29:17 CST 2022)
(GPL source distribution)
Java Runtime: Java(TM) SE Runtime Environment
JVM: Java HotSpot(TM) 64-Bit Server VM
Default Encoding: GBK
Language: zh
Country: CN
--></g></svg>