<?xml version="1.0" encoding="UTF-8" standalone="no"?><svg xmlns="http://www.w3.org/2000/svg" xmlns:xlink="http://www.w3.org/1999/xlink" contentStyleType="text/css" height="170px" preserveAspectRatio="none" style="width:569px;height:170px;background:#FFFFFF;" version="1.1" viewBox="0 0 569 170" width="569px" zoomAndPan="magnify"><defs/><g><!--MD5=[e906a636d852537fbf604325976bb559]
class Class11--><g id="elem_Class11"><rect fill="#F1F1F1" height="48" id="Class11" rx="2.5" ry="2.5" style="stroke:#181818;stroke-width:0.5;" width="83" x="7" y="7"/><ellipse cx="22" cy="23" fill="#ADD1B2" rx="11" ry="11" style="stroke:#181818;stroke-width:1.0;"/><path d="M20.5781,28.3594 Q18.7188,28.3594 17.625,26.9688 Q16.5313,25.5781 16.5313,22.5938 Q16.5313,20.0625 17.6953,18.4063 Q18.8594,16.75 20.8438,16.75 Q22.3125,16.75 22.7813,16.875 Q23.25,17.0781 23.25,17.0781 Q23.25,17.0781 23.25,17.0078 Q23.25,16.9375 23.8594,16.0156 L24.9063,19.6719 L23.5781,20.0781 Q23.1094,18.5313 22.4453,17.8672 Q21.7813,17.2031 20.7188,17.2031 Q20.3281,17.2031 19.5625,18.7344 Q18.7969,20.2656 18.7969,22.5156 Q18.7969,24.9844 19.4609,26.375 Q20.125,27.7656 20.6563,27.7656 Q21.7188,27.7656 22.4766,27 Q23.2344,26.2344 23.5781,24.5781 L24.9063,25.1719 Q24.5781,26.5781 23.6797,27.4688 Q22.7813,28.3594 20.5781,28.3594 Z " fill="#000000"/><text fill="#000000" font-family="sans-serif" font-size="14" lengthAdjust="spacing" textLength="51" x="36" y="29.4839">Class11</text><line style="stroke:#181818;stroke-width:0.5;" x1="8" x2="89" y1="39" y2="39"/><line style="stroke:#181818;stroke-width:0.5;" x1="8" x2="89" y1="47" y2="47"/></g><!--MD5=[06eacbb813a75d2e20e029c33468e712]
class Class12--><g id="elem_Class12"><rect fill="#F1F1F1" height="48" id="Class12" rx="2.5" ry="2.5" style="stroke:#181818;stroke-width:0.5;" width="83" x="7" y="115"/><ellipse cx="22" cy="131" fill="#ADD1B2" rx="11" ry="11" style="stroke:#181818;stroke-width:1.0;"/><path d="M20.5781,136.3594 Q18.7188,136.3594 17.625,134.9688 Q16.5313,133.5781 16.5313,130.5938 Q16.5313,128.0625 17.6953,126.4063 Q18.8594,124.75 20.8438,124.75 Q22.3125,124.75 22.7813,124.875 Q23.25,125.0781 23.25,125.0781 Q23.25,125.0781 23.25,125.0078 Q23.25,124.9375 23.8594,124.0156 L24.9063,127.6719 L23.5781,128.0781 Q23.1094,126.5313 22.4453,125.8672 Q21.7813,125.2031 20.7188,125.2031 Q20.3281,125.2031 19.5625,126.7344 Q18.7969,128.2656 18.7969,130.5156 Q18.7969,132.9844 19.4609,134.375 Q20.125,135.7656 20.6563,135.7656 Q21.7188,135.7656 22.4766,135 Q23.2344,134.2344 23.5781,132.5781 L24.9063,133.1719 Q24.5781,134.5781 23.6797,135.4688 Q22.7813,136.3594 20.5781,136.3594 Z " fill="#000000"/><text fill="#000000" font-family="sans-serif" font-size="14" lengthAdjust="spacing" textLength="51" x="36" y="137.4839">Class12</text><line style="stroke:#181818;stroke-width:0.5;" x1="8" x2="89" y1="147" y2="147"/><line style="stroke:#181818;stroke-width:0.5;" x1="8" x2="89" y1="155" y2="155"/></g><!--MD5=[0ef5b238c7b5ba98efa079929ce5392e]
class Class13--><g id="elem_Class13"><rect fill="#F1F1F1" height="48" id="Class13" rx="2.5" ry="2.5" style="stroke:#181818;stroke-width:0.5;" width="83" x="125" y="7"/><ellipse cx="140" cy="23" fill="#ADD1B2" rx="11" ry="11" style="stroke:#181818;stroke-width:1.0;"/><path d="M138.5781,28.3594 Q136.7188,28.3594 135.625,26.9688 Q134.5313,25.5781 134.5313,22.5938 Q134.5313,20.0625 135.6953,18.4063 Q136.8594,16.75 138.8438,16.75 Q140.3125,16.75 140.7813,16.875 Q141.25,17.0781 141.25,17.0781 Q141.25,17.0781 141.25,17.0078 Q141.25,16.9375 141.8594,16.0156 L142.9063,19.6719 L141.5781,20.0781 Q141.1094,18.5313 140.4453,17.8672 Q139.7813,17.2031 138.7188,17.2031 Q138.3281,17.2031 137.5625,18.7344 Q136.7969,20.2656 136.7969,22.5156 Q136.7969,24.9844 137.4609,26.375 Q138.125,27.7656 138.6563,27.7656 Q139.7188,27.7656 140.4766,27 Q141.2344,26.2344 141.5781,24.5781 L142.9063,25.1719 Q142.5781,26.5781 141.6797,27.4688 Q140.7813,28.3594 138.5781,28.3594 Z " fill="#000000"/><text fill="#000000" font-family="sans-serif" font-size="14" lengthAdjust="spacing" textLength="51" x="154" y="29.4839">Class13</text><line style="stroke:#181818;stroke-width:0.5;" x1="126" x2="207" y1="39" y2="39"/><line style="stroke:#181818;stroke-width:0.5;" x1="126" x2="207" y1="47" y2="47"/></g><!--MD5=[bc7d06e0cc55f79f415c952161bdbc44]
class Class14--><g id="elem_Class14"><rect fill="#F1F1F1" height="48" id="Class14" rx="2.5" ry="2.5" style="stroke:#181818;stroke-width:0.5;" width="83" x="125" y="115"/><ellipse cx="140" cy="131" fill="#ADD1B2" rx="11" ry="11" style="stroke:#181818;stroke-width:1.0;"/><path d="M138.5781,136.3594 Q136.7188,136.3594 135.625,134.9688 Q134.5313,133.5781 134.5313,130.5938 Q134.5313,128.0625 135.6953,126.4063 Q136.8594,124.75 138.8438,124.75 Q140.3125,124.75 140.7813,124.875 Q141.25,125.0781 141.25,125.0781 Q141.25,125.0781 141.25,125.0078 Q141.25,124.9375 141.8594,124.0156 L142.9063,127.6719 L141.5781,128.0781 Q141.1094,126.5313 140.4453,125.8672 Q139.7813,125.2031 138.7188,125.2031 Q138.3281,125.2031 137.5625,126.7344 Q136.7969,128.2656 136.7969,130.5156 Q136.7969,132.9844 137.4609,134.375 Q138.125,135.7656 138.6563,135.7656 Q139.7188,135.7656 140.4766,135 Q141.2344,134.2344 141.5781,132.5781 L142.9063,133.1719 Q142.5781,134.5781 141.6797,135.4688 Q140.7813,136.3594 138.5781,136.3594 Z " fill="#000000"/><text fill="#000000" font-family="sans-serif" font-size="14" lengthAdjust="spacing" textLength="51" x="154" y="137.4839">Class14</text><line style="stroke:#181818;stroke-width:0.5;" x1="126" x2="207" y1="147" y2="147"/><line style="stroke:#181818;stroke-width:0.5;" x1="126" x2="207" y1="155" y2="155"/></g><!--MD5=[8d514fbd4ba9d09d531d2a4441a4eb01]
class Class15--><g id="elem_Class15"><rect fill="#F1F1F1" height="48" id="Class15" rx="2.5" ry="2.5" style="stroke:#181818;stroke-width:0.5;" width="83" x="243" y="7"/><ellipse cx="258" cy="23" fill="#ADD1B2" rx="11" ry="11" style="stroke:#181818;stroke-width:1.0;"/><path d="M256.5781,28.3594 Q254.7188,28.3594 253.625,26.9688 Q252.5313,25.5781 252.5313,22.5938 Q252.5313,20.0625 253.6953,18.4063 Q254.8594,16.75 256.8438,16.75 Q258.3125,16.75 258.7813,16.875 Q259.25,17.0781 259.25,17.0781 Q259.25,17.0781 259.25,17.0078 Q259.25,16.9375 259.8594,16.0156 L260.9063,19.6719 L259.5781,20.0781 Q259.1094,18.5313 258.4453,17.8672 Q257.7813,17.2031 256.7188,17.2031 Q256.3281,17.2031 255.5625,18.7344 Q254.7969,20.2656 254.7969,22.5156 Q254.7969,24.9844 255.4609,26.375 Q256.125,27.7656 256.6563,27.7656 Q257.7188,27.7656 258.4766,27 Q259.2344,26.2344 259.5781,24.5781 L260.9063,25.1719 Q260.5781,26.5781 259.6797,27.4688 Q258.7813,28.3594 256.5781,28.3594 Z " fill="#000000"/><text fill="#000000" font-family="sans-serif" font-size="14" lengthAdjust="spacing" textLength="51" x="272" y="29.4839">Class15</text><line style="stroke:#181818;stroke-width:0.5;" x1="244" x2="325" y1="39" y2="39"/><line style="stroke:#181818;stroke-width:0.5;" x1="244" x2="325" y1="47" y2="47"/></g><!--MD5=[617f30a6d4c314f91b9ee9ca83e6a67e]
class Class16--><g id="elem_Class16"><rect fill="#F1F1F1" height="48" id="Class16" rx="2.5" ry="2.5" style="stroke:#181818;stroke-width:0.5;" width="83" x="243" y="115"/><ellipse cx="258" cy="131" fill="#ADD1B2" rx="11" ry="11" style="stroke:#181818;stroke-width:1.0;"/><path d="M256.5781,136.3594 Q254.7188,136.3594 253.625,134.9688 Q252.5313,133.5781 252.5313,130.5938 Q252.5313,128.0625 253.6953,126.4063 Q254.8594,124.75 256.8438,124.75 Q258.3125,124.75 258.7813,124.875 Q259.25,125.0781 259.25,125.0781 Q259.25,125.0781 259.25,125.0078 Q259.25,124.9375 259.8594,124.0156 L260.9063,127.6719 L259.5781,128.0781 Q259.1094,126.5313 258.4453,125.8672 Q257.7813,125.2031 256.7188,125.2031 Q256.3281,125.2031 255.5625,126.7344 Q254.7969,128.2656 254.7969,130.5156 Q254.7969,132.9844 255.4609,134.375 Q256.125,135.7656 256.6563,135.7656 Q257.7188,135.7656 258.4766,135 Q259.2344,134.2344 259.5781,132.5781 L260.9063,133.1719 Q260.5781,134.5781 259.6797,135.4688 Q258.7813,136.3594 256.5781,136.3594 Z " fill="#000000"/><text fill="#000000" font-family="sans-serif" font-size="14" lengthAdjust="spacing" textLength="51" x="272" y="137.4839">Class16</text><line style="stroke:#181818;stroke-width:0.5;" x1="244" x2="325" y1="147" y2="147"/><line style="stroke:#181818;stroke-width:0.5;" x1="244" x2="325" y1="155" y2="155"/></g><!--MD5=[08b0fba2256d529e16df9117a019891b]
class Class17--><g id="elem_Class17"><rect fill="#F1F1F1" height="48" id="Class17" rx="2.5" ry="2.5" style="stroke:#181818;stroke-width:0.5;" width="83" x="361" y="7"/><ellipse cx="376" cy="23" fill="#ADD1B2" rx="11" ry="11" style="stroke:#181818;stroke-width:1.0;"/><path d="M374.5781,28.3594 Q372.7188,28.3594 371.625,26.9688 Q370.5313,25.5781 370.5313,22.5938 Q370.5313,20.0625 371.6953,18.4063 Q372.8594,16.75 374.8438,16.75 Q376.3125,16.75 376.7813,16.875 Q377.25,17.0781 377.25,17.0781 Q377.25,17.0781 377.25,17.0078 Q377.25,16.9375 377.8594,16.0156 L378.9063,19.6719 L377.5781,20.0781 Q377.1094,18.5313 376.4453,17.8672 Q375.7813,17.2031 374.7188,17.2031 Q374.3281,17.2031 373.5625,18.7344 Q372.7969,20.2656 372.7969,22.5156 Q372.7969,24.9844 373.4609,26.375 Q374.125,27.7656 374.6563,27.7656 Q375.7188,27.7656 376.4766,27 Q377.2344,26.2344 377.5781,24.5781 L378.9063,25.1719 Q378.5781,26.5781 377.6797,27.4688 Q376.7813,28.3594 374.5781,28.3594 Z " fill="#000000"/><text fill="#000000" font-family="sans-serif" font-size="14" lengthAdjust="spacing" textLength="51" x="390" y="29.4839">Class17</text><line style="stroke:#181818;stroke-width:0.5;" x1="362" x2="443" y1="39" y2="39"/><line style="stroke:#181818;stroke-width:0.5;" x1="362" x2="443" y1="47" y2="47"/></g><!--MD5=[1058a0c63729bc739d9c233cb0ed0148]
class Class18--><g id="elem_Class18"><rect fill="#F1F1F1" height="48" id="Class18" rx="2.5" ry="2.5" style="stroke:#181818;stroke-width:0.5;" width="83" x="361" y="115"/><ellipse cx="376" cy="131" fill="#ADD1B2" rx="11" ry="11" style="stroke:#181818;stroke-width:1.0;"/><path d="M374.5781,136.3594 Q372.7188,136.3594 371.625,134.9688 Q370.5313,133.5781 370.5313,130.5938 Q370.5313,128.0625 371.6953,126.4063 Q372.8594,124.75 374.8438,124.75 Q376.3125,124.75 376.7813,124.875 Q377.25,125.0781 377.25,125.0781 Q377.25,125.0781 377.25,125.0078 Q377.25,124.9375 377.8594,124.0156 L378.9063,127.6719 L377.5781,128.0781 Q377.1094,126.5313 376.4453,125.8672 Q375.7813,125.2031 374.7188,125.2031 Q374.3281,125.2031 373.5625,126.7344 Q372.7969,128.2656 372.7969,130.5156 Q372.7969,132.9844 373.4609,134.375 Q374.125,135.7656 374.6563,135.7656 Q375.7188,135.7656 376.4766,135 Q377.2344,134.2344 377.5781,132.5781 L378.9063,133.1719 Q378.5781,134.5781 377.6797,135.4688 Q376.7813,136.3594 374.5781,136.3594 Z " fill="#000000"/><text fill="#000000" font-family="sans-serif" font-size="14" lengthAdjust="spacing" textLength="51" x="390" y="137.4839">Class18</text><line style="stroke:#181818;stroke-width:0.5;" x1="362" x2="443" y1="147" y2="147"/><line style="stroke:#181818;stroke-width:0.5;" x1="362" x2="443" y1="155" y2="155"/></g><!--MD5=[9309bb34c6cefbbbf3de79185297dfbb]
class Class19--><g id="elem_Class19"><rect fill="#F1F1F1" height="48" id="Class19" rx="2.5" ry="2.5" style="stroke:#181818;stroke-width:0.5;" width="83" x="479" y="7"/><ellipse cx="494" cy="23" fill="#ADD1B2" rx="11" ry="11" style="stroke:#181818;stroke-width:1.0;"/><path d="M492.5781,28.3594 Q490.7188,28.3594 489.625,26.9688 Q488.5313,25.5781 488.5313,22.5938 Q488.5313,20.0625 489.6953,18.4063 Q490.8594,16.75 492.8438,16.75 Q494.3125,16.75 494.7813,16.875 Q495.25,17.0781 495.25,17.0781 Q495.25,17.0781 495.25,17.0078 Q495.25,16.9375 495.8594,16.0156 L496.9063,19.6719 L495.5781,20.0781 Q495.1094,18.5313 494.4453,17.8672 Q493.7813,17.2031 492.7188,17.2031 Q492.3281,17.2031 491.5625,18.7344 Q490.7969,20.2656 490.7969,22.5156 Q490.7969,24.9844 491.4609,26.375 Q492.125,27.7656 492.6563,27.7656 Q493.7188,27.7656 494.4766,27 Q495.2344,26.2344 495.5781,24.5781 L496.9063,25.1719 Q496.5781,26.5781 495.6797,27.4688 Q494.7813,28.3594 492.5781,28.3594 Z " fill="#000000"/><text fill="#000000" font-family="sans-serif" font-size="14" lengthAdjust="spacing" textLength="51" x="508" y="29.4839">Class19</text><line style="stroke:#181818;stroke-width:0.5;" x1="480" x2="561" y1="39" y2="39"/><line style="stroke:#181818;stroke-width:0.5;" x1="480" x2="561" y1="47" y2="47"/></g><!--MD5=[be399d25d256ce7934dab4d8ea1afc41]
class Class20--><g id="elem_Class20"><rect fill="#F1F1F1" height="48" id="Class20" rx="2.5" ry="2.5" style="stroke:#181818;stroke-width:0.5;" width="83" x="479" y="115"/><ellipse cx="494" cy="131" fill="#ADD1B2" rx="11" ry="11" style="stroke:#181818;stroke-width:1.0;"/><path d="M492.5781,136.3594 Q490.7188,136.3594 489.625,134.9688 Q488.5313,133.5781 488.5313,130.5938 Q488.5313,128.0625 489.6953,126.4063 Q490.8594,124.75 492.8438,124.75 Q494.3125,124.75 494.7813,124.875 Q495.25,125.0781 495.25,125.0781 Q495.25,125.0781 495.25,125.0078 Q495.25,124.9375 495.8594,124.0156 L496.9063,127.6719 L495.5781,128.0781 Q495.1094,126.5313 494.4453,125.8672 Q493.7813,125.2031 492.7188,125.2031 Q492.3281,125.2031 491.5625,126.7344 Q490.7969,128.2656 490.7969,130.5156 Q490.7969,132.9844 491.4609,134.375 Q492.125,135.7656 492.6563,135.7656 Q493.7188,135.7656 494.4766,135 Q495.2344,134.2344 495.5781,132.5781 L496.9063,133.1719 Q496.5781,134.5781 495.6797,135.4688 Q494.7813,136.3594 492.5781,136.3594 Z " fill="#000000"/><text fill="#000000" font-family="sans-serif" font-size="14" lengthAdjust="spacing" textLength="51" x="508" y="137.4839">Class20</text><line style="stroke:#181818;stroke-width:0.5;" x1="480" x2="561" y1="147" y2="147"/><line style="stroke:#181818;stroke-width:0.5;" x1="480" x2="561" y1="155" y2="155"/></g><!--MD5=[85420cca70317e45b4714be884db1ea6]
reverse link Class11 to Class12--><g id="link_Class11_Class12"><path codeLine="1" d="M48.5,75.0236 C48.5,88.5792 48.5,103.0381 48.5,114.6784 " fill="none" id="Class11-backto-Class12" style="stroke:#181818;stroke-width:1.0;stroke-dasharray:7.0,7.0;"/><polygon fill="none" points="41.5001,75.0005,48.5,55,55.5001,75.0004,41.5001,75.0005" style="stroke:#181818;stroke-width:1.0;"/></g><!--MD5=[ead1d942c5dc0978cb15bbb3fc64003d]
link Class13 to Class14--><g id="link_Class13_Class14"><path codeLine="2" d="M166.5,55 C166.5,71.003 166.5,92.4461 166.5,109.528 " fill="none" id="Class13-to-Class14" style="stroke:#181818;stroke-width:1.0;"/><polygon fill="#181818" points="166.5,114.6784,170.5,105.6784,166.5,109.6784,162.5,105.6784,166.5,114.6784" style="stroke:#181818;stroke-width:1.0;"/></g><!--MD5=[72c17e74b6841faf995de9bc874019c8]
link Class15 to Class16--><g id="link_Class15_Class16"><path codeLine="3" d="M284.5,55 C284.5,71.003 284.5,92.4461 284.5,109.528 " fill="none" id="Class15-to-Class16" style="stroke:#181818;stroke-width:1.0;stroke-dasharray:7.0,7.0;"/><polygon fill="#181818" points="284.5,114.6784,288.5,105.6784,284.5,109.6784,280.5,105.6784,284.5,114.6784" style="stroke:#181818;stroke-width:1.0;"/></g><!--MD5=[9ffe5c3b519601f98fb86bc55e94740e]
link Class17 to Class18--><g id="link_Class17_Class18"><path codeLine="4" d="M402.5,55 C402.5,66.5885 402.5,81.0294 402.5,94.6013 " fill="none" id="Class17-to-Class18" style="stroke:#181818;stroke-width:1.0;stroke-dasharray:7.0,7.0;"/><polygon fill="none" points="409.5,94.6785,402.5,114.6784,395.5,94.6784,409.5,94.6785" style="stroke:#181818;stroke-width:1.0;"/></g><!--MD5=[a797f665ec863c731402349a4e215ad5]
link Class19 to Class20--><g id="link_Class19_Class20"><path codeLine="5" d="M520.5,68.3383 C520.5,79.0064 520.5,102.6784 520.5,102.6784 " fill="none" id="Class19-Class20" style="stroke:#181818;stroke-width:1.0;"/><polygon fill="#181818" points="520.5,114.6784,524.5,108.6784,520.5,102.6784,516.5,108.6784,520.5,114.6784" style="stroke:#181818;stroke-width:1.0;"/><polygon fill="#181818" points="520.5,55,516.5,64,520.5,60,524.5,64,520.5,55" style="stroke:#181818;stroke-width:1.0;"/><line style="stroke:#181818;stroke-width:1.0;" x1="520.5" x2="520.5" y1="60" y2="68.0005"/></g><!--MD5=[e0e7d949ac532bdc722ca0d1acd1e418]
@startuml
Class11 <|.. Class12
Class13 - -> Class14
Class15 ..> Class16
Class17 ..|> Class18
Class19 <- -* Class20
@enduml

PlantUML version 1.2022.4(Sat Apr 09 21:29:17 CST 2022)
(GPL source distribution)
Java Runtime: Java(TM) SE Runtime Environment
JVM: Java HotSpot(TM) 64-Bit Server VM
Default Encoding: GBK
Language: zh
Country: CN
--></g></svg>