<?xml version="1.0" encoding="UTF-8" standalone="no"?><svg xmlns="http://www.w3.org/2000/svg" xmlns:xlink="http://www.w3.org/1999/xlink" contentStyleType="text/css" height="170px" preserveAspectRatio="none" style="width:569px;height:170px;background:#FFFFFF;" version="1.1" viewBox="0 0 569 170" width="569px" zoomAndPan="magnify"><defs/><g><!--MD5=[011e2e0423cff023e179519d73dacea3]
class Class21--><g id="elem_Class21"><rect fill="#F1F1F1" height="48" id="Class21" rx="2.5" ry="2.5" style="stroke:#181818;stroke-width:0.5;" width="83" x="7" y="7"/><ellipse cx="22" cy="23" fill="#ADD1B2" rx="11" ry="11" style="stroke:#181818;stroke-width:1.0;"/><path d="M20.5781,28.3594 Q18.7188,28.3594 17.625,26.9688 Q16.5313,25.5781 16.5313,22.5938 Q16.5313,20.0625 17.6953,18.4063 Q18.8594,16.75 20.8438,16.75 Q22.3125,16.75 22.7813,16.875 Q23.25,17.0781 23.25,17.0781 Q23.25,17.0781 23.25,17.0078 Q23.25,16.9375 23.8594,16.0156 L24.9063,19.6719 L23.5781,20.0781 Q23.1094,18.5313 22.4453,17.8672 Q21.7813,17.2031 20.7188,17.2031 Q20.3281,17.2031 19.5625,18.7344 Q18.7969,20.2656 18.7969,22.5156 Q18.7969,24.9844 19.4609,26.375 Q20.125,27.7656 20.6563,27.7656 Q21.7188,27.7656 22.4766,27 Q23.2344,26.2344 23.5781,24.5781 L24.9063,25.1719 Q24.5781,26.5781 23.6797,27.4688 Q22.7813,28.3594 20.5781,28.3594 Z " fill="#000000"/><text fill="#000000" font-family="sans-serif" font-size="14" lengthAdjust="spacing" textLength="51" x="36" y="29.4839">Class21</text><line style="stroke:#181818;stroke-width:0.5;" x1="8" x2="89" y1="39" y2="39"/><line style="stroke:#181818;stroke-width:0.5;" x1="8" x2="89" y1="47" y2="47"/></g><!--MD5=[10def4de1aa8ea9dee4624e298d041e0]
class Class22--><g id="elem_Class22"><rect fill="#F1F1F1" height="48" id="Class22" rx="2.5" ry="2.5" style="stroke:#181818;stroke-width:0.5;" width="83" x="7" y="115"/><ellipse cx="22" cy="131" fill="#ADD1B2" rx="11" ry="11" style="stroke:#181818;stroke-width:1.0;"/><path d="M20.5781,136.3594 Q18.7188,136.3594 17.625,134.9688 Q16.5313,133.5781 16.5313,130.5938 Q16.5313,128.0625 17.6953,126.4063 Q18.8594,124.75 20.8438,124.75 Q22.3125,124.75 22.7813,124.875 Q23.25,125.0781 23.25,125.0781 Q23.25,125.0781 23.25,125.0078 Q23.25,124.9375 23.8594,124.0156 L24.9063,127.6719 L23.5781,128.0781 Q23.1094,126.5313 22.4453,125.8672 Q21.7813,125.2031 20.7188,125.2031 Q20.3281,125.2031 19.5625,126.7344 Q18.7969,128.2656 18.7969,130.5156 Q18.7969,132.9844 19.4609,134.375 Q20.125,135.7656 20.6563,135.7656 Q21.7188,135.7656 22.4766,135 Q23.2344,134.2344 23.5781,132.5781 L24.9063,133.1719 Q24.5781,134.5781 23.6797,135.4688 Q22.7813,136.3594 20.5781,136.3594 Z " fill="#000000"/><text fill="#000000" font-family="sans-serif" font-size="14" lengthAdjust="spacing" textLength="51" x="36" y="137.4839">Class22</text><line style="stroke:#181818;stroke-width:0.5;" x1="8" x2="89" y1="147" y2="147"/><line style="stroke:#181818;stroke-width:0.5;" x1="8" x2="89" y1="155" y2="155"/></g><!--MD5=[df75db3d4793d7e6d49511674337b995]
class Class23--><g id="elem_Class23"><rect fill="#F1F1F1" height="48" id="Class23" rx="2.5" ry="2.5" style="stroke:#181818;stroke-width:0.5;" width="83" x="125" y="7"/><ellipse cx="140" cy="23" fill="#ADD1B2" rx="11" ry="11" style="stroke:#181818;stroke-width:1.0;"/><path d="M138.5781,28.3594 Q136.7188,28.3594 135.625,26.9688 Q134.5313,25.5781 134.5313,22.5938 Q134.5313,20.0625 135.6953,18.4063 Q136.8594,16.75 138.8438,16.75 Q140.3125,16.75 140.7813,16.875 Q141.25,17.0781 141.25,17.0781 Q141.25,17.0781 141.25,17.0078 Q141.25,16.9375 141.8594,16.0156 L142.9063,19.6719 L141.5781,20.0781 Q141.1094,18.5313 140.4453,17.8672 Q139.7813,17.2031 138.7188,17.2031 Q138.3281,17.2031 137.5625,18.7344 Q136.7969,20.2656 136.7969,22.5156 Q136.7969,24.9844 137.4609,26.375 Q138.125,27.7656 138.6563,27.7656 Q139.7188,27.7656 140.4766,27 Q141.2344,26.2344 141.5781,24.5781 L142.9063,25.1719 Q142.5781,26.5781 141.6797,27.4688 Q140.7813,28.3594 138.5781,28.3594 Z " fill="#000000"/><text fill="#000000" font-family="sans-serif" font-size="14" lengthAdjust="spacing" textLength="51" x="154" y="29.4839">Class23</text><line style="stroke:#181818;stroke-width:0.5;" x1="126" x2="207" y1="39" y2="39"/><line style="stroke:#181818;stroke-width:0.5;" x1="126" x2="207" y1="47" y2="47"/></g><!--MD5=[c077772590c577c51b74652b4e954594]
class Class24--><g id="elem_Class24"><rect fill="#F1F1F1" height="48" id="Class24" rx="2.5" ry="2.5" style="stroke:#181818;stroke-width:0.5;" width="83" x="125" y="115"/><ellipse cx="140" cy="131" fill="#ADD1B2" rx="11" ry="11" style="stroke:#181818;stroke-width:1.0;"/><path d="M138.5781,136.3594 Q136.7188,136.3594 135.625,134.9688 Q134.5313,133.5781 134.5313,130.5938 Q134.5313,128.0625 135.6953,126.4063 Q136.8594,124.75 138.8438,124.75 Q140.3125,124.75 140.7813,124.875 Q141.25,125.0781 141.25,125.0781 Q141.25,125.0781 141.25,125.0078 Q141.25,124.9375 141.8594,124.0156 L142.9063,127.6719 L141.5781,128.0781 Q141.1094,126.5313 140.4453,125.8672 Q139.7813,125.2031 138.7188,125.2031 Q138.3281,125.2031 137.5625,126.7344 Q136.7969,128.2656 136.7969,130.5156 Q136.7969,132.9844 137.4609,134.375 Q138.125,135.7656 138.6563,135.7656 Q139.7188,135.7656 140.4766,135 Q141.2344,134.2344 141.5781,132.5781 L142.9063,133.1719 Q142.5781,134.5781 141.6797,135.4688 Q140.7813,136.3594 138.5781,136.3594 Z " fill="#000000"/><text fill="#000000" font-family="sans-serif" font-size="14" lengthAdjust="spacing" textLength="51" x="154" y="137.4839">Class24</text><line style="stroke:#181818;stroke-width:0.5;" x1="126" x2="207" y1="147" y2="147"/><line style="stroke:#181818;stroke-width:0.5;" x1="126" x2="207" y1="155" y2="155"/></g><!--MD5=[1dc92daa845fb545c598ddc0b755cbde]
class Class25--><g id="elem_Class25"><rect fill="#F1F1F1" height="48" id="Class25" rx="2.5" ry="2.5" style="stroke:#181818;stroke-width:0.5;" width="83" x="243" y="7"/><ellipse cx="258" cy="23" fill="#ADD1B2" rx="11" ry="11" style="stroke:#181818;stroke-width:1.0;"/><path d="M256.5781,28.3594 Q254.7188,28.3594 253.625,26.9688 Q252.5313,25.5781 252.5313,22.5938 Q252.5313,20.0625 253.6953,18.4063 Q254.8594,16.75 256.8438,16.75 Q258.3125,16.75 258.7813,16.875 Q259.25,17.0781 259.25,17.0781 Q259.25,17.0781 259.25,17.0078 Q259.25,16.9375 259.8594,16.0156 L260.9063,19.6719 L259.5781,20.0781 Q259.1094,18.5313 258.4453,17.8672 Q257.7813,17.2031 256.7188,17.2031 Q256.3281,17.2031 255.5625,18.7344 Q254.7969,20.2656 254.7969,22.5156 Q254.7969,24.9844 255.4609,26.375 Q256.125,27.7656 256.6563,27.7656 Q257.7188,27.7656 258.4766,27 Q259.2344,26.2344 259.5781,24.5781 L260.9063,25.1719 Q260.5781,26.5781 259.6797,27.4688 Q258.7813,28.3594 256.5781,28.3594 Z " fill="#000000"/><text fill="#000000" font-family="sans-serif" font-size="14" lengthAdjust="spacing" textLength="51" x="272" y="29.4839">Class25</text><line style="stroke:#181818;stroke-width:0.5;" x1="244" x2="325" y1="39" y2="39"/><line style="stroke:#181818;stroke-width:0.5;" x1="244" x2="325" y1="47" y2="47"/></g><!--MD5=[b158db381d3d14e74b19991825b46915]
class Class26--><g id="elem_Class26"><rect fill="#F1F1F1" height="48" id="Class26" rx="2.5" ry="2.5" style="stroke:#181818;stroke-width:0.5;" width="83" x="243" y="115"/><ellipse cx="258" cy="131" fill="#ADD1B2" rx="11" ry="11" style="stroke:#181818;stroke-width:1.0;"/><path d="M256.5781,136.3594 Q254.7188,136.3594 253.625,134.9688 Q252.5313,133.5781 252.5313,130.5938 Q252.5313,128.0625 253.6953,126.4063 Q254.8594,124.75 256.8438,124.75 Q258.3125,124.75 258.7813,124.875 Q259.25,125.0781 259.25,125.0781 Q259.25,125.0781 259.25,125.0078 Q259.25,124.9375 259.8594,124.0156 L260.9063,127.6719 L259.5781,128.0781 Q259.1094,126.5313 258.4453,125.8672 Q257.7813,125.2031 256.7188,125.2031 Q256.3281,125.2031 255.5625,126.7344 Q254.7969,128.2656 254.7969,130.5156 Q254.7969,132.9844 255.4609,134.375 Q256.125,135.7656 256.6563,135.7656 Q257.7188,135.7656 258.4766,135 Q259.2344,134.2344 259.5781,132.5781 L260.9063,133.1719 Q260.5781,134.5781 259.6797,135.4688 Q258.7813,136.3594 256.5781,136.3594 Z " fill="#000000"/><text fill="#000000" font-family="sans-serif" font-size="14" lengthAdjust="spacing" textLength="51" x="272" y="137.4839">Class26</text><line style="stroke:#181818;stroke-width:0.5;" x1="244" x2="325" y1="147" y2="147"/><line style="stroke:#181818;stroke-width:0.5;" x1="244" x2="325" y1="155" y2="155"/></g><!--MD5=[c2639ace9435132ce41cace2d1907659]
class Class27--><g id="elem_Class27"><rect fill="#F1F1F1" height="48" id="Class27" rx="2.5" ry="2.5" style="stroke:#181818;stroke-width:0.5;" width="83" x="361" y="7"/><ellipse cx="376" cy="23" fill="#ADD1B2" rx="11" ry="11" style="stroke:#181818;stroke-width:1.0;"/><path d="M374.5781,28.3594 Q372.7188,28.3594 371.625,26.9688 Q370.5313,25.5781 370.5313,22.5938 Q370.5313,20.0625 371.6953,18.4063 Q372.8594,16.75 374.8438,16.75 Q376.3125,16.75 376.7813,16.875 Q377.25,17.0781 377.25,17.0781 Q377.25,17.0781 377.25,17.0078 Q377.25,16.9375 377.8594,16.0156 L378.9063,19.6719 L377.5781,20.0781 Q377.1094,18.5313 376.4453,17.8672 Q375.7813,17.2031 374.7188,17.2031 Q374.3281,17.2031 373.5625,18.7344 Q372.7969,20.2656 372.7969,22.5156 Q372.7969,24.9844 373.4609,26.375 Q374.125,27.7656 374.6563,27.7656 Q375.7188,27.7656 376.4766,27 Q377.2344,26.2344 377.5781,24.5781 L378.9063,25.1719 Q378.5781,26.5781 377.6797,27.4688 Q376.7813,28.3594 374.5781,28.3594 Z " fill="#000000"/><text fill="#000000" font-family="sans-serif" font-size="14" lengthAdjust="spacing" textLength="51" x="390" y="29.4839">Class27</text><line style="stroke:#181818;stroke-width:0.5;" x1="362" x2="443" y1="39" y2="39"/><line style="stroke:#181818;stroke-width:0.5;" x1="362" x2="443" y1="47" y2="47"/></g><!--MD5=[b37eac0e237a046edc243e5aa39f4d4e]
class Class28--><g id="elem_Class28"><rect fill="#F1F1F1" height="48" id="Class28" rx="2.5" ry="2.5" style="stroke:#181818;stroke-width:0.5;" width="83" x="361" y="115"/><ellipse cx="376" cy="131" fill="#ADD1B2" rx="11" ry="11" style="stroke:#181818;stroke-width:1.0;"/><path d="M374.5781,136.3594 Q372.7188,136.3594 371.625,134.9688 Q370.5313,133.5781 370.5313,130.5938 Q370.5313,128.0625 371.6953,126.4063 Q372.8594,124.75 374.8438,124.75 Q376.3125,124.75 376.7813,124.875 Q377.25,125.0781 377.25,125.0781 Q377.25,125.0781 377.25,125.0078 Q377.25,124.9375 377.8594,124.0156 L378.9063,127.6719 L377.5781,128.0781 Q377.1094,126.5313 376.4453,125.8672 Q375.7813,125.2031 374.7188,125.2031 Q374.3281,125.2031 373.5625,126.7344 Q372.7969,128.2656 372.7969,130.5156 Q372.7969,132.9844 373.4609,134.375 Q374.125,135.7656 374.6563,135.7656 Q375.7188,135.7656 376.4766,135 Q377.2344,134.2344 377.5781,132.5781 L378.9063,133.1719 Q378.5781,134.5781 377.6797,135.4688 Q376.7813,136.3594 374.5781,136.3594 Z " fill="#000000"/><text fill="#000000" font-family="sans-serif" font-size="14" lengthAdjust="spacing" textLength="51" x="390" y="137.4839">Class28</text><line style="stroke:#181818;stroke-width:0.5;" x1="362" x2="443" y1="147" y2="147"/><line style="stroke:#181818;stroke-width:0.5;" x1="362" x2="443" y1="155" y2="155"/></g><!--MD5=[c113ad4c6d26a1d68474a1957a07010e]
class Class29--><g id="elem_Class29"><rect fill="#F1F1F1" height="48" id="Class29" rx="2.5" ry="2.5" style="stroke:#181818;stroke-width:0.5;" width="83" x="479" y="7"/><ellipse cx="494" cy="23" fill="#ADD1B2" rx="11" ry="11" style="stroke:#181818;stroke-width:1.0;"/><path d="M492.5781,28.3594 Q490.7188,28.3594 489.625,26.9688 Q488.5313,25.5781 488.5313,22.5938 Q488.5313,20.0625 489.6953,18.4063 Q490.8594,16.75 492.8438,16.75 Q494.3125,16.75 494.7813,16.875 Q495.25,17.0781 495.25,17.0781 Q495.25,17.0781 495.25,17.0078 Q495.25,16.9375 495.8594,16.0156 L496.9063,19.6719 L495.5781,20.0781 Q495.1094,18.5313 494.4453,17.8672 Q493.7813,17.2031 492.7188,17.2031 Q492.3281,17.2031 491.5625,18.7344 Q490.7969,20.2656 490.7969,22.5156 Q490.7969,24.9844 491.4609,26.375 Q492.125,27.7656 492.6563,27.7656 Q493.7188,27.7656 494.4766,27 Q495.2344,26.2344 495.5781,24.5781 L496.9063,25.1719 Q496.5781,26.5781 495.6797,27.4688 Q494.7813,28.3594 492.5781,28.3594 Z " fill="#000000"/><text fill="#000000" font-family="sans-serif" font-size="14" lengthAdjust="spacing" textLength="51" x="508" y="29.4839">Class29</text><line style="stroke:#181818;stroke-width:0.5;" x1="480" x2="561" y1="39" y2="39"/><line style="stroke:#181818;stroke-width:0.5;" x1="480" x2="561" y1="47" y2="47"/></g><!--MD5=[28b8faea6e5b4f80fbadc78a78431e7d]
class Class30--><g id="elem_Class30"><rect fill="#F1F1F1" height="48" id="Class30" rx="2.5" ry="2.5" style="stroke:#181818;stroke-width:0.5;" width="83" x="479" y="115"/><ellipse cx="494" cy="131" fill="#ADD1B2" rx="11" ry="11" style="stroke:#181818;stroke-width:1.0;"/><path d="M492.5781,136.3594 Q490.7188,136.3594 489.625,134.9688 Q488.5313,133.5781 488.5313,130.5938 Q488.5313,128.0625 489.6953,126.4063 Q490.8594,124.75 492.8438,124.75 Q494.3125,124.75 494.7813,124.875 Q495.25,125.0781 495.25,125.0781 Q495.25,125.0781 495.25,125.0078 Q495.25,124.9375 495.8594,124.0156 L496.9063,127.6719 L495.5781,128.0781 Q495.1094,126.5313 494.4453,125.8672 Q493.7813,125.2031 492.7188,125.2031 Q492.3281,125.2031 491.5625,126.7344 Q490.7969,128.2656 490.7969,130.5156 Q490.7969,132.9844 491.4609,134.375 Q492.125,135.7656 492.6563,135.7656 Q493.7188,135.7656 494.4766,135 Q495.2344,134.2344 495.5781,132.5781 L496.9063,133.1719 Q496.5781,134.5781 495.6797,135.4688 Q494.7813,136.3594 492.5781,136.3594 Z " fill="#000000"/><text fill="#000000" font-family="sans-serif" font-size="14" lengthAdjust="spacing" textLength="51" x="508" y="137.4839">Class30</text><line style="stroke:#181818;stroke-width:0.5;" x1="480" x2="561" y1="147" y2="147"/><line style="stroke:#181818;stroke-width:0.5;" x1="480" x2="561" y1="155" y2="155"/></g><!--MD5=[017ac161609e88e9cdad34c45ac09b6c]
reverse link Class21 to Class22--><g id="link_Class21_Class22"><path codeLine="1" d="M48.5,60.131 C48.5,77.1538 48.5,98.6037 48.5,114.6784 " fill="none" id="Class21-backto-Class22" style="stroke:#181818;stroke-width:1.0;"/><rect fill="#FFFFFF" height="10" style="stroke:#181818;stroke-width:1.5;" width="10" x="43.5" y="50"/></g><!--MD5=[af99e160792236aa495166cd04bd5868]
reverse link Class23 to Class24--><g id="link_Class23_Class24"><path codeLine="2" d="M166.5,60.131 C166.5,77.1538 166.5,98.6037 166.5,114.6784 " fill="none" id="Class23-backto-Class24" style="stroke:#181818;stroke-width:1.0;"/><path d="M162.5,60 L170.5,68 M170.5,60 L162.5,68 " fill="none" style="stroke:#181818;stroke-width:1.0;"/></g><!--MD5=[1ecd53ec5a3f20e15285d76ef8d7999a]
reverse link Class25 to Class26--><g id="link_Class25_Class26"><path codeLine="3" d="M284.5,63.2585 C284.5,79.723 284.5,99.5737 284.5,114.6784 " fill="none" id="Class25-backto-Class26" style="stroke:#181818;stroke-width:1.0;"/><line style="stroke:#181818;stroke-width:1.0;" x1="284.5" x2="276.5" y1="63" y2="55"/><line style="stroke:#181818;stroke-width:1.0;" x1="284.5" x2="292.5" y1="63" y2="55"/><line style="stroke:#181818;stroke-width:1.0;" x1="284.5" x2="284.5" y1="63" y2="55"/></g><!--MD5=[3539615a449500b61ff9654087e053e5]
reverse link Class27 to Class28--><g id="link_Class27_Class28"><path codeLine="4" d="M402.5,70.227 C402.5,85.0966 402.5,101.6523 402.5,114.6784 " fill="none" id="Class27-backto-Class28" style="stroke:#181818;stroke-width:1.0;"/><ellipse cx="402.5001" cy="63" fill="#FFFFFF" rx="8" ry="8" style="stroke:#181818;stroke-width:1.0;"/><line style="stroke:#181818;stroke-width:1.0;" x1="402.5002" x2="402.5" y1="71" y2="55"/><line style="stroke:#181818;stroke-width:1.0;" x1="394.5001" x2="410.5001" y1="63.0001" y2="62.9999"/></g><!--MD5=[ce717df8e840d82cad1e18951c613759]
reverse link Class29 to Class30--><g id="link_Class29_Class30"><path codeLine="5" d="M520.5,75.0236 C520.5,88.5792 520.5,103.0381 520.5,114.6784 " fill="none" id="Class29-backto-Class30" style="stroke:#181818;stroke-width:1.0;"/><polygon fill="none" points="513.5,75.0005,520.5,55,527.5,75.0004,513.5,75.0005" style="stroke:#181818;stroke-width:1.0;"/></g><!--MD5=[fc3287657f54b28f61d5c8c76b8cae91]
@startuml
Class21 #- - Class22
Class23 x- - Class24
Class25 }- - Class26
Class27 +- - Class28
Class29 ^- - Class30
@enduml

PlantUML version 1.2022.4(Sat Apr 09 21:29:17 CST 2022)
(GPL source distribution)
Java Runtime: Java(TM) SE Runtime Environment
JVM: Java HotSpot(TM) 64-Bit Server VM
Default Encoding: GBK
Language: zh
Country: CN
--></g></svg>