<?xml version="1.0" encoding="UTF-8" standalone="no"?><svg xmlns="http://www.w3.org/2000/svg" xmlns:xlink="http://www.w3.org/1999/xlink" contentStyleType="text/css" height="203px" preserveAspectRatio="none" style="width:242px;height:203px;background:#FFFFFF;" version="1.1" viewBox="0 0 242 203" width="242px" zoomAndPan="magnify"><defs/><g><!--MD5=[b2f23c4a06b9bc4c947f037f864aea3c]
class Class01--><g id="elem_Class01"><rect fill="#F5DEB3" height="61.5088" id="Class01" rx="2.5" ry="2.5" style="stroke:#FF6347;stroke-width:0.5;" width="83" x="7" y="7"/><ellipse cx="22" cy="29.7544" fill="#ADD1B2" rx="11" ry="11" style="stroke:#181818;stroke-width:1.0;"/><path d="M20.5781,35.1138 Q18.7188,35.1138 17.625,33.7231 Q16.5313,32.3325 16.5313,29.3481 Q16.5313,26.8169 17.6953,25.1606 Q18.8594,23.5044 20.8438,23.5044 Q22.3125,23.5044 22.7813,23.6294 Q23.25,23.8325 23.25,23.8325 Q23.25,23.8325 23.25,23.7622 Q23.25,23.6919 23.8594,22.77 L24.9063,26.4263 L23.5781,26.8325 Q23.1094,25.2856 22.4453,24.6216 Q21.7813,23.9575 20.7188,23.9575 Q20.3281,23.9575 19.5625,25.4888 Q18.7969,27.02 18.7969,29.27 Q18.7969,31.7388 19.4609,33.1294 Q20.125,34.52 20.6563,34.52 Q21.7188,34.52 22.4766,33.7544 Q23.2344,32.9888 23.5781,31.3325 L24.9063,31.9263 Q24.5781,33.3325 23.6797,34.2231 Q22.7813,35.1138 20.5781,35.1138 Z " fill="#000000"/><text fill="#000000" font-family="sans-serif" font-size="12" font-style="italic" lengthAdjust="spacing" textLength="35" x="44" y="25.752">«Foo»</text><text fill="#000000" font-family="sans-serif" font-size="14" lengthAdjust="spacing" textLength="51" x="36" y="44.4326">Class01</text><line style="stroke:#FF6347;stroke-width:0.5;" x1="8" x2="89" y1="52.5088" y2="52.5088"/><line style="stroke:#FF6347;stroke-width:0.5;" x1="8" x2="89" y1="60.5088" y2="60.5088"/></g><!--MD5=[e34eefe962fcadefcbf83660cc436420]
class Class03--><g id="elem_Class03"><rect fill="#F5DEB3" height="61.5088" id="Class03" rx="2.5" ry="2.5" style="stroke:#FF6347;stroke-width:0.5;" width="83" x="125" y="7"/><ellipse cx="140" cy="29.7544" fill="#ADD1B2" rx="11" ry="11" style="stroke:#181818;stroke-width:1.0;"/><path d="M138.5781,35.1138 Q136.7188,35.1138 135.625,33.7231 Q134.5313,32.3325 134.5313,29.3481 Q134.5313,26.8169 135.6953,25.1606 Q136.8594,23.5044 138.8438,23.5044 Q140.3125,23.5044 140.7813,23.6294 Q141.25,23.8325 141.25,23.8325 Q141.25,23.8325 141.25,23.7622 Q141.25,23.6919 141.8594,22.77 L142.9063,26.4263 L141.5781,26.8325 Q141.1094,25.2856 140.4453,24.6216 Q139.7813,23.9575 138.7188,23.9575 Q138.3281,23.9575 137.5625,25.4888 Q136.7969,27.02 136.7969,29.27 Q136.7969,31.7388 137.4609,33.1294 Q138.125,34.52 138.6563,34.52 Q139.7188,34.52 140.4766,33.7544 Q141.2344,32.9888 141.5781,31.3325 L142.9063,31.9263 Q142.5781,33.3325 141.6797,34.2231 Q140.7813,35.1138 138.5781,35.1138 Z " fill="#000000"/><text fill="#000000" font-family="sans-serif" font-size="12" font-style="italic" lengthAdjust="spacing" textLength="35" x="162" y="25.752">«Foo»</text><text fill="#000000" font-family="sans-serif" font-size="14" lengthAdjust="spacing" textLength="51" x="154" y="44.4326">Class03</text><line style="stroke:#FF6347;stroke-width:0.5;" x1="126" x2="207" y1="52.5088" y2="52.5088"/><line style="stroke:#FF6347;stroke-width:0.5;" x1="126" x2="207" y1="60.5088" y2="60.5088"/></g><!--MD5=[67b7f66b9c6b27d60ed6d0424460c06c]
class Class02--><g id="elem_Class02"><rect fill="#98FB98" height="48" id="Class02" rx="2.5" ry="2.5" style="stroke:#00FF7F;stroke-width:0.5;" width="83" x="7" y="148"/><ellipse cx="22" cy="164" fill="#ADD1B2" rx="11" ry="11" style="stroke:#181818;stroke-width:1.0;"/><path d="M20.5781,169.3594 Q18.7188,169.3594 17.625,167.9688 Q16.5313,166.5781 16.5313,163.5938 Q16.5313,161.0625 17.6953,159.4063 Q18.8594,157.75 20.8438,157.75 Q22.3125,157.75 22.7813,157.875 Q23.25,158.0781 23.25,158.0781 Q23.25,158.0781 23.25,158.0078 Q23.25,157.9375 23.8594,157.0156 L24.9063,160.6719 L23.5781,161.0781 Q23.1094,159.5313 22.4453,158.8672 Q21.7813,158.2031 20.7188,158.2031 Q20.3281,158.2031 19.5625,159.7344 Q18.7969,161.2656 18.7969,163.5156 Q18.7969,165.9844 19.4609,167.375 Q20.125,168.7656 20.6563,168.7656 Q21.7188,168.7656 22.4766,168 Q23.2344,167.2344 23.5781,165.5781 L24.9063,166.1719 Q24.5781,167.5781 23.6797,168.4688 Q22.7813,169.3594 20.5781,169.3594 Z " fill="#000000"/><text fill="#000000" font-family="sans-serif" font-size="14" lengthAdjust="spacing" textLength="51" x="36" y="170.4839">Class02</text><line style="stroke:#00FF7F;stroke-width:0.5;" x1="8" x2="89" y1="180" y2="180"/><line style="stroke:#00FF7F;stroke-width:0.5;" x1="8" x2="89" y1="188" y2="188"/></g><!--MD5=[d53a23475d458e69a9e37a48405189e2]
class Class04--><g id="elem_Class04"><rect fill="#98FB98" height="48" id="Class04" rx="2.5" ry="2.5" style="stroke:#00FF7F;stroke-width:0.5;" width="83" x="125" y="148"/><ellipse cx="140" cy="164" fill="#ADD1B2" rx="11" ry="11" style="stroke:#181818;stroke-width:1.0;"/><path d="M138.5781,169.3594 Q136.7188,169.3594 135.625,167.9688 Q134.5313,166.5781 134.5313,163.5938 Q134.5313,161.0625 135.6953,159.4063 Q136.8594,157.75 138.8438,157.75 Q140.3125,157.75 140.7813,157.875 Q141.25,158.0781 141.25,158.0781 Q141.25,158.0781 141.25,158.0078 Q141.25,157.9375 141.8594,157.0156 L142.9063,160.6719 L141.5781,161.0781 Q141.1094,159.5313 140.4453,158.8672 Q139.7813,158.2031 138.7188,158.2031 Q138.3281,158.2031 137.5625,159.7344 Q136.7969,161.2656 136.7969,163.5156 Q136.7969,165.9844 137.4609,167.375 Q138.125,168.7656 138.6563,168.7656 Q139.7188,168.7656 140.4766,168 Q141.2344,167.2344 141.5781,165.5781 L142.9063,166.1719 Q142.5781,167.5781 141.6797,168.4688 Q140.7813,169.3594 138.5781,169.3594 Z " fill="#000000"/><text fill="#000000" font-family="sans-serif" font-size="14" lengthAdjust="spacing" textLength="51" x="154" y="170.4839">Class04</text><line style="stroke:#00FF7F;stroke-width:0.5;" x1="126" x2="207" y1="180" y2="180"/><line style="stroke:#00FF7F;stroke-width:0.5;" x1="126" x2="207" y1="188" y2="188"/></g><!--MD5=[3ab52052fd7925c5f64fca5d41d6866e]
reverse link Class01 to Class02--><g id="link_Class01_Class02"><path codeLine="14" d="M48.5,82.298 C48.5,104.1477 48.5,129.7772 48.5,147.8528 " fill="none" id="Class01-backto-Class02" style="stroke:#2E8B57;stroke-width:1.0;"/><polygon fill="#2E8B57" points="48.5,69.283,44.5,75.283,48.5,81.283,52.5,75.283,48.5,69.283" style="stroke:#2E8B57;stroke-width:1.0;"/><text fill="#000000" font-family="sans-serif" font-size="13" lengthAdjust="spacing" textLength="49" x="49.5" y="114.8979">contains</text><text fill="#000000" font-family="sans-serif" font-size="13" lengthAdjust="spacing" textLength="7" x="40.8766" y="91.3782">1</text><text fill="#000000" font-family="sans-serif" font-size="13" lengthAdjust="spacing" textLength="32" x="12.2" y="137.0782">many</text></g><!--MD5=[0815ca07f8d628dc1a46a48ef0cd4c01]
reverse link Class03 to Class04--><g id="link_Class03_Class04"><path codeLine="16" d="M166.5,82.298 C166.5,104.1477 166.5,129.7772 166.5,147.8528 " fill="none" id="Class03-backto-Class04" style="stroke:#2E8B57;stroke-width:1.0;"/><polygon fill="none" points="166.5,69.283,162.5,75.283,166.5,81.283,170.5,75.283,166.5,69.283" style="stroke:#2E8B57;stroke-width:1.0;"/><text fill="#000000" font-family="sans-serif" font-size="13" lengthAdjust="spacing" textLength="67" x="167.5" y="114.8979">aggregation</text></g><!--MD5=[1bd2b396fc10e35329f1b8dc1d5595fe]
@startuml

skinparam class {
	BackgroundColor PaleGreen
	ArrowColor SeaGreen
	BorderColor SpringGreen
	BackgroundColor<<Foo>> Wheat
	BorderColor<<Foo>> Tomato
}
skinparam stereotypeCBackgroundColor YellowGreen
skinparam stereotypeCBackgroundColor<< Foo >> DimGray

Class01 <<Foo>>
Class03 <<Foo>>
Class01 "1" *- - "many" Class02 : contains

Class03 o- - Class04 : aggregation

@enduml

PlantUML version 1.2022.4(Sat Apr 09 21:29:17 CST 2022)
(GPL source distribution)
Java Runtime: Java(TM) SE Runtime Environment
JVM: Java HotSpot(TM) 64-Bit Server VM
Default Encoding: GBK
Language: zh
Country: CN
--></g></svg>