<?xml version="1.0" encoding="UTF-8" standalone="no"?><svg xmlns="http://www.w3.org/2000/svg" xmlns:xlink="http://www.w3.org/1999/xlink" contentStyleType="text/css" height="75px" preserveAspectRatio="none" style="width:205px;height:75px;background:#FFFFFF;" version="1.1" viewBox="0 0 205 75" width="205px" zoomAndPan="magnify"><defs/><g><!--MD5=[f8e092794d52bf9a252466252ae7bd1c]
class System--><g id="elem_System"><rect codeLine="2" fill="#F1F1F1" height="61.5088" id="System" rx="2.5" ry="2.5" style="stroke:#181818;stroke-width:0.5;" width="94" x="7" y="7"/><ellipse cx="22" cy="29.7544" fill="#FF7700" rx="11" ry="11" style="stroke:#A80036;stroke-width:1.0;"/><path d="M20.9844,29.5356 Q19.1875,28.7388 18.5234,28.145 Q17.8594,27.5513 17.8594,26.2856 Q17.8594,25.2856 18.6953,24.395 Q19.5313,23.5044 21.0469,23.5044 Q22.7188,23.5044 23.3125,23.6919 Q23.9063,23.9575 23.9063,23.9575 Q23.9063,23.9575 23.9063,23.8638 Q23.9063,23.77 24.2656,22.7075 L25.1094,26.2231 L23.9219,26.6763 Q23.1719,24.9575 22.5469,24.4575 Q21.9219,23.9575 20.9219,23.9575 Q20.6563,23.9575 20.1953,24.6606 Q19.7344,25.3638 19.7344,26.1606 Q19.7344,26.8794 20.1641,27.3169 Q20.5938,27.7544 22.5156,28.6138 Q24.1094,29.27 24.8047,30.106 Q25.5,30.9419 25.5,32.0669 Q25.5,33.2544 24.6719,34.1841 Q23.8438,35.1138 21.25,35.1138 Q20.5938,35.1138 20.0625,34.8481 Q19.4531,34.6606 19.125,34.6606 Q19.125,34.6606 19.125,34.7935 Q19.125,34.9263 18.3594,35.7388 L17.7344,31.8638 L18.9844,31.4731 Q19.5938,33.395 20.4219,34.0278 Q21.25,34.6606 21.3125,34.6606 Q22.4531,34.6606 23.0156,33.9966 Q23.5781,33.3325 23.5781,32.0669 Q23.5781,31.395 22.9453,30.77 Q22.3125,30.145 20.9844,29.5356 Z " fill="#000000"/><text fill="#000000" font-family="sans-serif" font-size="12" font-style="italic" lengthAdjust="spacing" textLength="66" x="34" y="25.752">«Singleton»</text><text fill="#000000" font-family="sans-serif" font-size="14" lengthAdjust="spacing" textLength="46" x="44" y="44.4326">System</text><line style="stroke:#181818;stroke-width:0.5;" x1="8" x2="100" y1="52.5088" y2="52.5088"/><line style="stroke:#181818;stroke-width:0.5;" x1="8" x2="100" y1="60.5088" y2="60.5088"/></g><!--MD5=[7829b64950ce38e0487c4015ea331f97]
class Date--><g id="elem_Date"><rect codeLine="3" fill="#F1F1F1" height="48" id="Date" rx="2.5" ry="2.5" style="stroke:#181818;stroke-width:0.5;" width="62" x="136" y="14"/><ellipse cx="151" cy="30" fill="#DA70D6" rx="11" ry="11" style="stroke:#A80036;stroke-width:1.0;"/><path d="M154.1406,29.4531 Q154.1406,26.5938 153.2813,25.4375 Q152.4219,24.2813 150.8906,24.2813 Q150.8906,24.2813 150.9141,24.4141 Q150.9375,24.5469 150.9375,24.8125 L150.9375,34.2969 Q150.9375,34.5625 151.1484,34.6953 Q151.3594,34.8281 151.3594,34.8281 Q152.1563,34.8281 153.1484,33.7344 Q154.1406,32.6406 154.1406,29.4531 Z M148.8906,24.8125 Q148.8906,24.5469 148.7578,24.4141 Q148.625,24.2813 148.2969,24.2813 L147.9063,24.2813 L147.9063,23.875 L150.8906,23.875 Q153.9531,23.875 155.1797,25.2031 Q156.4063,26.5313 156.4063,29.3281 Q156.4063,32.375 155.2109,33.8047 Q154.0156,35.2344 150.6875,35.2344 L147.8281,35.2344 L147.8281,34.8281 L148.2969,34.8281 Q148.625,34.8281 148.7578,34.6953 Q148.8906,34.5625 148.8906,34.2969 L148.8906,24.8125 Z " fill="#000000"/><text fill="#000000" font-family="sans-serif" font-size="14" lengthAdjust="spacing" textLength="30" x="165" y="36.4839">Date</text><line style="stroke:#181818;stroke-width:0.5;" x1="137" x2="197" y1="46" y2="46"/><line style="stroke:#181818;stroke-width:0.5;" x1="137" x2="197" y1="54" y2="54"/></g><!--MD5=[96dbf3fdd3a5a6cb4418e7f353ec15dd]
@startuml

class System << (S,#FF7700) Singleton >>
class Date << (D,orchid) >>
@enduml

PlantUML version 1.2022.4(Sat Apr 09 21:29:17 CST 2022)
(GPL source distribution)
Java Runtime: Java(TM) SE Runtime Environment
JVM: Java HotSpot(TM) 64-Bit Server VM
Default Encoding: GBK
Language: zh
Country: CN
--></g></svg>