<?xml version="1.0" encoding="UTF-8" standalone="no"?><svg xmlns="http://www.w3.org/2000/svg" xmlns:xlink="http://www.w3.org/1999/xlink" contentStyleType="text/css" height="189px" preserveAspectRatio="none" style="width:337px;height:189px;background:#FFFFFF;" version="1.1" viewBox="0 0 337 189" width="337px" zoomAndPan="magnify"><defs/><g><!--MD5=[9734707d94b55ca7b71982c088a40502]
class class1--><g id="elem_class1"><rect codeLine="1" fill="#F1F1F1" height="48" id="class1" rx="2.5" ry="2.5" style="stroke:#181818;stroke-width:0.5;" width="131" x="7" y="7"/><ellipse cx="22" cy="23" fill="#ADD1B2" rx="11" ry="11" style="stroke:#181818;stroke-width:1.0;"/><path d="M20.5781,28.3594 Q18.7188,28.3594 17.625,26.9688 Q16.5313,25.5781 16.5313,22.5938 Q16.5313,20.0625 17.6953,18.4063 Q18.8594,16.75 20.8438,16.75 Q22.3125,16.75 22.7813,16.875 Q23.25,17.0781 23.25,17.0781 Q23.25,17.0781 23.25,17.0078 Q23.25,16.9375 23.8594,16.0156 L24.9063,19.6719 L23.5781,20.0781 Q23.1094,18.5313 22.4453,17.8672 Q21.7813,17.2031 20.7188,17.2031 Q20.3281,17.2031 19.5625,18.7344 Q18.7969,20.2656 18.7969,22.5156 Q18.7969,24.9844 19.4609,26.375 Q20.125,27.7656 20.6563,27.7656 Q21.7188,27.7656 22.4766,27 Q23.2344,26.2344 23.5781,24.5781 L24.9063,25.1719 Q24.5781,26.5781 23.6797,27.4688 Q22.7813,28.3594 20.5781,28.3594 Z " fill="#000000"/><text fill="#000000" font-family="sans-serif" font-size="14" lengthAdjust="spacing" textLength="99" x="36" y="29.4839">This is my class</text><line style="stroke:#181818;stroke-width:0.5;" x1="8" x2="137" y1="39" y2="39"/><line style="stroke:#181818;stroke-width:0.5;" x1="8" x2="137" y1="47" y2="47"/></g><!--MD5=[5bd124f2ff5297a7fd349100317f0a5e]
class class2--><g id="elem_class2"><rect codeLine="2" fill="#F1F1F1" height="48" id="class2" rx="2.5" ry="2.5" style="stroke:#181818;stroke-width:0.5;" width="157" x="173" y="7"/><ellipse cx="188" cy="23" fill="#ADD1B2" rx="11" ry="11" style="stroke:#181818;stroke-width:1.0;"/><path d="M186.5781,28.3594 Q184.7188,28.3594 183.625,26.9688 Q182.5313,25.5781 182.5313,22.5938 Q182.5313,20.0625 183.6953,18.4063 Q184.8594,16.75 186.8438,16.75 Q188.3125,16.75 188.7813,16.875 Q189.25,17.0781 189.25,17.0781 Q189.25,17.0781 189.25,17.0078 Q189.25,16.9375 189.8594,16.0156 L190.9063,19.6719 L189.5781,20.0781 Q189.1094,18.5313 188.4453,17.8672 Q187.7813,17.2031 186.7188,17.2031 Q186.3281,17.2031 185.5625,18.7344 Q184.7969,20.2656 184.7969,22.5156 Q184.7969,24.9844 185.4609,26.375 Q186.125,27.7656 186.6563,27.7656 Q187.7188,27.7656 188.4766,27 Q189.2344,26.2344 189.5781,24.5781 L190.9063,25.1719 Q190.5781,26.5781 189.6797,27.4688 Q188.7813,28.3594 186.5781,28.3594 Z " fill="#000000"/><text fill="#000000" font-family="sans-serif" font-size="14" lengthAdjust="spacing" textLength="125" x="202" y="29.4839">It works this way too</text><line style="stroke:#181818;stroke-width:0.5;" x1="174" x2="329" y1="39" y2="39"/><line style="stroke:#181818;stroke-width:0.5;" x1="174" x2="329" y1="47" y2="47"/></g><!--MD5=[49e621955d350051e6ac789aa0031f9a]
class foo/dummy--><g id="elem_foo/dummy"><rect fill="#F1F1F1" height="48" id="foo/dummy" rx="2.5" ry="2.5" style="stroke:#181818;stroke-width:0.5;" width="101" x="201" y="134"/><ellipse cx="216" cy="150" fill="#ADD1B2" rx="11" ry="11" style="stroke:#181818;stroke-width:1.0;"/><path d="M214.5781,155.3594 Q212.7188,155.3594 211.625,153.9688 Q210.5313,152.5781 210.5313,149.5938 Q210.5313,147.0625 211.6953,145.4063 Q212.8594,143.75 214.8438,143.75 Q216.3125,143.75 216.7813,143.875 Q217.25,144.0781 217.25,144.0781 Q217.25,144.0781 217.25,144.0078 Q217.25,143.9375 217.8594,143.0156 L218.9063,146.6719 L217.5781,147.0781 Q217.1094,145.5313 216.4453,144.8672 Q215.7813,144.2031 214.7188,144.2031 Q214.3281,144.2031 213.5625,145.7344 Q212.7969,147.2656 212.7969,149.5156 Q212.7969,151.9844 213.4609,153.375 Q214.125,154.7656 214.6563,154.7656 Q215.7188,154.7656 216.4766,154 Q217.2344,153.2344 217.5781,151.5781 L218.9063,152.1719 Q218.5781,153.5781 217.6797,154.4688 Q216.7813,155.3594 214.5781,155.3594 Z " fill="#000000"/><text fill="#000000" font-family="sans-serif" font-size="14" lengthAdjust="spacing" textLength="69" x="230" y="156.4839">foo/dummy</text><line style="stroke:#181818;stroke-width:0.5;" x1="202" x2="301" y1="166" y2="166"/><line style="stroke:#181818;stroke-width:0.5;" x1="202" x2="301" y1="174" y2="174"/></g><!--MD5=[67f89fa07d61b1475f693d886dd02dc9]
reverse link class2 to foo/dummy--><g id="link_class2_foo/dummy"><path codeLine="4" d="M251.5,68.291 C251.5,89.458 251.5,115.5227 251.5,133.9058 " fill="none" id="class2-backto-foo/dummy" style="stroke:#181818;stroke-width:1.0;"/><polygon fill="#181818" points="251.5,55.219,247.5,61.219,251.5,67.219,255.5,61.219,251.5,55.219" style="stroke:#181818;stroke-width:1.0;"/><text fill="#000000" font-family="sans-serif" font-size="13" lengthAdjust="spacing" textLength="21" x="252.5" y="100.8979">use</text></g><!--MD5=[06ab3407cfbe552da1cf757510485add]
@startuml
class "This is my class" as class1
class class2 as "It works this way too"

class2 *- - "foo/dummy" : use
@enduml

PlantUML version 1.2022.4(Sat Apr 09 21:29:17 CST 2022)
(GPL source distribution)
Java Runtime: Java(TM) SE Runtime Environment
JVM: Java HotSpot(TM) 64-Bit Server VM
Default Encoding: GBK
Language: zh
Country: CN
--></g></svg>