<?xml version="1.0" encoding="UTF-8" standalone="no"?><svg xmlns="http://www.w3.org/2000/svg" xmlns:xlink="http://www.w3.org/1999/xlink" contentStyleType="text/css" height="194px" preserveAspectRatio="none" style="width:491px;height:194px;background:#FFFFFF;" version="1.1" viewBox="0 0 491 194" width="491px" zoomAndPan="magnify"><defs/><g><!--MD5=[10fb7f8619e33bbba3e12a51f8fb11e5]
entity DB1--><g id="elem_DB1"><path d="M6,16 C6,6 105,6 105,6 C105,6 204,6 204,16 L204,167.7207 C204,177.7207 105,177.7207 105,177.7207 C105,177.7207 6,177.7207 6,167.7207 L6,16 " fill="#F1F1F1" style="stroke:#181818;stroke-width:0.5;"/><path d="M6,16 C6,26 105,26 105,26 C105,26 204,26 204,16 " fill="none" style="stroke:#181818;stroke-width:0.5;"/><text fill="#000000" font-family="sans-serif" font-size="14" lengthAdjust="spacing" textLength="178" x="16" y="46.0439">You can have horizontal line</text><path d="M6,44.1201 C6,54.1201 105,54.1201 105,54.1201 C105,54.1201 204,54.1201 204,44.1201 " fill="none" style="stroke:#181818;stroke-width:1.0;"/><text fill="#000000" font-family="sans-serif" font-size="14" lengthAdjust="spacing" textLength="89" x="16" y="69.1641">Or double line</text><path d="M6,71.2402 C6,81.2402 105,81.2402 105,81.2402 C105,81.2402 204,81.2402 204,71.2402 " fill="none" style="stroke:#181818;stroke-width:1.0;"/><path d="M6,73.2402 C6,83.2402 105,83.2402 105,83.2402 C105,83.2402 204,83.2402 204,73.2402 " fill="none" style="stroke:#181818;stroke-width:1.0;"/><text fill="#000000" font-family="sans-serif" font-size="14" lengthAdjust="spacing" textLength="86" x="16" y="96.2842">Or strong line</text><path d="M6,98.3604 C6,108.3604 105,108.3604 105,108.3604 C105,108.3604 204,108.3604 204,98.3604 " fill="none" style="stroke:#181818;stroke-width:0.5;"/><text fill="#000000" font-family="sans-serif" font-size="14" lengthAdjust="spacing" textLength="86" x="16" y="123.4043">Or dotted line</text><text fill="#000000" font-family="sans-serif" font-size="14" lengthAdjust="spacing" textLength="40" x="16" y="165.6445">Enjoy!</text><path d="M6,135.0405 C6,145.0405 105,145.0405 105,145.0405 C105,145.0405 204,145.0405 204,135.0405 " fill="none" style="stroke:#181818;stroke-width:1.0;stroke-dasharray:1.0,2.0;"/><rect fill="#F1F1F1" height="19.1201" style="stroke:#181818;stroke-width:1.0;stroke-dasharray:1.0,2.0;" width="44" x="83" y="129.9805"/><text fill="#000000" font-family="sans-serif" font-size="14" lengthAdjust="spacing" textLength="44" x="83" y="146.0244">My title</text></g><g id="elem_GMN3"><path d="M239.5,42.5 L239.5,88 L204.136,92 L239.5,96 L239.5,141.272 A0,0 0 0 0 239.5,141.272 L484.5,141.272 A0,0 0 0 0 484.5,141.272 L484.5,52.5 L474.5,42.5 L239.5,42.5 A0,0 0 0 0 239.5,42.5 " fill="#FEFFDD" style="stroke:#181818;stroke-width:0.5;"/><path d="M474.5,42.5 L474.5,52.5 L484.5,52.5 L474.5,42.5 " fill="#FEFFDD" style="stroke:#181818;stroke-width:0.5;"/><text fill="#000000" font-family="sans-serif" font-size="13" lengthAdjust="spacing" textLength="164" x="245.5" y="62.3979">This is working also in notes</text><text fill="#000000" font-family="sans-serif" font-size="13" lengthAdjust="spacing" textLength="224" x="245.5" y="80.1523">You can also add title in all these lines</text><line style="stroke:#181818;stroke-width:1.0;" x1="240.5" x2="350" y1="91.886" y2="91.886"/><line style="stroke:#181818;stroke-width:1.0;" x1="240.5" x2="350" y1="93.886" y2="93.886"/><text fill="#000000" font-family="sans-serif" font-size="13" lengthAdjust="spacing" textLength="24" x="350" y="97.4067">Title</text><line style="stroke:#181818;stroke-width:1.0;" x1="374" x2="483.5" y1="91.886" y2="91.886"/><line style="stroke:#181818;stroke-width:1.0;" x1="374" x2="483.5" y1="93.886" y2="93.886"/><line style="stroke:#181818;stroke-width:1.0;" x1="240.5" x2="327" y1="118.5176" y2="118.5176"/><text fill="#000000" font-family="sans-serif" font-size="13" lengthAdjust="spacing" textLength="70" x="327" y="124.0383">Another title</text><line style="stroke:#181818;stroke-width:1.0;" x1="397" x2="483.5" y1="118.5176" y2="118.5176"/></g><!--MD5=[7e3cb78fd3ed90113189edba100ca013]
@startuml
database DB1 as "
You can have horizontal line
- - - -
Or double line
====
Or strong line
____
Or dotted line
..My title..
Enjoy!
"
note right
  This is working also in notes
  You can also add title in all these lines
  ==Title==
  - -Another title- -
end note

@enduml

PlantUML version 1.2022.4(Sat Apr 09 21:29:17 CST 2022)
(GPL source distribution)
Java Runtime: Java(TM) SE Runtime Environment
JVM: Java HotSpot(TM) 64-Bit Server VM
Default Encoding: GBK
Language: zh
Country: CN
--></g></svg>