<?xml version="1.0" encoding="UTF-8" standalone="no"?><svg xmlns="http://www.w3.org/2000/svg" xmlns:xlink="http://www.w3.org/1999/xlink" contentStyleType="text/css" height="213px" preserveAspectRatio="none" style="width:259px;height:213px;background:#FFFFFF;" version="1.1" viewBox="0 0 259 213" width="259px" zoomAndPan="magnify"><defs/><g><g id="elem_demo"><rect fill="#F1F1F1" height="69.3604" style="stroke:#181818;stroke-width:0.5;" width="104" x="148.5" y="7"/><text fill="#000000" font-family="sans-serif" font-size="14" lengthAdjust="spacing" textLength="35" x="183" y="25.0439">demo</text><line style="stroke:#181818;stroke-width:0.5;" x1="149.5" x2="251.5" y1="30.1201" y2="30.1201"/><ellipse cx="159.5" cy="41.1201" fill="#000000" rx="3" ry="3" style="stroke:#000000;stroke-width:1.0;"/><text fill="#000000" font-family="sans-serif" font-size="14" lengthAdjust="spacing" textLength="56" x="168.5" y="50.1641">Bullet list</text><ellipse cx="159.5" cy="60.2402" fill="#000000" rx="3" ry="3" style="stroke:#000000;stroke-width:1.0;"/><text fill="#000000" font-family="sans-serif" font-size="14" lengthAdjust="spacing" textLength="78" x="168.5" y="69.2842">Second item</text></g><g id="elem_GMN3"><path d="M6,10 L6,73.2632 A0,0 0 0 0 6,73.2632 L113,73.2632 A0,0 0 0 0 113,73.2632 L113,45.5 L148.325,41.5 L113,37.5 L113,20 L103,10 L6,10 A0,0 0 0 0 6,10 " fill="#FEFFDD" style="stroke:#181818;stroke-width:0.5;"/><path d="M103,10 L103,20 L113,20 L103,10 " fill="#FEFFDD" style="stroke:#181818;stroke-width:0.5;"/><ellipse cx="17.5" cy="25.2544" fill="#000000" rx="2.5" ry="2.5" style="stroke:#000000;stroke-width:0.0;"/><text fill="#000000" font-family="sans-serif" font-size="13" lengthAdjust="spacing" textLength="54" x="25" y="29.8979">Bullet list</text><ellipse cx="17.5" cy="43.0088" fill="#000000" rx="2.5" ry="2.5" style="stroke:#000000;stroke-width:0.0;"/><text fill="#000000" font-family="sans-serif" font-size="13" lengthAdjust="spacing" textLength="73" x="25" y="47.6523">Second item</text><rect fill="#000000" height="3.5" style="stroke:#000000;stroke-width:0.0;" width="3.5" x="33" y="60.2632"/><text fill="#000000" font-family="sans-serif" font-size="13" lengthAdjust="spacing" textLength="52" x="38" y="65.4067">Sub item</text></g><rect fill="#DDDDDD" height="107.6006" rx="7.5" ry="7.5" style="stroke:#000000;stroke-width:1.0;" width="151" x="47.25" y="90.3604"/><text fill="#000000" font-family="sans-serif" font-size="14" lengthAdjust="spacing" textLength="12" x="53.25" y="112.4043">1.</text><text fill="#000000" font-family="sans-serif" font-size="14" lengthAdjust="spacing" textLength="86" x="69.25" y="112.4043">Numbered list</text><text fill="#000000" font-family="sans-serif" font-size="14" lengthAdjust="spacing" textLength="12" x="53.25" y="131.5244">2.</text><text fill="#000000" font-family="sans-serif" font-size="14" lengthAdjust="spacing" textLength="78" x="69.25" y="131.5244">Second item</text><text fill="#000000" font-family="sans-serif" font-size="14" lengthAdjust="spacing" textLength="12" x="69.25" y="150.6445">1.</text><text fill="#000000" font-family="sans-serif" font-size="14" lengthAdjust="spacing" textLength="55" x="85.25" y="150.6445">Sub item</text><text fill="#000000" font-family="sans-serif" font-size="14" lengthAdjust="spacing" textLength="12" x="69.25" y="169.7646">2.</text><text fill="#000000" font-family="sans-serif" font-size="14" lengthAdjust="spacing" textLength="107" x="85.25" y="169.7646">Another sub item</text><text fill="#000000" font-family="sans-serif" font-size="14" lengthAdjust="spacing" textLength="12" x="53.25" y="188.8848">3.</text><text fill="#000000" font-family="sans-serif" font-size="14" lengthAdjust="spacing" textLength="63" x="69.25" y="188.8848">Third item</text><!--MD5=[bbd78fbbb356ece86e85ea1d66be87a5]
@startuml
object demo {
  * Bullet list
  * Second item
}
note left
  * Bullet list
  * Second item
  ** Sub item
end note

legend
  # Numbered list
  # Second item
  ## Sub item
  ## Another sub item
  # Third item
end legend
@enduml

PlantUML version 1.2022.4(Sat Apr 09 21:29:17 CST 2022)
(GPL source distribution)
Java Runtime: Java(TM) SE Runtime Environment
JVM: Java HotSpot(TM) 64-Bit Server VM
Default Encoding: GBK
Language: zh
Country: CN
--></g></svg>