<svg xmlns="http://www.w3.org/2000/svg" xmlns:xlink="http://www.w3.org/1999/xlink" style="width:259px;height:213px;background:#fff" width="259" height="213" contentStyleType="text/css" preserveAspectRatio="none" version="1.1" viewBox="0 0 259 213" zoomAndPan="magnify"><g><g id="elem_demo"><rect style="stroke:#181818;stroke-width:.5" width="104" height="69.36" x="148.5" y="7" fill="#F1F1F1"/><text x="183" y="25.044" fill="#000" font-family="sans-serif" font-size="14" lengthAdjust="spacing" textLength="35">demo</text><line style="stroke:#181818;stroke-width:.5" x1="149.5" x2="251.5" y1="30.12" y2="30.12"/><ellipse cx="159.5" cy="41.12" fill="#000" rx="3" ry="3" style="stroke:#000;stroke-width:1"/><text x="168.5" y="50.164" fill="#000" font-family="sans-serif" font-size="14" lengthAdjust="spacing" textLength="56">Bullet list</text><ellipse cx="159.5" cy="60.24" fill="#000" rx="3" ry="3" style="stroke:#000;stroke-width:1"/><text x="168.5" y="69.284" fill="#000" font-family="sans-serif" font-size="14" lengthAdjust="spacing" textLength="78">Second item</text></g><g id="elem_GMN3"><path fill="#FEFFDD" d="M6,10 L6,73.2632 A0,0 0 0 0 6,73.2632 L113,73.2632 A0,0 0 0 0 113,73.2632 L113,45.5 L148.325,41.5 L113,37.5 L113,20 L103,10 L6,10 A0,0 0 0 0 6,10" style="stroke:#181818;stroke-width:.5"/><path fill="#FEFFDD" d="M103,10 L103,20 L113,20 L103,10" style="stroke:#181818;stroke-width:.5"/><ellipse cx="17.5" cy="25.254" fill="#000" rx="2.5" ry="2.5" style="stroke:#000;stroke-width:0"/><text x="25" y="29.898" fill="#000" font-family="sans-serif" font-size="13" lengthAdjust="spacing" textLength="54">Bullet list</text><ellipse cx="17.5" cy="43.009" fill="#000" rx="2.5" ry="2.5" style="stroke:#000;stroke-width:0"/><text x="25" y="47.652" fill="#000" font-family="sans-serif" font-size="13" lengthAdjust="spacing" textLength="73">Second item</text><rect style="stroke:#000;stroke-width:0" width="3.5" height="3.5" x="33" y="60.263" fill="#000"/><text x="38" y="65.407" fill="#000" font-family="sans-serif" font-size="13" lengthAdjust="spacing" textLength="52">Sub item</text></g><rect style="stroke:#000;stroke-width:1" width="151" height="107.601" x="47.25" y="90.36" fill="#DDD" rx="7.5" ry="7.5"/><text x="53.25" y="112.404" fill="#000" font-family="sans-serif" font-size="14" lengthAdjust="spacing" textLength="12">1.</text><text x="69.25" y="112.404" fill="#000" font-family="sans-serif" font-size="14" lengthAdjust="spacing" textLength="86">Numbered list</text><text x="53.25" y="131.524" fill="#000" font-family="sans-serif" font-size="14" lengthAdjust="spacing" textLength="12">2.</text><text x="69.25" y="131.524" fill="#000" font-family="sans-serif" font-size="14" lengthAdjust="spacing" textLength="78">Second item</text><text x="69.25" y="150.644" fill="#000" font-family="sans-serif" font-size="14" lengthAdjust="spacing" textLength="12">1.</text><text x="85.25" y="150.644" fill="#000" font-family="sans-serif" font-size="14" lengthAdjust="spacing" textLength="55">Sub item</text><text x="69.25" y="169.765" fill="#000" font-family="sans-serif" font-size="14" lengthAdjust="spacing" textLength="12">2.</text><text x="85.25" y="169.765" fill="#000" font-family="sans-serif" font-size="14" lengthAdjust="spacing" textLength="107">Another sub item</text><text x="53.25" y="188.885" fill="#000" font-family="sans-serif" font-size="14" lengthAdjust="spacing" textLength="12">3.</text><text x="69.25" y="188.885" fill="#000" font-family="sans-serif" font-size="14" lengthAdjust="spacing" textLength="63">Third item</text></g></svg>