<svg xmlns="http://www.w3.org/2000/svg" xmlns:xlink="http://www.w3.org/1999/xlink" style="width:232px;height:110px;background:#fff" width="232" height="110" contentStyleType="text/css" preserveAspectRatio="none" version="1.1" viewBox="0 0 232 110" zoomAndPan="magnify"><g><rect style="stroke:#00000000;stroke-width:1;fill:none" width="214.667" height="37.315" x="5" y="5"/><path fill="#000" d="M14.3333,18.9811 C13.4167,18.9811 12.6,19.3645 11.9833,19.9645 C11.3833,20.5645 11,21.3811 11,22.3145 C11,23.2311 11.3833,24.0478 11.9833,24.6645 L17.6667,30.3478 L23.35,24.6645 C23.95,24.0645 24.3333,23.2478 24.3333,22.3145 C24.3333,21.3978 23.95,20.5811 23.35,19.9645 C22.75,19.3645 21.9333,18.9811 21,18.9811 C20.0833,18.9811 19.2667,19.3645 18.65,19.9645 C18.05,20.5645 17.6667,21.3811 17.6667,22.3145 C17.6667,21.3978 17.2833,20.5811 16.6833,19.9645 C16.0833,19.3645 15.2667,18.9811 14.3333,18.9811" style="stroke-width:0"/><text x="25.333" y="32.92" fill="#000" font-family="sans-serif" font-size="20" font-weight="bold" lengthAdjust="spacing" textLength="174">Use of OpenIconic</text><path fill="#000" d="M203.6667,18.9811 C202.75,18.9811 201.9333,19.3645 201.3167,19.9645 C200.7167,20.5645 200.3333,21.3811 200.3333,22.3145 C200.3333,23.2311 200.7167,24.0478 201.3167,24.6645 L207,30.3478 L212.6833,24.6645 C213.2833,24.0645 213.6667,23.2478 213.6667,22.3145 C213.6667,21.3978 213.2833,20.5811 212.6833,19.9645 C212.0833,19.3645 211.2667,18.9811 210.3333,18.9811 C209.4167,18.9811 208.6,19.3645 207.9833,19.9645 C207.3833,20.5645 207,21.3811 207,22.3145 C207,21.3978 206.6167,20.5811 206.0167,19.9645 C205.4167,19.3645 204.6,18.9811 203.6667,18.9811" style="stroke-width:0"/><g id="elem_Wifi"><rect id="Wifi" width="55" height="48" x="150.333" y="55.315" fill="#F1F1F1" codeLine="2" rx="2.5" ry="2.5" style="stroke:#181818;stroke-width:.5"/><ellipse cx="165.333" cy="71.314" fill="#ADD1B2" rx="11" ry="11" style="stroke:#181818;stroke-width:1"/><path fill="#000" d="M163.9115,76.6738 Q162.0521,76.6738 160.9583,75.2832 Q159.8646,73.8926 159.8646,70.9082 Q159.8646,68.377 161.0286,66.7207 Q162.1927,65.0645 164.1771,65.0645 Q165.6458,65.0645 166.1146,65.1895 Q166.5833,65.3926 166.5833,65.3926 Q166.5833,65.3926 166.5833,65.3223 Q166.5833,65.252 167.1927,64.3301 L168.2396,67.9863 L166.9115,68.3926 Q166.4427,66.8457 165.7786,66.1816 Q165.1146,65.5176 164.0521,65.5176 Q163.6615,65.5176 162.8958,67.0488 Q162.1302,68.5801 162.1302,70.8301 Q162.1302,73.2988 162.7943,74.6895 Q163.4583,76.0801 163.9896,76.0801 Q165.0521,76.0801 165.8099,75.3145 Q166.5677,74.5488 166.9115,72.8926 L168.2396,73.4863 Q167.9115,74.8926 167.013,75.7832 Q166.1146,76.6738 163.9115,76.6738 Z"/><text x="179.333" y="77.798" fill="#000" font-family="sans-serif" font-size="14" lengthAdjust="spacing" textLength="23">Wifi</text><line style="stroke:#181818;stroke-width:.5" x1="151.333" x2="204.333" y1="87.314" y2="87.314"/><line style="stroke:#181818;stroke-width:.5" x1="151.333" x2="204.333" y1="95.314" y2="95.314"/></g><g id="elem_GMN3"><path fill="#FEFFDD" d="M32.3333,65.3145 L32.3333,93.0688 A0,0 0 0 0 32.3333,93.0688 L115,93.0688 A0,0 0 0 0 115,93.0688 L115,83.3145 L150.1543,79.3145 L115,75.3145 L115,75.3145 L105,65.3145 L32.3333,65.3145 A0,0 0 0 0 32.3333,65.3145" style="stroke:#181818;stroke-width:.5"/><path fill="#FEFFDD" d="M105,65.3145 L105,75.3145 L115,75.3145 L105,65.3145" style="stroke:#181818;stroke-width:.5"/><text x="38.333" y="85.212" fill="#000" font-family="sans-serif" font-size="13" lengthAdjust="spacing" textLength="47">Click on</text><path fill="#000" d="M94.3958,76.1522 C92.9008,76.1522 91.5142,76.5855 90.3333,77.333 L90.9075,78.2105 C91.915,77.5713 93.1067,77.2247 94.3958,77.2247 C95.6958,77.2247 96.9092,77.5605 97.9167,78.2105 L98.4908,77.333 C97.31,76.5747 95.8908,76.1522 94.3958,76.1522 M94.3958,79.4022 C93.54,79.4022 92.7708,79.6513 92.0883,80.0847 L92.6625,80.9947 C93.1717,80.6697 93.7458,80.4855 94.385,80.4855 C95.0242,80.4855 95.6417,80.6697 96.1508,80.9947 L96.725,80.0847 C96.0533,79.6622 95.2408,79.4022 94.385,79.4022 M94.3958,82.6522 C93.8,82.6522 93.3125,83.1397 93.3125,83.7355 C93.3125,84.3313 93.8,84.8188 94.3958,84.8188 C94.9917,84.8188 95.4792,84.3313 95.4792,83.7355 C95.4792,83.1397 94.9917,82.6522 94.3958,82.6522" style="stroke-width:0"/></g></g></svg>