<svg xmlns="http://www.w3.org/2000/svg" xmlns:xlink="http://www.w3.org/1999/xlink" width="150" height="166" contentStyleType="text/css" preserveAspectRatio="none" version="1.1" viewBox="0 0 150 166" zoomAndPan="magnify" style="width:150px;height:166px;background:#fff"><g><ellipse style="stroke:#222;stroke-width:1" cx="75" cy="20" fill="#222" rx="10" ry="10"/><rect width="128" height="105.943" x="11" y="50" fill="#F1F1F1" rx="12.5" ry="12.5" style="stroke:#181818;stroke-width:.5"/><text x="21" y="73.752" fill="#000" font-family="sans-serif" font-size="12" lengthAdjust="spacing" textLength="94">Here is the result</text><text x="48" y="92.141" fill="#000" font-family="sans-serif" font-size="12" font-weight="bold" lengthAdjust="spacing" textLength="28">table</text><text x="86" y="92.141" fill="#000" font-family="sans-serif" font-size="12" font-weight="bold" lengthAdjust="spacing" textLength="40">header</text><text x="24" y="108.529" fill="#000" font-family="sans-serif" font-size="12" lengthAdjust="spacing" textLength="7">a</text><text x="48" y="108.529" fill="#000" font-family="sans-serif" font-size="12" lengthAdjust="spacing" textLength="27">table</text><text x="86" y="108.529" fill="#000" font-family="sans-serif" font-size="12" lengthAdjust="spacing" textLength="20">row</text><rect width="24" height="16.389" x="21" y="111.166" fill="#FF8080" style="stroke:none;stroke-width:.5"/><text x="24" y="124.918" fill="#000" font-family="sans-serif" font-size="12" lengthAdjust="spacing" textLength="18">red</text><rect width="38" height="16.389" x="45" y="111.166" fill="#80FF80" style="stroke:none;stroke-width:.5"/><text x="48" y="124.918" fill="#000" font-family="sans-serif" font-size="12" lengthAdjust="spacing" textLength="32">green</text><rect width="46" height="16.389" x="83" y="111.166" fill="#8080FF" style="stroke:none;stroke-width:.5"/><text x="86" y="124.918" fill="#000" font-family="sans-serif" font-size="12" lengthAdjust="spacing" textLength="24">blue</text><rect width="108" height="16.389" x="21" y="127.555" fill="#FF0" style="stroke:none;stroke-width:.5"/><text x="24" y="141.307" fill="#000" font-family="sans-serif" font-size="12" lengthAdjust="spacing" textLength="7">b</text><text x="48" y="141.307" fill="#000" font-family="sans-serif" font-size="12" lengthAdjust="spacing" textLength="27">table</text><text x="86" y="141.307" fill="#000" font-family="sans-serif" font-size="12" lengthAdjust="spacing" textLength="20">row</text><line x1="21" x2="129" y1="78.389" y2="78.389" style="stroke:#000;stroke-width:.5"/><line x1="21" x2="129" y1="94.777" y2="94.777" style="stroke:#000;stroke-width:.5"/><line x1="21" x2="129" y1="111.166" y2="111.166" style="stroke:#000;stroke-width:.5"/><line x1="21" x2="129" y1="127.555" y2="127.555" style="stroke:#000;stroke-width:.5"/><line x1="21" x2="129" y1="143.943" y2="143.943" style="stroke:#000;stroke-width:.5"/><line x1="21" x2="21" y1="78.389" y2="143.943" style="stroke:#000;stroke-width:.5"/><line x1="45" x2="45" y1="78.389" y2="143.943" style="stroke:#000;stroke-width:.5"/><line x1="83" x2="83" y1="78.389" y2="143.943" style="stroke:#000;stroke-width:.5"/><line x1="129" x2="129" y1="78.389" y2="143.943" style="stroke:#000;stroke-width:.5"/><line x1="75" x2="75" y1="30" y2="50" style="stroke:#181818;stroke-width:1"/><polygon style="stroke:#181818;stroke-width:1" fill="#181818" points="71 40 75 50 79 40 75 44"/></g></svg>