<svg xmlns="http://www.w3.org/2000/svg" xmlns:xlink="http://www.w3.org/1999/xlink" width="194" height="243" contentStyleType="text/css" preserveAspectRatio="none" version="1.1" viewBox="0 0 194 243" zoomAndPan="magnify" style="width:194px;height:243px;background:#fff"><g><rect width="176" height="90.481" x="5" y="5" style="stroke:#00000000;stroke-width:1;fill:none"/><text x="10" y="26.044" fill="#000" font-family="sans-serif" font-size="14" font-weight="bold" lengthAdjust="spacing" textLength="166">Example of simple table</text><text x="55" y="47.164" fill="#000" font-family="sans-serif" font-size="14" font-weight="bold" lengthAdjust="spacing" textLength="35">table</text><text x="98" y="47.164" fill="#000" font-family="sans-serif" font-size="14" font-weight="bold" lengthAdjust="spacing" textLength="50">header</text><text x="38" y="66.284" fill="#000" font-family="sans-serif" font-size="14" font-weight="bold" lengthAdjust="spacing" textLength="8">a</text><text x="55" y="66.284" fill="#000" font-family="sans-serif" font-size="14" font-weight="bold" lengthAdjust="spacing" textLength="35">table</text><text x="98" y="66.284" fill="#000" font-family="sans-serif" font-size="14" font-weight="bold" lengthAdjust="spacing" textLength="26">row</text><text x="38" y="85.404" fill="#000" font-family="sans-serif" font-size="14" font-weight="bold" lengthAdjust="spacing" textLength="9">b</text><text x="55" y="85.404" fill="#000" font-family="sans-serif" font-size="14" font-weight="bold" lengthAdjust="spacing" textLength="35">table</text><text x="98" y="85.404" fill="#000" font-family="sans-serif" font-size="14" font-weight="bold" lengthAdjust="spacing" textLength="26">row</text><line x1="34" x2="152" y1="31.12" y2="31.12" style="stroke:#000;stroke-width:1"/><line x1="34" x2="152" y1="50.24" y2="50.24" style="stroke:#000;stroke-width:1"/><line x1="34" x2="152" y1="69.36" y2="69.36" style="stroke:#000;stroke-width:1"/><line x1="34" x2="152" y1="88.481" y2="88.481" style="stroke:#000;stroke-width:1"/><line x1="34" x2="34" y1="31.12" y2="88.481" style="stroke:#000;stroke-width:1"/><line x1="51" x2="51" y1="31.12" y2="88.481" style="stroke:#000;stroke-width:1"/><line x1="94" x2="94" y1="31.12" y2="88.481" style="stroke:#000;stroke-width:1"/><line x1="152" x2="152" y1="31.12" y2="88.481" style="stroke:#000;stroke-width:1"/><ellipse style="stroke:none;stroke-width:1" cx="100" cy="117.481" fill="#222" rx="10" ry="10"/><g id="State1"><rect width="61" height="50" x="69.5" y="187.481" fill="#F1F1F1" rx="12.5" ry="12.5" style="stroke:#181818;stroke-width:.5"/><line x1="69.5" x2="130.5" y1="216.601" y2="216.601" style="stroke:#181818;stroke-width:.5"/><text x="79.5" y="208.524" fill="#000" font-family="sans-serif" font-size="14" lengthAdjust="spacing" textLength="41">State1</text></g><g id="link_*start_State1"><path style="stroke:#181818;stroke-width:1" id="*start-to-State1" fill="none" d="M100,127.7375 C100,140.3364 100,163.4614 100,182.2233"/><polygon style="stroke:#181818;stroke-width:1" fill="#181818" points="100 187.387 104 178.387 100 182.387 96 178.387 100 187.387"/></g></g></svg>