<svg xmlns="http://www.w3.org/2000/svg" xmlns:xlink="http://www.w3.org/1999/xlink" style="width:145px;height:300px;background:#fff" width="145" height="300" contentStyleType="text/css" preserveAspectRatio="none" version="1.1" viewBox="0 0 145 300" zoomAndPan="magnify"><g><rect style="stroke:#00000000;stroke-width:1;fill:none" width="127" height="147.841" x="5" y="5"/><text x="14" y="26.044" fill="#000" font-family="sans-serif" font-size="14" font-weight="bold" lengthAdjust="spacing" textLength="113">Example of Tree</text><text x="32" y="45.164" fill="#000" font-family="sans-serif" font-size="14" font-weight="bold" lengthAdjust="spacing" textLength="77">|_ First line</text><text x="20.5" y="64.284" fill="#000" font-family="sans-serif" font-size="14" font-weight="bold" lengthAdjust="spacing" textLength="11">|_</text><text x="35.5" y="64.284" fill="#000" font-family="sans-serif" font-size="14" font-weight="bold" lengthAdjust="spacing" textLength="85">Bom(Model)</text><text x="50" y="85.404" fill="#000" font-family="sans-serif" font-size="14" font-weight="bold" lengthAdjust="spacing" textLength="41">prop1</text><text x="50" y="104.524" fill="#000" font-family="sans-serif" font-size="14" font-weight="bold" lengthAdjust="spacing" textLength="41">prop2</text><text x="50" y="123.644" fill="#000" font-family="sans-serif" font-size="14" font-weight="bold" lengthAdjust="spacing" textLength="41">prop3</text><text x="50" y="142.765" fill="#000" font-family="sans-serif" font-size="14" font-weight="bold" lengthAdjust="spacing" textLength="59">Last line</text><rect style="stroke:#000;stroke-width:1" width="2" height="2" x="43" y="77.92" fill="none"/><line style="stroke:#000;stroke-width:1" x1="36" x2="44" y1="78.92" y2="78.92"/><line style="stroke:#000;stroke-width:1" x1="36" x2="36" y1="69.36" y2="78.92"/><rect style="stroke:#000;stroke-width:1" width="2" height="2" x="43" y="97.04" fill="none"/><line style="stroke:#000;stroke-width:1" x1="36" x2="44" y1="98.04" y2="98.04"/><line style="stroke:#000;stroke-width:1" x1="36" x2="36" y1="78.92" y2="98.04"/><rect style="stroke:#000;stroke-width:1" width="2" height="2" x="43" y="116.161" fill="none"/><line style="stroke:#000;stroke-width:1" x1="36" x2="44" y1="117.161" y2="117.161"/><line style="stroke:#000;stroke-width:1" x1="36" x2="36" y1="98.04" y2="117.161"/><rect style="stroke:#000;stroke-width:1" width="2" height="2" x="43" y="135.281" fill="none"/><line style="stroke:#000;stroke-width:1" x1="36" x2="44" y1="136.281" y2="136.281"/><line style="stroke:#000;stroke-width:1" x1="36" x2="36" y1="117.161" y2="136.281"/><ellipse cx="75.5" cy="174.841" fill="#222" rx="10" ry="10" style="stroke:none;stroke-width:1"/><g id="State1"><rect style="stroke:#181818;stroke-width:.5" width="61" height="50" x="45" y="244.841" fill="#F1F1F1" rx="12.5" ry="12.5"/><line style="stroke:#181818;stroke-width:.5" x1="45" x2="106" y1="273.961" y2="273.961"/><text x="55" y="265.885" fill="#000" font-family="sans-serif" font-size="14" lengthAdjust="spacing" textLength="41">State1</text></g><g id="link_*start_State1"><path id="*start-to-State1" fill="none" d="M75.5,185.0978 C75.5,197.6967 75.5,220.8217 75.5,239.5836" style="stroke:#181818;stroke-width:1"/><polygon fill="#181818" points="75.5 244.747 79.5 235.747 75.5 239.747 71.5 235.747 75.5 244.747" style="stroke:#181818;stroke-width:1"/></g></g></svg>