<?xml version="1.0" encoding="UTF-8" standalone="no"?><svg xmlns="http://www.w3.org/2000/svg" xmlns:xlink="http://www.w3.org/1999/xlink" contentStyleType="text/css" height="300px" preserveAspectRatio="none" style="width:145px;height:300px;background:#FFFFFF;" version="1.1" viewBox="0 0 145 300" width="145px" zoomAndPan="magnify"><defs/><g><rect height="147.8408" style="stroke:#00000000;stroke-width:1.0;fill:none;" width="127" x="5" y="5"/><text fill="#000000" font-family="sans-serif" font-size="14" font-weight="bold" lengthAdjust="spacing" textLength="113" x="14" y="26.0439">Example of Tree</text><text fill="#000000" font-family="sans-serif" font-size="14" font-weight="bold" lengthAdjust="spacing" textLength="77" x="32" y="45.1641">|_ First line</text><text fill="#000000" font-family="sans-serif" font-size="14" font-weight="bold" lengthAdjust="spacing" textLength="11" x="20.5" y="64.2842">|_</text><text fill="#000000" font-family="sans-serif" font-size="14" font-weight="bold" lengthAdjust="spacing" textLength="85" x="35.5" y="64.2842">Bom(Model)</text><text fill="#000000" font-family="sans-serif" font-size="14" font-weight="bold" lengthAdjust="spacing" textLength="41" x="50" y="85.4043">prop1</text><text fill="#000000" font-family="sans-serif" font-size="14" font-weight="bold" lengthAdjust="spacing" textLength="41" x="50" y="104.5244">prop2</text><text fill="#000000" font-family="sans-serif" font-size="14" font-weight="bold" lengthAdjust="spacing" textLength="41" x="50" y="123.6445">prop3</text><text fill="#000000" font-family="sans-serif" font-size="14" font-weight="bold" lengthAdjust="spacing" textLength="59" x="50" y="142.7646">Last line</text><rect fill="none" height="2" style="stroke:#000000;stroke-width:1.0;" width="2" x="43" y="77.9204"/><line style="stroke:#000000;stroke-width:1.0;" x1="36" x2="44" y1="78.9204" y2="78.9204"/><line style="stroke:#000000;stroke-width:1.0;" x1="36" x2="36" y1="69.3604" y2="78.9204"/><rect fill="none" height="2" style="stroke:#000000;stroke-width:1.0;" width="2" x="43" y="97.0405"/><line style="stroke:#000000;stroke-width:1.0;" x1="36" x2="44" y1="98.0405" y2="98.0405"/><line style="stroke:#000000;stroke-width:1.0;" x1="36" x2="36" y1="78.9204" y2="98.0405"/><rect fill="none" height="2" style="stroke:#000000;stroke-width:1.0;" width="2" x="43" y="116.1606"/><line style="stroke:#000000;stroke-width:1.0;" x1="36" x2="44" y1="117.1606" y2="117.1606"/><line style="stroke:#000000;stroke-width:1.0;" x1="36" x2="36" y1="98.0405" y2="117.1606"/><rect fill="none" height="2" style="stroke:#000000;stroke-width:1.0;" width="2" x="43" y="135.2808"/><line style="stroke:#000000;stroke-width:1.0;" x1="36" x2="44" y1="136.2808" y2="136.2808"/><line style="stroke:#000000;stroke-width:1.0;" x1="36" x2="36" y1="117.1606" y2="136.2808"/><ellipse cx="75.5" cy="174.8408" fill="#222222" rx="10" ry="10" style="stroke:none;stroke-width:1.0;"/><g id="State1"><rect fill="#F1F1F1" height="50" rx="12.5" ry="12.5" style="stroke:#181818;stroke-width:0.5;" width="61" x="45" y="244.8408"/><line style="stroke:#181818;stroke-width:0.5;" x1="45" x2="106" y1="273.9609" y2="273.9609"/><text fill="#000000" font-family="sans-serif" font-size="14" lengthAdjust="spacing" textLength="41" x="55" y="265.8848">State1</text></g><!--MD5=[60533a5dc91355c93bf187ba4549d745]
link *start to State1--><g id="link_*start_State1"><path d="M75.5,185.0978 C75.5,197.6967 75.5,220.8217 75.5,239.5836 " fill="none" id="*start-to-State1" style="stroke:#181818;stroke-width:1.0;"/><polygon fill="#181818" points="75.5,244.7473,79.5,235.7473,75.5,239.7473,71.5,235.7473,75.5,244.7473" style="stroke:#181818;stroke-width:1.0;"/></g><!--MD5=[db0686b857cc73384a226c442391085c]
@startuml
skinparam titleFontSize 14
title
  Example of Tree
  |_ First line
  |_ **Bom(Model)**
	|_ prop1
	|_ prop2
	|_ prop3
  |_ Last line
end title
[*] - -> State1
@enduml

PlantUML version 1.2022.4(Sat Apr 09 21:29:17 CST 2022)
(GPL source distribution)
Java Runtime: Java(TM) SE Runtime Environment
JVM: Java HotSpot(TM) 64-Bit Server VM
Default Encoding: GBK
Language: zh
Country: CN
--></g></svg>