<?xml version="1.0" encoding="UTF-8" standalone="no"?><svg xmlns="http://www.w3.org/2000/svg" xmlns:xlink="http://www.w3.org/1999/xlink" contentStyleType="text/css" height="197px" preserveAspectRatio="none" style="width:335px;height:197px;background:#FFFFFF;" version="1.1" viewBox="0 0 335 197" width="335px" zoomAndPan="magnify"><defs/><g><!--MD5=[f3853aa2b8bce406a0e4037637558619]
class USER--><g id="elem_USER"><rect codeLine="4" fill="#F1F1F1" height="61.5088" id="USER" rx="2.5" ry="2.5" style="stroke:#181818;stroke-width:0.5;" width="131" x="7" y="7"/><ellipse cx="22" cy="29.7544" fill="#FFAAAA" rx="11" ry="11" style="stroke:#A80036;stroke-width:1.0;"/><path d="M23.9063,35.4888 L19.4531,35.4888 L19.4531,35.0825 L20.0625,35.0825 Q20.3906,35.0825 20.5234,34.9497 Q20.6563,34.8169 20.6563,34.5513 L20.6563,25.2544 Q20.6563,24.7231 20.5859,24.6606 Q20.5156,24.5981 20.0625,24.5981 Q20.0625,24.5981 19.7266,24.9263 Q19.3906,25.2544 18.7813,26.8794 L17.4688,26.6606 L18.0625,24.1294 L25.375,24.1294 L25.9063,26.6606 L24.6406,26.9106 Q24.0469,25.3325 23.7422,24.9653 Q23.4375,24.5981 22.5156,24.5981 Q22.5156,24.5981 22.5859,24.6606 Q22.6563,24.7231 22.6563,25.3325 L22.6563,34.5513 Q22.6563,34.8169 22.8516,34.9497 Q23.0469,35.0825 23.0469,35.0825 L23.9063,35.0825 L23.9063,35.4888 Z " fill="#000000"/><text fill="#000000" font-family="sans-serif" font-size="12" font-style="italic" lengthAdjust="spacing" textLength="103" x="34" y="25.752">«Database Table»</text><text fill="#000000" font-family="sans-serif" font-size="14" lengthAdjust="spacing" textLength="37" x="67" y="44.4326">USER</text><line style="stroke:#181818;stroke-width:0.5;" x1="8" x2="137" y1="52.5088" y2="52.5088"/><line style="stroke:#181818;stroke-width:0.5;" x1="8" x2="137" y1="60.5088" y2="60.5088"/></g><!--MD5=[49f4848a03d2370ba022371a4254058e]
class ACCOUNT--><g id="elem_ACCOUNT"><rect codeLine="5" fill="#F1F1F1" height="61.5088" id="ACCOUNT" rx="2.5" ry="2.5" style="stroke:#181818;stroke-width:0.5;" width="131" x="7" y="129"/><ellipse cx="22" cy="151.7544" fill="#FFAAAA" rx="11" ry="11" style="stroke:#A80036;stroke-width:1.0;"/><path d="M23.9063,157.4888 L19.4531,157.4888 L19.4531,157.0825 L20.0625,157.0825 Q20.3906,157.0825 20.5234,156.9497 Q20.6563,156.8169 20.6563,156.5513 L20.6563,147.2544 Q20.6563,146.7231 20.5859,146.6606 Q20.5156,146.5981 20.0625,146.5981 Q20.0625,146.5981 19.7266,146.9263 Q19.3906,147.2544 18.7813,148.8794 L17.4688,148.6606 L18.0625,146.1294 L25.375,146.1294 L25.9063,148.6606 L24.6406,148.9106 Q24.0469,147.3325 23.7422,146.9653 Q23.4375,146.5981 22.5156,146.5981 Q22.5156,146.5981 22.5859,146.6606 Q22.6563,146.7231 22.6563,147.3325 L22.6563,156.5513 Q22.6563,156.8169 22.8516,156.9497 Q23.0469,157.0825 23.0469,157.0825 L23.9063,157.0825 L23.9063,157.4888 Z " fill="#000000"/><text fill="#000000" font-family="sans-serif" font-size="12" font-style="italic" lengthAdjust="spacing" textLength="103" x="34" y="147.752">«Database Table»</text><text fill="#000000" font-family="sans-serif" font-size="14" lengthAdjust="spacing" textLength="67" x="52" y="166.4326">ACCOUNT</text><line style="stroke:#181818;stroke-width:0.5;" x1="8" x2="137" y1="174.5088" y2="174.5088"/><line style="stroke:#181818;stroke-width:0.5;" x1="8" x2="137" y1="182.5088" y2="182.5088"/></g><!--MD5=[f6cbb717c07cd672984a570f3976b4f4]
class UID--><g id="elem_UID"><rect codeLine="6" fill="#F1F1F1" height="61.5088" id="UID" rx="2.5" ry="2.5" style="stroke:#181818;stroke-width:0.5;" width="155" x="173" y="7"/><ellipse cx="188" cy="29.7544" fill="#AAAAAA" rx="11" ry="11" style="stroke:#A80036;stroke-width:1.0;"/><path d="M186.9844,29.5356 Q185.1875,28.7388 184.5234,28.145 Q183.8594,27.5513 183.8594,26.2856 Q183.8594,25.2856 184.6953,24.395 Q185.5313,23.5044 187.0469,23.5044 Q188.7188,23.5044 189.3125,23.6919 Q189.9063,23.9575 189.9063,23.9575 Q189.9063,23.9575 189.9063,23.8638 Q189.9063,23.77 190.2656,22.7075 L191.1094,26.2231 L189.9219,26.6763 Q189.1719,24.9575 188.5469,24.4575 Q187.9219,23.9575 186.9219,23.9575 Q186.6563,23.9575 186.1953,24.6606 Q185.7344,25.3638 185.7344,26.1606 Q185.7344,26.8794 186.1641,27.3169 Q186.5938,27.7544 188.5156,28.6138 Q190.1094,29.27 190.8047,30.106 Q191.5,30.9419 191.5,32.0669 Q191.5,33.2544 190.6719,34.1841 Q189.8438,35.1138 187.25,35.1138 Q186.5938,35.1138 186.0625,34.8481 Q185.4531,34.6606 185.125,34.6606 Q185.125,34.6606 185.125,34.7935 Q185.125,34.9263 184.3594,35.7388 L183.7344,31.8638 L184.9844,31.4731 Q185.5938,33.395 186.4219,34.0278 Q187.25,34.6606 187.3125,34.6606 Q188.4531,34.6606 189.0156,33.9966 Q189.5781,33.3325 189.5781,32.0669 Q189.5781,31.395 188.9453,30.77 Q188.3125,30.145 186.9844,29.5356 Z " fill="#000000"/><text fill="#000000" font-family="sans-serif" font-size="12" font-style="italic" lengthAdjust="spacing" textLength="127" x="200" y="25.752">«Database Sequence»</text><text fill="#000000" font-family="sans-serif" font-size="14" lengthAdjust="spacing" textLength="22" x="252.5" y="44.4326">UID</text><line style="stroke:#181818;stroke-width:0.5;" x1="174" x2="327" y1="52.5088" y2="52.5088"/><line style="stroke:#181818;stroke-width:0.5;" x1="174" x2="327" y1="60.5088" y2="60.5088"/></g><!--MD5=[f8aa88eac9fb851acf2fc922e4e01698]
link USER to ACCOUNT--><g id="link_USER_ACCOUNT"><path codeLine="8" d="M72.5,69.281 C72.5,87.472 72.5,110.5393 72.5,128.7286 " fill="none" id="USER-ACCOUNT" style="stroke:#181818;stroke-width:1.0;"/><text fill="#000000" font-family="sans-serif" font-size="13" lengthAdjust="spacing" textLength="7" x="64.8766" y="91.3759">1</text><text fill="#000000" font-family="sans-serif" font-size="13" lengthAdjust="spacing" textLength="5" x="66.9531" y="118.0628">*</text></g><!--MD5=[6cbdf2d818b1ad1f22f97f4e95bf5704]
link USER to UID--><g id="link_USER_UID"><path codeLine="9" d="M138.207,38 C148.043,38 157.88,38 167.716,38 " fill="none" id="USER-to-UID" style="stroke:#181818;stroke-width:1.0;"/><polygon fill="#181818" points="172.86,38,163.86,34,167.86,38,163.86,42,172.86,38" style="stroke:#181818;stroke-width:1.0;"/></g><!--MD5=[d10d8d0fc5e483929adc04a64c9477d3]
@startuml
!define SEQUENCE (S,#aaaaaa) Database Sequence
!define TABLE (T,#ffaaaa) Database Table

class USER << TABLE >>
class ACCOUNT << TABLE >>
class UID << SEQUENCE >>

USER "1" - - "*" ACCOUNT
USER -> UID
@enduml

@startuml

class USER << (T,#ffaaaa) Database Table >>
class ACCOUNT << (T,#ffaaaa) Database Table >>
class UID << (S,#aaaaaa) Database Sequence >>

USER "1" - - "*" ACCOUNT
USER -> UID
@enduml

PlantUML version 1.2022.4(Sat Apr 09 21:29:17 CST 2022)
(GPL source distribution)
Java Runtime: Java(TM) SE Runtime Environment
JVM: Java HotSpot(TM) 64-Bit Server VM
Default Encoding: GBK
Language: zh
Country: CN
--></g></svg>