<svg xmlns="http://www.w3.org/2000/svg" xmlns:xlink="http://www.w3.org/1999/xlink" style="width:170px;height:188px;background:#fff" width="170" height="188" contentStyleType="text/css" preserveAspectRatio="none" version="1.1" viewBox="0 0 170 188" zoomAndPan="magnify"><g><rect style="stroke:#181818;stroke-width:.5" width="107" height="176.503" x="1" y="6" fill="#CCC"/><text x="4" y="20.898" fill="#000" font-family="sans-serif" font-size="13" font-weight="bold" lengthAdjust="spacing" textLength="101">Internal Service</text><line style="stroke:#181818;stroke-width:.5;stroke-dasharray:5,5" x1="27" x2="27" y1="61.874" y2="145.383"/><line style="stroke:#181818;stroke-width:.5;stroke-dasharray:5,5" x1="79" x2="79" y1="61.874" y2="145.383"/><line style="stroke:#181818;stroke-width:.5;stroke-dasharray:5,5" x1="139" x2="139" y1="61.874" y2="145.383"/><rect style="stroke:#181818;stroke-width:.5" width="39" height="33.12" x="8" y="27.754" fill="#E3E3E3" rx="2.5" ry="2.5"/><text x="15" y="50.798" fill="#000" font-family="sans-serif" font-size="14" lengthAdjust="spacing" textLength="25">Bob</text><rect style="stroke:#181818;stroke-width:.5" width="39" height="33.12" x="8" y="144.383" fill="#E3E3E3" rx="2.5" ry="2.5"/><text x="15" y="167.427" fill="#000" font-family="sans-serif" font-size="14" lengthAdjust="spacing" textLength="25">Bob</text><rect style="stroke:#181818;stroke-width:.5" width="44" height="33.12" x="57" y="27.754" fill="#E3E3E3" rx="2.5" ry="2.5"/><text x="64" y="50.798" fill="#000" font-family="sans-serif" font-size="14" lengthAdjust="spacing" textLength="30">Alice</text><rect style="stroke:#181818;stroke-width:.5" width="44" height="33.12" x="57" y="144.383" fill="#E3E3E3" rx="2.5" ry="2.5"/><text x="64" y="167.427" fill="#000" font-family="sans-serif" font-size="14" lengthAdjust="spacing" textLength="30">Alice</text><rect style="stroke:#181818;stroke-width:.5" width="50" height="33.12" x="114" y="27.754" fill="#E3E3E3" rx="2.5" ry="2.5"/><text x="121" y="50.798" fill="#000" font-family="sans-serif" font-size="14" lengthAdjust="spacing" textLength="36">Other</text><rect style="stroke:#181818;stroke-width:.5" width="50" height="33.12" x="114" y="144.383" fill="#E3E3E3" rx="2.5" ry="2.5"/><text x="121" y="167.427" fill="#000" font-family="sans-serif" font-size="14" lengthAdjust="spacing" textLength="36">Other</text><polygon fill="#181818" points="67 91.629 77 95.629 67 99.629 71 95.629" style="stroke:#181818;stroke-width:1"/><line style="stroke:#181818;stroke-width:1" x1="27.5" x2="73" y1="95.629" y2="95.629"/><text x="34.5" y="90.772" fill="#000" font-family="sans-serif" font-size="13" lengthAdjust="spacing" textLength="27">hello</text><polygon fill="#181818" points="127 123.383 137 127.383 127 131.383 131 127.383" style="stroke:#181818;stroke-width:1"/><line style="stroke:#181818;stroke-width:1" x1="79" x2="133" y1="127.383" y2="127.383"/><text x="86" y="122.527" fill="#000" font-family="sans-serif" font-size="13" lengthAdjust="spacing" textLength="27">hello</text></g></svg>