<?xml version="1.0" encoding="UTF-8" standalone="no"?><svg xmlns="http://www.w3.org/2000/svg" xmlns:xlink="http://www.w3.org/1999/xlink" contentStyleType="text/css" height="189px" preserveAspectRatio="none" style="width:242px;height:189px;background:#FFFFFF;" version="1.1" viewBox="0 0 242 189" width="242px" zoomAndPan="magnify"><defs/><g><!--MD5=[b2f23c4a06b9bc4c947f037f864aea3c]
class Class01--><g id="elem_Class01"><rect fill="#98FB98" height="48" id="Class01" rx="10" ry="10" style="stroke:#00FF7F;stroke-width:0.5;" width="83" x="7" y="7"/><ellipse cx="22" cy="23" fill="#ADD1B2" rx="11" ry="11" style="stroke:#181818;stroke-width:1.0;"/><path d="M20.5781,28.3594 Q18.7188,28.3594 17.625,26.9688 Q16.5313,25.5781 16.5313,22.5938 Q16.5313,20.0625 17.6953,18.4063 Q18.8594,16.75 20.8438,16.75 Q22.3125,16.75 22.7813,16.875 Q23.25,17.0781 23.25,17.0781 Q23.25,17.0781 23.25,17.0078 Q23.25,16.9375 23.8594,16.0156 L24.9063,19.6719 L23.5781,20.0781 Q23.1094,18.5313 22.4453,17.8672 Q21.7813,17.2031 20.7188,17.2031 Q20.3281,17.2031 19.5625,18.7344 Q18.7969,20.2656 18.7969,22.5156 Q18.7969,24.9844 19.4609,26.375 Q20.125,27.7656 20.6563,27.7656 Q21.7188,27.7656 22.4766,27 Q23.2344,26.2344 23.5781,24.5781 L24.9063,25.1719 Q24.5781,26.5781 23.6797,27.4688 Q22.7813,28.3594 20.5781,28.3594 Z " fill="#000000"/><text fill="#000000" font-family="sans-serif" font-size="14" lengthAdjust="spacing" textLength="51" x="36" y="29.4839">Class01</text><line style="stroke:#00FF7F;stroke-width:0.5;" x1="8" x2="89" y1="39" y2="39"/><line style="stroke:#00FF7F;stroke-width:0.5;" x1="8" x2="89" y1="47" y2="47"/></g><!--MD5=[67b7f66b9c6b27d60ed6d0424460c06c]
class Class02--><g id="elem_Class02"><rect fill="#98FB98" height="48" id="Class02" rx="10" ry="10" style="stroke:#00FF7F;stroke-width:0.5;" width="83" x="7" y="134"/><ellipse cx="22" cy="150" fill="#ADD1B2" rx="11" ry="11" style="stroke:#181818;stroke-width:1.0;"/><path d="M20.5781,155.3594 Q18.7188,155.3594 17.625,153.9688 Q16.5313,152.5781 16.5313,149.5938 Q16.5313,147.0625 17.6953,145.4063 Q18.8594,143.75 20.8438,143.75 Q22.3125,143.75 22.7813,143.875 Q23.25,144.0781 23.25,144.0781 Q23.25,144.0781 23.25,144.0078 Q23.25,143.9375 23.8594,143.0156 L24.9063,146.6719 L23.5781,147.0781 Q23.1094,145.5313 22.4453,144.8672 Q21.7813,144.2031 20.7188,144.2031 Q20.3281,144.2031 19.5625,145.7344 Q18.7969,147.2656 18.7969,149.5156 Q18.7969,151.9844 19.4609,153.375 Q20.125,154.7656 20.6563,154.7656 Q21.7188,154.7656 22.4766,154 Q23.2344,153.2344 23.5781,151.5781 L24.9063,152.1719 Q24.5781,153.5781 23.6797,154.4688 Q22.7813,155.3594 20.5781,155.3594 Z " fill="#000000"/><text fill="#000000" font-family="sans-serif" font-size="14" lengthAdjust="spacing" textLength="51" x="36" y="156.4839">Class02</text><line style="stroke:#00FF7F;stroke-width:0.5;" x1="8" x2="89" y1="166" y2="166"/><line style="stroke:#00FF7F;stroke-width:0.5;" x1="8" x2="89" y1="174" y2="174"/></g><!--MD5=[e34eefe962fcadefcbf83660cc436420]
class Class03--><g id="elem_Class03"><rect fill="#98FB98" height="48" id="Class03" rx="10" ry="10" style="stroke:#00FF7F;stroke-width:0.5;" width="83" x="125" y="7"/><ellipse cx="140" cy="23" fill="#ADD1B2" rx="11" ry="11" style="stroke:#181818;stroke-width:1.0;"/><path d="M138.5781,28.3594 Q136.7188,28.3594 135.625,26.9688 Q134.5313,25.5781 134.5313,22.5938 Q134.5313,20.0625 135.6953,18.4063 Q136.8594,16.75 138.8438,16.75 Q140.3125,16.75 140.7813,16.875 Q141.25,17.0781 141.25,17.0781 Q141.25,17.0781 141.25,17.0078 Q141.25,16.9375 141.8594,16.0156 L142.9063,19.6719 L141.5781,20.0781 Q141.1094,18.5313 140.4453,17.8672 Q139.7813,17.2031 138.7188,17.2031 Q138.3281,17.2031 137.5625,18.7344 Q136.7969,20.2656 136.7969,22.5156 Q136.7969,24.9844 137.4609,26.375 Q138.125,27.7656 138.6563,27.7656 Q139.7188,27.7656 140.4766,27 Q141.2344,26.2344 141.5781,24.5781 L142.9063,25.1719 Q142.5781,26.5781 141.6797,27.4688 Q140.7813,28.3594 138.5781,28.3594 Z " fill="#000000"/><text fill="#000000" font-family="sans-serif" font-size="14" lengthAdjust="spacing" textLength="51" x="154" y="29.4839">Class03</text><line style="stroke:#00FF7F;stroke-width:0.5;" x1="126" x2="207" y1="39" y2="39"/><line style="stroke:#00FF7F;stroke-width:0.5;" x1="126" x2="207" y1="47" y2="47"/></g><!--MD5=[d53a23475d458e69a9e37a48405189e2]
class Class04--><g id="elem_Class04"><rect fill="#98FB98" height="48" id="Class04" rx="10" ry="10" style="stroke:#00FF7F;stroke-width:0.5;" width="83" x="125" y="134"/><ellipse cx="140" cy="150" fill="#ADD1B2" rx="11" ry="11" style="stroke:#181818;stroke-width:1.0;"/><path d="M138.5781,155.3594 Q136.7188,155.3594 135.625,153.9688 Q134.5313,152.5781 134.5313,149.5938 Q134.5313,147.0625 135.6953,145.4063 Q136.8594,143.75 138.8438,143.75 Q140.3125,143.75 140.7813,143.875 Q141.25,144.0781 141.25,144.0781 Q141.25,144.0781 141.25,144.0078 Q141.25,143.9375 141.8594,143.0156 L142.9063,146.6719 L141.5781,147.0781 Q141.1094,145.5313 140.4453,144.8672 Q139.7813,144.2031 138.7188,144.2031 Q138.3281,144.2031 137.5625,145.7344 Q136.7969,147.2656 136.7969,149.5156 Q136.7969,151.9844 137.4609,153.375 Q138.125,154.7656 138.6563,154.7656 Q139.7188,154.7656 140.4766,154 Q141.2344,153.2344 141.5781,151.5781 L142.9063,152.1719 Q142.5781,153.5781 141.6797,154.4688 Q140.7813,155.3594 138.5781,155.3594 Z " fill="#000000"/><text fill="#000000" font-family="sans-serif" font-size="14" lengthAdjust="spacing" textLength="51" x="154" y="156.4839">Class04</text><line style="stroke:#00FF7F;stroke-width:0.5;" x1="126" x2="207" y1="166" y2="166"/><line style="stroke:#00FF7F;stroke-width:0.5;" x1="126" x2="207" y1="174" y2="174"/></g><!--MD5=[3ab52052fd7925c5f64fca5d41d6866e]
reverse link Class01 to Class02--><g id="link_Class01_Class02"><path codeLine="9" d="M48.5,68.291 C48.5,89.458 48.5,115.5227 48.5,133.9058 " fill="none" id="Class01-backto-Class02" style="stroke:#2E8B57;stroke-width:1.0;"/><polygon fill="#2E8B57" points="48.5,55.219,44.5,61.219,48.5,67.219,52.5,61.219,48.5,55.219" style="stroke:#2E8B57;stroke-width:1.0;"/><text fill="#000000" font-family="sans-serif" font-size="13" lengthAdjust="spacing" textLength="49" x="49.5" y="100.8979">contains</text><text fill="#000000" font-family="sans-serif" font-size="13" lengthAdjust="spacing" textLength="7" x="40.6906" y="77.7704">1</text><text fill="#000000" font-family="sans-serif" font-size="13" lengthAdjust="spacing" textLength="32" x="12.2" y="123.1454">many</text></g><!--MD5=[0815ca07f8d628dc1a46a48ef0cd4c01]
reverse link Class03 to Class04--><g id="link_Class03_Class04"><path codeLine="11" d="M166.5,68.291 C166.5,89.458 166.5,115.5227 166.5,133.9058 " fill="none" id="Class03-backto-Class04" style="stroke:#2E8B57;stroke-width:1.0;"/><polygon fill="none" points="166.5,55.219,162.5,61.219,166.5,67.219,170.5,61.219,166.5,55.219" style="stroke:#2E8B57;stroke-width:1.0;"/><text fill="#000000" font-family="sans-serif" font-size="13" lengthAdjust="spacing" textLength="67" x="167.5" y="100.8979">aggregation</text></g><!--MD5=[3d27d4d1ea776934f4d13145f3057137]
@startuml
skinparam roundcorner 20
skinparam class {
	BackgroundColor PaleGreen
	ArrowColor SeaGreen
	BorderColor SpringGreen
}
skinparam stereotypeCBackgroundColor YellowGreen

Class01 "1" *- - "many" Class02 : contains

Class03 o- - Class04 : aggregation
@enduml

PlantUML version 1.2022.4(Sat Apr 09 21:29:17 CST 2022)
(GPL source distribution)
Java Runtime: Java(TM) SE Runtime Environment
JVM: Java HotSpot(TM) 64-Bit Server VM
Default Encoding: GBK
Language: zh
Country: CN
--></g></svg>