<?xml version="1.0" encoding="UTF-8" standalone="no"?><svg xmlns="http://www.w3.org/2000/svg" xmlns:xlink="http://www.w3.org/1999/xlink" contentStyleType="text/css" height="378px" preserveAspectRatio="none" style="width:371px;height:378px;background:#000000;" version="1.1" viewBox="0 0 371 378" width="371px" zoomAndPan="magnify"><defs/><g><rect fill="#000000" height="158.772" style="stroke:#E7E7E7;stroke-width:1.0;" width="10" x="88.5" y="117.8745"/><rect fill="#000000" height="95.2632" style="stroke:#E7E7E7;stroke-width:1.0;" width="10" x="219.5" y="149.6289"/><rect fill="#000000" height="31.7544" style="stroke:#E7E7E7;stroke-width:1.0;" width="10" x="320" y="181.3833"/><line style="stroke:#E7E7E7;stroke-width:0.5;stroke-dasharray:5.0,5.0;" x1="22" x2="22" y1="84.1201" y2="294.6465"/><line style="stroke:#E7E7E7;stroke-width:0.5;stroke-dasharray:5.0,5.0;" x1="93" x2="93" y1="84.1201" y2="294.6465"/><line style="stroke:#E7E7E7;stroke-width:0.5;stroke-dasharray:5.0,5.0;" x1="224" x2="224" y1="84.1201" y2="294.6465"/><line style="stroke:#E7E7E7;stroke-width:0.5;stroke-dasharray:5.0,5.0;" x1="325" x2="325" y1="84.1201" y2="294.6465"/><text fill="#FFFFFF" font-family="sans-serif" font-size="14" lengthAdjust="spacing" textLength="29" x="5" y="81.0439">User</text><ellipse cx="22.5" cy="13.5" fill="#1C1C1C" rx="8" ry="8" style="stroke:#E7E7E7;stroke-width:0.5;"/><path d="M22.5,21.5 L22.5,48.5 M9.5,29.5 L35.5,29.5 M22.5,48.5 L9.5,63.5 M22.5,48.5 L35.5,63.5 " fill="none" style="stroke:#E7E7E7;stroke-width:0.5;"/><text fill="#FFFFFF" font-family="sans-serif" font-size="14" lengthAdjust="spacing" textLength="29" x="5" y="309.6904">User</text><ellipse cx="22.5" cy="321.2666" fill="#1C1C1C" rx="8" ry="8" style="stroke:#E7E7E7;stroke-width:0.5;"/><path d="M22.5,329.2666 L22.5,356.2666 M9.5,337.2666 L35.5,337.2666 M22.5,356.2666 L9.5,371.2666 M22.5,356.2666 L35.5,371.2666 " fill="none" style="stroke:#E7E7E7;stroke-width:0.5;"/><rect fill="#1C1C1C" height="33.1201" rx="2.5" ry="2.5" style="stroke:#E7E7E7;stroke-width:0.5;" width="81" x="53" y="50"/><text fill="#FFFFFF" font-family="sans-serif" font-size="14" lengthAdjust="spacing" textLength="67" x="60" y="73.0439">First Class</text><rect fill="#1C1C1C" height="33.1201" rx="2.5" ry="2.5" style="stroke:#E7E7E7;stroke-width:0.5;" width="81" x="53" y="293.6465"/><text fill="#FFFFFF" font-family="sans-serif" font-size="14" lengthAdjust="spacing" textLength="67" x="60" y="316.6904">First Class</text><rect fill="#1C1C1C" height="33.1201" rx="2.5" ry="2.5" style="stroke:#E7E7E7;stroke-width:0.5;" width="101" x="174" y="50"/><text fill="#FFFFFF" font-family="sans-serif" font-size="14" lengthAdjust="spacing" textLength="87" x="181" y="73.0439">Second Class</text><rect fill="#1C1C1C" height="33.1201" rx="2.5" ry="2.5" style="stroke:#E7E7E7;stroke-width:0.5;" width="101" x="174" y="293.6465"/><text fill="#FFFFFF" font-family="sans-serif" font-size="14" lengthAdjust="spacing" textLength="87" x="181" y="316.6904">Second Class</text><rect fill="#1C1C1C" height="33.1201" rx="2.5" ry="2.5" style="stroke:#E7E7E7;stroke-width:0.5;" width="80" x="285" y="50"/><text fill="#FFFFFF" font-family="sans-serif" font-size="14" lengthAdjust="spacing" textLength="66" x="292" y="73.0439">Last Class</text><rect fill="#1C1C1C" height="33.1201" rx="2.5" ry="2.5" style="stroke:#E7E7E7;stroke-width:0.5;" width="80" x="285" y="293.6465"/><text fill="#FFFFFF" font-family="sans-serif" font-size="14" lengthAdjust="spacing" textLength="66" x="292" y="316.6904">Last Class</text><rect fill="#000000" height="158.772" style="stroke:#E7E7E7;stroke-width:1.0;" width="10" x="88.5" y="117.8745"/><rect fill="#000000" height="95.2632" style="stroke:#E7E7E7;stroke-width:1.0;" width="10" x="219.5" y="149.6289"/><rect fill="#000000" height="31.7544" style="stroke:#E7E7E7;stroke-width:1.0;" width="10" x="320" y="181.3833"/><polygon fill="#E7E7E7" points="76.5,113.8745,86.5,117.8745,76.5,121.8745,80.5,117.8745" style="stroke:#E7E7E7;stroke-width:1.0;"/><line style="stroke:#E7E7E7;stroke-width:1.0;" x1="22.5" x2="82.5" y1="117.8745" y2="117.8745"/><text fill="#FFFFFF" font-family="sans-serif" font-size="13" lengthAdjust="spacing" textLength="47" x="29.5" y="113.0181">DoWork</text><polygon fill="#E7E7E7" points="207.5,145.6289,217.5,149.6289,207.5,153.6289,211.5,149.6289" style="stroke:#E7E7E7;stroke-width:1.0;"/><line style="stroke:#E7E7E7;stroke-width:1.0;" x1="98.5" x2="213.5" y1="149.6289" y2="149.6289"/><text fill="#FFFFFF" font-family="sans-serif" font-size="13" lengthAdjust="spacing" textLength="90" x="105.5" y="144.7725">Create Request</text><polygon fill="#E7E7E7" points="308,177.3833,318,181.3833,308,185.3833,312,181.3833" style="stroke:#E7E7E7;stroke-width:1.0;"/><line style="stroke:#E7E7E7;stroke-width:1.0;" x1="229.5" x2="314" y1="181.3833" y2="181.3833"/><text fill="#FFFFFF" font-family="sans-serif" font-size="13" lengthAdjust="spacing" textLength="47" x="236.5" y="176.5269">DoWork</text><polygon fill="#E7E7E7" points="240.5,209.1377,230.5,213.1377,240.5,217.1377,236.5,213.1377" style="stroke:#E7E7E7;stroke-width:1.0;"/><line style="stroke:#E7E7E7;stroke-width:1.0;stroke-dasharray:2.0,2.0;" x1="234.5" x2="324" y1="213.1377" y2="213.1377"/><text fill="#FFFFFF" font-family="sans-serif" font-size="13" lengthAdjust="spacing" textLength="61" x="246.5" y="208.2813">WorkDone</text><line style="stroke:#C7C7C7;stroke-width:2.0;" x1="316" x2="334" y1="204.1377" y2="222.1377"/><line style="stroke:#C7C7C7;stroke-width:2.0;" x1="316" x2="334" y1="222.1377" y2="204.1377"/><polygon fill="#E7E7E7" points="109.5,240.8921,99.5,244.8921,109.5,248.8921,105.5,244.8921" style="stroke:#E7E7E7;stroke-width:1.0;"/><line style="stroke:#E7E7E7;stroke-width:1.0;stroke-dasharray:2.0,2.0;" x1="103.5" x2="223.5" y1="244.8921" y2="244.8921"/><text fill="#FFFFFF" font-family="sans-serif" font-size="13" lengthAdjust="spacing" textLength="97" x="115.5" y="240.0356">Request Created</text><polygon fill="#E7E7E7" points="33.5,272.6465,23.5,276.6465,33.5,280.6465,29.5,276.6465" style="stroke:#E7E7E7;stroke-width:1.0;"/><line style="stroke:#E7E7E7;stroke-width:1.0;stroke-dasharray:2.0,2.0;" x1="27.5" x2="92.5" y1="276.6465" y2="276.6465"/><text fill="#FFFFFF" font-family="sans-serif" font-size="13" lengthAdjust="spacing" textLength="30" x="39.5" y="271.79">Done</text><!--MD5=[23b8dd3b7c0970e1d58c2bba74eb5f16]
@startuml

skinparam monochrome reverse

actor User
participant "First Class" as A
participant "Second Class" as B
participant "Last Class" as C

User -> A: DoWork
activate A

A -> B: Create Request
activate B

B -> C: DoWork
activate C
C - -> B: WorkDone
destroy C

B - -> A: Request Created
deactivate B

A - -> User: Done
deactivate A

@enduml

PlantUML version 1.2022.4(Sat Apr 09 21:29:17 CST 2022)
(GPL source distribution)
Java Runtime: Java(TM) SE Runtime Environment
JVM: Java HotSpot(TM) 64-Bit Server VM
Default Encoding: GBK
Language: zh
Country: CN
--></g></svg>