<?xml version="1.0" encoding="UTF-8" standalone="no"?><svg xmlns="http://www.w3.org/2000/svg" xmlns:xlink="http://www.w3.org/1999/xlink" contentStyleType="text/css" height="368px" preserveAspectRatio="none" style="width:263px;height:368px;background:#FFFFFF;" version="1.1" viewBox="0 0 263 368" width="263px" zoomAndPan="magnify"><defs/><g><rect fill="#F1F1F1" height="36.3887" rx="12.5" ry="12.5" style="stroke:#181818;stroke-width:0.5;" width="44" x="91" y="11"/><text fill="#000000" font-family="sans-serif" font-size="12" lengthAdjust="spacing" textLength="24" x="101" y="34.752">foo1</text><polygon fill="#F1F1F1" points="101,90.8286,125,90.8286,137,102.8286,125,114.8286,101,114.8286,89,102.8286,101,90.8286" style="stroke:#181818;stroke-width:0.5;"/><text fill="#000000" font-family="sans-serif" font-size="11" lengthAdjust="spacing" textLength="18" x="104" y="107.9231">test</text><rect fill="#F1F1F1" height="36.3887" rx="12.5" ry="12.5" style="stroke:#181818;stroke-width:0.5;" width="44" x="11" y="124.8286"/><text fill="#000000" font-family="sans-serif" font-size="12" lengthAdjust="spacing" textLength="24" x="21" y="148.5806">foo2</text><rect fill="#F1F1F1" height="36.3887" rx="12.5" ry="12.5" style="stroke:#181818;stroke-width:0.5;" width="44" x="11" y="234.7031"/><text fill="#000000" font-family="sans-serif" font-size="12" lengthAdjust="spacing" textLength="24" x="21" y="258.4551">foo3</text><rect fill="#F1F1F1" height="36.3887" rx="12.5" ry="12.5" style="stroke:#181818;stroke-width:0.5;" width="44" x="171" y="124.8286"/><text fill="#000000" font-family="sans-serif" font-size="12" lengthAdjust="spacing" textLength="24" x="181" y="148.5806">foo4</text><polygon fill="#F1F1F1" points="113,277.0918,125,289.0918,113,301.0918,101,289.0918,113,277.0918" style="stroke:#181818;stroke-width:0.5;"/><rect fill="#F1F1F1" height="36.3887" rx="12.5" ry="12.5" style="stroke:#181818;stroke-width:0.5;" width="44" x="91" y="321.0918"/><text fill="#000000" font-family="sans-serif" font-size="12" lengthAdjust="spacing" textLength="24" x="101" y="344.8438">foo5</text><line style="stroke:#008000;stroke-width:1.5;stroke-dasharray:7.0,7.0;" x1="33" x2="33" y1="161.2173" y2="234.7031"/><polygon fill="#008000" points="29,224.7031,33,234.7031,37,224.7031,33,228.7031" style="stroke:#008000;stroke-width:1.0;"/><text fill="#000000" font-family="sans-serif" font-size="11" lengthAdjust="spacing" textLength="60" x="37" y="184.7402">The text can</text><text fill="#000000" font-family="sans-serif" font-size="11" lengthAdjust="spacing" textLength="114" x="37" y="199.7632">also be on several lines</text><text fill="#000000" font-family="sans-serif" font-size="11" lengthAdjust="spacing" textLength="18" x="37" y="214.7861">and</text><text fill="#000000" font-family="sans-serif" font-size="11" font-weight="bold" lengthAdjust="spacing" textLength="24" x="58" y="214.7861">very</text><text fill="#000000" font-family="sans-serif" font-size="11" lengthAdjust="spacing" textLength="29" x="85" y="214.7861">long...</text><line style="stroke:#0000FF;stroke-width:1.0;" x1="89" x2="33" y1="102.8286" y2="102.8286"/><line style="stroke:#0000FF;stroke-width:1.0;" x1="33" x2="33" y1="102.8286" y2="124.8286"/><polygon fill="#0000FF" points="29,114.8286,33,124.8286,37,114.8286,33,118.8286" style="stroke:#0000FF;stroke-width:1.0;"/><line style="stroke:#000000;stroke-width:1.5;stroke-dasharray:1.0,3.0;" x1="137" x2="193" y1="102.8286" y2="102.8286"/><line style="stroke:#000000;stroke-width:1.5;stroke-dasharray:1.0,3.0;" x1="193" x2="193" y1="102.8286" y2="124.8286"/><polygon fill="#000000" points="189,114.8286,193,124.8286,197,114.8286,193,118.8286" style="stroke:#000000;stroke-width:1.0;"/><line style="stroke:#181818;stroke-width:1.0;" x1="33" x2="33" y1="271.0918" y2="289.0918"/><line style="stroke:#181818;stroke-width:1.0;" x1="33" x2="101" y1="289.0918" y2="289.0918"/><polygon fill="#181818" points="91,285.0918,101,289.0918,91,293.0918,95,289.0918" style="stroke:#181818;stroke-width:1.0;"/><line style="stroke:#181818;stroke-width:1.0;" x1="193" x2="193" y1="161.2173" y2="289.0918"/><line style="stroke:#181818;stroke-width:1.0;" x1="193" x2="125" y1="289.0918" y2="289.0918"/><polygon fill="#181818" points="135,285.0918,125,289.0918,135,293.0918,131,289.0918" style="stroke:#181818;stroke-width:1.0;"/><line style="stroke:#181818;stroke-width:1.0;" x1="113" x2="113" y1="47.3887" y2="90.8286"/><polygon fill="#181818" points="109,80.8286,113,90.8286,117,80.8286,113,84.8286" style="stroke:#181818;stroke-width:1.0;"/><text fill="#000000" font-family="sans-serif" font-size="11" lengthAdjust="spacing" textLength="134" x="117" y="70.9116">You can put text on arrows</text><line style="stroke:#808080;stroke-width:2.0;" x1="113" x2="113" y1="301.0918" y2="321.0918"/><polygon fill="#808080" points="109,311.0918,113,321.0918,117,311.0918,113,315.0918" style="stroke:#808080;stroke-width:1.0;"/><!--MD5=[490b724c7ee30eb47dcc32606ad092be]
@startuml
:foo1;
-> You can put text on arrows;
if (test) then
  -[#blue]->
  :foo2;
  -[#green,dashed]-> The text can
  also be on several lines
  and **very** long...;
  :foo3;
else
  -[#black,dotted]->
  :foo4;
endif
-[#gray,bold]->
:foo5;
@enduml

PlantUML version 1.2022.4(Sat Apr 09 21:29:17 CST 2022)
(GPL source distribution)
Java Runtime: Java(TM) SE Runtime Environment
JVM: Java HotSpot(TM) 64-Bit Server VM
Default Encoding: GBK
Language: zh
Country: CN
--></g></svg>