<?xml version="1.0" encoding="UTF-8" standalone="no"?><svg xmlns="http://www.w3.org/2000/svg" xmlns:xlink="http://www.w3.org/1999/xlink" contentStyleType="text/css" height="226px" preserveAspectRatio="none" style="width:250px;height:226px;background:#FFFFFF;" version="1.1" viewBox="0 0 250 226" width="250px" zoomAndPan="magnify"><defs/><g><ellipse cx="125" cy="20" fill="#222222" rx="10" ry="10" style="stroke:#222222;stroke-width:1.0;"/><rect fill="#F1F1F1" height="36.3887" rx="12.5" ry="12.5" style="stroke:#181818;stroke-width:0.5;" width="114" x="68" y="50"/><text fill="#000000" font-family="sans-serif" font-size="12" lengthAdjust="spacing" textLength="94" x="78" y="73.752">starting progress</text><rect fill="#FF69B4" height="52.7773" rx="12.5" ry="12.5" style="stroke:#181818;stroke-width:0.5;" width="228" x="11" y="106.3887"/><text fill="#000000" font-family="sans-serif" font-size="12" lengthAdjust="spacing" textLength="142" x="21" y="130.1406">reading configuration files</text><text fill="#000000" font-family="sans-serif" font-size="12" lengthAdjust="spacing" textLength="208" x="21" y="146.5293">These files should edited at this point!</text><rect fill="#AAAAAA" height="36.3887" rx="12.5" ry="12.5" style="stroke:#181818;stroke-width:0.5;" width="139" x="55.5" y="179.166"/><text fill="#000000" font-family="sans-serif" font-size="12" lengthAdjust="spacing" textLength="119" x="65.5" y="202.918">ending of the process</text><line style="stroke:#181818;stroke-width:1.0;" x1="125" x2="125" y1="30" y2="50"/><polygon fill="#181818" points="121,40,125,50,129,40,125,44" style="stroke:#181818;stroke-width:1.0;"/><line style="stroke:#181818;stroke-width:1.0;" x1="125" x2="125" y1="86.3887" y2="106.3887"/><polygon fill="#181818" points="121,96.3887,125,106.3887,129,96.3887,125,100.3887" style="stroke:#181818;stroke-width:1.0;"/><line style="stroke:#181818;stroke-width:1.0;" x1="125" x2="125" y1="159.166" y2="179.166"/><polygon fill="#181818" points="121,169.166,125,179.166,129,169.166,125,173.166" style="stroke:#181818;stroke-width:1.0;"/><!--MD5=[57863f1ce39d3fb5b995ab22f506f631]
@startuml

start
:starting progress;
#HotPink:reading configuration files
These files should edited at this point!;
#AAAAAA:ending of the process;

@enduml

PlantUML version 1.2022.4(Sat Apr 09 21:29:17 CST 2022)
(GPL source distribution)
Java Runtime: Java(TM) SE Runtime Environment
JVM: Java HotSpot(TM) 64-Bit Server VM
Default Encoding: GBK
Language: zh
Country: CN
--></g></svg>