<?xml version="1.0" encoding="UTF-8" standalone="no"?><svg xmlns="http://www.w3.org/2000/svg" xmlns:xlink="http://www.w3.org/1999/xlink" contentStyleType="text/css" height="924px" preserveAspectRatio="none" style="width:434px;height:924px;background:#FFFFFF;" version="1.1" viewBox="0 0 434 924" width="434px" zoomAndPan="magnify"><defs/><g><ellipse cx="171.875" cy="20" fill="#222222" rx="10" ry="10" style="stroke:#222222;stroke-width:1.0;"/><rect fill="#F1F1F1" height="36.3887" rx="12.5" ry="12.5" style="stroke:#181818;stroke-width:0.5;" width="180" x="81.875" y="50"/><text fill="#000000" font-family="sans-serif" font-size="12" lengthAdjust="spacing" textLength="160" x="91.875" y="73.752">ClickServlet.handleRequest()</text><rect fill="#F1F1F1" height="36.3887" rx="12.5" ry="12.5" style="stroke:#181818;stroke-width:0.5;" width="74" x="134.875" y="106.3887"/><text fill="#000000" font-family="sans-serif" font-size="12" lengthAdjust="spacing" textLength="54" x="144.875" y="130.1406">new page</text><rect fill="#F1F1F1" height="36.3887" rx="12.5" ry="12.5" style="stroke:#181818;stroke-width:0.5;" width="90" x="126.875" y="212.2888"/><text fill="#000000" font-family="sans-serif" font-size="12" lengthAdjust="spacing" textLength="70" x="136.875" y="236.0408">Page.onInit()</text><rect fill="#F1F1F1" height="36.3887" rx="12.5" ry="12.5" style="stroke:#181818;stroke-width:0.5;" width="113" x="115.375" y="318.189"/><text fill="#000000" font-family="sans-serif" font-size="12" lengthAdjust="spacing" textLength="93" x="125.375" y="341.9409">Process controls</text><polygon fill="#F1F1F1" points="119.875,374.5776,223.875,374.5776,235.875,386.5776,223.875,398.5776,119.875,398.5776,107.875,386.5776,119.875,374.5776" style="stroke:#181818;stroke-width:0.5;"/><text fill="#000000" font-family="sans-serif" font-size="11" lengthAdjust="spacing" textLength="104" x="119.875" y="391.6721">continue processing?</text><text fill="#000000" font-family="sans-serif" font-size="11" lengthAdjust="spacing" textLength="12" x="235.875" y="384.1606">no</text><ellipse cx="269.875" cy="386.5776" rx="11" ry="11" style="stroke:#222222;stroke-width:1.0;fill:none;"/><ellipse cx="269.875" cy="386.5776" fill="#222222" rx="6" ry="6" style="stroke:#111111;stroke-width:1.0;"/><polygon fill="#F1F1F1" points="154.375,441.8833,189.375,441.8833,201.375,453.8833,189.375,465.8833,154.375,465.8833,142.375,453.8833,154.375,441.8833" style="stroke:#181818;stroke-width:0.5;"/><text fill="#000000" font-family="sans-serif" font-size="11" lengthAdjust="spacing" textLength="35" x="154.375" y="458.9778">isPost?</text><text fill="#000000" font-family="sans-serif" font-size="11" lengthAdjust="spacing" textLength="18" x="124.375" y="451.4663">yes</text><text fill="#000000" font-family="sans-serif" font-size="11" lengthAdjust="spacing" textLength="12" x="201.375" y="451.4663">no</text><rect fill="#F1F1F1" height="36.3887" rx="12.5" ry="12.5" style="stroke:#181818;stroke-width:0.5;" width="99" x="64.375" y="475.8833"/><text fill="#000000" font-family="sans-serif" font-size="12" lengthAdjust="spacing" textLength="79" x="74.375" y="499.6353">Page.onPost()</text><rect fill="#F1F1F1" height="36.3887" rx="12.5" ry="12.5" style="stroke:#181818;stroke-width:0.5;" width="93" x="183.375" y="475.8833"/><text fill="#000000" font-family="sans-serif" font-size="12" lengthAdjust="spacing" textLength="73" x="193.375" y="499.6353">Page.onGet()</text><polygon fill="#F1F1F1" points="171.875,518.272,183.875,530.272,171.875,542.272,159.875,530.272,171.875,518.272" style="stroke:#181818;stroke-width:0.5;"/><rect fill="#F1F1F1" height="36.3887" rx="12.5" ry="12.5" style="stroke:#181818;stroke-width:0.5;" width="115" x="114.375" y="562.272"/><text fill="#000000" font-family="sans-serif" font-size="12" lengthAdjust="spacing" textLength="95" x="124.375" y="586.0239">Page.onRender()</text><polygon fill="#F1F1F1" points="143.875,268.6775,199.875,268.6775,211.875,280.6775,199.875,292.6775,143.875,292.6775,131.875,280.6775,143.875,268.6775" style="stroke:#181818;stroke-width:0.5;"/><text fill="#000000" font-family="sans-serif" font-size="11" lengthAdjust="spacing" textLength="12" x="175.875" y="305.2834">no</text><text fill="#000000" font-family="sans-serif" font-size="11" lengthAdjust="spacing" textLength="56" x="143.875" y="285.772">isForward?</text><polygon fill="#F1F1F1" points="171.875,618.6606,183.875,630.6606,171.875,642.6606,159.875,630.6606,171.875,618.6606" style="stroke:#181818;stroke-width:0.5;"/><polygon fill="#F1F1F1" points="117.375,162.7773,226.375,162.7773,238.375,174.7773,226.375,186.7773,117.375,186.7773,105.375,174.7773,117.375,162.7773" style="stroke:#181818;stroke-width:0.5;"/><text fill="#000000" font-family="sans-serif" font-size="11" lengthAdjust="spacing" textLength="19" x="175.875" y="199.3833">true</text><text fill="#000000" font-family="sans-serif" font-size="11" lengthAdjust="spacing" textLength="109" x="117.375" y="179.8718">Page.onSecurityCheck</text><text fill="#000000" font-family="sans-serif" font-size="11" lengthAdjust="spacing" textLength="24" x="238.375" y="172.3604">false</text><polygon fill="#F1F1F1" points="171.875,662.6606,183.875,674.6606,171.875,686.6606,159.875,674.6606,171.875,662.6606" style="stroke:#181818;stroke-width:0.5;"/><polygon fill="#F1F1F1" points="142.875,706.6606,200.875,706.6606,212.875,718.6606,200.875,730.6606,142.875,730.6606,130.875,718.6606,142.875,706.6606" style="stroke:#181818;stroke-width:0.5;"/><text fill="#000000" font-family="sans-serif" font-size="11" lengthAdjust="spacing" textLength="58" x="142.875" y="723.7551">do redirect?</text><text fill="#000000" font-family="sans-serif" font-size="11" lengthAdjust="spacing" textLength="18" x="112.875" y="716.2437">yes</text><rect fill="#F1F1F1" height="36.3887" rx="12.5" ry="12.5" style="stroke:#181818;stroke-width:0.5;" width="109" x="11" y="740.6606"/><text fill="#000000" font-family="sans-serif" font-size="12" lengthAdjust="spacing" textLength="89" x="21" y="764.4126">redirect process</text><polygon fill="#F1F1F1" points="247.75,740.6606,308.75,740.6606,320.75,752.6606,308.75,764.6606,247.75,764.6606,235.75,752.6606,247.75,740.6606" style="stroke:#181818;stroke-width:0.5;"/><text fill="#000000" font-family="sans-serif" font-size="11" lengthAdjust="spacing" textLength="61" x="247.75" y="757.7551">do forward?</text><text fill="#000000" font-family="sans-serif" font-size="11" lengthAdjust="spacing" textLength="18" x="217.75" y="750.2437">yes</text><text fill="#000000" font-family="sans-serif" font-size="11" lengthAdjust="spacing" textLength="12" x="320.75" y="750.2437">no</text><rect fill="#F1F1F1" height="36.3887" rx="12.5" ry="12.5" style="stroke:#181818;stroke-width:0.5;" width="110" x="150" y="774.6606"/><text fill="#000000" font-family="sans-serif" font-size="12" lengthAdjust="spacing" textLength="90" x="160" y="798.4126">Forward request</text><rect fill="#F1F1F1" height="36.3887" rx="12.5" ry="12.5" style="stroke:#181818;stroke-width:0.5;" width="143" x="280" y="774.6606"/><text fill="#000000" font-family="sans-serif" font-size="12" lengthAdjust="spacing" textLength="123" x="290" y="798.4126">Render page template</text><polygon fill="#F1F1F1" points="278.25,817.0493,290.25,829.0493,278.25,841.0493,266.25,829.0493,278.25,817.0493" style="stroke:#181818;stroke-width:0.5;"/><polygon fill="#F1F1F1" points="171.875,847.0493,183.875,859.0493,171.875,871.0493,159.875,859.0493,171.875,847.0493" style="stroke:#181818;stroke-width:0.5;"/><ellipse cx="171.875" cy="902.0493" rx="11" ry="11" style="stroke:#222222;stroke-width:1.0;fill:none;"/><ellipse cx="171.875" cy="902.0493" fill="#222222" rx="6" ry="6" style="stroke:#111111;stroke-width:1.0;"/><line style="stroke:#181818;stroke-width:1.0;" x1="171.875" x2="171.875" y1="30" y2="50"/><polygon fill="#181818" points="167.875,40,171.875,50,175.875,40,171.875,44" style="stroke:#181818;stroke-width:1.0;"/><line style="stroke:#181818;stroke-width:1.0;" x1="171.875" x2="171.875" y1="86.3887" y2="106.3887"/><polygon fill="#181818" points="167.875,96.3887,171.875,106.3887,175.875,96.3887,171.875,100.3887" style="stroke:#181818;stroke-width:1.0;"/><line style="stroke:#181818;stroke-width:1.0;" x1="171.875" x2="171.875" y1="398.5776" y2="441.8833"/><polygon fill="#181818" points="167.875,431.8833,171.875,441.8833,175.875,431.8833,171.875,435.8833" style="stroke:#181818;stroke-width:1.0;"/><line style="stroke:#181818;stroke-width:1.0;" x1="235.875" x2="258.875" y1="386.5776" y2="386.5776"/><polygon fill="#181818" points="248.875,382.5776,258.875,386.5776,248.875,390.5776,252.875,386.5776" style="stroke:#181818;stroke-width:1.0;"/><line style="stroke:#181818;stroke-width:1.0;" x1="171.875" x2="171.875" y1="354.5776" y2="374.5776"/><polygon fill="#181818" points="167.875,364.5776,171.875,374.5776,175.875,364.5776,171.875,368.5776" style="stroke:#181818;stroke-width:1.0;"/><line style="stroke:#181818;stroke-width:1.0;" x1="142.375" x2="113.875" y1="453.8833" y2="453.8833"/><line style="stroke:#181818;stroke-width:1.0;" x1="113.875" x2="113.875" y1="453.8833" y2="475.8833"/><polygon fill="#181818" points="109.875,465.8833,113.875,475.8833,117.875,465.8833,113.875,469.8833" style="stroke:#181818;stroke-width:1.0;"/><line style="stroke:#181818;stroke-width:1.0;" x1="201.375" x2="229.875" y1="453.8833" y2="453.8833"/><line style="stroke:#181818;stroke-width:1.0;" x1="229.875" x2="229.875" y1="453.8833" y2="475.8833"/><polygon fill="#181818" points="225.875,465.8833,229.875,475.8833,233.875,465.8833,229.875,469.8833" style="stroke:#181818;stroke-width:1.0;"/><line style="stroke:#181818;stroke-width:1.0;" x1="113.875" x2="113.875" y1="512.272" y2="530.272"/><line style="stroke:#181818;stroke-width:1.0;" x1="113.875" x2="159.875" y1="530.272" y2="530.272"/><polygon fill="#181818" points="149.875,526.272,159.875,530.272,149.875,534.272,153.875,530.272" style="stroke:#181818;stroke-width:1.0;"/><line style="stroke:#181818;stroke-width:1.0;" x1="229.875" x2="229.875" y1="512.272" y2="530.272"/><line style="stroke:#181818;stroke-width:1.0;" x1="229.875" x2="183.875" y1="530.272" y2="530.272"/><polygon fill="#181818" points="193.875,526.272,183.875,530.272,193.875,534.272,189.875,530.272" style="stroke:#181818;stroke-width:1.0;"/><line style="stroke:#181818;stroke-width:1.0;" x1="171.875" x2="171.875" y1="542.272" y2="562.272"/><polygon fill="#181818" points="167.875,552.272,171.875,562.272,175.875,552.272,171.875,556.272" style="stroke:#181818;stroke-width:1.0;"/><line style="stroke:#181818;stroke-width:1.0;" x1="171.875" x2="171.875" y1="292.6775" y2="318.189"/><polygon fill="#181818" points="167.875,308.189,171.875,318.189,175.875,308.189,171.875,312.189" style="stroke:#181818;stroke-width:1.0;"/><line style="stroke:#181818;stroke-width:1.0;" x1="211.875" x2="302.875" y1="280.6775" y2="280.6775"/><polygon fill="#181818" points="298.875,428.5776,302.875,438.5776,306.875,428.5776,302.875,432.5776" style="stroke:#181818;stroke-width:1.0;"/><line style="stroke:#181818;stroke-width:1.0;" x1="302.875" x2="302.875" y1="280.6775" y2="630.6606"/><line style="stroke:#181818;stroke-width:1.0;" x1="302.875" x2="183.875" y1="630.6606" y2="630.6606"/><polygon fill="#181818" points="193.875,626.6606,183.875,630.6606,193.875,634.6606,189.875,630.6606" style="stroke:#181818;stroke-width:1.0;"/><line style="stroke:#181818;stroke-width:1.0;" x1="171.875" x2="171.875" y1="598.6606" y2="618.6606"/><polygon fill="#181818" points="167.875,608.6606,171.875,618.6606,175.875,608.6606,171.875,612.6606" style="stroke:#181818;stroke-width:1.0;"/><line style="stroke:#181818;stroke-width:1.0;" x1="171.875" x2="171.875" y1="248.6775" y2="268.6775"/><polygon fill="#181818" points="167.875,258.6775,171.875,268.6775,175.875,258.6775,171.875,262.6775" style="stroke:#181818;stroke-width:1.0;"/><line style="stroke:#181818;stroke-width:1.0;" x1="171.875" x2="171.875" y1="186.7773" y2="212.2888"/><polygon fill="#181818" points="167.875,202.2888,171.875,212.2888,175.875,202.2888,171.875,206.2888" style="stroke:#181818;stroke-width:1.0;"/><line style="stroke:#181818;stroke-width:1.0;" x1="238.375" x2="324.875" y1="174.7773" y2="174.7773"/><polygon fill="#181818" points="320.875,408.5776,324.875,418.5776,328.875,408.5776,324.875,412.5776" style="stroke:#181818;stroke-width:1.0;"/><line style="stroke:#181818;stroke-width:1.0;" x1="324.875" x2="324.875" y1="174.7773" y2="674.6606"/><line style="stroke:#181818;stroke-width:1.0;" x1="324.875" x2="183.875" y1="674.6606" y2="674.6606"/><polygon fill="#181818" points="193.875,670.6606,183.875,674.6606,193.875,678.6606,189.875,674.6606" style="stroke:#181818;stroke-width:1.0;"/><line style="stroke:#181818;stroke-width:1.0;" x1="171.875" x2="171.875" y1="642.6606" y2="662.6606"/><polygon fill="#181818" points="167.875,652.6606,171.875,662.6606,175.875,652.6606,171.875,656.6606" style="stroke:#181818;stroke-width:1.0;"/><line style="stroke:#181818;stroke-width:1.0;" x1="171.875" x2="171.875" y1="142.7773" y2="162.7773"/><polygon fill="#181818" points="167.875,152.7773,171.875,162.7773,175.875,152.7773,171.875,156.7773" style="stroke:#181818;stroke-width:1.0;"/><line style="stroke:#181818;stroke-width:1.0;" x1="235.75" x2="205" y1="752.6606" y2="752.6606"/><line style="stroke:#181818;stroke-width:1.0;" x1="205" x2="205" y1="752.6606" y2="774.6606"/><polygon fill="#181818" points="201,764.6606,205,774.6606,209,764.6606,205,768.6606" style="stroke:#181818;stroke-width:1.0;"/><line style="stroke:#181818;stroke-width:1.0;" x1="320.75" x2="351.5" y1="752.6606" y2="752.6606"/><line style="stroke:#181818;stroke-width:1.0;" x1="351.5" x2="351.5" y1="752.6606" y2="774.6606"/><polygon fill="#181818" points="347.5,764.6606,351.5,774.6606,355.5,764.6606,351.5,768.6606" style="stroke:#181818;stroke-width:1.0;"/><line style="stroke:#181818;stroke-width:1.0;" x1="205" x2="205" y1="811.0493" y2="829.0493"/><line style="stroke:#181818;stroke-width:1.0;" x1="205" x2="266.25" y1="829.0493" y2="829.0493"/><polygon fill="#181818" points="256.25,825.0493,266.25,829.0493,256.25,833.0493,260.25,829.0493" style="stroke:#181818;stroke-width:1.0;"/><line style="stroke:#181818;stroke-width:1.0;" x1="351.5" x2="351.5" y1="811.0493" y2="829.0493"/><line style="stroke:#181818;stroke-width:1.0;" x1="351.5" x2="290.25" y1="829.0493" y2="829.0493"/><polygon fill="#181818" points="300.25,825.0493,290.25,829.0493,300.25,833.0493,296.25,829.0493" style="stroke:#181818;stroke-width:1.0;"/><line style="stroke:#181818;stroke-width:1.0;" x1="130.875" x2="65.5" y1="718.6606" y2="718.6606"/><line style="stroke:#181818;stroke-width:1.0;" x1="65.5" x2="65.5" y1="718.6606" y2="740.6606"/><polygon fill="#181818" points="61.5,730.6606,65.5,740.6606,69.5,730.6606,65.5,734.6606" style="stroke:#181818;stroke-width:1.0;"/><line style="stroke:#181818;stroke-width:1.0;" x1="212.875" x2="278.25" y1="718.6606" y2="718.6606"/><line style="stroke:#181818;stroke-width:1.0;" x1="278.25" x2="278.25" y1="718.6606" y2="740.6606"/><polygon fill="#181818" points="274.25,730.6606,278.25,740.6606,282.25,730.6606,278.25,734.6606" style="stroke:#181818;stroke-width:1.0;"/><line style="stroke:#181818;stroke-width:1.0;" x1="65.5" x2="65.5" y1="777.0493" y2="859.0493"/><line style="stroke:#181818;stroke-width:1.0;" x1="65.5" x2="159.875" y1="859.0493" y2="859.0493"/><polygon fill="#181818" points="149.875,855.0493,159.875,859.0493,149.875,863.0493,153.875,859.0493" style="stroke:#181818;stroke-width:1.0;"/><line style="stroke:#181818;stroke-width:1.0;" x1="278.25" x2="278.25" y1="841.0493" y2="859.0493"/><line style="stroke:#181818;stroke-width:1.0;" x1="278.25" x2="183.875" y1="859.0493" y2="859.0493"/><polygon fill="#181818" points="193.875,855.0493,183.875,859.0493,193.875,863.0493,189.875,859.0493" style="stroke:#181818;stroke-width:1.0;"/><line style="stroke:#181818;stroke-width:1.0;" x1="171.875" x2="171.875" y1="686.6606" y2="706.6606"/><polygon fill="#181818" points="167.875,696.6606,171.875,706.6606,175.875,696.6606,171.875,700.6606" style="stroke:#181818;stroke-width:1.0;"/><line style="stroke:#181818;stroke-width:1.0;" x1="171.875" x2="171.875" y1="871.0493" y2="891.0493"/><polygon fill="#181818" points="167.875,881.0493,171.875,891.0493,175.875,881.0493,171.875,885.0493" style="stroke:#181818;stroke-width:1.0;"/><!--MD5=[82f9e68ccf69a14078d66e9cf8179ca5]
@startuml

start
:ClickServlet.handleRequest();
:new page;
if (Page.onSecurityCheck) then (true)
  :Page.onInit();
  if (isForward?) then (no)
    :Process controls;
    if (continue processing?) then (no)
      stop
    endif
    
    if (isPost?) then (yes)
      :Page.onPost();
    else (no)
      :Page.onGet();
    endif
    :Page.onRender();
  endif
else (false)
endif

if (do redirect?) then (yes)
  :redirect process;
else
  if (do forward?) then (yes)
    :Forward request;
  else (no)
    :Render page template;
  endif
endif

stop

@enduml

PlantUML version 1.2022.4(Sat Apr 09 21:29:17 CST 2022)
(GPL source distribution)
Java Runtime: Java(TM) SE Runtime Environment
JVM: Java HotSpot(TM) 64-Bit Server VM
Default Encoding: GBK
Language: zh
Country: CN
--></g></svg>