<?xml version="1.0" encoding="UTF-8" standalone="no"?><svg xmlns="http://www.w3.org/2000/svg" xmlns:xlink="http://www.w3.org/1999/xlink" contentStyleType="text/css" height="274px" preserveAspectRatio="none" style="width:489px;height:274px;background:#FFFFFF;" version="1.1" viewBox="0 0 489 274" width="489px" zoomAndPan="magnify"><defs/><g><ellipse cx="249" cy="20" fill="#222222" rx="10" ry="10" style="stroke:#222222;stroke-width:1.0;"/><polygon fill="#F1F1F1" points="32,50,86,50,98,62,86,74,32,74,20,62,32,50" style="stroke:#181818;stroke-width:0.5;"/><text fill="#000000" font-family="sans-serif" font-size="11" lengthAdjust="spacing" textLength="18" x="63" y="86.606">yes</text><text fill="#000000" font-family="sans-serif" font-size="11" lengthAdjust="spacing" textLength="54" x="32" y="67.0945">condition A</text><rect fill="#F1F1F1" height="36.3887" rx="12.5" ry="12.5" style="stroke:#181818;stroke-width:0.5;" width="52" x="33" y="108.106"/><text fill="#000000" font-family="sans-serif" font-size="12" lengthAdjust="spacing" textLength="32" x="43" y="131.8579">Text 1</text><polygon fill="#F1F1F1" points="130,50,183,50,195,62,183,74,130,74,118,62,130,50" style="stroke:#181818;stroke-width:0.5;"/><text fill="#000000" font-family="sans-serif" font-size="11" lengthAdjust="spacing" textLength="18" x="160.5" y="86.606">yes</text><text fill="#000000" font-family="sans-serif" font-size="11" lengthAdjust="spacing" textLength="53" x="130" y="67.0945">condition B</text><rect fill="#F1F1F1" height="36.3887" rx="12.5" ry="12.5" style="stroke:#181818;stroke-width:0.5;" width="52" x="130.5" y="108.106"/><text fill="#000000" font-family="sans-serif" font-size="12" lengthAdjust="spacing" textLength="32" x="140.5" y="131.8579">Text 2</text><ellipse cx="156.5" cy="190.4946" rx="11" ry="11" style="stroke:#222222;stroke-width:1.0;fill:none;"/><ellipse cx="156.5" cy="190.4946" fill="#222222" rx="6" ry="6" style="stroke:#111111;stroke-width:1.0;"/><polygon fill="#F1F1F1" points="227,50,280,50,292,62,280,74,227,74,215,62,227,50" style="stroke:#181818;stroke-width:0.5;"/><text fill="#000000" font-family="sans-serif" font-size="11" lengthAdjust="spacing" textLength="18" x="257.5" y="86.606">yes</text><text fill="#000000" font-family="sans-serif" font-size="11" lengthAdjust="spacing" textLength="53" x="227" y="67.0945">condition C</text><rect fill="#F1F1F1" height="36.3887" rx="12.5" ry="12.5" style="stroke:#181818;stroke-width:0.5;" width="52" x="227.5" y="108.106"/><text fill="#000000" font-family="sans-serif" font-size="12" lengthAdjust="spacing" textLength="32" x="237.5" y="131.8579">Text 3</text><polygon fill="#F1F1F1" points="324,50,377,50,389,62,377,74,324,74,312,62,324,50" style="stroke:#181818;stroke-width:0.5;"/><text fill="#000000" font-family="sans-serif" font-size="11" lengthAdjust="spacing" textLength="18" x="354.5" y="86.606">yes</text><text fill="#000000" font-family="sans-serif" font-size="11" lengthAdjust="spacing" textLength="53" x="324" y="67.0945">condition D</text><text fill="#000000" font-family="sans-serif" font-size="11" lengthAdjust="spacing" textLength="35" x="389" y="59.583">nothing</text><rect fill="#F1F1F1" height="36.3887" rx="12.5" ry="12.5" style="stroke:#181818;stroke-width:0.5;" width="52" x="324.5" y="108.106"/><text fill="#000000" font-family="sans-serif" font-size="12" lengthAdjust="spacing" textLength="32" x="334.5" y="131.8579">Text 4</text><rect fill="#F1F1F1" height="36.3887" rx="12.5" ry="12.5" style="stroke:#181818;stroke-width:0.5;" width="69" x="409" y="132.0945"/><text fill="#000000" font-family="sans-serif" font-size="12" lengthAdjust="spacing" textLength="49" x="419" y="155.8464">Text else</text><ellipse cx="249" cy="252.4946" rx="11" ry="11" style="stroke:#222222;stroke-width:1.0;fill:none;"/><ellipse cx="249" cy="252.4946" fill="#222222" rx="6" ry="6" style="stroke:#111111;stroke-width:1.0;"/><line style="stroke:#181818;stroke-width:1.0;" x1="156.5" x2="156.5" y1="144.4946" y2="179.4946"/><polygon fill="#181818" points="152.5,169.4946,156.5,179.4946,160.5,169.4946,156.5,173.4946" style="stroke:#181818;stroke-width:1.0;"/><line style="stroke:#181818;stroke-width:1.0;" x1="59" x2="59" y1="74" y2="108.106"/><polygon fill="#181818" points="55,98.106,59,108.106,63,98.106,59,102.106" style="stroke:#181818;stroke-width:1.0;"/><line style="stroke:#181818;stroke-width:1.0;" x1="59" x2="59" y1="144.4946" y2="221.4946"/><polygon fill="#181818" points="55,211.4946,59,221.4946,63,211.4946,59,215.4946" style="stroke:#181818;stroke-width:1.0;"/><line style="stroke:#181818;stroke-width:1.0;" x1="156.5" x2="156.5" y1="74" y2="108.106"/><polygon fill="#181818" points="152.5,98.106,156.5,108.106,160.5,98.106,156.5,102.106" style="stroke:#181818;stroke-width:1.0;"/><line style="stroke:#181818;stroke-width:1.0;" x1="253.5" x2="253.5" y1="74" y2="108.106"/><polygon fill="#181818" points="249.5,98.106,253.5,108.106,257.5,98.106,253.5,102.106" style="stroke:#181818;stroke-width:1.0;"/><line style="stroke:#181818;stroke-width:1.0;" x1="253.5" x2="253.5" y1="144.4946" y2="221.4946"/><polygon fill="#181818" points="249.5,211.4946,253.5,221.4946,257.5,211.4946,253.5,215.4946" style="stroke:#181818;stroke-width:1.0;"/><line style="stroke:#181818;stroke-width:1.0;" x1="350.5" x2="350.5" y1="74" y2="108.106"/><polygon fill="#181818" points="346.5,98.106,350.5,108.106,354.5,98.106,350.5,102.106" style="stroke:#181818;stroke-width:1.0;"/><line style="stroke:#181818;stroke-width:1.0;" x1="350.5" x2="350.5" y1="144.4946" y2="221.4946"/><polygon fill="#181818" points="346.5,211.4946,350.5,221.4946,354.5,211.4946,350.5,215.4946" style="stroke:#181818;stroke-width:1.0;"/><line style="stroke:#181818;stroke-width:1.0;" x1="98" x2="118" y1="62" y2="62"/><polygon fill="#181818" points="108,58,118,62,108,66,112,62" style="stroke:#181818;stroke-width:1.0;"/><line style="stroke:#181818;stroke-width:1.0;" x1="195" x2="215" y1="62" y2="62"/><polygon fill="#181818" points="205,58,215,62,205,66,209,62" style="stroke:#181818;stroke-width:1.0;"/><line style="stroke:#181818;stroke-width:1.0;" x1="292" x2="312" y1="62" y2="62"/><polygon fill="#181818" points="302,58,312,62,302,66,306,62" style="stroke:#181818;stroke-width:1.0;"/><line style="stroke:#181818;stroke-width:1.0;" x1="249" x2="249" y1="30" y2="35"/><line style="stroke:#181818;stroke-width:1.0;" x1="249" x2="59" y1="35" y2="35"/><line style="stroke:#181818;stroke-width:1.0;" x1="59" x2="59" y1="35" y2="50"/><polygon fill="#181818" points="55,40,59,50,63,40,59,44" style="stroke:#181818;stroke-width:1.0;"/><line style="stroke:#181818;stroke-width:1.0;" x1="389" x2="443.5" y1="62" y2="62"/><line style="stroke:#181818;stroke-width:1.0;" x1="443.5" x2="443.5" y1="62" y2="132.0945"/><polygon fill="#181818" points="439.5,122.0945,443.5,132.0945,447.5,122.0945,443.5,126.0945" style="stroke:#181818;stroke-width:1.0;"/><line style="stroke:#181818;stroke-width:1.0;" x1="443.5" x2="443.5" y1="168.4832" y2="221.4946"/><polygon fill="#181818" points="439.5,211.4946,443.5,221.4946,447.5,211.4946,443.5,215.4946" style="stroke:#181818;stroke-width:1.0;"/><line style="stroke:#181818;stroke-width:1.0;" x1="59" x2="443.5" y1="221.4946" y2="221.4946"/><line style="stroke:#181818;stroke-width:1.0;" x1="249" x2="249" y1="221.4946" y2="241.4946"/><polygon fill="#181818" points="245,231.4946,249,241.4946,253,231.4946,249,235.4946" style="stroke:#181818;stroke-width:1.0;"/><!--MD5=[8e046c729d610251207d2218f2b99e95]
@startuml
start
if (condition A) then (yes)
  :Text 1;
elseif (condition B) then (yes)
  :Text 2;
  stop
elseif (condition C) then (yes)
  :Text 3;
elseif (condition D) then (yes)
  :Text 4;
else (nothing)
  :Text else;
endif
stop
@enduml

PlantUML version 1.2022.4(Sat Apr 09 21:29:17 CST 2022)
(GPL source distribution)
Java Runtime: Java(TM) SE Runtime Environment
JVM: Java HotSpot(TM) 64-Bit Server VM
Default Encoding: GBK
Language: zh
Country: CN
--></g></svg>