<?xml version="1.0" encoding="UTF-8" standalone="no"?><svg xmlns="http://www.w3.org/2000/svg" xmlns:xlink="http://www.w3.org/1999/xlink" contentStyleType="text/css" height="223px" preserveAspectRatio="none" style="width:113px;height:223px;background:#FFFFFF;" version="1.1" viewBox="0 0 113 223" width="113px" zoomAndPan="magnify"><defs/><g><ellipse cx="56.5" cy="20" fill="#222222" rx="10" ry="10" style="stroke:#222222;stroke-width:1.0;"/><rect fill="#F1F1F1" height="36.3887" rx="12.5" ry="12.5" style="stroke:#181818;stroke-width:0.5;" width="91" x="11" y="50"/><text fill="#000000" font-family="sans-serif" font-size="12" lengthAdjust="spacing" textLength="71" x="21" y="73.752">Some activity</text><ellipse cx="56.5" cy="116.3887" fill="#F1F1F1" rx="10" ry="10" style="stroke:#181818;stroke-width:0.5;"/><path d="M52.9844,120.3887 L56.2813,111.7949 L57.5,111.7949 L61.0156,120.3887 L59.7344,120.3887 L58.7188,117.7793 L55.1406,117.7793 L54.1875,120.3887 L52.9844,120.3887 Z M55.4688,116.8574 L58.375,116.8574 L57.4844,114.4824 Q57.0625,113.4043 56.875,112.7012 Q56.7031,113.5293 56.4063,114.3418 L55.4688,116.8574 Z " fill="#000000"/><ellipse cx="56.5" cy="146.3887" fill="#F1F1F1" rx="10" ry="10" style="stroke:#181818;stroke-width:0.5;"/><path d="M52.9844,150.3887 L56.2813,141.7949 L57.5,141.7949 L61.0156,150.3887 L59.7344,150.3887 L58.7188,147.7793 L55.1406,147.7793 L54.1875,150.3887 L52.9844,150.3887 Z M55.4688,146.8574 L58.375,146.8574 L57.4844,144.4824 Q57.0625,143.4043 56.875,142.7012 Q56.7031,143.5293 56.4063,144.3418 L55.4688,146.8574 Z " fill="#000000"/><rect fill="#F1F1F1" height="36.3887" rx="12.5" ry="12.5" style="stroke:#181818;stroke-width:0.5;" width="88" x="12.5" y="176.3887"/><text fill="#000000" font-family="sans-serif" font-size="12" lengthAdjust="spacing" textLength="68" x="22.5" y="200.1406">Other activity</text><line style="stroke:#181818;stroke-width:1.0;" x1="56.5" x2="56.5" y1="30" y2="50"/><polygon fill="#181818" points="52.5,40,56.5,50,60.5,40,56.5,44" style="stroke:#181818;stroke-width:1.0;"/><line style="stroke:#181818;stroke-width:1.0;" x1="56.5" x2="56.5" y1="86.3887" y2="106.3887"/><polygon fill="#181818" points="52.5,96.3887,56.5,106.3887,60.5,96.3887,56.5,100.3887" style="stroke:#181818;stroke-width:1.0;"/><line style="stroke:#181818;stroke-width:1.0;" x1="56.5" x2="56.5" y1="156.3887" y2="176.3887"/><polygon fill="#181818" points="52.5,166.3887,56.5,176.3887,60.5,166.3887,56.5,170.3887" style="stroke:#181818;stroke-width:1.0;"/><!--MD5=[3f5659e9f046ec7c61dc72209fe83ab1]
@startuml
start
:Some activity;
(A)
detach
(A)
:Other activity;
@enduml

PlantUML version 1.2022.4(Sat Apr 09 21:29:17 CST 2022)
(GPL source distribution)
Java Runtime: Java(TM) SE Runtime Environment
JVM: Java HotSpot(TM) 64-Bit Server VM
Default Encoding: GBK
Language: zh
Country: CN
--></g></svg>