<?xml version="1.0" encoding="UTF-8" standalone="no"?><svg xmlns="http://www.w3.org/2000/svg" xmlns:xlink="http://www.w3.org/1999/xlink" contentStyleType="text/css" height="505px" preserveAspectRatio="none" style="width:162px;height:505px;background:#FFFFFF;" version="1.1" viewBox="0 0 162 505" width="162px" zoomAndPan="magnify"><defs/><g><rect fill="#F1F1F1" height="36.3887" rx="12.5" ry="12.5" style="stroke:#181818;stroke-width:0.5;" width="44" x="59" y="11"/><text fill="#000000" font-family="sans-serif" font-size="12" lengthAdjust="spacing" textLength="24" x="69" y="34.752">start</text><rect fill="#555555" height="6" rx="2.5" ry="2.5" style="stroke:#555555;stroke-width:1.0;" width="140" x="11" y="67.3887"/><rect fill="#F1F1F1" height="36.3887" rx="12.5" ry="12.5" style="stroke:#181818;stroke-width:0.5;" width="44" x="23" y="93.3887"/><text fill="#000000" font-family="sans-serif" font-size="12" lengthAdjust="spacing" textLength="24" x="33" y="117.1406">foo1</text><rect fill="#F1F1F1" height="36.3887" rx="12.5" ry="12.5" style="stroke:#181818;stroke-width:0.5;" width="44" x="23" y="164.7773"/><text fill="#000000" font-family="sans-serif" font-size="12" lengthAdjust="spacing" textLength="24" x="33" y="188.5293">foo2</text><rect fill="#F1F1F1" height="36.3887" rx="12.5" ry="12.5" style="stroke:#181818;stroke-width:0.5;" width="44" x="95" y="129.083"/><text fill="#000000" font-family="sans-serif" font-size="12" lengthAdjust="spacing" textLength="24" x="105" y="152.835">foo3</text><rect fill="#555555" height="6" rx="2.5" ry="2.5" style="stroke:#555555;stroke-width:1.0;" width="140" x="11" y="221.166"/><rect fill="#F1F1F1" height="36.3887" rx="12.5" ry="12.5" style="stroke:#181818;stroke-width:0.5;" width="44" x="59" y="291.166"/><text fill="#000000" font-family="sans-serif" font-size="12" lengthAdjust="spacing" textLength="24" x="69" y="314.918">foo5</text><polygon fill="#F1F1F1" points="69,247.166,93,247.166,105,259.166,93,271.166,69,271.166,57,259.166,69,247.166" style="stroke:#181818;stroke-width:0.5;"/><text fill="#000000" font-family="sans-serif" font-size="11" lengthAdjust="spacing" textLength="22" x="70" y="264.2605">foo4</text><rect fill="#F1F1F1" height="36.3887" rx="12.5" ry="12.5" style="stroke:#181818;stroke-width:0.5;" width="44" x="59" y="369.5547"/><text fill="#000000" font-family="sans-serif" font-size="12" lengthAdjust="spacing" textLength="24" x="69" y="393.3066">foo6</text><rect fill="#F1F1F1" height="36.3887" rx="12.5" ry="12.5" style="stroke:#181818;stroke-width:0.5;" width="44" x="59" y="415.9434"/><text fill="#000000" font-family="sans-serif" font-size="12" lengthAdjust="spacing" textLength="24" x="69" y="439.6953">foo7</text><ellipse cx="81" cy="483.332" rx="11" ry="11" style="stroke:#222222;stroke-width:1.0;fill:none;"/><ellipse cx="81" cy="483.332" fill="#222222" rx="6" ry="6" style="stroke:#111111;stroke-width:1.0;"/><line style="stroke:#181818;stroke-width:1.0;" x1="45" x2="45" y1="129.7773" y2="164.7773"/><polygon fill="#181818" points="41,154.7773,45,164.7773,49,154.7773,45,158.7773" style="stroke:#181818;stroke-width:1.0;"/><line style="stroke:#181818;stroke-width:1.0;" x1="45" x2="45" y1="73.3887" y2="93.3887"/><polygon fill="#181818" points="41,83.3887,45,93.3887,49,83.3887,45,87.3887" style="stroke:#181818;stroke-width:1.0;"/><line style="stroke:#181818;stroke-width:1.0;" x1="117" x2="117" y1="73.3887" y2="129.083"/><polygon fill="#181818" points="113,119.083,117,129.083,121,119.083,117,123.083" style="stroke:#181818;stroke-width:1.0;"/><line style="stroke:#181818;stroke-width:1.0;" x1="45" x2="45" y1="201.166" y2="221.166"/><polygon fill="#181818" points="41,211.166,45,221.166,49,211.166,45,215.166" style="stroke:#181818;stroke-width:1.0;"/><line style="stroke:#181818;stroke-width:1.0;" x1="81" x2="81" y1="47.3887" y2="67.3887"/><polygon fill="#181818" points="77,57.3887,81,67.3887,85,57.3887,81,61.3887" style="stroke:#181818;stroke-width:1.0;"/><line style="stroke:#181818;stroke-width:1.0;" x1="81" x2="81" y1="271.166" y2="291.166"/><polygon fill="#181818" points="77,281.166,81,291.166,85,281.166,81,285.166" style="stroke:#181818;stroke-width:1.0;"/><line style="stroke:#181818;stroke-width:1.0;" x1="105" x2="117" y1="259.166" y2="259.166"/><polygon fill="#181818" points="113,296.3604,117,306.3604,121,296.3604,117,300.3604" style="stroke:#181818;stroke-width:1.0;"/><line style="stroke:#181818;stroke-width:1.0;" x1="117" x2="117" y1="259.166" y2="349.5547"/><line style="stroke:#181818;stroke-width:1.0;" x1="117" x2="81" y1="349.5547" y2="349.5547"/><line style="stroke:#181818;stroke-width:1.0;" x1="81" x2="81" y1="349.5547" y2="369.5547"/><polygon fill="#181818" points="77,359.5547,81,369.5547,85,359.5547,81,363.5547" style="stroke:#181818;stroke-width:1.0;"/><line style="stroke:#181818;stroke-width:1.0;" x1="81" x2="81" y1="227.166" y2="247.166"/><polygon fill="#181818" points="77,237.166,81,247.166,85,237.166,81,241.166" style="stroke:#181818;stroke-width:1.0;"/><line style="stroke:#181818;stroke-width:1.0;" x1="81" x2="81" y1="452.332" y2="472.332"/><polygon fill="#181818" points="77,462.332,81,472.332,85,462.332,81,466.332" style="stroke:#181818;stroke-width:1.0;"/><!--MD5=[e611921922ebfcb5edfbe20eb4cd3b40]
@startuml
 :start;
 fork
   :foo1;
   :foo2;
 fork again
   :foo3;
   detach
 endfork
 if (foo4) then
   :foo5;
   detach
 endif
 :foo6;
 detach
 :foo7;
 stop
@enduml

PlantUML version 1.2022.4(Sat Apr 09 21:29:17 CST 2022)
(GPL source distribution)
Java Runtime: Java(TM) SE Runtime Environment
JVM: Java HotSpot(TM) 64-Bit Server VM
Default Encoding: GBK
Language: zh
Country: CN
--></g></svg>