<?xml version="1.0" encoding="UTF-8" standalone="no"?><svg xmlns="http://www.w3.org/2000/svg" xmlns:xlink="http://www.w3.org/1999/xlink" contentStyleType="text/css" height="390px" preserveAspectRatio="none" style="width:189px;height:390px;background:#FFFFFF;" version="1.1" viewBox="0 0 189 390" width="189px" zoomAndPan="magnify"><defs/><g><ellipse cx="94.5" cy="20" fill="#222222" rx="10" ry="10" style="stroke:#222222;stroke-width:1.0;"/><rect fill="none" height="143.8975" style="stroke:#000000;stroke-width:1.5;" width="146" x="21.5" y="40"/><path d="M103.5,40 L103.5,52.1201 L93.5,62.1201 L21.5,62.1201 " fill="none" style="stroke:#000000;stroke-width:1.5;"/><text fill="#000000" font-family="sans-serif" font-size="14" lengthAdjust="spacing" textLength="72" x="24.5" y="57.0439">Initialization</text><rect fill="#F1F1F1" height="36.3887" rx="12.5" ry="12.5" style="stroke:#181818;stroke-width:0.5;" width="100" x="44.5" y="79.1201"/><text fill="#000000" font-family="sans-serif" font-size="12" lengthAdjust="spacing" textLength="80" x="54.5" y="102.8721">read config file</text><rect fill="#F1F1F1" height="36.3887" rx="12.5" ry="12.5" style="stroke:#181818;stroke-width:0.5;" width="126" x="31.5" y="135.5088"/><text fill="#000000" font-family="sans-serif" font-size="12" lengthAdjust="spacing" textLength="106" x="41.5" y="159.2607">init internal variable</text><rect fill="none" height="143.8975" style="stroke:#000000;stroke-width:1.5;" width="167" x="11" y="193.8975"/><path d="M74,193.8975 L74,206.0176 L64,216.0176 L11,216.0176 " fill="none" style="stroke:#000000;stroke-width:1.5;"/><text fill="#000000" font-family="sans-serif" font-size="14" lengthAdjust="spacing" textLength="53" x="14" y="210.9414">Running</text><rect fill="#F1F1F1" height="36.3887" rx="12.5" ry="12.5" style="stroke:#181818;stroke-width:0.5;" width="147" x="21" y="233.0176"/><text fill="#000000" font-family="sans-serif" font-size="12" lengthAdjust="spacing" textLength="127" x="31" y="256.7695">wait for user interaction</text><rect fill="#F1F1F1" height="36.3887" rx="12.5" ry="12.5" style="stroke:#181818;stroke-width:0.5;" width="109" x="40" y="289.4063"/><text fill="#000000" font-family="sans-serif" font-size="12" lengthAdjust="spacing" textLength="89" x="50" y="313.1582">print information</text><ellipse cx="94.5" cy="368.7949" rx="11" ry="11" style="stroke:#222222;stroke-width:1.0;fill:none;"/><ellipse cx="94.5" cy="368.7949" fill="#222222" rx="6" ry="6" style="stroke:#111111;stroke-width:1.0;"/><line style="stroke:#181818;stroke-width:1.0;" x1="94.5" x2="94.5" y1="115.5088" y2="135.5088"/><polygon fill="#181818" points="90.5,125.5088,94.5,135.5088,98.5,125.5088,94.5,129.5088" style="stroke:#181818;stroke-width:1.0;"/><line style="stroke:#181818;stroke-width:1.0;" x1="94.5" x2="94.5" y1="30" y2="79.1201"/><polygon fill="#181818" points="90.5,69.1201,94.5,79.1201,98.5,69.1201,94.5,73.1201" style="stroke:#181818;stroke-width:1.0;"/><line style="stroke:#181818;stroke-width:1.0;" x1="94.5" x2="94.5" y1="269.4063" y2="289.4063"/><polygon fill="#181818" points="90.5,279.4063,94.5,289.4063,98.5,279.4063,94.5,283.4063" style="stroke:#181818;stroke-width:1.0;"/><line style="stroke:#181818;stroke-width:1.0;" x1="94.5" x2="94.5" y1="171.8975" y2="233.0176"/><polygon fill="#181818" points="90.5,223.0176,94.5,233.0176,98.5,223.0176,94.5,227.0176" style="stroke:#181818;stroke-width:1.0;"/><line style="stroke:#181818;stroke-width:1.0;" x1="94.5" x2="94.5" y1="325.7949" y2="357.7949"/><polygon fill="#181818" points="90.5,347.7949,94.5,357.7949,98.5,347.7949,94.5,351.7949" style="stroke:#181818;stroke-width:1.0;"/><!--MD5=[4ade9e04096710fde50888847ddea781]
@startuml
start
partition Initialization {
    :read config file;
    :init internal variable;
}
partition Running {
    :wait for user interaction;
    :print information;
}

stop
@enduml

PlantUML version 1.2022.4(Sat Apr 09 21:29:17 CST 2022)
(GPL source distribution)
Java Runtime: Java(TM) SE Runtime Environment
JVM: Java HotSpot(TM) 64-Bit Server VM
Default Encoding: GBK
Language: zh
Country: CN
--></g></svg>