<?xml version="1.0" encoding="UTF-8" standalone="no"?><svg xmlns="http://www.w3.org/2000/svg" xmlns:xlink="http://www.w3.org/1999/xlink" contentStyleType="text/css" height="233px" preserveAspectRatio="none" style="width:354px;height:233px;background:#FFFFFF;" version="1.1" viewBox="0 0 354 233" width="354px" zoomAndPan="magnify"><defs/><g><ellipse cx="211.5" cy="20" fill="#222222" rx="10" ry="10" style="stroke:#222222;stroke-width:1.0;"/><polygon fill="#F1F1F1" points="173,50,250,50,262,62,250,74,173,74,161,62,173,50" style="stroke:#181818;stroke-width:0.5;"/><text fill="#000000" font-family="sans-serif" font-size="11" lengthAdjust="spacing" textLength="77" x="173" y="67.0945">multiprocessor?</text><text fill="#000000" font-family="sans-serif" font-size="11" lengthAdjust="spacing" textLength="18" x="143" y="59.583">yes</text><text fill="#000000" font-family="sans-serif" font-size="11" lengthAdjust="spacing" textLength="48" x="262" y="59.583">monoproc</text><rect fill="#555555" height="6" rx="2.5" ry="2.5" style="stroke:#555555;stroke-width:1.0;" width="226" x="11" y="84"/><rect fill="#F1F1F1" height="36.3887" rx="12.5" ry="12.5" style="stroke:#181818;stroke-width:0.5;" width="86" x="23" y="110"/><text fill="#000000" font-family="sans-serif" font-size="12" lengthAdjust="spacing" textLength="66" x="33" y="133.752">Treatment 1</text><rect fill="#F1F1F1" height="36.3887" rx="12.5" ry="12.5" style="stroke:#181818;stroke-width:0.5;" width="86" x="137" y="110"/><text fill="#000000" font-family="sans-serif" font-size="12" lengthAdjust="spacing" textLength="66" x="147" y="133.752">Treatment 2</text><rect fill="#555555" height="6" rx="2.5" ry="2.5" style="stroke:#555555;stroke-width:1.0;" width="226" x="11" y="166.3887"/><rect fill="#F1F1F1" height="36.3887" rx="12.5" ry="12.5" style="stroke:#181818;stroke-width:0.5;" width="86" x="257" y="84"/><text fill="#000000" font-family="sans-serif" font-size="12" lengthAdjust="spacing" textLength="66" x="267" y="107.752">Treatment 1</text><rect fill="#F1F1F1" height="36.3887" rx="12.5" ry="12.5" style="stroke:#181818;stroke-width:0.5;" width="86" x="257" y="155.3887"/><text fill="#000000" font-family="sans-serif" font-size="12" lengthAdjust="spacing" textLength="66" x="267" y="179.1406">Treatment 2</text><polygon fill="#F1F1F1" points="211.5,197.7773,223.5,209.7773,211.5,221.7773,199.5,209.7773,211.5,197.7773" style="stroke:#181818;stroke-width:0.5;"/><line style="stroke:#181818;stroke-width:1.0;" x1="66" x2="66" y1="90" y2="110"/><polygon fill="#181818" points="62,100,66,110,70,100,66,104" style="stroke:#181818;stroke-width:1.0;"/><line style="stroke:#181818;stroke-width:1.0;" x1="180" x2="180" y1="90" y2="110"/><polygon fill="#181818" points="176,100,180,110,184,100,180,104" style="stroke:#181818;stroke-width:1.0;"/><line style="stroke:#181818;stroke-width:1.0;" x1="66" x2="66" y1="146.3887" y2="166.3887"/><polygon fill="#181818" points="62,156.3887,66,166.3887,70,156.3887,66,160.3887" style="stroke:#181818;stroke-width:1.0;"/><line style="stroke:#181818;stroke-width:1.0;" x1="180" x2="180" y1="146.3887" y2="166.3887"/><polygon fill="#181818" points="176,156.3887,180,166.3887,184,156.3887,180,160.3887" style="stroke:#181818;stroke-width:1.0;"/><line style="stroke:#181818;stroke-width:1.0;" x1="300" x2="300" y1="120.3887" y2="155.3887"/><polygon fill="#181818" points="296,145.3887,300,155.3887,304,145.3887,300,149.3887" style="stroke:#181818;stroke-width:1.0;"/><line style="stroke:#181818;stroke-width:1.0;" x1="161" x2="123" y1="62" y2="62"/><line style="stroke:#181818;stroke-width:1.0;" x1="123" x2="123" y1="62" y2="84"/><polygon fill="#181818" points="119,74,123,84,127,74,123,78" style="stroke:#181818;stroke-width:1.0;"/><line style="stroke:#181818;stroke-width:1.0;" x1="262" x2="300" y1="62" y2="62"/><line style="stroke:#181818;stroke-width:1.0;" x1="300" x2="300" y1="62" y2="84"/><polygon fill="#181818" points="296,74,300,84,304,74,300,78" style="stroke:#181818;stroke-width:1.0;"/><line style="stroke:#181818;stroke-width:1.0;" x1="123" x2="123" y1="172.3887" y2="209.7773"/><line style="stroke:#181818;stroke-width:1.0;" x1="123" x2="199.5" y1="209.7773" y2="209.7773"/><polygon fill="#181818" points="189.5,205.7773,199.5,209.7773,189.5,213.7773,193.5,209.7773" style="stroke:#181818;stroke-width:1.0;"/><line style="stroke:#181818;stroke-width:1.0;" x1="300" x2="300" y1="191.7773" y2="209.7773"/><line style="stroke:#181818;stroke-width:1.0;" x1="300" x2="223.5" y1="209.7773" y2="209.7773"/><polygon fill="#181818" points="233.5,205.7773,223.5,209.7773,233.5,213.7773,229.5,209.7773" style="stroke:#181818;stroke-width:1.0;"/><line style="stroke:#181818;stroke-width:1.0;" x1="211.5" x2="211.5" y1="30" y2="50"/><polygon fill="#181818" points="207.5,40,211.5,50,215.5,40,211.5,44" style="stroke:#181818;stroke-width:1.0;"/><!--MD5=[91d5a9563be129c5c670fd714951ffe6]
@startuml

start

if (multiprocessor?) then (yes)
  fork
    :Treatment 1;
  fork again
    :Treatment 2;
  end fork
else (monoproc)
  :Treatment 1;
  :Treatment 2;
endif

@enduml

PlantUML version 1.2022.4(Sat Apr 09 21:29:17 CST 2022)
(GPL source distribution)
Java Runtime: Java(TM) SE Runtime Environment
JVM: Java HotSpot(TM) 64-Bit Server VM
Default Encoding: GBK
Language: zh
Country: CN
--></g></svg>