<?xml version="1.0" encoding="UTF-8" standalone="no"?><svg xmlns="http://www.w3.org/2000/svg" xmlns:xlink="http://www.w3.org/1999/xlink" contentStyleType="text/css" height="291px" preserveAspectRatio="none" style="width:174px;height:291px;background:#FFFFFF;" version="1.1" viewBox="0 0 174 291" width="174px" zoomAndPan="magnify"><defs/><g><ellipse cx="73.5" cy="20" fill="#222222" rx="10" ry="10" style="stroke:#222222;stroke-width:1.0;"/><rect fill="#F1F1F1" height="36.3887" rx="12.5" ry="12.5" style="stroke:#181818;stroke-width:0.5;" width="72" x="37.5" y="94"/><text fill="#000000" font-family="sans-serif" font-size="12" lengthAdjust="spacing" textLength="52" x="47.5" y="117.752">read data</text><rect fill="#F1F1F1" height="36.3887" rx="12.5" ry="12.5" style="stroke:#181818;stroke-width:0.5;" width="125" x="11" y="157.8887"/><text fill="#000000" font-family="sans-serif" font-size="12" lengthAdjust="spacing" textLength="105" x="21" y="181.6406">generate diagrams</text><polygon fill="#F1F1F1" points="73.5,50,85.5,62,73.5,74,61.5,62,73.5,50" style="stroke:#181818;stroke-width:0.5;"/><polygon fill="#F1F1F1" points="46.5,214.2773,100.5,214.2773,112.5,226.2773,100.5,238.2773,46.5,238.2773,34.5,226.2773,46.5,214.2773" style="stroke:#181818;stroke-width:0.5;"/><text fill="#000000" font-family="sans-serif" font-size="11" lengthAdjust="spacing" textLength="54" x="46.5" y="231.3718">more data?</text><ellipse cx="73.5" cy="269.2773" rx="11" ry="11" style="stroke:#222222;stroke-width:1.0;fill:none;"/><ellipse cx="73.5" cy="269.2773" fill="#222222" rx="6" ry="6" style="stroke:#111111;stroke-width:1.0;"/><line style="stroke:#181818;stroke-width:1.0;" x1="73.5" x2="73.5" y1="130.3887" y2="157.8887"/><polygon fill="#181818" points="69.5,147.8887,73.5,157.8887,77.5,147.8887,73.5,151.8887" style="stroke:#181818;stroke-width:1.0;"/><line style="stroke:#181818;stroke-width:1.0;" x1="73.5" x2="73.5" y1="74" y2="94"/><polygon fill="#181818" points="69.5,84,73.5,94,77.5,84,73.5,88" style="stroke:#181818;stroke-width:1.0;"/><line style="stroke:#181818;stroke-width:1.0;" x1="112.5" x2="148" y1="226.2773" y2="226.2773"/><polygon fill="#181818" points="144,150.3887,148,140.3887,152,150.3887,148,146.3887" style="stroke:#181818;stroke-width:1.0;"/><line style="stroke:#181818;stroke-width:1.0;" x1="148" x2="148" y1="62" y2="226.2773"/><line style="stroke:#181818;stroke-width:1.0;" x1="148" x2="85.5" y1="62" y2="62"/><polygon fill="#181818" points="95.5,58,85.5,62,95.5,66,91.5,62" style="stroke:#181818;stroke-width:1.0;"/><line style="stroke:#181818;stroke-width:1.0;" x1="73.5" x2="73.5" y1="194.2773" y2="214.2773"/><polygon fill="#181818" points="69.5,204.2773,73.5,214.2773,77.5,204.2773,73.5,208.2773" style="stroke:#181818;stroke-width:1.0;"/><line style="stroke:#181818;stroke-width:1.0;" x1="73.5" x2="73.5" y1="30" y2="50"/><polygon fill="#181818" points="69.5,40,73.5,50,77.5,40,73.5,44" style="stroke:#181818;stroke-width:1.0;"/><line style="stroke:#181818;stroke-width:1.0;" x1="73.5" x2="73.5" y1="238.2773" y2="258.2773"/><polygon fill="#181818" points="69.5,248.2773,73.5,258.2773,77.5,248.2773,73.5,252.2773" style="stroke:#181818;stroke-width:1.0;"/><!--MD5=[a5cee1dd2dd5949fadceec0f9ca819af]
@startuml

start

repeat
  :read data;
  :generate diagrams;
repeat while (more data?)

stop

@enduml

PlantUML version 1.2022.4(Sat Apr 09 21:29:17 CST 2022)
(GPL source distribution)
Java Runtime: Java(TM) SE Runtime Environment
JVM: Java HotSpot(TM) 64-Bit Server VM
Default Encoding: GBK
Language: zh
Country: CN
--></g></svg>