<?xml version="1.0" encoding="UTF-8" standalone="no"?><svg xmlns="http://www.w3.org/2000/svg" xmlns:xlink="http://www.w3.org/1999/xlink" contentStyleType="text/css" height="524px" preserveAspectRatio="none" style="width:399px;height:524px;background:#FFFFFF;" version="1.1" viewBox="0 0 399 524" width="399px" zoomAndPan="magnify"><defs/><g><rect fill="#F1F1F1" height="36.3887" rx="12.5" ry="12.5" style="stroke:#181818;stroke-width:0.5;" width="55" x="185" y="11"/><text fill="#000000" font-family="sans-serif" font-size="12" lengthAdjust="spacing" textLength="35" x="195" y="34.752">Ready</text><rect fill="#F1F1F1" height="36.3887" style="stroke:#181818;stroke-width:0.5;" width="57" x="184" y="67.3887"/><line style="stroke:#181818;stroke-width:0.5;" x1="189" x2="189" y1="67.3887" y2="103.7773"/><line style="stroke:#181818;stroke-width:0.5;" x1="236" x2="236" y1="67.3887" y2="103.7773"/><text fill="#000000" font-family="sans-serif" font-size="12" lengthAdjust="spacing" textLength="37" x="194" y="91.1406">next(o)</text><rect fill="#F1F1F1" height="36.3887" rx="12.5" ry="12.5" style="stroke:#181818;stroke-width:0.5;" width="74" x="175.5" y="123.7773"/><text fill="#000000" font-family="sans-serif" font-size="12" lengthAdjust="spacing" textLength="54" x="185.5" y="147.5293">Receiving</text><line style="stroke:#181818;stroke-width:1.5;" x1="47" x2="365.5" y1="180.166" y2="180.166"/><polygon fill="#F1F1F1" points="21.5,264.749,82.5,264.749,72.5,282.9434,82.5,301.1377,21.5,301.1377" style="stroke:#181818;stroke-width:0.5;"/><text fill="#000000" font-family="sans-serif" font-size="12" lengthAdjust="spacing" textLength="31" x="31.5" y="288.501">nak(i)</text><polygon fill="#F1F1F1" points="20,336.1377,74,336.1377,84,354.332,74,372.5264,20,372.5264" style="stroke:#181818;stroke-width:0.5;"/><text fill="#000000" font-family="sans-serif" font-size="12" lengthAdjust="spacing" textLength="34" x="30" y="359.8896">ack(o)</text><polygon fill="#F1F1F1" points="119,200.166,179,200.166,169,218.3604,179,236.5547,119,236.5547" style="stroke:#181818;stroke-width:0.5;"/><text fill="#000000" font-family="sans-serif" font-size="12" lengthAdjust="spacing" textLength="30" x="129" y="223.918">ack(i)</text><rect fill="#F1F1F1" height="52.7773" style="stroke:#181818;stroke-width:0.5;" width="100" x="94" y="256.5547"/><line style="stroke:#181818;stroke-width:0.5;" x1="99" x2="99" y1="256.5547" y2="309.332"/><line style="stroke:#181818;stroke-width:0.5;" x1="189" x2="189" y1="256.5547" y2="309.332"/><text fill="#000000" font-family="sans-serif" font-size="12" lengthAdjust="spacing" textLength="37" x="104" y="280.3066">next(o)</text><text fill="#000000" font-family="sans-serif" font-size="12" lengthAdjust="spacing" textLength="80" x="104" y="296.6953">on several line</text><rect fill="#F1F1F1" height="36.3887" style="stroke:#181818;stroke-width:0.5;" width="62" x="113" y="344.332"/><text fill="#000000" font-family="sans-serif" font-size="12" lengthAdjust="spacing" textLength="42" x="123" y="368.084">i := i + 1</text><polygon fill="#F1F1F1" points="117,400.7207,171,400.7207,181,418.915,171,437.1094,117,437.1094" style="stroke:#181818;stroke-width:0.5;"/><text fill="#000000" font-family="sans-serif" font-size="12" lengthAdjust="spacing" textLength="34" x="127" y="424.4727">ack(o)</text><polygon fill="#F1F1F1" points="226.5,264.749,282.5,264.749,272.5,282.9434,282.5,301.1377,226.5,301.1377" style="stroke:#181818;stroke-width:0.5;"/><text fill="#000000" font-family="sans-serif" font-size="12" lengthAdjust="spacing" textLength="26" x="236.5" y="288.501">err(i)</text><polygon fill="#F1F1F1" points="222,336.1377,277,336.1377,287,354.332,277,372.5264,222,372.5264" style="stroke:#181818;stroke-width:0.5;"/><text fill="#000000" font-family="sans-serif" font-size="12" lengthAdjust="spacing" textLength="35" x="232" y="359.8896">nak(o)</text><polygon fill="#F1F1F1" points="307,300.4434,334,300.4434,324,336.832,297,336.832" style="stroke:#181818;stroke-width:0.5;"/><text fill="#000000" font-family="sans-serif" font-size="12" lengthAdjust="spacing" textLength="17" x="307" y="324.1953">foo</text><path d="M349,271.9434 L344,290.1377 L349,308.332 M382,271.9434 L387,290.1377 L382,308.332 " fill="#F1F1F1" style="stroke:#181818;stroke-width:0.5;"/><text fill="#000000" font-family="sans-serif" font-size="12" lengthAdjust="spacing" textLength="23" x="354" y="295.6953">i &gt; 5</text><ellipse cx="365.5" cy="354.332" rx="11" ry="11" style="stroke:#222222;stroke-width:1.0;fill:none;"/><ellipse cx="365.5" cy="354.332" fill="#222222" rx="6" ry="6" style="stroke:#111111;stroke-width:1.0;"/><line style="stroke:#181818;stroke-width:1.5;" x1="47" x2="315.5" y1="457.1094" y2="457.1094"/><rect fill="#F1F1F1" height="36.3887" rx="12.5" ry="12.5" style="stroke:#181818;stroke-width:0.5;" width="50" x="187.5" y="477.1094"/><text fill="#000000" font-family="sans-serif" font-size="12" lengthAdjust="spacing" textLength="30" x="197.5" y="500.8613">finish</text><line style="stroke:#181818;stroke-width:1.0;" x1="212.5" x2="212.5" y1="47.3887" y2="67.3887"/><polygon fill="#181818" points="208.5,57.3887,212.5,67.3887,216.5,57.3887,212.5,61.3887" style="stroke:#181818;stroke-width:1.0;"/><line style="stroke:#181818;stroke-width:1.0;" x1="212.5" x2="212.5" y1="103.7773" y2="123.7773"/><polygon fill="#181818" points="208.5,113.7773,212.5,123.7773,216.5,113.7773,212.5,117.7773" style="stroke:#181818;stroke-width:1.0;"/><line style="stroke:#181818;stroke-width:1.0;" x1="47" x2="47" y1="301.1377" y2="336.1377"/><polygon fill="#181818" points="43,326.1377,47,336.1377,51,326.1377,47,330.1377" style="stroke:#181818;stroke-width:1.0;"/><line style="stroke:#181818;stroke-width:1.0;" x1="144" x2="144" y1="236.5547" y2="256.5547"/><polygon fill="#181818" points="140,246.5547,144,256.5547,148,246.5547,144,250.5547" style="stroke:#181818;stroke-width:1.0;"/><line style="stroke:#181818;stroke-width:1.0;" x1="144" x2="144" y1="309.332" y2="344.332"/><polygon fill="#181818" points="140,334.332,144,344.332,148,334.332,144,338.332" style="stroke:#181818;stroke-width:1.0;"/><line style="stroke:#181818;stroke-width:1.0;" x1="144" x2="144" y1="380.7207" y2="400.7207"/><polygon fill="#181818" points="140,390.7207,144,400.7207,148,390.7207,144,394.7207" style="stroke:#181818;stroke-width:1.0;"/><line style="stroke:#181818;stroke-width:1.0;" x1="249.5" x2="249.5" y1="301.1377" y2="336.1377"/><polygon fill="#181818" points="245.5,326.1377,249.5,336.1377,253.5,326.1377,249.5,330.1377" style="stroke:#181818;stroke-width:1.0;"/><line style="stroke:#181818;stroke-width:1.0;" x1="365.5" x2="365.5" y1="308.332" y2="343.332"/><polygon fill="#181818" points="361.5,333.332,365.5,343.332,369.5,333.332,365.5,337.332" style="stroke:#181818;stroke-width:1.0;"/><line style="stroke:#181818;stroke-width:1.0;" x1="47" x2="47" y1="181.666" y2="264.749"/><polygon fill="#181818" points="43,254.749,47,264.749,51,254.749,47,258.749" style="stroke:#181818;stroke-width:1.0;"/><line style="stroke:#181818;stroke-width:1.0;" x1="144" x2="144" y1="181.666" y2="200.166"/><polygon fill="#181818" points="140,190.166,144,200.166,148,190.166,144,194.166" style="stroke:#181818;stroke-width:1.0;"/><line style="stroke:#181818;stroke-width:1.0;" x1="249.5" x2="249.5" y1="181.666" y2="264.749"/><polygon fill="#181818" points="245.5,254.749,249.5,264.749,253.5,254.749,249.5,258.749" style="stroke:#181818;stroke-width:1.0;"/><line style="stroke:#181818;stroke-width:1.0;" x1="315.5" x2="315.5" y1="181.666" y2="300.4434"/><polygon fill="#181818" points="311.5,290.4434,315.5,300.4434,319.5,290.4434,315.5,294.4434" style="stroke:#181818;stroke-width:1.0;"/><line style="stroke:#181818;stroke-width:1.0;" x1="365.5" x2="365.5" y1="181.666" y2="271.9434"/><polygon fill="#181818" points="361.5,261.9434,365.5,271.9434,369.5,261.9434,365.5,265.9434" style="stroke:#181818;stroke-width:1.0;"/><line style="stroke:#181818;stroke-width:1.0;" x1="47" x2="47" y1="372.5264" y2="457.1094"/><polygon fill="#181818" points="43,447.1094,47,457.1094,51,447.1094,47,451.1094" style="stroke:#181818;stroke-width:1.0;"/><line style="stroke:#181818;stroke-width:1.0;" x1="144" x2="144" y1="437.1094" y2="457.1094"/><polygon fill="#181818" points="140,447.1094,144,457.1094,148,447.1094,144,451.1094" style="stroke:#181818;stroke-width:1.0;"/><line style="stroke:#181818;stroke-width:1.0;" x1="249.5" x2="249.5" y1="372.5264" y2="457.1094"/><polygon fill="#181818" points="245.5,447.1094,249.5,457.1094,253.5,447.1094,249.5,451.1094" style="stroke:#181818;stroke-width:1.0;"/><line style="stroke:#181818;stroke-width:1.0;" x1="315.5" x2="315.5" y1="336.832" y2="457.1094"/><polygon fill="#181818" points="311.5,447.1094,315.5,457.1094,319.5,447.1094,315.5,451.1094" style="stroke:#181818;stroke-width:1.0;"/><line style="stroke:#181818;stroke-width:1.0;" x1="212.5" x2="212.5" y1="160.166" y2="180.166"/><polygon fill="#181818" points="208.5,170.166,212.5,180.166,216.5,170.166,212.5,174.166" style="stroke:#181818;stroke-width:1.0;"/><line style="stroke:#181818;stroke-width:1.0;" x1="212.5" x2="212.5" y1="458.6094" y2="477.1094"/><polygon fill="#181818" points="208.5,467.1094,212.5,477.1094,216.5,467.1094,212.5,471.1094" style="stroke:#181818;stroke-width:1.0;"/><!--MD5=[6606c2c5743e21548f2030d965fed7c2]
@startuml
:Ready;
:next(o)|
:Receiving;
split
 :nak(i)<
 :ack(o)>
split again
 :ack(i)<
 :next(o)
 on several line|
 :i := i + 1]
 :ack(o)>
split again
 :err(i)<
 :nak(o)>
split again
 :foo/
split again
 :i > 5}
stop
end split
:finish;
@enduml

PlantUML version 1.2022.4(Sat Apr 09 21:29:17 CST 2022)
(GPL source distribution)
Java Runtime: Java(TM) SE Runtime Environment
JVM: Java HotSpot(TM) 64-Bit Server VM
Default Encoding: GBK
Language: zh
Country: CN
--></g></svg>