<?xml version="1.0" encoding="UTF-8" standalone="no"?><svg xmlns="http://www.w3.org/2000/svg" xmlns:xlink="http://www.w3.org/1999/xlink" contentStyleType="text/css" height="210px" preserveAspectRatio="none" style="width:157px;height:210px;background:#FFFFFF;" version="1.1" viewBox="0 0 157 210" width="157px" zoomAndPan="magnify"><defs/><g><ellipse cx="78.5" cy="20" fill="#222222" rx="10" ry="10" style="stroke:#222222;stroke-width:1.0;"/><rect fill="#F1F1F1" height="36.3887" rx="12.5" ry="12.5" style="stroke:#181818;stroke-width:0.5;" width="82" x="37.5" y="50"/><text fill="#000000" font-family="sans-serif" font-size="12" lengthAdjust="spacing" textLength="62" x="47.5" y="73.752">Hello world</text><rect fill="#F1F1F1" height="52.7773" rx="12.5" ry="12.5" style="stroke:#181818;stroke-width:0.5;" width="135" x="11" y="106.3887"/><text fill="#000000" font-family="sans-serif" font-size="12" lengthAdjust="spacing" textLength="115" x="21" y="130.1406">This is on defined on</text><text fill="#000000" font-family="sans-serif" font-size="12" lengthAdjust="spacing" textLength="40" x="21" y="146.5293">several</text><text fill="#000000" font-family="sans-serif" font-size="12" font-weight="bold" lengthAdjust="spacing" textLength="27" x="64" y="146.5293">lines</text><ellipse cx="78.5" cy="189.166" rx="10" ry="10" style="stroke:#222222;stroke-width:1.5;fill:none;"/><line style="stroke:#222222;stroke-width:2.5;fill:none;" x1="72.3128" x2="84.6872" y1="182.9788" y2="195.3532"/><line style="stroke:#222222;stroke-width:2.5;fill:none;" x1="84.6872" x2="72.3128" y1="182.9788" y2="195.3532"/><line style="stroke:#181818;stroke-width:1.0;fill:none;" x1="78.5" x2="78.5" y1="30" y2="50"/><polygon fill="#181818" points="74.5,40,78.5,50,82.5,40,78.5,44" style="stroke:#181818;stroke-width:1.0;"/><line style="stroke:#181818;stroke-width:1.0;" x1="78.5" x2="78.5" y1="86.3887" y2="106.3887"/><polygon fill="#181818" points="74.5,96.3887,78.5,106.3887,82.5,96.3887,78.5,100.3887" style="stroke:#181818;stroke-width:1.0;"/><line style="stroke:#181818;stroke-width:1.0;" x1="78.5" x2="78.5" y1="159.166" y2="179.166"/><polygon fill="#181818" points="74.5,169.166,78.5,179.166,82.5,169.166,78.5,173.166" style="stroke:#181818;stroke-width:1.0;"/><!--MD5=[822f97d05ef646a550b82973e83f6ce8]
@startuml
start
:Hello world;
:This is on defined on
several **lines**;
end
@enduml

PlantUML version 1.2022.4(Sat Apr 09 21:29:17 CST 2022)
(GPL source distribution)
Java Runtime: Java(TM) SE Runtime Environment
JVM: Java HotSpot(TM) 64-Bit Server VM
Default Encoding: GBK
Language: zh
Country: CN
--></g></svg>