<?xml version="1.0" encoding="UTF-8" standalone="no"?><svg xmlns="http://www.w3.org/2000/svg" xmlns:xlink="http://www.w3.org/1999/xlink" contentStyleType="text/css" height="397px" preserveAspectRatio="none" style="width:228px;height:397px;background:#FFFFFF;" version="1.1" viewBox="0 0 228 397" width="228px" zoomAndPan="magnify"><defs/><g><ellipse cx="64.5" cy="52.0381" fill="#222222" rx="10" ry="10" style="stroke:#222222;stroke-width:1.0;"/><rect fill="#F1F1F1" height="36.3887" rx="12.5" ry="12.5" style="stroke:#181818;stroke-width:0.5;" width="44" x="42.5" y="82.0381"/><text fill="#000000" font-family="sans-serif" font-size="12" lengthAdjust="spacing" textLength="24" x="52.5" y="105.79">foo1</text><rect fill="#F1F1F1" height="36.3887" rx="12.5" ry="12.5" style="stroke:#181818;stroke-width:0.5;" width="44" x="42.5" y="251.2041"/><text fill="#000000" font-family="sans-serif" font-size="12" lengthAdjust="spacing" textLength="24" x="52.5" y="274.9561">foo4</text><line style="stroke:#000000;stroke-width:1.5;" x1="15" x2="15" y1="12.4551" y2="385.9814"/><rect fill="#FAEBD7" height="373.5264" style="stroke:#FAEBD7;stroke-width:1.0;" width="97" x="112" y="12.4551"/><rect fill="#F1F1F1" height="36.3887" rx="12.5" ry="12.5" style="stroke:#181818;stroke-width:0.5;" width="44" x="139.5" y="138.4268"/><text fill="#000000" font-family="sans-serif" font-size="12" lengthAdjust="spacing" textLength="24" x="149.5" y="162.1787">foo2</text><rect fill="#F1F1F1" height="36.3887" rx="12.5" ry="12.5" style="stroke:#181818;stroke-width:0.5;" width="44" x="139.5" y="194.8154"/><text fill="#000000" font-family="sans-serif" font-size="12" lengthAdjust="spacing" textLength="24" x="149.5" y="218.5674">foo3</text><rect fill="#F1F1F1" height="36.3887" rx="12.5" ry="12.5" style="stroke:#181818;stroke-width:0.5;" width="44" x="139.5" y="307.5928"/><text fill="#000000" font-family="sans-serif" font-size="12" lengthAdjust="spacing" textLength="24" x="149.5" y="331.3447">foo5</text><ellipse cx="161.5" cy="374.9814" rx="11" ry="11" style="stroke:#222222;stroke-width:1.0;fill:none;"/><ellipse cx="161.5" cy="374.9814" fill="#222222" rx="6" ry="6" style="stroke:#111111;stroke-width:1.0;"/><line style="stroke:#000000;stroke-width:1.5;" x1="112" x2="112" y1="12.4551" y2="385.9814"/><line style="stroke:#000000;stroke-width:1.5;" x1="209" x2="209" y1="12.4551" y2="385.9814"/><line style="stroke:#181818;stroke-width:1.0;" x1="64.5" x2="64.5" y1="62.0381" y2="82.0381"/><polygon fill="#181818" points="60.5,72.0381,64.5,82.0381,68.5,72.0381,64.5,76.0381" style="stroke:#181818;stroke-width:1.0;"/><line style="stroke:#181818;stroke-width:1.0;" x1="161.5" x2="161.5" y1="174.8154" y2="194.8154"/><polygon fill="#181818" points="157.5,184.8154,161.5,194.8154,165.5,184.8154,161.5,188.8154" style="stroke:#181818;stroke-width:1.0;"/><line style="stroke:#181818;stroke-width:1.0;" x1="161.5" x2="161.5" y1="343.9814" y2="363.9814"/><polygon fill="#181818" points="157.5,353.9814,161.5,363.9814,165.5,353.9814,161.5,357.9814" style="stroke:#181818;stroke-width:1.0;"/><line style="stroke:#181818;stroke-width:1.0;" x1="64.5" x2="64.5" y1="118.4268" y2="123.4268"/><line style="stroke:#181818;stroke-width:1.0;" x1="64.5" x2="161.5" y1="123.4268" y2="123.4268"/><line style="stroke:#181818;stroke-width:1.0;" x1="161.5" x2="161.5" y1="123.4268" y2="138.4268"/><polygon fill="#181818" points="157.5,128.4268,161.5,138.4268,165.5,128.4268,161.5,132.4268" style="stroke:#181818;stroke-width:1.0;"/><line style="stroke:#181818;stroke-width:1.0;" x1="161.5" x2="161.5" y1="231.2041" y2="236.2041"/><line style="stroke:#181818;stroke-width:1.0;" x1="161.5" x2="64.5" y1="236.2041" y2="236.2041"/><line style="stroke:#181818;stroke-width:1.0;" x1="64.5" x2="64.5" y1="236.2041" y2="251.2041"/><polygon fill="#181818" points="60.5,241.2041,64.5,251.2041,68.5,241.2041,64.5,245.2041" style="stroke:#181818;stroke-width:1.0;"/><line style="stroke:#181818;stroke-width:1.0;" x1="64.5" x2="64.5" y1="287.5928" y2="292.5928"/><line style="stroke:#181818;stroke-width:1.0;" x1="64.5" x2="161.5" y1="292.5928" y2="292.5928"/><line style="stroke:#181818;stroke-width:1.0;" x1="161.5" x2="161.5" y1="292.5928" y2="307.5928"/><polygon fill="#181818" points="157.5,297.5928,161.5,307.5928,165.5,297.5928,161.5,301.5928" style="stroke:#181818;stroke-width:1.0;"/><text fill="#000000" font-family="sans-serif" font-size="18" lengthAdjust="spacing" textLength="87" x="20" y="33.083">Swimlane1</text><text fill="#000000" font-family="sans-serif" font-size="18" lengthAdjust="spacing" textLength="87" x="117" y="33.083">Swimlane2</text><!--MD5=[252775769444750fd174d7111e184de4]
@startuml
|Swimlane1|
start
:foo1;
|#AntiqueWhite|Swimlane2|
:foo2;
:foo3;
|Swimlane1|
:foo4;
|Swimlane2|
:foo5;
stop
@enduml

PlantUML version 1.2022.4(Sat Apr 09 21:29:17 CST 2022)
(GPL source distribution)
Java Runtime: Java(TM) SE Runtime Environment
JVM: Java HotSpot(TM) 64-Bit Server VM
Default Encoding: GBK
Language: zh
Country: CN
--></g></svg>