<?xml version="1.0" encoding="UTF-8" standalone="no"?><svg xmlns="http://www.w3.org/2000/svg" xmlns:xlink="http://www.w3.org/1999/xlink" contentStyleType="text/css" height="197px" preserveAspectRatio="none" style="width:176px;height:197px;background:#FFFFFF;" version="1.1" viewBox="0 0 176 197" width="176px" zoomAndPan="magnify"><defs/><g><rect fill="#F1F1F1" height="36.3887" rx="12.5" ry="12.5" style="stroke:#181818;stroke-width:0.5;" width="64" x="56.5" y="72.0459"/><text fill="#000000" font-family="sans-serif" font-size="12" lengthAdjust="spacing" textLength="44" x="66.5" y="95.7979">read file</text><polygon fill="#F1F1F1" points="51,13.9399,126,13.9399,138,25.9399,126,37.9399,51,37.9399,39,25.9399,51,13.9399" style="stroke:#181818;stroke-width:0.5;"/><text fill="#000000" font-family="sans-serif" font-size="11" lengthAdjust="spacing" textLength="47" x="92.5" y="50.5459">not empty</text><text fill="#000000" font-family="sans-serif" font-size="11" lengthAdjust="spacing" textLength="75" x="51" y="31.0344">check filesize ?</text><text fill="#000000" font-family="sans-serif" font-size="11" lengthAdjust="spacing" textLength="29" x="10" y="23.5229">empty</text><rect fill="#F1F1F1" height="36.3887" rx="12.5" ry="12.5" style="stroke:#181818;stroke-width:0.5;" width="69" x="54" y="150.4346"/><text fill="#000000" font-family="sans-serif" font-size="12" lengthAdjust="spacing" textLength="49" x="64" y="174.1865">close file</text><line style="stroke:#181818;stroke-width:1.0;" x1="88.5" x2="88.5" y1="37.9399" y2="72.0459"/><polygon fill="#181818" points="84.5,62.0459,88.5,72.0459,92.5,62.0459,88.5,66.0459" style="stroke:#181818;stroke-width:1.0;"/><line style="stroke:#181818;stroke-width:1.0;" x1="88.5" x2="88.5" y1="108.4346" y2="118.4346"/><line style="stroke:#181818;stroke-width:1.0;" x1="88.5" x2="150" y1="118.4346" y2="118.4346"/><polygon fill="#181818" points="146,80.7288,150,70.7288,154,80.7288,150,76.7288" style="stroke:#181818;stroke-width:1.0;"/><line style="stroke:#181818;stroke-width:1.0;" x1="150" x2="150" y1="25.9399" y2="118.4346"/><line style="stroke:#181818;stroke-width:1.0;" x1="150" x2="138" y1="25.9399" y2="25.9399"/><polygon fill="#181818" points="148,21.9399,138,25.9399,148,29.9399,144,25.9399" style="stroke:#181818;stroke-width:1.0;"/><line style="stroke:#181818;stroke-width:1.0;" x1="39" x2="27" y1="25.9399" y2="25.9399"/><polygon fill="#181818" points="23,66.7288,27,76.7288,31,66.7288,27,70.7288" style="stroke:#181818;stroke-width:1.0;"/><line style="stroke:#181818;stroke-width:1.0;" x1="27" x2="27" y1="25.9399" y2="130.4346"/><line style="stroke:#181818;stroke-width:1.0;" x1="27" x2="88.5" y1="130.4346" y2="130.4346"/><line style="stroke:#181818;stroke-width:1.0;" x1="88.5" x2="88.5" y1="130.4346" y2="150.4346"/><polygon fill="#181818" points="84.5,140.4346,88.5,150.4346,92.5,140.4346,88.5,144.4346" style="stroke:#181818;stroke-width:1.0;"/><!--MD5=[a0d168575a53661a60a09640869082d0]
@startuml
while (check filesize ?) is (not empty)
  :read file;
endwhile (empty)
:close file;
@enduml

PlantUML version 1.2022.4(Sat Apr 09 21:29:17 CST 2022)
(GPL source distribution)
Java Runtime: Java(TM) SE Runtime Environment
JVM: Java HotSpot(TM) 64-Bit Server VM
Default Encoding: GBK
Language: zh
Country: CN
--></g></svg>