<?xml version="1.0" encoding="UTF-8" standalone="no"?><svg xmlns="http://www.w3.org/2000/svg" xmlns:xlink="http://www.w3.org/1999/xlink" contentStyleType="text/css" height="235px" preserveAspectRatio="none" style="width:208px;height:235px;background:#FFFFFF;" version="1.1" viewBox="0 0 208 235" width="208px" zoomAndPan="magnify"><defs/><g><ellipse cx="107.5" cy="20" fill="#222222" rx="10" ry="10" style="stroke:#222222;stroke-width:1.0;"/><rect fill="#F1F1F1" height="36.3887" rx="12.5" ry="12.5" style="stroke:#181818;stroke-width:0.5;" width="72" x="71.5" y="94"/><text fill="#000000" font-family="sans-serif" font-size="12" lengthAdjust="spacing" textLength="52" x="81.5" y="117.752">read data</text><rect fill="#F1F1F1" height="36.3887" rx="12.5" ry="12.5" style="stroke:#181818;stroke-width:0.5;" width="125" x="45" y="165.3887"/><text fill="#000000" font-family="sans-serif" font-size="12" lengthAdjust="spacing" textLength="105" x="55" y="189.1406">generate diagrams</text><polygon fill="#F1F1F1" points="71.5,50,143.5,50,155.5,62,143.5,74,71.5,74,59.5,62,71.5,50" style="stroke:#181818;stroke-width:0.5;"/><text fill="#000000" font-family="sans-serif" font-size="11" lengthAdjust="spacing" textLength="72" x="71.5" y="67.0945">data available?</text><ellipse cx="24" cy="105" rx="11" ry="11" style="stroke:#222222;stroke-width:1.0;fill:none;"/><ellipse cx="24" cy="105" fill="#222222" rx="6" ry="6" style="stroke:#111111;stroke-width:1.0;"/><line style="stroke:#181818;stroke-width:1.0;" x1="107.5" x2="107.5" y1="130.3887" y2="165.3887"/><polygon fill="#181818" points="103.5,155.3887,107.5,165.3887,111.5,155.3887,107.5,159.3887" style="stroke:#181818;stroke-width:1.0;"/><line style="stroke:#181818;stroke-width:1.0;" x1="107.5" x2="107.5" y1="74" y2="94"/><polygon fill="#181818" points="103.5,84,107.5,94,111.5,84,107.5,88" style="stroke:#181818;stroke-width:1.0;"/><line style="stroke:#181818;stroke-width:1.0;" x1="107.5" x2="107.5" y1="201.7773" y2="211.7773"/><line style="stroke:#181818;stroke-width:1.0;" x1="107.5" x2="182" y1="211.7773" y2="211.7773"/><polygon fill="#181818" points="178,145.8887,182,135.8887,186,145.8887,182,141.8887" style="stroke:#181818;stroke-width:1.0;"/><line style="stroke:#181818;stroke-width:1.0;" x1="182" x2="182" y1="62" y2="211.7773"/><line style="stroke:#181818;stroke-width:1.0;" x1="182" x2="155.5" y1="62" y2="62"/><polygon fill="#181818" points="165.5,58,155.5,62,165.5,66,161.5,62" style="stroke:#181818;stroke-width:1.0;"/><line style="stroke:#181818;stroke-width:1.0;" x1="59.5" x2="24" y1="62" y2="62"/><line style="stroke:#181818;stroke-width:1.0;" x1="24" x2="24" y1="62" y2="94"/><polygon fill="#181818" points="20,84,24,94,28,84,24,88" style="stroke:#181818;stroke-width:1.0;"/><line style="stroke:#181818;stroke-width:1.0;" x1="107.5" x2="107.5" y1="30" y2="50"/><polygon fill="#181818" points="103.5,40,107.5,50,111.5,40,107.5,44" style="stroke:#181818;stroke-width:1.0;"/><!--MD5=[a87ebad12bd1b08f2dde095a83af3401]
@startuml

start

while (data available?)
  :read data;
  :generate diagrams;
endwhile

stop

@enduml

PlantUML version 1.2022.4(Sat Apr 09 21:29:17 CST 2022)
(GPL source distribution)
Java Runtime: Java(TM) SE Runtime Environment
JVM: Java HotSpot(TM) 64-Bit Server VM
Default Encoding: GBK
Language: zh
Country: CN
--></g></svg>