<?xml version="1.0" encoding="UTF-8" standalone="no"?><svg xmlns="http://www.w3.org/2000/svg" xmlns:xlink="http://www.w3.org/1999/xlink" contentStyleType="text/css" height="219px" preserveAspectRatio="none" style="width:316px;height:219px;background:#FFFFFF;" version="1.1" viewBox="0 0 316 219" width="316px" zoomAndPan="magnify"><defs/><g><polygon fill="#222222" points="140.0552,22.4324,138.5894,24.4353,136.8556,27.3688,134.376,29.3458,131.7703,30.4269,129.6927,30.5207,127.0224,29.1687,124.5029,28.2854,122.5905,26.492,121.5873,24.4389,120.9924,22.8041,120.4096,20.6688,119.4636,18.8313,120.1906,17.0373,120.8275,15.072,123.2175,13.5177,124.8991,11.501,126.9804,10.8313,129.4547,10.2546,132.6276,10.5972,134.3655,11.4168,136.3861,11.7884,138.8429,14.3054,139.6993,16.9627,140.0714,18.7758,139.65,21.7635" style="stroke:#222222;stroke-width:1.0;"/><polygon fill="#F1F1F1" points="84,50,84,50.2102,94.2222,49.5857,104.4444,50.1933,114.6667,50.3997,124.8889,49.2866,135.1111,49.9223,145.3333,49.5735,155.5556,49.6165,165.7778,49.9318,176,50,175.837,49.837,178.5305,52.5305,180.6514,54.6514,183.1534,57.1534,185.7018,59.7018,188,62,187.9798,61.9798,185.6161,64.4161,183.1925,66.7925,180.8421,69.2421,178.4564,71.6564,176,74,176,74.5857,165.7778,74.6711,155.5556,74.6793,145.3333,74.2546,135.1111,74.4636,124.8889,74.7022,114.6667,73.2788,104.4444,74.6785,94.2222,73.7035,84,74,84.1258,74.1258,81.4833,71.4833,79.1839,69.1839,76.9748,66.9748,74.3885,64.3885,72,62,72.0248,62.0248,74.4798,59.6798,76.8981,57.2981,79.1991,54.7991,81.6677,52.4677,84,50" style="stroke:#181818;stroke-width:0.5;"/><text fill="#000000" font-family="sans-serif" font-size="11" lengthAdjust="spacing" textLength="92" x="84" y="67.0945">Graphviz installed?</text><text fill="#000000" font-family="sans-serif" font-size="11" lengthAdjust="spacing" textLength="18" x="54" y="59.583">yes</text><text fill="#000000" font-family="sans-serif" font-size="11" lengthAdjust="spacing" textLength="12" x="188" y="59.583">no</text><polygon fill="#F1F1F1" points="23.5,84,23.5,84.2102,32.8333,83.5857,42.1667,84.1933,51.5,84.3997,60.8333,83.2866,70.1667,83.9223,79.5,84,79.4456,83.8687,81.2188,84.6141,83.0268,85.4435,84.7151,85.9838,86.6417,87.0994,88.3388,87.6612,88.1447,87.5808,89.0102,89.4037,89.9363,91.2518,90.5091,92.9535,91.2888,94.7409,92,96.5,91.9894,96.5,92.0595,102.0555,92.0797,107.6109,92.1952,113.1664,92.2237,118.7219,92,124.2773,92.2092,124.364,91.3462,126.0776,90.6783,127.872,90.0196,129.6702,88.849,131.2564,88.3388,133.1162,88.4254,133.3251,86.5332,133.7571,84.8714,134.745,82.9724,135.1604,81.259,136.024,79.5,136.7773,79.5,137.5189,70.1667,136.7286,60.8333,136.8826,51.5,137.116,42.1667,137.1936,32.8333,136.7734,23.5,136.7773,23.5366,136.8658,21.6592,135.8688,20.0007,135.4005,18.2666,134.7495,16.4856,133.9853,14.6612,133.1162,14.85,133.1944,13.7802,131.2868,12.9959,129.4975,12.2731,127.7336,11.7141,126.0376,11,124.2773,10.9345,124.2773,11.2271,118.7219,10.9418,113.1664,10.8856,107.6109,11.0761,102.0555,11,96.5,10.7946,96.4149,11.5724,94.666,12.6643,93.0472,13.3309,91.2523,14.1551,89.5226,14.6612,87.6612,14.6201,87.5621,16.4696,87.0272,18.272,86.3785,19.9042,85.319,21.72,84.7027,23.5,84" style="stroke:#181818;stroke-width:0.5;"/><text fill="#000000" font-family="sans-serif" font-size="12" lengthAdjust="spacing" textLength="61" x="21" y="107.752">process all</text><text fill="#000000" font-family="sans-serif" font-size="12" lengthAdjust="spacing" textLength="53" x="21" y="124.1406">diagrams</text><polygon fill="#F1F1F1" points="124.5,84,124.5,84.2102,134.3824,83.5857,144.2647,84.1933,154.1471,84.3997,164.0294,83.2866,173.9118,83.9223,183.7941,83.5735,193.6765,83.6165,203.5588,83.9318,213.4412,83.3086,223.3235,84.5536,233.2059,83.3697,243.0882,83.8022,252.9706,84.4319,262.8529,83.9142,272.7353,84.0682,282.6176,83.9681,292.5,84,292.5228,84.055,294.2983,84.8059,296.1102,85.6448,297.8889,86.4034,299.6577,87.1381,301.3388,87.6612,301.4172,87.6936,302.2138,89.4881,303.0196,91.2863,303.3134,92.8725,304.4767,94.8188,305,96.5,304.9012,96.5,305.1779,102.0555,304.835,107.6109,304.9772,113.1664,305.2472,118.7219,305,124.2773,304.985,124.2711,304.3002,126.0585,303.6398,127.8561,302.9315,129.6337,302.0699,131.3479,301.3388,133.1162,301.3755,133.2046,299.498,133.6721,297.8396,134.6682,296.1055,135.4817,294.3245,136.182,292.5,136.7773,292.5,137.3904,282.6176,136.2943,272.7353,136.1252,262.8529,136.1559,252.9706,136.7185,243.0882,136.5808,233.2059,137.4588,223.3235,136.6027,213.4412,136.4343,203.5588,137.0056,193.6765,136.1105,183.7941,136.2582,173.9118,137.4263,164.0294,137.213,154.1471,137.5118,144.2647,136.4555,134.3824,137.0965,124.5,136.7773,124.5753,136.9592,122.672,135.8996,120.9522,135.2834,119.2128,134.6194,117.5121,134.0491,115.6612,133.1162,115.6599,133.1156,115.0714,131.4074,114.0262,129.51,113.2559,127.7265,112.8873,126.1094,112,124.2773,111.761,124.2773,112.1697,118.7219,112.0689,113.1664,111.9107,107.6109,111.8821,102.0555,112,96.5,112.1413,96.5585,112.6401,94.694,113.6467,93.04,114.0265,91.1262,115.1191,89.5077,115.6612,87.6612,115.7229,87.8103,117.4602,87.0044,119.2027,86.2112,121.0572,85.6882,122.8105,84.9212,124.5,84" style="stroke:#181818;stroke-width:0.5;"/><text fill="#000000" font-family="sans-serif" font-size="12" lengthAdjust="spacing" textLength="70" x="122" y="107.752">process only</text><text fill="#000000" font-family="sans-serif" font-size="12" lengthAdjust="spacing" text-decoration="underline" textLength="55" x="122" y="124.1406">sequence</text><text fill="#000000" font-family="sans-serif" font-size="12" lengthAdjust="spacing" textLength="21" x="180" y="124.1406">and</text><text fill="#000000" font-family="sans-serif" font-size="12" lengthAdjust="spacing" text-decoration="underline" textLength="35" x="204" y="124.1406">activity</text><text fill="#000000" font-family="sans-serif" font-size="12" lengthAdjust="spacing" textLength="53" x="242" y="124.1406">diagrams</text><polygon fill="#F1F1F1" points="130,142.7773,130.0495,142.8269,132.3023,145.0797,134.8456,147.6229,137.2942,150.0715,139.4319,152.2092,142,154.7773,141.9817,154.759,139.4995,157.0768,137.1096,159.487,134.7839,161.9613,132.237,164.2144,130,166.7773,130.1305,166.9078,127.4514,164.2288,125.1534,161.9307,122.9018,159.6792,120.3798,157.1571,118,154.7773,118.0161,154.7934,120.3925,152.3698,122.8421,150.0194,125.2564,147.6337,127.738,145.3154,130,142.7773" style="stroke:#181818;stroke-width:0.5;"/><polygon points="141.0608,200.453,139.4484,202.6561,137.5412,205.883,134.8136,208.0577,131.9474,209.247,129.662,209.3502,126.7247,207.8629,123.9532,206.8913,121.8495,204.9185,120.7461,202.6601,120.0917,200.8619,119.4506,198.513,118.41,196.4918,119.2096,194.5183,119.9102,192.3566,122.5393,190.6468,124.389,188.4284,126.6784,187.6918,129.4001,187.0574,132.8904,187.4343,134.8021,188.3359,137.0247,188.7445,139.7272,191.5133,140.6693,194.4363,141.0786,196.4307,140.615,199.7172" style="stroke:#222222;stroke-width:1.0;fill:none;"/><polygon fill="#222222" points="136.0331,199.2368,135.1536,200.4385,134.1134,202.1986,132.6256,203.3848,131.0622,204.0335,129.8156,204.0898,128.2135,203.2785,126.7017,202.7486,125.5543,201.6725,124.9524,200.4407,124.5955,199.4598,124.2458,198.1786,123.6782,197.0761,124.1143,195.9997,124.4965,194.8206,125.9305,193.888,126.9394,192.6779,128.1882,192.2761,129.6728,191.9301,131.5766,192.1357,132.6193,192.6275,133.8317,192.8504,135.3057,194.3606,135.8196,195.955,136.0429,197.0428,135.79,198.8355" style="stroke:#111111;stroke-width:1.0;"/><path d="M72,62 L72,62.0934 L67.9,61.8159 L63.8,62.0859 L59.7,62.1776 L55.6,61.6829 L51.5,62 " fill="#181818" style="stroke:#181818;stroke-width:1.0;"/><path d="M51.5,62 L51.5934,62 L51.3159,66.4 L51.5859,70.8 L51.6776,75.2 L51.1829,79.6 L51.5,84 " fill="#181818" style="stroke:#181818;stroke-width:1.0;"/><polygon fill="#181818" points="47.5,74,47.565,74.026,48.1718,75.9487,49.1598,78.0239,50.0237,80.0495,50.4792,81.9117,51.5,84,51.4759,83.9904,52.168,81.9472,52.9813,79.9525,53.8789,77.9916,54.486,75.9144,55.5,74,55.6305,74.1305,54.5514,74.6514,53.8534,75.5534,53.2018,76.5018,52.2798,77.1798,51.5,78,51.5161,78.0161,50.6925,77.1925,49.9421,76.4421,49.1564,75.6564,48.438,74.938,47.5,74" style="stroke:#181818;stroke-width:1.0;"/><path d="M188,62 L188,62.0934 L192.1,61.8159 L196.2,62.0859 L200.3,62.1776 L204.4,61.6829 L208.5,62 " fill="#181818" style="stroke:#181818;stroke-width:1.0;"/><path d="M208.5,62 L208.5934,62 L208.3159,66.4 L208.5859,70.8 L208.6776,75.2 L208.1829,79.6 L208.5,84 " fill="#181818" style="stroke:#181818;stroke-width:1.0;"/><polygon fill="#181818" points="204.5,74,204.565,74.026,205.1718,75.9487,206.1598,78.0239,207.0237,80.0495,207.4792,81.9117,208.5,84,208.4759,83.9904,209.168,81.9472,209.9813,79.9525,210.8789,77.9916,211.486,75.9144,212.5,74,212.6305,74.1305,211.5514,74.6514,210.8534,75.5534,210.2018,76.5018,209.2798,77.1798,208.5,78,208.5161,78.0161,207.6925,77.1925,206.9421,76.4421,206.1564,75.6564,205.438,74.938,204.5,74" style="stroke:#181818;stroke-width:1.0;"/><path d="M51.5,136.7773 L51.5934,136.7773 L51.3159,140.3773 L51.5859,143.9773 L51.6776,147.5773 L51.1829,151.1773 L51.5,154.7773 " fill="#181818" style="stroke:#181818;stroke-width:1.0;"/><path d="M51.5,154.7773 L51.5,155.0576 L61,154.2249 L70.5,155.0351 L80,155.3102 L89.5,153.8262 L99,154.6737 L108.5,154.2087 L118,154.7773 " fill="#181818" style="stroke:#181818;stroke-width:1.0;"/><polygon fill="#181818" points="108,150.7773,108.026,150.8424,109.9487,151.4491,112.0239,152.4372,114.0495,153.301,115.9117,153.7566,118,154.7773,117.9904,154.7533,115.9472,155.4453,113.9525,156.2587,111.9916,157.1562,109.9144,157.7634,108,158.7773,108.1305,158.9078,108.6514,157.8288,109.5534,157.1307,110.5018,156.4792,111.1798,155.5571,112,154.7773,112.0161,154.7934,111.1925,153.9698,110.4421,153.2194,109.6564,152.4337,108.938,151.7154,108,150.7773" style="stroke:#181818;stroke-width:1.0;"/><path d="M208.5,136.7773 L208.5934,136.7773 L208.3159,140.3773 L208.5859,143.9773 L208.6776,147.5773 L208.1829,151.1773 L208.5,154.7773 " fill="#181818" style="stroke:#181818;stroke-width:1.0;"/><path d="M208.5,154.7773 L208.5,155.0576 L199,154.2249 L189.5,155.0351 L180,155.3102 L170.5,153.8262 L161,154.6737 L151.5,154.2087 L142,154.7773 " fill="#181818" style="stroke:#181818;stroke-width:1.0;"/><polygon fill="#181818" points="152,150.7773,152.026,150.8424,149.9487,151.4491,148.0239,152.4372,146.0495,153.301,143.9117,153.7566,142,154.7773,141.9904,154.7533,143.9472,155.4453,145.9525,156.2587,147.9916,157.1562,149.9144,157.7634,152,158.7773,152.1305,158.9078,151.0514,157.8288,150.3534,157.1307,149.7018,156.4792,148.7798,155.5571,148,154.7773,148.0161,154.7934,148.7925,153.9698,149.6421,153.2194,150.4564,152.4337,151.338,151.7154,152,150.7773" style="stroke:#181818;stroke-width:1.0;"/><path d="M130,30 L130.0934,30 L129.8159,34 L130.0859,38 L130.1776,42 L129.6829,46 L130,50 " fill="#181818" style="stroke:#181818;stroke-width:1.0;"/><polygon fill="#181818" points="126,40,126.065,40.026,126.6718,41.9487,127.6598,44.0239,128.5237,46.0495,128.9792,47.9117,130,50,129.9759,49.9904,130.668,47.9472,131.4813,45.9525,132.3789,43.9916,132.986,41.9144,134,40,134.1305,40.1305,133.0514,40.6514,132.3534,41.5534,131.7018,42.5018,130.7798,43.1798,130,44,130.0161,44.0161,129.1925,43.1925,128.4421,42.4421,127.6564,41.6564,126.938,40.938,126,40" style="stroke:#181818;stroke-width:1.0;"/><path d="M130,166.7773 L130.0934,166.7773 L129.8159,170.7773 L130.0859,174.7773 L130.1776,178.7773 L129.6829,182.7773 L130,186.7773 " fill="#181818" style="stroke:#181818;stroke-width:1.0;"/><polygon fill="#181818" points="126,176.7773,126.065,176.8034,126.6718,178.7261,127.6598,180.8013,128.5237,182.8268,128.9792,184.689,130,186.7773,129.9759,186.7677,130.668,184.7245,131.4813,182.7299,132.3789,180.7689,132.986,178.6918,134,176.7773,134.1305,176.9078,133.0514,177.4288,132.3534,178.3307,131.7018,179.2792,130.7798,179.9571,130,180.7773,130.0161,180.7934,129.1925,179.9698,128.4421,179.2194,127.6564,178.4337,126.938,177.7154,126,176.7773" style="stroke:#181818;stroke-width:1.0;"/><!--MD5=[160704852f8e20784e6163346f7ee6e6]
@startuml
skinparam handwritten true
start
if (Graphviz installed?) then (yes)
  :process all\ndiagrams;
else (no)
  :process only
  __sequence__ and __activity__ diagrams;
endif
stop
@enduml

PlantUML version 1.2022.4(Sat Apr 09 21:29:17 CST 2022)
(GPL source distribution)
Java Runtime: Java(TM) SE Runtime Environment
JVM: Java HotSpot(TM) 64-Bit Server VM
Default Encoding: GBK
Language: zh
Country: CN
--></g></svg>