<?xml version="1.0" encoding="UTF-8" standalone="no"?><svg xmlns="http://www.w3.org/2000/svg" xmlns:xlink="http://www.w3.org/1999/xlink" contentStyleType="text/css" height="134px" preserveAspectRatio="none" style="width:207px;height:134px;background:#FFFFFF;" version="1.1" viewBox="0 0 207 134" width="207px" zoomAndPan="magnify"><defs/><g><path d="M27,39.1201 L27.2802,39.1201 L26.4476,48.7458 L27.2577,58.3716 L27.5329,67.9973 L26.0488,77.623 L26.8964,87.2488 L27,96.8745 " fill="none" style="stroke:#181818;stroke-width:0.5;stroke-dasharray:5.0,5.0;"/><path d="M78,39.1201 L78.2802,39.1201 L77.4476,48.7458 L78.2577,58.3716 L78.5329,67.9973 L77.0488,77.623 L77.8964,87.2488 L78,96.8745 " fill="none" style="stroke:#181818;stroke-width:0.5;stroke-dasharray:5.0,5.0;"/><polygon fill="#E2E2F0" points="7.5,5,7.5,5.0701,15.3,4.8619,23.1,5.0644,30.9,5.1332,38.7,4.7622,46.5,5,46.4901,4.9761,46.7991,5.0151,47.1582,5.1748,47.552,5.4184,47.826,5.3729,48.2678,5.7322,48.4383,5.8029,48.2201,6.0054,48.4998,6.4141,48.8401,6.848,48.8271,7.1355,49,7.5,49.0227,7.5,48.9894,13.124,49.0595,18.748,49.0797,24.3721,49.1952,29.9961,49,35.6201,49.2067,35.7057,49.0627,36.0603,48.7855,36.3597,48.7034,36.7399,48.6305,37.1239,48.2678,37.3879,48.1758,37.1658,48.0008,37.7433,47.5228,37.5895,47.2752,37.9916,46.7904,37.8212,46.5,38.1201,46.5,38.0973,38.7,38.3673,30.9,38.1039,23.1,38.1552,15.3,38.233,7.5,38.1201,7.5531,38.2483,7.1459,37.9725,6.8295,37.9157,6.3663,37.5045,6.1221,37.6219,5.7322,37.3879,5.9011,37.4578,5.7227,37.091,5.6281,36.759,5.1441,36.2656,4.9456,35.8905,5,35.6201,4.7929,35.6201,4.9804,29.9961,4.9345,24.3721,5.2271,18.748,4.9418,13.124,5,7.5,4.8944,7.4562,5.2167,7.1756,5.0875,6.7078,5.2795,6.3731,5.7856,6.1686,5.7322,5.7322,5.7878,5.8664,6.1795,5.812,6.3983,5.3402,6.8336,5.3912,7.2218,5.3283,7.5,5" style="stroke:#181818;stroke-width:0.5;"/><text fill="#000000" font-family="sans-serif" font-size="14" lengthAdjust="spacing" textLength="30" x="12" y="28.0439">Alice</text><polygon fill="#E2E2F0" points="7.5,95.8745,7.5,95.9446,15.3,95.7364,23.1,95.9389,30.9,96.0077,38.7,95.6367,46.5,95.8745,46.4901,95.8506,46.7991,95.8896,47.1582,96.0493,47.552,96.2929,47.826,96.2474,48.2678,96.6067,48.4383,96.6774,48.2201,96.8799,48.4998,97.2886,48.8401,97.7225,48.8271,98.01,49,98.3745,49.0227,98.3745,48.9894,103.9985,49.0595,109.6226,49.0797,115.2466,49.1952,120.8706,49,126.4946,49.2067,126.5802,49.0627,126.9348,48.7855,127.2342,48.7034,127.6144,48.6305,127.9984,48.2678,128.2624,48.1758,128.0403,48.0008,128.6178,47.5228,128.464,47.2752,128.8661,46.7904,128.6957,46.5,128.9946,46.5,128.9718,38.7,129.2418,30.9,128.9784,23.1,129.0297,15.3,129.1075,7.5,128.9946,7.5531,129.1228,7.1459,128.847,6.8295,128.7902,6.3663,128.379,6.1221,128.4964,5.7322,128.2624,5.9011,128.3323,5.7227,127.9655,5.6281,127.6335,5.1441,127.1401,4.9456,126.765,5,126.4946,4.7929,126.4946,4.9804,120.8706,4.9345,115.2466,5.2271,109.6226,4.9418,103.9985,5,98.3745,4.8944,98.3308,5.2167,98.0501,5.0875,97.5823,5.2795,97.2476,5.7856,97.0431,5.7322,96.6067,5.7878,96.7409,6.1795,96.6865,6.3983,96.2148,6.8336,96.2657,7.2218,96.2028,7.5,95.8745" style="stroke:#181818;stroke-width:0.5;"/><text fill="#000000" font-family="sans-serif" font-size="14" lengthAdjust="spacing" textLength="30" x="12" y="118.9185">Alice</text><polygon fill="#E2E2F0" points="61.5,5,61.5,5.0701,68.3,4.8619,75.1,5.0644,81.9,5.1332,88.7,4.7622,95.5,5,95.4901,4.9761,95.7991,5.0151,96.1582,5.1748,96.552,5.4184,96.826,5.3729,97.2678,5.7322,97.4383,5.8029,97.2201,6.0054,97.4998,6.4141,97.8401,6.848,97.8271,7.1355,98,7.5,98.0227,7.5,97.9894,13.124,98.0595,18.748,98.0797,24.3721,98.1952,29.9961,98,35.6201,98.2067,35.7057,98.0627,36.0603,97.7855,36.3597,97.7034,36.7399,97.6305,37.1239,97.2678,37.3879,97.1758,37.1658,97.0008,37.7433,96.5228,37.5895,96.2752,37.9916,95.7904,37.8212,95.5,38.1201,95.5,38.0973,88.7,38.3673,81.9,38.1039,75.1,38.1552,68.3,38.233,61.5,38.1201,61.5531,38.2483,61.1459,37.9725,60.8295,37.9157,60.3663,37.5045,60.1221,37.6219,59.7322,37.3879,59.9011,37.4578,59.7227,37.091,59.6281,36.759,59.1441,36.2656,58.9456,35.8905,59,35.6201,58.7929,35.6201,58.9804,29.9961,58.9345,24.3721,59.2271,18.748,58.9418,13.124,59,7.5,58.8944,7.4562,59.2167,7.1756,59.0875,6.7078,59.2795,6.3731,59.7856,6.1686,59.7322,5.7322,59.7878,5.8664,60.1795,5.812,60.3983,5.3402,60.8336,5.3912,61.2218,5.3283,61.5,5" style="stroke:#181818;stroke-width:0.5;"/><text fill="#000000" font-family="sans-serif" font-size="14" lengthAdjust="spacing" textLength="25" x="66" y="28.0439">Bob</text><polygon fill="#E2E2F0" points="61.5,95.8745,61.5,95.9446,68.3,95.7364,75.1,95.9389,81.9,96.0077,88.7,95.6367,95.5,95.8745,95.4901,95.8506,95.7991,95.8896,96.1582,96.0493,96.552,96.2929,96.826,96.2474,97.2678,96.6067,97.4383,96.6774,97.2201,96.8799,97.4998,97.2886,97.8401,97.7225,97.8271,98.01,98,98.3745,98.0227,98.3745,97.9894,103.9985,98.0595,109.6226,98.0797,115.2466,98.1952,120.8706,98,126.4946,98.2067,126.5802,98.0627,126.9348,97.7855,127.2342,97.7034,127.6144,97.6305,127.9984,97.2678,128.2624,97.1758,128.0403,97.0008,128.6178,96.5228,128.464,96.2752,128.8661,95.7904,128.6957,95.5,128.9946,95.5,128.9718,88.7,129.2418,81.9,128.9784,75.1,129.0297,68.3,129.1075,61.5,128.9946,61.5531,129.1228,61.1459,128.847,60.8295,128.7902,60.3663,128.379,60.1221,128.4964,59.7322,128.2624,59.9011,128.3323,59.7227,127.9655,59.6281,127.6335,59.1441,127.1401,58.9456,126.765,59,126.4946,58.7929,126.4946,58.9804,120.8706,58.9345,115.2466,59.2271,109.6226,58.9418,103.9985,59,98.3745,58.8944,98.3308,59.2167,98.0501,59.0875,97.5823,59.2795,97.2476,59.7856,97.0431,59.7322,96.6067,59.7878,96.7409,60.1795,96.6865,60.3983,96.2148,60.8336,96.2657,61.2218,96.2028,61.5,95.8745" style="stroke:#181818;stroke-width:0.5;"/><text fill="#000000" font-family="sans-serif" font-size="14" lengthAdjust="spacing" textLength="25" x="66" y="118.9185">Bob</text><polygon fill="#181818" points="66.5,71.8745,66.526,71.9396,68.4487,72.5463,70.5239,73.5343,72.5495,74.3982,74.4117,74.8537,76.5,75.8745,76.4904,75.8505,74.4472,76.5425,72.4525,77.3558,70.4916,78.2534,68.4144,78.8605,66.5,79.8745,66.6305,80.005,67.1514,78.926,68.0534,78.2279,69.0018,77.5763,69.6798,76.6543,70.5,75.8745,70.5161,75.8906,69.6925,75.067,68.9421,74.3166,68.1564,73.5309,67.438,72.8126,66.5,71.8745" style="stroke:#181818;stroke-width:1.0;"/><path d="M27,75.8745 L27,76.1548 L36.1,75.3221 L45.2,76.1322 L54.3,76.4074 L63.4,74.9233 L72.5,75.8745 " fill="none" style="stroke:#181818;stroke-width:1.0;"/><text fill="#000000" font-family="sans-serif" font-size="13" lengthAdjust="spacing" textLength="27" x="34" y="71.0181">hello</text><path d="M83,54.1201 L83.1868,54.1201 L82.6317,59.5201 L83.1718,64.9201 L83.3553,70.3201 L82.3659,75.7201 L83,81.1201 L83,80.9129 L92.75,79.9828 L102.5,80.0975 L112.25,80.9384 L122,79.2765 L131.75,82.5965 L141.5,79.4394 L151.25,80.5927 L161,82.272 L170.75,80.8914 L180.5,81.3021 L190.25,81.0349 L200,81.1201 L200.1587,81.1201 L200.2126,77.7201 L200.5206,74.3201 L200.5965,70.9201 L200.6038,67.5201 L200,64.1201 L200.16,64.2802 L198.2914,62.4115 L196.4414,60.5615 L193.5467,57.6668 L192.4265,56.5466 L190,54.1201 L190,53.3294 L180.2727,55.5436 L170.5455,52.8001 L160.8182,53.9375 L151.0909,56.0977 L141.3636,53.9902 L131.6364,54.4009 L121.9091,55.0231 L112.1818,55.2301 L102.4545,54.1097 L92.7273,54.886 L83,54.1201 " fill="#FEFFDD" style="stroke:#181818;stroke-width:0.5;"/><path d="M190,54.1201 L189.4912,54.1201 L190.2528,56.1201 L190.4873,58.1201 L190.3951,60.1201 L190.5449,62.1201 L190,64.1201 L190,63.6907 L192,63.5404 L194,63.5678 L196,64.0678 L198,63.9454 L200,64.1201 L200.4283,64.5484 L197.8902,62.0103 L195.7844,59.9045 L194.1435,58.2636 L191.5809,55.701 L190,54.1201 " fill="#FEFFDD" style="stroke:#181818;stroke-width:0.5;"/><text fill="#000000" font-family="sans-serif" font-size="13" lengthAdjust="spacing" textLength="96" x="89" y="74.0181">Not validated yet</text><!--MD5=[4b67bb3351ccd5db5466c1fa086aafa2]
@startuml
skinparam handwritten true
Alice -> Bob : hello
note right: Not validated yet
@enduml

PlantUML version 1.2022.4(Sat Apr 09 21:29:17 CST 2022)
(GPL source distribution)
Java Runtime: Java(TM) SE Runtime Environment
JVM: Java HotSpot(TM) 64-Bit Server VM
Default Encoding: GBK
Language: zh
Country: CN
--></g></svg>