<?xml version="1.0" encoding="UTF-8" standalone="no"?><svg xmlns="http://www.w3.org/2000/svg" xmlns:xlink="http://www.w3.org/1999/xlink" contentStyleType="text/css" height="170px" preserveAspectRatio="none" style="width:180px;height:170px;background:#FFFFFF;" version="1.1" viewBox="0 0 180 170" width="180px" zoomAndPan="magnify"><defs/><g><!--MD5=[aa7f586532e18719e6cefa70fc650583]
class Object--><g id="elem_Object"><polygon fill="#F1F1F1" points="57.5,7,57.5,7.2102,67.2143,6.5857,76.9286,7.1933,86.6429,7.3997,96.3571,6.2866,106.0714,6.9223,115.7857,6.5735,125.5,7,125.4511,6.8819,125.8449,7.1255,126.1189,7.08,126.6313,7.6098,126.8338,7.3917,127.2678,7.7322,127.2069,7.707,127.5472,8.1409,127.5342,8.4284,127.7281,8.8016,127.8437,9.1424,128,9.5,128.0595,9.5,128.0797,18.1,128.1952,26.7,128.2237,35.3,128.2264,43.9,128,52.5,128.0784,52.5325,127.9963,52.9127,127.9234,53.2967,127.3386,53.4687,127.6232,54.0008,127.2678,54.2678,127.2299,54.1765,126.9823,54.5786,126.4975,54.4082,126.1984,54.686,125.9482,55.0819,125.5,55,125.5,54.9513,115.7857,55.1053,106.0714,55.3386,96.3571,55.4162,86.6429,54.9961,76.9286,55.2872,67.2143,54.4276,57.5,55,57.5363,55.0876,57.2164,55.0224,56.8496,54.844,56.5175,54.7494,56.0242,54.2654,55.7322,54.2678,55.5314,54.1846,55.3944,53.8349,55.4212,53.5531,55.2324,53.182,55.3563,52.9405,55,52.5,54.9418,52.5,54.8856,43.9,55.0761,35.3,54.7777,26.7,54.827,18.1,55,9.5,55.1999,9.5828,55.2806,9.202,55.5191,8.8866,55.3402,8.3983,55.6841,8.1265,55.7322,7.7322,55.8075,7.9141,56.0255,7.4403,56.4271,7.4098,56.809,7.3317,57.2296,7.3472,57.5,7" style="stroke:#181818;stroke-width:0.5;"/><polygon fill="#ADD1B2" points="81.0608,25.6756,79.4484,27.8788,77.5412,31.1057,74.8136,33.2804,71.9474,34.4696,69.662,34.5728,66.7247,33.0855,63.9532,32.1139,61.8495,30.1412,60.7461,27.8828,60.0917,26.0845,59.4506,23.7357,58.41,21.7145,59.2096,19.741,59.9102,17.5792,62.5393,15.8695,64.389,13.6511,66.6784,12.9144,69.4001,12.2801,72.8904,12.657,74.8021,13.5585,77.0247,13.9672,79.7272,16.736,80.6693,19.659,81.0786,21.6534,80.615,24.9399" style="stroke:#181818;stroke-width:1.0;"/><path d="M68.5781,28.3594 Q66.7188,28.3594 65.625,26.9688 Q64.5313,25.5781 64.5313,22.5938 Q64.5313,20.0625 65.6953,18.4063 Q66.8594,16.75 68.8438,16.75 Q70.3125,16.75 70.7813,16.875 Q71.25,17.0781 71.25,17.0781 Q71.25,17.0781 71.25,17.0078 Q71.25,16.9375 71.8594,16.0156 L72.9063,19.6719 L71.5781,20.0781 Q71.1094,18.5313 70.4453,17.8672 Q69.7813,17.2031 68.7188,17.2031 Q68.3281,17.2031 67.5625,18.7344 Q66.7969,20.2656 66.7969,22.5156 Q66.7969,24.9844 67.4609,26.375 Q68.125,27.7656 68.6563,27.7656 Q69.7188,27.7656 70.4766,27 Q71.2344,26.2344 71.5781,24.5781 L72.9063,25.1719 Q72.5781,26.5781 71.6797,27.4688 Q70.7813,28.3594 68.5781,28.3594 Z " fill="#000000"/><text fill="#000000" font-family="sans-serif" font-size="14" lengthAdjust="spacing" textLength="41" x="84" y="29.4839">Object</text><path d="M56,39 L56,39.2802 L66.1429,38.4476 L76.2857,39.2577 L86.4286,39.5329 L96.5714,38.0488 L106.7143,38.8964 L116.8571,38.4313 L127,39 " fill="#F1F1F1" style="stroke:#181818;stroke-width:0.5;"/><path d="M56,47 L56,47.2802 L66.1429,46.4476 L76.2857,47.2577 L86.4286,47.5329 L96.5714,46.0488 L106.7143,46.8964 L116.8571,46.4313 L127,47 " fill="#F1F1F1" style="stroke:#181818;stroke-width:0.5;"/></g><!--MD5=[9df70cf33be424c1b8543b3f439cae89]
class String--><g id="elem_String"><polygon fill="#F1F1F1" points="9.5,115,9.5,115.2102,20.1667,114.5857,30.8333,115.1933,41.5,115.3997,52.1667,114.2866,62.8333,114.9223,73.5,115,73.4456,114.8687,73.8046,115.0283,74.1984,115.2719,74.4725,115.2264,74.9848,115.7563,75.2678,115.7322,75.0737,115.6518,75.3533,116.0606,75.6937,116.4944,75.6807,116.782,75.8746,117.1552,76,117.5,75.9894,117.5,76.0595,126.1,76.0797,134.7,76.1952,143.3,76.2237,151.9,76,160.5,76.2092,160.5866,75.932,160.886,75.8499,161.2662,75.7769,161.6502,75.1921,161.8222,75.2678,162.2678,75.3543,162.4767,74.8764,162.3229,74.6288,162.7251,74.144,162.5547,73.8448,162.8325,73.5,163,73.5,163.7416,62.8333,162.9513,52.1667,163.1053,41.5,163.3386,30.8333,163.4162,20.1667,162.9961,9.5,163,9.5366,163.0885,9.0734,162.6773,8.8292,162.7947,8.5093,162.7295,8.1425,162.5511,7.7322,162.2678,7.921,162.346,7.437,161.8526,7.2385,161.4775,7.1015,161.1278,7.1283,160.846,7,160.5,6.9345,160.5,7.2271,151.9,6.9418,143.3,6.8856,134.7,7.0761,126.1,7,117.5,6.7946,117.4149,6.9866,117.0802,7.4927,116.8757,7.5735,116.4949,7.812,116.1795,7.7322,115.7322,7.6912,115.6331,8.1265,115.6841,8.5147,115.6212,8.7326,115.1474,9.1342,115.1169,9.5,115" style="stroke:#181818;stroke-width:0.5;"/><polygon fill="#ADD1B2" points="33.0608,133.6756,31.4484,135.8788,29.5412,139.1057,26.8136,141.2804,23.9474,142.4696,21.662,142.5728,18.7247,141.0855,15.9532,140.1139,13.8495,138.1412,12.7461,135.8828,12.0917,134.0845,11.4506,131.7357,10.41,129.7145,11.2096,127.741,11.9102,125.5792,14.5393,123.8695,16.389,121.6511,18.6784,120.9144,21.4001,120.2801,24.8904,120.657,26.8021,121.5585,29.0247,121.9672,31.7272,124.736,32.6693,127.659,33.0786,129.6534,32.615,132.9399" style="stroke:#181818;stroke-width:1.0;"/><path d="M20.5781,136.3594 Q18.7188,136.3594 17.625,134.9688 Q16.5313,133.5781 16.5313,130.5938 Q16.5313,128.0625 17.6953,126.4063 Q18.8594,124.75 20.8438,124.75 Q22.3125,124.75 22.7813,124.875 Q23.25,125.0781 23.25,125.0781 Q23.25,125.0781 23.25,125.0078 Q23.25,124.9375 23.8594,124.0156 L24.9063,127.6719 L23.5781,128.0781 Q23.1094,126.5313 22.4453,125.8672 Q21.7813,125.2031 20.7188,125.2031 Q20.3281,125.2031 19.5625,126.7344 Q18.7969,128.2656 18.7969,130.5156 Q18.7969,132.9844 19.4609,134.375 Q20.125,135.7656 20.6563,135.7656 Q21.7188,135.7656 22.4766,135 Q23.2344,134.2344 23.5781,132.5781 L24.9063,133.1719 Q24.5781,134.5781 23.6797,135.4688 Q22.7813,136.3594 20.5781,136.3594 Z " fill="#000000"/><text fill="#000000" font-family="sans-serif" font-size="14" lengthAdjust="spacing" textLength="37" x="36" y="137.4839">String</text><path d="M8,147 L8,147.2802 L17.5714,146.4476 L27.1429,147.2577 L36.7143,147.5329 L46.2857,146.0488 L55.8571,146.8964 L65.4286,146.4313 L75,147 " fill="#F1F1F1" style="stroke:#181818;stroke-width:0.5;"/><path d="M8,155 L8,155.2802 L17.5714,154.4476 L27.1429,155.2577 L36.7143,155.5329 L46.2857,154.0488 L55.8571,154.8964 L65.4286,154.4313 L75,155 " fill="#F1F1F1" style="stroke:#181818;stroke-width:0.5;"/></g><!--MD5=[7829b64950ce38e0487c4015ea331f97]
class Date--><g id="elem_Date"><polygon fill="#F1F1F1" points="114,115,114,115.2102,123.5,114.5857,133,115.1933,142.5,115.3997,152,114.2866,161.5,114.9223,171,115,170.9456,114.8687,171.3046,115.0283,171.6984,115.2719,171.9725,115.2264,172.4848,115.7563,172.7678,115.7322,172.5737,115.6518,172.8533,116.0606,173.1937,116.4944,173.1807,116.782,173.3746,117.1552,173.5,117.5,173.4894,117.5,173.5595,126.1,173.5797,134.7,173.6952,143.3,173.7237,151.9,173.5,160.5,173.7092,160.5866,173.432,160.886,173.3499,161.2662,173.2769,161.6502,172.6921,161.8222,172.7678,162.2678,172.8543,162.4767,172.3764,162.3229,172.1288,162.7251,171.644,162.5547,171.3448,162.8325,171,163,171,163.7416,161.5,162.9513,152,163.1053,142.5,163.3386,133,163.4162,123.5,162.9961,114,163,114.0366,163.0885,113.5734,162.6773,113.3292,162.7947,113.0093,162.7295,112.6425,162.5511,112.2322,162.2678,112.421,162.346,111.937,161.8526,111.7385,161.4775,111.6015,161.1278,111.6283,160.846,111.5,160.5,111.4345,160.5,111.7271,151.9,111.4418,143.3,111.3856,134.7,111.5761,126.1,111.5,117.5,111.2946,117.4149,111.4866,117.0802,111.9927,116.8757,112.0735,116.4949,112.312,116.1795,112.2322,115.7322,112.1912,115.6331,112.6265,115.6841,113.0147,115.6212,113.2326,115.1474,113.6342,115.1169,114,115" style="stroke:#181818;stroke-width:0.5;"/><polygon fill="#ADD1B2" points="137.5608,133.6756,135.9484,135.8788,134.0412,139.1057,131.3136,141.2804,128.4474,142.4696,126.162,142.5728,123.2247,141.0855,120.4532,140.1139,118.3495,138.1412,117.2461,135.8828,116.5917,134.0845,115.9506,131.7357,114.91,129.7145,115.7096,127.741,116.4102,125.5792,119.0393,123.8695,120.889,121.6511,123.1784,120.9144,125.9001,120.2801,129.3904,120.657,131.3021,121.5585,133.5247,121.9672,136.2272,124.736,137.1693,127.659,137.5786,129.6534,137.115,132.9399" style="stroke:#181818;stroke-width:1.0;"/><path d="M125.0781,136.3594 Q123.2188,136.3594 122.125,134.9688 Q121.0313,133.5781 121.0313,130.5938 Q121.0313,128.0625 122.1953,126.4063 Q123.3594,124.75 125.3438,124.75 Q126.8125,124.75 127.2813,124.875 Q127.75,125.0781 127.75,125.0781 Q127.75,125.0781 127.75,125.0078 Q127.75,124.9375 128.3594,124.0156 L129.4063,127.6719 L128.0781,128.0781 Q127.6094,126.5313 126.9453,125.8672 Q126.2813,125.2031 125.2188,125.2031 Q124.8281,125.2031 124.0625,126.7344 Q123.2969,128.2656 123.2969,130.5156 Q123.2969,132.9844 123.9609,134.375 Q124.625,135.7656 125.1563,135.7656 Q126.2188,135.7656 126.9766,135 Q127.7344,134.2344 128.0781,132.5781 L129.4063,133.1719 Q129.0781,134.5781 128.1797,135.4688 Q127.2813,136.3594 125.0781,136.3594 Z " fill="#000000"/><text fill="#000000" font-family="sans-serif" font-size="14" lengthAdjust="spacing" textLength="30" x="140.5" y="137.4839">Date</text><path d="M112.5,147 L112.5,147.2802 L122.5,146.4476 L132.5,147.2577 L142.5,147.5329 L152.5,146.0488 L162.5,146.8964 L172.5,147 " fill="#F1F1F1" style="stroke:#181818;stroke-width:0.5;"/><path d="M112.5,155 L112.5,155.2802 L122.5,154.4476 L132.5,155.2577 L142.5,155.5329 L152.5,154.0488 L162.5,154.8964 L172.5,155 " fill="#F1F1F1" style="stroke:#181818;stroke-width:0.5;"/></g><!--MD5=[1be87bd6599a58e7235d73d497810def]
reverse link Object to String--><g id="link_Object_String"><path d="M72.1162,73.0936 L72.3697,73.2132 L67.6935,81.1749 L64.5031,89.8375 L60.8289,98.2718 L55.5635,105.9556 L52.5007,114.6784 " fill="none" style="stroke:#181818;stroke-width:1.0;"/><polygon fill="none" points="65.7873,70.1027,65.8372,70.1518,68.6615,66.9853,71.7786,64.1068,74.8003,61.1345,77.5085,57.8537,80.6507,55,80.6249,54.9973,80.069,59.2003,79.643,63.4169,79.3073,67.6429,78.6604,71.8364,78.4493,76.0754,78.528,76.2423,75.8273,74.6908,73.3564,73.6267,70.9135,72.622,68.3075,71.2714,65.7873,70.1027" style="stroke:#181818;stroke-width:1.0;"/></g><!--MD5=[2c85ce58d7e62bc1847b96a045a5de78]
reverse link Object to Date--><g id="link_Object_Date"><path d="M111.271,73.0936 L111.5235,73.2151 L114.7748,81.171 L119.5064,89.8393 L123.756,98.2755 L126.4203,105.949 L131.279,114.6784 " fill="none" style="stroke:#181818;stroke-width:1.0;"/><polygon fill="none" points="104.9296,76.0579,104.9992,76.0657,104.3197,71.8309,104.0483,67.6419,103.644,63.438,102.8026,59.1851,102.5662,55,102.5479,54.9817,105.4614,57.8971,108.4673,60.9048,111.5374,63.9767,114.3862,66.8275,117.545,69.988,117.625,70.1543,114.9308,71.0127,112.4703,72.3566,110.0382,73.7597,107.4403,74.8182,104.9296,76.0579" style="stroke:#181818;stroke-width:1.0;"/></g><!--MD5=[2f68afc229d48198e4bc58160eb2686e]
@startuml
skinparam handwritten true
class Object
class String extends Object
class Date extends Object
@enduml

PlantUML version 1.2022.4(Sat Apr 09 21:29:17 CST 2022)
(GPL source distribution)
Java Runtime: Java(TM) SE Runtime Environment
JVM: Java HotSpot(TM) 64-Bit Server VM
Default Encoding: GBK
Language: zh
Country: CN
--></g></svg>